<svg width="160" height="160" viewBox="0 0 160 160" fill="none" xmlns="http://www.w3.org/2000/svg">
<path opacity="0.5" fill-rule="evenodd" clip-rule="evenodd" d="M80 160C35.8172 160 0 124.183 0 80C0 35.8172 35.8172 0 80 0C124.183 0 160 35.8172 160 80C160 124.183 124.183 160 80 160ZM121.717 98.6589C122.935 100.159 122.707 102.364 121.206 103.582C119.706 104.801 117.502 104.572 116.283 103.072L99.2831 82.1391C98.239 80.8534 98.239 79.0119 99.2831 77.7262L116.283 56.7935C117.502 55.293 119.706 55.0645 121.206 56.2831C122.707 57.5017 122.935 59.706 121.717 61.2065L106.509 79.9327L121.717 98.6589Z" fill="white"/>
</svg>
