<svg width="40" height="40" viewBox="0 0 40 40" fill="none"
  xmlns="http://www.w3.org/2000/svg">
  <g clip-path="url(#clip12)">
    <path d="M0.750162 40H20.7501C21.1183 40 21.4168 39.7015 21.4168 39.3333V34.6667H36.7501C37.1183 34.6667 37.4168 34.3682 37.4168 34V30.6667H39.4168C39.6089 30.6667 39.7918 30.5837 39.9181 30.4391C40.0447 30.2946 40.1027 30.1025 40.0776 29.9121L37.4168 9.95605V4.66667C37.4168 4.2985 37.1183 4 36.7501 4H33.4168V2C33.4168 0.895508 32.5213 0 31.4168 0C30.3123 0 29.4168 0.895508 29.4168 2V4H26.7501V2C26.7501 0.895508 25.8546 0 24.7501 0C23.6457 0 22.7501 0.895508 22.7501 2V4H20.0835V2C20.0835 0.895508 19.188 0 18.0835 0C16.979 0 16.0835 0.895508 16.0835 2V4H13.4168V2C13.4168 0.895508 12.5213 0 11.4168 0C10.3123 0 9.41682 0.895508 9.41682 2V4H6.08349C5.71533 4 5.41683 4.2985 5.41683 4.66667V18.6667H0.750162C0.381998 18.6667 0.0834961 18.9652 0.0834961 19.3333V39.3333C0.0834961 39.7015 0.381998 40 0.750162 40ZM37.4168 20.0439L38.6554 29.3333H37.4168V20.0439ZM8.08349 28H5.73356C5.29638 27.3477 4.73584 26.7871 4.08349 26.3499V24.3167C4.73584 23.8796 5.29638 23.319 5.73356 22.6667H8.08349V28ZM12.0835 38.6667H9.41682V37.3333H12.0835V38.6667ZM12.0835 36H9.41682V34.6667H12.0835V36ZM12.0835 33.3333H9.41682V32H12.0835V33.3333ZM12.0835 30.6667H9.41682V29.3333H12.0835V30.6667ZM12.0835 28H9.41682V22.6667H12.0835V28ZM12.0835 21.3333H9.41682V20H12.0835V21.3333ZM20.0835 38.6667H13.4168V37.3333H20.0835V38.6667ZM20.0835 36H13.4168V34.6667H20.0835V36ZM20.0835 33.3333H13.4168V32H20.0835V33.3333ZM20.0835 30.6667H13.4168V29.3333H16.1362C16.3742 29.333 16.5939 29.2061 16.7127 29C17.1229 28.2933 17.7101 27.7061 18.4168 27.2959C18.6229 27.1771 18.7498 26.9574 18.7502 26.7194V23.9473C18.7498 23.7093 18.6229 23.4896 18.4168 23.3708C17.7101 22.9606 17.1229 22.3734 16.7127 21.6667C16.5939 21.4606 16.3742 21.3337 16.1362 21.3333H13.4168V20H20.0835V30.6667ZM13.4168 28V22.6667H15.7668C16.2039 23.319 16.7645 23.8796 17.4168 24.3167V26.3499C16.7645 26.7871 16.2039 27.3477 15.7668 28H13.4168ZM30.7501 2C30.7501 1.63184 31.0486 1.33333 31.4168 1.33333C31.785 1.33333 32.0835 1.63184 32.0835 2V6C32.0835 6.36816 31.785 6.66667 31.4168 6.66667C31.0486 6.66667 30.7501 6.36816 30.7501 6V2ZM24.0835 2C24.0835 1.63184 24.382 1.33333 24.7501 1.33333C25.1183 1.33333 25.4168 1.63184 25.4168 2V6C25.4168 6.36816 25.1183 6.66667 24.7501 6.66667C24.382 6.66667 24.0835 6.36816 24.0835 6V2ZM17.4168 2C17.4168 1.63184 17.7153 1.33333 18.0835 1.33333C18.4516 1.33333 18.7502 1.63184 18.7502 2V6C18.7502 6.36816 18.4516 6.66667 18.0835 6.66667C17.7153 6.66667 17.4168 6.36816 17.4168 6V2ZM10.7502 2C10.7502 1.63184 11.0487 1.33333 11.4168 1.33333C11.785 1.33333 12.0835 1.63184 12.0835 2V6C12.0835 6.36816 11.785 6.66667 11.4168 6.66667C11.0487 6.66667 10.7502 6.36816 10.7502 6V2ZM6.75016 5.33333H9.41682V6C9.41682 7.10449 10.3123 8 11.4168 8C12.5213 8 13.4168 7.10449 13.4168 6V5.33333H16.0835V6C16.0835 7.10449 16.979 8 18.0835 8C19.188 8 20.0835 7.10449 20.0835 6V5.33333H22.7501V6C22.7501 7.10449 23.6457 8 24.7501 8C25.8546 8 26.7501 7.10449 26.7501 6V5.33333H29.4168V6C29.4168 7.10449 30.3123 8 31.4168 8C32.5213 8 33.4168 7.10449 33.4168 6V5.33333H36.0835V9.33333H6.75016V5.33333ZM6.75016 10.6667H36.0835V33.3333H21.4168V19.3333C21.4168 18.9652 21.1183 18.6667 20.7501 18.6667H6.75016V10.6667ZM1.41683 20H8.08349V21.3333H5.36409C5.12614 21.3337 4.90641 21.4606 4.78759 21.6667C4.37744 22.3734 3.7902 22.9606 3.08349 23.3708C2.87744 23.4896 2.75049 23.7093 2.75016 23.9473V26.7194C2.75049 26.9574 2.87744 27.1771 3.08349 27.2959C3.7902 27.7061 4.37744 28.2933 4.78759 29C4.90641 29.2061 5.12614 29.333 5.36409 29.3333H8.08349V30.6667H1.41683V20ZM1.41683 32H8.08349V33.3333H1.41683V32ZM1.41683 34.6667H8.08349V36H1.41683V34.6667ZM1.41683 37.3333H8.08349V38.6667H1.41683V37.3333Z" fill="#CD1E19"/>
    <path d="M5.4165 24.6667H6.74984V26.0001H5.4165V24.6667Z" fill="#CD1E19"/>
    <path d="M14.75 24.6667H16.0833V26.0001H14.75V24.6667Z" fill="#CD1E19"/>
    <path d="M25.4167 17.3333C26.8893 17.3333 28.0833 16.1393 28.0833 14.6667C28.0833 13.194 26.8893 12 25.4167 12C23.944 12 22.75 13.194 22.75 14.6667C22.75 16.1393 23.944 17.3333 25.4167 17.3333ZM25.4167 13.3333C26.153 13.3333 26.75 13.9303 26.75 14.6667C26.75 15.403 26.153 16 25.4167 16C24.6803 16 24.0833 15.403 24.0833 14.6667C24.0833 13.9303 24.6803 13.3333 25.4167 13.3333Z" fill="#CD1E19"/>
    <path d="M32.0832 17.3333C33.5558 17.3333 34.7498 16.1393 34.7498 14.6667C34.7498 13.194 33.5558 12 32.0832 12C30.6105 12 29.4165 13.194 29.4165 14.6667C29.4165 16.1393 30.6105 17.3333 32.0832 17.3333ZM32.0832 13.3333C32.8195 13.3333 33.4165 13.9303 33.4165 14.6667C33.4165 15.403 32.8195 16 32.0832 16C31.3468 16 30.7498 15.403 30.7498 14.6667C30.7498 13.9303 31.3468 13.3333 32.0832 13.3333Z" fill="#CD1E19"/>
    <path d="M25.4167 24.0001C26.8893 24.0001 28.0833 22.8061 28.0833 21.3334C28.0833 19.8608 26.8893 18.6667 25.4167 18.6667C23.944 18.6667 22.75 19.8608 22.75 21.3334C22.75 22.8061 23.944 24.0001 25.4167 24.0001ZM25.4167 20.0001C26.153 20.0001 26.75 20.5971 26.75 21.3334C26.75 22.0697 26.153 22.6667 25.4167 22.6667C24.6803 22.6667 24.0833 22.0697 24.0833 21.3334C24.0833 20.5971 24.6803 20.0001 25.4167 20.0001Z" fill="#CD1E19"/>
    <path d="M32.0832 24.0001C33.5558 24.0001 34.7498 22.8061 34.7498 21.3334C34.7498 19.8608 33.5558 18.6667 32.0832 18.6667C30.6105 18.6667 29.4165 19.8608 29.4165 21.3334C29.4165 22.8061 30.6105 24.0001 32.0832 24.0001ZM32.0832 20.0001C32.8195 20.0001 33.4165 20.5971 33.4165 21.3334C33.4165 22.0697 32.8195 22.6667 32.0832 22.6667C31.3468 22.6667 30.7498 22.0697 30.7498 21.3334C30.7498 20.5971 31.3468 20.0001 32.0832 20.0001Z" fill="#CD1E19"/>
    <path d="M25.4167 30.6666C26.8893 30.6666 28.0833 29.4726 28.0833 27.9999C28.0833 26.5273 26.8893 25.3333 25.4167 25.3333C23.944 25.3333 22.75 26.5273 22.75 27.9999C22.75 29.4726 23.944 30.6666 25.4167 30.6666ZM25.4167 26.6666C26.153 26.6666 26.75 27.2636 26.75 27.9999C26.75 28.7362 26.153 29.3333 25.4167 29.3333C24.6803 29.3333 24.0833 28.7362 24.0833 27.9999C24.0833 27.2636 24.6803 26.6666 25.4167 26.6666Z" fill="#CD1E19"/>
    <path d="M32.0832 30.6666C33.5558 30.6666 34.7498 29.4726 34.7498 27.9999C34.7498 26.5273 33.5558 25.3333 32.0832 25.3333C30.6105 25.3333 29.4165 26.5273 29.4165 27.9999C29.4165 29.4726 30.6105 30.6666 32.0832 30.6666ZM32.0832 26.6666C32.8195 26.6666 33.4165 27.2636 33.4165 27.9999C33.4165 28.7362 32.8195 29.3333 32.0832 29.3333C31.3468 29.3333 30.7498 28.7362 30.7498 27.9999C30.7498 27.2636 31.3468 26.6666 32.0832 26.6666Z" fill="#CD1E19"/>
    <path d="M10.7502 17.3333C12.2228 17.3333 13.4168 16.1393 13.4168 14.6667C13.4168 13.194 12.2228 12 10.7502 12C9.27751 12 8.0835 13.194 8.0835 14.6667C8.0835 16.1393 9.27751 17.3333 10.7502 17.3333ZM10.7502 13.3333C11.4865 13.3333 12.0835 13.9303 12.0835 14.6667C12.0835 15.403 11.4865 16 10.7502 16C10.0138 16 9.41683 15.403 9.41683 14.6667C9.41683 13.9303 10.0138 13.3333 10.7502 13.3333Z" fill="#CD1E19"/>
    <path d="M17.4167 17.3333C18.8893 17.3333 20.0833 16.1393 20.0833 14.6667C20.0833 13.194 18.8893 12 17.4167 12C15.944 12 14.75 13.194 14.75 14.6667C14.75 16.1393 15.944 17.3333 17.4167 17.3333ZM17.4167 13.3333C18.153 13.3333 18.75 13.9303 18.75 14.6667C18.75 15.403 18.153 16 17.4167 16C16.6803 16 16.0833 15.403 16.0833 14.6667C16.0833 13.9303 16.6803 13.3333 17.4167 13.3333Z" fill="#CD1E19"/>
  </g>
  <defs>
    <clipPath id="clip12">
      <rect width="40" height="40" fill="white"/>
    </clipPath>
  </defs>
</svg>
