<svg width="38" height="38" viewBox="0 0 38 38" fill="none" xmlns="http://www.w3.org/2000/svg">
<circle cx="19" cy="19" r="19" fill="#EC1C20"/>
<path d="M25.7 11.6H23.5V10.5C23.5 10.2 23.3 10 23 10C22.7 10 22.5 10.2 22.5 10.5V11.6H19.5V10.5C19.5 10.2 19.3 10 19 10C18.7 10 18.5 10.2 18.5 10.5V11.6H15.5V10.5C15.5 10.2 15.3 10 15 10C14.7 10 14.5 10.2 14.5 10.5V11.6H12.3C11.6 11.6 11 12.2 11 13V25.6C11 26.4 11.6 27 12.3 27H25.6C26.4 27 27 26.3 26.9 25.6V13C27 12.2 26.4 11.6 25.7 11.6ZM26 25.5C26 25.7 25.9 25.8 25.7 25.9H12.3C12.1 25.9 12 25.7 12 25.5V13C12 12.8 12.1 12.7 12.3 12.6H14.5V13.7C14.5 14 14.7 14.2 15 14.2C15.3 14.2 15.5 14 15.5 13.7V12.6H18.5V13.7C18.5 14 18.7 14.2 19 14.2C19.3 14.2 19.5 14 19.5 13.7V12.6H22.5V13.7C22.5 14 22.7 14.2 23 14.2C23.3 14.2 23.5 14 23.5 13.7V12.6H25.7C25.9 12.6 26 12.8 26 13V25.5ZM14.5 16.3H16.5V17.9H14.5V16.3ZM14.5 19H16.5V20.6H14.5V19ZM14.5 21.6H16.5V23.2H14.5V21.6ZM18 21.6H20V23.2H18V21.6ZM18 19H20V20.6H18V19ZM18 16.3H20V17.9H18V16.3ZM21.5 21.6H23.5V23.2H21.5V21.6ZM21.5 19H23.5V20.6H21.5V19ZM21.5 16.3H23.5V17.9H21.5V16.3Z" fill="white"/>
</svg>
