<svg width="40" height="40" viewBox="0 0 40 40" fill="none"
  xmlns="http://www.w3.org/2000/svg">
  <g clip-path="url(#clip4">
    <path d="M2.08556 27.7917C2.4076 27.7917 2.66869 27.5307 2.66869 27.2086V1.39094C2.66869 1.26701 2.76953 1.16624 2.89346 1.16624H24.2383V7.03984C24.2383 7.80684 24.8623 8.43086 25.6293 8.43086H31.4721V12.0171C31.4721 12.3392 31.7332 12.6002 32.0552 12.6002C32.3773 12.6002 32.6384 12.3392 32.6384 12.0171V7.83234C32.6384 7.6777 32.5769 7.52943 32.4675 7.41996L25.2183 0.170738C25.109 0.0614222 24.9607 0 24.806 0H2.89346C2.12646 0 1.50244 0.623941 1.50244 1.39094V27.2086C1.50244 27.5307 1.76352 27.7917 2.08556 27.7917ZM25.4045 7.03984V2.00625L30.6628 7.26453H25.6292C25.5054 7.26461 25.4045 7.16377 25.4045 7.03984Z" fill="#CD1E19"/>
    <path d="M32.0552 34.019C31.7331 34.019 31.472 34.28 31.472 34.6021V38.6089C31.472 38.7328 31.3713 38.8337 31.2473 38.8337H2.89346C2.76953 38.8337 2.66869 38.7328 2.66869 38.6089V29.6935C2.66869 29.3714 2.4076 29.1104 2.08556 29.1104C1.76352 29.1104 1.50244 29.3714 1.50244 29.6935V38.6089C1.50244 39.3759 2.12646 39.9999 2.89346 39.9999H31.2474C32.0144 39.9999 32.6384 39.376 32.6384 38.6089V34.6021C32.6383 34.28 32.3772 34.019 32.0552 34.019Z" fill="#CD1E19"/>
    <path d="M38.4977 21.0215C38.4977 16.9987 35.2248 13.7258 31.202 13.7258C27.1791 13.7258 23.9062 16.9987 23.9062 21.0215C23.9062 23.5467 25.196 25.7761 27.151 27.0862V32.4154C27.151 32.7831 27.3343 33.1233 27.6412 33.3258C27.9481 33.5283 28.3332 33.5626 28.6711 33.4179L31.202 32.3333L33.7329 33.4179C33.8712 33.4772 34.0173 33.5064 34.1628 33.5064C34.3728 33.5064 34.5814 33.4455 34.7627 33.3259C35.0696 33.1234 35.2529 32.7832 35.2529 32.4155V27.0863C37.208 25.7761 38.4977 23.5467 38.4977 21.0215ZM34.0866 32.3006L31.6314 31.2485C31.3585 31.1315 31.0454 31.1315 30.7725 31.2485L28.3173 32.3006V27.7222C29.2025 28.1048 30.1778 28.3173 31.202 28.3173C32.2261 28.3173 33.2014 28.1048 34.0866 27.7222V32.3006ZM31.202 27.151C27.8222 27.151 25.0725 24.4014 25.0725 21.0215C25.0725 17.6417 27.8222 14.8921 31.202 14.8921C34.5817 14.8921 37.3314 17.6417 37.3314 21.0215C37.3314 24.4014 34.5817 27.151 31.202 27.151Z" fill="#CD1E19"/>
    <path d="M35.6044 18.7332C35.4555 18.4477 35.1034 18.337 34.8177 18.4859C34.5322 18.6348 34.4214 18.987 34.5704 19.2726C34.8548 19.8179 34.999 20.4062 34.999 21.0213C34.999 23.1151 33.2956 24.8183 31.202 24.8183C29.1084 24.8183 27.405 23.1151 27.405 21.0213C27.405 18.9276 29.1084 17.2244 31.202 17.2244C31.8549 17.2244 32.5001 17.3946 33.068 17.7168C33.348 17.8757 33.704 17.7775 33.8629 17.4974C34.0218 17.2173 33.9236 16.8613 33.6434 16.7024C32.9004 16.2809 32.0562 16.0581 31.202 16.0581C28.4653 16.0581 26.2388 18.2846 26.2388 21.0213C26.2388 23.7581 28.4653 25.9846 31.202 25.9846C33.9387 25.9846 36.1652 23.7581 36.1652 21.0213C36.1652 20.2279 35.9713 19.4366 35.6044 18.7332Z" fill="#CD1E19"/>
    <path d="M33.444 19.8007L32.359 19.6431L31.8739 18.6599C31.7467 18.4023 31.4892 18.2422 31.2018 18.2422C30.9144 18.2422 30.6569 18.4023 30.5297 18.6599L30.0446 19.6431L28.9597 19.8007C28.6752 19.842 28.4434 20.0374 28.3546 20.3108C28.2658 20.5841 28.3385 20.8784 28.5442 21.079L29.3294 21.8443L29.144 22.925C29.0955 23.2082 29.2098 23.4891 29.4422 23.6579C29.5736 23.7533 29.7273 23.8018 29.8819 23.8018C30.001 23.8018 30.1208 23.7731 30.2313 23.7149L31.2017 23.2047L32.172 23.7149C32.4264 23.8486 32.7289 23.8267 32.9613 23.6579C33.1937 23.4891 33.308 23.2081 33.2594 22.9249L33.0741 21.8444L33.8591 21.0791C34.0649 20.8785 34.1376 20.5842 34.0488 20.3109C33.9602 20.0374 33.7284 19.842 33.444 19.8007ZM32.1033 21.1622C31.9267 21.3343 31.8461 21.5821 31.8878 21.8254L31.9674 22.2895L31.5504 22.0703C31.4413 22.0131 31.3216 21.9844 31.202 21.9844C31.0822 21.9844 30.9624 22.0131 30.8532 22.0704L30.4364 22.2895L30.5159 21.8256C30.5577 21.5824 30.4771 21.3344 30.3004 21.1622L29.9633 20.8334L30.4296 20.7656C30.6736 20.73 30.8843 20.5768 30.9935 20.3557L31.2019 19.9335L31.4103 20.3558C31.5195 20.5769 31.7303 20.73 31.9746 20.7656L32.4405 20.8334L32.1033 21.1622Z" fill="#CD1E19"/>
    <path d="M26.0309 12.6409V10.6688C26.0309 10.3467 25.7698 10.0857 25.4478 10.0857C25.1257 10.0857 24.8646 10.3467 24.8646 10.6688V12.0578H12.0558C11.7337 12.0578 11.4727 12.3188 11.4727 12.6409C11.4727 12.9631 11.7337 13.2241 12.0558 13.2241H25.4478C25.7698 13.2241 26.0309 12.9631 26.0309 12.6409Z" fill="#CD1E19"/>
    <path d="M6.68217 6.80223H20.8466C21.1686 6.80223 21.4297 6.54122 21.4297 6.21911C21.4297 5.89699 21.1686 5.63599 20.8466 5.63599H6.68217C5.91782 5.63599 5.2959 6.25791 5.2959 7.02226V11.8379C5.2959 12.6023 5.91782 13.2242 6.68217 13.2242H9.56389C9.88592 13.2242 10.147 12.9632 10.147 12.6411C10.147 12.3189 9.88592 12.0579 9.56389 12.0579H6.68217C6.56088 12.0579 6.46214 11.9592 6.46214 11.8379V7.02226C6.46222 6.90097 6.56088 6.80223 6.68217 6.80223Z" fill="#CD1E19"/>
    <path d="M5.87902 18.1797H21.2005C21.5226 18.1797 21.7836 17.9187 21.7836 17.5965C21.7836 17.2744 21.5226 17.0134 21.2005 17.0134H5.87902C5.55698 17.0134 5.2959 17.2744 5.2959 17.5965C5.2959 17.9187 5.5569 18.1797 5.87902 18.1797Z" fill="#CD1E19"/>
    <path d="M5.87902 22.0732H21.2005C21.5226 22.0732 21.7836 21.8122 21.7836 21.4901C21.7836 21.168 21.5226 20.907 21.2005 20.907H5.87902C5.55698 20.907 5.2959 21.168 5.2959 21.4901C5.2959 21.8122 5.5569 22.0732 5.87902 22.0732Z" fill="#CD1E19"/>
    <path d="M22.667 24.8005H5.87902C5.55698 24.8005 5.2959 25.0615 5.2959 25.3837C5.2959 25.7058 5.55698 25.9668 5.87902 25.9668H22.667C22.989 25.9668 23.2501 25.7058 23.2501 25.3837C23.2501 25.0615 22.989 24.8005 22.667 24.8005Z" fill="#CD1E19"/>
    <path d="M24.4894 28.6941H5.87902C5.55698 28.6941 5.2959 28.9551 5.2959 29.2772C5.2959 29.5993 5.55698 29.8603 5.87902 29.8603H24.4894C24.8114 29.8603 25.0725 29.5993 25.0725 29.2772C25.0725 28.9551 24.8114 28.6941 24.4894 28.6941Z" fill="#CD1E19"/>
    <path d="M5.2959 33.171C5.2959 33.4931 5.55698 33.7541 5.87902 33.7541H25.4481C25.7702 33.7541 26.0313 33.4931 26.0313 33.171C26.0313 32.8489 25.7702 32.5879 25.4481 32.5879H5.87902C5.5569 32.5879 5.2959 32.8489 5.2959 33.171Z" fill="#CD1E19"/>
  </g>
  <defs>
    <clipPath id="clip4">
      <rect width="40" height="40" fill="white"/>
    </clipPath>
  </defs>
</svg>
