<svg width="60" height="60" viewBox="0 0 60 60" fill="none" xmlns="http://www.w3.org/2000/svg">
<g clip-path="url(#clip0)">
<path d="M43.6278 5.94812H3.37864C1.51559 5.94812 0 7.46371 0 9.32664V33.4739C0 35.3368 1.51559 36.8525 3.37864 36.8525H5.98853V45.842C5.98853 46.4143 6.33329 46.9305 6.86228 47.1497C7.03736 47.2223 7.22134 47.2575 7.40369 47.2575C7.77213 47.2575 8.134 47.1136 8.40482 46.8429L18.3952 36.8526H20.3996C21.1813 36.8526 21.815 36.219 21.815 35.4372C21.815 34.6554 21.1811 34.0217 20.3996 34.0217C20.3996 34.0217 17.7406 34.0236 17.7128 34.0264C17.3833 34.0488 17.0598 34.1845 16.8079 34.4363L8.81931 42.4249C8.81931 42.4249 8.81685 35.3477 8.81228 35.311C8.74842 34.5885 8.14232 34.0217 7.40322 34.0217H3.37864C3.07653 34.0217 2.8309 33.776 2.8309 33.474V9.32664C2.8309 9.02453 3.07665 8.77891 3.37864 8.77891H43.6278C43.9299 8.77891 44.1756 9.02465 44.1756 9.32664V18.5909C44.1756 19.3727 44.8094 20.0063 45.591 20.0063C46.3725 20.0063 47.0063 19.3727 47.0063 18.5909V9.32664C47.0063 7.46371 45.4908 5.94812 43.6278 5.94812Z" fill="#CD1E19"/>
<path d="M56.6217 23.2609H28.448C26.585 23.2609 25.0693 24.7765 25.0693 26.6395V43.1126C25.0693 44.9755 26.5849 46.4912 28.448 46.4912H46.0864L53.2325 53.6373C53.5033 53.9082 53.8653 54.0519 54.2336 54.0519C54.416 54.0519 54.5999 54.0167 54.775 53.9441C55.3038 53.725 55.6488 53.209 55.6488 52.6364V46.4911H56.6215C58.4845 46.4911 60.0002 44.9755 60.0002 43.1125V26.6394C60.0003 24.7765 58.4847 23.2609 56.6217 23.2609ZM57.1695 43.1126C57.1695 43.4146 56.9238 43.6603 56.6218 43.6603H54.234C53.4891 43.6603 52.88 44.2359 52.8241 44.9666C52.8204 44.9975 52.8181 49.2194 52.8181 49.2194L47.6789 44.0801C47.6736 44.0747 47.6679 44.0697 47.6625 44.0643C47.6424 44.0446 47.6233 44.0275 47.6052 44.0121C47.3561 43.7937 47.0307 43.6602 46.6735 43.6602H28.448C28.1459 43.6602 27.9002 43.4145 27.9002 43.1125V26.6394C27.9002 26.3373 28.146 26.0917 28.448 26.0917H56.6218C56.9238 26.0917 57.1695 26.3374 57.1695 26.6394V43.1126Z" fill="#CD1E19"/>
<path d="M42.5355 33.4606C41.7542 33.4606 41.1201 34.0947 41.1201 34.876C41.1201 35.6573 41.7542 36.2914 42.5355 36.2914C43.3169 36.2914 43.9509 35.6573 43.9509 34.876C43.9509 34.0947 43.3168 33.4606 42.5355 33.4606Z" fill="#CD1E19"/>
<path d="M36.3829 15.306H10.6224C9.84078 15.306 9.20703 15.9397 9.20703 16.7214C9.20703 17.5032 9.8409 18.1368 10.6224 18.1368H36.3829C37.1645 18.1368 37.7983 17.5032 37.7983 16.7214C37.7983 15.9397 37.1645 15.306 36.3829 15.306Z" fill="#CD1E19"/>
<path d="M20.3988 24.6639H10.6224C9.84078 24.6639 9.20703 25.2976 9.20703 26.0793C9.20703 26.8611 9.8409 27.4947 10.6224 27.4947H20.3988C21.1806 27.4947 21.8142 26.8611 21.8142 26.0793C21.8142 25.2976 21.1805 24.6639 20.3988 24.6639Z" fill="#CD1E19"/>
<path d="M35.9574 33.4606C35.1762 33.4606 34.542 34.0947 34.542 34.876C34.542 35.6573 35.1762 36.2914 35.9574 36.2914C36.7388 36.2914 37.3728 35.6573 37.3728 34.876C37.3728 34.0947 36.7388 33.4606 35.9574 33.4606Z" fill="#CD1E19"/>
<path d="M49.1107 33.4606C48.3294 33.4606 47.6953 34.0947 47.6953 34.876C47.6953 35.6573 48.3294 36.2914 49.1107 36.2914C49.8921 36.2914 50.5261 35.6573 50.5261 34.876C50.5261 34.0947 49.892 33.4606 49.1107 33.4606Z" fill="#CD1E19"/>
</g>
<defs>
<clipPath id="clip0">
<rect width="60" height="60" fill="white"/>
</clipPath>
</defs>
</svg>
