<svg width="8" height="6" viewBox="0 0 8 6" fill="none" xmlns="http://www.w3.org/2000/svg">
<path d="M3.15449 5.72335C3.07569 5.72351 2.99763 5.70811 2.9248 5.67802C2.85197 5.64794 2.78579 5.60378 2.73007 5.54806L0.183566 3.00095C0.126193 2.94561 0.0804143 2.87941 0.0489021 2.80619C0.0173898 2.73297 0.0007749 2.65421 2.64645e-05 2.5745C-0.000721971 2.4948 0.0144113 2.41574 0.0445431 2.34194C0.0746749 2.26815 0.119202 2.20109 0.175526 2.14469C0.23185 2.08828 0.298843 2.04366 0.372597 2.01342C0.446351 1.98319 0.525387 1.96794 0.605096 1.96858C0.684804 1.96921 0.763587 1.98572 0.836849 2.01713C0.910111 2.04854 0.976384 2.09422 1.0318 2.15151L3.15389 4.2736L6.97485 0.453844C7.08741 0.341202 7.24011 0.277888 7.39936 0.277832C7.5586 0.277776 7.71135 0.340981 7.82399 0.453544C7.93663 0.566106 7.99994 0.718806 8 0.87805C8.00006 1.03729 7.93685 1.19004 7.82429 1.30268L3.57891 5.54806C3.52319 5.60378 3.45701 5.64794 3.38418 5.67802C3.31135 5.70811 3.23329 5.72351 3.15449 5.72335Z" fill="#EC1C20"/>
</svg>
