<svg width="60" height="60" viewBox="0 0 60 60" fill="none"
  xmlns="http://www.w3.org/2000/svg">
  <g clip-path="url(#clip7)">
    <path d="M27.5087 5.55637H54.487C54.9719 5.55637 55.3648 5.16344 55.3648 4.67863C55.3648 4.19383 54.9719 3.80078 54.487 3.80078H27.5087C27.0239 3.80078 26.6309 4.19371 26.6309 4.67863C26.6309 5.16344 27.0239 5.55637 27.5087 5.55637Z" fill="#CD1E19"/>
    <path d="M54.487 8.15234H27.5087C27.0239 8.15234 26.6309 8.54527 26.6309 9.0302C26.6309 9.515 27.0239 9.90793 27.5087 9.90793H54.487C54.9719 9.90793 55.3648 9.515 55.3648 9.0302C55.3648 8.54539 54.9719 8.15234 54.487 8.15234Z" fill="#CD1E19"/>
    <path d="M27.5087 14.2634H45.8154C46.3002 14.2634 46.6933 13.8705 46.6933 13.3857C46.6933 12.9009 46.3003 12.5078 45.8154 12.5078H27.5087C27.0239 12.5078 26.6309 12.9007 26.6309 13.3857C26.6309 13.8705 27.0239 14.2634 27.5087 14.2634Z" fill="#CD1E19"/>
    <path d="M54.487 24.7695H27.5087C27.0239 24.7695 26.6309 25.1625 26.6309 25.6473C26.6309 26.1321 27.0239 26.525 27.5087 26.525H54.487C54.9719 26.525 55.3648 26.1321 55.3648 25.6473C55.3648 25.1625 54.9719 24.7695 54.487 24.7695Z" fill="#CD1E19"/>
    <path d="M54.487 29.125H27.5087C27.0239 29.125 26.6309 29.5179 26.6309 30.0029C26.6309 30.4878 27.0239 30.8807 27.5087 30.8807H54.487C54.9719 30.8807 55.3648 30.4878 55.3648 30.0029C55.3648 29.5179 54.9719 29.125 54.487 29.125Z" fill="#CD1E19"/>
    <path d="M27.5087 35.232H45.8154C46.3002 35.232 46.6933 34.8391 46.6933 34.3543C46.6933 33.8695 46.3003 33.4766 45.8154 33.4766H27.5087C27.0239 33.4766 26.6309 33.8695 26.6309 34.3543C26.6309 34.8391 27.0239 35.232 27.5087 35.232Z" fill="#CD1E19"/>
    <path d="M23.2917 43.2403C22.797 42.8052 22.1625 42.5893 21.5047 42.6308C20.8471 42.673 20.2453 42.9686 19.8101 43.4634L19.3644 43.9701C17.809 42.7012 15.8264 41.9375 13.6672 41.9375C8.68676 41.9375 4.63477 45.9894 4.63477 50.9698C4.63477 55.9503 8.68664 60.0022 13.6672 60.0022C18.6478 60.0022 22.6997 55.9503 22.6997 50.9698C22.6997 49.9892 22.5391 49.0463 22.2483 48.1619L23.5148 46.722C23.9501 46.2273 24.1665 45.5927 24.1245 44.935C24.0821 44.2774 23.7865 43.6755 23.2917 43.2403ZM13.6672 58.2466C9.65473 58.2466 6.39047 54.9822 6.39047 50.9698C6.39047 46.9575 9.65484 43.6931 13.6672 43.6931C15.3826 43.6931 16.9598 44.2913 18.2051 45.2881L14.4871 49.515L13.153 47.9586C12.7242 47.4583 12.1262 47.155 11.4693 47.1043C10.8131 47.0533 10.1749 47.2619 9.67453 47.6908C8.64176 48.5762 8.52176 50.1365 9.40699 51.1694L12.5899 54.8827C13.0549 55.4254 13.7313 55.7394 14.4459 55.7443C14.4525 55.7444 14.4588 55.7444 14.463 55.7444C15.172 55.7444 15.847 55.4391 16.3153 54.9068L20.8423 49.7604C20.9088 50.1539 20.9442 50.5577 20.9442 50.9698C20.944 54.9822 17.6796 58.2466 13.6672 58.2466ZM22.1965 45.5625L14.997 53.7473C14.8627 53.8999 14.6694 53.9878 14.4663 53.9888C14.4636 53.9888 14.4608 53.9887 14.4581 53.9887C14.2521 53.9874 14.057 53.897 13.9228 53.7404L10.7398 50.027C10.4845 49.7292 10.5192 49.2792 10.817 49.0238C10.9471 48.9124 11.1091 48.8526 11.2786 48.8526C11.2971 48.8526 11.3156 48.8533 11.3343 48.8548C11.5238 48.8694 11.6961 48.9569 11.8199 49.1012L13.8118 51.4251C13.9773 51.6181 14.2184 51.73 14.4727 51.7317C14.73 51.7353 14.9694 51.6247 15.1373 51.4336L21.1281 44.6229C21.2536 44.4802 21.4271 44.3949 21.6168 44.3829C21.806 44.3702 21.9894 44.4331 22.132 44.5585C22.2748 44.6841 22.36 44.8576 22.3721 45.0472C22.3845 45.2368 22.322 45.4197 22.1965 45.5625Z" fill="#CD1E19"/>
    <path d="M54.487 45.7344H27.5087C27.0239 45.7344 26.6309 46.1273 26.6309 46.6121C26.6309 47.0969 27.0239 47.4898 27.5087 47.4898H54.487C54.9719 47.4898 55.3648 47.0969 55.3648 46.6121C55.3648 46.1273 54.9719 45.7344 54.487 45.7344Z" fill="#CD1E19"/>
    <path d="M54.487 50.0898H27.5087C27.0239 50.0898 26.6309 50.4828 26.6309 50.9676C26.6309 51.4524 27.0239 51.8454 27.5087 51.8454H54.487C54.9719 51.8454 55.3648 51.4525 55.3648 50.9676C55.3648 50.4829 54.9719 50.0898 54.487 50.0898Z" fill="#CD1E19"/>
    <path d="M45.8154 54.4453H27.5087C27.0239 54.4453 26.6309 54.8382 26.6309 55.323C26.6309 55.8079 27.0239 56.2009 27.5087 56.2009H45.8154C46.3002 56.2009 46.6933 55.808 46.6933 55.323C46.6933 54.8381 46.3002 54.4453 45.8154 54.4453Z" fill="#CD1E19"/>
    <path d="M23.2917 1.30277C22.797 0.867656 22.1625 0.651563 21.5047 0.693164C20.8471 0.735352 20.2453 1.03102 19.8101 1.52578L19.3656 2.03121C17.8102 0.762422 15.8264 0 13.6672 0C11.4307 0 9.28441 0.823594 7.62387 2.31926C7.26363 2.64375 7.23469 3.19875 7.55918 3.5591C7.88356 3.91934 8.43867 3.94828 8.79891 3.62391C10.1364 2.41922 11.8654 1.7557 13.6672 1.7557C15.3826 1.7557 16.9598 2.35395 18.205 3.35086L14.4871 7.57758L13.1529 6.02109C12.7241 5.52082 12.1261 5.21742 11.4691 5.1668C10.813 5.11582 10.1748 5.32453 9.67441 5.75332C8.64164 6.63867 8.52164 8.19902 9.40688 9.2318L12.5898 12.9451C13.0548 13.4878 13.7312 13.8018 14.4458 13.8067C14.4524 13.8068 14.4587 13.8068 14.4629 13.8068C15.1719 13.8068 15.8469 13.5015 16.3152 12.9691L20.842 7.82273C20.9085 8.21625 20.944 8.62008 20.944 9.03223C20.944 13.0446 17.6796 16.309 13.6672 16.309C9.65484 16.309 6.39047 13.0446 6.39047 9.03223C6.39047 8.1716 6.53895 7.32961 6.83191 6.52981C6.99867 6.07453 6.76477 5.57039 6.30949 5.40363C5.85445 5.23699 5.35008 5.47078 5.18332 5.92605C4.81934 6.91992 4.63477 7.965 4.63477 9.03223C4.63477 14.0127 8.68664 18.0646 13.6672 18.0646C18.6478 18.0646 22.6997 14.0127 22.6997 9.03223C22.6997 8.05113 22.5411 7.10672 22.2505 6.22172L23.5148 4.78441C23.9501 4.28965 24.1665 3.65508 24.1245 2.99742C24.0821 2.33988 23.7865 1.73801 23.2917 1.30277ZM22.1965 3.62496L14.997 11.8098C14.8627 11.9624 14.6694 12.0503 14.4663 12.0513C14.4636 12.0513 14.4608 12.0512 14.4581 12.0512C14.2521 12.0499 14.057 11.9595 13.9228 11.8029L10.7398 8.08945C10.4845 7.79168 10.5192 7.34168 10.817 7.08633C10.9471 6.97488 11.1091 6.91512 11.2786 6.91512C11.2971 6.91512 11.3156 6.91582 11.3343 6.91734C11.5238 6.93188 11.6961 7.01941 11.8199 7.16367L13.8118 9.48762C13.9773 9.68062 14.2184 9.79254 14.4727 9.79418C14.73 9.79231 14.9694 9.68707 15.1373 9.49605L21.1281 2.68535C21.2536 2.54273 21.4271 2.45742 21.6168 2.44535C21.806 2.43316 21.9894 2.49563 22.132 2.62102C22.2748 2.74664 22.36 2.92008 22.3721 3.1098C22.3845 3.2993 22.322 3.48223 22.1965 3.62496Z" fill="#CD1E19"/>
    <path d="M23.2917 22.2676C22.797 21.8325 22.1625 21.6159 21.5047 21.6581C20.8471 21.7003 20.2453 21.996 19.8101 22.4907L19.3638 22.998C17.8085 21.7291 15.8264 20.9648 13.6672 20.9648C8.68676 20.9648 4.63477 25.0167 4.63477 29.9972C4.63477 34.9777 8.68664 39.0295 13.6672 39.0295C18.6478 39.0295 22.6996 34.9777 22.6996 29.9972C22.6996 29.0163 22.5403 28.0724 22.2495 27.1876L23.5147 25.7493C23.95 25.2545 24.1664 24.6199 24.1243 23.9623C24.0821 23.3047 23.7865 22.7029 23.2917 22.2676ZM22.1965 24.5898L18.462 28.8353C18.1418 29.1991 18.1773 29.7539 18.5413 30.0741C18.9053 30.3945 19.4599 30.3588 19.7802 29.9947L20.8418 28.7879C20.9082 29.1813 20.944 29.5852 20.944 29.9972C20.944 34.0096 17.6796 37.274 13.6672 37.274C9.65484 37.274 6.39035 34.0096 6.39035 29.9972C6.39035 25.9848 9.65473 22.7204 13.6671 22.7204C15.3825 22.7204 16.9595 23.319 18.2047 24.3157L14.487 28.5423L13.1529 26.9859C12.7241 26.4857 12.1261 26.1823 11.4691 26.1316C10.813 26.0801 10.1748 26.2893 9.67441 26.7182C8.64164 27.6035 8.52164 29.1639 9.40688 30.1966L12.5898 33.91C13.0548 34.4527 13.7312 34.7666 14.4458 34.7715C14.4524 34.7717 14.4587 34.7717 14.4629 34.7717C15.1719 34.7717 15.8469 34.4664 16.3152 33.9341L17.1304 33.0075C17.4505 32.6435 17.4151 32.0888 17.051 31.7686C16.687 31.4481 16.1323 31.484 15.8121 31.8478L14.997 32.7745C14.8628 32.927 14.6699 33.0149 14.4661 33.0161C14.4635 33.0161 14.4608 33.0159 14.4581 33.0159C14.2521 33.0147 14.057 32.9242 13.9228 32.7675L10.7398 29.0541C10.4845 28.7563 10.5192 28.3063 10.817 28.0509C10.9614 27.9273 11.1456 27.8667 11.3344 27.882C11.5239 27.8965 11.6962 27.984 11.82 28.1283L13.812 30.4522C13.9774 30.6452 14.2185 30.7572 14.4728 30.7588H14.4784C14.7307 30.7588 14.9708 30.6503 15.1375 30.4608L21.1282 23.6501C21.2537 23.5075 21.4273 23.4222 21.6169 23.4101C21.8061 23.3977 21.9895 23.4604 22.1321 23.5857C22.2749 23.7114 22.3601 23.8848 22.3723 24.0745C22.3845 24.2641 22.322 24.4471 22.1965 24.5898Z" fill="#CD1E19"/>
  </g>
  <defs>
    <clipPath id="clip7">
      <rect width="60" height="60" fill="white"/>
    </clipPath>
  </defs>
</svg>
