<svg width="12" height="12" viewBox="0 0 12 12" fill="none" xmlns="http://www.w3.org/2000/svg">
<path d="M6 0C2.69136 0 0 2.69136 0 6C0 9.30864 2.69136 12 6 12C9.30864 12 12 9.30864 12 6C12 2.69136 9.30864 0 6 0ZM6 10.7161C3.39506 10.7161 1.28395 8.59259 1.28395 6C1.28395 3.40741 3.40741 1.28395 6 1.28395C8.59259 1.28395 10.7161 3.40741 10.7161 6C10.7161 8.59259 8.60494 10.7161 6 10.7161Z" fill="#EC1C20"/>
<path d="M9.12347 5.81471H6.43211V2.5678C6.43211 2.2962 6.20989 2.07397 5.93829 2.07397C5.66668 2.07397 5.44446 2.2962 5.44446 2.5678V6.30854C5.44446 6.58015 5.66668 6.80237 5.93829 6.80237H9.12347C9.39508 6.80237 9.6173 6.58015 9.6173 6.30854C9.6173 6.03694 9.39508 5.81471 9.12347 5.81471Z" fill="#EC1C20"/>
</svg>
