<svg width="60" height="60" viewBox="0 0 60 60" fill="none" xmlns="http://www.w3.org/2000/svg">
<path d="M41.1368 36.0741C41.8615 36.3984 42.6349 36.5569 43.4028 36.5569C44.7031 36.5569 45.9874 36.1041 46.9981 35.235L52.9868 30.1031C53.6243 29.5575 54.0612 28.8853 54.2496 28.1597C54.5684 26.9353 54.2843 25.6912 53.4715 24.7453C52.7571 23.9147 51.7203 23.4375 50.6253 23.4375C49.7318 23.4375 48.8646 23.7581 48.1849 24.3403L44.2587 27.705C42.6359 24.0413 38.9703 21.6112 34.939 21.5672C36.5056 20.1909 37.5003 18.18 37.5003 15.9375C37.5003 11.8022 34.1356 8.4375 30.0003 8.4375C25.8649 8.4375 22.5003 11.8022 22.5003 15.9375C22.5003 18.18 23.4949 20.1909 25.0606 21.5662C21.0284 21.6103 17.3637 24.0413 15.7418 27.7041L11.8146 24.3384C11.1349 23.7581 10.2678 23.4375 9.37526 23.4375C8.28026 23.4375 7.24338 23.9147 6.53088 24.7453C5.71713 25.6922 5.43307 26.9362 5.75182 28.1616C5.94213 28.8872 6.379 29.5594 7.01557 30.1041L13.0024 35.235C14.6121 36.6178 16.9128 36.9478 18.8656 36.075C20.0074 35.565 20.9656 34.6059 21.5637 33.3975V38.0766L18.8778 40.7625L20.0778 42.765L17.8128 43.3303V50.4197L20.0768 50.985L18.8768 52.9875L23.8887 57.9994L25.8912 56.7994L26.4556 59.0625H33.5449L34.1103 56.7984L36.1128 57.9984L41.1246 52.9866L39.9246 50.9841L42.1878 50.4197V43.3303L39.9237 42.765L41.1237 40.7625L38.4378 38.0766V33.3966C39.0359 34.605 39.994 35.5641 41.1368 36.0741ZM29.6215 34.6875C29.1828 33.8916 28.7703 33.0853 28.3953 32.2641L29.7059 23.4375H30.2984L31.6287 32.2181C31.2481 33.0553 30.8281 33.8775 30.3799 34.6875H29.6215ZM25.6971 23.4375H27.8103L27.019 28.7653C26.4415 27.0328 26.0028 25.2534 25.6971 23.4375ZM32.9937 28.725L32.1931 23.4375H34.3034C33.9996 25.2394 33.5656 27.0047 32.9937 28.725ZM24.3753 15.9375C24.3753 12.8353 26.8981 10.3125 30.0003 10.3125C33.1024 10.3125 35.6253 12.8353 35.6253 15.9375C35.6253 19.0397 33.1024 21.5625 30.0003 21.5625C26.8981 21.5625 24.3753 19.0397 24.3753 15.9375ZM21.5628 26.25V28.6697C21.3378 28.9613 21.1428 29.2725 21.0124 29.6194L20.0609 32.1562C19.6803 33.1716 18.9649 33.9759 18.0987 34.3631C16.7881 34.9491 15.3012 34.7381 14.2212 33.8109L8.23338 28.6791C7.99338 28.4728 7.68213 28.1344 7.56494 27.6872C7.40276 27.0675 7.54432 26.4403 7.95119 25.9669C8.599 25.2094 9.8365 25.1166 10.594 25.7625L16.5396 30.8597L17.2709 28.9134C18.3368 26.0681 20.8746 24.0384 23.8156 23.5528C24.4503 27.45 25.6784 31.1859 27.4887 34.6875H26.4537L25.8884 36.9516L23.8859 35.7516L23.4378 36.2016V26.25H21.5628ZM38.014 44.2209L40.3128 44.7947V48.9553L38.4856 49.4109L37.9849 49.6003L37.549 50.6719L38.764 52.6959L35.8212 55.6387L33.7971 54.4237L32.6543 54.8888L32.0806 57.1875H27.9199L27.4643 55.3603L27.2749 54.8597L26.2034 54.4237L24.1793 55.6387L21.2365 52.6959L22.4515 50.6719L21.9865 49.5291L19.6878 48.9553V44.7947L21.5149 44.3391L22.0156 44.1497L22.4515 43.0781L21.2365 41.0541L24.1793 38.1112L26.2034 39.3263L27.3462 38.8612L27.9199 36.5625H32.0806L32.5362 38.3897L32.7256 38.8903L33.7971 39.3263L35.8212 38.1112L38.764 41.0541L37.549 43.0781L38.014 44.2209ZM36.1128 35.7516L34.1103 36.9516L33.5449 34.6875H32.5099C34.3203 31.1859 35.5484 27.45 36.1831 23.5528C39.124 24.0375 41.6628 26.0681 42.7287 28.9134L43.4571 30.8606L49.4046 25.7644C50.1621 25.1147 51.3987 25.2094 52.0484 25.9678C52.4553 26.4403 52.5959 27.0675 52.4337 27.6872C52.3174 28.1344 52.0062 28.4728 51.7662 28.6791L45.7765 33.8119C44.6984 34.74 43.2115 34.9491 41.9009 34.3631C41.0337 33.9759 40.3184 33.1716 39.9378 32.1562L38.9862 29.6213C38.8559 29.2734 38.6618 28.9575 38.4359 28.6641V26.25H36.5609V36.2016L36.1128 35.7516Z" fill="#CD1E19"/>
<path d="M48.75 21.5625C54.4359 21.5625 59.0625 16.9359 59.0625 11.25C59.0625 5.56406 54.4359 0.9375 48.75 0.9375C43.0641 0.9375 38.4375 5.56406 38.4375 11.25C38.4375 16.9359 43.0641 21.5625 48.75 21.5625ZM48.75 2.8125C53.4028 2.8125 57.1875 6.59719 57.1875 11.25C57.1875 15.9028 53.4028 19.6875 48.75 19.6875C44.0972 19.6875 40.3125 15.9028 40.3125 11.25C40.3125 6.59719 44.0972 2.8125 48.75 2.8125Z" fill="#CD1E19"/>
<path d="M47.8125 14.0625C47.295 14.0625 46.875 13.6425 46.875 13.125H45C45 14.6756 46.2619 15.9375 47.8125 15.9375V17.8125H49.6875V15.9375H52.5V13.125C52.5 11.5744 51.2381 10.3125 49.6875 10.3125H47.8125C47.295 10.3125 46.875 9.8925 46.875 9.375V8.4375H49.6875C50.205 8.4375 50.625 8.8575 50.625 9.375H52.5C52.5 7.82437 51.2381 6.5625 49.6875 6.5625V4.6875H47.8125V6.5625H45V9.375C45 10.9256 46.2619 12.1875 47.8125 12.1875H49.6875C50.205 12.1875 50.625 12.6075 50.625 13.125V14.0625H47.8125Z" fill="#CD1E19"/>
<path d="M30 40.3125C26.3822 40.3125 23.4375 43.2572 23.4375 46.875C23.4375 50.4928 26.3822 53.4375 30 53.4375C33.6178 53.4375 36.5625 50.4928 36.5625 46.875C36.5625 43.2572 33.6178 40.3125 30 40.3125ZM30 51.5625C27.4153 51.5625 25.3125 49.4597 25.3125 46.875C25.3125 44.2903 27.4153 42.1875 30 42.1875C32.5847 42.1875 34.6875 44.2903 34.6875 46.875C34.6875 49.4597 32.5847 51.5625 30 51.5625Z" fill="#CD1E19"/>
<path d="M8.21625 21.5625C9.37219 21.5625 10.3125 20.6222 10.3125 19.4662V17.8125H16.875C18.4256 17.8125 19.6875 16.5506 19.6875 15V7.5C19.6875 5.94937 18.4256 4.6875 16.875 4.6875H3.75C2.19937 4.6875 0.9375 5.94937 0.9375 7.5V15C0.9375 16.5506 2.19937 17.8125 3.75 17.8125H5.04562L6.34219 20.4047C6.69937 21.1181 7.4175 21.5625 8.21625 21.5625ZM3.75 15.9375C3.2325 15.9375 2.8125 15.5175 2.8125 15V7.5C2.8125 6.9825 3.2325 6.5625 3.75 6.5625H16.875C17.3925 6.5625 17.8125 6.9825 17.8125 7.5V15C17.8125 15.5175 17.3925 15.9375 16.875 15.9375H8.4375V19.4662C8.43844 19.6725 8.10938 19.7484 8.01844 19.5647L6.20438 15.9375H3.75Z" fill="#CD1E19"/>
<path d="M4.6875 8.4375H15.9375V10.3125H4.6875V8.4375Z" fill="#CD1E19"/>
<path d="M4.6875 12.1875H12.1875V14.0625H4.6875V12.1875Z" fill="#CD1E19"/>
<path d="M14.0625 12.1875H15.9375V14.0625H14.0625V12.1875Z" fill="#CD1E19"/>
<path d="M56.25 42.1875H46.875C45.3244 42.1875 44.0625 43.4494 44.0625 45V52.5C44.0625 54.0506 45.3244 55.3125 46.875 55.3125H56.25C57.8006 55.3125 59.0625 54.0506 59.0625 52.5V45C59.0625 43.4494 57.8006 42.1875 56.25 42.1875ZM57.1875 52.5C57.1875 53.0175 56.7675 53.4375 56.25 53.4375H46.875C46.3575 53.4375 45.9375 53.0175 45.9375 52.5V45C45.9375 44.4825 46.3575 44.0625 46.875 44.0625H56.25C56.7675 44.0625 57.1875 44.4825 57.1875 45V52.5Z" fill="#CD1E19"/>
<path d="M52.5007 48.3606L50.6257 46.4856L47.1504 49.9609L48.476 51.2866L50.6257 49.1369L52.5007 51.0119L55.976 47.5366L54.6504 46.2109L52.5007 48.3606Z" fill="#CD1E19"/>
<path d="M9.53625 41.25H9.21375C7.23563 41.25 5.625 42.8606 5.625 44.8387V45.9375H7.5V44.8387C7.5 43.8937 8.26875 43.125 9.21375 43.125H9.53625C10.4812 43.125 11.25 43.8937 11.25 44.8387C11.25 45.2897 11.0672 45.7322 10.7484 46.0509L8.4375 48.3619V51.5625H10.3125V49.1381L12.0741 47.3766C12.7519 46.6988 13.125 45.7978 13.125 44.8387C13.125 42.8606 11.5144 41.25 9.53625 41.25Z" fill="#CD1E19"/>
<path d="M9.375 53.4375C7.82437 53.4375 6.5625 54.6994 6.5625 56.25C6.5625 57.8006 7.82437 59.0625 9.375 59.0625C10.9256 59.0625 12.1875 57.8006 12.1875 56.25C12.1875 54.6994 10.9256 53.4375 9.375 53.4375ZM9.375 57.1875C8.8575 57.1875 8.4375 56.7675 8.4375 56.25C8.4375 55.7325 8.8575 55.3125 9.375 55.3125C9.8925 55.3125 10.3125 55.7325 10.3125 56.25C10.3125 56.7675 9.8925 57.1875 9.375 57.1875Z" fill="#CD1E19"/>
</svg>
