<svg width="30" height="30" viewBox="0 0 30 30" fill="none"
  xmlns="http://www.w3.org/2000/svg">
  <g clip-path="url(#clip9)">
    <path d="M15 8.75C13.6212 8.75 12.5 7.62875 12.5 6.25C12.5 5.2025 13.1475 4.30375 14.0625 3.9325V0.9375C14.0625 0.42 14.4825 0 15 0C15.5175 0 15.9375 0.42 15.9375 0.9375V4.6875C15.9375 5.205 15.5175 5.625 15 5.625C14.6562 5.625 14.375 5.905 14.375 6.25C14.375 6.595 14.6562 6.875 15 6.875C15.3437 6.875 15.625 6.595 15.625 6.25C15.625 5.7325 16.045 5.3125 16.5625 5.3125C17.08 5.3125 17.5 5.7325 17.5 6.25C17.5 7.62875 16.3787 8.75 15 8.75Z" fill="white"/>
    <path d="M29.0615 16.25C28.8865 16.25 28.7115 16.2013 28.554 16.1L18.2415 9.43752C17.8065 9.15627 17.6827 8.57626 17.9627 8.14126C18.2427 7.70626 18.824 7.58126 19.259 7.86251L29.5715 14.525C30.0065 14.8063 30.1302 15.3863 29.8502 15.8213C29.6702 16.0988 29.369 16.25 29.0615 16.25Z" fill="white"/>
    <path d="M0.938555 16.25C0.631055 16.25 0.329805 16.0988 0.149805 15.8213C-0.131445 15.3863 -0.00644461 14.8063 0.428555 14.525L10.7411 7.86251C11.1786 7.58001 11.7561 7.70751 12.0373 8.14126C12.3173 8.57626 12.1936 9.15626 11.7586 9.43751L1.44606 16.1C1.28856 16.2013 1.11231 16.25 0.938555 16.25Z" fill="white"/>
    <path d="M29.0625 14.375H0.9375C0.42 14.375 0 14.795 0 15.3125V29.0625C0 29.58 0.42 30 0.9375 30H29.0625C29.58 30 30 29.58 30 29.0625V15.3125C30 14.795 29.58 14.375 29.0625 14.375ZM5.3125 25.9375C5.3125 26.455 4.8925 26.875 4.375 26.875C3.8575 26.875 3.4375 26.455 3.4375 25.9375V18.4375C3.4375 17.92 3.8575 17.5 4.375 17.5C4.8925 17.5 5.3125 17.92 5.3125 18.4375V25.9375ZM10.3125 25.9375C10.3125 26.455 9.8925 26.875 9.375 26.875C8.8575 26.875 8.4375 26.455 8.4375 25.9375V18.4375C8.4375 17.92 8.8575 17.5 9.375 17.5C9.8925 17.5 10.3125 17.92 10.3125 18.4375V25.9375ZM15.9375 25.9375C15.9375 26.455 15.5175 26.875 15 26.875C14.4825 26.875 14.0625 26.455 14.0625 25.9375V18.4375C14.0625 17.92 14.4825 17.5 15 17.5C15.5175 17.5 15.9375 17.92 15.9375 18.4375V25.9375ZM21.5625 25.9375C21.5625 26.455 21.1425 26.875 20.625 26.875C20.1075 26.875 19.6875 26.455 19.6875 25.9375V18.4375C19.6875 17.92 20.1075 17.5 20.625 17.5C21.1425 17.5 21.5625 17.92 21.5625 18.4375V25.9375ZM26.5625 25.9375C26.5625 26.455 26.1425 26.875 25.625 26.875C25.1075 26.875 24.6875 26.455 24.6875 25.9375V18.4375C24.6875 17.92 25.1075 17.5 25.625 17.5C26.1425 17.5 26.5625 17.92 26.5625 18.4375V25.9375Z" fill="white"/>
  </g>
  <defs>
    <clipPath id="clip9">
      <rect width="30" height="30" fill="white"/>
    </clipPath>
  </defs>
</svg>
