<svg width="60" height="60" viewBox="0 0 60 60" fill="none"
  xmlns="http://www.w3.org/2000/svg">
  <g clip-path="url(#clip11)">
    <path d="M59.89 14.2282C59.6835 13.4603 59.1797 12.8056 58.4904 12.4087C57.8006 12.0098 56.9804 11.9019 56.211 12.1084C55.4426 12.3154 54.7879 12.8188 54.391 13.5081L53.8911 14.3781C53.4161 14.1052 52.8092 14.2658 52.5314 14.7384L49.9918 19.0672L49.1219 18.5673C48.8914 18.434 48.6171 18.3979 48.3603 18.4672C48.103 18.537 47.8843 18.7059 47.752 18.9374C47.481 19.4153 47.646 20.0226 48.122 20.297L48.992 20.7969L40.4935 35.5244L38.3937 41.1338L37.3939 43.0031C36.8085 44.0215 36.871 45.2874 37.554 46.2428L35.3044 49.0021L34.6746 47.4227C34.3905 46.7188 33.7329 46.2364 32.9767 46.1773C32.22 46.1178 31.495 46.4917 31.1049 47.1425L30.7451 47.7523L30.4053 43.7529C30.3272 42.8068 29.5944 42.0462 28.6522 41.932C27.7095 41.8182 26.8171 42.3831 26.5159 43.2833L24.0563 50.6619C23.8845 51.1838 24.1657 51.7462 24.6861 51.922C24.7837 51.9674 24.8887 51.9947 24.9961 52.0015C25.4257 52.003 25.8085 51.7291 25.9461 51.322L28.3954 43.9433L28.7455 48.0022C28.8177 48.8683 29.4402 49.5884 30.2867 49.7846C31.1332 49.9809 32.0091 49.6079 32.4548 48.8624L32.8248 48.2522L33.4448 49.8222C33.708 50.4837 34.3031 50.9558 35.0076 51.0608C35.712 51.1657 36.419 50.888 36.8642 50.3319L39.1939 47.3827C39.4516 47.4501 39.7172 47.4838 39.9838 47.4828C41.0554 47.4911 42.0503 46.9267 42.5932 46.0026L43.593 44.3329L47.4024 39.7038L55.9908 24.7962L56.8608 25.2961C57.0927 25.4289 57.2616 25.6481 57.3304 25.9064C57.3997 26.1627 57.3636 26.4361 57.2308 26.666L53.2315 33.595C53.0807 33.8225 53.0294 34.1018 53.0899 34.3683C53.1505 34.6344 53.317 34.8643 53.5513 35.0044C53.7817 35.1382 54.0561 35.1743 54.3129 35.105C54.5702 35.0352 54.7889 34.8663 54.9212 34.6349L58.9205 27.7059C59.3193 27.0161 59.4272 26.1959 59.2202 25.4265C59.0132 24.6581 58.5099 24.0034 57.8206 23.6065L56.9506 23.1066L59.4502 18.7772C59.7231 18.3022 59.5625 17.6959 59.0904 17.4176L59.5903 16.5476C59.9999 15.8471 60.1083 15.0103 59.89 14.2282ZM56.1207 14.5079C56.253 14.2765 56.4727 14.1071 56.7309 14.0383C56.9877 13.9748 57.2591 14.0105 57.4906 14.1384C57.7225 14.2707 57.8914 14.4904 57.9607 14.7481C58.0242 15.0049 57.9885 15.2764 57.8606 15.5078L57.3607 16.3777L55.6208 15.3779L56.1207 14.5079ZM42.4931 42.4236L41.9932 42.1336L40.5135 41.2734L41.9331 37.4742L45.0825 39.2937L42.4931 42.4236ZM39.4936 45.3127C39.0713 45.0184 38.9415 44.452 39.1939 44.0029L39.6938 43.1334L41.4332 44.1333L40.9333 44.993C40.7932 45.2361 40.5579 45.4089 40.284 45.4699C40.0101 45.5305 39.7236 45.4738 39.4936 45.3127ZM46.2225 37.6544L42.7631 35.6547L50.7617 21.7967L54.2211 23.7964L46.2225 37.6544ZM55.2209 22.0667L51.7616 20.067L53.7612 16.6077L57.2206 18.6073L55.2209 22.0667Z" fill="#CD1E19"/>
    <path d="M15.7766 44.8127L12.2376 48.3423L10.1179 46.2226C9.7278 45.835 9.09803 45.835 8.70796 46.2226C8.51854 46.4105 8.41211 46.6659 8.41211 46.9324C8.41211 47.199 8.51854 47.4548 8.70796 47.6423L10.8277 49.762C11.2027 50.134 11.7094 50.3425 12.2376 50.342C12.7688 50.3449 13.2799 50.1365 13.6573 49.762L17.1865 46.2226C17.5263 45.8257 17.5033 45.2345 17.1343 44.8654C16.7647 44.4958 16.1735 44.4729 15.7766 44.8127Z" fill="#CD1E19"/>
    <path d="M4 47.5022C4 52.1962 7.80502 56.0008 12.4986 56.0008C17.1921 56.0008 20.9971 52.1962 20.9971 47.5022C20.9971 46.95 20.5494 46.5024 19.9973 46.5024C19.4451 46.5024 18.9974 46.95 18.9974 47.5022C18.9974 51.0914 16.0878 54.0011 12.4986 54.0011C8.90932 54.0011 5.99966 51.0914 5.99966 47.5022C5.99966 43.913 8.90932 41.0033 12.4986 41.0033C13.9055 40.9994 15.2749 41.4559 16.3978 42.3034C16.8396 42.6349 17.4665 42.545 17.7975 42.1032C18.1289 41.6614 18.0396 41.035 17.5978 40.7035C15.0225 38.7722 11.5768 38.4617 8.69793 39.9009C5.81854 41.3406 4 44.2835 4 47.5022Z" fill="#CD1E19"/>
    <path d="M35.9935 8.00747C36.5456 8.00747 36.9933 7.56028 36.9933 7.00764C36.9933 6.45549 36.5456 6.00781 35.9935 6.00781H9.99788C9.44572 6.00781 8.99805 6.45549 8.99805 7.00764V11.007C8.99805 11.5596 9.44572 12.0068 9.99788 12.0068H35.9935C36.5456 12.0068 36.9933 11.5596 36.9933 11.007C36.9933 10.4548 36.5456 10.0071 35.9935 10.0071H10.9977V8.00747H35.9935Z" fill="#CD1E19"/>
    <path d="M12.9979 14.0078C12.4457 14.0078 11.998 14.4555 11.998 15.0076C11.998 15.5603 12.4457 16.0075 12.9979 16.0075H32.9945C33.5466 16.0075 33.9943 15.5603 33.9943 15.0076C33.9943 14.4555 33.5466 14.0078 32.9945 14.0078H12.9979Z" fill="#CD1E19"/>
    <path d="M38.9922 21.0078H16.9959C16.4438 21.0078 15.9961 21.4555 15.9961 22.0076C15.9961 22.5603 16.4438 23.0075 16.9959 23.0075H38.9922C39.5443 23.0075 39.992 22.5603 39.992 22.0076C39.992 21.4555 39.5443 21.0078 38.9922 21.0078Z" fill="#CD1E19"/>
    <path d="M28.9953 28.0057C28.9953 27.4535 28.5476 27.0059 27.9954 27.0059H7.99885C7.4467 27.0059 6.99902 27.4535 6.99902 28.0057C6.99902 28.5583 7.4467 29.0055 7.99885 29.0055H27.9954C28.5476 29.0055 28.9953 28.5583 28.9953 28.0057Z" fill="#CD1E19"/>
    <path d="M38.9928 27.0059H31.994C31.4418 27.0059 30.9941 27.4535 30.9941 28.0057C30.9941 28.5583 31.4418 29.0055 31.994 29.0055H38.9928C39.5449 29.0055 39.9926 28.5583 39.9926 28.0057C39.9926 27.4535 39.5449 27.0059 38.9928 27.0059Z" fill="#CD1E19"/>
    <path d="M17.9971 34.0036C18.5493 34.0036 18.997 33.5564 18.997 33.0037C18.997 32.4516 18.5493 32.0039 17.9971 32.0039H7.99885C7.4467 32.0039 6.99902 32.4516 6.99902 33.0037C6.99902 33.5564 7.4467 34.0036 7.99885 34.0036H17.9971Z" fill="#CD1E19"/>
    <path d="M21.9959 34.0036H28.9947C29.5469 34.0036 29.9946 33.5564 29.9946 33.0037C29.9946 32.4516 29.5469 32.0039 28.9947 32.0039H21.9959C21.4438 32.0039 20.9961 32.4516 20.9961 33.0037C20.9961 33.5564 21.4438 34.0036 21.9959 34.0036Z" fill="#CD1E19"/>
    <path d="M44.9923 46.0019C44.4402 46.0019 43.9925 46.4496 43.9925 47.0018V57.0001C43.9925 57.5527 43.5448 57.9999 42.9927 57.9999H2.99949C2.44734 57.9999 1.99966 57.5527 1.99966 57.0001V3.00925C1.99966 2.4571 2.44734 2.00942 2.99949 2.00942H42.9927C43.5448 2.00942 43.9925 2.4571 43.9925 3.00925V21.7863C43.9925 22.3385 44.4402 22.7862 44.9923 22.7862C45.5445 22.7862 45.9922 22.3385 45.9922 21.7863V3.00925C45.9922 1.3528 44.6491 0.00976562 42.9927 0.00976562H2.99949C1.34303 0.00976562 0 1.3528 0 3.00925V57.0001C0 58.657 1.34303 59.9995 2.99949 59.9995H42.9927C44.6491 59.9995 45.9922 58.657 45.9922 57.0001V47.0018C45.9922 46.4496 45.5445 46.0019 44.9923 46.0019Z" fill="#CD1E19"/>
  </g>
  <defs>
    <clipPath id="clip11">
      <rect width="60" height="60" fill="white"/>
    </clipPath>
  </defs>
</svg>
