<svg width="40" height="40" viewBox="0 0 40 40" fill="none" xmlns="http://www.w3.org/2000/svg">
<path d="M39.9262 9.48522C39.7885 8.97326 39.4527 8.53681 38.9931 8.27221C38.5332 8.0063 37.9864 7.93437 37.4735 8.07205C36.9612 8.21004 36.5248 8.5456 36.2602 9.00516L35.9269 9.58513C35.6102 9.4032 35.2057 9.51028 35.0205 9.82533L33.3274 12.7112L32.7474 12.378C32.5938 12.2891 32.4109 12.265 32.2397 12.3112C32.0682 12.3578 31.9224 12.4704 31.8342 12.6247C31.6535 12.9433 31.7635 13.3482 32.0809 13.5311L32.6608 13.8644L26.9951 23.6827L25.5953 27.4223L24.9288 28.6685C24.5385 29.3474 24.5802 30.1913 25.0355 30.8283L23.5358 32.6678L23.1159 31.6149C22.9265 31.1456 22.4881 30.824 21.984 30.7846C21.4795 30.7449 20.9962 30.9942 20.7361 31.4281L20.4963 31.8346L20.2697 29.1684C20.2177 28.5376 19.7291 28.0306 19.101 27.9544C18.4725 27.8786 17.8776 28.2551 17.6767 28.8553L16.0371 33.7744C15.9225 34.1223 16.11 34.4972 16.4569 34.6144C16.522 34.6447 16.592 34.6629 16.6636 34.6674C16.95 34.6684 17.2051 34.4858 17.2969 34.2144L18.9298 29.2953L19.1631 32.0012C19.2113 32.5786 19.6263 33.0587 20.1906 33.1895C20.755 33.3203 21.3389 33.0717 21.636 32.5747L21.8827 32.1679L22.2961 33.2146C22.4715 33.6556 22.8682 33.9703 23.3379 34.0403C23.8075 34.1103 24.2788 33.9251 24.5756 33.5544L26.1288 31.5882C26.3006 31.6331 26.4777 31.6556 26.6554 31.6549C27.3698 31.6605 28.0331 31.2842 28.395 30.6681L29.0615 29.555L31.6011 26.469L37.3267 16.5306L37.9067 16.8638C38.0613 16.9524 38.1739 17.0985 38.2198 17.2707C38.266 17.4415 38.2419 17.6238 38.1534 17.7771L35.4872 22.3964C35.3866 22.5481 35.3524 22.7343 35.3928 22.912C35.4332 23.0893 35.5441 23.2426 35.7004 23.336C35.854 23.4252 36.0369 23.4493 36.2081 23.4031C36.3796 23.3566 36.5254 23.2439 36.6136 23.0897L39.2798 18.4703C39.5457 18.0105 39.6177 17.4637 39.4797 16.9507C39.3417 16.4385 39.0061 16.002 38.5466 15.7374L37.9666 15.4041L39.633 12.5179C39.8149 12.2012 39.7078 11.797 39.3931 11.6115L39.7264 11.0315C39.9994 10.5645 40.0717 10.0066 39.9262 9.48522ZM37.4133 9.67171C37.5015 9.51744 37.648 9.4045 37.8201 9.35861C37.9913 9.3163 38.1723 9.34006 38.3265 9.42533C38.4811 9.51353 38.5938 9.65999 38.64 9.83184C38.6823 10.003 38.6585 10.184 38.5733 10.3383L38.24 10.9182L37.08 10.2517L37.4133 9.67171ZM28.3283 28.2821L27.995 28.0888L27.0085 27.5153L27.9549 24.9826L30.0545 26.1956L28.3283 28.2821ZM26.3286 30.2082C26.0471 30.012 25.9605 29.6345 26.1288 29.335L26.462 28.7554L27.6217 29.4219L27.2884 29.9951C27.195 30.1571 27.0381 30.2724 26.8555 30.313C26.6729 30.3534 26.4819 30.3157 26.3286 30.2082ZM30.8145 25.1027L28.5082 23.7696L33.8407 14.5309L36.1469 15.864L30.8145 25.1027ZM36.8135 14.7109L34.5072 13.3778L35.8403 11.0715L38.1466 12.4046L36.8135 14.7109Z" fill="#CD1E19"/>
<path d="M10.518 29.8749L8.15874 32.228L6.74557 30.8148C6.48553 30.5564 6.06568 30.5564 5.80563 30.8148C5.67935 30.9401 5.6084 31.1103 5.6084 31.288C5.6084 31.4657 5.67935 31.6363 5.80563 31.7613L7.2188 33.1744C7.46876 33.4224 7.80659 33.5614 8.15874 33.5611C8.51285 33.563 8.85361 33.4241 9.10519 33.1744L11.458 30.8148C11.6845 30.5502 11.6692 30.1561 11.4232 29.91C11.1768 29.6636 10.7826 29.6483 10.518 29.8749Z" fill="#CD1E19"/>
<path d="M2.66602 31.668C2.66602 34.7973 5.20269 37.3336 8.33172 37.3336C11.4607 37.3336 13.9974 34.7973 13.9974 31.668C13.9974 31.2999 13.699 31.0014 13.3309 31.0014C12.9628 31.0014 12.6643 31.2999 12.6643 31.668C12.6643 34.0608 10.7245 36.0005 8.33172 36.0005C5.9389 36.0005 3.99912 34.0608 3.99912 31.668C3.99912 29.2751 5.9389 27.3354 8.33172 27.3354C9.26971 27.3328 10.1826 27.6371 10.9312 28.2021C11.2258 28.4231 11.6437 28.3632 11.8643 28.0686C12.0853 27.7741 12.0258 27.3565 11.7312 27.1355C10.0144 25.848 7.71724 25.641 5.79797 26.6005C3.87837 27.5603 2.66602 29.5222 2.66602 31.668Z" fill="#CD1E19"/>
<path d="M23.996 5.33897C24.3641 5.33897 24.6625 5.04084 24.6625 4.67241C24.6625 4.30431 24.3641 4.00586 23.996 4.00586H6.66558C6.29748 4.00586 5.99902 4.30431 5.99902 4.67241V7.33863C5.99902 7.70705 6.29748 8.00518 6.66558 8.00518H23.996C24.3641 8.00518 24.6625 7.70705 24.6625 7.33863C24.6625 6.97052 24.3641 6.67207 23.996 6.67207H7.33213V5.33897H23.996Z" fill="#CD1E19"/>
<path d="M8.66509 9.33838C8.29699 9.33838 7.99854 9.63683 7.99854 10.0049C7.99854 10.3734 8.29699 10.6715 8.66509 10.6715H21.9962C22.3643 10.6715 22.6627 10.3734 22.6627 10.0049C22.6627 9.63683 22.3643 9.33838 21.9962 9.33838H8.66509Z" fill="#CD1E19"/>
<path d="M25.9958 14.0044H11.3316C10.9635 14.0044 10.665 14.3028 10.665 14.6709C10.665 15.0394 10.9635 15.3375 11.3316 15.3375H25.9958C26.3639 15.3375 26.6623 15.0394 26.6623 14.6709C26.6623 14.3028 26.3639 14.0044 25.9958 14.0044Z" fill="#CD1E19"/>
<path d="M19.3302 18.67C19.3302 18.3019 19.0317 18.0034 18.6636 18.0034H5.33257C4.96447 18.0034 4.66602 18.3019 4.66602 18.67C4.66602 19.0384 4.96447 19.3365 5.33257 19.3365H18.6636C19.0317 19.3365 19.3302 19.0384 19.3302 18.67Z" fill="#CD1E19"/>
<path d="M25.9955 18.0034H21.3296C20.9615 18.0034 20.6631 18.3019 20.6631 18.67C20.6631 19.0384 20.9615 19.3365 21.3296 19.3365H25.9955C26.3636 19.3365 26.6621 19.0384 26.6621 18.67C26.6621 18.3019 26.3636 18.0034 25.9955 18.0034Z" fill="#CD1E19"/>
<path d="M11.9981 22.6696C12.3662 22.6696 12.6647 22.3714 12.6647 22.003C12.6647 21.6349 12.3662 21.3364 11.9981 21.3364H5.33257C4.96447 21.3364 4.66602 21.6349 4.66602 22.003C4.66602 22.3714 4.96447 22.6696 5.33257 22.6696H11.9981Z" fill="#CD1E19"/>
<path d="M14.6641 22.6696H19.33C19.6981 22.6696 19.9965 22.3714 19.9965 22.003C19.9965 21.6349 19.6981 21.3364 19.33 21.3364H14.6641C14.296 21.3364 13.9976 21.6349 13.9976 22.003C13.9976 22.3714 14.296 22.6696 14.6641 22.6696Z" fill="#CD1E19"/>
<path d="M29.9949 30.6683C29.6268 30.6683 29.3283 30.9667 29.3283 31.3348V38.0004C29.3283 38.3688 29.0299 38.6669 28.6618 38.6669H1.99966C1.63156 38.6669 1.33311 38.3688 1.33311 38.0004V2.0065C1.33311 1.63839 1.63156 1.33994 1.99966 1.33994H28.6618C29.0299 1.33994 29.3283 1.63839 29.3283 2.0065V14.5245C29.3283 14.8926 29.6268 15.1911 29.9949 15.1911C30.363 15.1911 30.6614 14.8926 30.6614 14.5245V2.0065C30.6614 0.902191 29.7661 0.00683594 28.6618 0.00683594H1.99966C0.895355 0.00683594 0 0.902191 0 2.0065V38.0004C0 39.105 0.895355 40 1.99966 40H28.6618C29.7661 40 30.6614 39.105 30.6614 38.0004V31.3348C30.6614 30.9667 30.363 30.6683 29.9949 30.6683Z" fill="#CD1E19"/>
</svg>
