<svg width="60" height="60" viewBox="0 0 60 60" fill="none" xmlns="http://www.w3.org/2000/svg">
<path d="M39.9779 20.0059C39.3783 20.0059 38.9785 20.4056 38.9785 21.0053V23.0042C38.9785 23.6039 39.3783 24.0037 39.9779 24.0037C40.5776 24.0037 40.9774 23.6039 40.9774 23.0042V21.0053C40.9775 20.4056 40.5776 20.0059 39.9779 20.0059Z" fill="#CD1E19"/>
<path d="M42.976 20.0059C42.3763 20.0059 41.9766 20.4056 41.9766 21.0053V23.0042C41.9766 23.6039 42.3763 24.0037 42.976 24.0037C43.5757 24.0037 43.9754 23.6039 43.9754 23.0042V21.0053C43.9755 20.4056 43.5757 20.0059 42.976 20.0059Z" fill="#CD1E19"/>
<path d="M45.976 20.0059C45.3763 20.0059 44.9766 20.4056 44.9766 21.0053V23.0042C44.9766 23.6039 45.3763 24.0037 45.976 24.0037C46.5757 24.0037 46.9754 23.6039 46.9754 23.0042V21.0053C46.9755 20.4056 46.5757 20.0059 45.976 20.0059Z" fill="#CD1E19"/>
<path d="M59.8677 45.492C59.5678 44.1928 58.6683 43.0933 57.4689 42.4937L55.7527 41.5896L56.7634 32.9988H56.9692C57.5689 32.9988 57.9686 32.599 57.9686 31.9993V26.0026C57.9686 25.4029 57.5689 25.0032 56.9692 25.0032H49.973V18.007C49.973 17.4073 49.5733 17.0076 48.9736 17.0076H48.3239L43.9762 13.5294V9.91453C46.2814 9.46243 47.974 7.46921 47.974 5.01394C47.974 2.21549 45.7753 0.0166016 42.9767 0.0166016C40.387 0.0166016 38.3122 1.90007 38.0169 4.3988L12.6556 20.0058H0.99942C0.399745 20.0058 0 20.4056 0 21.0052V27.002C0 27.2019 0.0999069 27.4017 0.199931 27.6017L2.19889 30.6001C2.39882 30.8 2.69866 30.9998 2.9985 30.9998H7.99583V34.8644L5.17501 42.3867C5.0853 42.5151 5.0272 42.6709 5.00671 42.8481C4.98586 42.9474 4.98363 43.0411 4.99745 43.1308V58.9847C4.99745 59.5844 5.3972 59.9842 5.99687 59.9842H21.9882C22.5879 59.9842 22.9876 59.5844 22.9876 58.9847V42.9934C22.9876 42.7552 22.9237 42.5494 22.81 42.3867L19.9892 34.8644V27.5018L41.9773 11.0107V13.5293L37.6296 17.0074H36.98C36.3803 17.0074 35.9805 17.4072 35.9805 18.0069V25.003H28.9844C28.3847 25.003 27.9849 25.4028 27.9849 26.0025V31.9992C27.9849 32.5989 28.3847 32.9986 28.9844 32.9986H30.0799L31.0169 41.7721L29.6841 42.4935C28.4847 43.0932 27.5852 44.1927 27.1854 45.4919C26.7857 46.7912 26.9855 48.1905 27.7851 49.2899L34.1816 59.4844C34.2815 59.7842 34.6814 59.9842 34.9812 59.9842H51.9721C52.2719 59.9842 52.6717 59.7842 52.8716 59.5844L56.3697 53.8875C56.399 53.8289 56.4277 53.761 56.452 53.6878L59.1683 49.29C59.9676 48.1906 60.1675 46.7913 59.8677 45.492ZM46.2749 36.5968C45.6043 36.2357 44.64 36.0096 43.5896 35.9971C42.5774 35.9721 41.4778 36.1469 40.4781 36.5968L32.8823 40.6946L32.0931 33.0988H54.7704L53.8817 40.604L46.2749 36.5968ZM42.9767 2.01556C44.6758 2.01556 45.9751 3.31482 45.9751 5.01394C45.9751 6.71306 44.6758 8.01231 42.9767 8.01231C41.2776 8.01231 39.9783 6.71306 39.9783 5.01394C39.9783 3.31482 41.2777 2.01556 42.9767 2.01556ZM1.99896 26.7022V22.0047H11.9935V27.002V29.001H8.99513H3.49815L1.99896 26.7022ZM12.9929 30.9999C13.5926 30.9999 13.9924 30.6002 13.9924 30.0005V28.0015H17.9903V33.9983H9.99455V30.9999H12.9929ZM20.9886 57.9853H6.99618V55.9864H11.9935C12.5932 55.9864 12.9929 55.5866 12.9929 54.9869C12.9929 54.3873 12.5932 53.9875 11.9935 53.9875H6.99618V51.9886H9.99455C10.5942 51.9886 10.994 51.5888 10.994 50.9891C10.994 50.3895 10.5942 49.9897 9.99455 49.9897H6.99618V43.993H20.9886V57.9853ZM7.39604 41.9939L9.69483 35.9971H18.2902L20.489 41.9939H7.39604ZM18.6898 26.0026H13.9924V21.6049L38.1793 6.71306C38.6791 7.91241 39.5786 8.91183 40.6779 9.5115L18.6898 26.0026ZM42.9767 15.2884L45.1256 17.0074H40.828L42.9767 15.2884ZM37.9795 19.0064H47.974V25.0032H37.9795V19.0064ZM29.9838 27.002H36.98H48.9735H55.9696V30.9998H30.9832H29.9838V27.002ZM35.5808 57.9853L32.8823 53.6877L41.5775 49.39C42.8768 48.7904 44.376 48.7904 45.5753 49.39L54.0707 53.6877L51.4721 57.9853H35.5808ZM57.5689 48.1906L55.1512 52.0746L46.4749 47.6908C44.6758 46.7913 42.6769 46.7913 40.7779 47.6908L31.8599 52.1038L29.3841 48.1905C28.8843 47.5908 28.7844 46.7912 28.9844 45.9917C29.1843 45.2921 29.6839 44.6924 30.4835 44.2926L32.3518 43.2813C32.418 43.271 32.464 43.2505 32.4769 43.2136L41.3776 38.3958C41.9382 38.1371 42.5916 38.0278 43.2258 38.0186C44.0252 38.0202 44.7845 38.1776 45.2755 38.3958L54.2706 43.0933C54.3523 43.1478 54.434 43.186 54.5157 43.2108L56.5694 44.2927C57.269 44.5925 57.7688 45.1922 57.9687 45.9918C58.1685 46.6914 58.0686 47.491 57.5689 48.1906Z" fill="#CD1E19"/>
<path d="M42.976 6.01349C43.5757 6.01349 43.9754 5.61374 43.9754 5.01407C43.9754 4.41439 43.5757 4.01465 42.976 4.01465C42.3763 4.01465 41.9766 4.41439 41.9766 5.01407C41.9766 5.61374 42.3763 6.01349 42.976 6.01349Z" fill="#CD1E19"/>
</svg>
