<svg width="40" height="40" viewBox="0 0 40 40" fill="none" xmlns="http://www.w3.org/2000/svg">
<g clip-path="url(#clip0)">
<path d="M39.3335 0.333496H2.00016C1.632 0.333496 1.3335 0.631996 1.3335 1.00016V7.66683H2.66683V1.66683H8.00016V5.00016C8.00016 5.36833 8.29866 5.66683 8.66683 5.66683H14.0002C14.3683 5.66683 14.6668 5.36833 14.6668 5.00016V1.66683H20.0002V7.66683H21.3335V1.66683H26.6668V5.00016C26.6668 5.36833 26.9653 5.66683 27.3335 5.66683H32.6668C33.035 5.66683 33.3335 5.36833 33.3335 5.00016V1.66683H38.6668V13.6668H27.3335C26.9653 13.6668 26.6668 13.9653 26.6668 14.3335V18.3335C26.6668 18.7017 26.9653 19.0002 27.3335 19.0002H32.6668C33.035 19.0002 33.3335 18.7017 33.3335 18.3335V15.0002H38.6668V27.0002H31.3335V28.3335H39.3335C39.7017 28.3335 40.0002 28.035 40.0002 27.6668V1.00016C40.0002 0.631996 39.7017 0.333496 39.3335 0.333496ZM13.3335 4.3335H9.3335V1.66683H13.3335V4.3335ZM32.0002 4.3335H28.0002V1.66683H32.0002V4.3335ZM32.0002 17.6668H28.0002V15.0002H32.0002V17.6668Z" fill="#CD1E19"/>
<path d="M36 11H37.3333V12.3333H36V11Z" fill="#CD1E19"/>
<path d="M33.3335 11H34.6668V12.3333H33.3335V11Z" fill="#CD1E19"/>
<path d="M36 24.3333H37.3333V25.6666H36V24.3333Z" fill="#CD1E19"/>
<path d="M33.3335 24.3333H34.6668V25.6666H33.3335V24.3333Z" fill="#CD1E19"/>
<path d="M30 25.6667C29.9983 24.1946 28.8054 23.0017 27.3333 23H25.3333V9.66667C25.3333 9.2985 25.0348 9 24.6667 9H0.666667C0.2985 9 0 9.2985 0 9.66667V39C0 39.3682 0.2985 39.6667 0.666667 39.6667H24.6667C25.0348 39.6667 25.3333 39.3682 25.3333 39V37.2761L27.5286 39.4714L28.4714 38.5286L24.4714 34.5286C23.2611 33.3153 23.2611 31.3513 24.4714 30.1381C24.7318 29.8778 24.7318 29.4557 24.4714 29.1952L21.4714 26.1952C21.1795 25.9033 21.1795 25.43 21.4714 25.1381C21.7633 24.8462 22.2367 24.8462 22.5286 25.1381L25.5286 28.1381L26.4714 27.1952L25.3333 26.0573V24.3333H27.3333C28.0693 24.3342 28.6658 24.9307 28.6667 25.6667V31.6667C28.6667 31.8435 28.7369 32.0131 28.8619 32.1381L32.1953 35.4714L33.1381 34.5286L30 31.3906V25.6667ZM8.66667 10.3333H16.6667V12.6667C16.6667 12.8508 16.5174 13 16.3333 13H9C8.81592 13 8.66667 12.8508 8.66667 12.6667V10.3333ZM23.4714 24.1952C22.6623 23.3791 21.3448 23.3733 20.5286 24.1825C19.7124 24.9916 19.7067 26.3092 20.5158 27.1253C20.5201 27.1296 20.5243 27.1338 20.5286 27.1381L23.0925 29.702C21.795 31.4695 21.9802 33.919 23.5286 35.4714L24 35.9427V38.3333H1.33333V10.3333H7.33333V11.6667H3.33333C2.96517 11.6667 2.66667 11.9652 2.66667 12.3333V36.3333C2.66667 36.7015 2.96517 37 3.33333 37H22V35.6667H4V13H7.36667C7.52608 13.7755 8.20825 14.3324 9 14.3333H16.3333C17.1251 14.3324 17.8073 13.7755 17.9667 13H21.3333V22.3333H22.6667V12.3333C22.6667 11.9652 22.3682 11.6667 22 11.6667H18V10.3333H24V24.7239L23.4714 24.1952Z" fill="#CD1E19"/>
<path d="M7.33356 19.3906L6.47164 18.5286L5.52881 19.4715L6.86214 20.8048C7.12248 21.0651 7.54456 21.0651 7.80498 20.8048L10.4716 18.1381L9.52881 17.1953L7.33356 19.3906Z" fill="#CD1E19"/>
<path d="M7.33356 24.7241L6.47164 23.8621L5.52881 24.805L6.86214 26.1383C7.12248 26.3986 7.54456 26.3986 7.80498 26.1383L10.4716 23.4716L9.52881 22.5288L7.33356 24.7241Z" fill="#CD1E19"/>
<path d="M7.33356 30.0571L6.47164 29.1951L5.52881 30.138L6.86214 31.4713C7.12248 31.7316 7.54456 31.7316 7.80498 31.4713L10.4716 28.8047L9.52881 27.8618L7.33356 30.0571Z" fill="#CD1E19"/>
<path d="M12 17H19.3333V18.3333H12V17Z" fill="#CD1E19"/>
<path d="M12 19.6665H18V20.9998H12V19.6665Z" fill="#CD1E19"/>
<path d="M12 22.3333H19.3333V23.6666H12V22.3333Z" fill="#CD1E19"/>
<path d="M12 25H18V26.3333H12V25Z" fill="#CD1E19"/>
<path d="M12 27.6667H19.3333V29.0001H12V27.6667Z" fill="#CD1E19"/>
<path d="M12 30.3335H18V31.6668H12V30.3335Z" fill="#CD1E19"/>
</g>
<defs>
<clipPath id="clip0">
<rect width="40" height="40" fill="white"/>
</clipPath>
</defs>
</svg>
