<svg width="40" height="40" viewBox="0 0 40 40" fill="none" xmlns="http://www.w3.org/2000/svg">
<path d="M12.5 35V36.25H11.25V35H12.5ZM8.75 35V36.25H10V35H8.75ZM1.32633 35.7548C1.27543 35.5064 1.24986 35.2535 1.25 35V23.75H2.5V35C2.50075 35.6628 2.76438 36.2983 3.23306 36.7669C3.70174 37.2356 4.33719 37.4993 5 37.5H14.375V33.125H6.875C6.70924 33.125 6.55027 33.0592 6.43306 32.9419C6.31585 32.8247 6.25 32.6658 6.25 32.5V25H7.5V31.875H7.71438L11.0999 25.7016L9.65164 24.1088C9.65086 24.1079 9.65024 24.1069 9.64938 24.106L5.35938 19.3871C4.57984 19.4545 3.85383 19.8114 3.32453 20.3877C2.79522 20.9639 2.50104 21.7176 2.5 22.5H1.25C1.25139 21.4484 1.63099 20.4324 2.31946 19.6375C3.00794 18.8426 3.95937 18.3219 5 18.1704V6.9954L3.90719 4.26336C3.75487 3.86303 3.71966 3.4276 3.80565 3.00799C3.89165 2.58838 4.0953 2.20191 4.39281 1.89376C4.59651 1.68915 4.83872 1.52692 5.10545 1.41643C5.37218 1.30594 5.65816 1.24937 5.94688 1.25001H16.5531C16.9122 1.25012 17.2658 1.33825 17.583 1.50666C17.9001 1.67508 18.1711 1.91866 18.3723 2.21609C18.5736 2.51351 18.6988 2.85572 18.7371 3.21276C18.7755 3.5698 18.7257 3.93079 18.5922 4.26415L17.7344 6.40946L19.2944 6.72149C19.6972 6.80201 20.0557 7.02946 20.3002 7.3596C20.5447 7.68975 20.6577 8.09901 20.6172 8.50783C20.5767 8.91664 20.3856 9.29579 20.0811 9.57158C19.7767 9.84736 19.3805 10.0001 18.9697 10C18.7013 10 18.4333 9.99381 18.1657 9.98141L19.3303 12.8929C19.3682 12.9877 19.3824 13.0904 19.3714 13.192C19.3605 13.2935 19.3248 13.3908 19.2675 13.4754C19.2103 13.56 19.1332 13.6292 19.0429 13.6771C18.9527 13.725 18.8521 13.75 18.75 13.75H16.875V16.875C16.8753 17.3141 16.7593 17.7454 16.5387 18.125H16.6148C17.5657 18.1249 18.501 18.3659 19.3335 18.8254C20.1659 19.2849 20.8683 19.9479 21.375 20.7525L23.0972 23.488L22.0391 24.1539L20.3171 21.4189C20.0354 20.9742 19.6763 20.5835 19.2566 20.2656L12.89 31.875H16.7487L16.6103 31.7565C16.3531 31.5365 16.1647 31.247 16.0675 30.9228C15.9704 30.5986 15.9686 30.2532 16.0624 29.928C16.1562 29.6028 16.3417 29.3115 16.5966 29.0888C16.8515 28.8662 17.1651 28.7216 17.5 28.6723V25H18.75V26.6992L21.4399 31.1016L22.5691 32.0049L24.0909 21.6082C24.1622 21.1592 24.3916 20.7505 24.7376 20.4556C25.0836 20.1608 25.5235 19.9992 25.9781 20H27.5552C27.9444 19.2713 28.7446 18.75 29.5611 18.75H30.3432L30.3823 18.5963C30.6269 17.6311 31.5895 16.875 32.5733 16.875C32.81 16.8658 33.0456 16.9106 33.2624 17.0059C33.4792 17.1013 33.6715 17.2447 33.8247 17.4254C33.9778 17.6061 34.0879 17.8192 34.1465 18.0487C34.205 18.2782 34.2106 18.518 34.1628 18.75H34.6344C34.8812 18.7445 35.1261 18.7957 35.3501 18.8997C35.574 19.0037 35.7711 19.1578 35.9261 19.35C36.0732 19.5407 36.1733 19.7634 36.2182 20H36.8438C37.119 19.9993 37.3912 20.0579 37.6418 20.1719C37.8924 20.2858 38.1154 20.4524 38.2959 20.6603C38.4704 20.8616 38.5996 21.0981 38.6745 21.3538C38.7494 21.6095 38.7684 21.8783 38.7302 22.142L37.9938 27.17C38.2742 27.3597 38.4924 27.628 38.621 27.9413C38.7495 28.2545 38.7827 28.5988 38.7162 28.9308L37.9288 32.8677C37.8429 33.2923 37.6131 33.6743 37.278 33.9489C36.943 34.2235 36.5234 34.3741 36.0902 34.375H34.0742C33.8199 34.375 33.5688 34.3186 33.339 34.2098C33.1091 34.101 32.9063 33.9426 32.745 33.7459C32.5838 33.5493 32.4682 33.3193 32.4067 33.0726C32.3451 32.8259 32.339 32.5686 32.3888 32.3192L33.1762 28.3823C33.2621 27.9577 33.492 27.5758 33.827 27.3011C34.162 27.0265 34.5816 26.876 35.0148 26.875H36.7734L37.4931 21.9609C37.5059 21.8748 37.4997 21.787 37.475 21.7035C37.4503 21.62 37.4076 21.543 37.35 21.4777C37.2869 21.4056 37.2091 21.348 37.1217 21.3087C37.0343 21.2694 36.9395 21.2494 36.8438 21.25H36.0719L35.7159 22.6537C35.6817 22.7884 35.6035 22.9079 35.4938 22.9933C35.3841 23.0787 35.249 23.125 35.11 23.125H27.5C27.4048 23.125 27.3109 23.1033 27.2254 23.0615C27.1399 23.0197 27.0651 22.9589 27.0067 22.8838C26.9482 22.8087 26.9077 22.7212 26.8882 22.6281C26.8687 22.5349 26.8707 22.4386 26.8941 22.3463L27.1723 21.25H25.9781C25.8233 21.2477 25.6727 21.3007 25.5535 21.3996C25.4343 21.4984 25.3542 21.6365 25.3277 21.7891L23.1317 36.7891C23.1191 36.874 23.1249 36.9607 23.1488 37.0432C23.1727 37.1258 23.2141 37.2022 23.2702 37.2673C23.3313 37.3388 23.407 37.3965 23.4921 37.4366C23.5773 37.4766 23.67 37.4982 23.7641 37.4998L23.7808 37.5004H34.6469C34.8017 37.5027 34.9523 37.4497 35.0715 37.3508C35.1907 37.252 35.2708 37.1139 35.2973 36.9613L35.506 35.5352L36.7429 35.7163L36.5341 37.1427C36.4626 37.5915 36.2332 38.0001 35.8872 38.2947C35.5412 38.5894 35.1013 38.7509 34.6469 38.75H5C4.13672 38.7489 3.30017 38.4505 2.6311 37.905C1.96202 37.3595 1.50126 36.6001 1.32633 35.7548ZM37.3934 28.2969C37.3498 28.2429 37.2946 28.1994 37.2319 28.1696C37.1692 28.1399 37.1006 28.1246 37.0312 28.125H35.0148C34.8704 28.1253 34.7305 28.1755 34.6189 28.2671C34.5072 28.3587 34.4306 28.486 34.402 28.6275L33.6146 32.5643C33.601 32.6323 33.6027 32.7025 33.6195 32.7698C33.6362 32.8371 33.6678 32.8998 33.7117 32.9534C33.7557 33.007 33.811 33.0503 33.8737 33.0799C33.9364 33.1096 34.0049 33.125 34.0742 33.125H36.0902C36.2346 33.1247 36.3745 33.0745 36.4862 32.983C36.5979 32.8914 36.6745 32.7641 36.7031 32.6226L37.4905 28.6857C37.5046 28.6178 37.5031 28.5475 37.4863 28.4802C37.4695 28.4129 37.4378 28.3503 37.3934 28.2969ZM28.3033 21.875H34.6236L34.9795 20.4713C34.9999 20.4131 35.0069 20.3511 34.9999 20.2898C34.9929 20.2286 34.9722 20.1697 34.9392 20.1176C34.9005 20.0763 34.853 20.0442 34.8001 20.0239C34.7473 20.0037 34.6905 19.9956 34.6341 20.0004H33.3661C33.2709 20.0004 33.177 19.9787 33.0915 19.9369C33.006 19.8951 32.9312 19.8343 32.8728 19.7592C32.8143 19.6841 32.7738 19.5966 32.7543 19.5035C32.7348 19.4103 32.7368 19.314 32.7602 19.2217L32.9187 18.5967C32.9391 18.5385 32.946 18.4765 32.939 18.4152C32.9321 18.3539 32.9113 18.295 32.8784 18.2429C32.8397 18.2016 32.7922 18.1696 32.7393 18.1493C32.6865 18.129 32.6297 18.1209 32.5733 18.1257C32.1566 18.1257 31.699 18.4895 31.5938 18.9044L31.4352 19.5294C31.4009 19.664 31.3227 19.7834 31.213 19.8686C31.1033 19.9538 30.9683 20.0001 30.8294 20H29.5611C29.1445 20 28.6866 20.3638 28.5815 20.7787L28.3033 21.875ZM16.8131 7.5H12.6363C14.6461 8.32447 16.7974 8.74906 18.9697 8.75C19.0703 8.74999 19.1672 8.71259 19.2418 8.64507C19.3163 8.57755 19.3631 8.48473 19.373 8.38465C19.3829 8.28458 19.3552 8.18439 19.2954 8.10355C19.2356 8.02272 19.1478 7.96702 19.0492 7.94727L16.8131 7.5ZM16.4543 6.24375L16.9563 4.98883L17.2019 4.375H16.5625C16.3232 4.37497 16.093 4.46643 15.9189 4.63066C15.7449 4.79488 15.6403 5.01943 15.6264 5.25831C15.6126 5.49719 15.6906 5.73232 15.8446 5.91553C15.9985 6.09875 16.2166 6.21617 16.4543 6.24375ZM6.04813 6.25H14.5865C14.4924 6.05238 14.4287 5.84167 14.3977 5.625H7.5V4.375H14.5865C14.7641 4.00125 15.044 3.68548 15.3937 3.46425C15.7434 3.24302 16.1487 3.1254 16.5625 3.12501H17.4424C17.3762 2.94216 17.2554 2.78411 17.0963 2.6723C16.9372 2.56049 16.7476 2.50034 16.5531 2.50001H5.94688C5.79199 2.49991 5.63946 2.53782 5.50264 2.61041C5.36582 2.683 5.2489 2.78806 5.16214 2.91636C5.07538 3.04465 5.02143 3.19228 5.00501 3.34629C4.98859 3.5003 5.01021 3.65599 5.06797 3.79969L6.04813 6.25ZM6.585 9.83125C6.85938 8.73665 7.83828 8.125 8.92445 8.125L9.13289 7.5H6.25V12.8661L7.16047 11.9556C6.89247 11.6793 6.69907 11.3393 6.59842 10.9678C6.49776 10.5962 6.49314 10.2051 6.585 9.83125ZM6.25 18.125H14.375C14.7064 18.1246 15.0241 17.9928 15.2584 17.7585C15.4928 17.5241 15.6246 17.2064 15.625 16.875V15.625H13.75V14.375H15.625V13.125C15.625 12.9592 15.6908 12.8003 15.8081 12.6831C15.9253 12.5659 16.0842 12.5 16.25 12.5H17.8269L16.7722 9.86375C16.1455 9.78619 15.5234 9.6757 14.9084 9.53274C14.9965 9.75032 15.0217 9.98834 14.9808 10.2195C14.94 10.4507 14.8349 10.6658 14.6776 10.84C14.5202 11.0142 14.317 11.1406 14.0912 11.2047C13.8653 11.2688 13.626 11.268 13.4006 11.2024C13.1751 11.1368 12.9728 11.0091 12.8166 10.8338C12.6604 10.6585 12.5568 10.4428 12.5175 10.2113C12.4782 9.97983 12.5049 9.74199 12.5946 9.525C12.6842 9.30801 12.8331 9.12066 13.0243 8.98438C12.1027 8.6608 11.2091 8.26239 10.3524 7.79313L9.96758 8.94782C9.92609 9.07217 9.84654 9.18034 9.7402 9.257C9.63385 9.33366 9.5061 9.37494 9.375 9.375H8.77109C8.54733 9.37471 8.32991 9.44935 8.1535 9.587C7.97709 9.72466 7.85185 9.91741 7.79773 10.1345C7.74881 10.3559 7.77359 10.5871 7.86832 10.7931C7.96305 10.999 8.12252 11.1683 8.32242 11.2752L8.40242 11.3148C8.49135 11.3588 8.56851 11.4234 8.62752 11.5032C8.68653 11.583 8.72569 11.6756 8.74177 11.7736C8.75785 11.8715 8.75038 11.9718 8.71998 12.0663C8.68958 12.1608 8.63713 12.2466 8.56695 12.3168L6.25 14.6339V18.125ZM14.375 19.375H13.5755L13.142 20.6754L13.3085 21.6742L14.5695 19.375H14.375ZM9.96789 20.766L9.04055 19.375H7.03781L9.70969 22.3141L9.96789 20.766ZM11.7355 24.5425L12.3367 23.4463L11.8836 20.7275C11.8668 20.627 11.8749 20.5238 11.907 20.4271L12.2578 19.375H10.5428L11.145 20.2783C11.2331 20.4104 11.2676 20.5712 11.2415 20.7278L10.7805 23.492L11.7355 24.5425ZM11.4643 31.875L18.1628 19.6601C17.6682 19.4725 17.1438 19.3759 16.6148 19.375H15.996L9.14 31.875H11.4643ZM21.1562 32.5859L18.75 33.5481V37.5H21.985C21.8823 37.2146 21.8513 36.9083 21.8948 36.608L22.3523 33.4835L21.1562 32.5859ZM17.4235 30.8071L18.9552 32.1196L20.1265 31.6509L18.0806 30.0142C18.0337 29.9768 17.9806 29.9477 17.9238 29.9283C17.8106 29.8901 17.6876 29.8925 17.5759 29.9351C17.4642 29.9776 17.3708 30.0577 17.3117 30.1616C17.2526 30.2655 17.2315 30.3867 17.2519 30.5044C17.2724 30.6222 17.3331 30.7292 17.4238 30.807L17.4235 30.8071ZM15.625 37.5H17.5V33.125H15.625V37.5Z" fill="#CD1E19"/>
</svg>
