<svg width="16" height="11" viewBox="0 0 16 11" fill="none" xmlns="http://www.w3.org/2000/svg">
<g clip-path="url(#clip0_3_97)">
<path d="M2.21384 4.32704C3.42138 4.32704 4.32704 3.32075 4.32704 2.11321C4.32704 0.90566 3.32075 0 2.11321 0C0.90566 0 0 1.00629 0 2.11321C0 3.32075 1.00629 4.32704 2.21384 4.32704ZM2.21384 0.704402C3.01887 0.704402 3.62264 1.40881 3.62264 2.21384C3.62264 3.01887 2.91824 3.62264 2.11321 3.62264C1.30818 3.62264 0.704403 2.91824 0.704403 2.21384C0.704403 1.30818 1.40881 0.704402 2.21384 0.704402ZM8.05031 4.32704C9.25786 4.32704 10.1635 3.32075 10.1635 2.11321C10.1635 0.90566 9.15723 0 7.94969 0C6.74214 0 5.83648 1.00629 5.83648 2.11321C5.83648 3.32075 6.84277 4.32704 8.05031 4.32704ZM8.05031 0.704402C8.85535 0.704402 9.45912 1.40881 9.45912 2.21384C9.45912 3.01887 8.75472 3.62264 7.94969 3.62264C7.14465 3.62264 6.54088 2.91824 6.54088 2.21384C6.54088 1.30818 7.24528 0.704402 8.05031 0.704402ZM13.8868 4.32704C15.0943 4.32704 16 3.32075 16 2.11321C16 0.90566 14.9937 0 13.7862 0C12.5786 0 11.673 1.00629 11.673 2.11321C11.673 3.32075 12.6792 4.32704 13.8868 4.32704ZM13.8868 0.704402C14.6918 0.704402 15.2956 1.40881 15.2956 2.21384C15.2956 3.01887 14.5912 3.62264 13.7862 3.62264C12.9811 3.62264 12.3774 2.91824 12.3774 2.21384C12.478 1.30818 13.0818 0.704402 13.8868 0.704402ZM2.21384 10.0629C3.42138 10.0629 4.32704 9.0566 4.32704 7.84906C4.32704 6.64151 3.32075 5.73585 2.11321 5.73585C0.90566 5.73585 0 6.74214 0 7.94969C0 9.15723 1.00629 10.0629 2.21384 10.0629ZM2.21384 6.44025C3.01887 6.44025 3.62264 7.14465 3.62264 7.94969C3.62264 8.75472 2.91824 9.35849 2.11321 9.35849C1.30818 9.35849 0.704403 8.75472 0.704403 7.94969C0.704403 7.14465 1.40881 6.44025 2.21384 6.44025ZM8.05031 10.0629C9.25786 10.0629 10.1635 9.0566 10.1635 7.84906C10.1635 6.64151 9.15723 5.73585 7.94969 5.73585C6.74214 5.73585 5.83648 6.74214 5.83648 7.84906C5.83648 9.15723 6.84277 10.0629 8.05031 10.0629ZM8.05031 6.44025C8.85535 6.44025 9.45912 7.14465 9.45912 7.94969C9.45912 8.75472 8.75472 9.35849 7.94969 9.35849C7.14465 9.35849 6.54088 8.75472 6.54088 7.94969C6.54088 7.14465 7.24528 6.44025 8.05031 6.44025ZM13.8868 10.0629C15.0943 10.0629 16 9.0566 16 7.84906C16 6.64151 14.9937 5.73585 13.7862 5.73585C12.5786 5.73585 11.673 6.74214 11.673 7.84906C11.673 9.15723 12.6792 10.0629 13.8868 10.0629Z" fill="#FF151F"/>
</g>
<defs>
<clipPath id="clip0_3_97">
<rect width="16" height="10.0629" fill="white"/>
</clipPath>
</defs>
</svg>
