<svg width="60" height="60" viewBox="0 0 60 60" fill="none" xmlns="http://www.w3.org/2000/svg">
<path d="M51.5625 6.5625V5.625C51.5625 3.04031 49.4597 0.9375 46.875 0.9375C44.2903 0.9375 42.1875 3.04031 42.1875 5.625V6.5625H10.3125V30.9375H3.75C2.19937 30.9375 0.9375 32.1994 0.9375 33.75C0.9375 36.0131 2.55094 37.9069 4.6875 38.3428V39.375C4.6875 40.9256 5.94938 42.1875 7.5 42.1875H8.03719L5.08031 50.3184C4.81969 51.0347 4.6875 51.7837 4.6875 52.5459C4.6875 56.1244 7.58719 59.0363 11.25 59.0606V59.0625H59.0625V6.5625H51.5625ZM44.0625 21.5625V10.3125H45.9375V21.5625H44.0625ZM49.2722 23.4375L47.265 28.7925C47.1422 29.115 46.6069 29.115 46.4859 28.7925L44.4778 23.4375H49.2722ZM49.6875 21.5625H47.8125V10.3125H49.6875V21.5625ZM46.875 2.8125C48.4256 2.8125 49.6875 4.07437 49.6875 5.625V8.4375H44.0625V5.625C44.0625 4.07437 45.3244 2.8125 46.875 2.8125ZM2.8125 33.75C2.8125 33.2325 3.2325 32.8125 3.75 32.8125H18.75C19.2675 32.8125 19.6875 33.2325 19.6875 33.75C19.6875 35.3006 18.4256 36.5625 16.875 36.5625H5.625C4.07437 36.5625 2.8125 35.3006 2.8125 33.75ZM6.5625 39.375V38.4375H15.9375V39.375C15.9375 39.8925 15.5175 40.3125 15 40.3125H7.5C6.9825 40.3125 6.5625 39.8925 6.5625 39.375ZM6.5625 52.5459C6.5625 52.0031 6.65719 51.4697 6.84188 50.9597L10.0312 42.1875H12.4688L15.6581 50.9587C15.8428 51.4688 15.9375 52.0031 15.9375 52.5459C15.9375 55.1053 13.8553 57.1875 11.2041 57.1875C8.64469 57.1875 6.5625 55.1053 6.5625 52.5459ZM57.1875 57.1875H15.8625C17.0644 56.0044 17.8125 54.3619 17.8125 52.5459C17.8125 51.7837 17.6803 51.0347 17.4197 50.3184L14.4628 42.1875H15C16.5506 42.1875 17.8125 40.9256 17.8125 39.375V38.3428C19.9491 37.9069 21.5625 36.0141 21.5625 33.75C21.5625 32.1994 20.3006 30.9375 18.75 30.9375H12.1875V8.4375H42.1875V22.6706L44.7309 29.4516C45.0647 30.3403 45.9263 30.9375 46.875 30.9375C47.8237 30.9375 48.6853 30.3403 49.02 29.4516L51.5625 22.6706V8.4375H57.1875V57.1875Z" fill="#CD1E19"/>
<path d="M51.5629 32.4258L49.6739 34.3148C47.9714 33.3314 46.0486 32.8139 44.0629 32.8139C37.8595 32.8139 32.8129 37.8605 32.8129 44.0639C32.8129 46.0495 33.3304 47.9723 34.3139 49.6748L32.4248 51.5639L36.5629 55.702L38.452 53.813C40.1545 54.7964 42.0773 55.3139 44.0629 55.3139C50.2664 55.3139 55.3129 50.2673 55.3129 44.0639C55.3129 42.0783 54.7954 40.1555 53.812 38.453L55.7011 36.5639L51.5629 32.4258ZM34.6879 44.0639C34.6879 38.8945 38.8936 34.6889 44.0629 34.6889C45.5451 34.6889 46.9795 35.0461 48.2826 35.7061L46.8689 37.1198C45.9764 36.757 45.037 36.5639 44.0629 36.5639C39.9276 36.5639 36.5629 39.9286 36.5629 44.0639C36.5629 45.038 36.7561 45.9773 37.1198 46.8689L35.7061 48.2827C35.0451 46.9805 34.6879 45.5461 34.6879 44.0639ZM38.5964 45.3923C38.4914 44.9602 38.4379 44.5167 38.4379 44.0639C38.4379 40.9617 40.9607 38.4389 44.0629 38.4389C44.5157 38.4389 44.9592 38.4923 45.3914 38.5973L38.5964 45.3923ZM35.0761 51.5639L51.5629 35.077L53.0498 36.5639L36.5629 53.0508L35.0761 51.5639ZM49.6879 44.0639C49.6879 47.1661 47.1651 49.6889 44.0629 49.6889C43.6101 49.6889 43.1667 49.6355 42.7345 49.5305L49.5286 42.7364C49.6345 43.1677 49.6879 43.6111 49.6879 44.0639ZM53.4379 44.0639C53.4379 49.2333 49.2323 53.4389 44.0629 53.4389C42.5807 53.4389 41.1464 53.0817 39.8432 52.4217L41.257 51.008C42.1495 51.3708 43.0889 51.5639 44.0629 51.5639C48.1982 51.5639 51.5629 48.1992 51.5629 44.0639C51.5629 43.0898 51.3698 42.1505 51.0061 41.2589L52.4198 39.8452C53.0807 41.1473 53.4379 42.5817 53.4379 44.0639Z" fill="#CD1E19"/>
<path d="M38.4375 26.25V13.125C38.4375 11.5744 37.1756 10.3125 35.625 10.3125H18.75C17.1994 10.3125 15.9375 11.5744 15.9375 13.125V26.25C15.9375 27.8006 17.1994 29.0625 18.75 29.0625H35.625C37.1756 29.0625 38.4375 27.8006 38.4375 26.25ZM23.4375 12.1875H30.9375V15.9375H23.4375V12.1875ZM17.8125 26.25V13.125C17.8125 12.6075 18.2325 12.1875 18.75 12.1875H21.5625V17.8125H32.8125V12.1875H35.625C36.1425 12.1875 36.5625 12.6075 36.5625 13.125V26.25C36.5625 26.7675 36.1425 27.1875 35.625 27.1875H18.75C18.2325 27.1875 17.8125 26.7675 17.8125 26.25Z" fill="#CD1E19"/>
<path d="M23.4375 30.9375H30.9375V32.8125H23.4375V30.9375Z" fill="#CD1E19"/>
<path d="M23.4375 34.6875H30.9375V36.5625H23.4375V34.6875Z" fill="#CD1E19"/>
<path d="M23.4375 38.4375H30.9375V40.3125H23.4375V38.4375Z" fill="#CD1E19"/>
<path d="M19.6875 42.1875H30.9375V44.0625H19.6875V42.1875Z" fill="#CD1E19"/>
<path d="M19.6875 45.9375H30.9375V47.8125H19.6875V45.9375Z" fill="#CD1E19"/>
<path d="M19.6875 49.6875H30.9375V51.5625H19.6875V49.6875Z" fill="#CD1E19"/>
<path d="M19.6875 53.4375H30.9375V55.3125H19.6875V53.4375Z" fill="#CD1E19"/>
</svg>
