<svg width="60" height="60" viewBox="0 0 60 60" fill="none" xmlns="http://www.w3.org/2000/svg">
<path d="M34.6875 53.4375H36.5625V55.3125H34.6875V53.4375Z" fill="#C1262C"/>
<path d="M38.4375 53.4375H40.3125V55.3125H38.4375V53.4375Z" fill="#C1262C"/>
<path d="M46.6005 39.6499L45.2749 40.9755L48.7502 44.4508L55.9755 37.2255L54.6499 35.8999L48.7502 41.7996L46.6005 39.6499Z" fill="#C1262C"/>
<path d="M47.8125 4.6875H27.1875V30.9375H47.8125V4.6875ZM45.9375 10.3125H36.5625V6.5625H45.9375V10.3125ZM40.3125 12.1875V29.0625H36.5625V12.1875H40.3125ZM34.6875 6.5625V10.3125H29.0625V6.5625H34.6875ZM29.0625 12.1875H34.6875V29.0625H29.0625V12.1875ZM42.1875 29.0625V12.1875H45.9375V29.0625H42.1875Z" fill="#C1262C"/>
<path d="M15.9375 51.5625H29.0625V40.3125H15.9375V51.5625ZM17.8125 42.1875H27.1875V49.6875H17.8125V42.1875Z" fill="#C1262C"/>
<path d="M15.9375 32.8125H17.8125V34.6875H15.9375V32.8125Z" fill="#C1262C"/>
<path d="M19.6875 32.8125H40.3125V34.6875H19.6875V32.8125Z" fill="#C1262C"/>
<path d="M15.9375 36.5625H40.3125V38.4375H15.9375V36.5625Z" fill="#C1262C"/>
<path d="M59.0625 39.375C59.0625 35.0391 55.7747 31.4606 51.5625 30.9928V0.9375H13.125C6.405 0.9375 0.9375 6.405 0.9375 13.125C0.9375 19.5281 5.90531 24.7828 12.1875 25.2647V55.3125H30.9375V56.25C30.9375 57.8006 32.1994 59.0625 33.75 59.0625H52.5C54.0506 59.0625 55.3125 57.8006 55.3125 56.25V46.3856C57.5719 44.8706 59.0625 42.2944 59.0625 39.375ZM57.1875 39.375C57.1875 42.9928 54.2438 45.9375 50.625 45.9375C47.0062 45.9375 44.0625 42.9928 44.0625 39.375C44.0625 35.7572 47.0062 32.8125 50.625 32.8125C54.2438 32.8125 57.1875 35.7572 57.1875 39.375ZM40.3125 44.0625V45.9375H38.4375V42.1875H42.6797C43.2066 43.6716 44.1309 44.9663 45.3337 45.9375H42.1875V44.0625H40.3125ZM10.3041 19.6875H15.9459C15.2063 22.0059 14.1319 23.4375 13.125 23.4375C12.1181 23.4375 11.0437 22.0059 10.3041 19.6875ZM2.86031 14.0625H7.52063C7.56375 15.3928 7.69312 16.6528 7.90406 17.8125H3.95063C3.36375 16.6678 2.98125 15.4031 2.86031 14.0625ZM7.52063 12.1875H2.86031C2.98219 10.8469 3.36375 9.58219 3.95156 8.4375H7.905C7.69313 9.59719 7.56281 10.8572 7.52063 12.1875ZM9.82594 8.4375H16.4241C16.6528 9.57094 16.8066 10.8309 16.8553 12.1875H9.39469C9.44344 10.8309 9.59719 9.57094 9.82594 8.4375ZM9.39469 14.0625H16.8553C16.8066 15.4191 16.6519 16.6791 16.4241 17.8125H9.82594C9.59719 16.6791 9.44344 15.4191 9.39469 14.0625ZM17.9109 19.6875H21.0741C19.9059 21.1003 18.3638 22.1869 16.6078 22.8197C17.1253 21.9581 17.5659 20.9016 17.9109 19.6875ZM22.2994 17.8125H18.3459C18.5569 16.6528 18.6872 15.3928 18.7294 14.0625H23.3897C23.2687 15.4031 22.8862 16.6678 22.2994 17.8125ZM18.7294 12.1875C18.6863 10.8572 18.5569 9.59719 18.3459 8.4375H22.2994C22.8862 9.58219 23.2688 10.8469 23.3906 12.1875H18.7294ZM17.9109 6.5625C17.5659 5.34844 17.1253 4.29187 16.6069 3.43031C18.3638 4.06312 19.905 5.14969 21.0741 6.5625H17.9109ZM15.9459 6.5625H10.3041C11.0437 4.24406 12.1172 2.8125 13.125 2.8125C14.1328 2.8125 15.2063 4.24406 15.9459 6.5625ZM9.64313 3.43031C9.12469 4.29187 8.68406 5.34844 8.33906 6.5625H5.17594C6.345 5.14969 7.88625 4.06312 9.64313 3.43031ZM5.17594 19.6875H8.33906C8.68406 20.9016 9.12469 21.9581 9.64313 22.8197C7.88625 22.1869 6.345 21.1003 5.17594 19.6875ZM14.0625 53.4375V25.2647C20.3447 24.7828 25.3125 19.5281 25.3125 13.125C25.3125 8.78156 23.0212 4.97156 19.59 2.8125H49.6875V30.9928C45.4753 31.4606 42.1875 35.0391 42.1875 39.375C42.1875 39.6919 42.2081 40.0041 42.2428 40.3125H33.75C32.1994 40.3125 30.9375 41.5744 30.9375 43.125V53.4375H14.0625ZM53.4375 56.25C53.4375 56.7675 53.0166 57.1875 52.5 57.1875H33.75C33.2334 57.1875 32.8125 56.7675 32.8125 56.25V43.125C32.8125 42.6075 33.2334 42.1875 33.75 42.1875H36.5625V47.8125H50.625C51.6122 47.8125 52.5563 47.6334 53.4375 47.3203V56.25Z" fill="#C1262C"/>
</svg>
