<svg width="60" height="60" viewBox="0 0 60 60" fill="none" xmlns="http://www.w3.org/2000/svg">
<path d="M57.4716 4.6875L54.4444 2.67C52.7456 1.53656 50.7666 0.9375 48.7247 0.9375H37.5C36.4659 0.9375 35.625 1.77844 35.625 2.8125H15V36.5625H11.2753C9.2325 36.5625 7.25437 37.1616 5.55469 38.295L2.52844 40.3125H0.9375V56.25H2.59125L6.435 58.1719C7.59937 58.7541 8.90531 59.0625 10.2084 59.0625H28.125C29.6756 59.0625 30.9375 57.8006 30.9375 56.25C30.9375 55.8797 30.8616 55.5281 30.7312 55.2038C31.9266 54.8794 32.8125 53.7966 32.8125 52.5C32.8125 52.17 32.745 51.8569 32.64 51.5625H50.625V22.4587C51.6459 22.3566 52.6481 22.0678 53.5659 21.6094L57.4097 19.6875H59.0625V4.6875H57.4716ZM30.9375 52.5C30.9375 53.0166 30.5175 53.4375 30 53.4375H28.125H18.75V55.3125H28.125C28.6425 55.3125 29.0625 55.7334 29.0625 56.25C29.0625 56.7666 28.6425 57.1875 28.125 57.1875H10.2084C9.195 57.1875 8.17969 56.9484 7.27312 56.4947L3.03375 54.375H2.8125V42.1875H3.09656L6.59531 39.855C7.98656 38.9278 9.60469 38.4375 11.2753 38.4375H22.5C22.5 39.9881 21.2381 41.25 19.6875 41.25H15.5494L14.1103 42.6891C13.2234 43.575 12.0469 44.0625 10.7953 44.0625H10.3125V45.9375H10.7953C12.3506 45.9375 13.8216 45.3975 15 44.4103V51.5625H18.75H30C30.5175 51.5625 30.9375 51.9834 30.9375 52.5ZM48.75 49.6875H30H18.75H16.875V43.125H19.6875C22.2722 43.125 24.375 41.0222 24.375 38.4375C24.375 37.4034 23.5341 36.5625 22.5 36.5625H16.875V4.6875H36.0225C36.7481 6.34031 38.3953 7.5 40.3125 7.5H42.7369L44.1759 8.94C45.0609 9.825 46.2384 10.3125 47.4909 10.3125H48.75V49.6875ZM57.1875 17.8125H56.9663L52.7278 19.9322C52.0706 20.2612 51.3553 20.4778 50.6259 20.5716V8.4375H47.4919C46.74 8.4375 46.0331 8.145 45.5025 7.61437L43.5131 5.625H40.3125C38.7619 5.625 37.5 4.36313 37.5 2.8125H48.7247C50.3953 2.8125 52.0144 3.30281 53.4047 4.23L56.9034 6.5625H57.1875V17.8125Z" fill="#CD1E19"/>
<path d="M30 47.8125H46.875V32.8125H30V47.8125ZM31.875 34.6875H45V45.9375H31.875V34.6875Z" fill="#CD1E19"/>
<path d="M36.5632 41.7981L35.351 40.5859L34.0254 41.9116L36.5632 44.4494L43.7885 37.2241L42.4629 35.8984L36.5632 41.7981Z" fill="#CD1E19"/>
<path d="M18.75 45.9375H28.125V47.8125H18.75V45.9375Z" fill="#CD1E19"/>
<path d="M26.25 42.1875H28.125V44.0625H26.25V42.1875Z" fill="#CD1E19"/>
<path d="M26.25 38.4375H28.125V40.3125H26.25V38.4375Z" fill="#CD1E19"/>
<path d="M35.625 6.5625H18.75V19.6875H35.625V6.5625ZM33.75 17.8125H20.625V8.4375H33.75V17.8125Z" fill="#CD1E19"/>
<path d="M37.5 17.8125H46.875V19.6875H37.5V17.8125Z" fill="#CD1E19"/>
<path d="M37.5 14.0625H46.875V15.9375H37.5V14.0625Z" fill="#CD1E19"/>
<path d="M37.5 10.3125H39.375V12.1875H37.5V10.3125Z" fill="#CD1E19"/>
<path d="M41.25 10.3125H46.875V12.1875H41.25V10.3125Z" fill="#CD1E19"/>
<path d="M18.75 21.5625H20.625V23.4375H18.75V21.5625Z" fill="#CD1E19"/>
<path d="M22.5 21.5625H46.875V23.4375H22.5V21.5625Z" fill="#CD1E19"/>
<path d="M18.75 25.3125H46.875V27.1875H18.75V25.3125Z" fill="#CD1E19"/>
<path d="M18.75 29.0625H20.625V30.9375H18.75V29.0625Z" fill="#CD1E19"/>
<path d="M26.25 29.0625H28.125V30.9375H26.25V29.0625Z" fill="#CD1E19"/>
<path d="M22.5 29.0625H24.375V30.9375H22.5V29.0625Z" fill="#CD1E19"/>
<path d="M30 29.0625H46.875V30.9375H30V29.0625Z" fill="#CD1E19"/>
<path d="M18.75 32.8125H28.125V34.6875H18.75V32.8125Z" fill="#CD1E19"/>
</svg>
