<svg width="14" height="14" viewBox="0 0 14 14" fill="none" xmlns="http://www.w3.org/2000/svg">
<g clip-path="url(#clip0_62_722)">
<path d="M13.8338 13.0315L7.80265 7.00043L13.8337 0.969371C14.0554 0.747751 14.0554 0.388372 13.8337 0.166724C13.6121 -0.0549237 13.2527 -0.0549237 13.0311 0.166724L7 6.19779L0.968883 0.166724C0.747262 -0.0549237 0.387884 -0.0549237 0.166236 0.166724C-0.055412 0.388345 -0.055412 0.747723 0.166236 0.969371L6.19732 7.00043L0.166236 13.0315C-0.055412 13.2532 -0.055412 13.6125 0.166236 13.8342C0.387857 14.0558 0.747235 14.0558 0.968883 13.8342L7 7.80308L13.0311 13.8342C13.2527 14.0558 13.6121 14.0558 13.8338 13.8342C14.0554 13.6125 14.0554 13.2532 13.8338 13.0315Z" fill="#C70909"/>
</g>
<defs>
<clipPath id="clip0_62_722">
<rect width="14" height="14" fill="white"/>
</clipPath>
</defs>
</svg>
