<svg width="26" height="16" viewBox="0 0 26 16" fill="none" xmlns="http://www.w3.org/2000/svg">
<g clip-path="url(#clip0_3_74)">
<mask id="path-1-inside-1_3_74" fill="white">
<path fill-rule="evenodd" clip-rule="evenodd" d="M24.4282 9.13975C24.6272 8.89834 24.7716 8.712 24.8567 8.59938C24.8994 8.54286 24.9271 8.50492 24.9393 8.4879C25.1599 8.19859 25.1599 7.80141 24.9442 7.51211C24.9315 7.49439 24.902 7.45402 24.8564 7.39363C24.7915 7.3079 24.6941 7.18181 24.5661 7.02301C24.0025 6.32377 22.8312 4.97241 21.2255 3.64021C19.0084 1.80071 15.9658 0 12.5531 0C9.14039 0 6.09781 1.80071 3.88011 3.64021C3.63381 3.84451 3.3977 4.04927 3.1724 4.25208C2.18212 5.14352 1.40084 5.99717 0.881392 6.60787C0.569958 6.97401 0.352117 7.25345 0.239197 7.40227C0.197009 7.45788 0.169466 7.49525 0.15716 7.51211C-0.0536888 7.80141 -0.0536888 8.19859 0.15716 8.4879C0.169348 8.50459 0.196481 8.54141 0.237985 8.59613C0.312408 8.69426 0.433045 8.84995 0.596572 9.05039C0.810587 9.31273 1.09874 9.65253 1.45352 10.0407C1.76616 10.3828 2.13055 10.7624 2.54155 11.1596C2.94438 11.549 3.39197 11.9553 3.8795 12.3598C6.09658 14.1993 9.13793 16 12.5482 16C15.9585 16 19.0011 14.1993 21.2188 12.3598C22.708 11.1245 23.824 9.87281 24.4282 9.13975ZM1.04095 8C1.09092 8.06575 1.16364 8.15983 1.25791 8.27772C1.77087 8.91924 2.92191 10.2659 4.51803 11.5902C6.66402 13.3707 9.48114 15 12.5482 15C15.6154 15 18.4337 13.3706 20.5803 11.5901C22.4851 10.0102 23.7547 8.3993 24.0587 7.99674C24.0587 7.99674 24.0587 7.99673 24.0587 7.99673C24.0097 7.93191 23.9373 7.83785 23.8426 7.71924C23.3339 7.08164 22.1839 5.7348 20.587 4.40981C18.4412 2.62947 15.6228 1 12.5531 1C9.48342 1 6.66502 2.62947 4.51854 4.40989C2.62861 5.97752 1.36285 7.57649 1.04095 8Z"/>
</mask>
<path fill-rule="evenodd" clip-rule="evenodd" d="M24.4282 9.13975C24.6272 8.89834 24.7716 8.712 24.8567 8.59938C24.8994 8.54286 24.9271 8.50492 24.9393 8.4879C25.1599 8.19859 25.1599 7.80141 24.9442 7.51211C24.9315 7.49439 24.902 7.45402 24.8564 7.39363C24.7915 7.3079 24.6941 7.18181 24.5661 7.02301C24.0025 6.32377 22.8312 4.97241 21.2255 3.64021C19.0084 1.80071 15.9658 0 12.5531 0C9.14039 0 6.09781 1.80071 3.88011 3.64021C3.63381 3.84451 3.3977 4.04927 3.1724 4.25208C2.18212 5.14352 1.40084 5.99717 0.881392 6.60787C0.569958 6.97401 0.352117 7.25345 0.239197 7.40227C0.197009 7.45788 0.169466 7.49525 0.15716 7.51211C-0.0536888 7.80141 -0.0536888 8.19859 0.15716 8.4879C0.169348 8.50459 0.196481 8.54141 0.237985 8.59613C0.312408 8.69426 0.433045 8.84995 0.596572 9.05039C0.810587 9.31273 1.09874 9.65253 1.45352 10.0407C1.76616 10.3828 2.13055 10.7624 2.54155 11.1596C2.94438 11.549 3.39197 11.9553 3.8795 12.3598C6.09658 14.1993 9.13793 16 12.5482 16C15.9585 16 19.0011 14.1993 21.2188 12.3598C22.708 11.1245 23.824 9.87281 24.4282 9.13975ZM1.04095 8C1.09092 8.06575 1.16364 8.15983 1.25791 8.27772C1.77087 8.91924 2.92191 10.2659 4.51803 11.5902C6.66402 13.3707 9.48114 15 12.5482 15C15.6154 15 18.4337 13.3706 20.5803 11.5901C22.4851 10.0102 23.7547 8.3993 24.0587 7.99674C24.0587 7.99674 24.0587 7.99673 24.0587 7.99673C24.0097 7.93191 23.9373 7.83785 23.8426 7.71924C23.3339 7.08164 22.1839 5.7348 20.587 4.40981C18.4412 2.62947 15.6228 1 12.5531 1C9.48342 1 6.66502 2.62947 4.51854 4.40989C2.62861 5.97752 1.36285 7.57649 1.04095 8Z" fill="black"/>
<path d="M24.8567 8.59938L25.6547 9.20205L25.6547 9.20205L24.8567 8.59938ZM24.4282 9.13975L25.1999 9.77578L25.1999 9.77577L24.4282 9.13975ZM24.9393 8.4879L24.1441 7.88145L24.1346 7.8939L24.1255 7.90665L24.9393 8.4879ZM24.9442 7.51211L24.1304 8.09334L24.1364 8.1017L24.1425 8.10993L24.9442 7.51211ZM24.8564 7.39363L25.654 6.79054L25.654 6.79053L24.8564 7.39363ZM24.5661 7.02301L25.3447 6.39542L25.3447 6.3954L24.5661 7.02301ZM21.2255 3.64021L20.587 4.40981V4.40981L21.2255 3.64021ZM3.88011 3.64021L3.24169 2.87052V2.87052L3.88011 3.64021ZM3.1724 4.25208L3.84144 4.9953L3.1724 4.25208ZM0.881392 6.60787L1.64311 7.25578L1.64312 7.25577L0.881392 6.60787ZM0.239197 7.40227L-0.557454 6.79783L-0.557454 6.79783L0.239197 7.40227ZM0.15716 7.51211L-0.650463 6.92241L-0.650983 6.92312L0.15716 7.51211ZM0.15716 8.4879L-0.650984 9.07688L-0.650458 9.0776L0.15716 8.4879ZM0.237985 8.59613L1.03475 7.99184L1.03475 7.99184L0.237985 8.59613ZM0.596572 9.05039L1.37143 8.41826L1.37142 8.41825L0.596572 9.05039ZM1.45352 10.0407L0.715387 10.7153H0.715387L1.45352 10.0407ZM2.54155 11.1596L1.84657 11.8787H1.84657L2.54155 11.1596ZM3.8795 12.3598L3.24097 13.1294L3.8795 12.3598ZM21.2188 12.3598L20.5803 11.5901L21.2188 12.3598ZM1.25791 8.27772L0.476892 8.90223H0.476892L1.25791 8.27772ZM1.04095 8L0.244815 7.39488L-0.215111 7.99999L0.244811 8.60511L1.04095 8ZM4.51803 11.5902L3.8795 12.3598H3.8795L4.51803 11.5902ZM20.5803 11.5901L19.9419 10.8204L19.9419 10.8204L20.5803 11.5901ZM24.0587 7.99674L23.2778 7.37205L23.2691 7.38294L23.2607 7.39407L24.0587 7.99674ZM24.0587 7.99673L24.8396 8.62142L25.3255 8.01404L24.8564 7.39361L24.0587 7.99673ZM23.8426 7.71924L23.061 8.34293L23.061 8.34293L23.8426 7.71924ZM20.587 4.40981L19.9484 5.1794L20.587 4.40981ZM4.51854 4.40989L3.88011 3.64021L4.51854 4.40989ZM24.0587 7.99671C23.9818 8.09858 23.8461 8.27377 23.6566 8.50373L25.1999 9.77577C25.4083 9.52291 25.5615 9.32541 25.6547 9.20205L24.0587 7.99671ZM24.1255 7.90665C24.1201 7.9142 24.098 7.94463 24.0587 7.99671L25.6547 9.20205C25.7007 9.1411 25.7341 9.09563 25.753 9.06914L24.1255 7.90665ZM24.1425 8.10993C24.0932 8.04381 24.0922 7.94954 24.1441 7.88145L25.7344 9.09434C26.2276 8.44764 26.2266 7.55901 25.7458 6.91428L24.1425 8.10993ZM24.0587 7.99673C24.1009 8.05249 24.1246 8.08523 24.1304 8.09334L25.7579 6.93087C25.7384 6.90356 25.7032 6.85554 25.654 6.79054L24.0587 7.99673ZM23.7876 7.6506C23.9089 7.80107 23.9999 7.91898 24.0587 7.99674L25.654 6.79053C25.5832 6.69681 25.4794 6.56255 25.3447 6.39542L23.7876 7.6506ZM25.3447 6.3954C24.7547 5.6635 23.537 4.25865 21.864 2.87061L20.587 4.40981C22.1253 5.68617 23.2503 6.98405 23.7876 7.65061L25.3447 6.3954ZM21.864 2.87061C19.5757 0.972028 16.309 -1 12.5531 -1V1C15.6227 1 18.4411 2.62939 20.587 4.40981L21.864 2.87061ZM12.5531 -1C8.79728 -1 5.5305 0.972035 3.24169 2.87052L4.51854 4.40989C6.66512 2.62938 9.4835 1 12.5531 1V-1ZM3.24169 2.87052C2.9844 3.08393 2.73809 3.29756 2.50336 3.50885L3.84144 4.9953C4.05731 4.80099 4.28321 4.60509 4.51854 4.40989L3.24169 2.87052ZM2.50336 3.50885C1.47282 4.43653 0.660724 5.32386 0.119666 5.95998L1.64312 7.25577C2.14095 6.67048 2.89141 5.85051 3.84144 4.9953L2.50336 3.50885ZM1.03585 8.00671C1.13891 7.87088 1.34511 7.60613 1.64311 7.25578L0.119673 5.95997C-0.205196 6.3419 -0.434672 6.63601 -0.557454 6.79783L1.03585 8.00671ZM0.964783 8.1018C0.97345 8.08994 0.997334 8.05748 1.03585 8.00671L-0.557454 6.79783C-0.603317 6.85828 -0.634518 6.90057 -0.650463 6.92241L0.964783 8.1018ZM0.965304 7.89891C1.01026 7.9606 1.01026 8.0394 0.965303 8.10109L-0.650983 6.92312C-1.11764 7.56342 -1.11764 8.43658 -0.650984 9.07688L0.965304 7.89891ZM1.03475 7.99184C0.996885 7.94192 0.97337 7.90996 0.964779 7.89819L-0.650458 9.0776C-0.634675 9.09922 -0.603923 9.1409 -0.558779 9.20042L1.03475 7.99184ZM1.37142 8.41825C1.21591 8.22762 1.10257 8.08126 1.03475 7.99184L-0.55878 9.20042C-0.477753 9.30725 -0.349815 9.47228 -0.178281 9.68254L1.37142 8.41825ZM-0.178288 9.68253C0.0461774 9.95767 0.346564 10.3118 0.715387 10.7153L2.19165 9.36603C1.85091 8.99323 1.575 8.66779 1.37143 8.41826L-0.178288 9.68253ZM0.715387 10.7153C1.0404 11.0709 1.41916 11.4655 1.84657 11.8787L3.23654 10.4406C2.84195 10.0592 2.49193 9.69456 2.19165 9.36603L0.715387 10.7153ZM1.84657 11.8787C2.26543 12.2835 2.73183 12.707 3.24097 13.1294L4.51803 11.5902C4.0521 11.2036 3.62332 10.8145 3.23654 10.4406L1.84657 11.8787ZM3.24097 13.1294C5.52905 15.0278 8.79465 17 12.5482 17V15C9.48122 15 6.66412 13.3708 4.51803 11.5902L3.24097 13.1294ZM12.5482 17C16.3017 17 19.5685 15.0279 21.8572 13.1295L20.5803 11.5901C18.4337 13.3707 15.6153 15 12.5482 15V17ZM21.8572 13.1295C23.4092 11.8421 24.5694 10.5407 25.1999 9.77578L23.6566 8.50372C23.0786 9.20494 22.0067 10.407 20.5803 11.5901L21.8572 13.1295ZM2.03893 7.65321C1.95005 7.54206 1.88237 7.45446 1.83709 7.39489L0.244811 8.60511C0.299476 8.67703 0.377233 8.77759 0.476892 8.90223L2.03893 7.65321ZM5.15656 10.8206C3.62992 9.55395 2.52613 8.26251 2.03893 7.65321L0.476892 8.90223C1.01562 9.57596 2.21389 10.9778 3.8795 12.3598L5.15656 10.8206ZM12.5482 14C9.82435 14 7.23146 12.5421 5.15656 10.8206L3.8795 12.3598C6.09658 14.1993 9.13793 16 12.5482 16V14ZM19.9419 10.8204C17.8664 12.542 15.2723 14 12.5482 14V16C15.9585 16 19.0011 14.1993 21.2188 12.3598L19.9419 10.8204ZM23.2607 7.39407C22.9828 7.76206 21.7658 9.30762 19.9419 10.8204L21.2188 12.3598C23.2044 10.7128 24.5266 9.03653 24.8567 8.59941L23.2607 7.39407ZM23.2779 7.37203C23.2474 7.41005 23.2253 7.44342 23.2113 7.46581C23.2043 7.47693 23.1989 7.48608 23.1956 7.49174C23.1939 7.49461 23.1926 7.49695 23.1918 7.49837C23.1913 7.4991 23.191 7.49968 23.1908 7.50004C23.1907 7.50022 23.1906 7.50037 23.1906 7.50045C23.1905 7.5005 23.1905 7.50054 23.1905 7.50056C23.1905 7.50057 23.1905 7.50058 23.1905 7.50059C23.1905 7.50059 23.1905 7.50059 23.1905 7.50059C23.1905 7.50059 23.1905 7.50059 23.1905 7.50059C23.1904 7.50078 23.191 7.49967 23.1918 7.49837C23.1926 7.49695 23.1939 7.49462 23.1956 7.49174C23.1989 7.48608 23.2043 7.47693 23.2113 7.46582C23.2253 7.44343 23.2474 7.41006 23.2778 7.37205L24.8396 8.62144C24.87 8.58341 24.8921 8.55005 24.9061 8.52765C24.9131 8.51654 24.9185 8.50739 24.9218 8.50173C24.9235 8.49885 24.9249 8.49652 24.9257 8.4951C24.9261 8.49437 24.9264 8.49378 24.9266 8.49343C24.9268 8.49325 24.9268 8.4931 24.9269 8.49301C24.9269 8.49297 24.9269 8.49293 24.9269 8.49291C24.927 8.4929 24.927 8.49289 24.927 8.49288C24.927 8.49288 24.927 8.49288 24.927 8.49287C24.927 8.49287 24.927 8.49287 24.927 8.49287C24.9271 8.49269 24.9264 8.4938 24.9257 8.49509C24.9249 8.49651 24.9235 8.49885 24.9218 8.50172C24.9185 8.50739 24.9131 8.51653 24.9061 8.52765C24.8921 8.55004 24.87 8.5834 24.8396 8.62142L23.2779 7.37203ZM23.061 8.34293C23.1501 8.45461 23.2172 8.54181 23.2611 8.59984L24.8564 7.39361C24.8022 7.32201 24.7245 7.22109 24.6243 7.09554L23.061 8.34293ZM19.9484 5.1794C21.4758 6.44666 22.5784 7.73811 23.061 8.34293L24.6243 7.09555C24.0894 6.42517 22.8921 5.02294 21.2255 3.64021L19.9484 5.1794ZM12.5531 2C15.2798 2 17.874 3.45823 19.9484 5.1794L21.2255 3.64021C19.0084 1.80071 15.9658 0 12.5531 0V2ZM5.15696 5.17958C7.23223 3.45822 9.82646 2 12.5531 2V0C9.14039 0 6.09781 1.80071 3.88011 3.64021L5.15696 5.17958ZM1.83709 8.60512C2.13397 8.21451 3.34755 6.68042 5.15696 5.17958L3.88011 3.64021C1.90966 5.27463 0.591725 6.93846 0.244815 7.39488L1.83709 8.60512Z" fill="black" mask="url(#path-1-inside-1_3_74)"/>
<mask id="path-3-inside-2_3_74" fill="white">
<path fill-rule="evenodd" clip-rule="evenodd" d="M7.58569 8.00237C7.58569 5.26138 9.81672 3.03516 12.5529 3.03516C15.2891 3.03516 17.5201 5.26623 17.5201 8.00237C17.5201 10.7384 15.2891 12.9647 12.5529 12.9647C9.81663 12.9647 7.58569 10.7433 7.58569 8.00237ZM12.5529 4.03516C10.3684 4.03516 8.58569 5.81426 8.58569 8.00237C8.58569 10.1892 10.3671 11.9647 12.5529 11.9647C14.7381 11.9647 16.5201 10.1849 16.5201 8.00237C16.5201 5.81852 14.7368 4.03516 12.5529 4.03516Z"/>
</mask>
<path fill-rule="evenodd" clip-rule="evenodd" d="M7.58569 8.00237C7.58569 5.26138 9.81672 3.03516 12.5529 3.03516C15.2891 3.03516 17.5201 5.26623 17.5201 8.00237C17.5201 10.7384 15.2891 12.9647 12.5529 12.9647C9.81663 12.9647 7.58569 10.7433 7.58569 8.00237ZM12.5529 4.03516C10.3684 4.03516 8.58569 5.81426 8.58569 8.00237C8.58569 10.1892 10.3671 11.9647 12.5529 11.9647C14.7381 11.9647 16.5201 10.1849 16.5201 8.00237C16.5201 5.81852 14.7368 4.03516 12.5529 4.03516Z" fill="black"/>
<path d="M12.5529 2.03516C9.26507 2.03516 6.58569 4.70846 6.58569 8.00237H8.58569C8.58569 5.81429 10.3684 4.03516 12.5529 4.03516V2.03516ZM18.5201 8.00237C18.5201 4.71395 15.8413 2.03516 12.5529 2.03516V4.03516C14.7368 4.03516 16.5201 5.81852 16.5201 8.00237H18.5201ZM12.5529 13.9647C15.8402 13.9647 18.5201 11.292 18.5201 8.00237H16.5201C16.5201 10.1849 14.7381 11.9647 12.5529 11.9647V13.9647ZM6.58569 8.00237C6.58569 11.2974 9.26623 13.9647 12.5529 13.9647V11.9647C10.367 11.9647 8.58569 10.1891 8.58569 8.00237H6.58569ZM9.58569 8.00237C9.58569 6.36714 10.9201 5.03516 12.5529 5.03516V3.03516C9.81672 3.03516 7.58569 5.26138 7.58569 8.00237H9.58569ZM12.5529 10.9647C10.9176 10.9647 9.58569 9.63513 9.58569 8.00237H7.58569C7.58569 10.7433 9.81663 12.9647 12.5529 12.9647V10.9647ZM15.5201 8.00237C15.5201 9.63146 14.187 10.9647 12.5529 10.9647V12.9647C15.2891 12.9647 17.5201 10.7384 17.5201 8.00237H15.5201ZM12.5529 5.03516C14.1845 5.03516 15.5201 6.37081 15.5201 8.00237H17.5201C17.5201 5.26623 15.2891 3.03516 12.5529 3.03516V5.03516Z" fill="black" mask="url(#path-3-inside-2_3_74)"/>
</g>
<defs>
<clipPath id="clip0_3_74">
<rect width="25.1057" height="16" fill="white"/>
</clipPath>
</defs>
</svg>
