<svg width="22" height="20" viewBox="0 0 22 20" fill="none" xmlns="http://www.w3.org/2000/svg">
<path fill-rule="evenodd" clip-rule="evenodd" d="M8.29668 16.5974L8.30078 16.6015C9.02266 17.2272 9.83887 17.9363 10.6879 18.6913C10.9135 18.8915 11.2006 19 11.5 19C11.7994 19 12.0865 18.8915 12.3121 18.6913C13.1021 17.9849 13.8673 17.3218 14.5514 16.729C14.6025 16.6847 14.6532 16.6408 14.7033 16.5974C16.8197 14.7662 18.6449 13.1811 19.9164 11.6211C21.3396 9.8775 22 8.22569 22 6.41954C22 4.66345 21.4094 3.04501 20.3348 1.86037C19.2479 0.659056 17.7549 0 16.1348 0C14.9207 0 13.8133 0.387925 12.8289 1.1596C12.592 1.34632 12.3656 1.55333 12.1505 1.77971C11.9187 2.02365 11.7001 2.29008 11.4959 2.57783C11.2917 2.29008 11.0731 2.02365 10.8413 1.77971C10.6262 1.55333 10.3998 1.34632 10.1629 1.1596C9.18672 0.387925 8.0793 0 6.86523 0C5.24512 0 3.75215 0.659056 2.66523 1.86037C1.59063 3.04501 1 4.66345 1 6.41954C1 8.22569 1.66035 9.8775 3.08359 11.6211C4.35508 13.1811 6.18027 14.7662 8.29668 16.5974ZM8.98588 15.872L8.98146 15.8675L8.95099 15.8411C6.81365 13.9918 5.06359 12.4676 3.85875 10.9893L3.85827 10.9887C2.5444 9.37913 2 7.94365 2 6.41954C2 4.88515 2.51529 3.51405 3.4059 2.53225L3.40677 2.53129C4.30309 1.54063 5.52618 1 6.86523 1C7.84948 1 8.73939 1.30903 9.54274 1.94409L9.54388 1.94499C9.95503 2.26904 10.3373 2.67322 10.6804 3.15661L11.4959 4.30558L12.3114 3.15661C12.6542 2.67364 13.0361 2.26973 13.4469 1.94582C14.2603 1.30845 15.1515 1 16.1348 1C17.4738 1 18.6969 1.54063 19.5932 2.53129L19.5941 2.53225C20.4847 3.51405 21 4.88515 21 6.41954C21 7.94365 20.4556 9.37913 19.1417 10.9887L19.1413 10.9893C17.9364 12.4676 16.1864 13.9918 14.049 15.8411L14.0484 15.8417C13.998 15.8853 13.9472 15.9294 13.8959 15.9738C13.213 16.5656 12.443 17.2329 11.6476 17.9441C11.6054 17.9812 11.5548 18 11.5 18C11.4449 18 11.394 17.981 11.3517 17.9434C10.5097 17.1947 9.70057 16.4915 8.98588 15.872Z" fill="black"/>
</svg>
