<svg width="14" height="14" viewBox="0 0 14 14" fill="none" xmlns="http://www.w3.org/2000/svg">
<path d="M13.75 0.933333H12V0.233333C12 0.1043 11.8882 0 11.75 0H10C9.86175 0 9.75 0.1043 9.75 0.233333V0.933333H4.25V0.233333C4.25 0.1043 4.13825 0 4 0H2.25C2.11175 0 2 0.1043 2 0.233333V0.933333H0.25C0.11175 0.933333 0 1.03763 0 1.16667V3.73333V13.7667C0 13.8957 0.11175 14 0.25 14H13.75C13.8882 14 14 13.8957 14 13.7667V3.73333V1.16667C14 1.03763 13.8882 0.933333 13.75 0.933333ZM10.25 0.466667H11.5V1.16667V1.86667H10.25V1.16667V0.466667ZM2.5 0.466667H3.75V1.16667V1.86667H2.5V1.16667V0.466667ZM0.5 1.4H2V2.1C2 2.22903 2.11175 2.33333 2.25 2.33333H4C4.13825 2.33333 4.25 2.22903 4.25 2.1V1.4H9.75V2.1C9.75 2.22903 9.86175 2.33333 10 2.33333H11.75C11.8882 2.33333 12 2.22903 12 2.1V1.4H13.5V3.5H0.5V1.4ZM0.5 13.5333V3.96667H13.5V13.5333H0.5Z" fill="#EC1C20"/>
<path d="M9 5.3667H7.25H6.75H5H4.5H2.25V7.4667V7.93337V9.5667V10.0334V12.1334H4.5H5H6.75H7.25H9H9.5H11.75V10.0334V9.5667V7.93337V7.4667V5.3667H9.5H9ZM7.25 5.83337H9V7.4667H7.25V5.83337ZM9 9.5667H7.25V7.93337H9V9.5667ZM5 7.93337H6.75V9.5667H5V7.93337ZM5 5.83337H6.75V7.4667H5V5.83337ZM2.75 5.83337H4.5V7.4667H2.75V5.83337ZM2.75 7.93337H4.5V9.5667H2.75V7.93337ZM4.5 11.6667H2.75V10.0334H4.5V11.6667ZM6.75 11.6667H5V10.0334H6.75V11.6667ZM9 11.6667H7.25V10.0334H9V11.6667ZM11.25 11.6667H9.5V10.0334H11.25V11.6667ZM11.25 9.5667H9.5V7.93337H11.25V9.5667ZM11.25 5.83337V7.4667H9.5V5.83337H11.25Z" fill="#EC1C20"/>
</svg>
