<svg width="60" height="60" viewBox="0 0 60 60" fill="none"
  xmlns="http://www.w3.org/2000/svg">
  <g clip-path="url(#clip17)">
    <path d="M10.2844 15.6018C10.4835 15.6018 10.6849 15.5514 10.8694 15.4448L10.8969 15.4292C11.4572 15.1056 11.649 14.3887 11.3258 13.8279C11.0022 13.2676 10.2853 13.0758 9.72453 13.3995L9.69753 13.415C9.13676 13.7387 8.94496 14.4555 9.2686 15.0158C9.48558 15.3917 9.87972 15.6018 10.2844 15.6018Z" fill="#CD1E19"/>
    <path d="M56.9531 52.0307H52.2656V21.9423L55.1953 23.6338C55.3766 23.7386 55.5789 23.7908 55.7812 23.7908C55.9836 23.7908 56.1859 23.7386 56.3672 23.6338C56.7297 23.4246 56.9531 23.0378 56.9531 22.6189V17.9314C56.9531 17.513 56.7297 17.1262 56.3672 16.9165L30.5864 2.0319C30.2234 1.8227 29.7771 1.8227 29.4145 2.0319L13.7819 11.0572C13.2216 11.3808 13.0293 12.0977 13.353 12.658C13.6766 13.2187 14.3935 13.4105 14.9538 13.0869L30.0005 4.39991L54.6094 18.608V20.5892L30.5864 6.7194C30.2234 6.5102 29.7771 6.5102 29.4145 6.7194L5.39108 20.5892V18.608L7.95502 17.128C8.51532 16.8044 8.70758 16.0875 8.38394 15.5272C8.0603 14.9665 7.34344 14.7747 6.78314 15.0983L3.63327 16.9165C3.27072 17.1262 3.04733 17.513 3.04733 17.9314V22.6189C3.04733 23.0378 3.27072 23.4246 3.63327 23.6338C3.99582 23.8434 4.4426 23.8434 4.80515 23.6338L7.73483 21.9423V52.0307H3.04688C1.36688 52.0307 0 53.3976 0 55.0776V56.9526C0 57.5998 0.524597 58.1244 1.17188 58.1244H46.3083C46.9551 58.1244 47.4802 57.5998 47.4802 56.9526C47.4802 56.3053 46.9551 55.7807 46.3083 55.7807H2.34375V55.0776C2.34375 54.6967 2.66556 54.3744 3.04688 54.3744H56.9531C57.3344 54.3744 57.6562 54.6967 57.6562 55.0776V55.7807H54.3896C53.7428 55.7807 53.2178 56.3053 53.2178 56.9526C53.2178 57.5998 53.7428 58.1244 54.3896 58.1244H58.8281C59.4754 58.1244 60 57.5998 60 56.9526V55.0776C60 53.3976 58.6331 52.0307 56.9531 52.0307ZM47.5781 25.3124H49.9219V52.0307H47.5781V25.3124ZM49.9219 22.9686H38.2031V13.8234L49.9219 20.5892V22.9686ZM30.0005 9.08741L35.8598 12.4703V22.9686H24.1411V12.4707L30.0005 9.08741ZM21.7973 13.8234V22.9686H10.0786V20.5892L21.7973 13.8234ZM10.0786 25.3124H12.4223V52.0307H10.0786V25.3124ZM14.7661 25.3124H45.2344V52.0307H43.8281V27.8905C43.8281 27.2432 43.3035 26.7186 42.6562 26.7186H34.2188C33.5719 26.7186 33.0469 27.2432 33.0469 27.8905V35.1557H25.7817C25.1344 35.1557 24.6098 35.6807 24.6098 36.3276V43.5932H17.3442C16.6969 43.5932 16.1723 44.1178 16.1723 44.7651V52.0307H14.7661V25.3124ZM35.3906 43.5932V37.4999H37.2656C37.2656 38.1472 37.7907 38.6718 38.4375 38.6718C39.0848 38.6718 39.6094 38.1472 39.6094 37.4999H41.4844V43.5932H35.3906ZM26.9536 43.5932V37.4999H28.8286C28.8286 38.1472 29.3532 38.6718 30.0005 38.6718C30.6473 38.6718 31.1719 38.1472 31.1719 37.4999H33.0469V43.5932H26.9536ZM38.438 30.2343C39.0848 30.2343 39.6098 29.7092 39.6098 29.0624H41.4844V35.1557H35.3906V29.0624H37.2661C37.2661 29.7092 37.7907 30.2343 38.438 30.2343ZM18.5161 45.9369H20.3911C20.3911 46.5842 20.9157 47.1088 21.563 47.1088C22.2102 47.1088 22.7348 46.5842 22.7348 45.9369H24.6098V52.0307H18.5161V45.9369ZM26.9536 45.9369H28.8286C28.8286 46.5842 29.3532 47.1088 30.0005 47.1088C30.6473 47.1088 31.1719 46.5842 31.1719 45.9369H33.0469V52.0307H26.9536V45.9369ZM35.3906 52.0307V45.9369H37.2656C37.2656 46.5842 37.7907 47.1088 38.4375 47.1088C39.0848 47.1088 39.6094 46.5842 39.6094 45.9369H41.4844V52.0307H35.3906Z" fill="#CD1E19"/>
    <path d="M51.0233 55.7812H50.9917C50.3449 55.7812 49.8203 56.3058 49.8203 56.9531C49.8203 57.6004 50.3449 58.125 50.9917 58.125H51.0233C51.6706 58.125 52.1952 57.6004 52.1952 56.9531C52.1952 56.3058 51.6706 55.7812 51.0233 55.7812Z" fill="#CD1E19"/>
  </g>
  <defs>
    <clipPath id="clip17">
      <rect width="60" height="60" fill="white"/>
    </clipPath>
  </defs>
</svg>
