<svg width="60" height="60" viewBox="0 0 60 60" fill="none" xmlns="http://www.w3.org/2000/svg">
<path d="M59.1234 28.5773C59.1161 28.1566 58.9091 27.7629 58.5397 27.5487L48.6072 21.7845C49.281 21.1226 49.6999 20.2025 49.6999 19.1858C49.6999 17.5859 48.6639 16.2236 47.2275 15.7347V5.99487C47.2275 5.99304 47.2275 5.99167 47.2275 5.98984C47.2256 5.06699 46.8228 4.19449 46.1206 3.59528C45.417 2.99515 44.4896 2.73422 43.5773 2.87979L19.248 6.75659V5.91614C19.248 2.65411 16.5939 0 13.3319 0H8.27866C5.01663 0 2.36252 2.65411 2.36252 5.91614V18.4534C2.36252 19.1002 2.88712 19.6252 3.53439 19.6252H5.23499V57.6562H2.22656C1.57928 57.6562 1.05469 58.1808 1.05469 58.8281C1.05469 59.4754 1.57928 60 2.22656 60H19.1707C19.818 60 20.3426 59.4754 20.3426 58.8281C20.3426 58.1808 19.818 57.6562 19.1707 57.6562H15.672V19.6252H18.0762C18.7234 19.6252 19.248 19.1006 19.248 18.4534V16.1288L23.4041 14.9803C23.708 14.8961 23.9653 14.6933 24.1177 14.4173C24.2702 14.1417 24.305 13.8158 24.2143 13.5141C24.2125 13.5081 24.2102 13.5008 24.2079 13.4935C24.0207 12.8874 23.3826 12.5391 22.7692 12.713C22.7197 12.7267 22.6717 12.7441 22.6254 12.7638L19.248 13.6972V9.1301L43.9458 5.19424C44.2657 5.14343 44.4928 5.28763 44.599 5.37827C44.7052 5.4689 44.8837 5.6694 44.8837 5.99487C44.8837 6.35788 44.6393 6.67923 44.2891 6.77582L32.9764 9.9028C32.3529 10.0749 31.9867 10.7204 32.1593 11.3443C32.3314 11.9682 32.9768 12.334 33.6008 12.1619L44.8837 9.04312V16.7134C44.8837 17.3602 45.4083 17.8853 46.0556 17.8853C46.7729 17.8853 47.3561 18.4685 47.3561 19.1858C47.3561 19.9031 46.7729 20.4863 46.0556 20.4863C45.6253 20.4863 45.2234 20.2739 44.9803 19.9182C44.615 19.3835 43.8858 19.2467 43.3516 19.6115C42.8169 19.9763 42.6801 20.7056 43.0449 21.2398C43.1731 21.427 43.3168 21.6 43.4734 21.7575L33.1334 27.5313C32.7576 27.7318 32.515 28.1438 32.5186 28.5686V40.3931C32.5186 41.0399 33.0432 41.5649 33.6905 41.5649H57.951C58.5983 41.5649 59.1229 41.0399 59.1229 40.3931V28.5782C59.1234 28.5782 59.1234 28.5777 59.1234 28.5773ZM4.70627 7.08801H16.9043V11.0129H4.70627V7.08801ZM8.27866 2.34375H13.3319C14.8915 2.34375 16.2209 3.34808 16.707 4.74426H4.90356C5.38971 3.34808 6.71906 2.34375 8.27866 2.34375ZM13.3282 37.294H8.86093L13.3282 31.7665V37.294ZM7.57874 39.6378H12.0461L7.57874 45.1653V39.6378ZM7.57874 35.1517V29.6246H12.0461L7.57874 35.1517ZM7.57874 49.6513H12.0959L7.57874 55.4274V49.6513ZM8.86093 47.3076L13.3282 41.7801V47.3076H8.86093ZM13.3282 27.2809H8.86276L13.3282 21.7639V27.2809ZM7.57874 25.1422V19.6252H12.0438L7.57874 25.1422ZM8.81104 57.6562L13.3282 51.8802V57.6562H8.81104ZM16.9043 17.2815H4.70627V13.3566H16.9043V17.2815ZM46.0442 23.0067L53.5977 27.3903H38.1931L46.0442 23.0067ZM56.7796 39.2212H34.8624V29.734H56.7796V39.2212Z" fill="#CD1E19"/>
<path d="M38.627 37.2313C39.2738 37.2313 39.7988 36.7062 39.7988 36.0594V32.8413C39.7988 32.1945 39.2738 31.6694 38.627 31.6694C37.9797 31.6694 37.4551 32.1945 37.4551 32.8413V36.0594C37.4551 36.7067 37.9797 37.2313 38.627 37.2313Z" fill="#CD1E19"/>
<path d="M43.4141 37.2313C44.0613 37.2313 44.5859 36.7062 44.5859 36.0594V32.8413C44.5859 32.1945 44.0613 31.6694 43.4141 31.6694C42.7672 31.6694 42.2422 32.1945 42.2422 32.8413V36.0594C42.2422 36.7067 42.7672 37.2313 43.4141 37.2313Z" fill="#CD1E19"/>
<path d="M48.2012 37.2313C48.8484 37.2313 49.373 36.7062 49.373 36.0594V32.8413C49.373 32.1945 48.8484 31.6694 48.2012 31.6694C47.5539 31.6694 47.0293 32.1945 47.0293 32.8413V36.0594C47.0293 36.7067 47.5539 37.2313 48.2012 37.2313Z" fill="#CD1E19"/>
<path d="M52.9883 37.2313C53.6351 37.2313 54.1602 36.7062 54.1602 36.0594V32.8413C54.1602 32.1945 53.6351 31.6694 52.9883 31.6694C52.341 31.6694 51.8164 32.1945 51.8164 32.8413V36.0594C51.8164 36.7067 52.341 37.2313 52.9883 37.2313Z" fill="#CD1E19"/>
<path d="M33.9805 55.6938C34.6273 55.6938 35.1523 55.1687 35.1523 54.5219V51.3038C35.1523 50.657 34.6273 50.132 33.9805 50.132C33.3332 50.132 32.8086 50.657 32.8086 51.3038V54.5219C32.8086 55.1687 33.3332 55.6938 33.9805 55.6938Z" fill="#CD1E19"/>
<path d="M38.7676 55.6938C39.4149 55.6938 39.9395 55.1687 39.9395 54.5219V51.3038C39.9395 50.657 39.4149 50.132 38.7676 50.132C38.1208 50.132 37.5957 50.657 37.5957 51.3038V54.5219C37.5957 55.1687 38.1203 55.6938 38.7676 55.6938Z" fill="#CD1E19"/>
<path d="M43.5547 55.6938C44.202 55.6938 44.7266 55.1687 44.7266 54.5219V51.3038C44.7266 50.657 44.202 50.132 43.5547 50.132C42.9079 50.132 42.3828 50.657 42.3828 51.3038V54.5219C42.3828 55.1687 42.9074 55.6938 43.5547 55.6938Z" fill="#CD1E19"/>
<path d="M48.3418 55.6938C48.9886 55.6938 49.5137 55.1687 49.5137 54.5219V51.3038C49.5137 50.657 48.9886 50.132 48.3418 50.132C47.6945 50.132 47.1699 50.657 47.1699 51.3038V54.5219C47.1699 55.1687 47.6945 55.6938 48.3418 55.6938Z" fill="#CD1E19"/>
<path d="M52.9895 44.5051C52.3423 44.5051 51.8177 45.0297 51.8177 45.677V45.8258H29.9004V45.677C29.9004 45.0297 29.3758 44.5051 28.7285 44.5051C28.0812 44.5051 27.5566 45.0297 27.5566 45.677V58.8281C27.5566 59.4754 28.0812 60 28.7285 60H52.9895C53.6364 60 54.1614 59.4754 54.1614 58.8281V45.677C54.1614 45.0297 53.6364 44.5051 52.9895 44.5051ZM51.8177 57.6562H29.9004V48.1695H51.8177V57.6562Z" fill="#CD1E19"/>
<path d="M27.7725 13.4977C28.2238 13.6858 28.7594 13.565 29.0881 13.2029C29.414 12.8435 29.4804 12.3121 29.262 11.8809C29.0354 11.4341 28.5264 11.1777 28.0329 11.2588C27.5541 11.3375 27.1687 11.7119 27.0716 12.1866C26.9609 12.7263 27.263 13.2889 27.7725 13.4977Z" fill="#CD1E19"/>
</svg>
