<svg width="11" height="11" viewBox="0 0 11 11" fill="none" xmlns="http://www.w3.org/2000/svg">
<g clip-path="url(#clip0)">
<path d="M1.7501 7.4119C1.59502 7.25683 1.59502 7.01268 1.7501 6.85761C1.89993 6.70777 2.14932 6.70777 2.2988 6.85761L5.1094 9.6682L5.1094 0.393615C5.1094 0.177415 5.28125 -1.54182e-05 5.49745 -1.54277e-05C5.71364 -1.54371e-05 5.89108 0.177415 5.89108 0.393615L5.89108 9.6682L8.69644 6.85761C8.85151 6.70777 9.10124 6.70777 9.25073 6.85761C9.40581 7.01268 9.40581 7.25683 9.25073 7.4119L5.77477 10.8879C5.62493 11.0377 5.37555 11.0377 5.22606 10.8879L1.7501 7.4119Z" fill="#EC1C20"/>
</g>
<defs>
<clipPath id="clip0">
<rect y="11" width="11" height="11" transform="rotate(-90 0 11)" fill="white"/>
</clipPath>
</defs>
</svg>
