<svg width="14" height="14" viewBox="0 0 14 14" fill="none" xmlns="http://www.w3.org/2000/svg">
<path d="M7.04656 3.06812C6.05991 3.06812 5.25684 3.87119 5.25684 4.85784C5.25684 5.84449 6.05991 6.64757 7.04656 6.64757C8.03321 6.64757 8.83629 5.84449 8.83629 4.85784C8.83629 3.87119 8.03321 3.06812 7.04656 3.06812ZM7.04656 6.13622C6.34167 6.13622 5.76819 5.56274 5.76819 4.85784C5.76819 4.15294 6.34167 3.57947 7.04656 3.57947C7.75146 3.57947 8.32494 4.15294 8.32494 4.85784C8.32494 5.56274 7.75146 6.13622 7.04656 6.13622Z" fill="#EC1C20"/>
<path d="M10.4678 1.43613C9.54175 0.510072 8.31042 0 7.00085 0C5.69103 0 4.45995 0.510072 3.5339 1.43613C1.82011 3.14966 1.60713 6.37372 3.07266 8.32708L7.00085 14L10.9232 8.33501C12.3946 6.37372 12.1816 3.14966 10.4678 1.43613ZM10.5085 8.03612L7.00085 13.1016L3.48762 8.0282C2.15837 6.25586 2.34884 3.34423 3.89568 1.79765C4.72509 0.968242 5.82781 0.51135 7.00085 0.51135C8.17389 0.51135 9.27662 0.968242 10.1063 1.79765C11.6531 3.34423 11.8436 6.25586 10.5085 8.03612Z" fill="#EC1C20"/>
</svg>
