<svg width="176" height="46" viewBox="0 0 176 46" fill="none" xmlns="http://www.w3.org/2000/svg">
<g clip-path="url(#clip0_1265_84)">
<path fill-rule="evenodd" clip-rule="evenodd" d="M36.6686 0.27381C43.2796 2.70767 43.6616 10.6853 39.6362 15.4179C37.4031 18.041 34.6412 19.6636 31.2623 20.6642C28.6178 21.4484 25.6209 21.3673 23.0352 21.0157C18.334 20.3938 13.9267 19.0146 11.3998 14.7959C11.106 14.3091 10.9885 13.7682 10.8122 13.2274C10.9003 13.1462 11.0179 13.0651 11.106 12.984C11.9287 13.3356 12.722 13.7142 13.5447 14.0116C17.9227 15.499 22.1537 16.0128 26.7961 15.4719C28.089 15.3097 29.705 14.7418 30.8215 14.0657C31.5561 13.633 31.6442 13.0922 31.2916 12.7136C30.9684 12.5243 30.4395 12.6054 29.8519 12.8217C28.6178 13.3085 27.2369 13.9575 25.9441 14.0657C20.5671 14.4443 15.3664 13.6601 10.5477 11.1721C9.28431 10.5231 9.34307 10.3067 10.5477 9.60362C12.9571 8.19739 15.719 8.33261 18.3634 8.14331C21.331 7.92696 24.328 8.14331 27.2956 8.08922C28.4122 8.06218 29.5287 7.89992 30.6452 7.71062C31.7324 7.52132 32.085 6.84524 31.7911 5.89874C31.3798 4.70885 30.8509 3.24853 30.7921 2.4102C30.7921 2.16682 30.2633 1.62596 30.1751 1.40961C30.4102 1.24736 31.2623 1.30144 31.4973 1.16623C32.32 0.652411 32.8783 0.219724 33.7304 0.0845092C35.317 -0.158877 36.4335 0.192681 36.6686 0.27381ZM36.1103 2.7888C36.1103 2.19386 35.6696 1.78821 35.0526 1.76117C34.5237 1.76117 33.936 2.0316 33.9067 2.73472C33.9067 3.43783 34.4649 3.70826 34.9644 3.73531C35.4639 3.76235 36.1103 3.51896 36.1103 2.7888Z" fill="#EC1C20"/>
<path fill-rule="evenodd" clip-rule="evenodd" d="M0.175593 9.7659C0.322504 9.71182 0.52818 9.68477 0.557563 9.60365C1.20397 7.65656 2.76123 8.17037 4.28911 8.30559C5.93452 8.4408 7.57993 8.33263 9.2841 8.65715C8.66708 9.03575 7.75622 9.27913 7.55055 9.79295C7.34487 10.2527 7.90314 10.9828 8.19696 11.713C5.55255 11.8212 2.87876 11.1451 0.14621 10.6042C-0.11823 10.1986 0.0286813 9.81999 0.175593 9.7659Z" fill="#EC1C20"/>
<path d="M45.3066 18.2842H45.6298C46.0412 18.2842 46.2469 18.2031 46.3644 17.8245L51.3594 5.38477H53.7394L58.7343 17.8245C58.8813 18.2031 59.0869 18.2842 59.4689 18.2842H59.7921V20.0691H58.5581C57.4415 20.0691 57.0596 19.8257 56.6776 18.8521L55.4729 15.8233H49.6258L48.4212 18.8521C48.0392 19.7987 47.6866 20.0691 46.5407 20.0691H45.3066V18.2842ZM54.944 14.1196L53.1811 9.63051C52.9167 8.8733 52.5347 7.57524 52.5347 7.57524H52.4759C52.4759 7.57524 52.1233 8.8733 51.8589 9.63051L50.1253 14.1196H54.944Z" fill="#2A2A2A"/>
<path d="M63.4355 18.2842C66.1387 17.9597 67.079 14.7687 67.079 8.79217V7.1696H65.5805V5.38477H74.9828C76.0112 5.38477 76.4225 5.79041 76.4225 6.70987L76.3932 20.0961H75.5998C74.5715 20.0961 74.1601 19.6905 74.1601 18.771V7.62933C74.1601 7.30481 73.9838 7.1696 73.6606 7.1696H69.2239V8.81922C69.2239 15.8504 67.8429 19.9609 63.4355 20.1772V18.2842Z" fill="#2A2A2A"/>
<path d="M82.2695 5.38477H90.2027C91.2311 5.38477 91.6425 5.79041 91.6425 6.70987V8.57583H89.5563V7.62933C89.5563 7.30481 89.38 7.1696 89.0568 7.1696H84.5026V11.7669H90.1146V13.5517H84.5026V17.8245C84.5026 18.122 84.6789 18.2842 85.0021 18.2842H89.6739C89.9971 18.2842 90.1733 18.122 90.1733 17.8245V16.878H92.2301V18.744C92.2301 19.6905 91.7894 20.0691 90.7904 20.0691H83.7386C82.7103 20.0691 82.2695 19.6634 82.2695 18.744V5.38477Z" fill="#2A2A2A"/>
<path d="M95.756 18.2842H96.4906C96.8138 18.2842 96.9607 18.122 96.9901 17.8245L98.0772 5.38477H100.398L104.159 13.1461C104.541 13.9574 104.953 15.0121 104.953 15.0121H105.011C105.011 15.0121 105.423 13.9574 105.805 13.1461L109.566 5.38477H111.887L112.974 17.8245C113.003 18.122 113.15 18.2842 113.473 18.2842H114.237V20.0691H112.21C111.182 20.0691 110.829 19.6634 110.741 18.744L110.095 10.9827C110.006 10.1173 110.036 8.81922 110.036 8.81922H109.977C109.977 8.81922 109.507 10.1984 109.125 10.9827L105.893 17.4459H103.983L100.78 10.9827C100.398 10.2255 99.9283 8.79218 99.9283 8.79218H99.8695C99.8695 8.79218 99.8989 10.1173 99.8108 10.9827L99.1644 18.744C99.1056 19.6905 98.7236 20.0691 97.7246 20.0691H95.6973V18.2842H95.756Z" fill="#2A2A2A"/>
<path d="M115.678 12.7405H124.639V15.0662H115.678V12.7405Z" fill="#2A2A2A"/>
<path d="M132.572 7.98104H126.843V7.16976C126.843 6.22325 127.195 5.92578 128.194 5.92578H139.183C140.212 5.92578 140.535 6.2503 140.535 7.16976V7.98104H134.805V20.0692H132.543V7.98104H132.572Z" fill="#2A2A2A"/>
<path d="M147.763 17.7975C148.203 18.149 148.791 18.4465 149.437 18.4465C150.407 18.4465 150.848 17.8516 151.259 16.7969L146.293 7.62933C146.117 7.30481 145.941 7.1696 145.559 7.1696H145.118V5.38477H146.499C147.557 5.38477 147.88 5.68224 148.321 6.6017L151.553 12.9568C152.023 13.8762 152.376 14.7687 152.376 14.7687H152.434C152.434 14.7687 152.699 13.9844 153.11 12.9568L155.608 6.6017C155.99 5.62815 156.342 5.38477 157.488 5.38477H158.722V7.1696H158.37C157.958 7.1696 157.753 7.25073 157.606 7.60229L153.257 17.7163C152.699 19.0414 151.7 20.3125 149.731 20.3125C148.291 20.3125 147.057 19.6093 146.734 19.3119L147.763 17.7975Z" fill="#2A2A2A"/>
<path d="M165.127 7.1696H163.658V5.38477H170.681C173.619 5.38477 175.705 7.19664 175.705 9.98207C175.705 12.7675 173.619 14.6335 170.681 14.6335H167.39V20.0691H165.127V7.1696ZM170.328 12.8486C172.238 12.8486 173.384 11.7399 173.384 9.98207C173.384 8.22427 172.238 7.1696 170.357 7.1696H167.39V12.8486H170.328Z" fill="#2A2A2A"/>
<path d="M50.5527 38.2817C50.5527 39.1177 50.4121 39.8481 50.1309 40.4731C49.8496 41.0942 49.4512 41.5688 48.9355 41.897C48.4199 42.2251 47.8184 42.3892 47.1309 42.3892C46.459 42.3892 45.8633 42.2251 45.3438 41.897C44.8242 41.5649 44.4199 41.0942 44.1309 40.4849C43.8457 39.8716 43.6992 39.1626 43.6914 38.3579V37.7427C43.6914 36.9224 43.834 36.1978 44.1191 35.5688C44.4043 34.9399 44.8066 34.4595 45.3262 34.1274C45.8496 33.7915 46.4473 33.6235 47.1191 33.6235C47.8027 33.6235 48.4043 33.7896 48.9238 34.1216C49.4473 34.4497 49.8496 34.9282 50.1309 35.5571C50.4121 36.1821 50.5527 36.9106 50.5527 37.7427V38.2817ZM49.4336 37.731C49.4336 36.7192 49.2305 35.9438 48.8242 35.4048C48.418 34.8618 47.8496 34.5903 47.1191 34.5903C46.4082 34.5903 45.8477 34.8618 45.4375 35.4048C45.0312 35.9438 44.8223 36.6938 44.8105 37.6548V38.2817C44.8105 39.2622 45.0156 40.0337 45.4258 40.5962C45.8398 41.1548 46.4082 41.4341 47.1309 41.4341C47.8574 41.4341 48.4199 41.1704 48.8184 40.6431C49.2168 40.1118 49.4219 39.3521 49.4336 38.3638V37.731ZM56.7812 36.811H54.6543V42.272H53.5703V36.811H51.4844V35.9321H56.7812V36.811ZM57.2793 41.3872L57.6543 40.9243C58.0762 40.3774 58.3164 39.5571 58.375 38.4634L58.4746 35.9321H62.5586V41.3872H63.373V44.1353H62.2891V42.272H57.8652V44.1353H56.7812L56.7871 41.3872H57.2793ZM58.5625 41.3872H61.4746V36.9341H59.5234L59.459 38.4458C59.3926 39.7075 59.0938 40.688 58.5625 41.3872ZM65.7578 38.1177H67.4043C68.123 38.1255 68.6914 38.313 69.1094 38.6802C69.5273 39.0474 69.7363 39.5454 69.7363 40.1743C69.7363 40.8071 69.5215 41.3149 69.0918 41.6978C68.6621 42.0806 68.084 42.272 67.3574 42.272H64.6738V35.9321H65.7578V38.1177ZM71.998 42.272H70.9082V35.9321H71.998V42.272ZM65.7578 39.0024V41.3872H67.3691C67.7754 41.3872 68.0898 41.2837 68.3125 41.0767C68.5352 40.8657 68.6465 40.5786 68.6465 40.2153C68.6465 39.8638 68.5371 39.5767 68.3184 39.354C68.1035 39.1274 67.8008 39.0103 67.4102 39.0024H65.7578ZM76.0176 38.2466L77.4238 35.9321H78.6895L76.6152 39.0669L78.7539 42.272H77.5L76.0352 39.8989L74.5703 42.272H73.3105L75.4492 39.0669L73.375 35.9321H74.6289L76.0176 38.2466ZM82.9199 42.272V35.9321H85.3926C86.2363 35.9321 86.8828 36.0806 87.332 36.3774C87.7852 36.6704 88.0117 37.1021 88.0117 37.6724C88.0117 37.9653 87.9238 38.231 87.748 38.4692C87.5723 38.7036 87.3125 38.8833 86.9688 39.0083C87.3516 39.0981 87.6582 39.2739 87.8887 39.5356C88.123 39.7974 88.2402 40.1099 88.2402 40.4731C88.2402 41.0552 88.0254 41.5005 87.5957 41.8091C87.1699 42.1177 86.5664 42.272 85.7852 42.272H82.9199ZM84.0039 39.4888V41.3989H85.7969C86.25 41.3989 86.5879 41.3149 86.8105 41.147C87.0371 40.979 87.1504 40.7427 87.1504 40.438C87.1504 39.8052 86.6855 39.4888 85.7559 39.4888H84.0039ZM84.0039 38.6216H85.4043C86.4199 38.6216 86.9277 38.3247 86.9277 37.731C86.9277 37.1372 86.4473 36.8306 85.4863 36.811H84.0039V38.6216ZM93.9473 38.9321V42.272H92.8223V33.7407H95.9688C96.9023 33.7407 97.6328 33.979 98.1602 34.4556C98.6914 34.9321 98.957 35.563 98.957 36.3481C98.957 37.1763 98.6973 37.8149 98.1777 38.2642C97.6621 38.7095 96.9219 38.9321 95.957 38.9321H93.9473ZM93.9473 38.0122H95.9688C96.5703 38.0122 97.0312 37.8716 97.3516 37.5903C97.6719 37.3052 97.832 36.895 97.832 36.3599C97.832 35.8521 97.6719 35.4458 97.3516 35.1411C97.0312 34.8364 96.5918 34.6782 96.0332 34.6665H93.9473V38.0122ZM99.8535 39.0435C99.8535 38.4224 99.9746 37.8638 100.217 37.3677C100.463 36.8716 100.803 36.4888 101.236 36.2192C101.674 35.9497 102.172 35.8149 102.73 35.8149C103.594 35.8149 104.291 36.1138 104.822 36.7114C105.357 37.3091 105.625 38.104 105.625 39.0962V39.1724C105.625 39.7896 105.506 40.3442 105.268 40.8364C105.033 41.3247 104.695 41.7056 104.254 41.979C103.816 42.2524 103.312 42.3892 102.742 42.3892C101.883 42.3892 101.186 42.0903 100.65 41.4927C100.119 40.895 99.8535 40.104 99.8535 39.1196V39.0435ZM100.943 39.1724C100.943 39.8755 101.105 40.4399 101.43 40.8657C101.758 41.2915 102.195 41.5044 102.742 41.5044C103.293 41.5044 103.73 41.2896 104.055 40.8599C104.379 40.4263 104.541 39.8208 104.541 39.0435C104.541 38.3481 104.375 37.7856 104.043 37.356C103.715 36.9224 103.277 36.7056 102.73 36.7056C102.195 36.7056 101.764 36.9185 101.436 37.3442C101.107 37.77 100.943 38.3794 100.943 39.1724ZM109.527 41.5044C109.914 41.5044 110.252 41.3872 110.541 41.1528C110.83 40.9185 110.99 40.6255 111.021 40.2739H112.047C112.027 40.6372 111.902 40.9829 111.672 41.311C111.441 41.6392 111.133 41.9009 110.746 42.0962C110.363 42.2915 109.957 42.3892 109.527 42.3892C108.664 42.3892 107.977 42.1021 107.465 41.5278C106.957 40.9497 106.703 40.1606 106.703 39.1606V38.979C106.703 38.3618 106.816 37.813 107.043 37.3325C107.27 36.8521 107.594 36.479 108.016 36.2134C108.441 35.9478 108.943 35.8149 109.521 35.8149C110.232 35.8149 110.822 36.0278 111.291 36.4536C111.764 36.8794 112.016 37.4321 112.047 38.1118H111.021C110.99 37.7017 110.834 37.3657 110.553 37.104C110.275 36.8384 109.932 36.7056 109.521 36.7056C108.971 36.7056 108.543 36.9048 108.238 37.3032C107.938 37.6978 107.787 38.27 107.787 39.02V39.2251C107.787 39.9556 107.938 40.5181 108.238 40.9126C108.539 41.3071 108.969 41.5044 109.527 41.5044ZM115.809 41.5044C116.195 41.5044 116.533 41.3872 116.822 41.1528C117.111 40.9185 117.271 40.6255 117.303 40.2739H118.328C118.309 40.6372 118.184 40.9829 117.953 41.311C117.723 41.6392 117.414 41.9009 117.027 42.0962C116.645 42.2915 116.238 42.3892 115.809 42.3892C114.945 42.3892 114.258 42.1021 113.746 41.5278C113.238 40.9497 112.984 40.1606 112.984 39.1606V38.979C112.984 38.3618 113.098 37.813 113.324 37.3325C113.551 36.8521 113.875 36.479 114.297 36.2134C114.723 35.9478 115.225 35.8149 115.803 35.8149C116.514 35.8149 117.104 36.0278 117.572 36.4536C118.045 36.8794 118.297 37.4321 118.328 38.1118H117.303C117.271 37.7017 117.115 37.3657 116.834 37.104C116.557 36.8384 116.213 36.7056 115.803 36.7056C115.252 36.7056 114.824 36.9048 114.52 37.3032C114.219 37.6978 114.068 38.27 114.068 39.02V39.2251C114.068 39.9556 114.219 40.5181 114.52 40.9126C114.82 41.3071 115.25 41.5044 115.809 41.5044ZM123.648 35.9321H124.732V42.272H123.648V37.6489L120.725 42.272H119.641V35.9321H120.725V40.561L123.648 35.9321ZM130.574 35.9321H131.658V42.272H130.574V37.6489L127.65 42.272H126.566V35.9321H127.65V40.561L130.574 35.9321Z" fill="#131313"/>
</g>
<defs>
<clipPath id="clip0_1265_84">
<rect width="176" height="46" fill="white"/>
</clipPath>
</defs>
</svg>
