<svg width="60" height="60" viewBox="0 0 60 60" fill="none"
  xmlns="http://www.w3.org/2000/svg">
  <g clip-path="url(#clip19)">
    <path d="M25.3145 40.5469C25.9617 40.5469 26.4863 40.0222 26.4863 39.375C26.4863 38.7278 25.9617 38.2031 25.3145 38.2031C24.6672 38.2031 24.1426 38.7278 24.1426 39.375C24.1426 40.0222 24.6672 40.5469 25.3145 40.5469Z" fill="#CD1E19"/>
    <path d="M4.68945 15.9375V20.625C4.68945 21.2722 5.2141 21.7969 5.86133 21.7969H39.7285C40.3756 21.7969 40.9004 21.2722 40.9004 20.625V15.9375C40.9004 15.2903 40.3756 14.7656 39.7285 14.7656H5.86133C5.2141 14.7656 4.68945 15.2903 4.68945 15.9375ZM17.1113 17.1094H38.5566V19.4531H17.1113V17.1094ZM7.0332 17.1094H14.7676V19.4531H7.0332V17.1094Z" fill="#CD1E19"/>
    <path d="M5.86133 26.4844H39.7285C40.3756 26.4844 40.9004 25.9597 40.9004 25.3125C40.9004 24.6653 40.3756 24.1406 39.7285 24.1406H5.86133C5.2141 24.1406 4.68945 24.6653 4.68945 25.3125C4.68945 25.9597 5.2141 26.4844 5.86133 26.4844Z" fill="#CD1E19"/>
    <path d="M5.86133 31.1719H39.7285C40.3756 31.1719 40.9004 30.6472 40.9004 30C40.9004 29.3528 40.3756 28.8281 39.7285 28.8281H5.86133C5.2141 28.8281 4.68945 29.3528 4.68945 30C4.68945 30.6472 5.2141 31.1719 5.86133 31.1719Z" fill="#CD1E19"/>
    <path d="M5.86133 35.8594H25.3145C25.9617 35.8594 26.4863 35.3347 26.4863 34.6875C26.4863 34.0403 25.9617 33.5156 25.3145 33.5156H5.86133C5.2141 33.5156 4.68945 34.0403 4.68945 34.6875C4.68945 35.3347 5.2141 35.8594 5.86133 35.8594Z" fill="#CD1E19"/>
    <path d="M5.86133 40.5469H20.627C21.2742 40.5469 21.7988 40.0222 21.7988 39.375C21.7988 38.7278 21.2742 38.2031 20.627 38.2031H5.86133C5.2141 38.2031 4.68945 38.7278 4.68945 39.375C4.68945 40.0222 5.2141 40.5469 5.86133 40.5469Z" fill="#CD1E19"/>
    <path d="M15.9395 49.9219H21.9167C22.4612 52.5932 24.8285 54.6094 27.6582 54.6094C30.8891 54.6094 33.5176 51.9809 33.5176 48.75C33.5176 45.5191 30.8891 42.8906 27.6582 42.8906C24.8286 42.8906 22.4612 44.9068 21.9167 47.5781H15.9395C15.2922 47.5781 14.7676 48.1028 14.7676 48.75C14.7676 49.3972 15.2922 49.9219 15.9395 49.9219ZM27.6582 47.5781H24.3441C24.8279 46.2142 26.1304 45.2344 27.6582 45.2344C29.5967 45.2344 31.1738 46.8115 31.1738 48.75C31.1738 50.6885 29.5967 52.2656 27.6582 52.2656C26.1305 52.2656 24.8279 51.2858 24.3441 49.9219H27.6582C28.3053 49.9219 28.8301 49.3972 28.8301 48.75C28.8301 48.1028 28.3054 47.5781 27.6582 47.5781Z" fill="#CD1E19"/>
    <path d="M39.7285 9.375C40.3756 9.375 40.9004 8.85035 40.9004 8.20312C40.9004 7.5559 40.3756 7.03125 39.7285 7.03125H37.3848C36.7377 7.03125 36.2129 7.5559 36.2129 8.20312C36.2129 8.85035 36.7377 9.375 37.3848 9.375H39.7285Z" fill="#CD1E19"/>
    <path d="M32.6973 9.375C33.3444 9.375 33.8691 8.85035 33.8691 8.20312C33.8691 7.5559 33.3444 7.03125 32.6973 7.03125H30.3535C29.7064 7.03125 29.1816 7.5559 29.1816 8.20312C29.1816 8.85035 29.7064 9.375 30.3535 9.375H32.6973Z" fill="#CD1E19"/>
    <path d="M25.666 9.375C26.3132 9.375 26.8379 8.85035 26.8379 8.20312C26.8379 7.5559 26.3132 7.03125 25.666 7.03125H23.3223C22.675 7.03125 22.1504 7.5559 22.1504 8.20312C22.1504 8.85035 22.675 9.375 23.3223 9.375H25.666Z" fill="#CD1E19"/>
    <path d="M22.9707 60C23.6179 60 24.1426 59.4753 24.1426 58.8281C24.1426 58.1809 23.6179 57.6562 22.9707 57.6562C22.3235 57.6562 21.7988 58.1809 21.7988 58.8281C21.7988 59.4753 22.3235 60 22.9707 60Z" fill="#CD1E19"/>
    <path d="M1.17383 60H17.6973C18.3445 60 18.8691 59.4754 18.8691 58.8281C18.8691 58.1809 18.3445 57.6562 17.6973 57.6562H2.3457V11.7188H10.5488C11.1961 11.7188 11.7207 11.1941 11.7207 10.5469V2.34375H43.2441V35.467C42.7126 36.096 42.2162 36.6482 41.7867 37.0888L39.3023 34.6044C37.013 32.3136 33.3055 32.3126 31.0154 34.6042L29.3584 36.2612C28.9007 36.7188 28.9007 37.4609 29.3584 37.9185L43.244 51.8041V57.6562H28.244C27.5968 57.6562 27.0721 58.1809 27.0721 58.8281C27.0721 59.4754 27.5968 60 28.244 60H44.4159C45.063 60 45.5878 59.4754 45.5878 58.8281V54.1479L45.931 54.4911C46.3886 54.9484 47.1308 54.9487 47.5884 54.4911L49.2454 52.8341C51.535 50.5445 51.5355 46.8375 49.2454 44.5475L46.7614 42.0634C48.9843 39.8974 53.874 36.2997 56.4431 35.1807C60.0492 33.611 61.3504 28.708 58.2737 25.6313C55.2201 22.5762 50.3389 23.8175 48.7398 27.4339C48.14 28.7893 46.8975 30.695 45.5879 32.4809V1.17188C45.5879 0.524648 45.0631 0 44.416 0H10.5488C10.2293 0 9.92891 0.134766 9.7202 0.343242L0.345195 9.71824C0.133203 9.92977 0.00195312 10.2288 0.00195312 10.5469V58.8281C0.00195312 59.4754 0.526602 60 1.17383 60ZM47.588 46.2048C48.9618 47.5785 48.9621 49.8028 47.588 51.1768L46.7598 52.0052L31.8444 37.0898L32.673 36.2612C34.0467 34.8868 36.2703 34.8861 37.6448 36.2614L47.588 46.2048ZM45.3345 36.6214C47.3654 34.1721 49.8688 30.6745 50.8831 28.3821C51.794 26.3223 54.6889 25.3602 56.6163 27.2884C58.5445 29.2166 57.5649 32.1363 55.5075 33.0319C52.5915 34.302 47.5162 38.0475 45.104 40.406L43.4441 38.7461C43.9996 38.1776 44.6488 37.4488 45.3345 36.6214ZM9.37695 4.00102V9.375H4.00297L9.37695 4.00102Z" fill="#CD1E19"/>
  </g>
  <defs>
    <clipPath id="clip19">
      <rect width="60" height="60" fill="white"/>
    </clipPath>
  </defs>
</svg>
