<svg width="60" height="60" viewBox="0 0 60 60" fill="none"
  xmlns="http://www.w3.org/2000/svg">
  <g clip-path="url(#clip20)">
    <path d="M59.0909 0C52.8182 0 6.8182 0 0.909141 0C0.363633 0 0 0.363633 0 0.909141V59.091C0 59.6364 0.363633 60 0.909141 60H6.36363C6.90914 60 7.27277 59.6364 7.27277 59.0909V56.9091C16.2728 56.9091 43.1818 56.9091 52.7273 56.9091V59.0909C52.7273 59.6364 53.091 60 53.6365 60H59.091C59.6365 60 60.0001 59.6364 60.0001 59.0909V0.909141C60 0.363633 59.6364 0 59.0909 0ZM5.45449 58.1818H1.81816V1.81816H5.45449V58.1818ZM24.7273 55.1818H11.0909V55.0909V46.6364H14.9091V47.2727C14.9091 47.8182 15.2727 48.1819 15.8182 48.1819H20C20.5455 48.1819 20.9092 47.8182 20.9092 47.2727V46.7273H24.7274V55.1818H24.7273ZM11.0909 44.8181V43.1817H14.9091V44.8181H11.0909ZM16.7272 46.3636V43.2727H19.0909V46.3636H16.7272ZM20.8181 44.9091V43.2727H24.6363V44.9091H20.8181ZM43.8182 55.1818H30.1819V55.0909V46.6364H34.0001V47.2727C34.0001 47.8182 34.3637 48.1819 34.9092 48.1819H39.0911C39.6366 48.1819 40.0002 47.8182 40.0002 47.2727V46.7273H43.8184V55.1818H43.8182ZM30.0909 44.8181V43.1817H33.9091V44.8181H30.0909ZM35.7273 46.3636V43.2727H38.091V46.3636H35.7273ZM39.9091 44.9091V43.2727H43.7273V44.9091H39.9091ZM52.7272 55.0909H45.5454C45.5454 47.4545 45.5454 47 45.5454 42.3636C45.5454 41.8181 45.1818 41.4545 44.6362 41.4545C28.1817 41.4545 43.3635 41.4545 29.2726 41.4545C28.7271 41.4545 28.3635 41.8181 28.3635 42.3636C28.3635 47.1818 28.3635 40.4545 28.3635 55.0909H26.5453C26.5453 47.4545 26.5453 47 26.5453 42.3636C26.5453 41.8181 26.1817 41.4545 25.6362 41.4545C9.18164 41.4545 24.3634 41.4545 10.2725 41.4545C9.72703 41.4545 9.3634 41.8181 9.3634 42.3636C9.3634 47.1818 9.3634 40.4545 9.3634 55.0909H7.27277V39C14.2727 39 46.9091 39 52.7273 39V55.0909H52.7272ZM21.4546 30.1819H25.6364C26.1819 30.1819 26.5455 29.8182 26.5455 29.2727V28.7272H30.3638V37.1817H16.7272V28.7272H20.5454V29.2727C20.5454 29.8181 20.9091 30.1819 21.4546 30.1819ZM22.2728 28.4545V25.3636H24.6364V28.4545H22.2728ZM26.4545 27V25.3636H30.2727V27H26.4545ZM20.4545 26.9091H16.6363V25.2727H20.4545V26.9091ZM39.5455 28.7272V29.2727C39.5455 29.8182 39.9091 30.1819 40.4547 30.1819H44.6365C45.182 30.1819 45.5456 29.8182 45.5456 29.2727V28.7272H49.3638V37.1817H35.7273V28.7272H39.5455ZM35.7273 26.9091V25.2727H39.5455V26.9091H35.7273ZM41.3637 28.4545V25.3636H43.7273V28.4545H41.3637ZM45.5455 27V25.3636H49.3637V27H45.5455ZM52.7272 37.1818H51.0908C51.1818 29.6364 51.1818 29.1818 51.1818 24.4546C51.1818 23.9091 50.8181 23.5454 50.2726 23.5454C45.2385 23.5454 43.5455 23.5454 43.0468 23.5454C42.9053 23.5454 42.8595 23.5454 42.8613 23.5454C42.3393 23.5454 40.5089 23.5454 34.9089 23.5454C34.3634 23.5454 33.9997 23.9091 33.9997 24.4546V27.8182V37.1818H32.1816V27.9091V24.5455C32.1816 23.3637 31.9997 23.6364 15.9088 23.6364C15.3633 23.6364 14.9996 24 14.9996 24.5455C14.9996 29.3637 14.9996 22.6364 14.9996 37.2728H7.27277V21.0909C15.6364 21.0909 43.0909 21.0909 52.7273 21.0909V37.1818H52.7272ZM15.1819 12.2727H19.3637C19.9092 12.2727 20.2729 11.9091 20.2729 11.3636V10.818H24.0911V19.2727H10.4545V10.8182H14.2727V11.3637C14.2727 11.9091 14.6364 12.2727 15.1819 12.2727ZM16 10.5455V7.45453H18.3636V10.5455H16ZM20.1818 9.09094V7.45453H24V9.09094H20.1818ZM14.1818 9H10.3636V7.45453H14.1818V9ZM33.2727 10.8182V11.3637C33.2727 11.9092 33.6363 12.2728 34.1818 12.2728H38.3637C38.9092 12.2728 39.2728 11.9092 39.2728 11.3637V10.8182H43.091V19.2728H29.4545V10.8182H33.2727ZM29.4545 9V7.45453H33.2727V9H29.4545ZM35.0909 10.5455V7.45453H37.4545V10.5455H35.0909ZM39.2727 9.09094V7.45453H43.0909V9.09094H39.2727ZM52.7272 19.2728H44.9091C44.9091 11.6364 44.9091 11.2727 44.9091 6.54551C44.9091 6 44.5454 5.63637 43.9999 5.63637C43.3003 5.63637 42.763 5.63637 42.3551 5.63637C41.496 5.63637 41.2138 5.63637 41.2189 5.63637C39.627 5.63637 36.0516 5.63637 28.6362 5.63637C28.0907 5.63637 27.727 6 27.727 6.54551V9.90914V19.2728H25.9089V9.99996V6.54551C25.9089 6 25.5452 5.63637 24.9997 5.63637C8.54519 5.63637 23.727 5.63637 9.63609 5.63637C9.09059 5.63637 8.72695 6 8.72695 6.54551C8.72695 11.3637 8.72695 4.63641 8.72695 19.2728H7.27277V1.81816H52.7273V19.2728H52.7272ZM58.1818 58.1818H54.5455V1.81816H58.1818V58.1818Z" fill="#CD1E19"/>
  </g>
  <defs>
    <clipPath id="clip20">
      <rect width="60" height="60" fill="white"/>
    </clipPath>
  </defs>
</svg>
