<svg width="10" height="14" viewBox="0 0 10 14" fill="none" xmlns="http://www.w3.org/2000/svg">
<path d="M2.18191 0.626036L2.89924 0.396703C3.57258 0.182036 4.29058 0.529369 4.57924 1.20804L5.15191 2.56004C5.40124 3.1487 5.26324 3.84137 4.80924 4.27204L3.54658 5.4707C3.62391 6.18804 3.86524 6.89404 4.26924 7.5887C4.6531 8.26084 5.16793 8.84912 5.78324 9.3187L7.29991 8.81204C7.87524 8.6207 8.50124 8.84137 8.85324 9.35937L9.67524 10.566C10.0852 11.1687 10.0119 11.9994 9.50324 12.51L8.95791 13.0574C8.41524 13.602 7.63991 13.8 6.92324 13.576C5.23058 13.048 3.67458 11.4807 2.25458 8.87404C0.832576 6.26337 0.330576 4.04737 0.749242 2.2287C0.925242 1.46337 1.46991 0.853369 2.18191 0.626036Z" fill="#EC1C20"/>
</svg>
