<svg width="40" height="40" viewBox="0 0 40 40" fill="none"
  xmlns="http://www.w3.org/2000/svg">
  <g clip-path="url(#clip23)">
    <path d="M37.9999 18H22.0001V1.99988C22.0001 0.896118 21.104 0 19.9999 0C18.8961 0 18 0.896118 18 1.99988V18H1.99988C0.896118 18 0 18.8961 0 19.9999C0 21.104 0.896118 22.0001 1.99988 22.0001H18V37.9999C18 39.104 18.8961 40.0001 19.9999 40.0001C21.104 40.0001 22.0001 39.104 22.0001 37.9999V22.0001H37.9999C39.104 22.0001 40.0001 21.104 40.0001 19.9999C40.0001 18.8961 39.104 18 37.9999 18Z" fill="#CD1E19"/>
  </g>
  <defs>
    <clipPath id="clip23">
      <rect width="40" height="40" fill="white"/>
    </clipPath>
  </defs>
</svg>
