<svg width="60" height="60" viewBox="0 0 60 60" fill="none" xmlns="http://www.w3.org/2000/svg">
<path d="M49.3706 57.1875C45.9872 57.1875 44.1478 55.7644 42.8025 54.7247C41.7319 53.8941 41.1413 53.4375 39.6788 53.4375C38.2181 53.4375 37.6284 53.8941 36.5578 54.7238C35.2153 55.7634 33.3769 57.1875 29.9934 57.1875C26.6091 57.1875 24.7706 55.7634 23.4263 54.7228C22.3556 53.8941 21.765 53.4375 20.3044 53.4375C18.8447 53.4375 18.255 53.8941 17.1844 54.7238C15.8419 55.7634 14.0034 57.1875 10.62 57.1875C7.23656 57.1875 5.39906 55.7634 4.05656 54.7238C2.98688 53.8941 2.39719 53.4375 0.9375 53.4375V55.3125C1.75594 55.3125 1.93219 55.4494 2.90906 56.2059C4.28719 57.2737 6.59625 59.0625 10.62 59.0625C14.6438 59.0625 16.9528 57.2747 18.3337 56.2059C19.3106 55.4494 19.4869 55.3125 20.3044 55.3125C21.1247 55.3125 21.3009 55.4494 22.2797 56.2069C23.6597 57.2747 25.9678 59.0625 29.9934 59.0625C34.0172 59.0625 36.3263 57.2747 37.7072 56.2059C38.6841 55.4494 38.8603 55.3125 39.6788 55.3125C40.5 55.3125 40.6753 55.4494 41.6559 56.2078C43.0369 57.2756 45.3469 59.0625 49.3706 59.0625C53.3944 59.0625 55.7044 57.2756 57.0853 56.2069C58.0659 55.4494 58.2412 55.3125 59.0625 55.3125V53.4375C57.6 53.4375 57.0103 53.8941 55.9378 54.7247C54.5934 55.7644 52.7541 57.1875 49.3706 57.1875Z" fill="#C1262C"/>
<path d="M10.3125 36.5625C8.76187 36.5625 7.5 37.8244 7.5 39.375C7.5 40.9256 8.76187 42.1875 10.3125 42.1875C11.8631 42.1875 13.125 40.9256 13.125 39.375C13.125 37.8244 11.8631 36.5625 10.3125 36.5625ZM10.3125 40.3125C9.795 40.3125 9.375 39.8916 9.375 39.375C9.375 38.8584 9.795 38.4375 10.3125 38.4375C10.83 38.4375 11.25 38.8584 11.25 39.375C11.25 39.8916 10.83 40.3125 10.3125 40.3125Z" fill="#C1262C"/>
<path d="M17.8125 36.5625C16.2619 36.5625 15 37.8244 15 39.375C15 40.9256 16.2619 42.1875 17.8125 42.1875C19.3631 42.1875 20.625 40.9256 20.625 39.375C20.625 37.8244 19.3631 36.5625 17.8125 36.5625ZM17.8125 40.3125C17.295 40.3125 16.875 39.8916 16.875 39.375C16.875 38.8584 17.295 38.4375 17.8125 38.4375C18.33 38.4375 18.75 38.8584 18.75 39.375C18.75 39.8916 18.33 40.3125 17.8125 40.3125Z" fill="#C1262C"/>
<path d="M59.0625 10.4925V8.4375H53.0794L51.2044 4.6875H38.7956L36.9206 8.4375H30.9375V8.89125L12.9975 1.20187C12.5887 1.02656 12.1547 0.9375 11.7084 0.9375C9.90469 0.9375 8.4375 2.40469 8.4375 4.20844V6.18469L11.25 7.69875V10.485C10.1616 10.8731 9.375 11.9044 9.375 13.125C9.375 14.3456 10.1616 15.3769 11.25 15.765V19.6875H7.5C5.94938 19.6875 4.6875 20.9494 4.6875 22.5V29.0625H2.8125V32.8125H0.9375V33.75C0.9375 38.5078 2.52094 43.0744 5.33156 46.7822C4.15312 46.2975 2.72156 45.9375 0.9375 45.9375V47.8125C4.32 47.8125 6.15844 49.2366 7.50094 50.2762C8.57156 51.1059 9.16031 51.5625 10.62 51.5625C12.0797 51.5625 12.6694 51.1059 13.74 50.2762C15.0825 49.2366 16.9219 47.8125 20.3044 47.8125C23.6878 47.8125 25.5272 49.2366 26.8725 50.2772C27.9441 51.1059 28.5347 51.5625 29.9934 51.5625C31.4522 51.5625 32.0428 51.1059 33.1134 50.2762C34.4559 49.2366 36.2953 47.8125 39.6788 47.8125C40.0228 47.8125 40.35 47.8509 40.6809 47.8819C40.1128 48.4256 39.6131 49.0425 39.1762 49.7128C36.7678 49.8413 35.4338 50.8509 34.2609 51.7584C33.0984 52.6594 32.0934 53.4375 29.9934 53.4375C27.8925 53.4375 26.8875 52.6594 25.7231 51.7584C24.4697 50.7881 23.0475 49.6875 20.3044 49.6875C17.5622 49.6875 16.1419 50.7881 14.8884 51.7584C13.7259 52.6594 12.72 53.4375 10.62 53.4375C8.52 53.4375 7.515 52.6594 6.3525 51.7584C5.09906 50.7881 3.67875 49.6875 0.9375 49.6875V51.5625C3.0375 51.5625 4.0425 52.3406 5.205 53.2416C6.45844 54.2119 7.87875 55.3125 10.62 55.3125C13.3622 55.3125 14.7825 54.2119 16.0359 53.2416C17.1994 52.3406 18.2044 51.5625 20.3044 51.5625C22.4063 51.5625 23.4113 52.3406 24.5756 53.2416C25.83 54.2119 27.2512 55.3125 29.9934 55.3125C32.7347 55.3125 34.1559 54.2119 35.4094 53.2416C36.5737 52.3406 37.5778 51.5625 39.6788 51.5625C41.7816 51.5625 42.7866 52.3406 43.9509 53.2416C45.2062 54.2119 46.6275 55.3125 49.3706 55.3125C52.1138 55.3125 53.535 54.2119 54.7903 53.2416C55.9547 52.3406 56.9597 51.5625 59.0625 51.5625V49.6875C58.1128 49.6875 57.3291 49.8253 56.6475 50.0381C56.31 49.4709 55.9388 48.9328 55.5113 48.4509C56.6034 48.0253 57.7744 47.8125 59.0625 47.8125V45.9375C57.4753 45.9375 56.0306 46.2113 54.6806 46.7616C57.5109 43.0275 59.0625 38.4712 59.0625 33.75V32.8125H57.1875V15.18L59.0625 10.4925ZM39.9544 6.5625H50.0456L50.9831 8.4375H39.0169L39.9544 6.5625ZM57.1153 10.3125L55.6153 14.0625H34.3847L32.8847 10.3125H57.1153ZM55.3125 21.5625H34.6875V15.9375H55.3125V21.5625ZM44.0625 27.1875H45.9375V29.0625H44.0625V27.1875ZM47.8125 30.9375V27.1875H48.75C49.2675 27.1875 49.6875 27.6084 49.6875 28.125V32.8125H45.4688L42.6562 36.5625H41.25C40.7325 36.5625 40.3125 36.1416 40.3125 35.625V28.125C40.3125 27.6084 40.7325 27.1875 41.25 27.1875H42.1875V30.9375H47.8125ZM38.4375 35.625C38.4375 36.1416 38.0175 36.5625 37.5 36.5625H30C29.4825 36.5625 29.0625 36.1416 29.0625 35.625V28.125C29.0625 27.6084 29.4825 27.1875 30 27.1875H30.9375V30.9375H36.5625V27.1875H37.5C38.0175 27.1875 38.4375 27.6084 38.4375 28.125V35.625ZM32.8125 27.1875H34.6875V29.0625H32.8125V27.1875ZM10.3125 4.20844C10.3125 3.43875 10.9388 2.8125 11.7084 2.8125C11.8988 2.8125 12.0834 2.85094 12.2587 2.925L31.1484 11.0203L32.8125 15.18V17.1806L10.3125 5.06531V4.20844ZM12.1875 12.1875C12.705 12.1875 13.125 12.6084 13.125 13.125C13.125 13.6416 12.705 14.0625 12.1875 14.0625C11.67 14.0625 11.25 13.6416 11.25 13.125C11.25 12.6084 11.67 12.1875 12.1875 12.1875ZM13.125 15.765C14.2134 15.3769 15 14.3456 15 13.125C15 11.9044 14.2134 10.8731 13.125 10.485V8.70844L32.8125 19.3088V25.3125H30C28.4494 25.3125 27.1875 26.5744 27.1875 28.125V35.625C27.1875 35.955 27.255 36.2681 27.36 36.5625H25.7812L22.9688 32.8125H21.5625V29.0625H19.6875V22.5C19.6875 20.9494 18.4256 19.6875 16.875 19.6875H13.125V15.765ZM10.3125 21.5625H14.0625V23.4375H10.3125V21.5625ZM6.5625 22.5C6.5625 21.9834 6.9825 21.5625 7.5 21.5625H8.4375V25.3125H15.9375V21.5625H16.875C17.3925 21.5625 17.8125 21.9834 17.8125 22.5V29.0625H6.5625V22.5ZM4.6875 30.9375H19.6875V32.8125H4.6875V30.9375ZM45.0984 51.7584C45.0403 51.7134 44.9803 51.6684 44.9222 51.6234C45.7397 50.9812 46.7513 50.625 47.8125 50.625C49.4831 50.625 51.0169 51.5316 51.8494 52.9397C51.1922 53.2444 50.4178 53.4375 49.3706 53.4375C47.2678 53.4375 46.2628 52.6594 45.0984 51.7584ZM53.6428 51.7584C53.5678 51.8166 53.4947 51.8719 53.4216 51.9281C52.2469 49.9931 50.1244 48.75 47.8125 48.75C46.1203 48.75 44.5191 49.3988 43.3059 50.5462C42.7603 50.2547 42.1406 50.0091 41.3981 49.8572C42.9872 47.9963 45.3244 46.875 47.8125 46.875C50.7553 46.875 53.4066 48.3759 54.945 50.8294C54.4706 51.1266 54.045 51.4472 53.6428 51.7584ZM52.6931 46.2431C51.2231 45.4538 49.5647 45 47.8125 45C46.0181 45 44.2856 45.4781 42.7659 46.3331C41.7947 46.0753 40.7616 45.9375 39.6788 45.9375C35.6541 45.9375 33.345 47.7253 31.9641 48.7941C30.9881 49.5506 30.8109 49.6875 29.9934 49.6875C29.1741 49.6875 28.9978 49.5506 28.0191 48.7931C26.6391 47.7253 24.3291 45.9375 20.3044 45.9375C16.2806 45.9375 13.9716 47.7253 12.5906 48.7941C11.7544 49.4419 11.5022 49.6341 10.9341 49.6763C6.10031 46.1578 3.11906 40.6303 2.83406 34.6875H22.0312L24.8438 38.4375H30H37.5H43.5938L46.4062 34.6875H57.1659C56.9644 38.925 55.3894 42.9666 52.6931 46.2431ZM51.5625 32.8125V28.125C51.5625 26.5744 50.3006 25.3125 48.75 25.3125H41.25C40.5272 25.3125 39.8737 25.5947 39.375 26.0438C38.8763 25.5938 38.2228 25.3125 37.5 25.3125H34.6875V23.4375H55.3125V32.8125H51.5625Z" fill="#C1262C"/>
<path d="M47.8125 17.8125H49.6875V19.6875H47.8125V17.8125Z" fill="#C1262C"/>
<path d="M51.5625 17.8125H53.4375V19.6875H51.5625V17.8125Z" fill="#C1262C"/>
<path d="M44.0625 17.8125H45.9375V19.6875H44.0625V17.8125Z" fill="#C1262C"/>
<path d="M36.5625 17.8125H38.4375V19.6875H36.5625V17.8125Z" fill="#C1262C"/>
<path d="M40.3125 17.8125H42.1875V19.6875H40.3125V17.8125Z" fill="#C1262C"/>
<path d="M53.4375 36.5625H55.3125V38.4375H53.4375V36.5625Z" fill="#C1262C"/>
<path d="M49.6875 36.5625H51.5625V38.4375H49.6875V36.5625Z" fill="#C1262C"/>
<path d="M45.9375 36.5625H47.8125V38.4375H45.9375V36.5625Z" fill="#C1262C"/>
</svg>
