<svg width="60" height="60" viewBox="0 0 60 60" fill="none" xmlns="http://www.w3.org/2000/svg">
<path d="M55.3125 17.811H54.375V6.56097C54.3761 6.35794 54.3102 6.16023 54.1875 5.99847L51.375 2.24847C51.2433 2.072 51.0533 1.94787 50.8388 1.8981C50.6243 1.84834 50.3991 1.87614 50.2031 1.97659L46.875 3.63597L43.5469 1.97659C43.417 1.90733 43.2722 1.87109 43.125 1.87109C42.9778 1.87109 42.833 1.90733 42.7031 1.97659L39.375 3.63597L36.0469 1.97659C35.871 1.8865 35.6711 1.8543 35.4758 1.88461C35.2804 1.91491 35.0997 2.00617 34.9594 2.14534L32.1469 4.95784C31.9742 5.13661 31.8769 5.37493 31.875 5.62347V17.811H30.9375C30.6177 17.8135 30.3006 17.8706 30 17.9797V2.81097C30 2.56233 29.9012 2.32387 29.7254 2.14806C29.5496 1.97224 29.3111 1.87347 29.0625 1.87347H8.4375C8.18886 1.87347 7.9504 1.97224 7.77459 2.14806C7.59877 2.32387 7.5 2.56233 7.5 2.81097V21.3641L3.08437 31.236C2.29959 32.5655 1.88222 34.0796 1.875 35.6235V57.186C1.875 57.4346 1.97377 57.6731 2.14959 57.8489C2.3254 58.0247 2.56386 58.1235 2.8125 58.1235H14.0625C14.2112 58.1228 14.3577 58.0867 14.4897 58.0182C14.6218 57.9498 14.7356 57.8509 14.8219 57.7297L15.6187 56.6141C16.8665 54.8657 17.5372 52.7714 17.5372 50.6235C17.5372 48.4755 16.8665 46.3812 15.6187 44.6328L15.2156 44.061L15.8813 43.1235H28.125V55.311C28.1272 56.0562 28.4243 56.7703 28.9512 57.2972C29.4782 57.8242 30.1923 58.1212 30.9375 58.1235H55.3125C56.0577 58.1212 56.7718 57.8242 57.2988 57.2972C57.8257 56.7703 58.1228 56.0562 58.125 55.311V20.6235C58.1228 19.8782 57.8257 19.1642 57.2988 18.6372C56.7718 18.1102 56.0577 17.8132 55.3125 17.811ZM16.4344 39.1203L13.3031 43.5172C13.1889 43.6755 13.1274 43.8658 13.1274 44.061C13.1274 44.2562 13.1889 44.4464 13.3031 44.6047L14.0906 45.7203C15.1148 47.1501 15.6656 48.8647 15.6656 50.6235C15.6656 52.3822 15.1148 54.0968 14.0906 55.5266L13.5844 56.2485H3.75V35.6235C3.75735 34.3647 4.11088 33.1322 4.77188 32.061L7.5 25.9578V37.4985C7.50079 37.6702 7.54876 37.8385 7.63866 37.9848C7.72856 38.1312 7.85695 38.25 8.0098 38.3284C8.16265 38.4068 8.33409 38.4416 8.50541 38.4292C8.67672 38.4167 8.84133 38.3575 8.98125 38.2578L12.825 35.511C13.3236 35.1566 13.9315 34.9903 14.5411 35.0414C15.1506 35.0926 15.7223 35.358 16.1549 35.7905C16.5874 36.223 16.8528 36.7947 16.9039 37.4043C16.9551 38.0138 16.7887 38.6218 16.4344 39.1203ZM18.75 16.8735C19.8625 16.8735 20.9501 17.2034 21.8751 17.8215C22.8001 18.4395 23.5211 19.318 23.9468 20.3459C24.3726 21.3737 24.484 22.5047 24.2669 23.5958C24.0499 24.687 23.5141 25.6893 22.7275 26.4759C21.9408 27.2626 20.9385 27.7983 19.8474 28.0154C18.7562 28.2324 17.6252 28.121 16.5974 27.6953C15.5696 27.2695 14.6911 26.5486 14.073 25.6236C13.4549 24.6985 13.125 23.611 13.125 22.4985C13.125 21.0066 13.7176 19.5759 14.7725 18.521C15.8274 17.4661 17.2582 16.8735 18.75 16.8735ZM13.125 17.5578V11.1547C14.0253 10.9699 14.8516 10.5249 15.5015 9.87501C16.1515 9.2251 16.5964 8.3988 16.7812 7.49847H20.7188C20.9036 8.3988 21.3485 9.2251 21.9985 9.87501C22.6484 10.5249 23.4747 10.9699 24.375 11.1547V17.5578C23.6747 16.7541 22.8103 16.1098 21.84 15.6682C20.8697 15.2267 19.816 14.9983 18.75 14.9983C17.684 14.9983 16.6303 15.2267 15.66 15.6682C14.6897 16.1098 13.8253 16.7541 13.125 17.5578ZM18.75 29.9985C19.8159 29.9975 20.8692 29.7687 21.8393 29.3272C22.8095 28.8858 23.6741 28.242 24.375 27.4391V33.8422C23.4747 34.0271 22.6484 34.472 21.9985 35.1219C21.3485 35.7718 20.9036 36.5981 20.7188 37.4985H18.7875C18.7694 36.8207 18.5966 36.1561 18.2824 35.5553C17.9682 34.9545 17.5209 34.4334 16.9747 34.0318C16.4284 33.6303 15.7976 33.3588 15.1304 33.2382C14.4632 33.1176 13.7773 33.1511 13.125 33.336V27.4391C13.8259 28.242 14.6905 28.8858 15.6607 29.3272C16.6308 29.7687 17.6841 29.9975 18.75 29.9985ZM28.125 41.2485H17.2219L17.9625 40.2078C18.1463 39.9477 18.3004 39.6679 18.4219 39.3735H21.5625C21.8111 39.3735 22.0496 39.2747 22.2254 39.0989C22.4012 38.9231 22.5 38.6846 22.5 38.436C22.5022 37.6907 22.7993 36.9767 23.3262 36.4497C23.8532 35.9227 24.5673 35.6257 25.3125 35.6235C25.5611 35.6235 25.7996 35.5247 25.9754 35.3489C26.1512 35.1731 26.25 34.9346 26.25 34.686V10.311C26.25 10.0623 26.1512 9.82387 25.9754 9.64806C25.7996 9.47224 25.5611 9.37347 25.3125 9.37347C24.5673 9.37124 23.8532 9.07421 23.3262 8.54725C22.7993 8.02028 22.5022 7.30621 22.5 6.56097C22.5 6.31233 22.4012 6.07387 22.2254 5.89806C22.0496 5.72224 21.8111 5.62347 21.5625 5.62347H15.9375C15.6889 5.62347 15.4504 5.72224 15.2746 5.89806C15.0988 6.07387 15 6.31233 15 6.56097C14.9978 7.30621 14.7007 8.02028 14.1738 8.54725C13.6468 9.07421 12.9327 9.37124 12.1875 9.37347C11.9389 9.37347 11.7004 9.47224 11.5246 9.64806C11.3488 9.82387 11.25 10.0623 11.25 10.311V34.3391L9.375 35.6797V3.74847H28.125V41.2485ZM33.75 6.00784L35.8125 3.95472L38.9531 5.52034C39.083 5.58961 39.2278 5.62584 39.375 5.62584C39.5222 5.62584 39.667 5.58961 39.7969 5.52034L43.125 3.86097L46.4531 5.52034C46.583 5.58961 46.7278 5.62584 46.875 5.62584C47.0222 5.62584 47.167 5.58961 47.2969 5.52034L50.3438 4.00159L52.5 6.87034V20.6235H33.75V6.00784ZM56.25 55.311C56.25 55.5596 56.1512 55.7981 55.9754 55.9739C55.7996 56.1497 55.5611 56.2485 55.3125 56.2485H30.9375C30.6889 56.2485 30.4504 56.1497 30.2746 55.9739C30.0988 55.7981 30 55.5596 30 55.311V20.6235C30 20.3748 30.0988 20.1364 30.2746 19.9606C30.4504 19.7847 30.6889 19.686 30.9375 19.686H31.875V21.561C31.875 21.8096 31.9738 22.0481 32.1496 22.2239C32.3254 22.3997 32.5639 22.4985 32.8125 22.4985H53.4375C53.6861 22.4985 53.9246 22.3997 54.1004 22.2239C54.2762 22.0481 54.375 21.8096 54.375 21.561V19.686H55.3125C55.5611 19.686 55.7996 19.7847 55.9754 19.9606C56.1512 20.1364 56.25 20.3748 56.25 20.6235V55.311Z" fill="#CD1E19"/>
<path d="M35.625 8.4375H50.625V10.3125H35.625V8.4375Z" fill="#CD1E19"/>
<path d="M35.625 12.1875H50.625V14.0625H35.625V12.1875Z" fill="#CD1E19"/>
<path d="M43.125 15.9375H50.625V17.8125H43.125V15.9375Z" fill="#CD1E19"/>
<path d="M37.5 32.8125H33.75C33.5014 32.8125 33.2629 32.9113 33.0871 33.0871C32.9113 33.2629 32.8125 33.5014 32.8125 33.75V37.5C32.8125 37.7486 32.9113 37.9871 33.0871 38.1629C33.2629 38.3387 33.5014 38.4375 33.75 38.4375H37.5C37.7486 38.4375 37.9871 38.3387 38.1629 38.1629C38.3387 37.9871 38.4375 37.7486 38.4375 37.5V33.75C38.4375 33.5014 38.3387 33.2629 38.1629 33.0871C37.9871 32.9113 37.7486 32.8125 37.5 32.8125ZM36.5625 36.5625H34.6875V34.6875H36.5625V36.5625Z" fill="#CD1E19"/>
<path d="M37.5 40.3125H33.75C33.5014 40.3125 33.2629 40.4113 33.0871 40.5871C32.9113 40.7629 32.8125 41.0014 32.8125 41.25V45C32.8125 45.2486 32.9113 45.4871 33.0871 45.6629C33.2629 45.8387 33.5014 45.9375 33.75 45.9375H37.5C37.7486 45.9375 37.9871 45.8387 38.1629 45.6629C38.3387 45.4871 38.4375 45.2486 38.4375 45V41.25C38.4375 41.0014 38.3387 40.7629 38.1629 40.5871C37.9871 40.4113 37.7486 40.3125 37.5 40.3125ZM36.5625 44.0625H34.6875V42.1875H36.5625V44.0625Z" fill="#CD1E19"/>
<path d="M37.5 47.8125H33.75C33.5014 47.8125 33.2629 47.9113 33.0871 48.0871C32.9113 48.2629 32.8125 48.5014 32.8125 48.75V52.5C32.8125 52.7486 32.9113 52.9871 33.0871 53.1629C33.2629 53.3387 33.5014 53.4375 33.75 53.4375H37.5C37.7486 53.4375 37.9871 53.3387 38.1629 53.1629C38.3387 52.9871 38.4375 52.7486 38.4375 52.5V48.75C38.4375 48.5014 38.3387 48.2629 38.1629 48.0871C37.9871 47.9113 37.7486 47.8125 37.5 47.8125ZM36.5625 51.5625H34.6875V49.6875H36.5625V51.5625Z" fill="#CD1E19"/>
<path d="M45 32.8125H41.25C41.0014 32.8125 40.7629 32.9113 40.5871 33.0871C40.4113 33.2629 40.3125 33.5014 40.3125 33.75V37.5C40.3125 37.7486 40.4113 37.9871 40.5871 38.1629C40.7629 38.3387 41.0014 38.4375 41.25 38.4375H45C45.2486 38.4375 45.4871 38.3387 45.6629 38.1629C45.8387 37.9871 45.9375 37.7486 45.9375 37.5V33.75C45.9375 33.5014 45.8387 33.2629 45.6629 33.0871C45.4871 32.9113 45.2486 32.8125 45 32.8125ZM44.0625 36.5625H42.1875V34.6875H44.0625V36.5625Z" fill="#CD1E19"/>
<path d="M45 40.3125H41.25C41.0014 40.3125 40.7629 40.4113 40.5871 40.5871C40.4113 40.7629 40.3125 41.0014 40.3125 41.25V45C40.3125 45.2486 40.4113 45.4871 40.5871 45.6629C40.7629 45.8387 41.0014 45.9375 41.25 45.9375H45C45.2486 45.9375 45.4871 45.8387 45.6629 45.6629C45.8387 45.4871 45.9375 45.2486 45.9375 45V41.25C45.9375 41.0014 45.8387 40.7629 45.6629 40.5871C45.4871 40.4113 45.2486 40.3125 45 40.3125ZM44.0625 44.0625H42.1875V42.1875H44.0625V44.0625Z" fill="#CD1E19"/>
<path d="M45 47.8125H41.25C41.0014 47.8125 40.7629 47.9113 40.5871 48.0871C40.4113 48.2629 40.3125 48.5014 40.3125 48.75V52.5C40.3125 52.7486 40.4113 52.9871 40.5871 53.1629C40.7629 53.3387 41.0014 53.4375 41.25 53.4375H45C45.2486 53.4375 45.4871 53.3387 45.6629 53.1629C45.8387 52.9871 45.9375 52.7486 45.9375 52.5V48.75C45.9375 48.5014 45.8387 48.2629 45.6629 48.0871C45.4871 47.9113 45.2486 47.8125 45 47.8125ZM44.0625 51.5625H42.1875V49.6875H44.0625V51.5625Z" fill="#CD1E19"/>
<path d="M52.5 32.8125H48.75C48.5014 32.8125 48.2629 32.9113 48.0871 33.0871C47.9113 33.2629 47.8125 33.5014 47.8125 33.75V37.5C47.8125 37.7486 47.9113 37.9871 48.0871 38.1629C48.2629 38.3387 48.5014 38.4375 48.75 38.4375H52.5C52.7486 38.4375 52.9871 38.3387 53.1629 38.1629C53.3387 37.9871 53.4375 37.7486 53.4375 37.5V33.75C53.4375 33.5014 53.3387 33.2629 53.1629 33.0871C52.9871 32.9113 52.7486 32.8125 52.5 32.8125ZM51.5625 36.5625H49.6875V34.6875H51.5625V36.5625Z" fill="#CD1E19"/>
<path d="M52.5 40.3125H48.75C48.5014 40.3125 48.2629 40.4113 48.0871 40.5871C47.9113 40.7629 47.8125 41.0014 47.8125 41.25V45C47.8125 45.2486 47.9113 45.4871 48.0871 45.6629C48.2629 45.8387 48.5014 45.9375 48.75 45.9375H52.5C52.7486 45.9375 52.9871 45.8387 53.1629 45.6629C53.3387 45.4871 53.4375 45.2486 53.4375 45V41.25C53.4375 41.0014 53.3387 40.7629 53.1629 40.5871C52.9871 40.4113 52.7486 40.3125 52.5 40.3125ZM51.5625 44.0625H49.6875V42.1875H51.5625V44.0625Z" fill="#CD1E19"/>
<path d="M52.5 47.8125H48.75C48.5014 47.8125 48.2629 47.9113 48.0871 48.0871C47.9113 48.2629 47.8125 48.5014 47.8125 48.75V52.5C47.8125 52.7486 47.9113 52.9871 48.0871 53.1629C48.2629 53.3387 48.5014 53.4375 48.75 53.4375H52.5C52.7486 53.4375 52.9871 53.3387 53.1629 53.1629C53.3387 52.9871 53.4375 52.7486 53.4375 52.5V48.75C53.4375 48.5014 53.3387 48.2629 53.1629 48.0871C52.9871 47.9113 52.7486 47.8125 52.5 47.8125ZM51.5625 51.5625H49.6875V49.6875H51.5625V51.5625Z" fill="#CD1E19"/>
<path d="M52.5 24.375H33.75C33.5014 24.375 33.2629 24.4738 33.0871 24.6496C32.9113 24.8254 32.8125 25.0639 32.8125 25.3125V30.9375C32.8125 31.1861 32.9113 31.4246 33.0871 31.6004C33.2629 31.7762 33.5014 31.875 33.75 31.875H52.5C52.7486 31.875 52.9871 31.7762 53.1629 31.6004C53.3387 31.4246 53.4375 31.1861 53.4375 30.9375V25.3125C53.4375 25.0639 53.3387 24.8254 53.1629 24.6496C52.9871 24.4738 52.7486 24.375 52.5 24.375ZM51.5625 30H34.6875V26.25H51.5625V30Z" fill="#CD1E19"/>
<path d="M35.625 15.9375H37.5V17.8125H35.625V15.9375Z" fill="#CD1E19"/>
<path d="M39.375 15.9375H41.25V17.8125H39.375V15.9375Z" fill="#CD1E19"/>
</svg>
