<svg width="60" height="60" viewBox="0 0 60 60" fill="none" xmlns="http://www.w3.org/2000/svg">
<path d="M58.8281 41.7188C59.4753 41.7188 60 41.1941 60 40.5469C60 39.8997 59.4753 39.375 58.8281 39.375C58.1809 39.375 57.6562 39.8997 57.6562 40.5469C57.6562 41.1941 58.1809 41.7188 58.8281 41.7188Z" fill="#CD1E19"/>
<path d="M58.8281 9.19922H25.7812V3.33984C25.7812 2.69273 25.2565 2.16797 24.6094 2.16797H5.85938C5.21227 2.16797 4.6875 2.69273 4.6875 3.33984V9.19922H1.17188C0.524766 9.19922 0 9.72398 0 10.3711V56.6602C0 57.3073 0.524766 57.832 1.17188 57.832H58.8281C59.1363 57.832 59.4387 57.7066 59.6565 57.4886C59.8745 57.2707 60 56.9684 60 56.6602V45.8203C60 45.1746 59.4738 44.6484 58.8281 44.6484C58.1824 44.6484 57.6562 45.1746 57.6562 45.8203V55.4883H37.7344V18.5742H57.6562V35.2734C57.6562 35.9191 58.1824 36.4453 58.8281 36.4453C59.4738 36.4453 60 35.9191 60 35.2734V10.3711C60 9.72398 59.4752 9.19922 58.8281 9.19922ZM7.03125 4.51172H23.4375V16.2305H7.03125V4.51172ZM2.34375 53.1445H35.3906V55.4883H2.34375V53.1445ZM36.5625 16.2305C36.253 16.2305 35.952 16.3557 35.734 16.5738C35.516 16.7919 35.3906 17.0941 35.3906 17.4023V50.8008H2.34375V11.543H4.6875V17.4023C4.6875 18.0495 5.21227 18.5742 5.85938 18.5742H24.6094C25.2565 18.5742 25.7812 18.0495 25.7812 17.4023V11.543H57.6562V16.2305H36.5625Z" fill="#CD1E19"/>
<path d="M12.1289 22.9688H10.3711C9.72398 22.9688 9.19922 23.4935 9.19922 24.1406C9.19922 24.7877 9.72398 25.3125 10.3711 25.3125H10.957V35.8594C10.957 36.5065 11.4818 37.0312 12.1289 37.0312C12.776 37.0312 13.3008 36.5065 13.3008 35.8594V24.1406C13.3008 23.4935 12.776 22.9688 12.1289 22.9688Z" fill="#CD1E19"/>
<path d="M23.1421 28.5945C23.5848 28.0063 23.8477 27.2755 23.8477 26.4844C23.8477 24.5459 22.2705 22.9688 20.332 22.9688C18.3935 22.9688 16.8164 24.5459 16.8164 26.4844C16.8164 27.2755 17.0793 28.0063 17.522 28.5945C16.3828 29.4504 15.6445 30.8125 15.6445 32.3438C15.6445 34.9284 17.7473 37.0312 20.332 37.0312C22.9167 37.0312 25.0195 34.9284 25.0195 32.3438C25.0195 30.8125 24.2812 29.4504 23.1421 28.5945ZM19.1602 26.4844C19.1602 25.8382 19.6859 25.3125 20.332 25.3125C20.9782 25.3125 21.5039 25.8382 21.5039 26.4844C21.5039 27.1305 20.9782 27.6562 20.332 27.6562C19.6859 27.6562 19.1602 27.1305 19.1602 26.4844ZM20.332 34.6875C19.0397 34.6875 17.9883 33.6361 17.9883 32.3438C17.9883 31.0514 19.0397 30 20.332 30C21.6244 30 22.6758 31.0514 22.6758 32.3438C22.6758 33.6361 21.6244 34.6875 20.332 34.6875Z" fill="#CD1E19"/>
<path d="M29.5312 20.918C27.5927 20.918 26.0156 22.4951 26.0156 24.4336C26.0156 26.3721 27.5927 27.9492 29.5312 27.9492C31.4698 27.9492 33.0469 26.3721 33.0469 24.4336C33.0469 22.4951 31.4698 20.918 29.5312 20.918ZM29.5312 25.6055C28.8851 25.6055 28.3594 25.0798 28.3594 24.4336C28.3594 23.7874 28.8851 23.2617 29.5312 23.2617C30.1774 23.2617 30.7031 23.7874 30.7031 24.4336C30.7031 25.0798 30.1774 25.6055 29.5312 25.6055Z" fill="#CD1E19"/>
<path d="M7.44141 28.8281H5.85938C5.21227 28.8281 4.6875 29.3529 4.6875 30C4.6875 30.6471 5.21227 31.1719 5.85938 31.1719H7.44141C8.08852 31.1719 8.61328 30.6471 8.61328 30C8.61328 29.3529 8.08852 28.8281 7.44141 28.8281Z" fill="#CD1E19"/>
<path d="M48.2812 30.5859V43.4766C48.2812 45.4151 49.8584 46.9922 51.7969 46.9922C53.7354 46.9922 55.3125 45.4151 55.3125 43.4766V30.5859C55.3125 28.6474 53.7354 27.0703 51.7969 27.0703C49.8584 27.0703 48.2812 28.6474 48.2812 30.5859ZM52.9688 30.5859V43.4766C52.9688 44.1227 52.443 44.6484 51.7969 44.6484C51.1507 44.6484 50.625 44.1227 50.625 43.4766V30.5859C50.625 29.9398 51.1507 29.4141 51.7969 29.4141C52.443 29.4141 52.9688 29.9398 52.9688 30.5859Z" fill="#CD1E19"/>
<path d="M10.5469 13.8867H19.9219C20.569 13.8867 21.0938 13.362 21.0938 12.7148C21.0938 12.0677 20.569 11.543 19.9219 11.543H10.5469C9.89977 11.543 9.375 12.0677 9.375 12.7148C9.375 13.362 9.89977 13.8867 10.5469 13.8867Z" fill="#CD1E19"/>
<path d="M12.8906 9.19922H17.5781C18.2252 9.19922 18.75 8.67445 18.75 8.02734C18.75 7.38023 18.2252 6.85547 17.5781 6.85547H12.8906C12.2435 6.85547 11.7188 7.38023 11.7188 8.02734C11.7188 8.67445 12.2435 9.19922 12.8906 9.19922Z" fill="#CD1E19"/>
<path d="M16.4062 43.7695C17.0535 43.7695 17.5781 43.2449 17.5781 42.5977C17.5781 41.9504 17.0535 41.4258 16.4062 41.4258C15.759 41.4258 15.2344 41.9504 15.2344 42.5977C15.2344 43.2449 15.759 43.7695 16.4062 43.7695Z" fill="#CD1E19"/>
<path d="M5.85938 43.7695C6.50658 43.7695 7.03125 43.2449 7.03125 42.5977C7.03125 41.9504 6.50658 41.4258 5.85938 41.4258C5.21217 41.4258 4.6875 41.9504 4.6875 42.5977C4.6875 43.2449 5.21217 43.7695 5.85938 43.7695Z" fill="#CD1E19"/>
<path d="M11.1328 43.7695C11.78 43.7695 12.3047 43.2449 12.3047 42.5977C12.3047 41.9504 11.78 41.4258 11.1328 41.4258C10.4856 41.4258 9.96094 41.9504 9.96094 42.5977C9.96094 43.2449 10.4856 43.7695 11.1328 43.7695Z" fill="#CD1E19"/>
<path d="M5.85938 48.457C6.50658 48.457 7.03125 47.9324 7.03125 47.2852C7.03125 46.6379 6.50658 46.1133 5.85938 46.1133C5.21217 46.1133 4.6875 46.6379 4.6875 47.2852C4.6875 47.9324 5.21217 48.457 5.85938 48.457Z" fill="#CD1E19"/>
<path d="M11.1328 48.457C11.78 48.457 12.3047 47.9324 12.3047 47.2852C12.3047 46.6379 11.78 46.1133 11.1328 46.1133C10.4856 46.1133 9.96094 46.6379 9.96094 47.2852C9.96094 47.9324 10.4856 48.457 11.1328 48.457Z" fill="#CD1E19"/>
<path d="M16.4062 48.457C17.0535 48.457 17.5781 47.9324 17.5781 47.2852C17.5781 46.6379 17.0535 46.1133 16.4062 46.1133C15.759 46.1133 15.2344 46.6379 15.2344 47.2852C15.2344 47.9324 15.759 48.457 16.4062 48.457Z" fill="#CD1E19"/>
</svg>
