<svg width="60" height="60" viewBox="0 0 60 60" fill="none"
  xmlns="http://www.w3.org/2000/svg">
  <g clip-path="url(#clip26)">
    <path d="M59.0564 36.5566H36.5605C36.0428 36.5566 35.6231 36.9763 35.6231 37.494H29.3037C27.618 37.4961 26.2519 38.8621 26.2498 40.5478V41.2433C26.2498 41.7609 26.6695 42.1806 27.1872 42.1806H27.3409L26.9181 47.2488C25.9332 47.7777 25.3171 48.8032 25.3125 49.9211V55.3033C25.3125 55.8209 25.7322 56.2406 26.2498 56.2406H27.235C27.4746 58.5442 29.5362 60.2175 31.8398 59.978C33.8127 59.7728 35.3719 58.2135 35.5772 56.2406H35.6231C35.6231 56.7583 36.0428 57.1779 36.5605 57.1779H49.9043C50.6444 59.3103 52.9728 60.4389 55.1051 59.6989C56.287 59.2887 57.2159 58.3598 57.6261 57.1779H59.0564C59.5741 57.1779 59.9938 56.7583 59.9938 56.2406V37.494C59.9938 36.9763 59.5742 36.5566 59.0564 36.5566ZM31.4052 58.1153C30.1109 58.1153 29.0618 57.0662 29.0618 55.7719C29.0618 54.4777 30.1109 53.4286 31.4052 53.4286C32.6994 53.4286 33.7485 54.4777 33.7485 55.7719C33.7485 57.0662 32.6994 58.1153 31.4052 58.1153ZM35.6231 54.3659H35.3644C34.7722 52.6857 33.1868 51.5597 31.4052 51.554C29.6235 51.5597 28.0381 52.6857 27.4459 54.3659H27.1872V49.9211C27.1876 49.2701 27.7153 48.7424 28.3663 48.742H35.6231V54.3659ZM35.6231 46.8673H28.8312L29.2212 42.1806H35.6231V46.8673ZM35.6231 40.306H28.1489C28.2644 39.7601 28.7457 39.3693 29.3037 39.3686H35.6231V40.306ZM56.0026 55.8123C56.0016 57.0479 54.9999 58.0492 53.7643 58.0497C52.528 58.0497 51.5259 57.0475 51.5259 55.8113C51.5259 54.5751 52.528 53.573 53.7643 53.573C55.0005 53.573 56.0026 54.5751 56.0026 55.8113C56.0026 55.8117 56.0026 55.8119 56.0026 55.8123ZM58.1191 55.3033H57.8257C57.5569 53.0607 55.5212 51.4607 53.2785 51.7294C51.4056 51.9538 49.9291 53.4303 49.7046 55.3033H37.4978V38.4313H58.1191V55.3033Z" fill="#CD1E19"/>
    <path d="M9.37918 25.308C9.66049 25.3077 9.92681 25.1811 10.1047 24.963C10.9904 23.8785 18.7525 14.2268 18.7525 9.37332C18.7525 4.19655 14.5559 0 9.37918 0C4.20241 0 0.00585938 4.19655 0.00585938 9.37332C0.00585938 14.2268 7.7679 23.8785 8.65368 24.963C8.83154 25.1811 9.09786 25.3077 9.37918 25.308ZM9.37918 1.87466C13.5187 1.87935 16.8731 5.23383 16.8778 9.37332C16.8778 12.5893 11.9953 19.5124 9.37918 22.8709C6.76308 19.5124 1.88052 12.5893 1.88052 9.37332C1.88521 5.23383 5.23968 1.87935 9.37918 1.87466Z" fill="#CD1E19"/>
    <path d="M14.5343 8.52837C14.5343 5.68111 12.2262 3.37305 9.37896 3.37305C6.53169 3.37305 4.22363 5.68111 4.22363 8.52837C4.22363 11.3756 6.53169 13.6837 9.37896 13.6837C12.2249 13.6806 14.5312 11.3743 14.5343 8.52837ZM6.0983 8.52837C6.0983 6.71651 7.56709 5.24771 9.37896 5.24771C11.1908 5.24771 12.6596 6.71651 12.6596 8.52837C12.6596 10.3402 11.1908 11.809 9.37896 11.809C7.56709 11.809 6.0983 10.3402 6.0983 8.52837Z" fill="#CD1E19"/>
    <path d="M25.3133 29.0566C24.7957 29.0566 24.376 29.4763 24.376 29.994C24.376 30.5116 24.7957 30.9313 25.3133 30.9313H27.188C27.7056 30.9313 28.1253 30.5116 28.1253 29.994C28.1253 29.4763 27.7056 29.0566 27.188 29.0566H25.3133Z" fill="#CD1E19"/>
    <path d="M30.9383 29.0566C30.4207 29.0566 30.001 29.4763 30.001 29.994C30.001 30.5116 30.4207 30.9313 30.9383 30.9313H32.813C33.3306 30.9313 33.7503 30.5116 33.7503 29.994C33.7503 29.4763 33.3306 29.0566 32.813 29.0566H30.9383Z" fill="#CD1E19"/>
    <path d="M29.9998 20.6208H31.8745C32.3921 20.6208 32.8118 20.2011 32.8118 19.6834C32.8118 19.1658 32.3921 18.7461 31.8745 18.7461H29.9998C29.4822 18.7461 29.0625 19.1658 29.0625 19.6834C29.0625 20.2011 29.4822 20.6208 29.9998 20.6208Z" fill="#CD1E19"/>
    <path d="M24.3758 20.6208H26.2505C26.7681 20.6208 27.1878 20.2011 27.1878 19.6834C27.1878 19.1658 26.7681 18.7461 26.2505 18.7461H24.3758C23.8582 18.7461 23.4385 19.1658 23.4385 19.6834C23.4385 20.2011 23.8582 20.6208 24.3758 20.6208Z" fill="#CD1E19"/>
    <path d="M20.6266 24.3709C20.6266 23.8533 20.2069 23.4336 19.6893 23.4336C19.1716 23.4336 18.752 23.8533 18.752 24.3709V26.2456C18.752 26.7632 19.1716 27.1829 19.6893 27.1829C20.2069 27.1829 20.6266 26.7632 20.6266 26.2456V24.3709Z" fill="#CD1E19"/>
    <path d="M18.752 20.6208C18.752 21.1384 19.1716 21.5581 19.6893 21.5581C20.2069 21.5581 20.6266 21.1384 20.6266 20.6208C21.1443 20.6208 21.5639 20.2011 21.5639 19.6834C21.5639 19.1658 21.1443 18.7461 20.6266 18.7461H19.6893C19.1716 18.7461 18.752 19.1658 18.752 19.6834V20.6208Z" fill="#CD1E19"/>
    <path d="M52.4959 20.6208H54.3706C54.8882 20.6208 55.3079 20.2011 55.3079 19.6834C55.3079 19.1658 54.8882 18.7461 54.3706 18.7461H52.4959C51.9783 18.7461 51.5586 19.1658 51.5586 19.6834C51.5586 20.2011 51.9783 20.6208 52.4959 20.6208Z" fill="#CD1E19"/>
    <path d="M19.6889 29.0566H17.8143C17.2966 29.0566 16.877 29.4763 16.877 29.994C16.877 30.5116 17.2966 30.9313 17.8143 30.9313H19.6889C20.2066 30.9313 20.6263 30.5116 20.6263 29.994C20.6263 29.4763 20.2067 29.0566 19.6889 29.0566Z" fill="#CD1E19"/>
    <path d="M53.4324 29.0566C52.9148 29.0566 52.4951 29.4763 52.4951 29.994C52.4951 30.5116 52.9148 30.9313 53.4324 30.9313H55.3071C55.8248 30.9313 56.2444 30.5116 56.2444 29.994C56.2444 29.4763 55.8248 29.0566 55.3071 29.0566H53.4324Z" fill="#CD1E19"/>
    <path d="M57.1824 23.4329C57.7001 23.4329 58.1198 23.0132 58.1198 22.4956V20.6209C58.1198 20.1033 57.7001 19.6836 57.1824 19.6836C56.6648 19.6836 56.2451 20.1033 56.2451 20.6209V22.4956C56.2451 23.0132 56.6648 23.4329 57.1824 23.4329Z" fill="#CD1E19"/>
    <path d="M47.8084 29.0566C47.2908 29.0566 46.8711 29.4763 46.8711 29.994C46.8711 30.5116 47.2908 30.9313 47.8084 30.9313H49.6831C50.2007 30.9313 50.6204 30.5116 50.6204 29.994C50.6204 29.4763 50.2007 29.0566 49.6831 29.0566H47.8084Z" fill="#CD1E19"/>
    <path d="M35.6239 20.6208H37.4985C38.0162 20.6208 38.4358 20.2011 38.4358 19.6834C38.4358 19.1658 38.0162 18.7461 37.4985 18.7461H35.6239C35.1062 18.7461 34.6865 19.1658 34.6865 19.6834C34.6865 20.2011 35.1062 20.6208 35.6239 20.6208Z" fill="#CD1E19"/>
    <path d="M57.1824 29.0579C57.7001 29.0579 58.1198 28.6382 58.1198 28.1206V26.2459C58.1198 25.7283 57.7001 25.3086 57.1824 25.3086C56.6648 25.3086 56.2451 25.7283 56.2451 26.2459V28.1206C56.2451 28.6382 56.6648 29.0579 57.1824 29.0579Z" fill="#CD1E19"/>
    <path d="M41.2479 20.6208H43.1225C43.6402 20.6208 44.0599 20.2011 44.0599 19.6834C44.0599 19.1658 43.6402 18.7461 43.1225 18.7461H41.2479C40.7302 18.7461 40.3105 19.1658 40.3105 19.6834C40.3105 20.2011 40.7302 20.6208 41.2479 20.6208Z" fill="#CD1E19"/>
    <path d="M36.5614 29.0566C36.0437 29.0566 35.624 29.4763 35.624 29.994C35.624 30.5116 36.0437 30.9313 36.5614 30.9313H38.436C38.9537 30.9313 39.3734 30.5116 39.3734 29.994C39.3734 29.4763 38.9537 29.0566 38.436 29.0566H36.5614Z" fill="#CD1E19"/>
    <path d="M42.1854 29.0566C41.6677 29.0566 41.248 29.4763 41.248 29.994C41.248 30.5116 41.6677 30.9313 42.1854 30.9313H44.06C44.5777 30.9313 44.9974 30.5116 44.9974 29.994C44.9974 29.4763 44.5777 29.0566 44.06 29.0566H42.1854Z" fill="#CD1E19"/>
    <path d="M46.8719 20.6208H48.7466C49.2642 20.6208 49.6839 20.2011 49.6839 19.6834C49.6839 19.1658 49.2642 18.7461 48.7466 18.7461H46.8719C46.3543 18.7461 45.9346 19.1658 45.9346 19.6834C45.9346 20.2011 46.3543 20.6208 46.8719 20.6208Z" fill="#CD1E19"/>
    <path d="M0.943359 40.3061C0.943359 40.8238 1.36305 41.2435 1.88069 41.2435C2.39833 41.2435 2.81802 40.8238 2.81802 40.3061V38.4315C2.81802 37.9138 2.39833 37.4941 1.88069 37.4941C1.36305 37.4941 0.943359 37.9138 0.943359 38.4315V40.3061Z" fill="#CD1E19"/>
    <path d="M12.1911 53.4276C12.1911 52.9099 11.7714 52.4902 11.2537 52.4902C10.7361 52.4902 10.3164 52.9099 10.3164 53.4276V54.3649C10.3164 54.8825 10.7361 55.3022 11.2537 55.3022H12.1911C12.7087 55.3022 13.1284 54.8825 13.1284 54.3649C13.1284 53.8473 12.7088 53.4276 12.1911 53.4276Z" fill="#CD1E19"/>
    <path d="M17.8139 53.4277H15.9393C15.4216 53.4277 15.002 53.8474 15.002 54.3651C15.002 54.8827 15.4216 55.3024 15.9393 55.3024H17.8139C18.3316 55.3024 18.7513 54.8827 18.7513 54.3651C18.7513 53.8474 18.3317 53.4277 17.8139 53.4277Z" fill="#CD1E19"/>
    <path d="M18.7514 48.7422H16.8768C16.3591 48.7422 15.9395 49.1619 15.9395 49.6795C15.9395 50.1972 16.3591 50.6168 16.8768 50.6168H18.7514C19.2691 50.6168 19.6888 50.1972 19.6888 49.6795C19.6888 49.1619 19.2692 48.7422 18.7514 48.7422Z" fill="#CD1E19"/>
    <path d="M13.1284 48.7422H11.2537C10.7361 48.7422 10.3164 49.1619 10.3164 49.6795C10.3164 50.1972 10.7361 50.6168 11.2537 50.6168H13.1284C13.646 50.6168 14.0657 50.1972 14.0657 49.6795C14.0657 49.1619 13.6462 48.7422 13.1284 48.7422Z" fill="#CD1E19"/>
    <path d="M18.7518 43.1172C18.2341 43.1172 17.8145 43.5369 17.8145 44.0545V45.9292C17.8145 46.4468 18.2341 46.8665 18.7518 46.8665C19.2694 46.8665 19.6891 46.4468 19.6891 45.9292V44.0545C19.6891 43.5369 19.2695 43.1172 18.7518 43.1172Z" fill="#CD1E19"/>
    <path d="M25.3131 32.8065C25.3131 32.2888 24.8935 31.8691 24.3758 31.8691C23.8582 31.8691 23.4385 32.2888 23.4385 32.8065V34.6811C23.4385 35.1988 23.8582 35.6185 24.3758 35.6185C24.8935 35.6185 25.3131 35.1988 25.3131 34.6811V32.8065Z" fill="#CD1E19"/>
    <path d="M23.438 53.4277H21.5633C21.0457 53.4277 20.626 53.8474 20.626 54.3651C20.626 54.8827 21.0457 55.3024 21.5633 55.3024H23.438C23.9556 55.3024 24.3753 54.8827 24.3753 54.3651C24.3753 53.8474 23.9557 53.4277 23.438 53.4277Z" fill="#CD1E19"/>
    <path d="M22.5013 35.619C22.5013 35.1013 22.0816 34.6816 21.5639 34.6816H19.6893C19.1716 34.6816 18.752 35.1013 18.752 35.619C18.752 36.1366 19.1716 36.5563 19.6893 36.5563H21.5639C22.0817 36.5563 22.5013 36.1366 22.5013 35.619Z" fill="#CD1E19"/>
    <path d="M9.37937 43.1172H7.50471C6.98707 43.1172 6.56738 43.5369 6.56738 44.0545C6.56738 44.5722 6.98707 44.9919 7.50471 44.9919H9.37937C9.89702 44.9919 10.3167 44.5722 10.3167 44.0545C10.3167 43.5369 9.89713 43.1172 9.37937 43.1172Z" fill="#CD1E19"/>
    <path d="M16.8772 35.619C16.8772 35.1013 16.4576 34.6816 15.9399 34.6816H14.0653C13.5476 34.6816 13.1279 35.1013 13.1279 35.619C13.1279 36.1366 13.5476 36.5563 14.0653 36.5563H15.9399C16.4577 36.5563 16.8772 36.1366 16.8772 35.619Z" fill="#CD1E19"/>
    <path d="M13.1278 44.9919H15.0024C15.5201 44.9919 15.9398 44.5722 15.9398 44.0545C15.9398 43.5369 15.5201 43.1172 15.0024 43.1172H13.1278C12.6101 43.1172 12.1904 43.5369 12.1904 44.0545C12.1904 44.5722 12.6101 44.9919 13.1278 44.9919Z" fill="#CD1E19"/>
    <path d="M7.50488 35.619C7.50488 36.1366 7.92457 36.5563 8.44221 36.5563H10.3169C10.8345 36.5563 11.2542 36.1366 11.2542 35.619C11.2542 35.1013 10.8345 34.6816 10.3169 34.6816H8.44221C7.92457 34.6816 7.50488 35.1013 7.50488 35.619Z" fill="#CD1E19"/>
    <path d="M15.0023 29.994C15.0023 29.4763 14.5826 29.0566 14.0649 29.0566H12.1903C11.6726 29.0566 11.2529 29.4763 11.2529 29.994C11.2529 30.5116 11.6726 30.9313 12.1903 30.9313H14.0649C14.5827 30.9313 15.0023 30.5116 15.0023 29.994Z" fill="#CD1E19"/>
    <path d="M10.3161 29.0581V27.1834C10.3161 26.6658 9.89638 26.2461 9.37874 26.2461C8.8611 26.2461 8.44141 26.6658 8.44141 27.1834V29.0581C8.44141 29.5757 8.8611 29.9954 9.37874 29.9954C9.89638 29.9954 10.3161 29.5757 10.3161 29.0581Z" fill="#CD1E19"/>
    <path d="M4.69285 34.6816H2.81819C2.30055 34.6816 1.88086 35.1013 1.88086 35.619C1.88086 36.1366 2.30055 36.5563 2.81819 36.5563H4.69285C5.2105 36.5563 5.63019 36.1366 5.63019 35.619C5.63019 35.1013 5.21061 34.6816 4.69285 34.6816Z" fill="#CD1E19"/>
    <path d="M3.75535 43.1172H1.88069C1.36305 43.1172 0.943359 43.5369 0.943359 44.0545C0.943359 44.5722 1.36305 44.9919 1.88069 44.9919H3.75535C4.273 44.9919 4.69269 44.5722 4.69269 44.0545C4.69269 43.5369 4.27311 43.1172 3.75535 43.1172Z" fill="#CD1E19"/>
  </g>
  <defs>
    <clipPath id="clip26">
      <rect width="60" height="60" fill="white"/>
    </clipPath>
  </defs>
</svg>
