<svg width="60" height="60" viewBox="0 0 60 60" fill="none" xmlns="http://www.w3.org/2000/svg">
<path d="M52.3115 11.4386C47.3548 6.48014 40.7629 3.75 33.75 3.75C26.7379 3.75 20.1462 6.48014 15.1886 11.4386C10.2301 16.3962 7.49994 22.988 7.49994 30C7.49994 37.013 10.2301 43.6048 15.1886 48.5613C17.3592 50.7312 19.8422 52.4744 22.5374 53.7488H1.2497C0.55934 53.7487 0 54.3089 0 55.0012C0 55.6897 0.55934 56.2499 1.2497 56.2499H33.75C40.7629 56.2499 47.3548 53.5198 52.3115 48.5613C57.27 43.6048 60 37.013 60 30C60 22.9879 57.2699 16.396 52.3115 11.4386ZM50.5445 46.7945C46.0583 51.2804 40.0927 53.7487 33.75 53.7487C27.4063 53.7487 21.4416 51.2804 16.9565 46.7945C12.4704 42.3084 10.0003 36.3428 10.0003 30C10.0003 23.6563 12.4704 17.6917 16.9565 13.2065C21.4416 8.72043 27.4063 6.25033 33.75 6.25033C40.0927 6.25033 46.0583 8.72043 50.5445 13.2065C55.0305 17.6916 57.4988 23.6563 57.4988 30C57.4987 36.3427 55.0305 42.3084 50.5445 46.7945Z" fill="#CD1E19"/>
<path d="M41.25 29.9999C41.25 25.8646 37.8845 22.5 33.75 22.5C29.6146 22.5 26.25 25.8646 26.25 29.9999C26.25 34.1345 29.6146 37.5 33.75 37.5C37.8845 37.4999 41.25 34.1345 41.25 29.9999ZM33.75 34.9987C30.9934 34.9987 28.7503 32.7575 28.7503 29.9999C28.7503 27.2433 30.9934 25.0003 33.75 25.0003C36.5075 25.0003 38.7487 27.2433 38.7487 29.9999C38.7487 32.7575 36.5075 34.9987 33.75 34.9987Z" fill="#CD1E19"/>
<path d="M39.9221 40.8654C39.9495 40.8544 39.9752 40.8397 40.0009 40.8251C40.0191 40.8141 40.0393 40.7994 40.0595 40.7866C41.8997 39.7063 43.4396 38.1682 44.5236 36.3316C44.5419 36.3059 44.5602 36.2766 44.575 36.251C44.5841 36.2345 44.5915 36.218 44.6006 36.2034C45.6481 34.3742 46.2485 32.2556 46.2485 30.0016C46.2485 30.0006 46.2485 30.0006 46.2485 29.9997C46.2485 29.9987 46.2485 29.9987 46.2485 29.9978C46.2485 27.7438 45.6479 25.6271 44.6006 23.7989C44.5915 23.7824 44.5841 23.766 44.575 23.7494C44.5639 23.7283 44.5493 23.7082 44.5346 23.6872C43.4507 21.8424 41.9089 20.2988 40.0632 19.2148C40.0412 19.2011 40.0229 19.1874 40.001 19.1745C39.9827 19.1644 39.9662 19.1572 39.9496 19.1488C38.1222 18.0997 36.0056 17.5 33.7498 17.5C31.4939 17.5 29.3754 18.1006 27.547 19.1507C27.5314 19.1589 27.515 19.1654 27.4994 19.1745C27.4783 19.1865 27.4601 19.2002 27.4399 19.2129C25.5923 20.2979 24.0479 21.8432 22.9629 23.6899C22.9502 23.7101 22.9363 23.7293 22.9245 23.7494C22.9154 23.765 22.9089 23.7806 22.9007 23.7961C21.8506 25.6253 21.25 27.7438 21.25 29.9997C21.25 32.2556 21.8515 34.376 22.9017 36.2052C22.9099 36.2198 22.9163 36.2363 22.9245 36.251C22.9401 36.2766 22.9574 36.3041 22.9749 36.3297C24.0598 38.1682 25.6006 39.708 27.4418 40.7884C27.461 40.7994 27.4793 40.8141 27.5004 40.825C27.525 40.8397 27.5506 40.8544 27.5762 40.8654C29.3981 41.9054 31.5056 42.4988 33.7497 42.4988C35.9927 42.4988 38.1002 41.9056 39.9221 40.8654ZM32.5043 39.9224C31.5805 39.8071 30.6952 39.5653 29.8676 39.2156C30.1596 38.6278 29.95 37.91 29.375 37.5768C28.801 37.2473 28.0749 37.4231 27.7115 37.965C26.9847 37.4138 26.3356 36.7638 25.7836 36.0386C26.3265 35.6761 26.5032 34.9474 26.1717 34.376C25.8403 33.801 25.1206 33.5886 24.5337 33.8815C24.184 33.054 23.9423 32.1677 23.827 31.2457C24.4807 31.2054 24.9998 30.6634 24.9998 29.9997C24.9998 29.3359 24.4807 28.7939 23.827 28.7536C23.9423 27.8308 24.1831 26.9464 24.5328 26.1189C24.7105 26.2077 24.9009 26.2498 25.0885 26.2498C25.5198 26.2498 25.94 26.0255 26.1716 25.6244C26.503 25.0513 26.3263 24.3244 25.7834 23.9618C26.3355 23.2358 26.9846 22.5867 27.7106 22.0346C27.9486 22.3917 28.3441 22.5894 28.7506 22.5894C28.963 22.5894 29.1773 22.5354 29.3741 22.4218C29.949 22.0895 30.1596 21.3707 29.8676 20.7839C30.6952 20.4342 31.5796 20.1924 32.5043 20.0771C32.5446 20.7308 33.0866 21.2499 33.7494 21.2499C34.4121 21.2499 34.9541 20.7308 34.9944 20.0771C35.9192 20.1924 36.8036 20.4342 37.6312 20.7839C37.3382 21.3707 37.5506 22.0895 38.1256 22.4218C38.3215 22.5354 38.5358 22.5894 38.7481 22.5894C39.1546 22.5894 39.5501 22.3916 39.7882 22.0346C40.5133 22.5867 41.1632 23.2358 41.7145 23.9618C41.1725 24.3244 40.9967 25.0513 41.3264 25.6244C41.5589 26.0255 41.9782 26.2498 42.4104 26.2498C42.5972 26.2498 42.7876 26.2077 42.967 26.1189C43.3149 26.9464 43.5566 27.8308 43.672 28.7536C43.0183 28.7939 42.4983 29.3359 42.4983 29.9997C42.4983 30.6634 43.0183 31.2054 43.672 31.2457C43.5567 32.1677 43.3149 33.054 42.9653 33.8815C42.3774 33.5886 41.6597 33.8009 41.3265 34.376C40.997 34.9473 41.1727 35.6761 41.7146 36.0386C41.1635 36.7638 40.5134 37.4137 39.7883 37.965C39.4239 37.423 38.697 37.2472 38.1256 37.5768C37.5507 37.9101 37.3382 38.6279 37.6312 39.2156C36.8036 39.5653 35.9173 39.8071 34.9944 39.9224C34.9541 39.2687 34.4121 38.7486 33.7494 38.7486C33.0866 38.7487 32.5446 39.2687 32.5043 39.9224Z" fill="#CD1E19"/>
<path d="M33.7496 12.5223V12.4994C34.0681 12.4994 34.3904 12.3776 34.6321 12.1332C35.1228 11.6452 35.1228 10.8542 34.6321 10.3662C34.3244 10.0577 33.8978 9.94505 33.5006 10.0247C28.2574 10.0888 23.3381 12.1589 19.623 15.873C15.9088 19.5882 13.8387 24.5075 13.7746 29.7515C13.695 30.148 13.8085 30.5755 14.1161 30.8831C14.6041 31.372 15.3951 31.372 15.884 30.8831C16.1275 30.6396 16.2493 30.3192 16.2493 29.9996H16.2722C16.2722 25.3314 18.0895 20.9424 21.3908 17.6409C24.6923 14.3394 29.0813 12.5223 33.7496 12.5223Z" fill="#CD1E19"/>
<path d="M53.3603 29.1167C52.8733 28.6278 52.0822 28.6278 51.5933 29.1167C51.3498 29.3611 51.2271 29.6815 51.2271 30.002C51.2271 34.6694 49.4088 39.0585 46.1093 42.3599C42.806 45.6595 38.4188 47.4775 33.7497 47.4775C33.431 47.4775 33.1088 47.6002 32.8671 47.8437C32.3763 48.3326 32.3763 49.1237 32.8671 49.6107C33.1088 49.8561 33.431 49.9769 33.7497 49.9769C39.0852 49.9769 44.1024 47.9005 47.8762 44.1269C51.6501 40.3531 53.7265 35.3359 53.7265 30.0002C53.7265 29.6806 53.6057 29.3602 53.3603 29.1167Z" fill="#CD1E19"/>
</svg>
