<svg width="20" height="19" viewBox="0 0 20 19" fill="none" xmlns="http://www.w3.org/2000/svg">
<path fill-rule="evenodd" clip-rule="evenodd" d="M13.5013 13.1332L13.8281 12.7576C14.9151 11.5082 15.5715 9.88109 15.5715 8.10133C15.5715 4.18399 12.383 0.999778 8.46836 0.999778C4.55015 0.999778 1.36523 4.18752 1.36523 8.10133C1.36523 12.0148 4.55402 15.2029 8.46836 15.2029C10.2485 15.2029 11.876 14.5466 13.1257 13.4598L13.5013 13.1332ZM14.5826 13.4137L19.2009 18.031C19.42 18.2501 19.42 18.6124 19.2009 18.8315C19.0913 18.9452 18.9439 19 18.8006 19C18.6573 19 18.5098 18.941 18.4003 18.8315L13.782 14.2142C12.3577 15.4528 10.4994 16.2027 8.46836 16.2027C4.00174 16.2027 0.365234 12.567 0.365234 8.10133C0.365234 3.6357 3.99753 0 8.46836 0C12.935 0 16.5715 3.63149 16.5715 8.10133C16.5715 10.1319 15.8214 11.9898 14.5826 13.4137Z" fill="#4F4F4F"/>
</svg>
