<svg width="60" height="60" viewBox="0 0 60 60" fill="none" xmlns="http://www.w3.org/2000/svg">
<path d="M0 38.1425V43.6526H3.67348V41.8159H1.83668V39.9793H5.61223C4.98844 40.7652 4.61461 41.758 4.61461 42.8372C4.61461 45.3777 6.68133 47.4443 9.2216 47.4443C10.7269 47.4443 12.0657 46.7186 12.9069 45.5987C13.7471 46.7186 15.0843 47.4443 16.5878 47.4443C18.8442 47.4443 20.725 45.8052 21.1099 43.6527H22.2096C22.596 45.8052 24.4811 47.4443 26.743 47.4443C28.2503 47.4443 29.5907 46.7167 30.4318 45.5944C31.2729 46.7168 32.6134 47.4443 34.1207 47.4443C36.6609 47.4443 38.7277 45.3776 38.7277 42.8372C38.7277 41.7582 38.3538 40.7653 37.73 39.9793H41.51V41.8159H39.6734V43.6526H43.3468V38.1425H0ZM11.9895 42.9502C11.9297 44.4256 10.7114 45.6074 9.22184 45.6074C7.6943 45.6074 6.45152 44.3646 6.45152 42.837C6.45152 41.3094 7.6943 40.0666 9.22184 40.0666C10.7114 40.0666 11.9297 41.2484 11.9895 42.7237C11.9885 42.7614 11.9866 42.799 11.9866 42.8369C11.9866 42.8747 11.9886 42.9125 11.9895 42.9502ZM12.9069 40.0753C12.8824 40.0427 12.8568 40.011 12.8313 39.9793H12.9823C12.957 40.0111 12.9314 40.0427 12.9069 40.0753ZM19.347 42.8379C19.347 44.3651 18.1093 45.6077 16.588 45.6077C15.1014 45.6077 13.8857 44.4258 13.826 42.9505C13.8268 42.9128 13.8288 42.8752 13.8288 42.8373C13.8288 42.7995 13.8268 42.7619 13.826 42.724C13.8855 41.2487 15.1 40.0669 16.5851 40.0669C18.1079 40.0669 19.347 41.3097 19.347 42.8373V42.8379ZM22.2517 41.8159H21.0683C20.9136 41.134 20.6079 40.5095 20.1879 39.9793H23.1338C22.7129 40.5095 22.4066 41.1341 22.2517 41.8159ZM26.7434 45.6074C25.2157 45.6074 23.9729 44.3646 23.9729 42.837C23.9729 41.3094 25.2157 40.0666 26.7434 40.0666C28.271 40.0666 29.5138 41.3093 29.5138 42.837C29.5138 44.3648 28.271 45.6074 26.7434 45.6074ZM30.4321 40.0799C30.4065 40.0456 30.3795 40.0125 30.3528 39.9791H30.5114C30.4849 40.0127 30.4579 40.0457 30.4321 40.0799ZM34.1209 45.6074C32.5932 45.6074 31.3505 44.3646 31.3505 42.837C31.3505 41.3094 32.5932 40.0666 34.1209 40.0666C35.6484 40.0666 36.8912 41.3093 36.8912 42.837C36.8912 44.3648 35.6484 45.6074 34.1209 45.6074Z" fill="#CD1E19"/>
<path d="M10.1632 41.9387H8.2041V43.7754H10.1632V41.9387Z" fill="#CD1E19"/>
<path d="M17.51 41.9387H15.6733V43.7754H17.51V41.9387Z" fill="#CD1E19"/>
<path d="M27.6732 41.9387H25.8364V43.7754H27.6732V41.9387Z" fill="#CD1E19"/>
<path d="M35.0203 41.9387H33.1836V43.7754H35.0203V41.9387Z" fill="#CD1E19"/>
<path d="M44.2041 18.7955V43.6526H47.1316C47.566 45.7448 49.4234 47.3218 51.6425 47.3218C54.1827 47.3218 56.2495 45.2551 56.2495 42.7147C56.2495 40.1742 54.1827 38.1076 51.6425 38.1076C49.4097 38.1076 47.5432 39.7044 47.1239 41.816H46.0408V20.6323H57.1837V22.469H48.8571V32.5099H57.1837V36.3058H55.347V38.1425H57.1837V40.9589H59.0204V18.7955H44.2041ZM51.6426 39.9442C53.1701 39.9442 54.4129 41.187 54.4129 42.7147C54.4129 44.2423 53.1701 45.4851 51.6426 45.4851C50.1149 45.4851 48.8721 44.2423 48.8721 42.7147C48.8721 41.187 50.1148 39.9442 51.6426 39.9442ZM57.1837 30.6731H56.3266V27.9792H54.4899V30.6731H50.6939V24.3057H57.1838V30.6731H57.1837Z" fill="#CD1E19"/>
<path d="M52.6531 41.8162H50.8164V43.6528H52.6531V41.8162Z" fill="#CD1E19"/>
<path d="M40.5307 35.3261V18.7955H2.69402V35.3261H1.83691V37.1628H41.5103V35.3261H40.5307ZM38.694 35.3261H4.5307V20.6323H38.6939V35.3261H38.694Z" fill="#CD1E19"/>
<path d="M6.36719 22.469V33.4894H8.20387V24.3058H9.18344V22.469H6.36719Z" fill="#CD1E19"/>
<path d="M11.1431 22.469V33.4894H12.9797V24.3058H13.8369V22.469H11.1431Z" fill="#CD1E19"/>
<path d="M15.6733 22.469V33.4894H17.51V24.3058H18.4897V22.469H15.6733Z" fill="#CD1E19"/>
<path d="M20.3267 22.469V33.4894H22.1635V24.3058H23.0206V22.469H20.3267Z" fill="#CD1E19"/>
<path d="M24.8569 22.469V33.4894H26.6937V24.3058H27.6733V22.469H24.8569Z" fill="#CD1E19"/>
<path d="M29.6328 22.469V33.4894H31.4696V24.3058H32.3267V22.469H29.6328Z" fill="#CD1E19"/>
<path d="M34.1636 22.469V33.4894H36.0003V24.3058H36.8574V22.469H34.1636Z" fill="#CD1E19"/>
<path d="M60 41.8162H57.1836V43.6528H60V41.8162Z" fill="#CD1E19"/>
<path d="M50.8161 34.3468H48.8569V36.1835H50.8161V34.3468Z" fill="#CD1E19"/>
<path d="M45.5643 15.9793L42.102 12.5558L40.8105 13.8618L44.8095 17.816H49.7141V15.9793H45.5643Z" fill="#CD1E19"/>
<path d="M40.5305 15.9796H2.69385V17.8163H40.5305V15.9796Z" fill="#CD1E19"/>
</svg>
