<svg width="60" height="60" viewBox="0 0 60 60" fill="none" xmlns="http://www.w3.org/2000/svg">
<path d="M31.9741 37.0621H30.3262V35.4142H31.9741V37.0621ZM29.2275 37.0621H27.5796V35.4142H29.2275V37.0621Z" fill="#CD1E19"/>
<path d="M47.2991 44.1465L51.4337 40.0115V5.98L47.2995 1.8457H12.2538L8.11914 5.98V40.0122L12.2538 44.1465H47.2991ZM9.76709 6.66287L12.9363 3.49365H46.6166L49.7858 6.66287V39.3294L46.6162 42.4986H12.9363L9.76709 39.3297V6.66287Z" fill="#CD1E19"/>
<path d="M45.2591 29.7084L47.0392 27.9283V14.1524L45.2591 12.3723H14.2938L12.5137 14.1524V27.9283L14.2938 29.7084H45.2591ZM14.1616 14.8353L14.9763 14.0203H44.5769L45.3913 14.8353V27.2461L44.5769 28.0604H14.9763L14.1616 27.2461V14.8353Z" fill="#CD1E19"/>
<path d="M16.4451 40.1694C18.6128 40.1694 20.3764 38.4058 20.3764 36.238C20.3764 34.0703 18.6128 32.3066 16.4451 32.3066C14.2773 32.3066 12.5137 34.0699 12.5137 36.238C12.5137 38.4058 14.2773 40.1694 16.4451 40.1694ZM16.4451 33.9546C17.704 33.9546 18.7285 34.9791 18.7285 36.238C18.7285 37.497 17.704 38.5215 16.4451 38.5215C15.1858 38.5215 14.1616 37.497 14.1616 36.238C14.1616 34.9791 15.1858 33.9546 16.4451 33.9546Z" fill="#CD1E19"/>
<path d="M43.1083 32.3066C40.9406 32.3066 39.1772 34.0703 39.1772 36.238C39.1772 38.4058 40.9406 40.1694 43.1083 40.1694C45.276 40.1694 47.0397 38.4058 47.0397 36.238C47.0397 34.0699 45.276 32.3066 43.1083 32.3066ZM43.1083 38.5215C41.8497 38.5215 40.8252 37.497 40.8252 36.238C40.8252 34.9791 41.8497 33.9546 43.1083 33.9546C44.3676 33.9546 45.3917 34.9791 45.3917 36.238C45.3917 37.497 44.3676 38.5215 43.1083 38.5215Z" fill="#CD1E19"/>
<path d="M22.2075 15.3936H23.8555V26.6872H22.2075V15.3936Z" fill="#CD1E19"/>
<path d="M35.6982 15.3936H37.3462V26.6872H35.6982V15.3936Z" fill="#CD1E19"/>
<path d="M29.7769 10.7244C31.316 10.7244 32.5681 9.47227 32.5681 7.93281C32.5681 6.39404 31.316 5.1416 29.7769 5.1416C28.2375 5.1416 26.9854 6.39404 26.9854 7.93281C26.9854 9.47227 28.2375 10.7244 29.7769 10.7244ZM29.7769 6.78955C30.4073 6.78955 30.9202 7.30247 30.9202 7.93281C30.9202 8.56384 30.4073 9.07642 29.7769 9.07642C29.1466 9.07642 28.6333 8.56384 28.6333 7.93281C28.6333 7.30247 29.1466 6.78955 29.7769 6.78955Z" fill="#CD1E19"/>
<path d="M36.0129 10.7244C37.5524 10.7244 38.8045 9.47227 38.8045 7.93281C38.8045 6.39404 37.5517 5.1416 36.0129 5.1416C34.4738 5.1416 33.2217 6.39404 33.2217 7.93281C33.2217 9.47227 34.4738 10.7244 36.0129 10.7244ZM36.0129 6.78955C36.6432 6.78955 37.1565 7.30247 37.1565 7.93281C37.1565 8.56384 36.6432 9.07642 36.0129 9.07642C35.3826 9.07642 34.8696 8.56384 34.8696 7.93281C34.8696 7.30247 35.3826 6.78955 36.0129 6.78955Z" fill="#CD1E19"/>
<path d="M23.5402 10.7244C25.0797 10.7244 26.3318 9.47227 26.3318 7.93281C26.3318 6.39404 25.0797 5.1416 23.5402 5.1416C22.0015 5.1416 20.749 6.39404 20.749 7.93281C20.749 9.47227 22.0015 10.7244 23.5402 10.7244ZM23.5402 6.78955C24.1713 6.78955 24.6838 7.30247 24.6838 7.93281C24.6838 8.56384 24.1713 9.07642 23.5402 9.07642C22.9099 9.07642 22.397 8.56384 22.397 7.93281C22.397 7.30247 22.9099 6.78955 23.5402 6.78955Z" fill="#CD1E19"/>
<path d="M46.6023 58.0957H53.7091L44.4795 44.7761L43.1248 45.7148L50.5618 56.4477H47.4651L39.3777 44.7761L38.0233 45.7148L39.5927 47.9797H19.9608L21.5301 45.7148L20.1754 44.7761L12.0881 56.4477H8.99162L16.4283 45.7148L15.0739 44.7761L5.84473 58.0957H12.9508L15.0211 55.1084H44.5324L46.6023 58.0957ZM16.1626 53.4605L18.8189 49.6276H40.7342L43.3905 53.4605H16.1626Z" fill="#CD1E19"/>
</svg>
