<svg width="60" height="60" viewBox="0 0 60 60" fill="none"
  xmlns="http://www.w3.org/2000/svg">
  <g clip-path="url(#clip27)">
    <path d="M7 27H5V35H7V27Z" fill="#CD1E19"/>
    <path d="M12 27H10V35H12V27Z" fill="#CD1E19"/>
    <path d="M17 27H15V35H17V27Z" fill="#CD1E19"/>
    <path d="M22 27H20V35H22V27Z" fill="#CD1E19"/>
    <path d="M27 27H25V35H27V27Z" fill="#CD1E19"/>
    <path d="M31.0005 44C31.0004 44 31.0001 44 31 44H1C0.447875 43.9999 0.000125026 44.4474 2.61808e-08 44.9995C2.61808e-08 44.9996 2.61808e-08 44.9999 2.61808e-08 45V59C-0.000124974 59.5521 0.447375 59.9999 0.9995 60C0.999625 60 0.999875 60 1 60H31C31.5521 60.0001 31.9999 59.5526 32 59.0005C32 59.0004 32 59.0001 32 59V45C32.0001 44.4479 31.5526 44.0001 31.0005 44ZM30 58H2V46H30V58Z" fill="#CD1E19"/>
    <path d="M7 48H5V56H7V48Z" fill="#CD1E19"/>
    <path d="M12 48H10V56H12V48Z" fill="#CD1E19"/>
    <path d="M17 48H15V56H17V48Z" fill="#CD1E19"/>
    <path d="M22 48H20V56H22V48Z" fill="#CD1E19"/>
    <path d="M27 48H25V56H27V48Z" fill="#CD1E19"/>
    <path d="M59.0005 26C59.0004 26 59.0001 26 59 26H55V9.22437C57.2031 7.57288 57.6502 4.44812 55.9987 2.245C54.3472 0.0418749 51.2225 -0.40525 49.0194 1.24625C47.8591 2.116 47.135 3.44775 47.0359 4.89437L20 2.09763V1C20.0001 0.447875 19.5526 0.000125026 19.0005 2.61808e-08C19.0004 2.61808e-08 19.0001 2.61808e-08 19 2.61808e-08H13C12.4479 -0.000124974 12.0001 0.447375 12 0.9995C12 0.999625 12 0.999875 12 1V6C11.9999 6.55212 12.4474 6.99988 12.9995 7C12.9996 7 12.9999 7 13 7H15V10C14.9999 10.5521 15.4474 10.9999 15.9995 11C15.9996 11 15.9999 11 16 11H16.5C17.8808 11 19 12.1193 19 13.5C19 14.8807 17.8808 16 16.5 16C15.1193 16 14 14.8807 14 13.5H12C12.0048 14.8759 12.642 16.1731 13.7281 17.0179L1.76363 23H1C0.447875 22.9999 0.000125026 23.4474 2.61808e-08 23.9995C2.61808e-08 23.9996 2.61808e-08 23.9999 2.61808e-08 24V38C-0.000124974 38.5521 0.447375 38.9999 0.9995 39C0.999625 39 0.999875 39 1 39H31C31.5521 39.0001 31.9999 38.5526 32 38.0005C32 38.0004 32 38.0001 32 38V24C32.0001 23.4479 31.5526 23.0001 31.0005 23C31.0004 23 31.0001 23 31 23H29.2529L18.7773 17.3592C20.9163 16.1096 21.6371 13.3628 20.3875 11.2238C19.6702 9.99613 18.4135 9.18113 17 9.02725V7H19C19.5521 7.00012 19.9999 6.55263 20 6.0005C20 6.00038 20 6.00012 20 6V4.10925L47.3129 6.93475C47.6415 7.84538 48.2276 8.64087 49 9.2245V26H40C39.4479 25.9999 39.0001 26.4474 39 26.9995C39 26.9996 39 26.9999 39 27V41H37C36.4479 40.9999 36.0001 41.4474 36 41.9995C36 41.9996 36 41.9999 36 42V59C35.9999 59.5521 36.4474 59.9999 36.9995 60C36.9996 60 36.9999 60 37 60H59C59.5521 60.0001 59.9999 59.5526 60 59.0005C60 59.0004 60 59.0001 60 59V27C60.0001 26.4479 59.5526 26.0001 59.0005 26ZM30 25V37H2V25H30ZM25.0329 23H6.2365L15.983 18.127L25.0329 23ZM18 5H14V2H18V5ZM52 2.25C53.6569 2.25 55 3.59312 55 5.25C55 6.90688 53.6569 8.25 52 8.25C50.3431 8.25 49 6.90688 49 5.25C49.0018 3.59387 50.3439 2.25175 52 2.25ZM54 32.1353L57.331 34.9111L54 37.1316V32.1353ZM57.331 43.9111L54 46.1316V41.1354L57.331 43.9111ZM57.331 52.9111L54 55.1316V50.1354L57.331 52.9111ZM52 58H38V43H52V58ZM52 41H41V28H52V41ZM53 26H51V10.1489C51.6599 10.2836 52.3401 10.2836 53 10.1489V26ZM58 58H54V57.5351L58 54.8685V58ZM58 50.8646L54.669 48.0887L58 45.8684V50.8646ZM58 41.8646L54.669 39.0887L58 36.8684V41.8646ZM58 32.8646L54 29.5312V28H58V32.8646Z" fill="#CD1E19"/>
    <path d="M52 3.75C51.1716 3.75 50.5 4.42163 50.5 5.25C50.5009 6.078 51.172 6.74913 52 6.75C52.8284 6.75 53.5 6.07837 53.5 5.25C53.5 4.42163 52.8284 3.75 52 3.75ZM52 5.75C51.7239 5.75 51.5 5.52612 51.5 5.25C51.5004 4.974 51.724 4.75038 52 4.75C52.2761 4.75 52.5 4.97388 52.5 5.25C52.5 5.52612 52.2761 5.75 52 5.75Z" fill="#CD1E19"/>
  </g>
  <defs>
    <clipPath id="clip27">
      <rect width="60" height="60" fill="white"/>
    </clipPath>
  </defs>
</svg>
