<svg width="60" height="60" viewBox="0 0 60 60" fill="none" xmlns="http://www.w3.org/2000/svg">
<path d="M57.1875 48.75H56.25V4.6875C56.25 4.43886 56.1512 4.2004 55.9754 4.02459C55.7996 3.84877 55.5611 3.75 55.3125 3.75H4.6875C4.43886 3.75 4.2004 3.84877 4.02459 4.02459C3.84877 4.2004 3.75 4.43886 3.75 4.6875V48.75H2.8125C2.56386 48.75 2.3254 48.8488 2.14959 49.0246C1.97377 49.2004 1.875 49.4389 1.875 49.6875V53.4375C1.875 53.6861 1.97377 53.9246 2.14959 54.1004C2.3254 54.2762 2.56386 54.375 2.8125 54.375H5.625V57.1875C5.625 57.4361 5.72377 57.6746 5.89959 57.8504C6.0754 58.0262 6.31386 58.125 6.5625 58.125H12.1875C12.4361 58.125 12.6746 58.0262 12.8504 57.8504C13.0262 57.6746 13.125 57.4361 13.125 57.1875V54.375H26.25V57.1875C26.25 57.4361 26.3488 57.6746 26.5246 57.8504C26.7004 58.0262 26.9389 58.125 27.1875 58.125H32.8125C33.0611 58.125 33.2996 58.0262 33.4754 57.8504C33.6512 57.6746 33.75 57.4361 33.75 57.1875V54.375H46.875V57.1875C46.875 57.4361 46.9738 57.6746 47.1496 57.8504C47.3254 58.0262 47.5639 58.125 47.8125 58.125H53.4375C53.6861 58.125 53.9246 58.0262 54.1004 57.8504C54.2762 57.6746 54.375 57.4361 54.375 57.1875V54.375H57.1875C57.4361 54.375 57.6746 54.2762 57.8504 54.1004C58.0262 53.9246 58.125 53.6861 58.125 53.4375V49.6875C58.125 49.4389 58.0262 49.2004 57.8504 49.0246C57.6746 48.8488 57.4361 48.75 57.1875 48.75ZM39.375 48.75V35.625H43.125V40.3125C43.125 40.5611 43.2238 40.7996 43.3996 40.9754C43.5754 41.1512 43.8139 41.25 44.0625 41.25H49.6875C49.9361 41.25 50.1746 41.1512 50.3504 40.9754C50.5262 40.7996 50.625 40.5611 50.625 40.3125V35.625H54.375V48.75H39.375ZM11.25 35.625H15V39.375H11.25V35.625ZM5.625 33.75V20.625H9.375V25.3125C9.375 25.5611 9.47377 25.7996 9.64959 25.9754C9.8254 26.1512 10.0639 26.25 10.3125 26.25H15.9375C16.1861 26.25 16.4246 26.1512 16.6004 25.9754C16.7762 25.7996 16.875 25.5611 16.875 25.3125V20.625H20.625V33.75H5.625ZM11.25 20.625H15V24.375H11.25V20.625ZM22.5 20.625H26.25V25.3125C26.25 25.5611 26.3488 25.7996 26.5246 25.9754C26.7004 26.1512 26.9389 26.25 27.1875 26.25H32.8125C33.0611 26.25 33.2996 26.1512 33.4754 25.9754C33.6512 25.7996 33.75 25.5611 33.75 25.3125V20.625H37.5V33.75H22.5V20.625ZM28.125 5.625H31.875V9.375H28.125V5.625ZM27.1875 11.25H32.8125C33.0611 11.25 33.2996 11.1512 33.4754 10.9754C33.6512 10.7996 33.75 10.5611 33.75 10.3125V5.625H37.5V18.75H22.5V5.625H26.25V10.3125C26.25 10.5611 26.3488 10.7996 26.5246 10.9754C26.7004 11.1512 26.9389 11.25 27.1875 11.25ZM28.125 20.625H31.875V24.375H28.125V20.625ZM45 20.625H48.75V24.375H45V20.625ZM44.0625 26.25H49.6875C49.9361 26.25 50.1746 26.1512 50.3504 25.9754C50.5262 25.7996 50.625 25.5611 50.625 25.3125V20.625H54.375V33.75H39.375V20.625H43.125V25.3125C43.125 25.5611 43.2238 25.7996 43.3996 25.9754C43.5754 26.1512 43.8139 26.25 44.0625 26.25ZM45 35.625H48.75V39.375H45V35.625ZM28.125 35.625H31.875V39.375H28.125V35.625ZM26.25 35.625V40.3125C26.25 40.5611 26.3488 40.7996 26.5246 40.9754C26.7004 41.1512 26.9389 41.25 27.1875 41.25H32.8125C33.0611 41.25 33.2996 41.1512 33.4754 40.9754C33.6512 40.7996 33.75 40.5611 33.75 40.3125V35.625H37.5V48.75H22.5V35.625H26.25ZM54.375 18.75H39.375V5.625H43.125V10.3125C43.125 10.5611 43.2238 10.7996 43.3996 10.9754C43.5754 11.1512 43.8139 11.25 44.0625 11.25H49.6875C49.9361 11.25 50.1746 11.1512 50.3504 10.9754C50.5262 10.7996 50.625 10.5611 50.625 10.3125V5.625H54.375V18.75ZM45 5.625H48.75V9.375H45V5.625ZM11.25 5.625H15V9.375H11.25V5.625ZM9.375 5.625V10.3125C9.375 10.5611 9.47377 10.7996 9.64959 10.9754C9.8254 11.1512 10.0639 11.25 10.3125 11.25H15.9375C16.1861 11.25 16.4246 11.1512 16.6004 10.9754C16.7762 10.7996 16.875 10.5611 16.875 10.3125V5.625H20.625V18.75H5.625V5.625H9.375ZM5.625 35.625H9.375V40.3125C9.375 40.5611 9.47377 40.7996 9.64959 40.9754C9.8254 41.1512 10.0639 41.25 10.3125 41.25H15.9375C16.1861 41.25 16.4246 41.1512 16.6004 40.9754C16.7762 40.7996 16.875 40.5611 16.875 40.3125V35.625H20.625V48.75H5.625V35.625ZM11.25 56.25H7.5V54.375H11.25V56.25ZM31.875 56.25H28.125V54.375H31.875V56.25ZM52.5 56.25H48.75V54.375H52.5V56.25ZM56.25 52.5H3.75V50.625H56.25V52.5Z" fill="#CD1E19"/>
<path d="M50.625 45H52.5V46.875H50.625V45Z" fill="#CD1E19"/>
<path d="M33.75 45H35.625V46.875H33.75V45Z" fill="#CD1E19"/>
<path d="M50.625 30H52.5V31.875H50.625V30Z" fill="#CD1E19"/>
<path d="M33.75 30H35.625V31.875H33.75V30Z" fill="#CD1E19"/>
<path d="M16.875 45H18.75V46.875H16.875V45Z" fill="#CD1E19"/>
<path d="M16.875 30H18.75V31.875H16.875V30Z" fill="#CD1E19"/>
<path d="M50.625 15H52.5V16.875H50.625V15Z" fill="#CD1E19"/>
<path d="M33.75 15H35.625V16.875H33.75V15Z" fill="#CD1E19"/>
<path d="M16.875 15H18.75V16.875H16.875V15Z" fill="#CD1E19"/>
</svg>
