<svg width="60" height="60" viewBox="0 0 60 60" fill="none" xmlns="http://www.w3.org/2000/svg">
<path d="M3.75 9.5H1.875V5.75C1.87612 4.75578 2.27156 3.8026 2.97458 3.09958C3.6776 2.39656 4.63078 2.00112 5.625 2H37.5C38.4942 2.00112 39.4474 2.39656 40.1504 3.09958C40.8534 3.8026 41.2489 4.75578 41.25 5.75H39.375C39.3744 5.2529 39.1767 4.77633 38.8252 4.42483C38.4737 4.07332 37.9971 3.87559 37.5 3.875H5.625C5.1279 3.87559 4.65133 4.07332 4.29983 4.42483C3.94832 4.77633 3.75059 5.2529 3.75 5.75V9.5ZM5.625 52.625H6.5625V50.75H5.625C5.1279 50.7494 4.65133 50.5517 4.29983 50.2002C3.94832 49.8487 3.75059 49.3721 3.75 48.875V11.375H1.875V48.875C1.87612 49.8692 2.27156 50.8224 2.97458 51.5254C3.6776 52.2284 4.63078 52.6239 5.625 52.625ZM18.75 7.625H44.0625C45.0567 7.62612 46.0099 8.02156 46.7129 8.72458C47.4159 9.4276 47.8114 10.3808 47.8125 11.375V54.5C47.8114 55.4942 47.4159 56.4474 46.7129 57.1504C46.0099 57.8534 45.0567 58.2489 44.0625 58.25H12.1875C11.1933 58.2489 10.2401 57.8534 9.53708 57.1504C8.83406 56.4474 8.43862 55.4942 8.4375 54.5V17.9375C8.4375 17.8144 8.46174 17.6925 8.50885 17.5787C8.55596 17.465 8.62502 17.3616 8.71207 17.2746L18.0871 7.89957C18.1741 7.81252 18.2775 7.74346 18.3912 7.69635C18.505 7.64924 18.6269 7.625 18.75 7.625ZM11.6382 17H15.9375C16.4346 16.9994 16.9112 16.8017 17.2627 16.4502C17.6142 16.0987 17.8119 15.6221 17.8125 15.125V10.8257L11.6382 17ZM19.6875 15.125C19.6864 16.1192 19.2909 17.0724 18.5879 17.7754C17.8849 18.4784 16.9317 18.8739 15.9375 18.875H10.3125V54.5C10.3131 54.9971 10.5108 55.4737 10.8623 55.8252C11.2138 56.1767 11.6904 56.3744 12.1875 56.375H44.0625C44.5596 56.3744 45.0362 56.1767 45.3877 55.8252C45.7392 55.4737 45.9369 54.9971 45.9375 54.5V11.375C45.9369 10.8779 45.7392 10.4013 45.3877 10.0498C45.0362 9.69832 44.5596 9.50059 44.0625 9.5H19.6875V15.125ZM22.5 17.9375C22.4951 17.5629 22.5782 17.1925 22.7426 16.8559C22.907 16.5193 23.1482 16.2261 23.4466 15.9997C23.4007 15.6288 23.4399 15.2523 23.5614 14.8989C23.6828 14.5454 23.8833 14.2244 24.1476 13.9601C24.4119 13.6958 24.7329 13.4953 25.0864 13.3739C25.4398 13.2524 25.8163 13.2132 26.1872 13.2591C26.4169 12.9644 26.7109 12.7259 27.0467 12.5618C27.3825 12.3978 27.7513 12.3125 28.125 12.3125C28.4987 12.3125 28.8675 12.3978 29.2033 12.5618C29.5391 12.7259 29.8331 12.9644 30.0628 13.2591C30.4337 13.2132 30.8102 13.2524 31.1636 13.3739C31.5171 13.4953 31.8381 13.6958 32.1024 13.9601C32.3667 14.2244 32.5672 14.5454 32.6886 14.8989C32.8101 15.2523 32.8493 15.6288 32.8034 15.9997C33.0982 16.2294 33.3366 16.5234 33.5007 16.8592C33.6647 17.195 33.75 17.5638 33.75 17.9375C33.75 18.3112 33.6647 18.68 33.5007 19.0158C33.3366 19.3516 33.0982 19.6456 32.8034 19.8753C32.8493 20.2462 32.8101 20.6227 32.6886 20.9761C32.5672 21.3296 32.3667 21.6506 32.1024 21.9149C31.8381 22.1792 31.5171 22.3797 31.1636 22.5011C30.8102 22.6226 30.4337 22.6618 30.0628 22.6159C29.8331 22.9107 29.5391 23.1491 29.2033 23.3132C28.8675 23.4772 28.4987 23.5625 28.125 23.5625C27.7513 23.5625 27.3825 23.4772 27.0467 23.3132C26.7109 23.1491 26.4169 22.9107 26.1872 22.6159C25.8163 22.6618 25.4398 22.6226 25.0864 22.5011C24.7329 22.3797 24.4119 22.1792 24.1476 21.9149C23.8833 21.6506 23.6828 21.3296 23.5614 20.9761C23.4399 20.6227 23.4007 20.2462 23.4466 19.8753C23.1482 19.6489 22.907 19.3557 22.7426 19.0191C22.5782 18.6825 22.4951 18.3121 22.5 17.9375ZM24.375 17.9375C24.3689 18.0656 24.4098 18.1915 24.4898 18.2917C24.5699 18.3918 24.6837 18.4594 24.81 18.4817C24.9564 18.5148 25.0926 18.5826 25.2074 18.6793C25.3221 18.776 25.412 18.8988 25.4694 19.0374C25.5268 19.1761 25.5501 19.3265 25.5373 19.476C25.5245 19.6255 25.476 19.7698 25.3959 19.8966C25.3283 20.0037 25.299 20.1306 25.313 20.2564C25.3271 20.3823 25.3835 20.4996 25.473 20.5892C25.5625 20.6787 25.6798 20.7352 25.8057 20.7492C25.9316 20.7633 26.0584 20.7341 26.1655 20.6664C26.2924 20.5863 26.4367 20.5378 26.5862 20.525C26.7357 20.5122 26.8861 20.5355 27.0248 20.5929C27.1634 20.6503 27.2863 20.7402 27.383 20.8549C27.4797 20.9697 27.5475 21.106 27.5805 21.2524C27.6084 21.3759 27.6775 21.4862 27.7764 21.5653C27.8753 21.6443 27.9982 21.6874 28.1248 21.6874C28.2514 21.6874 28.3742 21.6443 28.4731 21.5653C28.572 21.4862 28.6411 21.3759 28.669 21.2524C28.7021 21.106 28.7698 20.9697 28.8665 20.8549C28.9632 20.7402 29.0861 20.6503 29.2247 20.5929C29.3634 20.5355 29.5138 20.5122 29.6633 20.525C29.8129 20.5378 29.9571 20.5863 30.084 20.6664C30.1911 20.7341 30.318 20.7633 30.4438 20.7493C30.5697 20.7353 30.687 20.6788 30.7766 20.5893C30.8661 20.4998 30.9225 20.3824 30.9365 20.2566C30.9506 20.1307 30.9214 20.0038 30.8537 19.8968C30.7736 19.7699 30.7251 19.6256 30.7123 19.4761C30.6995 19.3265 30.7228 19.1761 30.7802 19.0375C30.8376 18.8988 30.9275 18.776 31.0422 18.6793C31.157 18.5826 31.2933 18.5148 31.4396 18.4817C31.5631 18.4538 31.6735 18.3848 31.7525 18.2859C31.8316 18.187 31.8746 18.0641 31.8746 17.9375C31.8746 17.8109 31.8316 17.688 31.7525 17.5891C31.6735 17.4902 31.5631 17.4212 31.4396 17.3933C31.2933 17.3602 31.157 17.2924 31.0422 17.1957C30.9275 17.099 30.8376 16.9762 30.7802 16.8375C30.7228 16.6989 30.6995 16.5485 30.7123 16.3989C30.7251 16.2494 30.7736 16.1051 30.8537 15.9782C30.9214 15.8712 30.9506 15.7443 30.9365 15.6184C30.9225 15.4926 30.8661 15.3752 30.7766 15.2857C30.687 15.1962 30.5697 15.1397 30.4438 15.1257C30.318 15.1117 30.1911 15.1409 30.084 15.2086C29.9571 15.2887 29.8129 15.3372 29.6633 15.35C29.5138 15.3628 29.3634 15.3395 29.2247 15.2821C29.0861 15.2247 28.9632 15.1348 28.8665 15.0201C28.7698 14.9053 28.7021 14.769 28.669 14.6226C28.6411 14.4991 28.572 14.3888 28.4731 14.3097C28.3742 14.2307 28.2514 14.1876 28.1248 14.1876C27.9982 14.1876 27.8753 14.2307 27.7764 14.3097C27.6775 14.3888 27.6084 14.4991 27.5805 14.6226C27.5475 14.769 27.4797 14.9053 27.383 15.0201C27.2863 15.1348 27.1634 15.2247 27.0248 15.2821C26.8861 15.3395 26.7357 15.3628 26.5862 15.35C26.4367 15.3372 26.2924 15.2887 26.1655 15.2086C26.0584 15.1409 25.9316 15.1117 25.8057 15.1258C25.6798 15.1398 25.5625 15.1963 25.473 15.2858C25.3835 15.3754 25.3271 15.4927 25.313 15.6186C25.299 15.7444 25.3283 15.8713 25.3959 15.9784C25.476 16.1052 25.5245 16.2495 25.5373 16.399C25.5501 16.5485 25.5268 16.6989 25.4694 16.8376C25.412 16.9762 25.3221 17.099 25.2074 17.1957C25.0926 17.2924 24.9564 17.3602 24.81 17.3933C24.6837 17.4156 24.5699 17.4832 24.4898 17.5833C24.4098 17.6835 24.3689 17.8094 24.375 17.9375ZM41.25 27.3125H18.75V29.1875H41.25V27.3125ZM16.875 27.3125H15V29.1875H16.875V27.3125ZM33.75 31.0625H18.75V32.9375H33.75V31.0625ZM35.625 32.9375H41.25V31.0625H35.625V32.9375ZM41.25 34.8125H18.75V36.6875H41.25V34.8125ZM16.875 34.8125H15V36.6875H16.875V34.8125ZM24.375 38.5625H18.75V40.4375H24.375V38.5625ZM26.25 40.4375H41.25V38.5625H26.25V40.4375ZM41.25 42.3125H18.75V44.1875H41.25V42.3125ZM16.875 42.3125H15V44.1875H16.875V42.3125ZM37.4062 48.6296C37.2679 48.4087 37.0737 48.2284 36.8432 48.1068C36.6127 47.9853 36.3541 47.9269 36.0938 47.9375C35.1921 47.9375 34.3828 48.569 33.7533 49.29C33.2243 48.132 32.381 47.9375 31.875 47.9375C29.9851 47.9375 28.5021 50.712 28.224 51.2682L29.9005 52.1076C30.4935 50.9279 31.453 49.8125 31.8739 49.8098C32.1238 49.9478 32.3412 50.9582 32.3438 51.6875C32.3438 51.8986 32.4151 52.1035 32.546 52.269C32.677 52.4345 32.86 52.551 33.0654 52.5996C33.2708 52.6482 33.4866 52.6261 33.6778 52.5368C33.8691 52.4475 34.0246 52.2963 34.1193 52.1076C34.5763 51.1982 35.2512 50.3272 35.7309 49.9757C35.6187 50.4222 35.4592 50.8555 35.2553 51.2682C35.1838 51.4111 35.1501 51.57 35.1572 51.7296C35.1644 51.8892 35.2123 52.0444 35.2963 52.1803C35.3803 52.3163 35.4977 52.4285 35.6372 52.5063C35.7768 52.5841 35.9339 52.625 36.0938 52.625H40.3125V50.75H37.4746C37.6875 50.011 37.7651 49.2103 37.4062 48.6296ZM18.1714 48.0085C18.0001 47.9375 17.8116 47.919 17.6297 47.9551C17.4479 47.9913 17.2808 48.0806 17.1497 48.2117L15.9375 49.4243V47.9375H14.0625V51.6875C14.0625 51.8729 14.1175 52.0542 14.2205 52.2084C14.3235 52.3625 14.4699 52.4827 14.6412 52.5537C14.8125 52.6246 15.001 52.6432 15.1829 52.607C15.3648 52.5708 15.5318 52.4815 15.6629 52.3504L16.875 51.1382V51.6875C16.875 51.8729 16.93 52.0542 17.033 52.2084C17.136 52.3625 17.2824 52.4827 17.4537 52.5537C17.625 52.6246 17.8135 52.6432 17.9954 52.607C18.1773 52.5708 18.3443 52.4815 18.4754 52.3504L19.6875 51.1382V51.6875C19.6875 51.8616 19.736 52.0323 19.8275 52.1804C19.919 52.3285 20.05 52.4482 20.2057 52.526C20.3615 52.6039 20.5358 52.6368 20.7092 52.6212C20.8826 52.6056 21.0482 52.542 21.1875 52.4375L24.9375 49.625L23.8125 48.125L21.5625 49.8125V48.875C21.5625 48.6896 21.5075 48.5083 21.4045 48.3541C21.3015 48.2 21.1551 48.0798 20.9838 48.0088C20.8125 47.9379 20.624 47.9193 20.4421 47.9555C20.2602 47.9917 20.0932 48.081 19.9621 48.2121L18.75 49.4243V48.875C18.75 48.6896 18.695 48.5083 18.592 48.3542C18.489 48.2 18.3426 48.0798 18.1713 48.0089L18.1714 48.0085ZM24.375 52.625H26.25V50.75H24.375V52.625ZM49.7872 47.4189C49.7217 47.289 49.6876 47.1455 49.6875 47V23.5625C49.6875 22.8166 49.9838 22.1012 50.5113 21.5738C51.0387 21.0463 51.7541 20.75 52.5 20.75C53.2459 20.75 53.9613 21.0463 54.4887 21.5738C55.0162 22.1012 55.3125 22.8166 55.3125 23.5625V47C55.3124 47.1455 55.2783 47.289 55.2128 47.4189H55.2135L53.3385 51.1689C53.2606 51.3246 53.1409 51.4556 52.9928 51.5471C52.8447 51.6386 52.6741 51.6871 52.5 51.6871C52.3259 51.6871 52.1553 51.6386 52.0072 51.5471C51.8591 51.4556 51.7394 51.3246 51.6615 51.1689L49.7865 47.4189H49.7872ZM52.8575 47.9375H52.1413L52.5 48.6536L52.8575 47.9375ZM51.5625 24.5H53.4375V23.5625C53.4375 23.3139 53.3387 23.0754 53.1629 22.8996C52.9871 22.7238 52.7486 22.625 52.5 22.625C52.2514 22.625 52.0129 22.7238 51.8371 22.8996C51.6613 23.0754 51.5625 23.3139 51.5625 23.5625V24.5ZM51.5625 38.5625H53.4375V26.375H51.5625V38.5625ZM51.5625 46.0625H53.4375V40.4375H51.5625V46.0625Z" fill="#CD1E19"/>
</svg>
