<svg width="12" height="11" viewBox="0 0 12 11" fill="none" xmlns="http://www.w3.org/2000/svg">
<path d="M11.5996 4.13829L8.27417 3.70586L6.78761 1.00938C6.74701 0.935551 6.68021 0.875786 6.5977 0.839457C6.39076 0.748051 6.13929 0.824223 6.03582 1.00938L4.54926 3.70586L1.22382 4.13829C1.13214 4.15 1.04832 4.18868 0.984139 4.24727C0.906552 4.31862 0.863798 4.41461 0.865271 4.51415C0.866745 4.6137 0.912325 4.70864 0.991997 4.77813L3.39799 6.87696L2.82957 9.84063C2.81624 9.90957 2.82476 9.98047 2.85418 10.0453C2.88359 10.1101 2.93272 10.1663 2.99599 10.2074C3.05926 10.2485 3.13414 10.2729 3.21214 10.2779C3.29014 10.2829 3.36814 10.2682 3.43729 10.2355L6.41171 8.83633L9.38614 10.2355C9.46734 10.2742 9.56164 10.2871 9.65202 10.273C9.87991 10.2379 10.0332 10.0445 9.99386 9.84063L9.42543 6.87696L11.8314 4.77813C11.8969 4.72071 11.9401 4.64571 11.9532 4.56368C11.9886 4.3586 11.8288 4.16875 11.5996 4.13829Z" fill="#d7d7d7"/>
</svg>
