<svg width="60" height="60" viewBox="0 0 60 60" fill="none"
  xmlns="http://www.w3.org/2000/svg">
  <g clip-path="url(#clip29)">
    <path d="M30 25.3888C30.6472 25.3888 31.1719 24.8641 31.1719 24.2169C31.1719 23.5697 30.6472 23.045 30 23.045C29.3528 23.045 28.8281 23.5697 28.8281 24.2169C28.8281 24.8641 29.3528 25.3888 30 25.3888Z" fill="#CD1E19"/>
    <path d="M41.1296 38.8077L44.1327 40.0959C44.4189 40.2187 44.7424 40.2227 45.0313 40.1072C45.3205 39.9916 45.5519 39.7659 45.6746 39.4796L47.6712 34.8239C47.9268 34.2279 47.6509 33.5376 47.055 33.282L44.0522 31.9938C44.2255 30.7858 44.2411 29.5692 44.0982 28.3585L47.1315 27.146C47.7335 26.9053 48.0266 26.2222 47.786 25.6201L45.907 20.9163C45.7916 20.6271 45.5658 20.3955 45.2796 20.2728C44.9934 20.1499 44.6701 20.1459 44.3809 20.2616L41.3478 21.474C40.6162 20.4976 39.7662 19.6263 38.8077 18.8708L40.0958 15.8683C40.3514 15.2724 40.0757 14.5822 39.4799 14.3264L34.8253 12.3287C34.539 12.206 34.2158 12.2019 33.9266 12.3173C33.6374 12.4329 33.4059 12.6586 33.2831 12.9449L31.9948 15.948C30.7855 15.7748 29.5685 15.7594 28.3585 15.9017L27.146 12.8683C26.9054 12.2662 26.2221 11.9734 25.6199 12.2138L20.9161 14.0941C20.627 14.2097 20.3955 14.4354 20.2728 14.7217C20.1501 15.0078 20.146 15.3312 20.2617 15.6203L21.4741 18.6532C20.4995 19.3835 19.6284 20.2333 18.8716 21.1923L15.8685 19.904C15.5823 19.7813 15.259 19.7772 14.9698 19.8928C14.6805 20.0083 14.4491 20.234 14.3264 20.5203L12.3299 25.1762C12.0743 25.7721 12.3501 26.4624 12.946 26.718L15.9489 28.0062C15.7754 29.214 15.76 30.4306 15.9028 31.6414L12.8695 32.854C12.2675 33.0947 11.9744 33.7778 12.2149 34.3799L14.0939 39.0837C14.2094 39.3729 14.4351 39.6044 14.7214 39.7271C15.0077 39.8499 15.3309 39.854 15.6201 39.7384L18.6532 38.526C19.3847 39.5024 20.2349 40.3737 21.1932 41.1292L19.9052 44.1316C19.6495 44.7275 19.9254 45.4179 20.5212 45.6736L25.1757 47.6713C25.4619 47.7941 25.7852 47.7981 26.0744 47.6826C26.3637 47.5671 26.5951 47.3414 26.7179 47.0551L28.0063 44.0518C29.2157 44.225 30.4326 44.2406 31.6425 44.0982L32.8551 47.1316C33.0388 47.5909 33.4796 47.8703 33.9457 47.8703C34.0908 47.8703 34.2383 47.8432 34.3812 47.7861L39.0851 45.9058C39.3743 45.7903 39.6056 45.5646 39.7283 45.2783C39.8511 44.9921 39.8551 44.6688 39.7394 44.3797L38.5271 41.3468C39.5019 40.6165 40.3727 39.7667 41.1296 38.8077ZM39.7679 36.698C38.88 37.9946 37.7646 39.0826 36.4529 39.9317C35.9818 40.2367 35.7925 40.8322 36.0008 41.3532L37.1232 44.1612L34.6 45.1698L33.4774 42.3619C33.2967 41.9097 32.8604 41.6235 32.3878 41.6235C32.316 41.6235 32.2433 41.63 32.1708 41.6437C30.634 41.932 29.0757 41.9122 27.5392 41.5849C26.9906 41.4683 26.4364 41.7553 26.2155 42.2704L25.023 45.0503L22.5265 43.9788L23.7191 41.1987C23.9403 40.683 23.7657 40.0828 23.3025 39.7663C22.0082 38.882 20.9201 37.7667 20.0684 36.4517C19.7633 35.9809 19.1681 35.7916 18.647 35.9997L15.8394 37.122L14.8315 34.599L17.6396 33.4765C18.1604 33.2682 18.4614 32.7207 18.3578 32.1695C18.0689 30.6308 18.0886 29.0733 18.4164 27.5401C18.5337 26.9915 18.2466 26.4367 17.731 26.2155L14.9509 25.0228L16.0219 22.5252L18.8017 23.7177C19.3166 23.9387 19.9165 23.7647 20.2334 23.3021C21.1213 22.0056 22.2366 20.9176 23.5484 20.0683C24.0193 19.7634 24.2088 19.1679 24.0006 18.6469L22.8782 15.8389L25.4014 14.8303L26.5239 17.6382C26.732 18.159 27.2796 18.4599 27.8307 18.3565C29.3674 18.0681 30.9258 18.088 32.4622 18.4152C33.011 18.5322 33.565 18.2449 33.786 17.7297L34.9785 14.9499L37.475 16.0215L36.2823 18.8017C36.0612 19.3173 36.2358 19.9175 36.699 20.234C37.9934 21.1183 39.0816 22.2336 39.9332 23.5485C40.2383 24.0194 40.8339 24.2087 41.3545 24.0005L44.1622 22.8781L45.1702 25.4012L42.3619 26.5237C41.8411 26.732 41.5401 27.2795 41.6437 27.8308C41.9327 29.369 41.9129 30.9266 41.5851 32.4601C41.468 33.0087 41.755 33.5634 42.2705 33.7846L45.0506 34.9772L43.9795 37.4748L41.1998 36.2823C40.6844 36.061 40.0848 36.2352 39.7679 36.698Z" fill="#CD1E19"/>
    <path d="M35.611 25.8973C35.2287 25.3737 34.494 25.2593 33.9704 25.6416C33.4466 26.0241 33.3322 26.7586 33.7147 27.2823C33.9541 27.6102 34.1499 27.9709 34.2969 28.3545C35.2038 30.7238 34.0146 33.3892 31.6459 34.2964C30.498 34.7362 29.2479 34.7026 28.1252 34.2019C27.0028 33.7012 26.1426 32.7933 25.7033 31.6456C25.1483 30.1957 25.3582 28.576 26.2648 27.3127C26.6429 26.7858 26.5222 26.0522 25.9953 25.6742C25.4686 25.296 24.7349 25.4167 24.3568 25.9436C22.9885 27.8502 22.672 30.2956 23.5101 32.485C24.1738 34.2188 25.473 35.5901 27.1685 36.3464C28.074 36.7504 29.0344 36.953 29.9969 36.953C30.8367 36.953 31.6781 36.7987 32.4859 36.4892C36.0634 35.1191 37.8598 31.0933 36.4899 27.5149C36.2688 26.9372 35.9732 26.393 35.611 25.8973Z" fill="#CD1E19"/>
    <path d="M7.24414 30C7.24414 28.0422 5.65133 26.4492 3.69336 26.4492C1.73539 26.4492 0.142578 28.042 0.142578 30C0.142578 31.958 1.73539 33.5508 3.69336 33.5508C5.65133 33.5508 7.24414 31.9579 7.24414 30ZM2.4909 30C2.4909 29.337 3.03031 28.7975 3.69336 28.7975C4.35641 28.7975 4.89582 29.337 4.89582 30C4.89582 30.6631 4.35641 31.2025 3.69336 31.2025C3.03031 31.2025 2.4909 30.6631 2.4909 30Z" fill="#CD1E19"/>
    <path d="M56.3075 26.4492C54.3496 26.4492 52.7568 28.042 52.7568 30C52.7568 31.958 54.3496 33.5508 56.3075 33.5508C58.2654 33.5508 59.8582 31.958 59.8582 30C59.8582 28.042 58.2654 26.4492 56.3075 26.4492ZM56.3075 31.2025C55.6445 31.2025 55.1052 30.6631 55.1052 30C55.1052 29.337 55.6446 28.7975 56.3075 28.7975C56.9704 28.7975 57.5098 29.337 57.5098 30C57.5098 30.6631 56.9704 31.2025 56.3075 31.2025Z" fill="#CD1E19"/>
    <path d="M27.6234 7.10156H32.3766C33.025 7.10156 33.5508 6.57586 33.5508 5.92734V1.17422C33.5508 0.525703 33.025 0 32.3766 0H27.6234C26.9749 0 26.4492 0.525703 26.4492 1.17422V5.92734C26.4492 6.57586 26.9749 7.10156 27.6234 7.10156ZM28.7975 2.34832H31.2024V4.75324H28.7975V2.34832Z" fill="#CD1E19"/>
    <path d="M31.017 51.0351C30.8072 50.6718 30.4196 50.448 30.0001 50.448C29.5806 50.448 29.1931 50.6718 28.9833 51.0351L24.8243 58.2387C24.6146 58.602 24.6146 59.0497 24.8243 59.413C25.0341 59.7762 25.4216 60.0001 25.8412 60.0001H34.1591C34.5785 60.0001 34.9662 59.7764 35.176 59.413C35.3857 59.0497 35.3857 58.6021 35.176 58.2387L31.017 51.0351ZM27.8748 57.6516L30.0001 53.9704L32.1255 57.6515H27.8748V57.6516Z" fill="#CD1E19"/>
    <path d="M2.66867 22.3523C2.79089 22.3926 2.91488 22.4118 3.03687 22.4118C3.52976 22.4118 3.98867 22.099 4.15167 21.6053C5.22382 18.3577 6.88496 15.391 9.08914 12.7875C11.1247 10.3832 13.5287 8.39982 16.2419 6.88364L15.7139 9.33251C15.5772 9.96638 15.9802 10.5911 16.6141 10.7279C16.6975 10.7459 16.7807 10.7545 16.8628 10.7545C17.4039 10.7545 17.8907 10.3781 18.0094 9.82763L19.0837 4.8454C19.2119 4.25056 18.8646 3.65642 18.2833 3.4763L13.4889 1.99107C12.8695 1.79899 12.2118 2.14587 12.0199 2.76521C11.828 3.38466 12.1746 4.04232 12.794 4.23427L14.9675 4.90751C12.0608 6.55177 9.48289 8.68821 7.29699 11.2702C4.89734 14.1046 3.08878 17.3342 1.92183 20.8692C1.71851 21.485 2.05285 22.149 2.66867 22.3523Z" fill="#CD1E19"/>
    <path d="M38.4715 5.84029C41.7191 6.91244 44.6858 8.57357 47.2893 10.7778C49.6936 12.8133 51.677 15.2173 53.193 17.9304L50.7442 17.4024C50.1102 17.2656 49.4856 17.6687 49.3489 18.3026C49.2123 18.9366 49.6153 19.5612 50.2493 19.6979C50.2493 19.6979 55.3977 20.7988 55.4797 20.7988C55.9842 20.7988 56.4457 20.4719 56.6005 19.9719L58.0857 15.1776C58.2777 14.5581 57.9311 13.9004 57.3116 13.7085C56.6924 13.5169 56.0345 13.8632 55.8427 14.4826L55.1693 16.6561C53.525 13.7495 51.3887 11.1715 48.8067 8.98548C45.9723 6.58584 42.7427 4.77728 39.2077 3.61033C38.5916 3.40724 37.9279 3.74146 37.7245 4.35728C37.5212 4.97298 37.8558 5.63697 38.4715 5.84029Z" fill="#CD1E19"/>
    <path d="M57.3322 36.4912C56.7168 36.2884 56.0524 36.6222 55.8491 37.2382C54.7769 40.4858 53.1157 43.4525 50.9116 46.056C48.8761 48.4602 46.4721 50.4436 43.759 51.9597L44.287 49.5109C44.4237 48.8769 44.0206 48.2523 43.3867 48.1155C42.7529 47.9786 42.1281 48.3819 41.9914 49.0158L40.9172 53.998C40.789 54.5928 41.1363 55.1871 41.7176 55.3671C41.7176 55.3671 46.7447 56.9052 46.8599 56.9052C47.361 56.9052 47.8251 56.5818 47.9811 56.0782C48.1731 55.4587 47.8264 54.8011 47.207 54.6091L45.0335 53.9359C47.9401 52.2916 50.5181 50.1553 52.704 47.5733C55.1038 44.739 56.9122 41.5093 58.0793 37.9744C58.2825 37.3587 57.948 36.6946 57.3322 36.4912Z" fill="#CD1E19"/>
    <path d="M21.5293 53.0033C18.2817 51.9311 15.315 50.27 12.7116 48.0658C10.3073 46.0302 8.32393 43.6263 6.80776 40.913L9.25663 41.4411C9.89038 41.5778 10.5153 41.1746 10.652 40.5408C10.7886 39.9068 10.3856 39.2822 9.75175 39.1455L4.76952 38.0712C4.17479 37.943 3.58042 38.2904 3.40042 38.8716L1.91518 43.666C1.72335 44.2854 2.06987 44.9431 2.68932 45.1351C2.80499 45.1709 2.92206 45.188 3.03714 45.1879C3.53811 45.1879 4.00229 44.8646 4.15839 44.3609L4.83163 42.1874C6.47589 45.0942 8.61221 47.672 11.1943 49.8581C14.0286 52.2577 17.2583 54.0661 20.7933 55.2332C20.9155 55.2735 21.0395 55.2927 21.1615 55.2927C21.6544 55.2927 22.1133 54.98 22.2763 54.4863C22.4795 53.8704 22.145 53.2065 21.5293 53.0033Z" fill="#CD1E19"/>
  </g>
  <defs>
    <clipPath id="clip29">
      <rect width="60" height="60" fill="white"/>
    </clipPath>
  </defs>
</svg>
