<svg width="27" height="23" viewBox="0 0 27 23" fill="none" xmlns="http://www.w3.org/2000/svg">
<path d="M0.466662 11.0274L6.55057 13.299L8.91017 20.8708C9.05984 21.3551 9.65855 21.5312 10.0459 21.2142L13.4357 18.4496C13.7879 18.159 14.2985 18.1414 14.6683 18.4144L20.7874 22.8606C21.21 23.1688 21.8087 22.9399 21.9144 22.4292L26.3959 0.867023C26.5103 0.31234 25.9645 -0.154298 25.4362 0.0482055L0.457857 9.68912C-0.158457 9.92685 -0.149653 10.7985 0.466662 11.0274ZM8.53158 12.0928L20.4264 4.76741C20.6378 4.63535 20.8579 4.92589 20.673 5.09318L10.856 14.2234C10.5126 14.5404 10.2925 14.9718 10.222 15.4385L9.88747 17.9125C9.84344 18.2471 9.37681 18.2735 9.28876 17.9565L8.00331 13.4398C7.86243 12.9292 8.07374 12.3745 8.53158 12.0928Z" fill="#2CA5E0"/>
</svg>
