<svg width="14" height="14" viewBox="0 0 14 14" fill="none" xmlns="http://www.w3.org/2000/svg">
<mask id="path-1-inside-1_874_168" fill="white">
<path d="M7 0C3.1402 0 0 3.1402 0 7C0 10.8598 3.1402 14 7 14C10.8598 14 14 10.8598 14 7C14 3.1402 10.8598 0 7 0ZM7 13.5333C3.39757 13.5333 0.466667 10.6024 0.466667 7C0.466667 3.39757 3.39757 0.466667 7 0.466667C10.6024 0.466667 13.5333 3.39757 13.5333 7C13.5333 10.6024 10.6024 13.5333 7 13.5333Z"/>
</mask>
<path d="M7 -1C2.58792 -1 -1 2.58792 -1 7H1C1 3.69248 3.69248 1 7 1V-1ZM-1 7C-1 11.4121 2.58792 15 7 15V13C3.69248 13 1 10.3075 1 7H-1ZM7 15C11.4121 15 15 11.4121 15 7H13C13 10.3075 10.3075 13 7 13V15ZM15 7C15 2.58792 11.4121 -1 7 -1V1C10.3075 1 13 3.69248 13 7H15ZM7 12.5333C3.94985 12.5333 1.46667 10.0501 1.46667 7H-0.533333C-0.533333 11.1547 2.84528 14.5333 7 14.5333V12.5333ZM1.46667 7C1.46667 3.94985 3.94985 1.46667 7 1.46667V-0.533333C2.84528 -0.533333 -0.533333 2.84528 -0.533333 7H1.46667ZM7 1.46667C10.0501 1.46667 12.5333 3.94985 12.5333 7H14.5333C14.5333 2.84528 11.1547 -0.533333 7 -0.533333V1.46667ZM12.5333 7C12.5333 10.0501 10.0501 12.5333 7 12.5333V14.5333C11.1547 14.5333 14.5333 11.1547 14.5333 7H12.5333Z" fill="#EC1C20" mask="url(#path-1-inside-1_874_168)"/>
<mask id="path-3-inside-2_874_168" fill="white">
<path d="M6.99987 1.3999C6.87107 1.3999 6.76654 1.5042 6.76654 1.63324V6.9999H3.26654C3.13774 6.9999 3.0332 7.1042 3.0332 7.23324C3.0332 7.36227 3.13774 7.46657 3.26654 7.46657H6.99987C7.12867 7.46657 7.2332 7.36227 7.2332 7.23324V1.63324C7.2332 1.5042 7.12867 1.3999 6.99987 1.3999Z"/>
</mask>
<path d="M6.76654 6.9999V7.9999H7.76654V6.9999H6.76654ZM6.99987 0.399902C6.31944 0.399902 5.76654 0.951266 5.76654 1.63324H7.76654C7.76654 2.05714 7.4227 2.3999 6.99987 2.3999V0.399902ZM5.76654 1.63324V6.9999H7.76654V1.63324H5.76654ZM6.76654 5.9999H3.26654V7.9999H6.76654V5.9999ZM3.26654 5.9999C2.5861 5.9999 2.0332 6.55127 2.0332 7.23324H4.0332C4.0332 7.65714 3.68937 7.9999 3.26654 7.9999V5.9999ZM2.0332 7.23324C2.0332 7.91521 2.5861 8.46657 3.26654 8.46657V6.46657C3.68937 6.46657 4.0332 6.80933 4.0332 7.23324H2.0332ZM3.26654 8.46657H6.99987V6.46657H3.26654V8.46657ZM6.99987 8.46657C7.6803 8.46657 8.2332 7.91521 8.2332 7.23324H6.2332C6.2332 6.80933 6.57704 6.46657 6.99987 6.46657V8.46657ZM8.2332 7.23324V1.63324H6.2332V7.23324H8.2332ZM8.2332 1.63324C8.2332 0.951266 7.6803 0.399902 6.99987 0.399902V2.3999C6.57704 2.3999 6.2332 2.05714 6.2332 1.63324H8.2332Z" fill="#EC1C20" mask="url(#path-3-inside-2_874_168)"/>
</svg>
