<svg width="50" height="50" viewBox="0 0 50 50" fill="none"
  xmlns="http://www.w3.org/2000/svg">
  <g clip-path="url(#clip32)">
    <path d="M14.1665 29.9995H7.5V31.6662H14.1665V29.9995Z" fill="#CD1E19"/>
    <path d="M49.9103 39.6266L47.4104 34.6267C47.2692 34.3443 46.9806 34.1661 46.665 34.1661H41.6651V31.6661C41.6651 31.2059 41.2919 30.8328 40.8317 30.8328H24.1654C23.7051 30.8328 23.332 31.2059 23.332 31.6661V46.6659C23.332 47.1261 23.7051 47.4992 24.1654 47.4992H27.617C28.0682 49.2748 29.8735 50.3484 31.649 49.8971C32.8273 49.5976 33.7474 48.6776 34.0469 47.4992H40.1167C40.568 49.2748 42.3733 50.3484 44.1488 49.8971C45.3271 49.5976 46.2472 48.6776 46.5466 47.4992H49.1649C49.6251 47.4992 49.9983 47.1261 49.9983 46.6659V39.9994C49.9983 39.87 49.9681 39.7424 49.9103 39.6266ZM30.8319 48.3326C29.9114 48.3326 29.1653 47.5864 29.1653 46.6659C29.1653 45.7454 29.9114 44.9993 30.8319 44.9993C31.7524 44.9993 32.4985 45.7454 32.4985 46.6659C32.4976 47.586 31.752 48.3316 30.8319 48.3326ZM39.9984 45.8326H34.0469C33.669 44.3647 32.3476 43.3372 30.8319 43.3326C29.3162 43.3372 27.9948 44.3647 27.617 45.8326H24.9987V32.4995H39.9984V45.8326ZM44.9983 35.8327H46.1499L47.8166 39.166H44.9983V35.8327ZM43.3317 48.3326C42.4112 48.3326 41.6651 47.5864 41.6651 46.6659C41.6651 45.7454 42.4112 44.9993 43.3317 44.9993C44.2522 44.9993 44.9983 45.7454 44.9983 46.6659C44.9974 47.586 44.2518 48.3316 43.3317 48.3326ZM48.3316 45.8326H46.5466C46.1688 44.3647 44.8474 43.3372 43.3317 43.3326C42.7447 43.336 42.1694 43.4961 41.6651 43.7964V35.8327H43.3317V39.9994C43.3317 40.4596 43.7048 40.8327 44.165 40.8327H48.3316V45.8326Z" fill="#CD1E19"/>
    <path d="M19.9978 11.6664H18.332V13.3331H19.9978V11.6664Z" fill="#CD1E19"/>
    <path d="M23.3318 11.6664H21.666V13.3331H23.3318V11.6664Z" fill="#CD1E19"/>
    <path d="M26.6658 11.6664H25V13.3331H26.6658V11.6664Z" fill="#CD1E19"/>
    <path d="M29.9978 11.6664H28.332V13.3331H29.9978V11.6664Z" fill="#CD1E19"/>
    <path d="M45.9038 13.919L43.3221 11.3369C41.4026 9.41984 38.8027 8.34007 36.0899 8.33319H29.6269L25.7052 2.05851C25.5528 1.81487 25.2858 1.66674 24.9984 1.66664H22.4985C22.0381 1.66685 21.6649 2.04028 21.6651 2.50079C21.6651 2.56871 21.6735 2.63631 21.6899 2.70225L23.0977 8.33319H16.452L14.1303 0.594053C14.0245 0.241454 13.7 0 13.3319 0H9.16535C8.70515 0 8.33203 0.373119 8.33203 0.833319V9.16651H8.33984C8.33714 9.38651 8.42213 9.59859 8.57619 9.75567L13.7844 14.9639C15.9333 17.1268 18.858 18.3399 21.9068 18.333H22.1338L20.0632 22.9948C19.8764 23.4153 20.0659 23.9077 20.4864 24.0946C20.5109 24.1054 20.5358 24.1151 20.5612 24.1236L23.0595 24.9569C23.4095 25.0734 23.7944 24.9461 24.0059 24.644L28.4209 18.333H44.0732C45.5007 18.3356 46.6599 17.1807 46.6626 15.7532C46.6639 15.0652 46.3908 14.4051 45.9038 13.919ZM24.5366 3.33328L27.6615 8.33319H24.8158L23.5657 3.33328H24.5366ZM9.99867 1.66664H12.7119L14.7118 8.33319H9.99867V1.66664ZM22.9969 23.1791L21.9589 22.8328L24.6977 16.6664H27.5529L22.9969 23.1791ZM44.9281 16.0951C44.7892 16.4445 44.449 16.6718 44.0732 16.6664H29.5868L29.8355 16.3108C30.0993 15.9336 30.0073 15.4139 29.6301 15.1502C29.4901 15.0524 29.3236 14.9998 29.1527 14.9998H24.156C23.8266 14.9998 23.528 15.1938 23.3944 15.495L22.8741 16.6664H21.9068C19.3003 16.6721 16.7998 15.6347 14.9628 13.7856L11.177 9.99983H36.0899C37.9067 10.0076 39.6743 10.5912 41.1388 11.6665H34.9983V13.3331H42.9607L44.7275 15.0999C44.9943 15.3579 45.0742 15.7539 44.9281 16.0951Z" fill="#CD1E19"/>
    <path d="M20.4274 47.7201C19.9027 47.1567 19.1989 46.7925 18.4359 46.6894L21.618 37.7797C21.7725 37.3456 21.546 36.8686 21.1119 36.714C21.1069 36.7122 21.1018 36.7104 21.0967 36.7088L19.0647 36.0314L17.4864 27.3506C17.4144 26.9542 17.0692 26.6662 16.6665 26.6662H13.3332V24.1663C13.3332 23.7061 12.9601 23.3329 12.4999 23.3329H9.1666C8.7064 23.3329 8.33328 23.7061 8.33328 24.1663V26.6662H5.00001C4.5972 26.6662 4.2521 26.9543 4.18012 27.3506L2.60182 36.0314L0.569768 36.7088C0.132796 36.8549 -0.102825 37.3276 0.0433185 37.7645C0.0449852 37.7696 0.046756 37.7746 0.0485268 37.7797L3.23056 46.6897C2.4688 46.7935 1.76631 47.1575 1.24236 47.7201C0.940804 48.0999 0.484978 48.3247 9.00968e-05 48.3325V49.9992C0.903096 49.9943 1.76298 49.6122 2.37193 48.9453C2.67348 48.5652 3.12952 48.3403 3.61461 48.3325C3.79065 48.3311 3.96534 48.3637 4.12908 48.4285C4.13606 48.4316 4.14054 48.4383 4.14762 48.4412C4.40898 48.5714 4.64626 48.745 4.84949 48.9547C5.46469 49.6158 6.32551 49.9938 7.22862 49.9992C8.13141 49.9942 8.99109 49.6119 9.59962 48.9449C10.1239 48.2601 11.104 48.1299 11.7887 48.6541C11.8979 48.7376 11.9956 48.8353 12.0793 48.9445C12.6872 49.6117 13.5464 49.9941 14.449 49.9992C15.3516 49.9938 16.2118 49.6156 16.8261 48.9543C17.0275 48.7462 17.2626 48.5734 17.5215 48.4433C17.529 48.4401 17.5338 48.4331 17.541 48.4297C17.7052 48.3641 17.8805 48.3312 18.0573 48.3326C18.5412 48.3404 18.9961 48.5652 19.2963 48.945C19.9046 49.6119 20.7639 49.9941 21.6664 49.9993V48.3326C21.1824 48.3247 20.7276 48.0999 20.4274 47.7201ZM9.99992 24.9996H11.6666V26.6662H9.99992V24.9996ZM9.99992 46.7745C9.41764 46.9546 8.89088 47.28 8.46922 47.7201C7.9436 48.4057 6.96175 48.5352 6.27624 48.0096C6.16749 47.9263 6.0702 47.8289 5.98676 47.7201C5.72812 47.4674 5.44135 47.2452 5.13209 47.0578L1.90433 38.0206L9.99992 35.3223V46.7745ZM10.5696 33.3755L4.40502 35.4303L5.69541 28.3329H15.9711L17.2615 35.4303L11.0969 33.3755C10.9257 33.3185 10.7407 33.3185 10.5696 33.3755ZM16.5327 47.0632C16.2271 47.2497 15.9436 47.4703 15.6875 47.7206C15.1643 48.4046 14.1856 48.5349 13.5015 48.0117C13.3921 47.928 13.2941 47.83 13.2104 47.7206C12.7862 47.276 12.2545 46.9485 11.6667 46.7698V35.3223L19.7623 38.0206L16.5327 47.0632Z" fill="#CD1E19"/>
    <path d="M33.3318 11.6664H31.666V13.3331H33.3318V11.6664Z" fill="#CD1E19"/>
  </g>
  <defs>
    <clipPath id="clip32">
      <rect width="50" height="50" fill="white"/>
    </clipPath>
  </defs>
</svg>
