<svg width="27" height="27" viewBox="0 0 27 27" fill="none" xmlns="http://www.w3.org/2000/svg">
<path fill-rule="evenodd" clip-rule="evenodd" d="M25.5195 17.2416L25.5282 17.207C26.3069 13.6509 26.3069 10.043 25.5195 6.4956L25.5109 6.461C24.8879 3.91726 22.0414 1.18318 19.4371 0.61214L19.4111 0.603488C15.1975 -0.201163 10.9147 -0.201163 6.7011 0.603488L6.66649 0.61214C4.06219 1.18318 1.22428 3.91726 0.592673 6.461L0.584021 6.4956C-0.194674 10.0516 -0.194674 13.6596 0.584021 17.2156L0.592673 17.2502C1.19832 19.6901 3.82858 22.2944 6.33771 23.0126V25.8591C6.33771 26.8801 7.59227 27.3906 8.30175 26.6465L11.1829 23.6528C11.8145 23.6874 12.4375 23.7047 13.0604 23.7047C15.1889 23.7047 17.3086 23.4971 19.4198 23.0991L19.4457 23.0904C22.05 22.5194 24.8879 19.7853 25.5195 17.2416ZM7.15961 2.89719C11.0704 2.1531 15.0417 2.1531 18.9612 2.89719C20.6743 3.27788 22.8287 5.34575 23.2526 7.00696C23.9535 10.2256 23.9535 13.4874 23.2526 16.6974C22.8287 18.3586 20.6743 20.4265 18.9612 20.8071C16.7202 21.2311 14.462 21.4128 12.2038 21.3522C12.1606 21.3522 12.1173 21.3695 12.0827 21.4041C11.7626 21.7329 9.98022 23.5585 9.98022 23.5585L7.73931 25.8514C7.57492 26.0244 7.28939 25.9033 7.28939 25.6697V20.9629C7.28939 20.885 7.23748 20.8245 7.15961 20.8071C5.44649 20.4265 3.2921 18.3586 2.86814 16.6974C2.16732 13.4788 2.16732 10.2169 2.86814 7.00696C3.2921 5.34575 5.44649 3.27788 7.15961 2.89719ZM17.4643 18.6528C18.1825 18.2634 18.6756 17.6578 19.0217 16.931C19.2034 16.533 19.0909 16.1523 18.7622 15.8668C18.4585 15.6011 18.1349 15.3687 17.8088 15.1345C17.7632 15.1018 17.7176 15.069 17.672 15.0362C17.2913 14.7593 16.9106 14.4911 16.5126 14.2402C16.1146 13.9893 15.6474 13.9893 15.2753 14.2921C15.1407 14.4022 15.0321 14.547 14.9242 14.6908C14.7268 14.9536 14.5319 15.2133 14.1852 15.2525C13.8951 15.283 13.6454 15.1788 13.4004 15.0766C13.3678 15.063 13.3352 15.0494 13.3026 15.0362C11.5636 14.3094 10.508 12.9683 9.87639 11.2379C9.79852 11.0129 9.79852 10.7706 9.9283 10.563C9.99579 10.4533 10.0879 10.3766 10.1887 10.2926L10.1965 10.2861C10.2339 10.2568 10.2704 10.2275 10.3066 10.1984C10.3878 10.1331 10.4675 10.0691 10.5513 10.0093C11.0617 9.66317 11.1396 9.04022 10.8541 8.52974C10.3955 7.69913 9.83313 6.9464 9.21883 6.23692C8.9333 5.90814 8.55261 5.79566 8.16326 5.98601C7.67009 6.21962 7.20287 6.5484 6.84814 6.97235C6.45879 7.43092 6.10405 8.05387 6.34631 8.65087C6.61453 9.31709 6.88274 9.97465 7.19422 10.6149C7.86044 11.9646 8.63913 13.2365 9.64278 14.3613C11.4078 16.3426 13.6314 17.6318 16.0454 18.6355C16.2103 18.7088 16.3838 18.7562 16.563 18.8051C16.6376 18.8255 16.7131 18.8462 16.7895 18.8691C16.8579 18.8488 16.9271 18.8315 16.9958 18.8143C17.1614 18.7729 17.3237 18.7323 17.4643 18.6528ZM15.8637 11.2984H15.8983C15.9243 11.2984 15.9242 11.2984 15.9069 11.3071C16.0281 11.2898 16.1406 11.2033 16.1752 11.0475C16.1925 10.9523 16.1838 10.8485 16.1752 10.7447C16.054 9.29978 15.1802 8.66817 13.9516 8.58165C13.7612 8.56435 13.5795 8.70278 13.5536 8.88448C13.519 9.07483 13.6401 9.24787 13.8477 9.29978C13.9358 9.3198 14.0276 9.3287 14.1196 9.33763C14.2265 9.348 14.3338 9.35841 14.4361 9.3863C14.5832 9.42956 14.7303 9.49878 14.86 9.59396C15.1369 9.79296 15.3099 10.0958 15.3878 10.4159C15.4311 10.5803 15.4484 10.7447 15.4657 10.9177C15.4916 11.1513 15.6214 11.2898 15.8637 11.2984ZM13.9429 7.63857C14.3582 7.70779 14.7649 7.82026 15.1369 8.00196C15.7599 8.30478 16.2876 8.80661 16.6337 9.40361C16.9712 9.9833 17.1182 10.6582 17.1182 11.3244C17.1182 11.4282 17.1182 11.532 17.1529 11.6272C17.2653 11.9473 17.7412 11.9127 17.8277 11.5926C17.845 11.5349 17.8508 11.4772 17.8553 11.4324C17.8575 11.4099 17.8594 11.3907 17.8623 11.3763C17.845 11.1601 17.8364 10.9957 17.8277 10.8314L17.8277 10.8312C17.8234 10.7966 17.8169 10.7642 17.8104 10.7317C17.8039 10.6993 17.7974 10.6668 17.7931 10.6322C17.5768 9.17 16.8241 8.07118 15.5176 7.379C14.8773 7.04157 14.1765 6.88583 13.4497 6.84257C13.2248 6.83392 13.0777 6.981 13.069 7.18C13.0604 7.39631 13.1815 7.53474 13.3978 7.56935C13.5795 7.58665 13.7612 7.61261 13.9429 7.63857L13.9429 7.63857ZM18.8054 12.0944C18.8227 12.3194 18.9352 12.527 19.1861 12.527C19.437 12.5184 19.5668 12.3021 19.5409 12.0858C19.5358 12.0223 19.5309 11.959 19.526 11.8957C19.4887 11.4158 19.4519 10.9418 19.3678 10.4678C18.8198 7.37659 16.2802 5.29384 13.1665 5.15898C13.4079 5.16695 14.0015 5.18382 14.2896 5.19167C14.6174 5.2006 14.5499 5.19786 13.1186 5.15706C13.1021 5.15645 13.0856 5.1559 13.069 5.1554C13.073 5.1556 13.0785 5.15584 13.0852 5.15611C13.077 5.15587 13.0687 5.15564 13.0604 5.1554H12.8787C12.6537 5.16405 12.4547 5.3544 12.498 5.58801C12.546 5.85198 12.8011 5.8793 13.0171 5.90243C13.0347 5.90432 13.0521 5.90618 13.069 5.90814C13.2026 5.92404 13.335 5.93643 13.4667 5.94876C13.6932 5.96997 13.9176 5.99097 14.1419 6.02927C16.478 6.44457 18.3555 8.39131 18.6843 10.7447C18.7362 11.0821 18.7589 11.4196 18.7816 11.757C18.7892 11.8695 18.7968 11.9819 18.8054 12.0944ZM13.0852 5.15611C13.1034 5.15684 13.1312 5.15781 13.1665 5.15898C13.1505 5.15829 13.1346 5.15765 13.1186 5.15706C13.1075 5.15674 13.0964 5.15643 13.0852 5.15611Z" fill="#9075AD"/>
</svg>
