<svg width="37" height="22" viewBox="0 0 37 22" fill="none" xmlns="http://www.w3.org/2000/svg">
<path d="M32.6375 8.78551C33.163 8.10787 33.5779 7.56852 33.8821 7.15364C36.0948 4.21488 37.0491 2.34099 36.7586 1.51814L36.6411 1.32453C36.565 1.20698 36.3645 1.10326 36.0464 1.00645C35.7283 0.909647 35.3204 0.895818 34.8225 0.95805L29.3046 0.999538C29.1801 0.985709 29.0487 0.992624 28.9243 1.00645C28.7998 1.0272 28.7168 1.04794 28.6753 1.06177C28.6339 1.08252 28.6062 1.09634 28.5785 1.11017L28.5025 1.16549C28.4402 1.20698 28.3711 1.26921 28.295 1.36602C28.219 1.46282 28.1567 1.57346 28.1014 1.70484C27.4998 3.25374 26.8153 4.68508 26.0477 6.01962C25.5775 6.81482 25.1419 7.49937 24.7478 8.08021C24.3536 8.66105 24.0217 9.08976 23.7521 9.36635C23.4824 9.64294 23.2404 9.86421 23.026 10.0302C22.8117 10.1961 22.6457 10.2653 22.5282 10.2445C22.4106 10.2169 22.3069 10.1961 22.2032 10.1685C22.0234 10.0509 21.8782 9.89878 21.7744 9.69825C21.6638 9.49773 21.5947 9.2488 21.5532 8.95146C21.5117 8.65413 21.4909 8.39137 21.484 8.17702C21.4771 7.96266 21.484 7.6515 21.4909 7.25736C21.5048 6.86322 21.5117 6.59355 21.5117 6.45525C21.5117 5.97122 21.5186 5.4457 21.5393 4.87178C21.5601 4.30477 21.5739 3.85532 21.5878 3.52341C21.6016 3.1915 21.6085 2.83885 21.6085 2.47237C21.6085 2.10589 21.5878 1.80856 21.5393 1.60112C21.4979 1.39368 21.4287 1.18624 21.3388 0.985709C21.2489 0.785182 21.1175 0.633058 20.9447 0.529338C20.7718 0.418702 20.5575 0.335726 20.3016 0.273493C19.624 0.121369 18.7596 0.0383927 17.7155 0.0245632C15.3368 -0.00309565 13.8087 0.155943 13.138 0.487849C12.8683 0.626144 12.6263 0.819756 12.4119 1.06177C12.1837 1.34527 12.1492 1.4974 12.3151 1.51814C13.0826 1.63569 13.622 1.90537 13.947 2.34099L14.0645 2.56918C14.1544 2.73513 14.2443 3.03247 14.3342 3.45426C14.4241 3.87606 14.4794 4.33935 14.5071 4.85104C14.5693 5.78452 14.5693 6.57972 14.5071 7.24353C14.4448 7.90734 14.3826 8.42595 14.3273 8.79243C14.272 9.16582 14.1821 9.46315 14.0715 9.69134C13.9539 9.91953 13.8778 10.0647 13.8433 10.1131C13.8018 10.1615 13.7741 10.1961 13.7465 10.2099C13.5805 10.2722 13.4076 10.3067 13.2279 10.3067C13.0481 10.3067 12.8337 10.2169 12.5779 10.0371C12.322 9.85729 12.0593 9.61528 11.7827 9.2972C11.5061 8.98604 11.1949 8.5435 10.8561 7.9834C10.5104 7.42331 10.1508 6.7595 9.78433 5.99197L9.48008 5.43879C9.28647 5.07922 9.02371 4.56062 8.6918 3.87606C8.35989 3.1915 8.06256 2.53461 7.81363 1.89154C7.70991 1.62186 7.55779 1.42134 7.35035 1.27613L7.25354 1.22081C7.19131 1.17241 7.08759 1.11709 6.94929 1.05486C6.811 0.999538 6.65887 0.95805 6.50675 0.930391L1.25848 0.97188C0.719131 0.97188 0.359565 1.09634 0.165953 1.33836L0.0898913 1.45591C0.0207442 1.51123 0 1.60803 0 1.75324C0 1.89154 0.0414883 2.06441 0.11755 2.27185C0.885084 4.07659 1.71485 5.81218 2.62068 7.48554C3.51959 9.15891 4.30095 10.5073 4.97168 11.5307C5.6355 12.554 6.31314 13.5152 7.00461 14.4279C7.69608 15.3407 8.15245 15.9146 8.37372 16.1704C8.59499 16.4263 8.77478 16.6199 8.89924 16.7444L9.37636 17.2076C9.68061 17.5119 10.1301 17.8784 10.7247 18.3071C11.3194 18.7358 11.9763 19.1576 12.7023 19.5725C13.4215 19.9874 14.2651 20.3262 15.2193 20.5889C16.1804 20.8517 17.107 20.9554 18.0198 20.907H20.2256C20.675 20.8655 21.0138 20.7272 21.242 20.4852L21.3181 20.3884C21.3665 20.3123 21.4149 20.1948 21.4633 20.0358C21.5048 19.8767 21.5324 19.6969 21.5324 19.5102C21.5186 18.964 21.5601 18.4661 21.6569 18.0236C21.7537 17.581 21.8643 17.2491 21.9819 17.0279C22.1064 16.8066 22.2377 16.613 22.3968 16.4608C22.5489 16.3087 22.6595 16.2188 22.7218 16.1843C22.784 16.1497 22.8393 16.1289 22.8739 16.1151C23.1781 16.0114 23.5377 16.1151 23.9595 16.4124C24.3744 16.7167 24.7616 17.0832 25.1281 17.5257C25.4946 17.9683 25.9302 18.4592 26.4419 19.0124C26.9536 19.5586 27.403 19.9735 27.7833 20.2363L28.1636 20.4645C28.4195 20.6166 28.7514 20.7549 29.1594 20.8863C29.5673 21.0107 29.9269 21.0453 30.2311 20.9831L35.1406 20.907C35.6246 20.907 36.0049 20.831 36.2746 20.665C36.5443 20.506 36.7033 20.3262 36.7517 20.1395C36.8001 19.9459 36.807 19.7315 36.7586 19.4895C36.7172 19.2475 36.6688 19.0746 36.6273 18.9847C36.5858 18.8879 36.5443 18.8119 36.5028 18.7427C35.8666 17.5949 34.6427 16.1773 32.8449 14.504L32.8034 14.4625L32.7827 14.4418L32.7619 14.421H32.7412C31.9253 13.6396 31.4067 13.1141 31.1923 12.8514C30.7982 12.3397 30.7083 11.8211 30.9226 11.3025C31.0678 10.9014 31.6418 10.0647 32.6375 8.78551Z" fill="#5476A4"/>
</svg>
