<svg width="50" height="50" viewBox="0 0 50 50" fill="none" xmlns="http://www.w3.org/2000/svg">
<path d="M4.83947 45.9678C4.83947 46.4131 4.47837 46.7742 4.03301 46.7742C3.58765 46.7742 3.22656 46.4131 3.22656 45.9678C3.22656 45.5224 3.58765 45.1613 4.03301 45.1613C4.47837 45.1613 4.83947 45.5224 4.83947 45.9678Z" fill="#CD1E19"/>
<path d="M27.4195 45.9678C27.4195 46.4131 27.0585 46.7742 26.6131 46.7742C26.1677 46.7742 25.8066 46.4131 25.8066 45.9678C25.8066 45.5224 26.1677 45.1613 26.6131 45.1613C27.0585 45.1613 27.4195 45.5224 27.4195 45.9678Z" fill="#CD1E19"/>
<path d="M3.22656 40.3226H8.06527V35.4839H3.22656V40.3226ZM4.83947 37.0968H6.45237V38.7097H4.83947V37.0968Z" fill="#CD1E19"/>
<path d="M48.3871 0H1.6129C0.723365 0 0 0.723365 0 1.6129V3.22581C0 4.11534 0.723365 4.83871 1.6129 4.83871V19.3548C1.6129 20.2444 2.33627 20.9677 3.22581 20.9677H3.65305L1.0498 32.6861C0.417008 33.1224 0 33.8517 0 34.6774V41.129C0 41.991 0.456386 42.7443 1.13722 43.1727C0.436303 43.8985 0 44.8813 0 45.9677C0 48.191 1.809 50 4.03226 50C5.97908 50 7.60813 48.6119 7.983 46.7742H22.6622C23.037 48.6119 24.6653 50 26.6129 50C28.5605 50 30.1888 48.6119 30.5637 46.7742H46.7742C48.1079 46.7742 49.1936 45.6886 49.1936 44.3548C49.1936 43.496 48.7403 42.7443 48.0638 42.3155C48.2638 41.963 48.3871 41.5622 48.3871 41.129V31.4516C48.3871 30.8298 48.1445 30.2679 47.7582 29.8387C48.1453 29.4095 48.3871 28.8476 48.3871 28.2258V4.83871C49.2766 4.83871 50 4.11534 50 3.22581V1.6129C50 0.723365 49.2766 0 48.3871 0ZM8.06452 4.83871V9.67742H3.22581V4.83871H8.06452ZM46.7742 16.2775C46.521 16.1869 46.2517 16.129 45.9677 16.129H41.9355V11.2903H46.7742V16.2775ZM37.0968 30.6452H40.3226V32.2581H37.0968V30.6452ZM40.3226 29.0323H37.0968V27.4194H40.3226V29.0323ZM41.9355 33.871V30.6452H45.9677C46.4127 30.6452 46.7742 31.0066 46.7742 31.4516V41.129C46.7742 41.574 46.4127 41.9355 45.9677 41.9355H41.9355V38.7097H35.4839V41.9355H31.4516C31.0066 41.9355 30.6452 41.574 30.6452 41.129V31.4516C30.6452 31.0066 31.0066 30.6452 31.4516 30.6452H35.4839V33.871H41.9355ZM40.3226 41.9355H37.0968V40.3226H40.3226V41.9355ZM7.23719 43.5484H23.4072C23.0508 44.0193 22.7838 44.562 22.6622 45.1613H7.983C7.86054 44.562 7.59435 44.0193 7.23719 43.5484ZM2.41935 41.9355C1.97439 41.9355 1.6129 41.574 1.6129 41.129V34.6774C1.6129 34.2325 1.97439 33.871 2.41935 33.871H8.41773C8.78867 33.871 9.1096 34.1226 9.20095 34.4813L10.6607 40.3226H25.8065V41.9355H2.41935ZM17.9195 20.9677L22.355 38.7097H22.2144L16.8784 30.4097L19.017 28.8822L18.0798 27.5702L12.4346 31.6024L13.3718 32.9145L15.5644 31.3484L20.2975 38.7097H11.92L10.7646 34.0895C10.4961 33.0121 9.52975 32.2581 8.41773 32.2581H6.20235L8.71109 20.9677H17.9195ZM3.22581 11.2903H8.06452V16.129H3.22581V11.2903ZM9.67742 11.2903H14.5161V16.129H9.67742V11.2903ZM16.129 11.2903H20.9677V16.129H16.129V11.2903ZM21.3139 20.9677L25.7816 38.7097H24.016L19.5805 20.9677H21.3139ZM25.8065 14.5161V32.2049L22.9638 20.9169C23.6679 20.7437 24.1935 20.1113 24.1935 19.3548V17.7419C24.1935 16.8524 23.4702 16.129 22.5806 16.129V11.2903H27.4194V14.5161H25.8065ZM29.0323 14.5161V11.2903H33.871V16.129H31.4516C31.1677 16.129 30.8984 16.1869 30.6452 16.2775V14.5161H29.0323ZM37.0968 17.7419H40.3226V19.3548H37.0968V17.7419ZM40.3226 16.129H35.4839V11.2903H40.3226V16.129ZM35.4839 9.67742V4.83871H40.3226V9.67742H35.4839ZM33.871 9.67742H29.0323V4.83871H33.871V9.67742ZM27.4194 9.67742H22.5806V4.83871H27.4194V9.67742ZM20.9677 9.67742H16.129V4.83871H20.9677V9.67742ZM14.5161 9.67742H9.67742V4.83871H14.5161V9.67742ZM3.22581 18.5484V17.7419H22.5806V19.3548H3.22581V18.5484ZM7.05881 20.9677L4.55007 32.2581H2.79856L5.30651 20.9677H7.05881ZM4.03226 48.3871C2.69854 48.3871 1.6129 47.3015 1.6129 45.9677C1.6129 44.634 2.69854 43.5484 4.03226 43.5484C5.36597 43.5484 6.45161 44.634 6.45161 45.9677C6.45161 47.3015 5.36597 48.3871 4.03226 48.3871ZM26.6129 48.3871C25.2792 48.3871 24.1935 47.3015 24.1935 45.9677C24.1935 44.634 25.2792 43.5484 26.6129 43.5484C27.9466 43.5484 29.0323 44.634 29.0323 45.9677C29.0323 47.3015 27.9466 48.3871 26.6129 48.3871ZM46.7742 45.1613H30.5637C30.2419 43.5838 28.9968 42.3387 27.4194 42.017V16.129H29.0323V41.129C29.0323 42.4627 30.1179 43.5484 31.4516 43.5484H46.7742C47.2192 43.5484 47.5806 43.9099 47.5806 44.3548C47.5806 44.7998 47.2192 45.1613 46.7742 45.1613ZM46.7742 28.2258C46.7742 28.6708 46.4127 29.0323 45.9677 29.0323H41.9355V25.8065H35.4839V29.0323H31.4516C31.0066 29.0323 30.6452 28.6708 30.6452 28.2258V18.5484C30.6452 18.1042 31.0066 17.7419 31.4516 17.7419H35.4839V20.9677H41.9355V17.7419H45.9677C46.4127 17.7419 46.7742 18.1042 46.7742 18.5484V28.2258ZM46.7742 9.67742H41.9355V4.83871H46.7742V9.67742ZM1.6129 3.22581V1.6129H48.3871L48.3879 3.22581H1.6129Z" fill="#CD1E19"/>
</svg>
