<svg width="25" height="15" viewBox="0 0 25 15" fill="none" xmlns="http://www.w3.org/2000/svg">
<mask id="path-1-inside-1_883_332" fill="white">
<path fill-rule="evenodd" clip-rule="evenodd" d="M24.4292 8.45736C24.6282 8.23398 24.7726 8.06154 24.8576 7.95734C24.9003 7.90504 24.9281 7.86993 24.9402 7.85418C25.1609 7.58647 25.1609 7.21895 24.9451 6.95124C24.9325 6.93485 24.903 6.89749 24.8573 6.84161C24.7925 6.76228 24.6951 6.64561 24.5671 6.49866C24.0034 5.85163 22.8321 4.60116 21.2265 3.36843C19.0094 1.66627 15.9668 0 12.5541 0C9.14135 0 6.09878 1.66627 3.88109 3.36843C3.63478 3.55747 3.39867 3.74695 3.17338 3.93461C2.18309 4.7595 1.40181 5.54941 0.882368 6.11452C0.570934 6.45332 0.353093 6.71189 0.240174 6.84961C0.197985 6.90106 0.170442 6.93565 0.158137 6.95124C-0.0527122 7.21895 -0.0527122 7.58647 0.158137 7.85418C0.170324 7.86962 0.197457 7.90369 0.238961 7.95433C0.313385 8.04513 0.434022 8.1892 0.597548 8.37468C0.811563 8.61743 1.09971 8.93186 1.45449 9.29104C1.76714 9.60756 2.13153 9.95883 2.54253 10.3264C2.94535 10.6867 3.39294 11.0627 3.88047 11.437C6.09755 13.1391 9.1389 14.8054 12.5492 14.8054C15.9594 14.8054 19.002 13.1391 21.2197 11.437C22.7089 10.294 23.825 9.13569 24.4292 8.45736ZM1.04193 7.40271C1.0919 7.46355 1.16462 7.5506 1.25889 7.65969C1.77185 8.25331 2.92288 9.49943 4.519 10.7249C6.66499 12.3724 9.48211 13.8801 12.5492 13.8801C15.6163 13.8801 18.4347 12.3724 20.5813 10.7248C22.486 9.26284 23.7556 7.77219 24.0597 7.39969C24.0597 7.39969 24.0597 7.39968 24.0597 7.39968C24.0107 7.3397 23.9382 7.25266 23.8436 7.14291C23.3349 6.55292 22.1849 5.30663 20.5879 4.08056C18.4422 2.43315 15.6238 0.925339 12.5541 0.925339C9.48439 0.925339 6.66599 2.43315 4.51951 4.08064C2.62958 5.53123 1.36382 7.01082 1.04193 7.40271Z"/>
</mask>
<path fill-rule="evenodd" clip-rule="evenodd" d="M24.4292 8.45736C24.6282 8.23398 24.7726 8.06154 24.8576 7.95734C24.9003 7.90504 24.9281 7.86993 24.9402 7.85418C25.1609 7.58647 25.1609 7.21895 24.9451 6.95124C24.9325 6.93485 24.903 6.89749 24.8573 6.84161C24.7925 6.76228 24.6951 6.64561 24.5671 6.49866C24.0034 5.85163 22.8321 4.60116 21.2265 3.36843C19.0094 1.66627 15.9668 0 12.5541 0C9.14135 0 6.09878 1.66627 3.88109 3.36843C3.63478 3.55747 3.39867 3.74695 3.17338 3.93461C2.18309 4.7595 1.40181 5.54941 0.882368 6.11452C0.570934 6.45332 0.353093 6.71189 0.240174 6.84961C0.197985 6.90106 0.170442 6.93565 0.158137 6.95124C-0.0527122 7.21895 -0.0527122 7.58647 0.158137 7.85418C0.170324 7.86962 0.197457 7.90369 0.238961 7.95433C0.313385 8.04513 0.434022 8.1892 0.597548 8.37468C0.811563 8.61743 1.09971 8.93186 1.45449 9.29104C1.76714 9.60756 2.13153 9.95883 2.54253 10.3264C2.94535 10.6867 3.39294 11.0627 3.88047 11.437C6.09755 13.1391 9.1389 14.8054 12.5492 14.8054C15.9594 14.8054 19.002 13.1391 21.2197 11.437C22.7089 10.294 23.825 9.13569 24.4292 8.45736ZM1.04193 7.40271C1.0919 7.46355 1.16462 7.5506 1.25889 7.65969C1.77185 8.25331 2.92288 9.49943 4.519 10.7249C6.66499 12.3724 9.48211 13.8801 12.5492 13.8801C15.6163 13.8801 18.4347 12.3724 20.5813 10.7248C22.486 9.26284 23.7556 7.77219 24.0597 7.39969C24.0597 7.39969 24.0597 7.39968 24.0597 7.39968C24.0107 7.3397 23.9382 7.25266 23.8436 7.14291C23.3349 6.55292 22.1849 5.30663 20.5879 4.08056C18.4422 2.43315 15.6238 0.925339 12.5541 0.925339C9.48439 0.925339 6.66599 2.43315 4.51951 4.08064C2.62958 5.53123 1.36382 7.01082 1.04193 7.40271Z" fill="#4F4F4F"/>
<path d="M24.8576 7.95734L25.6324 8.58964L24.8576 7.95734ZM24.4292 8.45736L25.1759 9.1225L25.1759 9.12249L24.4292 8.45736ZM24.9402 7.85418L24.1686 7.21814L24.1584 7.23047L24.1486 7.24313L24.9402 7.85418ZM24.9451 6.95124L24.1535 7.56228L24.1599 7.57058L24.1665 7.57875L24.9451 6.95124ZM24.8573 6.84161L25.6317 6.20889L25.6317 6.20888L24.8573 6.84161ZM24.5671 6.49866L25.3211 5.84181L25.3211 5.84179L24.5671 6.49866ZM21.2265 3.36843L20.6175 4.16162V4.16162L21.2265 3.36843ZM3.88109 3.36843L3.27222 2.57515L3.88109 3.36843ZM3.17338 3.93461L3.8134 4.70297L3.17338 3.93461ZM0.882368 6.11452L1.61859 6.79126L1.61859 6.79125L0.882368 6.11452ZM0.240174 6.84961L-0.533116 6.21556L-0.533116 6.21556L0.240174 6.84961ZM0.158137 6.95124L-0.626897 6.33179L-0.627455 6.33249L0.158137 6.95124ZM0.158137 7.85418L-0.627456 8.47292L-0.626892 8.47364L0.158137 7.85418ZM0.238961 7.95433L1.01237 7.32043L1.01237 7.32043L0.238961 7.95433ZM0.597548 8.37468L1.34766 7.71336L1.34765 7.71335L0.597548 8.37468ZM1.45449 9.29104L0.743043 9.99377H0.743043L1.45449 9.29104ZM2.54253 10.3264L1.87587 11.0718H1.87587L2.54253 10.3264ZM3.88047 11.437L3.2715 12.2302L3.88047 11.437ZM21.2197 11.437L20.6108 10.6437L21.2197 11.437ZM1.25889 7.65969L0.502245 8.31353H0.502245L1.25889 7.65969ZM1.04193 7.40271L0.269187 6.76798L-0.252165 7.4027L0.269183 8.03742L1.04193 7.40271ZM4.519 10.7249L3.91003 11.518H3.91003L4.519 10.7249ZM20.5813 10.7248L19.9724 9.9315H19.9724L20.5813 10.7248ZM24.0597 7.39969L23.3032 6.74568L23.2939 6.7564L23.285 6.76739L24.0597 7.39969ZM24.0597 7.39968L24.8162 8.05369L25.3659 7.41783L24.834 6.76693L24.0597 7.39968ZM23.8436 7.14291L23.0863 7.79594L23.0863 7.79594L23.8436 7.14291ZM20.5879 4.08056L19.979 4.87376L20.5879 4.08056ZM4.51951 4.08064L3.91065 3.28737L4.51951 4.08064ZM24.0829 7.32504C24.0066 7.41861 23.8714 7.58007 23.6825 7.79224L25.1759 9.12249C25.3849 8.88788 25.5386 8.70448 25.6324 8.58964L24.0829 7.32504ZM24.1486 7.24313C24.1437 7.24946 24.122 7.27712 24.0829 7.32504L25.6324 8.58964C25.6786 8.53297 25.7124 8.4904 25.7318 8.46523L24.1486 7.24313ZM24.1665 7.57875C24.1318 7.53566 24.106 7.47204 24.1063 7.39885C24.1066 7.32517 24.1332 7.26102 24.1686 7.21814L25.7119 8.49021C26.2361 7.85415 26.2355 6.95872 25.7237 6.32373L24.1665 7.57875ZM24.0829 7.47434C24.1249 7.52565 24.1482 7.55544 24.1535 7.56228L25.7367 6.3402C25.7167 6.31426 25.6811 6.26933 25.6317 6.20889L24.0829 7.47434ZM23.8131 7.15552C23.934 7.29429 24.0246 7.4029 24.0829 7.47434L25.6317 6.20888C25.5604 6.12165 25.4562 5.99693 25.3211 5.84181L23.8131 7.15552ZM25.3211 5.84179C24.7291 5.16229 23.5097 3.86062 21.8354 2.57523L20.6175 4.16162C22.1546 5.34171 23.2777 6.54097 23.8131 7.15553L25.3211 5.84179ZM21.8354 2.57523C19.5414 0.814004 16.2847 -1 12.5541 -1V1C15.6489 1 18.4773 2.51853 20.6175 4.16162L21.8354 2.57523ZM12.5541 -1C8.82345 -1 5.56676 0.814011 3.27222 2.57515L4.48995 4.1617C6.6308 2.51852 9.45926 1 12.5541 1V-1ZM3.27222 2.57515C3.01479 2.77274 2.76829 2.97056 2.53335 3.16626L3.8134 4.70297C4.02905 4.52334 4.25477 4.34221 4.48995 4.1617L3.27222 2.57515ZM2.53335 3.16626C1.50179 4.02552 0.688484 4.84776 0.146141 5.43779L1.61859 6.79125C2.11514 6.25106 2.86439 5.49347 3.8134 4.70297L2.53335 3.16626ZM1.01346 7.48366C1.11584 7.35881 1.32133 7.11465 1.61859 6.79126L0.146149 5.43778C-0.179462 5.792 -0.409653 6.06498 -0.533116 6.21556L1.01346 7.48366ZM0.94317 7.57069C0.951572 7.56005 0.975199 7.53033 1.01346 7.48366L-0.533116 6.21556C-0.579229 6.2718 -0.610688 6.31124 -0.626897 6.33179L0.94317 7.57069ZM0.943728 7.23543C1.01876 7.33069 1.01876 7.47472 0.943728 7.56999L-0.627455 6.33249C-1.12418 6.96317 -1.12418 7.84225 -0.627455 8.47292L0.943728 7.23543ZM1.01237 7.32043C0.974755 7.27453 0.951496 7.24527 0.943165 7.23472L-0.626892 8.47364C-0.610848 8.49397 -0.579841 8.53286 -0.534449 8.58824L1.01237 7.32043ZM1.34765 7.71335C1.19261 7.5375 1.07974 7.40262 1.01237 7.32043L-0.53445 8.58823C-0.452971 8.68765 -0.324566 8.8409 -0.152553 9.036L1.34765 7.71335ZM-0.152561 9.03599C0.0725355 9.29131 0.373568 9.61972 0.743043 9.99377L2.16594 8.5883C1.82586 8.244 1.55059 7.94354 1.34766 7.71336L-0.152561 9.03599ZM0.743043 9.99377C1.06863 10.3234 1.44795 10.6891 1.87587 11.0718L3.20919 9.58107C2.81511 9.22861 2.46565 8.89172 2.16594 8.5883L0.743043 9.99377ZM1.87587 11.0718C2.29524 11.4469 2.76206 11.8391 3.2715 12.2302L4.48945 10.6438C4.02382 10.2863 3.59545 9.92655 3.20919 9.58107L1.87587 11.0718ZM3.2715 12.2302C5.56531 13.9913 8.82084 15.8054 12.5492 15.8054V13.8054C9.45697 13.8054 6.6298 12.287 4.48945 10.6438L3.2715 12.2302ZM12.5492 15.8054C16.2774 15.8054 19.5341 13.9913 21.8286 12.2303L20.6108 10.6437C18.4699 12.287 15.6415 13.8054 12.5492 13.8054V15.8054ZM21.8286 12.2303C23.3818 11.0381 24.5436 9.83233 25.1759 9.1225L23.6825 7.79223C23.1063 8.43905 22.0361 9.5498 20.6108 10.6437L21.8286 12.2303ZM2.01553 7.00586C1.92698 6.9034 1.85963 6.82273 1.81467 6.76799L0.269183 8.03742C0.324167 8.10437 0.402252 8.19781 0.502245 8.31353L2.01553 7.00586ZM5.12797 9.93166C3.60267 8.76061 2.50076 7.56739 2.01553 7.00586L0.502245 8.31353C1.04294 8.93923 2.24309 10.2383 3.91003 11.518L5.12797 9.93166ZM12.5492 12.8801C9.8001 12.8801 7.19714 11.5203 5.12797 9.93166L3.91003 11.518C6.13284 13.2246 9.16412 14.8801 12.5492 14.8801V12.8801ZM19.9724 9.9315C17.9027 11.5201 15.2984 12.8801 12.5492 12.8801V14.8801C15.9342 14.8801 18.9667 13.2246 21.1902 11.518L19.9724 9.9315ZM23.285 6.76739C23.0093 7.10507 21.7946 8.53292 19.9724 9.9315L21.1902 11.518C23.1774 9.99275 24.5019 8.43931 24.8344 8.032L23.285 6.76739ZM23.3032 6.74566C23.2708 6.78314 23.247 6.81634 23.2316 6.83904C23.224 6.85026 23.2181 6.85951 23.2145 6.86527C23.2126 6.86819 23.2111 6.87056 23.2102 6.872C23.2098 6.87274 23.2094 6.87333 23.2092 6.8737C23.2091 6.87388 23.209 6.87403 23.2089 6.87412C23.2089 6.87417 23.2089 6.8742 23.2089 6.87423C23.2088 6.87424 23.2088 6.87425 23.2088 6.87425C23.2088 6.87426 23.2088 6.87426 23.2088 6.87426C23.2088 6.87426 23.2088 6.87426 23.2088 6.87426C23.2087 6.87445 23.2094 6.87332 23.2102 6.872C23.2111 6.87056 23.2126 6.86819 23.2145 6.86527C23.2181 6.85951 23.224 6.85026 23.2316 6.83905C23.247 6.81635 23.2708 6.78315 23.3032 6.74568L24.8162 8.05371C24.8485 8.01624 24.8724 7.98303 24.8877 7.96033C24.8953 7.94912 24.9013 7.93986 24.9049 7.9341C24.9067 7.93119 24.9082 7.92881 24.9091 7.92737C24.9096 7.92663 24.9099 7.92604 24.9102 7.92567C24.9103 7.92549 24.9104 7.92534 24.9104 7.92525C24.9105 7.9252 24.9105 7.92517 24.9105 7.92514C24.9105 7.92513 24.9105 7.92512 24.9105 7.92512C24.9105 7.92512 24.9105 7.92511 24.9105 7.92511C24.9105 7.92511 24.9105 7.92511 24.9105 7.92511C24.9106 7.92492 24.9099 7.92605 24.9091 7.92737C24.9082 7.92881 24.9067 7.93118 24.9049 7.9341C24.9013 7.93986 24.8953 7.94911 24.8877 7.96032C24.8724 7.98302 24.8486 8.01622 24.8162 8.05369L23.3032 6.74566ZM23.0863 7.79594C23.175 7.89888 23.2418 7.97915 23.2853 8.03242L24.834 6.76693C24.7796 6.70025 24.7014 6.60644 24.6009 6.48988L23.0863 7.79594ZM19.979 4.87376C21.505 6.04537 22.6057 7.23859 23.0863 7.79594L24.6009 6.48988C24.064 5.86724 22.8648 4.56789 21.1969 3.28737L19.979 4.87376ZM12.5541 1.92534C15.3059 1.92534 17.9102 3.28549 19.979 4.87376L21.1969 3.28737C18.9741 1.58082 15.9416 -0.0746615 12.5541 -0.0746615V1.92534ZM5.12838 4.87392C7.19792 3.28547 9.80222 1.92534 12.5541 1.92534V-0.0746615C9.16656 -0.0746615 6.13406 1.58082 3.91065 3.28737L5.12838 4.87392ZM1.81467 8.03743C2.10933 7.6787 3.32064 6.26142 5.12838 4.87392L3.91065 3.28737C1.93852 4.80105 0.61832 6.34294 0.269187 6.76798L1.81467 8.03743Z" fill="#4F4F4F" mask="url(#path-1-inside-1_883_332)"/>
<mask id="path-3-inside-2_883_332" fill="white">
<path fill-rule="evenodd" clip-rule="evenodd" d="M7.58691 7.40494C7.58691 4.8686 9.81795 2.80859 12.5541 2.80859C15.2903 2.80859 17.5214 4.87309 17.5214 7.40494C17.5214 9.9367 15.2904 11.9968 12.5541 11.9968C9.81785 11.9968 7.58691 9.9412 7.58691 7.40494ZM12.5541 3.73393C10.3696 3.73393 8.58692 5.3802 8.58692 7.40494C8.58692 9.4285 10.3684 11.0714 12.5541 11.0714C14.7393 11.0714 16.5214 9.42455 16.5214 7.40494C16.5214 5.38415 14.738 3.73393 12.5541 3.73393Z"/>
</mask>
<path fill-rule="evenodd" clip-rule="evenodd" d="M7.58691 7.40494C7.58691 4.8686 9.81795 2.80859 12.5541 2.80859C15.2903 2.80859 17.5214 4.87309 17.5214 7.40494C17.5214 9.9367 15.2904 11.9968 12.5541 11.9968C9.81785 11.9968 7.58691 9.9412 7.58691 7.40494ZM12.5541 3.73393C10.3696 3.73393 8.58692 5.3802 8.58692 7.40494C8.58692 9.4285 10.3684 11.0714 12.5541 11.0714C14.7393 11.0714 16.5214 9.42455 16.5214 7.40494C16.5214 5.38415 14.738 3.73393 12.5541 3.73393Z" fill="#4F4F4F"/>
<path d="M12.5541 1.80859C9.3408 1.80859 6.58691 4.24406 6.58691 7.40494H8.58691C8.58691 5.49314 10.2951 3.80859 12.5541 3.80859V1.80859ZM18.5214 7.40494C18.5214 4.24916 15.7681 1.80859 12.5541 1.80859V3.80859C14.8125 3.80859 16.5214 5.49703 16.5214 7.40494H18.5214ZM12.5541 12.9968C15.7669 12.9968 18.5214 10.5618 18.5214 7.40494H16.5214C16.5214 9.31156 14.8139 10.9968 12.5541 10.9968V12.9968ZM6.58691 7.40494C6.58691 10.5669 9.34201 12.9968 12.5541 12.9968V10.9968C10.2937 10.9968 8.58691 9.31545 8.58691 7.40494H6.58691ZM9.58692 7.40494C9.58692 6.00471 10.8468 4.73393 12.5541 4.73393V2.73393C9.89245 2.73393 7.58692 4.7557 7.58692 7.40494H9.58692ZM12.5541 10.0714C10.8443 10.0714 9.58692 8.80285 9.58692 7.40494H7.58692C7.58692 10.0541 9.8924 12.0714 12.5541 12.0714V10.0714ZM15.5214 7.40494C15.5214 8.79948 14.2627 10.0714 12.5541 10.0714V12.0714C15.2159 12.0714 17.5214 10.0496 17.5214 7.40494H15.5214ZM12.5541 4.73393C14.2602 4.73393 15.5214 6.00808 15.5214 7.40494H17.5214C17.5214 4.76021 15.2158 2.73393 12.5541 2.73393V4.73393Z" fill="#4F4F4F" mask="url(#path-3-inside-2_883_332)"/>
</svg>
