<svg width="60" height="60" viewBox="0 0 60 60" fill="none" xmlns="http://www.w3.org/2000/svg">
<path d="M51.0938 49.2188C51.741 49.2188 52.2656 48.6941 52.2656 48.0469C52.2656 47.3997 51.741 46.875 51.0938 46.875C50.4465 46.875 49.9219 47.3997 49.9219 48.0469C49.9219 48.6941 50.4465 49.2188 51.0938 49.2188Z" fill="#CD1E19"/>
<path d="M51.9223 0.343359C51.7043 0.125273 51.402 0 51.0938 0H8.90625C8.59805 0 8.2957 0.125273 8.07773 0.343359C7.85977 0.561328 7.73438 0.863672 7.73438 1.17188V58.8281C7.73438 59.1363 7.85977 59.4387 8.07773 59.6565C8.2957 59.8746 8.59805 60 8.90625 60H51.0938C51.402 60 51.7043 59.8746 51.9223 59.6565C52.1402 59.4387 52.2656 59.1363 52.2656 58.8281V53.3203C52.2656 52.6746 51.7395 52.1484 51.0938 52.1484C50.448 52.1484 49.923 52.6733 49.9219 53.3179V53.3203V57.6562H10.0781V2.34375H49.9219V42.7734C49.9219 43.4191 50.448 43.9453 51.0938 43.9453C51.7395 43.9453 52.2656 43.4191 52.2656 42.7734V1.17188C52.2656 0.863672 52.1402 0.561328 51.9223 0.343359Z" fill="#CD1E19"/>
<path d="M17.9297 50.2734H14.1797C13.5325 50.2734 13.0078 50.7982 13.0078 51.4453C13.0078 52.0924 13.5325 52.6172 14.1797 52.6172H17.9297C18.5769 52.6172 19.1016 52.0924 19.1016 51.4453C19.1016 50.7982 18.5769 50.2734 17.9297 50.2734Z" fill="#CD1E19"/>
<path d="M23.2031 52.6172H26.9531C27.6004 52.6172 28.125 52.0924 28.125 51.4453C28.125 50.7982 27.6004 50.2734 26.9531 50.2734H23.2031C22.5559 50.2734 22.0312 50.7982 22.0312 51.4453C22.0312 52.0924 22.5559 52.6172 23.2031 52.6172Z" fill="#CD1E19"/>
<path d="M17.9297 45.5859H14.1797C13.5325 45.5859 13.0078 46.1107 13.0078 46.7578C13.0078 47.4049 13.5325 47.9297 14.1797 47.9297H17.9297C18.5769 47.9297 19.1016 47.4049 19.1016 46.7578C19.1016 46.1107 18.5769 45.5859 17.9297 45.5859Z" fill="#CD1E19"/>
<path d="M14.1797 43.2422H17.6953C18.3425 43.2422 18.8672 42.7174 18.8672 42.0703C18.8672 41.4232 18.3425 40.8984 17.6953 40.8984H14.1797C13.5325 40.8984 13.0078 41.4232 13.0078 42.0703C13.0078 42.7174 13.5325 43.2422 14.1797 43.2422Z" fill="#CD1E19"/>
<path d="M31.9922 40.8984C31.345 40.8984 30.8203 41.4232 30.8203 42.0703C30.8203 42.7174 31.345 43.2422 31.9922 43.2422H35.7422C36.3894 43.2422 36.9141 42.7174 36.9141 42.0703C36.9141 41.4232 36.3894 40.8984 35.7422 40.8984H31.9922Z" fill="#CD1E19"/>
<path d="M26.7188 43.2422C27.366 43.2422 27.8906 42.7174 27.8906 42.0703C27.8906 41.4232 27.366 40.8984 26.7188 40.8984H22.9688C22.3215 40.8984 21.7969 41.4232 21.7969 42.0703C21.7969 42.7174 22.3215 43.2422 22.9688 43.2422H26.7188Z" fill="#CD1E19"/>
<path d="M18.2812 22.9688H27.4219C28.0691 22.9688 28.5938 22.444 28.5938 21.7969C28.5938 21.1498 28.0691 20.625 27.4219 20.625H18.2812C17.634 20.625 17.1094 21.1498 17.1094 21.7969C17.1094 22.444 17.634 22.9688 18.2812 22.9688Z" fill="#CD1E19"/>
<path d="M32.6953 20.625C32.0481 20.625 31.5234 21.1498 31.5234 21.7969C31.5234 22.444 32.0481 22.9688 32.6953 22.9688H41.7188C42.366 22.9688 42.8906 22.444 42.8906 21.7969C42.8906 21.1498 42.366 20.625 41.7188 20.625H32.6953Z" fill="#CD1E19"/>
<path d="M22.9688 17.1094C22.9688 17.7565 23.4934 18.2812 24.1406 18.2812H35.8594C36.5066 18.2812 37.0312 17.7565 37.0312 17.1094C37.0312 16.4623 36.5066 15.9375 35.8594 15.9375H24.1406C23.4934 15.9375 22.9688 16.4623 22.9688 17.1094Z" fill="#CD1E19"/>
<path d="M44.5756 45.5955C43.6796 45.2845 42.69 44.9098 42.1452 44.4901C42.0259 44.3982 41.9754 44.1591 42.0222 43.9084C42.0481 43.7696 42.1698 43.3061 42.6505 43.1638C43.6494 42.868 44.2829 43.3627 44.352 43.4201C44.9045 43.7694 45.6266 43.4538 45.8839 42.8715C46.1112 42.3566 45.9229 41.7192 45.4309 41.4459C45.1058 41.2654 44.7188 41.0912 44.2935 40.9649V40.6055C44.2935 39.9584 43.7688 39.4336 43.1216 39.4336C42.4744 39.4336 41.9497 39.9584 41.9497 40.6055V40.9286C40.7999 41.2836 39.9462 42.2568 39.7183 43.4787C39.507 44.6113 39.8889 45.7103 40.7149 46.3468C41.5237 46.9698 42.679 47.4182 43.8071 47.8097C44.6574 48.1051 44.6878 48.7335 44.6302 49.0816C44.5307 49.6836 44.0138 50.3341 43.114 50.34C42.1647 50.3468 41.8949 50.3043 41.1802 49.845C40.617 49.4831 39.8599 49.6645 39.5255 50.2557C39.2156 50.8036 39.4201 51.5033 39.9511 51.8411C40.7067 52.3216 41.2819 52.537 41.9497 52.6266V52.9099C41.9497 53.557 42.4744 54.0818 43.1216 54.0818C43.7688 54.0818 44.2935 53.557 44.2935 52.9099V52.5062C45.7828 52.0436 46.7306 50.7452 46.9424 49.4637C47.2273 47.7407 46.2762 46.1862 44.5756 45.5955Z" fill="#CD1E19"/>
<path d="M45.8203 37.0312C46.4675 37.0312 46.9922 36.5065 46.9922 35.8594V26.4844C46.9922 25.8373 46.4675 25.3125 45.8203 25.3125H14.1797C13.5325 25.3125 13.0078 25.8373 13.0078 26.4844V35.8594C13.0078 36.5065 13.5325 37.0312 14.1797 37.0312H45.8203ZM44.6484 34.6875H39.6094V32.3438H44.6484V34.6875ZM44.6484 30H39.6094V27.6562H44.6484V30ZM37.2656 30H29.8242V27.6562H37.2656V30ZM27.4805 30H20.0391V27.6562H27.4805V30ZM15.3516 27.6562H17.6953V30H15.3516V27.6562ZM15.3516 32.3438H17.6953V34.6875H15.3516V32.3438ZM20.0391 32.3438H37.2656V34.6875H20.0391V32.3438Z" fill="#CD1E19"/>
<path d="M33.5156 10.0781C33.5156 8.40943 31.4418 6.31424 30.8061 5.71178C30.3541 5.28357 29.646 5.28357 29.1939 5.71178C28.5582 6.31424 26.4844 8.40943 26.4844 10.0781C26.4844 12.0166 28.0615 13.5937 30 13.5937C31.9385 13.5937 33.5156 12.0166 33.5156 10.0781ZM28.8281 10.0805C28.8429 9.77432 29.3471 9.01459 30.0007 8.25979C30.6531 9.01271 31.1562 9.77115 31.172 10.0796C31.1709 10.7251 30.6456 11.2499 30 11.2499C29.3538 11.2499 28.8281 10.7242 28.8281 10.0805Z" fill="#CD1E19"/>
<path d="M21.4311 5.71178C20.9791 5.28357 20.271 5.28357 19.8189 5.71178C19.1832 6.31424 17.1094 8.40943 17.1094 10.0781C17.1094 12.0166 18.6865 13.5937 20.625 13.5937C22.5635 13.5937 24.1406 12.0166 24.1406 10.0781C24.1406 8.40943 22.0668 6.31424 21.4311 5.71178ZM20.625 11.2499C19.9788 11.2499 19.4531 10.7242 19.4531 10.0805C19.4679 9.77432 19.9721 9.01459 20.6257 8.25979C21.2781 9.01271 21.7812 9.77115 21.797 10.0796C21.7959 10.7251 21.2706 11.2499 20.625 11.2499Z" fill="#CD1E19"/>
<path d="M40.1811 5.71178C39.7291 5.28357 39.021 5.28357 38.5689 5.71178C37.9332 6.31424 35.8594 8.40943 35.8594 10.0781C35.8594 12.0166 37.4365 13.5937 39.375 13.5937C41.3135 13.5937 42.8906 12.0166 42.8906 10.0781C42.8906 8.40943 40.8168 6.31424 40.1811 5.71178ZM39.375 11.2499C38.7288 11.2499 38.2031 10.7242 38.2031 10.0805C38.2179 9.77432 38.7221 9.01459 39.3757 8.25979C40.0281 9.01271 40.5312 9.77115 40.547 10.0796C40.5459 10.7251 40.0206 11.2499 39.375 11.2499Z" fill="#CD1E19"/>
</svg>
