<svg width="60" height="60" viewBox="0 0 60 60" fill="none" xmlns="http://www.w3.org/2000/svg">
<path d="M20.0002 17.4021C20.0002 16.0309 18.8797 14.9169 17.5005 14.9169C16.1182 14.9169 15.0015 16.0309 15.0015 17.4021V27.3417H10.0005V17.4021C10.0005 13.2831 13.3552 9.94336 17.5005 9.94336C21.642 9.94336 25.0005 13.2831 25.0005 17.4021H20.0002Z" fill="#0C7AEB"/>
<path d="M49.9995 34.7981H39.9998V39.7687H49.9995V34.7981Z" fill="#444B54"/>
<path d="M5.00025 43.9727C5.00025 47.1365 7.58925 49.7105 10.7663 49.7105C13.95 49.7105 16.5375 47.1365 16.5375 43.9727V39.6315C16.5375 36.8465 17.9175 33.5231 19.902 31.5494L27.0698 24.4291C28.9598 22.5486 30 20.0551 30 17.3991C30 10.5473 24.39 4.97277 17.5005 4.97053C10.6058 4.97053 5.00025 10.5473 5.00025 17.3991V22.3704H0V17.3991C0.00075 7.80625 7.851 0 17.5005 0C27.1508 0.00298262 34.9995 7.80849 34.9995 17.3991C34.9995 21.3794 33.4395 25.1241 30.6068 27.9419L23.4368 35.0659C22.392 36.106 21.5385 38.1544 21.5385 39.6308V43.972C21.5385 49.8775 16.707 54.681 10.767 54.681C4.83075 54.681 0.000750304 49.8775 0.000750304 43.972H5.00025V43.9727Z" fill="#0C7AEB"/>
<path d="M23.4368 35.0658C22.392 36.106 21.5385 38.1543 21.5385 39.6307V39.7687H34.9995V34.7981H23.7045L23.4368 35.0658Z" fill="#444B54"/>
<path d="M32.991 24.8557C32.3422 25.969 31.5465 27.0069 30.606 27.942L28.71 29.8262H54.999V44.7392H49.9995V50.3666L41.514 44.7392H21.5077C21.3772 46.5594 20.7892 48.2535 19.8547 49.7105H39.9997L54.999 59.6522V49.7112H59.9992V24.8557H32.991Z" fill="#444B54"/>
</svg>
