<svg width="67" height="60" viewBox="0 0 67 60" fill="none" xmlns="http://www.w3.org/2000/svg">
<path d="M32.9268 27.5397V11.9512H40.2439V29.6182L32.9268 27.5397Z" fill="white"/>
<path d="M46.5157 27.5397V1.55884H53.8328V24.422L46.5157 27.5397Z" fill="white"/>
<path d="M19.8606 23.3829V19.7455H27.1777V24.9418L19.8606 23.3829Z" fill="white"/>
<path d="M64.2335 39.3351C63.2927 37.2566 60.7317 36.4252 58.6411 37.3086L56.8118 38.088L56.446 37.3605C55.5575 35.2301 53.101 34.2428 50.9582 35.1781L40.0871 39.9067C39.669 39.2312 39.0418 38.7115 38.2578 38.3478L24.7735 32.3202C19.547 29.982 13.4321 30.7094 8.88502 34.1909L6.84669 35.7497L6.32404 36.2693C2.8223 36.2693 0 39.0753 0 42.5567V57.5737H6.27178V51.754L6.74216 51.4942C8.4669 50.5069 10.6098 50.4549 12.3868 51.3383L23.9895 57.106C26.7073 58.4051 29.8432 58.509 32.6655 57.3139L62.1429 44.947C64.2335 44.0117 65.2265 41.4655 64.2335 39.3351Z" fill="white"/>
<path d="M65.7491 38.8674C65.1742 37.4645 64.0244 36.3733 62.6133 35.8017C61.2021 35.2301 59.6342 35.2301 58.223 35.8536L57.5958 36.1134C56.9687 35.0222 55.9756 34.1909 54.8258 33.7232C53.4146 33.1516 51.8467 33.1516 50.4356 33.7752L44.3728 36.3213C43.5889 36.6331 43.223 37.5684 43.5366 38.3478C43.7979 38.9194 44.3728 39.2831 45 39.2831C45.2091 39.2831 45.4181 39.2312 45.6272 39.1792L51.6899 36.6331C52.3171 36.3733 53.0488 36.3733 53.676 36.6331C54.0941 36.7889 54.4077 37.0488 54.669 37.3605L42.3345 42.5048C42.3868 41.6734 42.2822 40.842 41.9687 40.0625C41.3937 38.6596 40.3484 37.5164 38.9373 36.8929L25.4007 30.9173C19.6516 28.3711 12.9617 29.1506 7.89199 32.9957C5.90593 34.6065 4.70383 36.9968 4.70383 39.5949V56.0148H1.56794C0.679443 56.0148 0 56.6903 0 57.5737C0 58.457 0.679443 59.1325 1.56794 59.1325H6.27178C7.16028 59.1325 7.83972 58.457 7.83972 57.5737V39.5429C7.83972 37.9321 8.57143 36.3733 9.82579 35.386C13.9547 32.2683 19.3902 31.6447 24.1463 33.7232L37.6307 39.7508C38.2579 40.0106 38.7805 40.5302 38.9896 41.2057C39.2509 41.8292 39.1986 42.5567 38.9373 43.1803C38.676 43.8038 38.1533 44.2715 37.5261 44.5313C36.899 44.7911 36.1673 44.7391 35.5401 44.4793L25.0871 39.8547C24.3031 39.491 23.3624 39.8547 22.9965 40.6341C22.6307 41.4136 22.9965 42.3489 23.7805 42.7126L34.2335 47.3372C35.6446 47.9607 37.2126 48.0127 38.6237 47.4411C38.8328 47.3892 39.0418 47.2852 39.1986 47.1813C39.3031 47.1813 39.3554 47.1294 39.4077 47.1294L59.3728 38.7115C60 38.4517 60.7317 38.4517 61.3589 38.7115C61.9861 38.9713 62.5087 39.491 62.7701 40.1145C63.0314 40.738 63.0314 41.4655 62.7701 42.0891C62.5087 42.7126 61.9861 43.2322 61.3589 43.492L31.8815 55.8589C29.5296 56.8462 26.8119 56.7943 24.5122 55.6511L12.0732 49.6235C11.2892 49.2598 10.3484 49.5716 9.98258 50.351C9.61673 51.1304 9.93032 52.0657 10.7143 52.4295L23.1533 58.457C24.8258 59.2884 26.6028 59.6522 28.4321 59.6522C30 59.6522 31.6202 59.3404 33.1359 58.7168L62.6133 46.3499C64.0244 45.7783 65.122 44.6352 65.6969 43.2322C66.3241 41.8292 66.3241 40.2704 65.7491 38.8674Z" fill="#444B54"/>
<path d="M40.2439 31.1771C39.3554 31.1771 38.6759 30.5016 38.6759 29.6182V13.51H34.4948V27.5397C34.4948 28.4231 33.8153 29.0986 32.9268 29.0986C32.0383 29.0986 31.3589 28.4231 31.3589 27.5397V11.9512C31.3589 11.0678 32.0383 10.3923 32.9268 10.3923H40.2439C41.1324 10.3923 41.8118 11.0678 41.8118 11.9512V29.6182C41.8118 30.4496 41.1324 31.1771 40.2439 31.1771Z" fill="#0C7AEB"/>
<path d="M46.5157 29.0986C45.6272 29.0986 44.9478 28.4231 44.9478 27.5397V1.55885C44.9478 0.675503 45.6272 0 46.5157 0H53.8328C54.7213 0 55.4007 0.675503 55.4007 1.55885V24.422C55.4007 25.3054 54.7213 25.9809 53.8328 25.9809C52.9443 25.9809 52.2648 25.3054 52.2648 24.422V3.1177H48.0836V27.5397C48.0836 28.3711 47.4042 29.0986 46.5157 29.0986Z" fill="#0C7AEB"/>
<path d="M27.1777 26.5006C26.2892 26.5006 25.6098 25.8251 25.6098 24.9418V21.3045H21.4286V23.3829C21.4286 24.2663 20.7491 24.9418 19.8606 24.9418C18.9721 24.9418 18.2927 24.2663 18.2927 23.3829V19.7456C18.2927 18.8623 18.9721 18.1868 19.8606 18.1868H27.1777C28.0662 18.1868 28.7457 18.8623 28.7457 19.7456V24.9418C28.7457 25.7731 28.0662 26.5006 27.1777 26.5006Z" fill="#0C7AEB"/>
</svg>
