<svg width="123" height="117" viewBox="0 0 123 117" fill="none" xmlns="http://www.w3.org/2000/svg">
<path d="M122.5 1C122.5 0.447715 122.052 0 121.5 0C120.948 0 120.5 0.447715 120.5 1H122.5ZM0.292893 108.293C-0.0976311 108.683 -0.0976311 109.317 0.292893 109.707L6.65685 116.071C7.04738 116.462 7.68054 116.462 8.07107 116.071C8.46159 115.681 8.46159 115.047 8.07107 114.657L2.41421 109L8.07107 103.343C8.46159 102.953 8.46159 102.319 8.07107 101.929C7.68054 101.538 7.04738 101.538 6.65685 101.929L0.292893 108.293ZM120.5 1V59H122.5V1H120.5ZM71.5 108H1V110H71.5V108ZM120.5 59C120.5 86.062 98.562 108 71.5 108V110C99.6665 110 122.5 87.1665 122.5 59H120.5Z" fill="#CD1E19"/>
</svg>
