<svg width="293" height="139" viewBox="0 0 293 139" fill="none" xmlns="http://www.w3.org/2000/svg">
<path opacity="0.6" d="M292.951 126.853C293.122 126.328 292.835 125.764 292.31 125.593L283.752 122.806C283.227 122.635 282.662 122.922 282.491 123.447C282.32 123.972 282.607 124.537 283.133 124.708L290.74 127.185L288.263 134.792C288.092 135.317 288.379 135.881 288.904 136.052C289.429 136.223 289.993 135.936 290.164 135.411L292.951 126.853ZM2.86011 15.0573C3.33673 14.7782 3.49692 14.1657 3.21789 13.6891C2.93887 13.2124 2.32631 13.0523 1.84969 13.3313L2.86011 15.0573ZM6.3508 10.8167C5.86315 11.076 5.67799 11.6815 5.93725 12.1691C6.1965 12.6568 6.80199 12.8419 7.28964 12.5827L6.3508 10.8167ZM9.90892 11.2327C10.4031 10.986 10.6037 10.3855 10.3571 9.89135C10.1105 9.39719 9.50995 9.19653 9.01579 9.44316L9.90892 11.2327ZM13.5423 7.31122C13.0373 7.53477 12.8091 8.12538 13.0326 8.63041C13.2562 9.13543 13.8468 9.36361 14.3518 9.14007L13.5423 7.31122ZM17.155 7.95017C17.6667 7.74233 17.913 7.15903 17.7052 6.64735C17.4973 6.13567 16.914 5.88936 16.4024 6.09721L17.155 7.95017ZM21.1018 4.33135C20.5798 4.51149 20.3026 5.08076 20.4827 5.60284C20.6629 6.12492 21.2321 6.40211 21.7542 6.22197L21.1018 4.33135ZM24.5425 5.31258C25.0704 5.15042 25.3669 4.59099 25.2048 4.06304C25.0426 3.5351 24.4832 3.23857 23.9552 3.40073L24.5425 5.31258ZM28.9231 2.04141C28.386 2.1702 28.0551 2.70998 28.1839 3.24704C28.3127 3.7841 28.8525 4.11506 29.3895 3.98626L28.9231 2.04141ZM32.2501 3.35815C32.7917 3.25024 33.1433 2.72367 33.0354 2.18204C32.9275 1.6404 32.4009 1.28879 31.8593 1.3967L32.2501 3.35815ZM36.8862 0.572398C36.3384 0.642763 35.9514 1.14387 36.0218 1.69166C36.0921 2.23944 36.5932 2.62646 37.141 2.5561L36.8862 0.572398ZM40.0969 2.24067C40.6472 2.19397 41.0555 1.71 41.0088 1.15969C40.9621 0.609384 40.4781 0.201133 39.9278 0.247837L40.0969 2.24067ZM44.9668 0.0044834C44.4145 0.010826 43.972 0.463653 43.9783 1.0159C43.9847 1.56815 44.4375 2.01069 44.9897 2.00435L44.9668 0.0044834ZM47.9781 2.03791C48.53 2.05668 48.9927 1.62445 49.0115 1.07249C49.0303 0.520521 48.598 0.0578412 48.0461 0.0390618L47.9781 2.03791ZM53.0965 0.401326C52.5475 0.341145 52.0537 0.737409 51.9935 1.2864C51.9333 1.8354 52.3296 2.32924 52.8786 2.38942L53.0965 0.401326ZM55.8234 2.77974C56.3691 2.86462 56.8803 2.49103 56.9652 1.9453C57.0501 1.39958 56.6765 0.888377 56.1308 0.803502L55.8234 2.77974ZM61.1265 1.77055C60.5885 1.64587 60.0512 1.98095 59.9266 2.51898C59.8019 3.05701 60.137 3.59424 60.675 3.71892L61.1265 1.77055ZM63.544 4.44867C64.0762 4.59611 64.6272 4.28416 64.7747 3.75192C64.9221 3.21968 64.6101 2.66869 64.0779 2.52125L63.544 4.44867ZM68.9244 4.04431C68.4034 3.86116 67.8325 4.13506 67.6493 4.65609C67.4662 5.17712 67.7401 5.74797 68.2611 5.93113L68.9244 4.04431ZM71.053 6.97404C71.5666 7.17718 72.1476 6.92553 72.3507 6.41196C72.5539 5.8984 72.3022 5.31739 71.7887 5.11425L71.053 6.97404ZM76.4317 7.11591C75.9312 6.8824 75.3362 7.09882 75.1027 7.5993C74.8691 8.09979 75.0856 8.69482 75.5861 8.92834L76.4317 7.11591ZM78.2695 10.2364C78.7618 10.4866 79.3638 10.2903 79.614 9.79796C79.8643 9.30561 79.668 8.70364 79.1756 8.45341L78.2695 10.2364ZM83.6229 10.8624C83.1441 10.5871 82.5328 10.7521 82.2575 11.2309C81.9822 11.7097 82.1472 12.321 82.626 12.5962L83.6229 10.8624ZM85.187 14.1181C85.6578 14.4068 86.2735 14.2593 86.5623 13.7886C86.8511 13.3178 86.7035 12.7021 86.2328 12.4133L85.187 14.1181ZM90.5001 15.1632C90.0424 14.8542 89.4208 14.9748 89.1118 15.4325C88.8027 15.8902 88.9233 16.5118 89.381 16.8209L90.5001 15.1632ZM91.8199 18.5101C92.2702 18.8299 92.8944 18.724 93.2142 18.2737C93.5339 17.8234 93.4281 17.1991 92.9778 16.8794L91.8199 18.5101ZM97.0641 19.8958C96.6256 19.56 95.998 19.6432 95.6621 20.0816C95.3263 20.5201 95.4095 21.1478 95.848 21.4836L97.0641 19.8958ZM98.1933 23.3169C98.6252 23.6612 99.2544 23.5902 99.5986 23.1583C99.9429 22.7265 99.872 22.0973 99.4401 21.753L98.1933 23.3169ZM103.333 24.9536C102.912 24.5968 102.281 24.6492 101.924 25.0707C101.567 25.4923 101.619 26.1232 102.041 26.4801L103.333 24.9536ZM104.333 28.4525C104.748 28.8161 105.38 28.7738 105.744 28.358C106.107 27.9423 106.065 27.3106 105.649 26.947L104.333 28.4525ZM109.379 30.2895C108.972 29.9162 108.34 29.9435 107.966 30.3505C107.593 30.7575 107.62 31.3901 108.027 31.7634L109.379 30.2895ZM110.229 33.8089C110.631 34.1874 111.264 34.1682 111.642 33.766C112.021 33.3638 112.001 32.7309 111.599 32.3524L110.229 33.8089ZM115.238 35.8447C114.843 35.4586 114.21 35.4658 113.824 35.8607C113.438 36.2556 113.445 36.8887 113.84 37.2748L115.238 35.8447ZM115.967 39.3754C116.358 39.7654 116.991 39.7646 117.381 39.3736C117.771 38.9826 117.771 38.3494 117.38 37.9594L115.967 39.3754ZM120.93 41.5556C120.545 41.1598 119.912 41.1512 119.516 41.5364C119.12 41.9216 119.112 42.5547 119.497 42.9505L120.93 41.5556ZM121.577 45.1046C121.959 45.5034 122.592 45.5168 122.991 45.1347C123.39 44.7526 123.403 44.1195 123.021 43.7208L121.577 45.1046ZM126.475 47.3663C126.098 46.9634 125.465 46.9429 125.062 47.3206C124.659 47.6983 124.638 48.3312 125.016 48.7341L126.475 47.3663ZM127.074 50.9424C127.45 51.3475 128.082 51.3715 128.487 50.996C128.892 50.6206 128.917 49.9879 128.541 49.5828L127.074 50.9424ZM131.936 53.2753C131.564 52.8674 130.931 52.8385 130.523 53.2108C130.115 53.5831 130.086 54.2156 130.459 54.6235L131.936 53.2753ZM132.481 56.8482C132.852 57.2576 133.484 57.2888 133.894 56.918C134.303 56.5472 134.334 55.9148 133.964 55.5055L132.481 56.8482ZM137.334 59.2445C136.965 58.8335 136.333 58.7993 135.922 59.1681C135.51 59.537 135.476 60.1693 135.845 60.5803L137.334 59.2445ZM137.848 62.8172C138.217 63.2289 138.849 63.2643 139.26 62.8962C139.672 62.5281 139.708 61.896 139.34 61.4842L137.848 62.8172ZM142.682 65.2307C142.314 64.8183 141.682 64.7818 141.27 65.1492C140.858 65.5165 140.821 66.1486 141.188 66.561L142.682 65.2307ZM143.193 68.8125C143.561 69.2249 144.193 69.2616 144.605 68.8943C145.018 68.527 145.054 67.8949 144.687 67.4825L143.193 68.8125ZM148.024 71.2271C147.656 70.815 147.024 70.7791 146.612 71.1468C146.2 71.5145 146.164 72.1466 146.532 72.5587L148.024 71.2271ZM148.539 74.8046C148.907 75.2162 149.539 75.2512 149.951 74.8829C150.362 74.5146 150.397 73.8824 150.029 73.4709L148.539 74.8046ZM153.381 77.2027C153.011 76.7926 152.379 76.76 151.968 77.1299C151.558 77.4998 151.526 78.1322 151.896 78.5423L153.381 77.2027ZM153.92 80.7794C154.291 81.1883 154.923 81.2189 155.332 80.8477C155.741 80.4765 155.772 79.8441 155.401 79.4351L153.92 80.7794ZM158.777 83.1309C158.403 82.7245 157.771 82.6982 157.364 83.0721C156.958 83.4461 156.931 84.0787 157.305 84.4851L158.777 83.1309ZM159.354 86.701C159.73 87.1055 160.363 87.1287 160.767 86.7527C161.172 86.3768 161.195 85.744 160.819 85.3395L159.354 86.701ZM164.251 88.9971C163.871 88.5962 163.238 88.5792 162.837 88.9592C162.436 89.3391 162.419 89.972 162.799 90.3729L164.251 88.9971ZM164.877 92.5506C165.259 92.9489 165.893 92.9615 166.291 92.5789C166.689 92.1963 166.702 91.5632 166.319 91.165L164.877 92.5506ZM169.815 94.7576C169.427 94.3644 168.794 94.36 168.401 94.7479C168.008 95.1357 168.003 95.7688 168.391 96.162L169.815 94.7576ZM170.523 98.305C170.915 98.6947 171.548 98.6934 171.938 98.3021C172.327 97.9108 172.326 97.2777 171.935 96.8879L170.523 98.305ZM175.491 100.373C175.093 99.9898 174.46 100.002 174.077 100.399C173.694 100.797 173.705 101.43 174.103 101.813L175.491 100.373ZM176.306 103.912C176.708 104.291 177.341 104.272 177.719 103.87C178.098 103.468 178.079 102.835 177.677 102.456L176.306 103.912ZM181.348 105.844C180.938 105.474 180.306 105.506 179.935 105.916C179.565 106.326 179.597 106.958 180.007 107.328L181.348 105.844ZM182.249 109.327C182.664 109.692 183.296 109.652 183.661 109.237C184.025 108.822 183.985 108.19 183.57 107.825L182.249 109.327ZM187.381 111.093C186.957 110.739 186.327 110.796 185.973 111.22C185.619 111.643 185.675 112.274 186.099 112.628L187.381 111.093ZM188.432 114.544C188.862 114.891 189.491 114.824 189.838 114.394C190.185 113.965 190.118 113.335 189.688 112.988L188.432 114.544ZM193.614 116.062C193.174 115.729 192.547 115.815 192.213 116.255C191.88 116.695 191.966 117.322 192.406 117.656L193.614 116.062ZM194.845 119.468C195.292 119.793 195.917 119.695 196.242 119.248C196.567 118.801 196.468 118.176 196.022 117.851L194.845 119.468ZM200.077 120.693C199.619 120.384 198.997 120.505 198.689 120.963C198.38 121.421 198.501 122.043 198.959 122.351L200.077 120.693ZM201.513 124.03C201.979 124.327 202.597 124.192 202.895 123.727C203.192 123.261 203.057 122.643 202.592 122.345L201.513 124.03ZM206.834 124.937C206.356 124.66 205.744 124.821 205.466 125.299C205.189 125.776 205.35 126.388 205.828 126.666L206.834 124.937ZM208.463 128.152C208.948 128.416 209.555 128.238 209.82 127.753C210.084 127.268 209.906 126.661 209.421 126.396L208.463 128.152ZM213.851 128.677C213.354 128.436 212.756 128.645 212.515 129.142C212.275 129.639 212.483 130.237 212.98 130.477L213.851 128.677ZM215.73 131.755C216.234 131.98 216.825 131.753 217.05 131.249C217.275 130.744 217.048 130.153 216.544 129.928L215.73 131.755ZM221.129 131.823C220.613 131.626 220.035 131.885 219.839 132.401C219.642 132.918 219.901 133.495 220.417 133.692L221.129 131.823ZM223.281 134.725C223.804 134.904 224.372 134.624 224.551 134.102C224.729 133.579 224.45 133.011 223.927 132.832L223.281 134.725ZM228.656 134.287C228.123 134.141 227.573 134.454 227.427 134.987C227.281 135.519 227.594 136.07 228.127 136.216L228.656 134.287ZM231.076 136.965C231.614 137.091 232.152 136.757 232.278 136.219C232.404 135.681 232.069 135.143 231.532 135.017L231.076 136.965ZM236.4 135.99C235.855 135.9 235.34 136.268 235.25 136.813C235.159 137.358 235.527 137.873 236.072 137.963L236.4 135.99ZM239.067 138.4C239.615 138.469 240.115 138.081 240.184 137.533C240.253 136.985 239.864 136.485 239.316 136.416L239.067 138.4ZM244.247 136.871C243.696 136.838 243.223 137.259 243.19 137.81C243.158 138.362 243.578 138.835 244.13 138.867L244.247 136.871ZM247.196 138.986C247.748 138.997 248.204 138.558 248.214 138.005C248.225 137.453 247.786 136.997 247.233 136.987L247.196 138.986ZM252.135 136.92C251.584 136.945 251.157 137.413 251.182 137.965C251.207 138.516 251.675 138.943 252.227 138.918L252.135 136.92ZM255.294 138.718C255.844 138.671 256.253 138.188 256.206 137.637C256.16 137.087 255.676 136.679 255.125 136.725L255.294 138.718ZM260.02 136.159C259.474 136.239 259.096 136.747 259.176 137.293C259.256 137.84 259.764 138.218 260.311 138.138L260.02 136.159ZM263.295 137.646C263.838 137.546 264.198 137.025 264.099 136.482C263.999 135.939 263.478 135.579 262.935 135.678L263.295 137.646ZM267.873 134.626C267.337 134.756 267.007 135.297 267.138 135.834C267.268 136.37 267.809 136.7 268.346 136.569L267.873 134.626ZM271.214 135.824C271.746 135.676 272.058 135.126 271.911 134.593C271.764 134.061 271.213 133.749 270.681 133.896L271.214 135.824ZM275.406 132.458C274.882 132.632 274.598 133.198 274.772 133.722C274.945 134.246 275.511 134.53 276.036 134.357L275.406 132.458ZM278.971 133.335C279.49 133.145 279.757 132.571 279.568 132.053C279.378 131.534 278.804 131.266 278.286 131.456L278.971 133.335ZM282.851 129.674C282.341 129.886 282.099 130.472 282.311 130.982C282.523 131.492 283.108 131.733 283.618 131.521L282.851 129.674ZM286.378 130.334C286.882 130.109 287.109 129.518 286.885 129.013C286.66 128.509 286.069 128.282 285.564 128.506L286.378 130.334ZM290.153 126.351C289.658 126.595 289.455 127.195 289.7 127.69C289.945 128.185 290.544 128.388 291.039 128.144L290.153 126.351ZM1.5154 15.8553C1.96487 15.5849 2.41311 15.319 2.86011 15.0573L1.84969 13.3313C1.3958 13.597 0.940776 13.867 0.484597 14.1414L1.5154 15.8553ZM7.28964 12.5827C8.1675 12.116 9.04057 11.6661 9.90892 11.2327L9.01579 9.44316C8.13185 9.88433 7.24355 10.3421 6.3508 10.8167L7.28964 12.5827ZM14.3518 9.14007C15.2918 8.724 16.2261 8.32749 17.155 7.95017L16.4024 6.09721C15.4541 6.48239 14.5008 6.88696 13.5423 7.31122L14.3518 9.14007ZM21.7542 6.22197C22.6892 5.89936 23.6186 5.59635 24.5425 5.31258L23.9552 3.40073C23.0092 3.6913 22.0581 4.00139 21.1018 4.33135L21.7542 6.22197ZM29.3895 3.98626C30.3489 3.75619 31.3024 3.54697 32.2501 3.35815L31.8593 1.3967C30.886 1.59061 29.9073 1.80537 28.9231 2.04141L29.3895 3.98626ZM37.141 2.5561C38.1325 2.42873 39.1178 2.32377 40.0969 2.24067L39.9278 0.247837C38.9199 0.333377 37.9061 0.441392 36.8862 0.572398L37.141 2.5561ZM44.9897 2.00435C45.992 1.99284 46.9881 2.00422 47.9781 2.03791L48.0461 0.0390618C47.0258 0.00435007 45.9994 -0.00737691 44.9668 0.0044834L44.9897 2.00435ZM52.8786 2.38942C53.866 2.49765 54.8475 2.62797 55.8234 2.77974L56.1308 0.803502C55.1254 0.647143 54.1141 0.512867 53.0965 0.401326L52.8786 2.38942ZM60.675 3.71892C61.6366 3.94174 62.5928 4.18519 63.544 4.44867L64.0779 2.52125C63.0998 2.25032 62.1161 1.99986 61.1265 1.77055L60.675 3.71892ZM68.2611 5.93113C69.1964 6.25992 70.127 6.60776 71.053 6.97404L71.7887 5.11425C70.8392 4.73869 69.8845 4.38182 68.9244 4.04431L68.2611 5.93113ZM75.5861 8.92834C76.4846 9.34758 77.379 9.78378 78.2695 10.2364L79.1756 8.45341C78.2657 7.99093 77.3511 7.54489 76.4317 7.11591L75.5861 8.92834ZM82.626 12.5962C83.4831 13.089 84.3367 13.5965 85.187 14.1181L86.2328 12.4133C85.3668 11.882 84.4969 11.3649 83.6229 10.8624L82.626 12.5962ZM89.381 16.8209C90.1968 17.3716 91.0098 17.9349 91.8199 18.5101L92.9778 16.8794C92.1552 16.2953 91.3294 15.7231 90.5001 15.1632L89.381 16.8209ZM95.848 21.4836C96.6322 22.0842 97.4139 22.6955 98.1933 23.3169L99.4401 21.753C98.6509 21.1238 97.8589 20.5046 97.0641 19.8958L95.848 21.4836ZM102.041 26.4801C102.807 27.1285 103.571 27.7861 104.333 28.4525L105.649 26.947C104.88 26.2738 104.108 25.6092 103.333 24.9536L102.041 26.4801ZM108.027 31.7634C108.763 32.4379 109.496 33.1198 110.229 33.8089L111.599 32.3524C110.861 31.6578 110.121 30.9699 109.379 30.2895L108.027 31.7634ZM113.84 37.2748C114.55 37.9691 115.259 38.6694 115.967 39.3754L117.38 37.9594C116.667 37.2489 115.954 36.5438 115.238 35.8447L113.84 37.2748ZM119.497 42.9505C120.191 43.6638 120.885 44.382 121.577 45.1046L123.021 43.7208C122.325 42.9947 121.628 42.2728 120.93 41.5556L119.497 42.9505ZM125.016 48.7341C125.703 49.4666 126.389 50.2028 127.074 50.9424L128.541 49.5828C127.853 48.8407 127.165 48.1017 126.475 47.3663L125.016 48.7341ZM130.459 54.6235C131.133 55.3626 131.807 56.1043 132.481 56.8482L133.964 55.5055C133.288 54.7599 132.612 54.0164 131.936 53.2753L130.459 54.6235ZM135.845 60.5803C136.513 61.3244 137.181 62.0702 137.848 62.8172L139.34 61.4842C138.671 60.7364 138.002 59.9897 137.334 59.2445L135.845 60.5803ZM141.188 66.561C141.856 67.311 142.525 68.0615 143.193 68.8125L144.687 67.4825C144.018 66.7316 143.35 65.9809 142.682 65.2307L141.188 66.561ZM146.532 72.5587C147.2 73.3078 147.869 74.0565 148.539 74.8046L150.029 73.4709C149.36 72.7236 148.692 71.9756 148.024 71.2271L146.532 72.5587ZM151.896 78.5423C152.569 79.2894 153.244 80.0352 153.92 80.7794L155.401 79.4351C154.727 78.6927 154.053 77.9484 153.381 77.2027L151.896 78.5423ZM157.305 84.4851C157.987 85.2261 158.67 85.9649 159.354 86.701L160.819 85.3395C160.137 84.6059 159.457 83.8696 158.777 83.1309L157.305 84.4851ZM162.799 90.3729C163.49 91.1022 164.183 91.8282 164.877 92.5506L166.319 91.165C165.628 90.446 164.939 89.7233 164.251 88.9971L162.799 90.3729ZM168.391 96.162C169.1 96.8808 169.811 97.5953 170.523 98.305L171.935 96.8879C171.227 96.1826 170.52 95.4724 169.815 94.7576L168.391 96.162ZM174.103 101.813C174.835 102.519 175.569 103.218 176.306 103.912L177.677 102.456C176.946 101.768 176.218 101.073 175.491 100.373L174.103 101.813ZM180.007 107.328C180.752 108.002 181.499 108.668 182.249 109.327L183.57 107.825C182.827 107.172 182.086 106.512 181.348 105.844L180.007 107.328ZM186.099 112.628C186.874 113.275 187.651 113.914 188.432 114.544L189.688 112.988C188.917 112.365 188.148 111.733 187.381 111.093L186.099 112.628ZM192.406 117.656C193.215 118.27 194.029 118.874 194.845 119.468L196.022 117.851C195.216 117.265 194.414 116.669 193.614 116.062L192.406 117.656ZM198.959 122.351C199.806 122.923 200.658 123.482 201.513 124.03L202.592 122.345C201.75 121.806 200.911 121.255 200.077 120.693L198.959 122.351ZM205.828 126.666C206.702 127.174 207.58 127.67 208.463 128.152L209.421 126.396C208.555 125.923 207.692 125.437 206.834 124.937L205.828 126.666ZM212.98 130.477C213.891 130.918 214.808 131.344 215.73 131.755L216.544 129.928C215.642 129.526 214.744 129.109 213.851 128.677L212.98 130.477ZM220.417 133.692C221.366 134.053 222.321 134.398 223.281 134.725L223.927 132.832C222.989 132.513 222.057 132.176 221.129 131.823L220.417 133.692ZM228.127 136.216C229.104 136.484 230.087 136.734 231.076 136.965L231.532 135.017C230.568 134.792 229.609 134.548 228.656 134.287L228.127 136.216ZM236.072 137.963C237.064 138.128 238.063 138.274 239.067 138.4L239.316 136.416C238.338 136.293 237.366 136.151 236.4 135.99L236.072 137.963ZM244.13 138.867C245.146 138.927 246.168 138.967 247.196 138.986L247.233 136.987C246.232 136.968 245.236 136.929 244.247 136.871L244.13 138.867ZM252.227 138.918C253.243 138.871 254.265 138.805 255.294 138.718L255.125 136.725C254.122 136.81 253.126 136.875 252.135 136.92L252.227 138.918ZM260.311 138.138C261.3 137.992 262.295 137.829 263.295 137.646L262.935 135.678C261.958 135.857 260.986 136.017 260.02 136.159L260.311 138.138ZM268.346 136.569C269.297 136.338 270.253 136.09 271.214 135.824L270.681 133.896C269.739 134.156 268.804 134.399 267.873 134.626L268.346 136.569ZM276.036 134.357C277.009 134.034 277.987 133.693 278.971 133.335L278.286 131.456C277.32 131.808 276.36 132.142 275.406 132.458L276.036 134.357ZM283.618 131.521C284.533 131.141 285.453 130.745 286.378 130.334L285.564 128.506C284.655 128.911 283.75 129.301 282.851 129.674L283.618 131.521ZM291.039 128.144C291.51 127.911 291.981 127.675 292.453 127.435L291.547 125.652C291.081 125.889 290.617 126.122 290.153 126.351L291.039 128.144Z" fill="#FEFEFE"/>
</svg>
