<svg width="258" height="116" viewBox="0 0 258 116" fill="none" xmlns="http://www.w3.org/2000/svg">
<path d="M13.544 3.7068C13.7059 3.17879 14.2652 2.88202 14.7932 3.04395L23.3977 5.68271C23.9257 5.84464 24.2225 6.40395 24.0605 6.93196C23.8986 7.45998 23.3393 7.75675 22.8113 7.59482L15.1629 5.24925L12.8173 12.8977C12.6554 13.4257 12.0961 13.7225 11.568 13.5605C11.04 13.3986 10.7433 12.8393 10.9052 12.3113L13.544 3.7068ZM242.684 113.177C242.562 112.638 242.9 112.103 243.439 111.981C243.977 111.86 244.513 112.198 244.634 112.736L242.684 113.177ZM243.418 107.724C243.557 108.258 243.237 108.804 242.702 108.943C242.168 109.082 241.622 108.762 241.482 108.227L243.418 107.724ZM240.71 105.376C240.56 104.845 240.87 104.292 241.401 104.142C241.933 103.993 242.485 104.302 242.635 104.834L240.71 105.376ZM241.176 100C241.346 100.526 241.057 101.09 240.531 101.259C240.006 101.429 239.442 101.14 239.273 100.614L241.176 100ZM238.301 97.7258C238.119 97.2046 238.393 96.6341 238.915 96.4515C239.436 96.2689 240.006 96.5434 240.189 97.0646L238.301 97.7258ZM238.441 92.3966C238.646 92.9094 238.396 93.4913 237.884 93.6964C237.371 93.9015 236.789 93.6521 236.584 93.1393L238.441 92.3966ZM235.42 90.3481C235.2 89.8415 235.433 89.2525 235.939 89.0325C236.446 88.8126 237.035 89.0449 237.255 89.5515L235.42 90.3481ZM235.098 84.9168C235.344 85.4111 235.143 86.0115 234.649 86.2579C234.155 86.5043 233.554 86.3033 233.308 85.809L235.098 84.9168ZM231.974 83.2393C231.712 82.7535 231.892 82.1467 232.378 81.8841C232.864 81.6215 233.471 81.8025 233.734 82.2884L231.974 83.2393ZM231.128 77.8032C231.42 78.2716 231.277 78.8885 230.809 79.1811C230.341 79.4736 229.724 79.331 229.431 78.8625L231.128 77.8032ZM227.828 76.4026C227.517 75.9459 227.635 75.3239 228.092 75.0133C228.549 74.7026 229.171 74.8209 229.481 75.2776L227.828 76.4026ZM226.449 71.1403C226.791 71.5737 226.717 72.2026 226.284 72.5449C225.851 72.8873 225.222 72.8135 224.879 72.3801L226.449 71.1403ZM222.995 70.1005C222.633 69.6829 222.679 69.0514 223.096 68.69C223.514 68.3285 224.145 68.3741 224.507 68.7917L222.995 70.1005ZM221.014 65.0607C221.408 65.4486 221.412 66.0818 221.024 66.4748C220.636 66.8679 220.003 66.8721 219.61 66.4841L221.014 65.0607ZM217.449 64.4531C217.038 64.0848 217.003 63.4526 217.371 63.0411C217.74 62.6296 218.372 62.5947 218.783 62.963L217.449 64.4531ZM214.841 59.7155C215.281 60.0487 215.368 60.6759 215.035 61.1163C214.702 61.5567 214.074 61.6436 213.634 61.3104L214.841 59.7155ZM211.224 59.5795C210.768 59.2685 210.65 58.6464 210.961 58.19C211.272 57.7336 211.894 57.6157 212.35 57.9267L211.224 59.5795ZM208.016 55.2256C208.496 55.4985 208.664 56.109 208.391 56.5891C208.118 57.0693 207.508 57.2372 207.028 56.9643L208.016 55.2256ZM204.411 55.5576C203.918 55.3076 203.722 54.7058 203.971 54.2133C204.221 53.7208 204.823 53.5242 205.316 53.7742L204.411 55.5576ZM200.683 51.6393C201.193 51.8517 201.434 52.4372 201.221 52.947C201.009 53.4568 200.424 53.6979 199.914 53.4855L200.683 51.6393ZM197.139 52.3981C196.621 52.2074 196.355 51.6327 196.546 51.1144C196.736 50.596 197.311 50.3304 197.83 50.5211L197.139 52.3981ZM192.997 48.9228C193.526 49.0793 193.829 49.6356 193.672 50.1652C193.516 50.6949 192.959 50.9974 192.43 50.8408L192.997 48.9228ZM189.546 50.0455C189.011 49.9081 188.689 49.3631 188.826 48.8282C188.964 48.2933 189.509 47.971 190.044 48.1083L189.546 50.0455ZM185.092 46.9822C185.634 47.0903 185.985 47.617 185.877 48.1586C185.769 48.7002 185.242 49.0516 184.701 48.9435L185.092 46.9822ZM181.749 48.4C181.205 48.3079 180.838 47.7918 180.93 47.2473C181.022 46.7027 181.538 46.3359 182.083 46.428L181.749 48.4ZM177.069 45.6952C177.617 45.7633 178.006 46.2629 177.938 46.811C177.87 47.359 177.37 47.748 176.822 47.6799L177.069 45.6952ZM173.834 47.3441C173.284 47.2888 172.883 46.7985 172.939 46.249C172.994 45.6995 173.484 45.2989 174.034 45.3542L173.834 47.3441ZM168.992 44.9363C169.543 44.9727 169.96 45.449 169.923 46.0001C169.887 46.5512 169.411 46.9684 168.86 46.932L168.992 44.9363ZM165.854 46.7612C165.302 46.7348 164.876 46.2662 164.903 45.7145C164.929 45.1629 165.398 44.7371 165.95 44.7635L165.854 46.7612ZM160.897 44.5897C161.449 44.6017 161.887 45.059 161.875 45.6112C161.863 46.1633 161.406 46.6012 160.854 46.5893L160.897 44.5897ZM157.842 46.5446C157.29 46.5401 156.846 46.0887 156.851 45.5365C156.855 44.9842 157.306 44.5402 157.859 44.5447L157.842 46.5446ZM152.805 44.5531C153.358 44.5471 153.81 44.99 153.816 45.5422C153.822 46.0945 153.379 46.547 152.827 46.553L152.805 44.5531ZM149.815 46.6003C149.263 46.6115 148.806 46.1729 148.795 45.6208C148.784 45.0686 149.223 44.6119 149.775 44.6007L149.815 46.6003ZM144.725 44.7371C145.277 44.7188 145.739 45.1515 145.758 45.7035C145.776 46.2555 145.343 46.7177 144.791 46.736L144.725 44.7371ZM141.78 46.845C141.228 46.8665 140.763 46.4366 140.742 45.8847C140.72 45.3329 141.15 44.868 141.702 44.8465L141.78 46.845ZM136.659 45.0628C137.21 45.0373 137.678 45.4639 137.704 46.0156C137.729 46.5673 137.302 47.0352 136.751 47.0607L136.659 45.0628ZM133.739 47.2041C133.187 47.231 132.718 46.8057 132.691 46.2541C132.664 45.7024 133.089 45.2334 133.641 45.2065L133.739 47.2041ZM128.605 45.4585C129.157 45.4305 129.627 45.855 129.655 46.4066C129.683 46.9581 129.258 47.428 128.706 47.4559L128.605 45.4585ZM125.69 47.6085C125.139 47.6362 124.669 47.2116 124.641 46.66C124.613 46.1084 125.038 45.6387 125.59 45.611L125.69 47.6085ZM120.563 45.8568C121.115 45.8309 121.583 46.2571 121.609 46.8088C121.635 47.3604 121.209 47.8287 120.657 47.8546L120.563 45.8568ZM117.633 47.9917C117.081 48.0157 116.614 47.5879 116.59 47.0361C116.566 46.4844 116.994 46.0176 117.546 45.9936L117.633 47.9917ZM112.526 46.1922C113.078 46.1729 113.541 46.6046 113.56 47.1566C113.58 47.7085 113.148 48.1716 112.596 48.191L112.526 46.1922ZM109.566 48.2875C109.013 48.3032 108.553 47.8684 108.538 47.3163C108.522 46.7643 108.957 46.304 109.509 46.2883L109.566 48.2875ZM104.49 46.3978C105.042 46.3897 105.497 46.8308 105.505 47.383C105.513 47.9353 105.072 48.3895 104.519 48.3976L104.49 46.3978ZM101.488 48.427C100.935 48.4296 100.485 47.984 100.483 47.4317C100.48 46.8794 100.926 46.4296 101.478 46.4271L101.488 48.427ZM96.4604 46.4026C97.0126 46.4109 97.4535 46.8653 97.4452 47.4175C97.4369 47.9697 96.9826 48.4107 96.4303 48.4024L96.4604 46.4026ZM93.4018 48.3367C92.8497 48.3208 92.415 47.8605 92.4308 47.3084C92.4466 46.7564 92.907 46.3217 93.459 46.3375L93.4018 48.3367ZM88.446 46.1302C88.9975 46.1604 89.42 46.632 89.3898 47.1834C89.3596 47.7349 88.8881 48.1575 88.3367 48.1273L88.446 46.1302ZM85.3165 47.9355C84.7656 47.8956 84.3515 47.4167 84.3914 46.8659C84.4313 46.315 84.9102 45.9008 85.4611 45.9408L85.3165 47.9355ZM80.4652 45.4971C81.0144 45.5553 81.4124 46.0477 81.3542 46.5969C81.2959 47.1461 80.8035 47.5441 80.2543 47.4859L80.4652 45.4971ZM77.2452 47.1337C76.6974 47.0633 76.3104 46.5622 76.3808 46.0144C76.4511 45.4666 76.9522 45.0796 77.5 45.15L77.2452 47.1337ZM72.5482 44.4122C73.0926 44.5051 73.4587 45.0217 73.3658 45.5661C73.273 46.1105 72.7563 46.4766 72.2119 46.3838L72.5482 44.4122ZM69.225 45.8332C68.6832 45.7256 68.3313 45.1993 68.4388 44.6576C68.5464 44.1159 69.0727 43.7639 69.6144 43.8714L69.225 45.8332ZM64.7423 42.7803C65.2781 42.9146 65.6035 43.4577 65.4692 43.9934C65.335 44.5291 64.7918 44.8546 64.2561 44.7203L64.7423 42.7803ZM61.3135 43.9327C60.7824 43.7812 60.4746 43.2279 60.626 42.6968C60.7775 42.1657 61.3308 41.8579 61.8619 42.0094L61.3135 43.9327ZM57.116 40.5082C57.6374 40.6902 57.9126 41.2604 57.7307 41.7818C57.5487 42.3033 56.9784 42.5785 56.457 42.3965L57.116 40.5082ZM53.5906 41.3365C53.0763 41.1353 52.8225 40.5553 53.0237 40.041C53.2249 39.5266 53.805 39.2728 54.3193 39.474L53.5906 41.3365ZM49.7589 37.5177C50.259 37.7521 50.4744 38.3475 50.2401 38.8476C50.0057 39.3477 49.4103 39.5631 48.9102 39.3287L49.7589 37.5177ZM46.1611 37.9711C45.6711 37.7164 45.4803 37.1126 45.735 36.6226C45.9897 36.1325 46.5935 35.9418 47.0835 36.1965L46.1611 37.9711ZM42.7757 33.7621C43.2466 34.0506 43.3944 34.6663 43.1058 35.1372C42.8173 35.6081 42.2016 35.7559 41.7307 35.4674L42.7757 33.7621ZM39.145 33.8049C38.6871 33.4962 38.5661 32.8747 38.8748 32.4167C39.1835 31.9588 39.805 31.8378 40.2629 32.1465L39.145 33.8049ZM36.27 29.2401C36.7045 29.581 36.7804 30.2096 36.4395 30.6441C36.0986 31.0786 35.47 31.1545 35.0355 30.8136L36.27 29.2401ZM32.6576 28.8632C32.2383 28.5038 32.1897 27.8725 32.5491 27.4532C32.9085 27.0339 33.5398 26.9853 33.9592 27.3447L32.6576 28.8632ZM30.3236 23.9989C30.7167 24.3868 30.7208 25.02 30.3328 25.413C29.9449 25.8061 29.3117 25.8102 28.9186 25.4223L30.3236 23.9989ZM26.7828 23.2252C26.406 22.8214 26.4279 22.1886 26.8317 21.8118C27.2355 21.435 27.8683 21.4569 28.2451 21.8607L26.7828 23.2252ZM24.9791 18.1192C25.3286 18.5468 25.2652 19.1768 24.8375 19.5263C24.4098 19.8757 23.7798 19.8123 23.4304 19.3846L24.9791 18.1192ZM21.5546 16.999C21.2213 16.5586 21.3081 15.9314 21.7485 15.5981C22.1889 15.2649 22.8161 15.3517 23.1494 15.7921L21.5546 16.999ZM20.2357 11.6897C20.5421 12.1492 20.418 12.7701 19.9584 13.0764C19.4989 13.3828 18.8781 13.2586 18.5717 12.7991L20.2357 11.6897ZM16.9567 10.2886C16.6655 9.81935 16.8098 9.20285 17.279 8.91161C17.7483 8.62036 18.3648 8.76466 18.656 9.23391L16.9567 10.2886ZM16.12 4.89453C16.3863 5.37839 16.2099 5.98649 15.726 6.25275C15.2421 6.51902 14.634 6.34262 14.3678 5.85876L16.12 4.89453ZM243.023 114.711C242.911 114.196 242.798 113.685 242.684 113.177L244.634 112.736C244.75 113.25 244.865 113.768 244.977 114.289L243.023 114.711ZM241.482 108.227C241.231 107.262 240.974 106.312 240.71 105.376L242.635 104.834C242.903 105.782 243.164 106.746 243.418 107.724L241.482 108.227ZM239.273 100.614C238.956 99.6343 238.633 98.6715 238.301 97.7258L240.189 97.0646C240.526 98.0262 240.855 99.0047 241.176 100L239.273 100.614ZM236.584 93.1393C236.204 92.19 235.816 91.2598 235.42 90.3481L237.255 89.5515C237.659 90.4813 238.054 91.4296 238.441 92.3966L236.584 93.1393ZM233.308 85.809C232.872 84.9335 232.427 84.077 231.974 83.2393L233.734 82.2884C234.197 83.1458 234.652 84.0218 235.098 84.9168L233.308 85.809ZM229.431 78.8625C228.906 78.0213 228.371 77.2015 227.828 76.4026L229.481 75.2776C230.04 76.0984 230.589 76.9401 231.128 77.8032L229.431 78.8625ZM224.879 72.3801C224.261 71.5975 223.633 70.8378 222.995 70.1005L224.507 68.7917C225.165 69.5518 225.812 70.3344 226.449 71.1403L224.879 72.3801ZM219.61 66.4841C218.9 65.7837 218.18 65.107 217.449 64.4531L218.783 62.963C219.538 63.6385 220.282 64.3375 221.014 65.0607L219.61 66.4841ZM213.634 61.3104C212.841 60.7105 212.038 60.1338 211.224 59.5795L212.35 57.9267C213.191 58.4995 214.021 59.0955 214.841 59.7155L213.634 61.3104ZM207.028 56.9643C206.165 56.474 205.293 56.0054 204.411 55.5576L205.316 53.7742C206.226 54.236 207.126 54.7195 208.016 55.2256L207.028 56.9643ZM199.914 53.4855C198.998 53.1039 198.073 52.7417 197.139 52.3981L197.83 50.5211C198.789 50.8742 199.741 51.2466 200.683 51.6393L199.914 53.4855ZM192.43 50.8408C191.477 50.5592 190.516 50.2944 189.546 50.0455L190.044 48.1083C191.035 48.363 192.02 48.6342 192.997 48.9228L192.43 50.8408ZM184.701 48.9435C183.724 48.7484 182.74 48.5676 181.749 48.4L182.083 46.428C183.092 46.5987 184.095 46.7832 185.092 46.9822L184.701 48.9435ZM176.822 47.6799C175.832 47.5566 174.835 47.445 173.834 47.3441L174.034 45.3542C175.051 45.4565 176.062 45.5699 177.069 45.6952L176.822 47.6799ZM168.86 46.932C167.862 46.8661 166.86 46.8094 165.854 46.7612L165.95 44.7635C166.968 44.8122 167.982 44.8696 168.992 44.9363L168.86 46.932ZM160.854 46.5893C159.854 46.5675 158.85 46.5529 157.842 46.5446L157.859 44.5447C158.875 44.553 159.888 44.5678 160.897 44.5897L160.854 46.5893ZM152.827 46.553C151.826 46.5638 150.822 46.5798 149.815 46.6003L149.775 44.6007C150.787 44.5801 151.798 44.564 152.805 44.5531L152.827 46.553ZM144.791 46.736C143.79 46.7692 142.786 46.8057 141.78 46.845L141.702 44.8465C142.711 44.8071 143.719 44.7704 144.725 44.7371L144.791 46.736ZM136.751 47.0607C135.748 47.107 134.744 47.155 133.739 47.2041L133.641 45.2065C134.648 45.1573 135.654 45.1092 136.659 45.0628L136.751 47.0607ZM128.706 47.4559C127.702 47.5069 126.696 47.5579 125.69 47.6085L125.59 45.611C126.595 45.5605 127.6 45.5094 128.605 45.4585L128.706 47.4559ZM120.657 47.8546C119.649 47.902 118.641 47.9479 117.633 47.9917L117.546 45.9936C118.551 45.9499 119.557 45.9041 120.563 45.8568L120.657 47.8546ZM112.596 48.191C111.585 48.2265 110.575 48.2588 109.566 48.2875L109.509 46.2883C110.513 46.2598 111.519 46.2275 112.526 46.1922L112.596 48.191ZM104.519 48.3976C103.507 48.4123 102.497 48.4224 101.488 48.427L101.478 46.4271C102.48 46.4224 103.484 46.4125 104.49 46.3978L104.519 48.3976ZM96.4303 48.4024C95.4187 48.3872 94.4091 48.3655 93.4018 48.3367L93.459 46.3375C94.4569 46.366 95.4574 46.3875 96.4604 46.4026L96.4303 48.4024ZM88.3367 48.1273C87.3271 48.072 86.3203 48.0083 85.3165 47.9355L85.4611 45.9408C86.4526 46.0126 87.4477 46.0756 88.446 46.1302L88.3367 48.1273ZM80.2543 47.4859C79.2476 47.3792 78.2445 47.262 77.2452 47.1337L77.5 45.15C78.4841 45.2764 79.4726 45.3918 80.4652 45.4971L80.2543 47.4859ZM72.2119 46.3838C71.2117 46.2132 70.2159 46.0299 69.225 45.8332L69.6144 43.8714C70.5871 44.0645 71.5651 44.2446 72.5482 44.4122L72.2119 46.3838ZM64.2561 44.7203C63.2697 44.4731 62.2887 44.2108 61.3135 43.9327L61.8619 42.0094C62.8159 42.2814 63.7761 42.5381 64.7423 42.7803L64.2561 44.7203ZM56.457 42.3965C55.495 42.0608 54.5394 41.7077 53.5906 41.3365L54.3193 39.474C55.2445 39.8359 56.1768 40.1804 57.116 40.5082L56.457 42.3965ZM48.9102 39.3287C47.9863 38.8957 47.0698 38.4434 46.1611 37.9711L47.0835 36.1965C47.9676 36.656 48.8595 37.0962 49.7589 37.5177L48.9102 39.3287ZM41.7307 35.4674C40.8606 34.9342 39.9986 34.3802 39.145 33.8049L40.2629 32.1465C41.0923 32.7055 41.93 33.2438 42.7757 33.7621L41.7307 35.4674ZM35.0355 30.8136C34.2342 30.185 33.4415 29.5351 32.6576 28.8632L33.9592 27.3447C34.721 27.9977 35.4914 28.6293 36.27 29.2401L35.0355 30.8136ZM28.9186 25.4223C28.198 24.711 27.486 23.9788 26.7828 23.2252L28.2451 21.8607C28.9297 22.5944 29.6226 23.3069 30.3236 23.9989L28.9186 25.4223ZM23.4304 19.3846C22.7969 18.6093 22.1715 17.8142 21.5546 16.999L23.1494 15.7921C23.7515 16.5877 24.3614 17.3632 24.9791 18.1192L23.4304 19.3846ZM18.5717 12.7991C18.0258 11.9804 17.4875 11.1437 16.9567 10.2886L18.656 9.23391C19.1754 10.0708 19.7021 10.8892 20.2357 11.6897L18.5717 12.7991ZM14.3678 5.85876C14.1154 5.40016 13.865 4.93683 13.6166 4.46871L15.3834 3.53129C15.627 3.9905 15.8726 4.4449 16.12 4.89453L14.3678 5.85876Z" fill="#FEFEFE"/>
</svg>
