<svg width="177" height="27" viewBox="0 0 177 27" fill="none" xmlns="http://www.w3.org/2000/svg">
<path d="M14.42 21L13.244 17.472H5.432L4.256 21H0.084L6.944 1.4H11.732L18.62 21H14.42ZM6.664 13.86H12.04L9.352 5.852L6.664 13.86ZM32.0652 1.4V5.096H26.7733V21H22.9093V5.096H17.6453V1.4H32.0652Z" fill="#0C7AEB"/>
<path d="M37.6663 9.408C38.0023 8.512 38.553 7.84 39.3183 7.392C40.1023 6.944 40.9703 6.72 41.9223 6.72V10.752C40.821 10.6213 39.8317 10.8453 38.9543 11.424C38.0957 12.0027 37.6663 12.964 37.6663 14.308V21H34.0543V7H37.6663V9.408ZM46.5673 15.484C47.0526 17.2387 48.3686 18.116 50.5153 18.116C51.8966 18.116 52.9419 17.6493 53.6513 16.716L56.5633 18.396C55.1819 20.3933 53.1473 21.392 50.4593 21.392C48.1446 21.392 46.2873 20.692 44.8873 19.292C43.4873 17.892 42.7873 16.128 42.7873 14C42.7873 11.8907 43.4779 10.136 44.8593 8.736C46.2406 7.31733 48.0139 6.608 50.1793 6.608C52.2326 6.608 53.9219 7.31733 55.2473 8.736C56.5913 10.1547 57.2633 11.9093 57.2633 14C57.2633 14.4667 57.2166 14.9613 57.1233 15.484H46.5673ZM46.5113 12.684H53.6513C53.4459 11.732 53.0166 11.0227 52.3633 10.556C51.7286 10.0893 51.0006 9.856 50.1793 9.856C49.2086 9.856 48.4059 10.108 47.7713 10.612C47.1366 11.0973 46.7166 11.788 46.5113 12.684ZM62.5699 10.976C62.5699 11.3493 62.8126 11.6573 63.2979 11.9C63.8019 12.124 64.4086 12.3293 65.1179 12.516C65.8273 12.684 66.5366 12.908 67.2459 13.188C67.9553 13.4493 68.5526 13.8973 69.0379 14.532C69.5419 15.1667 69.7939 15.96 69.7939 16.912C69.7939 18.3493 69.2526 19.46 68.1699 20.244C67.1059 21.0093 65.7713 21.392 64.1659 21.392C61.2913 21.392 59.3313 20.2813 58.2859 18.06L61.4219 16.296C61.8326 17.5093 62.7473 18.116 64.1659 18.116C65.4539 18.116 66.0979 17.7147 66.0979 16.912C66.0979 16.5387 65.8459 16.24 65.3419 16.016C64.8566 15.7733 64.2593 15.5587 63.5499 15.372C62.8406 15.1853 62.1313 14.952 61.4219 14.672C60.7126 14.392 60.1059 13.9533 59.6019 13.356C59.1166 12.74 58.8739 11.9747 58.8739 11.06C58.8739 9.67867 59.3779 8.596 60.3859 7.812C61.4126 7.00933 62.6819 6.608 64.1939 6.608C65.3326 6.608 66.3686 6.86933 67.3019 7.392C68.2353 7.896 68.9726 8.624 69.5139 9.576L66.4339 11.256C65.9859 10.304 65.2393 9.828 64.1939 9.828C63.7273 9.828 63.3353 9.93067 63.0179 10.136C62.7193 10.3413 62.5699 10.6213 62.5699 10.976ZM81.3568 7H84.9688V21H81.3568V19.432C80.4795 20.7387 79.0888 21.392 77.1848 21.392C75.6542 21.392 74.3848 20.8787 73.3768 19.852C72.3875 18.8253 71.8928 17.4067 71.8928 15.596V7H75.5048V15.148C75.5048 16.0813 75.7568 16.8 76.2608 17.304C76.7648 17.7893 77.4368 18.032 78.2768 18.032C79.2102 18.032 79.9568 17.7427 80.5168 17.164C81.0768 16.5853 81.3568 15.7173 81.3568 14.56V7ZM88.277 21V0.559999H91.889V21H88.277ZM103.203 10.472H100.039V16.296C100.039 16.7813 100.16 17.136 100.403 17.36C100.646 17.584 101 17.7147 101.467 17.752C101.934 17.7707 102.512 17.7613 103.203 17.724V21C100.72 21.28 98.9656 21.0467 97.939 20.3C96.931 19.5533 96.427 18.2187 96.427 16.296V10.472H93.991V7H96.427V4.172L100.039 3.08V7H103.203V10.472ZM107.542 5.32C106.944 5.32 106.422 5.10533 105.974 4.676C105.544 4.228 105.33 3.70533 105.33 3.108C105.33 2.51067 105.544 1.988 105.974 1.54C106.422 1.092 106.944 0.867999 107.542 0.867999C108.158 0.867999 108.68 1.092 109.11 1.54C109.558 1.988 109.782 2.51067 109.782 3.108C109.782 3.70533 109.558 4.228 109.11 4.676C108.68 5.10533 108.158 5.32 107.542 5.32ZM105.75 21V7H109.362V21H105.75ZM120.452 6.608C121.982 6.608 123.242 7.12133 124.232 8.148C125.24 9.17467 125.744 10.5933 125.744 12.404V21H122.132V12.852C122.132 11.9187 121.88 11.2093 121.376 10.724C120.872 10.22 120.2 9.968 119.36 9.968C118.426 9.968 117.68 10.2573 117.12 10.836C116.56 11.4147 116.28 12.2827 116.28 13.44V21H112.668V7H116.28V8.568C117.157 7.26133 118.548 6.608 120.452 6.608ZM139.552 7H143.08V20.328C143.08 22.4933 142.361 24.1453 140.924 25.284C139.505 26.4227 137.788 26.992 135.772 26.992C134.26 26.992 132.925 26.7027 131.768 26.124C130.629 25.5453 129.752 24.696 129.136 23.576L132.216 21.812C132.925 23.1187 134.148 23.772 135.884 23.772C137.022 23.772 137.918 23.4733 138.572 22.876C139.225 22.2787 139.552 21.4293 139.552 20.328V18.816C138.488 20.2347 136.994 20.944 135.072 20.944C133.093 20.944 131.432 20.2533 130.088 18.872C128.762 17.472 128.1 15.7733 128.1 13.776C128.1 11.7973 128.772 10.108 130.116 8.708C131.46 7.308 133.112 6.608 135.072 6.608C136.994 6.608 138.488 7.31733 139.552 8.736V7ZM132.804 16.548C133.55 17.2573 134.493 17.612 135.632 17.612C136.77 17.612 137.704 17.2573 138.432 16.548C139.178 15.82 139.552 14.896 139.552 13.776C139.552 12.6747 139.178 11.7693 138.432 11.06C137.704 10.332 136.77 9.968 135.632 9.968C134.493 9.968 133.55 10.332 132.804 11.06C132.076 11.7693 131.712 12.6747 131.712 13.776C131.712 14.896 132.076 15.82 132.804 16.548ZM150.135 20.664C149.668 21.1307 149.108 21.364 148.455 21.364C147.802 21.364 147.242 21.1307 146.775 20.664C146.308 20.1973 146.075 19.6373 146.075 18.984C146.075 18.3307 146.308 17.7707 146.775 17.304C147.242 16.8373 147.802 16.604 148.455 16.604C149.108 16.604 149.668 16.8373 150.135 17.304C150.602 17.7707 150.835 18.3307 150.835 18.984C150.835 19.6373 150.602 20.1973 150.135 20.664ZM157.459 9.408C157.795 8.512 158.346 7.84 159.111 7.392C159.895 6.944 160.763 6.72 161.715 6.72V10.752C160.614 10.6213 159.625 10.8453 158.747 11.424C157.889 12.0027 157.459 12.964 157.459 14.308V21H153.847V7H157.459V9.408ZM173.068 7H176.68V21H173.068V19.432C172.19 20.7387 170.8 21.392 168.896 21.392C167.365 21.392 166.096 20.8787 165.088 19.852C164.098 18.8253 163.604 17.4067 163.604 15.596V7H167.216V15.148C167.216 16.0813 167.468 16.8 167.972 17.304C168.476 17.7893 169.148 18.032 169.988 18.032C170.921 18.032 171.668 17.7427 172.228 17.164C172.788 16.5853 173.068 15.7173 173.068 14.56V7Z" fill="#101A4E"/>
</svg>
