<svg width="36" height="36" viewBox="0 0 36 36" fill="none" xmlns="http://www.w3.org/2000/svg">
<rect x="0.5" y="0.5" width="35" height="35" rx="4.5" stroke="#CD1E19"/>
<path d="M23.5045 8H12.4958C11.4349 8 10.5718 8.86313 10.5718 9.92402V26.076C10.5718 27.1369 11.4349 28 12.4958 28H23.5045C24.5654 28 25.4285 27.1369 25.4285 26.076V9.92402C25.4285 8.86313 24.5654 8 23.5045 8ZM13.2088 11.3241C13.2088 11.0005 13.4712 10.7381 13.7948 10.7381H22.2055C22.529 10.7381 22.7914 11.0005 22.7914 11.3241V12.481C22.7914 12.8046 22.529 13.067 22.2055 13.067H13.7948C13.4712 13.067 13.2088 12.8046 13.2088 12.481V11.3241ZM15.1815 24.4811C15.1815 24.8047 14.9192 25.067 14.5956 25.067H13.7948C13.4712 25.067 13.2089 24.8047 13.2089 24.4811V23.9259C13.2089 23.6023 13.4712 23.34 13.7948 23.34H14.5956C14.9192 23.34 15.1815 23.6023 15.1815 23.9259V24.4811ZM15.1815 21.0135C15.1815 21.3371 14.9192 21.5995 14.5956 21.5995H13.7948C13.4712 21.5995 13.2089 21.3371 13.2089 21.0135V20.4584C13.2089 20.1348 13.4712 19.8724 13.7948 19.8724H14.5956C14.9192 19.8724 15.1815 20.1348 15.1815 20.4584V21.0135ZM19.0345 24.4811C19.0345 24.8047 18.7721 25.067 18.4485 25.067H17.6478C17.3241 25.067 17.0618 24.8047 17.0618 24.4811V23.9259C17.0618 23.6023 17.3241 23.34 17.6478 23.34H18.4485C18.7721 23.34 19.0345 23.6023 19.0345 23.9259V24.4811ZM19.0345 21.0135C19.0345 21.3371 18.7721 21.5995 18.4485 21.5995H17.6478C17.3241 21.5995 17.0618 21.3371 17.0618 21.0135V20.4584C17.0618 20.1348 17.3241 19.8724 17.6478 19.8724H18.4485C18.7721 19.8724 19.0345 20.1348 19.0345 20.4584V21.0135ZM19.0345 17.5459C19.0345 17.8695 18.7721 18.1318 18.4485 18.1318H13.7948C13.4712 18.1318 13.2088 17.8695 13.2088 17.5459V16.9907C13.2088 16.6671 13.4712 16.4048 13.7948 16.4048H18.4485C18.7721 16.4048 19.0345 16.6671 19.0345 16.9907V17.5459ZM22.8874 24.4811C22.8874 24.8047 22.6251 25.067 22.3015 25.067H21.5007C21.1771 25.067 20.9147 24.8047 20.9147 24.4811V23.9259C20.9147 23.6023 21.1771 23.34 21.5007 23.34H22.3015C22.6251 23.34 22.8874 23.6023 22.8874 23.9259V24.4811ZM22.8874 21.0135C22.8874 21.3371 22.6251 21.5995 22.3015 21.5995H21.5007C21.1771 21.5995 20.9147 21.3371 20.9147 21.0135V20.4584C20.9147 20.1348 21.1771 19.8724 21.5007 19.8724H22.3015C22.6251 19.8724 22.8874 20.1348 22.8874 20.4584V21.0135ZM22.8874 17.5459C22.8874 17.8695 22.6251 18.1318 22.3015 18.1318H21.5007C21.1771 18.1318 20.9147 17.8695 20.9147 17.5459V16.9907C20.9147 16.6671 21.1771 16.4048 21.5007 16.4048H22.3015C22.6251 16.4048 22.8874 16.6671 22.8874 16.9907V17.5459Z" fill="#CD1E19"/>
</svg>
