<svg width="30" height="30" viewBox="0 0 30 30" fill="none" xmlns="http://www.w3.org/2000/svg">
<path d="M23.2565 0H6.74346C5.15211 0 3.85742 1.29469 3.85742 2.88604V27.114C3.85742 28.7053 5.15211 30 6.74346 30H23.2565C24.8478 30 26.1425 28.7053 26.1425 27.114V2.88604C26.1425 1.29469 24.8478 0 23.2565 0ZM7.81303 4.98609C7.81303 4.5007 8.20654 4.10719 8.69193 4.10719H21.3079C21.7933 4.10719 22.1868 4.5007 22.1868 4.98609V6.72152C22.1868 7.20691 21.7933 7.60043 21.3079 7.60043H8.69193C8.20654 7.60043 7.81303 7.20691 7.81303 6.72152V4.98609ZM10.7721 24.7216C10.7721 25.207 10.3786 25.6005 9.89316 25.6005H8.69199C8.2066 25.6005 7.81309 25.207 7.81309 24.7216V23.8889C7.81309 23.4035 8.2066 23.01 8.69199 23.01H9.89316C10.3786 23.01 10.7721 23.4035 10.7721 23.8889V24.7216ZM10.7721 19.5203C10.7721 20.0057 10.3786 20.3992 9.89316 20.3992H8.69199C8.2066 20.3992 7.81309 20.0057 7.81309 19.5203V18.6875C7.81309 18.2021 8.2066 17.8086 8.69199 17.8086H9.89316C10.3786 17.8086 10.7721 18.2021 10.7721 18.6875V19.5203ZM16.5515 24.7216C16.5515 25.207 16.1579 25.6005 15.6726 25.6005H14.4714C13.9859 25.6005 13.5925 25.207 13.5925 24.7216V23.8889C13.5925 23.4035 13.9859 23.01 14.4714 23.01H15.6726C16.1579 23.01 16.5515 23.4035 16.5515 23.8889V24.7216ZM16.5515 19.5203C16.5515 20.0057 16.1579 20.3992 15.6726 20.3992H14.4714C13.9859 20.3992 13.5925 20.0057 13.5925 19.5203V18.6875C13.5925 18.2021 13.9859 17.8086 14.4714 17.8086H15.6726C16.1579 17.8086 16.5515 18.2021 16.5515 18.6875V19.5203ZM16.5515 14.3188C16.5515 14.8043 16.1579 15.1978 15.6726 15.1978H8.69193C8.20654 15.1978 7.81303 14.8042 7.81303 14.3188V13.4861C7.81303 13.0007 8.20654 12.6072 8.69193 12.6072H15.6726C16.1579 12.6072 16.5515 13.0007 16.5515 13.4861V14.3188ZM22.3309 24.7216C22.3309 25.207 21.9373 25.6005 21.452 25.6005H20.2508C19.7654 25.6005 19.3719 25.207 19.3719 24.7216V23.8889C19.3719 23.4035 19.7654 23.01 20.2508 23.01H21.452C21.9373 23.01 22.3309 23.4035 22.3309 23.8889V24.7216ZM22.3309 19.5203C22.3309 20.0057 21.9373 20.3992 21.452 20.3992H20.2508C19.7654 20.3992 19.3719 20.0057 19.3719 19.5203V18.6875C19.3719 18.2021 19.7654 17.8086 20.2508 17.8086H21.452C21.9373 17.8086 22.3309 18.2021 22.3309 18.6875V19.5203ZM22.3309 14.3188C22.3309 14.8043 21.9373 15.1978 21.452 15.1978H20.2508C19.7654 15.1978 19.3719 14.8042 19.3719 14.3188V13.4861C19.3719 13.0007 19.7654 12.6072 20.2508 12.6072H21.452C21.9373 12.6072 22.3309 13.0007 22.3309 13.4861V14.3188Z" fill="white"/>
</svg>
