<svg width="30" height="30" viewBox="0 0 30 30" fill="none" xmlns="http://www.w3.org/2000/svg">
<path d="M7.04956 14.6187H16.3246C16.6551 14.6187 16.923 14.3507 16.923 14.0203C16.923 13.6898 16.6551 13.4219 16.3246 13.4219H7.04956C6.71895 13.4219 6.45117 13.6898 6.45117 14.0203C6.45117 14.3507 6.71895 14.6187 7.04956 14.6187Z" fill="#CD1E19"/>
<path d="M12.6024 17.3115H7.04956C6.71895 17.3115 6.45117 17.5794 6.45117 17.9099C6.45117 18.2403 6.71895 18.5082 7.04956 18.5082H12.6024C12.9329 18.5082 13.2008 18.2403 13.2008 17.9099C13.2008 17.5794 12.9329 17.3115 12.6024 17.3115Z" fill="#CD1E19"/>
<path d="M22.9908 15.9829V5.64285C22.9904 3.99054 21.651 2.65146 19.9988 2.6509H17.5454V1.50797C17.5454 1.17736 17.2776 0.909576 16.947 0.909576C16.6166 0.909576 16.3486 1.17736 16.3486 1.50797V2.6509H8.21051V1.50797C8.21051 1.17736 7.94273 0.909576 7.61212 0.909576C7.28169 0.909576 7.01373 1.17736 7.01373 1.50797V2.6509H4.56032C2.9082 2.65146 1.56911 3.99054 1.56836 5.64285V21.8533C1.56911 23.5054 2.9082 24.8445 4.56032 24.8452H15.6367C16.7881 27.7942 19.8758 29.506 22.9869 28.9203C26.0979 28.3348 28.352 25.6175 28.3526 22.4517C28.3584 19.2383 26.0426 16.5575 22.9908 15.9829ZM4.56649 3.84768H7.0199V4.99061C7.0199 5.32103 7.28768 5.589 7.61829 5.589C7.94871 5.589 8.21668 5.32103 8.21668 4.99061V3.84768H16.3548V4.99061C16.3548 5.32103 16.6226 5.589 16.9532 5.589C17.2836 5.589 17.5516 5.32103 17.5516 4.99061V3.84768H20.005C20.9952 3.85048 21.7972 4.65252 21.8002 5.64285V7.09096H2.77131V5.64285C2.77206 4.65158 3.5754 3.84843 4.56649 3.84768ZM4.56649 23.6485C3.57615 23.6456 2.77412 22.8434 2.77131 21.8533V8.28176H21.794V15.8694H21.7761C19.8217 15.8724 17.9695 16.7421 16.7193 18.2444C15.4688 19.7466 14.9497 21.7261 15.3015 23.6485H4.56649ZM21.7761 27.8372C18.8019 27.8372 16.3905 25.4261 16.3905 22.4517C16.3905 19.4773 18.8019 17.0661 21.7761 17.0661C24.7504 17.0661 27.1616 19.4773 27.1616 22.4517C27.1571 25.4242 24.7486 27.8327 21.7761 27.8372Z" fill="#CD1E19"/>
<path d="M24.5466 20.3035L20.9924 23.6963L19.1551 21.8533C18.9223 21.6203 18.5446 21.6203 18.3116 21.8533C18.0784 22.0863 18.0784 22.464 18.3116 22.697L20.5673 24.9529C20.6795 25.0659 20.8329 25.1285 20.9924 25.1265C21.1468 25.1278 21.2953 25.0676 21.4051 24.9587L25.3784 21.159C25.4928 21.0496 25.559 20.8994 25.5626 20.741C25.5657 20.5827 25.5061 20.4295 25.3963 20.3154C25.1633 20.0817 24.7862 20.0763 24.5466 20.3035Z" fill="#CD1E19"/>
</svg>
