<svg width="60" height="60" viewBox="0 0 60 60" fill="none" xmlns="http://www.w3.org/2000/svg">
<path d="M15 9.94181V4.97053H45V14.9131H50.0002V4.97128C50.0002 2.23771 47.748 0 45 0H15C12.2505 0 9.99976 2.23771 9.99976 4.97128V9.94255L15 9.94181Z" fill="#424242"/>
<path d="M49.014 19.8846H51.5145C52.2022 19.8846 52.6267 20.4282 52.4617 21.0889L50.889 27.3411H58.0312C59.4082 27.3411 60.2587 28.4237 59.9257 29.7488L58.0117 37.3551C57.6795 38.6801 56.283 39.7672 54.906 39.7672H47.4975L43.6162 37.8353C43.002 37.5303 41.9377 37.2827 41.25 37.2827H24.9998V29.8263H40.2615C41.6385 29.8263 43.359 28.8749 44.0902 27.7191L49.014 19.8846Z" fill="#0C7AEB"/>
<path d="M15 44.7392V24.855H10.0005V54.681C9.99974 57.4145 12.2505 59.6522 15 59.6522H45C47.748 59.6522 50.0002 57.4145 50.0002 54.681V44.7392H15ZM32.5005 54.681H27.5002C26.1187 54.681 25.0005 53.57 25.0005 52.1957C25.0005 50.8215 26.1172 49.7105 27.5002 49.7105H32.5005C33.8827 49.7105 35.0002 50.8215 35.0002 52.1957C35.0002 53.57 33.8827 54.681 32.5005 54.681Z" fill="#424242"/>
<path d="M0 9.94189V29.8262L5.00025 24.8549H35.0002V9.94189H0ZM30 19.8844H5.00025V14.9131H30V19.8844Z" fill="#0C7AEB"/>
</svg>
