<svg width="60" height="60" viewBox="0 0 60 60" fill="none" xmlns="http://www.w3.org/2000/svg">
<path d="M58.0645 40.6452H56.1291V30.9677C56.1291 29.9003 55.2611 29.0323 54.1936 29.0323V11.6129C54.1936 10.5455 53.3256 9.67746 52.2581 9.67746H50.3227C49.2552 9.67746 48.3872 10.5455 48.3872 11.6129H38.7097C37.6423 11.6129 36.7743 12.4809 36.7743 13.5484V15.4839C36.7743 16.5513 37.6423 17.4193 38.7097 17.4193H40.6452V23.2257H38.7097V25.1612H44.5161V23.2257H42.5807V17.4193H48.3871V29.0323H30.9677V25.1613H32.9032C33.9707 25.1613 34.8387 24.2933 34.8387 23.2259V21.2904C34.8387 20.2229 33.9707 19.3549 32.9032 19.3549H27.0968V15.484C28.1643 15.484 29.0323 14.616 29.0323 13.5485V11.6129C29.0323 10.5455 28.1643 9.67746 27.0968 9.67746H25.1613V7.74199H27.0968V5.80641H25.1613V3.87094H27.0968V1.93547H25.1613V0H23.2259V1.93547H21.2904V3.87094H23.2259V5.80641H21.2904V7.74188H23.2259V9.67734H21.2904C20.2229 9.67734 19.3549 10.5454 19.3549 11.6128V13.5483C19.3549 14.6157 20.2229 15.4838 21.2904 15.4838V19.3547H17.4195V17.4192C17.4195 16.3518 16.5514 15.4838 15.484 15.4838H13.5485V11.6129H15.484V9.67746H13.5485V7.74199H15.484V5.80641H13.5485V3.87094H11.6129V5.80641H9.67746V7.74188H11.6129V9.67734H9.67746V11.6128H11.6129V15.4838H9.67746C8.61 15.4838 7.74199 16.3518 7.74199 17.4192V19.3547H3.87094C2.80348 19.3547 1.93547 20.2227 1.93547 21.2902V23.2256C1.93547 24.2931 2.80348 25.1611 3.87094 25.1611H5.80641V40.645C4.73895 40.645 3.87094 41.5131 3.87094 42.5804V46.4514H1.93547C0.868008 46.4516 0 47.3197 0 48.3871C0 54.7907 5.20934 60 11.6129 60H42.5807C52.1855 60 60 52.1855 60 42.5807C60 41.5132 59.1319 40.6452 58.0645 40.6452ZM48.3871 40.6452V36.7743H54.1935V40.6452H48.3871ZM19.3548 42.5807V46.4516H13.5484V42.5807H19.3548ZM21.2903 42.5807H27.0967V46.4516H21.2903V42.5807ZM54.1936 30.9677V34.8387H48.3872V30.9677H54.1936ZM46.4516 34.8387H40.6452V30.9677H46.4516V34.8387ZM38.7097 34.8387H32.9033V30.9677H38.7097V34.8387ZM32.9032 40.6452V36.7743H38.7096V40.6452H32.9032ZM30.9677 34.8387H25.1613V30.9677H30.9677V34.8387ZM26.1291 29.0323H25.1613C24.8072 29.0323 24.4791 29.1348 24.1936 29.3013V28.0645H26.1291V29.0323ZM25.1613 36.7741H30.9677V40.6451H25.1613V36.7741ZM29.0323 42.5807H34.8387V46.4516H29.0323V42.5807ZM36.7741 42.5807H40.0471L38.1116 46.4516H36.7741V42.5807ZM41.0148 40.6452H40.6451V36.7743H46.4515V40.6452H41.6128H41.0148ZM50.3225 19.3548H52.258V21.2903H50.3225V19.3548ZM50.3225 15.4839H52.258V17.4193H50.3225V15.4839ZM50.3225 23.2259H52.258V25.1613H50.3225V23.2259ZM52.258 11.6129V13.5484H50.3225V11.6129H52.258ZM38.7097 15.4839V13.5484H48.3872V15.4839H38.7097ZM50.3225 27.0968H52.258V29.0323H50.3225V27.0968ZM21.2903 11.6129H27.0967L27.0976 13.5484H21.2902V11.6129H21.2903ZM23.2259 15.4839H25.1613V19.3548H23.2259V15.4839ZM9.67746 17.4193H15.4839V19.3548H9.67746V17.4193ZM3.87094 21.2903H32.9032L32.9041 23.2257H3.87094V21.2903ZM7.74199 25.1613H29.0323V29.0323H28.0645V28.0645C28.0645 26.9971 27.1965 26.1291 26.1291 26.1291H24.1936C23.1261 26.1291 22.2581 26.9971 22.2581 28.0645V30C22.2581 30.7132 22.6501 31.3307 23.2259 31.6664V40.6451H7.74199V25.1613ZM5.80641 42.5807H11.6128V46.4516H5.80641V42.5807ZM42.5807 58.0645H11.6129C6.2768 58.0645 1.93547 53.7232 1.93547 48.3871H38.1116C38.8509 48.3871 39.5139 47.9768 39.8429 47.3177L42.2109 42.5807H58.0645C58.0645 51.118 51.118 58.0645 42.5807 58.0645Z" fill="#CD1E19"/>
<path d="M44.5156 46.4517H46.4511V48.3871H44.5156V46.4517Z" fill="#CD1E19"/>
<path d="M48.3867 46.4517H50.3222V48.3871H48.3867V46.4517Z" fill="#CD1E19"/>
<path d="M52.2588 46.4517H54.1943V48.3871H52.2588V46.4517Z" fill="#CD1E19"/>
<path d="M12.5809 26.129H10.6454C9.57797 26.129 8.70996 26.997 8.70996 28.0645V30C8.70996 31.0674 9.57797 31.9354 10.6454 31.9354H12.5809C13.6484 31.9354 14.5164 31.0674 14.5164 30V28.0645C14.5164 26.997 13.6482 26.129 12.5809 26.129ZM10.6454 30V28.0645H12.5809L12.5818 30H10.6454Z" fill="#CD1E19"/>
<path d="M12.5809 33.871H10.6454C9.57797 33.871 8.70996 34.739 8.70996 35.8064V37.7419C8.70996 38.8094 9.57797 39.6774 10.6454 39.6774H12.5809C13.6484 39.6774 14.5164 38.8094 14.5164 37.7419V35.8064C14.5164 34.7391 13.6482 33.871 12.5809 33.871ZM10.6454 37.742V35.8066H12.5809L12.5829 37.742H10.6454Z" fill="#CD1E19"/>
<path d="M19.3553 26.129H17.4198C16.3524 26.129 15.4844 26.997 15.4844 28.0645V30C15.4844 31.0674 16.3524 31.9354 17.4198 31.9354H19.3553C20.4228 31.9354 21.2908 31.0674 21.2908 30V28.0645C21.2908 26.997 20.4228 26.129 19.3553 26.129ZM17.4198 30V28.0645H19.3553L19.3564 30H17.4198Z" fill="#CD1E19"/>
<path d="M19.3553 33.871H17.4198C16.3524 33.871 15.4844 34.739 15.4844 35.8064V37.7419C15.4844 38.8094 16.3524 39.6774 17.4198 39.6774H19.3553C20.4228 39.6774 21.2908 38.8094 21.2908 37.7419V35.8064C21.2908 34.7391 20.4228 33.871 19.3553 33.871ZM17.4198 37.742V35.8066H19.3553L19.3573 37.742H17.4198Z" fill="#CD1E19"/>
</svg>
