<svg width="50" height="50" viewBox="0 0 50 50" fill="none" xmlns="http://www.w3.org/2000/svg">
<g clip-path="url(#clip0)">
<path d="M49.1667 32.9166C48.7064 32.9166 48.3333 33.2897 48.3333 33.75V34.5833H46.6667V30.4166C46.6649 29.8239 46.3473 29.277 45.8333 28.9816V9.35165C46.3473 9.0563 46.6649 8.50942 46.6667 7.91665V6.24998C46.6667 5.32951 45.9205 4.58331 45 4.58331H5C4.07953 4.58331 3.33333 5.32951 3.33333 6.24998V7.91665C3.33512 8.50942 3.65271 9.0563 4.16667 9.35165V28.9816C3.65271 29.277 3.33512 29.8239 3.33333 30.4166V34.5833H1.66667V33.75C1.66667 33.2897 1.29357 32.9166 0.833333 32.9166C0.373096 32.9166 0 33.2897 0 33.75V37.0833C0 37.5436 0.373096 37.9166 0.833333 37.9166C1.29357 37.9166 1.66667 37.5436 1.66667 37.0833V36.25H3.33333V37.0833C3.33476 37.7368 3.71792 38.3291 4.31333 38.5983C3.05654 40.0691 3.00435 42.22 4.18833 43.75H0.833333C0.373096 43.75 0 44.1231 0 44.5833C0 45.0436 0.373096 45.4166 0.833333 45.4166H49.1667C49.6269 45.4166 50 45.0436 50 44.5833C50 44.1231 49.6269 43.75 49.1667 43.75H45.8117C46.9961 42.2198 46.9439 40.0684 45.6867 38.5975C46.2818 38.3284 46.6649 37.7365 46.6667 37.0833V36.25H48.3333V37.0833C48.3333 37.5436 48.7064 37.9166 49.1667 37.9166C49.6269 37.9166 50 37.5436 50 37.0833V33.75C50 33.2897 49.6269 32.9166 49.1667 32.9166ZM11.5833 40.4166C11.4548 39.8103 11.1913 39.2406 10.8125 38.75H14.1892C13.8104 39.2406 13.5469 39.8103 13.4183 40.4166H11.5833ZM13.4167 42.0833C13.5452 42.6897 13.8087 43.2593 14.1875 43.75H10.8117C11.1905 43.2593 11.4539 42.6897 11.5825 42.0833H13.4167ZM15.1525 42.0833H17.5C17.9602 42.0833 18.3333 41.7102 18.3333 41.25C18.3333 40.7897 17.9602 40.4166 17.5 40.4166H15.1533C15.5592 39.2687 16.7331 38.5801 17.9331 38.786C19.1332 38.9919 20.0104 40.0324 20.0104 41.25C20.0104 42.4676 19.1332 43.5081 17.9331 43.714C16.7331 43.9199 15.5592 43.2313 15.1533 42.0833H15.1525ZM20.8108 38.75H29.1883C28.0486 40.2218 28.0486 42.2782 29.1883 43.75H20.8117C21.9514 42.2782 21.9514 40.2218 20.8117 38.75H20.8108ZM30 41.25C29.9977 40.0338 30.8729 38.9932 32.0715 38.7872C33.2701 38.5811 34.4426 39.2695 34.8467 40.4166H32.5C32.0398 40.4166 31.6667 40.7897 31.6667 41.25C31.6667 41.7102 32.0398 42.0833 32.5 42.0833H34.8467C34.4426 43.2304 33.2701 43.9189 32.0715 43.7128C30.8729 43.5067 29.9977 42.4662 30 41.25ZM36.5833 42.0833H38.4167C38.5452 42.6897 38.8087 43.2593 39.1875 43.75H35.8117C36.1908 43.2594 36.4545 42.6898 36.5833 42.0833ZM36.5833 40.4166C36.4548 39.8103 36.1913 39.2406 35.8125 38.75H39.1892C38.8104 39.2406 38.5469 39.8103 38.4183 40.4166H36.5833ZM5 37.0833V33.75H45V37.0833H5ZM5 30.4166H45V32.0833H5V30.4166ZM5.83333 9.58331H9.16667V12.0833C9.16667 12.5436 9.53976 12.9166 10 12.9166C10.4602 12.9166 10.8333 12.5436 10.8333 12.0833V9.58331H14.1667V28.75H10.8333V16.25C10.8333 15.7897 10.4602 15.4166 10 15.4166C9.53976 15.4166 9.16667 15.7897 9.16667 16.25V28.75H5.83333V9.58331ZM29.1667 9.58331V28.75H25.8333V9.58331H29.1667ZM34.1667 9.58331V28.75H30.8333V9.58331H34.1667ZM39.1667 9.58331V22.0833C39.1667 22.5436 39.5398 22.9166 40 22.9166C40.4602 22.9166 40.8333 22.5436 40.8333 22.0833V9.58331H44.1667V28.75H40.8333V26.25C40.8333 25.7897 40.4602 25.4166 40 25.4166C39.5398 25.4166 39.1667 25.7897 39.1667 26.25V28.75H35.8333V9.58331H39.1667ZM24.1667 28.75H20.8333V9.58331H24.1667V28.75ZM19.1667 28.75H15.8333V9.58331H19.1667V28.75ZM5 6.24998H45V7.91665H5V6.24998ZM5 41.25C4.9977 40.0338 5.87291 38.9932 7.07152 38.7872C8.27013 38.5811 9.44262 39.2695 9.84667 40.4166H7.5C7.03976 40.4166 6.66667 40.7897 6.66667 41.25C6.66667 41.7102 7.03976 42.0833 7.5 42.0833H9.84667C9.44262 43.2304 8.27013 43.9189 7.07152 43.7128C5.87291 43.5067 4.9977 42.4662 5 41.25ZM40.1533 42.0833H42.5C42.9602 42.0833 43.3333 41.7102 43.3333 41.25C43.3333 40.7897 42.9602 40.4166 42.5 40.4166H40.1533C40.5592 39.2687 41.7331 38.5801 42.9331 38.786C44.1332 38.9919 45.0104 40.0324 45.0104 41.25C45.0104 42.4676 44.1332 43.5081 42.9331 43.714C41.7331 43.9199 40.5592 43.2313 40.1533 42.0833Z" fill="#CD1E19"/>
</g>
<defs>
<clipPath id="clip0">
<rect width="50" height="50" fill="white"/>
</clipPath>
</defs>
</svg>
