<svg width="30" height="30" viewBox="0 0 30 30" fill="none" xmlns="http://www.w3.org/2000/svg">
<g>
<path d="M29.5 19.75C29.2239 19.75 29 19.9739 29 20.25V20.75H28V18.25C27.9989 17.8943 27.8084 17.5662 27.5 17.389V5.611C27.8084 5.43379 27.9989 5.10566 28 4.75V3.75C28 3.19772 27.5523 2.75 27 2.75H3C2.44772 2.75 2 3.19772 2 3.75V4.75C2.00107 5.10566 2.19162 5.43379 2.5 5.611V17.389C2.19162 17.5662 2.00107 17.8943 2 18.25V20.75H1V20.25C1 19.9739 0.776142 19.75 0.5 19.75C0.223858 19.75 0 19.9739 0 20.25V22.25C0 22.5261 0.223858 22.75 0.5 22.75C0.776142 22.75 1 22.5261 1 22.25V21.75H2V22.25C2.00086 22.6421 2.23075 22.9975 2.588 23.159C1.83392 24.0415 1.80261 25.332 2.513 26.25H0.5C0.223858 26.25 0 26.4739 0 26.75C0 27.0261 0.223858 27.25 0.5 27.25H29.5C29.7761 27.25 30 27.0261 30 26.75C30 26.4739 29.7761 26.25 29.5 26.25H27.487C28.1977 25.3319 28.1663 24.0411 27.412 23.1585C27.7691 22.997 27.9989 22.6419 28 22.25V21.75H29V22.25C29 22.5261 29.2239 22.75 29.5 22.75C29.7761 22.75 30 22.5261 30 22.25V20.25C30 19.9739 29.7761 19.75 29.5 19.75ZM6.95 24.25C6.87286 23.8862 6.71479 23.5444 6.4875 23.25H8.5135C8.28621 23.5444 8.12814 23.8862 8.051 24.25H6.95ZM8.05 25.25C8.12714 25.6138 8.28521 25.9556 8.5125 26.25H6.487C6.71429 25.9556 6.87236 25.6138 6.9495 25.25H8.05ZM9.0915 25.25H10.5C10.7761 25.25 11 25.0261 11 24.75C11 24.4739 10.7761 24.25 10.5 24.25H9.092C9.33552 23.5612 10.0398 23.1481 10.7599 23.2716C11.4799 23.3951 12.0062 24.0194 12.0062 24.75C12.0062 25.4806 11.4799 26.1049 10.7599 26.2284C10.0398 26.3519 9.33552 25.9388 9.092 25.25H9.0915ZM12.4865 23.25H17.513C16.8292 24.1331 16.8292 25.3669 17.513 26.25H12.487C13.1708 25.3669 13.1708 24.1331 12.487 23.25H12.4865ZM18 24.75C17.9986 24.0203 18.5237 23.396 19.2429 23.2723C19.9621 23.1487 20.6656 23.5617 20.908 24.25H19.5C19.2239 24.25 19 24.4739 19 24.75C19 25.0261 19.2239 25.25 19.5 25.25H20.908C20.6656 25.9383 19.9621 26.3513 19.2429 26.2277C18.5237 26.104 17.9986 25.4797 18 24.75ZM21.95 25.25H23.05C23.1271 25.6138 23.2852 25.9556 23.5125 26.25H21.487C21.7145 25.9557 21.8727 25.6139 21.95 25.25ZM21.95 24.25C21.8729 23.8862 21.7148 23.5444 21.4875 23.25H23.5135C23.2862 23.5444 23.1281 23.8862 23.051 24.25H21.95ZM3 22.25V20.25H27V22.25H3ZM3 18.25H27V19.25H3V18.25ZM3.5 5.75H5.5V7.25C5.5 7.52614 5.72386 7.75 6 7.75C6.27614 7.75 6.5 7.52614 6.5 7.25V5.75H8.5V17.25H6.5V9.75C6.5 9.47386 6.27614 9.25 6 9.25C5.72386 9.25 5.5 9.47386 5.5 9.75V17.25H3.5V5.75ZM17.5 5.75V17.25H15.5V5.75H17.5ZM20.5 5.75V17.25H18.5V5.75H20.5ZM23.5 5.75V13.25C23.5 13.5261 23.7239 13.75 24 13.75C24.2761 13.75 24.5 13.5261 24.5 13.25V5.75H26.5V17.25H24.5V15.75C24.5 15.4739 24.2761 15.25 24 15.25C23.7239 15.25 23.5 15.4739 23.5 15.75V17.25H21.5V5.75H23.5ZM14.5 17.25H12.5V5.75H14.5V17.25ZM11.5 17.25H9.5V5.75H11.5V17.25ZM3 3.75H27V4.75H3V3.75ZM3 24.75C2.99862 24.0203 3.52374 23.396 4.24291 23.2723C4.96208 23.1487 5.66557 23.5617 5.908 24.25H4.5C4.22386 24.25 4 24.4739 4 24.75C4 25.0261 4.22386 25.25 4.5 25.25H5.908C5.66557 25.9383 4.96208 26.3513 4.24291 26.2277C3.52374 26.104 2.99862 25.4797 3 24.75ZM24.092 25.25H25.5C25.7761 25.25 26 25.0261 26 24.75C26 24.4739 25.7761 24.25 25.5 24.25H24.092C24.3355 23.5612 25.0398 23.1481 25.7599 23.2716C26.4799 23.3951 27.0062 24.0194 27.0062 24.75C27.0062 25.4806 26.4799 26.1049 25.7599 26.2284C25.0398 26.3519 24.3355 25.9388 24.092 25.25Z" fill="#CD1E19"/>
</g>
<defs>
<clipPath id="clip0">
<rect width="30" height="30" fill="white"/>
</clipPath>
</defs>
</svg>
