<svg width="60" height="60" viewBox="0 0 60 60" fill="none" xmlns="http://www.w3.org/2000/svg">
<g clip-path="url(#clip0)">
<path d="M8.03925 60H46.0391C47.6958 60 49.0388 58.6569 49.0388 56.9998V9.99985H53.0392C54.1438 9.99985 55.0392 9.10446 55.0392 7.99988V5.00015C55.0356 2.23984 52.7989 0.00320435 50.0391 0H8.03925C6.38214 0 5.03906 1.34308 5.03906 3.00018V56.9998C5.03906 58.6569 6.38214 60 8.03925 60ZM50.0391 1.99997C51.6957 1.99997 53.0392 3.34305 53.0392 5.00015V7.99988H13.0389V5.00015C13.0353 3.91434 12.675 2.86057 12.0131 1.99997H50.0391ZM7.03903 3.00018C7.03903 2.44766 7.48672 1.99997 8.03925 1.99997C9.69589 1.99997 11.039 3.34305 11.039 5.00015V7.99988C11.039 9.10446 11.9344 9.99985 13.0389 9.99985H47.0389V56.9998C47.0389 57.5523 46.5912 58 46.0391 58H8.03925C7.48672 58 7.03903 57.5523 7.03903 56.9998V3.00018Z" fill="#CD1E19"/>
<path d="M13.039 24.9998H19.0389C20.1435 24.9998 21.0394 24.1045 21.0394 22.9999V22.0001C21.0394 21.4476 20.5912 20.9999 20.0392 20.9999C19.4871 20.9999 19.0389 21.4476 19.0389 22.0001V22.9999H13.039V17H16.0392C16.5913 17 17.039 16.5523 17.039 16.0002C17.039 15.4477 16.5913 15 16.0392 15H13.039C11.9344 15 11.0391 15.8954 11.0391 17V22.9999C11.0391 24.1045 11.9344 24.9998 13.039 24.9998Z" fill="#CD1E19"/>
<path d="M13.039 39.0003H19.0389C20.1435 39.0003 21.0394 38.1049 21.0394 37.0003V31.0004C21.0394 29.8958 20.1435 29 19.0389 29H13.039C11.9344 29 11.0391 29.8958 11.0391 31.0004V37.0003C11.0391 38.1049 11.9344 39.0003 13.039 39.0003ZM13.039 31.0004H19.0389V37.0003H13.039V31.0004Z" fill="#CD1E19"/>
<path d="M13.039 52.9998H19.0389C20.1435 52.9998 21.0394 52.1045 21.0394 50.9999V45C21.0394 43.8954 20.1435 43 19.0389 43H13.039C11.9344 43 11.0391 43.8954 11.0391 45V50.9999C11.0391 52.1045 11.9344 52.9998 13.039 52.9998ZM13.039 45H19.0389V50.9999H13.039V45Z" fill="#CD1E19"/>
<path d="M25.0393 19H30.039C30.5915 19 31.0392 18.5523 31.0392 18.0002C31.0392 17.4477 30.5915 17 30.039 17H25.0393C24.4868 17 24.0391 17.4477 24.0391 18.0002C24.0391 18.5523 24.4868 19 25.0393 19Z" fill="#CD1E19"/>
<path d="M34.0388 19H44.0391C44.5912 19 45.0389 18.5523 45.0389 18.0002C45.0389 17.4477 44.5912 17 44.0391 17H34.0388C33.4868 17 33.0391 17.4477 33.0391 18.0002C33.0391 18.5523 33.4868 19 34.0388 19Z" fill="#CD1E19"/>
<path d="M25.0393 23H35.0391C35.5912 23 36.0393 22.5523 36.0393 22.0002C36.0393 21.4477 35.5912 21 35.0391 21H25.0393C24.4868 21 24.0391 21.4477 24.0391 22.0002C24.0391 22.5523 24.4868 23 25.0393 23Z" fill="#CD1E19"/>
<path d="M44.039 21H39.0388C38.4868 21 38.0391 21.4477 38.0391 22.0002C38.0391 22.5523 38.4868 23 39.0388 23H44.039C44.591 23 45.0387 22.5523 45.0387 22.0002C45.0387 21.4477 44.591 21 44.039 21Z" fill="#CD1E19"/>
<path d="M25.0393 33H30.039C30.5915 33 31.0392 32.5523 31.0392 31.9998C31.0392 31.4477 30.5915 31 30.039 31H25.0393C24.4868 31 24.0391 31.4477 24.0391 31.9998C24.0391 32.5523 24.4868 33 25.0393 33Z" fill="#CD1E19"/>
<path d="M44.0391 31H34.0388C33.4868 31 33.0391 31.4477 33.0391 31.9998C33.0391 32.5523 33.4868 33 34.0388 33H44.0391C44.5912 33 45.0389 32.5523 45.0389 31.9998C45.0389 31.4477 44.5912 31 44.0391 31Z" fill="#CD1E19"/>
<path d="M25.0393 37H35.0391C35.5912 37 36.0393 36.5523 36.0393 35.9998C36.0393 35.4477 35.5912 35 35.0391 35H25.0393C24.4868 35 24.0391 35.4477 24.0391 35.9998C24.0391 36.5523 24.4868 37 25.0393 37Z" fill="#CD1E19"/>
<path d="M44.039 35H39.0388C38.4868 35 38.0391 35.4477 38.0391 35.9998C38.0391 36.5523 38.4868 37 39.0388 37H44.039C44.591 37 45.0387 36.5523 45.0387 35.9998C45.0387 35.4477 44.591 35 44.039 35Z" fill="#CD1E19"/>
<path d="M25.0393 47H30.039C30.5915 47 31.0392 46.5523 31.0392 46.0002C31.0392 45.4477 30.5915 45 30.039 45H25.0393C24.4868 45 24.0391 45.4477 24.0391 46.0002C24.0391 46.5523 24.4868 47 25.0393 47Z" fill="#CD1E19"/>
<path d="M44.0391 45H34.0388C33.4868 45 33.0391 45.4477 33.0391 46.0002C33.0391 46.5523 33.4868 47 34.0388 47H44.0391C44.5912 47 45.0389 46.5523 45.0389 46.0002C45.0389 45.4477 44.5912 45 44.0391 45Z" fill="#CD1E19"/>
<path d="M25.0393 51H35.0391C35.5912 51 36.0393 50.5523 36.0393 50.0002C36.0393 49.4477 35.5912 49 35.0391 49H25.0393C24.4868 49 24.0391 49.4477 24.0391 50.0002C24.0391 50.5523 24.4868 51 25.0393 51Z" fill="#CD1E19"/>
<path d="M44.039 49H39.0388C38.4868 49 38.0391 49.4477 38.0391 50.0002C38.0391 50.5523 38.4868 51 39.0388 51H44.039C44.591 51 45.0387 50.5523 45.0387 50.0002C45.0387 49.4477 44.591 49 44.039 49Z" fill="#CD1E19"/>
<path d="M15.7456 18.2924C15.3533 17.9133 14.7293 17.9188 14.3434 18.3043C13.958 18.6902 13.9525 19.3136 14.3315 19.7064L16.3315 21.7064C16.5192 21.8936 16.7733 21.9993 17.0383 21.9993H17.1216C17.4146 21.9746 17.6819 21.8226 17.8527 21.5832L22.8524 14.5831C23.0602 14.2924 23.0968 13.913 22.9485 13.5879C22.8006 13.2625 22.4903 13.0409 22.1346 13.0066C21.7789 12.9723 21.4319 13.1306 21.2245 13.4213L16.9115 19.4601L15.7456 18.2924Z" fill="#CD1E19"/>
</g>
<defs>
<clipPath id="clip0">
<rect width="60" height="60" fill="white"/>
</clipPath>
</defs>
</svg>
