<svg width="165" height="114" viewBox="0 0 165 114" fill="none" xmlns="http://www.w3.org/2000/svg">
<path fill-rule="evenodd" clip-rule="evenodd" d="M21.7502 0L1.01215 65.6417C-0.651611 70.908 2.26881 76.5259 7.53509 78.1896L118.593 113.276C123.859 114.94 129.477 112.019 131.141 106.753L164.867 0H21.7502Z" fill="#0097E9"/>
<path fill-rule="evenodd" clip-rule="evenodd" d="M83 30.1841L77 25L71 30.1841L71.8891 31.2903L76.3057 27.4744L76.3057 40L77.6842 40L77.6842 27.4656L82.1109 31.2903L83 30.1841Z" fill="white"/>
<path d="M45.8741 66V53.076L52.1021 59.934L58.3301 53.076V66H56.6921V57.108L52.1021 62.238L47.5121 57.108V66H45.8741ZM65.3325 66.144C63.9885 66.144 62.8725 65.7 61.9845 64.812C61.0965 63.912 60.6525 62.808 60.6525 61.5C60.6525 60.192 61.0965 59.094 61.9845 58.206C62.8725 57.306 63.9885 56.856 65.3325 56.856C66.6645 56.856 67.7745 57.306 68.6625 58.206C69.5505 59.094 69.9945 60.192 69.9945 61.5C69.9945 62.808 69.5505 63.912 68.6625 64.812C67.7745 65.7 66.6645 66.144 65.3325 66.144ZM63.1185 63.786C63.6945 64.386 64.4325 64.686 65.3325 64.686C66.2325 64.686 66.9645 64.386 67.5285 63.786C68.1045 63.174 68.3925 62.412 68.3925 61.5C68.3925 60.588 68.1045 59.832 67.5285 59.232C66.9645 58.62 66.2325 58.314 65.3325 58.314C64.4325 58.314 63.6945 58.62 63.1185 59.232C62.5425 59.832 62.2545 60.588 62.2545 61.5C62.2545 62.412 62.5425 63.174 63.1185 63.786ZM76.1066 66.144C74.7866 66.144 73.6826 65.7 72.7946 64.812C71.9186 63.912 71.4806 62.808 71.4806 61.5C71.4806 60.192 71.9186 59.094 72.7946 58.206C73.6826 57.306 74.7866 56.856 76.1066 56.856C77.4746 56.856 78.6206 57.33 79.5446 58.278L78.5546 59.358C77.8586 58.662 77.0426 58.314 76.1066 58.314C75.2306 58.314 74.5046 58.62 73.9286 59.232C73.3646 59.832 73.0826 60.588 73.0826 61.5C73.0826 62.412 73.3646 63.174 73.9286 63.786C74.5046 64.386 75.2306 64.686 76.1066 64.686C77.0426 64.686 77.8586 64.338 78.5546 63.642L79.5446 64.722C78.6206 65.67 77.4746 66.144 76.1066 66.144ZM81.391 66V57H82.939V61.446L86.917 57H88.807L84.739 61.518L89.239 66H87.223L82.939 61.68V66H81.391ZM90.4613 66V57H94.2773C95.2853 57 96.0593 57.216 96.5993 57.648C97.1393 58.068 97.4093 58.662 97.4093 59.43C97.4093 60.222 97.0913 60.822 96.4553 61.23C97.4873 61.602 98.0033 62.328 98.0033 63.408C98.0033 64.188 97.7213 64.818 97.1573 65.298C96.6053 65.766 95.7833 66 94.6913 66H90.4613ZM92.0093 60.762H94.4573C94.8293 60.762 95.1413 60.666 95.3933 60.474C95.6573 60.27 95.7893 59.97 95.7893 59.574C95.7893 59.178 95.6573 58.878 95.3933 58.674C95.1293 58.47 94.8173 58.368 94.4573 58.368H92.0093V60.762ZM92.0093 64.632H94.8173C95.2733 64.632 95.6453 64.518 95.9333 64.29C96.2213 64.062 96.3653 63.726 96.3653 63.282C96.3653 62.862 96.2213 62.538 95.9333 62.31C95.6453 62.082 95.2733 61.968 94.8173 61.968H92.0093V64.632ZM106.935 66V65.1C106.167 65.796 105.213 66.144 104.073 66.144C102.753 66.144 101.655 65.7 100.779 64.812C99.9146 63.924 99.4826 62.82 99.4826 61.5C99.4826 60.18 99.9146 59.076 100.779 58.188C101.655 57.3 102.753 56.856 104.073 56.856C105.213 56.856 106.167 57.204 106.935 57.9V57H108.483V66H106.935ZM104.109 64.686C104.733 64.686 105.291 64.554 105.783 64.29C106.275 64.026 106.659 63.672 106.935 63.228V59.772C106.659 59.328 106.275 58.974 105.783 58.71C105.291 58.446 104.733 58.314 104.109 58.314C103.233 58.314 102.507 58.62 101.931 59.232C101.367 59.832 101.085 60.588 101.085 61.5C101.085 62.412 101.367 63.174 101.931 63.786C102.507 64.386 103.233 64.686 104.109 64.686Z" fill="white"/>
</svg>
