<svg width="60" height="60" viewBox="0 0 60 60" fill="none" xmlns="http://www.w3.org/2000/svg">
<g clip-path="url(#clip0)">
<path d="M55.5006 21.7952C54.8603 20.9417 53.8954 21.0957 53.8112 21.0791C53.4529 19.5525 52.1841 18.3349 50.5834 18.0971L45.2749 17.3086C44.7446 17.2302 44.2668 17.6404 44.2668 18.178V26.7023C44.2668 27.1878 44.6602 27.5812 45.1457 27.5812C45.6312 27.5812 46.0246 27.1878 46.0246 26.7023V22.8371H51.2543V29.3796C51.2543 30.2479 51.9607 30.9543 52.8291 30.9543H58.242V32.3955H57.8278C57.3423 32.3955 56.9489 32.7889 56.9489 33.2744C56.9489 33.7599 57.3423 34.1533 57.8278 34.1533H58.242V37.3138H56.2452C55.7507 35.5067 54.095 34.1743 52.1332 34.1743C50.1714 34.1743 48.5158 35.5067 48.0212 37.3138H46.0246V30.2165C46.0246 29.731 45.6312 29.3376 45.1457 29.3376C44.6602 29.3376 44.2668 29.731 44.2668 30.2165V34.0817H42.8005V19.0235C42.8005 18.0725 42.0269 17.2988 41.0759 17.2988H9.62271C9.13721 17.2988 8.74381 17.6922 8.74381 18.1777C8.74381 18.6632 9.13721 19.0566 9.62271 19.0566H41.0428V34.0815H3.63363V19.0568H6.10862C6.59413 19.0568 6.98752 18.6634 6.98752 18.1779C6.98752 17.6923 6.59413 17.2989 6.10862 17.2989H3.60046C2.64949 17.2989 1.87582 18.0726 1.87582 19.0236V34.0816H0.878904C0.393398 34.0816 0 34.475 0 34.9605V37.2026C0 38.2332 0.838475 39.0715 1.86902 39.0715H2.68136V39.6114H0.878904C0.393398 39.6114 0 40.0048 0 40.4903C0 40.9758 0.393398 41.3692 0.878904 41.3692H3.56027C4.04577 41.3692 4.43917 40.9758 4.43917 40.4903V39.0715H5.39319C5.70034 41.1228 7.47385 42.7011 9.60936 42.7011C11.7449 42.7011 13.5184 41.1228 13.8255 39.0715H17.1996C17.6851 39.0715 18.0785 38.6781 18.0785 38.1926C18.0785 37.7071 17.6851 37.3137 17.1996 37.3137H13.7215C13.5731 36.7717 13.3206 36.2727 12.9862 35.8394H29.0615C28.7273 36.2727 28.4746 36.7717 28.3263 37.3137H20.7136C20.228 37.3137 19.8346 37.7071 19.8346 38.1926C19.8346 38.6781 20.228 39.0715 20.7136 39.0715H28.2222C28.5294 41.1228 30.3029 42.7011 32.4384 42.7011C34.5739 42.7011 36.3474 41.1228 36.6545 39.0715H47.9175C48.2247 41.1228 49.9982 42.7011 52.1337 42.7011C54.2692 42.7011 56.0426 41.1228 56.3497 39.0715H58.3686C59.2684 39.0715 60.0004 38.3396 60.0004 37.4399V28.3884C60 27.3458 59.5017 27.3155 55.5006 21.7952ZM9.60924 40.9431C8.2276 40.9431 7.10354 39.8191 7.10354 38.4375C7.10354 38.3855 7.10565 38.334 7.10881 38.2827C7.10881 38.2823 7.10881 38.2818 7.10893 38.2815C7.18991 36.9724 8.2801 35.9318 9.60924 35.9318C10.9384 35.9318 12.0287 36.9722 12.1095 38.2815C12.1095 38.2819 12.1095 38.2824 12.1097 38.2827C12.1128 38.334 12.1149 38.3855 12.1149 38.4375C12.1149 39.8192 10.9909 40.9431 9.60924 40.9431ZM5.49725 37.3137H1.86914C1.80785 37.3137 1.75793 37.2638 1.75793 37.2026V35.8394H6.23249C5.89815 36.2727 5.6455 36.7717 5.49725 37.3137ZM44.2669 35.8394V37.3137H36.5502C36.4019 36.7717 36.1493 36.2727 35.815 35.8394H44.2669ZM32.4383 40.9431C31.0566 40.9431 29.9326 39.8191 29.9326 38.4375C29.9326 38.3855 29.9347 38.334 29.9378 38.2827C29.9378 38.2823 29.9378 38.2818 29.9379 38.2815C30.0189 36.9724 31.1091 35.9318 32.4383 35.9318C33.7674 35.9318 34.8577 36.9722 34.9386 38.2815C34.9386 38.2819 34.9386 38.2824 34.9387 38.2827C34.9418 38.334 34.944 38.3855 34.944 38.4375C34.9438 39.8192 33.8199 40.9431 32.4383 40.9431ZM52.1334 40.9431C50.7518 40.9431 49.6278 39.8191 49.6278 38.4375C49.6278 37.0559 50.7518 35.9318 52.1334 35.9318C53.515 35.9318 54.639 37.0559 54.639 38.4375C54.639 39.8192 53.515 40.9431 52.1334 40.9431ZM50.3251 19.8358C51.0613 19.9452 51.6697 20.4315 51.9642 21.0789H46.0247V19.1968L50.3251 19.8358ZM53.0122 29.1964V22.8369H53.0343C53.0351 22.8369 53.0358 22.8368 53.0365 22.8368H54.0682C54.0785 22.8368 54.0884 22.8417 54.0947 22.8501L58.2356 28.3685C58.2398 28.3742 58.2423 28.3811 58.2423 28.3883V29.1964H53.0122Z" fill="#CD1E19"/>
<path d="M8.43555 32.2336C8.92105 32.2336 9.31445 31.8402 9.31445 31.3547V21.7832C9.31445 21.2977 8.92105 20.9043 8.43555 20.9043C7.95004 20.9043 7.55664 21.2977 7.55664 21.7832V31.3547C7.55664 31.8402 7.95004 32.2336 8.43555 32.2336Z" fill="#CD1E19"/>
<path d="M16.2656 31.3547V21.7832C16.2656 21.2977 15.8722 20.9043 15.3867 20.9043C14.9012 20.9043 14.5078 21.2977 14.5078 21.7832V31.3547C14.5078 31.8402 14.9012 32.2336 15.3867 32.2336C15.8722 32.2336 16.2656 31.8402 16.2656 31.3547Z" fill="#CD1E19"/>
<path d="M30.1689 31.3547V21.7832C30.1689 21.2977 29.7755 20.9043 29.29 20.9043C28.8045 20.9043 28.4111 21.2977 28.4111 21.7832V31.3547C28.4111 31.8402 28.8045 32.2336 29.29 32.2336C29.7755 32.2336 30.1689 31.8402 30.1689 31.3547Z" fill="#CD1E19"/>
<path d="M37.1211 31.3547V21.7832C37.1211 21.2977 36.7277 20.9043 36.2422 20.9043C35.7567 20.9043 35.3633 21.2977 35.3633 21.7832V31.3547C35.3633 31.8402 35.7567 32.2336 36.2422 32.2336C36.7277 32.2336 37.1211 31.8402 37.1211 31.3547Z" fill="#CD1E19"/>
<path d="M18.3262 30.3144L18.8804 30.8835C19.985 32.0185 21.8001 32.0443 22.9364 30.9384L25.9118 28.0423C26.778 27.1993 26.8807 25.7305 25.8952 24.7716L22.9363 21.8915C21.8031 20.7884 19.9835 20.8132 18.8804 21.9464L18.3262 22.5157C17.9877 22.8636 17.9953 23.42 18.3431 23.7584L21.0722 26.415L18.3431 29.0715C17.9952 29.41 17.9877 29.9664 18.3262 30.3144ZM22.9453 27.0448C23.1152 26.8795 23.2112 26.6523 23.2112 26.4151C23.2112 26.1779 23.1153 25.9507 22.9453 25.7853L20.2012 23.1143C20.6318 22.7338 21.2919 22.7441 21.7102 23.1512L24.6692 26.0313C24.9095 26.2654 24.8819 26.5917 24.6857 26.7827L21.7104 29.6787C21.2919 30.0862 20.6318 30.0965 20.2012 29.7158L22.9453 27.0448Z" fill="#CD1E19"/>
</g>
<defs>
<clipPath id="clip0">
<rect width="60" height="60" fill="white"/>
</clipPath>
</defs>
</svg>
