<svg width="30" height="30" viewBox="0 0 30 30" fill="none" xmlns="http://www.w3.org/2000/svg">
<path d="M27.6562 10.8984C26.813 10.8984 26.0457 11.3562 25.6331 12.0595L16.6935 9.58705C17.096 9.166 17.3438 8.59582 17.3438 7.96875C17.3438 7.6452 17.0814 7.38281 16.7578 7.38281C16.4342 7.38281 16.1719 7.6452 16.1719 7.96875C16.1719 8.61492 15.6462 9.14062 15 9.14062C14.3538 9.14062 13.8281 8.61492 13.8281 7.96875C13.8281 7.32258 14.3538 6.79688 15 6.79688C15.3236 6.79688 15.5859 6.53449 15.5859 6.21094V4.6875H16.7578C16.9798 4.6875 17.1826 4.56211 17.2819 4.36359L19.0397 0.847969C19.1305 0.666328 19.1208 0.450645 19.014 0.27791C18.9073 0.105176 18.7187 0 18.5156 0H11.4844C11.2813 0 11.0927 0.105176 10.986 0.27791C10.8792 0.450586 10.8695 0.666328 10.9603 0.847969L12.7181 4.36359C12.8174 4.56211 13.0202 4.6875 13.2422 4.6875H14.4141V5.69918C13.4043 5.95998 12.6562 6.87867 12.6562 7.96875C12.6562 8.59588 12.9043 9.16588 13.3069 9.58687L4.36635 12.0595C3.95309 11.3555 3.18627 10.8984 2.34375 10.8984C1.05141 10.8984 0 11.9498 0 13.2422V29.4141C0 29.7376 0.262324 30 0.585938 30H12.3633C12.6869 30 12.9492 29.7376 12.9492 29.4141C12.9492 29.0905 12.6869 28.8281 12.3633 28.8281H1.17188V15.5859H28.8281V28.8281H17.6367C17.3131 28.8281 17.0508 29.0905 17.0508 29.4141C17.0508 29.7376 17.3131 30 17.6367 30H29.4141C29.7377 30 30 29.7376 30 29.4141C30 28.7749 30 14.0017 30 13.2422C30 11.9498 28.9486 10.8984 27.6562 10.8984ZM13.6043 3.51562L12.4324 1.17188H17.5676L16.3957 3.51562H13.6043ZM3.51562 14.4141H1.17188V13.2422C1.17188 12.596 1.69758 12.0703 2.34375 12.0703C2.98383 12.0703 3.51562 12.5924 3.51562 13.2422V14.4141ZM25.3125 13.2422V14.4141H4.6875C4.6875 14.4141 4.68604 13.2055 4.68557 13.1871L15 10.3345L25.3144 13.1871C25.314 13.2055 25.3125 13.2238 25.3125 13.2422ZM28.8281 14.4141H26.4844V13.2422C26.4844 12.5932 27.0143 12.0703 27.6562 12.0703C28.3024 12.0703 28.8281 12.596 28.8281 13.2422V14.4141Z" fill="#CD1E19"/>
<path d="M7.14844 18.5156V25.8984C7.14844 26.222 7.41076 26.4844 7.73438 26.4844C8.05799 26.4844 8.32031 26.222 8.32031 25.8984V18.5156C8.32031 18.1921 8.05799 17.9297 7.73438 17.9297C7.41076 17.9297 7.14844 18.1921 7.14844 18.5156Z" fill="#CD1E19"/>
<path d="M3.51562 18.5156V25.8984C3.51562 26.222 3.77795 26.4844 4.10156 26.4844C4.42518 26.4844 4.6875 26.222 4.6875 25.8984V18.5156C4.6875 18.1921 4.42518 17.9297 4.10156 17.9297C3.77795 17.9297 3.51562 18.1921 3.51562 18.5156Z" fill="#CD1E19"/>
<path d="M26.4844 25.8984V18.5156C26.4844 18.1921 26.2221 17.9297 25.8984 17.9297C25.5748 17.9297 25.3125 18.1921 25.3125 18.5156V25.8984C25.3125 26.222 25.5748 26.4844 25.8984 26.4844C26.2221 26.4844 26.4844 26.222 26.4844 25.8984Z" fill="#CD1E19"/>
<path d="M22.8516 25.8984V18.5156C22.8516 18.1921 22.5892 17.9297 22.2656 17.9297C21.942 17.9297 21.6797 18.1921 21.6797 18.5156V25.8984C21.6797 26.222 21.942 26.4844 22.2656 26.4844C22.5892 26.4844 22.8516 26.222 22.8516 25.8984Z" fill="#CD1E19"/>
<path d="M19.2188 25.8984V18.5156C19.2188 18.1921 18.9564 17.9297 18.6328 17.9297C18.3092 17.9297 18.0469 18.1921 18.0469 18.5156V25.8984C18.0469 26.222 18.3092 26.4844 18.6328 26.4844C18.9564 26.4844 19.2188 26.222 19.2188 25.8984Z" fill="#CD1E19"/>
<path d="M15 17.9297C14.6764 17.9297 14.4141 18.1921 14.4141 18.5156V25.8984C14.4141 26.222 14.6764 26.4844 15 26.4844C15.3236 26.4844 15.5859 26.222 15.5859 25.8984V18.5156C15.5859 18.1921 15.3236 17.9297 15 17.9297Z" fill="#CD1E19"/>
<path d="M10.7812 18.5156V25.8984C10.7812 26.222 11.0436 26.4844 11.3672 26.4844C11.6908 26.4844 11.9531 26.222 11.9531 25.8984V18.5156C11.9531 18.1921 11.6908 17.9297 11.3672 17.9297C11.0436 17.9297 10.7812 18.1921 10.7812 18.5156Z" fill="#CD1E19"/>
<path d="M15 30C15.3236 30 15.5859 29.7377 15.5859 29.4141C15.5859 29.0905 15.3236 28.8281 15 28.8281C14.6764 28.8281 14.4141 29.0905 14.4141 29.4141C14.4141 29.7377 14.6764 30 15 30Z" fill="#CD1E19"/>
</svg>
