<svg width="60" height="60" viewBox="0 0 60 60" fill="none" xmlns="http://www.w3.org/2000/svg">
<path d="M55.3125 21.7969C53.6261 21.7969 52.0915 22.7125 51.2662 24.1189L33.387 19.1741C34.192 18.332 34.6875 17.1916 34.6875 15.9375C34.6875 15.2904 34.1629 14.7656 33.5156 14.7656C32.8684 14.7656 32.3438 15.2904 32.3438 15.9375C32.3438 17.2298 31.2923 18.2812 30 18.2812C28.7077 18.2812 27.6562 17.2298 27.6562 15.9375C27.6562 14.6452 28.7077 13.5938 30 13.5938C30.6472 13.5938 31.1719 13.069 31.1719 12.4219V9.375H33.5156C33.9595 9.375 34.3652 9.12422 34.5638 8.72719L38.0794 1.69594C38.261 1.33266 38.2416 0.901289 38.028 0.55582C37.8147 0.210352 37.4374 0 37.0312 0H22.9688C22.5626 0 22.1854 0.210352 21.972 0.55582C21.7584 0.901172 21.739 1.33266 21.9206 1.69594L25.4363 8.72719C25.6348 9.12422 26.0405 9.375 26.4844 9.375H28.8281V11.3984C26.8086 11.92 25.3125 13.7573 25.3125 15.9375C25.3125 17.1918 25.8087 18.3318 26.6139 19.1737L8.73269 24.1191C7.90617 22.7111 6.37254 21.7969 4.6875 21.7969C2.10281 21.7969 0 23.8997 0 26.4844V58.8281C0 59.4752 0.524648 60 1.17188 60H24.7266C25.3738 60 25.8984 59.4752 25.8984 58.8281C25.8984 58.181 25.3738 57.6562 24.7266 57.6562H2.34375V31.1719H57.6562V57.6562H35.2734C34.6262 57.6562 34.1016 58.181 34.1016 58.8281C34.1016 59.4752 34.6262 60 35.2734 60H58.8281C59.4754 60 60 59.4752 60 58.8281C60 57.5498 60 28.0034 60 26.4844C60 23.8997 57.8972 21.7969 55.3125 21.7969ZM27.2086 7.03125L24.8648 2.34375H35.1352L32.7914 7.03125H27.2086ZM7.03125 28.8281H2.34375V26.4844C2.34375 25.192 3.39516 24.1406 4.6875 24.1406C5.96766 24.1406 7.03125 25.1849 7.03125 26.4844V28.8281ZM50.625 26.4844V28.8281H9.375C9.375 28.8281 9.37207 26.411 9.37113 26.3742L30 20.6689L50.6289 26.3742C50.6279 26.411 50.625 26.4476 50.625 26.4844ZM57.6562 28.8281H52.9688V26.4844C52.9688 25.1864 54.0286 24.1406 55.3125 24.1406C56.6048 24.1406 57.6562 25.192 57.6562 26.4844V28.8281Z" fill="#CD1E19"/>
<path d="M14.2969 37.0312V51.7969C14.2969 52.444 14.8215 52.9688 15.4688 52.9688C16.116 52.9688 16.6406 52.444 16.6406 51.7969V37.0312C16.6406 36.3841 16.116 35.8594 15.4688 35.8594C14.8215 35.8594 14.2969 36.3841 14.2969 37.0312Z" fill="#CD1E19"/>
<path d="M7.03125 37.0312V51.7969C7.03125 52.444 7.5559 52.9688 8.20312 52.9688C8.85035 52.9688 9.375 52.444 9.375 51.7969V37.0312C9.375 36.3841 8.85035 35.8594 8.20312 35.8594C7.5559 35.8594 7.03125 36.3841 7.03125 37.0312Z" fill="#CD1E19"/>
<path d="M52.9688 51.7969V37.0312C52.9688 36.3841 52.4441 35.8594 51.7969 35.8594C51.1496 35.8594 50.625 36.3841 50.625 37.0312V51.7969C50.625 52.444 51.1496 52.9688 51.7969 52.9688C52.4441 52.9688 52.9688 52.444 52.9688 51.7969Z" fill="#CD1E19"/>
<path d="M45.7031 51.7969V37.0312C45.7031 36.3841 45.1785 35.8594 44.5312 35.8594C43.884 35.8594 43.3594 36.3841 43.3594 37.0312V51.7969C43.3594 52.444 43.884 52.9688 44.5312 52.9688C45.1785 52.9688 45.7031 52.444 45.7031 51.7969Z" fill="#CD1E19"/>
<path d="M38.4375 51.7969V37.0312C38.4375 36.3841 37.9129 35.8594 37.2656 35.8594C36.6184 35.8594 36.0938 36.3841 36.0938 37.0312V51.7969C36.0938 52.444 36.6184 52.9688 37.2656 52.9688C37.9129 52.9688 38.4375 52.444 38.4375 51.7969Z" fill="#CD1E19"/>
<path d="M30 35.8594C29.3528 35.8594 28.8281 36.3841 28.8281 37.0312V51.7969C28.8281 52.444 29.3528 52.9688 30 52.9688C30.6472 52.9688 31.1719 52.444 31.1719 51.7969V37.0312C31.1719 36.3841 30.6472 35.8594 30 35.8594Z" fill="#CD1E19"/>
<path d="M21.5625 37.0312V51.7969C21.5625 52.444 22.0871 52.9688 22.7344 52.9688C23.3816 52.9688 23.9062 52.444 23.9062 51.7969V37.0312C23.9062 36.3841 23.3816 35.8594 22.7344 35.8594C22.0871 35.8594 21.5625 36.3841 21.5625 37.0312Z" fill="#CD1E19"/>
<path d="M30 60C30.6472 60 31.1719 59.4753 31.1719 58.8281C31.1719 58.1809 30.6472 57.6562 30 57.6562C29.3528 57.6562 28.8281 58.1809 28.8281 58.8281C28.8281 59.4753 29.3528 60 30 60Z" fill="#CD1E19"/>
</svg>
