<svg width="60" height="60" viewBox="0 0 60 60" fill="none" xmlns="http://www.w3.org/2000/svg">
<path d="M30 22.3694C25.8593 22.3694 22.5 25.7092 22.5 29.8259C22.5 33.9427 25.8593 37.2825 30 37.2825C34.1407 37.2825 37.5 33.9427 37.5 29.8259C37.5 25.7092 34.1407 22.3694 30 22.3694ZM30 32.3112C28.6192 32.3112 27.5002 31.2002 27.5002 29.8259C27.5002 28.4532 28.6192 27.3407 30 27.3407C31.3822 27.3407 32.5005 28.4547 32.5005 29.8259C32.5005 31.2002 31.3822 32.3112 30 32.3112Z" fill="#424242"/>
<path d="M30 12.4276C20.337 12.4276 12.5002 20.2189 12.5002 29.8259C12.5002 39.4329 20.337 47.2242 30 47.2242C39.6637 47.2242 47.5005 39.4329 47.5005 29.8259C47.5005 20.2189 39.6637 12.4276 30 12.4276ZM30 42.2537C23.0977 42.2537 17.4997 36.6882 17.4997 29.8259C17.4997 22.9637 23.0977 17.3981 30 17.3981C36.9022 17.3981 42.5002 22.9637 42.5002 29.8259C42.5002 36.6882 36.9022 42.2537 30 42.2537Z" fill="#0C7AEB"/>
<path d="M12.5003 29.8259C12.5003 28.9796 12.5813 28.1549 12.699 27.3406H7.5V24.8546L0 29.8259L7.5 34.7972V32.3112H12.699C12.5813 31.497 12.5003 30.6723 12.5003 29.8259Z" fill="#424242"/>
<path d="M40.4767 15.9143C41.8117 16.909 42.9959 18.0878 43.9964 19.4158L44.0009 19.4203L47.6774 15.7652L49.4452 17.5226L51.2114 8.7345L42.3749 10.4912L44.1412 12.2487L40.4662 15.9038L40.4767 15.9143Z" fill="#424242"/>
<path d="M27.5003 12.6254C28.3193 12.509 29.1488 12.4278 30 12.4278C30.8512 12.4278 31.6807 12.5083 32.499 12.6254V7.45651H35.0002L30 0L24.9998 7.45651H27.4995V12.6254H27.5003Z" fill="#424242"/>
<path d="M12.3203 15.7661L15.996 19.4198L16.011 19.4056C17.0108 18.0821 18.192 16.9077 19.524 15.9137L19.5338 15.904L15.8573 12.2503L17.625 10.4927L8.78552 8.73669L10.5525 17.5236L12.3203 15.7661Z" fill="#424242"/>
<path d="M47.6789 43.8852L44.0024 40.2314L43.9927 40.2419C42.9914 41.5692 41.8064 42.7466 40.4707 43.7413L40.4662 43.7458L44.1427 47.4011L42.3749 49.1594L51.2137 50.9154L49.4459 42.1292L47.6789 43.8852Z" fill="#424242"/>
<path d="M19.524 43.7375C18.189 42.742 17.0048 41.5639 16.0035 40.2359L15.999 40.2314L12.3225 43.8866L10.554 42.1291L8.78778 50.9166L17.6258 49.1591L15.858 47.4031L19.5338 43.7479L19.524 43.7375Z" fill="#424242"/>
<path d="M60 29.8259L52.5 24.8546V27.3406H47.301C47.418 28.1549 47.5005 28.9796 47.5005 29.8259C47.5005 30.6723 47.4188 31.497 47.301 32.3105H52.5V34.7972L60 29.8259Z" fill="#424242"/>
<path d="M32.5005 47.0267C31.6807 47.1431 30.8512 47.2243 30 47.2243C29.1517 47.2243 28.3237 47.1453 27.507 47.0282H27.5002V52.1956H25.0005L30 59.6521L35.0002 52.1956H32.5005V47.0267Z" fill="#424242"/>
</svg>
