<svg width="60" height="60" viewBox="0 0 60 60" fill="none" xmlns="http://www.w3.org/2000/svg">
<path d="M51.5625 6.5625V5.625C51.5625 3.04031 49.4597 0.9375 46.875 0.9375C44.2903 0.9375 42.1875 3.04031 42.1875 5.625V6.5625H10.3125V30.9375H3.75C2.19937 30.9375 0.9375 32.1994 0.9375 33.75C0.9375 36.0131 2.55094 37.9069 4.6875 38.3428V39.375C4.6875 40.9256 5.94938 42.1875 7.5 42.1875H8.03719L5.08031 50.3184C4.81969 51.0347 4.6875 51.7837 4.6875 52.5459C4.6875 56.1244 7.58719 59.0363 11.25 59.0606V59.0625H59.0625V6.5625H51.5625ZM44.0625 21.5625V10.3125H45.9375V21.5625H44.0625ZM49.2722 23.4375L47.265 28.7925C47.1422 29.115 46.6069 29.115 46.4859 28.7925L44.4778 23.4375H49.2722ZM49.6875 21.5625H47.8125V10.3125H49.6875V21.5625ZM46.875 2.8125C48.4256 2.8125 49.6875 4.07437 49.6875 5.625V8.4375H44.0625V5.625C44.0625 4.07437 45.3244 2.8125 46.875 2.8125ZM2.8125 33.75C2.8125 33.2325 3.2325 32.8125 3.75 32.8125H18.75C19.2675 32.8125 19.6875 33.2325 19.6875 33.75C19.6875 35.3006 18.4256 36.5625 16.875 36.5625H5.625C4.07437 36.5625 2.8125 35.3006 2.8125 33.75ZM6.5625 39.375V38.4375H15.9375V39.375C15.9375 39.8925 15.5175 40.3125 15 40.3125H7.5C6.9825 40.3125 6.5625 39.8925 6.5625 39.375ZM6.5625 52.5459C6.5625 52.0031 6.65719 51.4697 6.84188 50.9597L10.0312 42.1875H12.4688L15.6581 50.9587C15.8428 51.4688 15.9375 52.0031 15.9375 52.5459C15.9375 55.1053 13.8553 57.1875 11.2041 57.1875C8.64469 57.1875 6.5625 55.1053 6.5625 52.5459ZM57.1875 57.1875H15.8625C17.0644 56.0044 17.8125 54.3619 17.8125 52.5459C17.8125 51.7837 17.6803 51.0347 17.4197 50.3184L14.4628 42.1875H15C16.5506 42.1875 17.8125 40.9256 17.8125 39.375V38.3428C19.9491 37.9069 21.5625 36.0141 21.5625 33.75C21.5625 32.1994 20.3006 30.9375 18.75 30.9375H12.1875V8.4375H42.1875V22.6706L44.7309 29.4516C45.0647 30.3403 45.9263 30.9375 46.875 30.9375C47.8237 30.9375 48.6853 30.3403 49.02 29.4516L51.5625 22.6706V8.4375H57.1875V57.1875Z" fill="#C1262C"/>
<path d="M51.5624 32.4248L49.6734 34.3139C47.9709 33.3304 46.0481 32.8129 44.0624 32.8129C37.859 32.8129 32.8124 37.8595 32.8124 44.0629C32.8124 46.0486 33.3299 47.9714 34.3134 49.6739L32.4243 51.5629L36.5624 55.7011L38.4515 53.812C40.154 54.7954 42.0768 55.3129 44.0624 55.3129C50.2659 55.3129 55.3124 50.2664 55.3124 44.0629C55.3124 42.0773 54.7949 40.1545 53.8115 38.452L55.7006 36.5629L51.5624 32.4248ZM34.6874 44.0629C34.6874 38.8936 38.8931 34.6879 44.0624 34.6879C45.5446 34.6879 46.979 35.0451 48.2821 35.7051L46.8684 37.1189C45.9759 36.7561 45.0365 36.5629 44.0624 36.5629C39.9271 36.5629 36.5624 39.9276 36.5624 44.0629C36.5624 45.037 36.7556 45.9764 37.1193 46.8679L35.7056 48.2817C35.0446 46.9795 34.6874 45.5451 34.6874 44.0629ZM38.5959 45.3914C38.4909 44.9592 38.4374 44.5157 38.4374 44.0629C38.4374 40.9607 40.9603 38.4379 44.0624 38.4379C44.5153 38.4379 44.9587 38.4914 45.3909 38.5964L38.5959 45.3914ZM35.0756 51.5629L51.5624 35.0761L53.0493 36.5629L36.5624 53.0498L35.0756 51.5629ZM49.6874 44.0629C49.6874 47.1651 47.1646 49.6879 44.0624 49.6879C43.6096 49.6879 43.1662 49.6345 42.734 49.5295L49.5281 42.7354C49.634 43.1667 49.6874 43.6101 49.6874 44.0629ZM53.4374 44.0629C53.4374 49.2323 49.2318 53.4379 44.0624 53.4379C42.5803 53.4379 41.1459 53.0807 39.8428 52.4207L41.2565 51.007C42.149 51.3698 43.0884 51.5629 44.0624 51.5629C48.1978 51.5629 51.5624 48.1982 51.5624 44.0629C51.5624 43.0889 51.3693 42.1495 51.0056 41.2579L52.4193 39.8442C53.0803 41.1464 53.4374 42.5807 53.4374 44.0629Z" fill="#C1262C"/>
<path d="M38.4375 26.25V13.125C38.4375 11.5744 37.1756 10.3125 35.625 10.3125H18.75C17.1994 10.3125 15.9375 11.5744 15.9375 13.125V26.25C15.9375 27.8006 17.1994 29.0625 18.75 29.0625H35.625C37.1756 29.0625 38.4375 27.8006 38.4375 26.25ZM23.4375 12.1875H30.9375V15.9375H23.4375V12.1875ZM17.8125 26.25V13.125C17.8125 12.6075 18.2325 12.1875 18.75 12.1875H21.5625V17.8125H32.8125V12.1875H35.625C36.1425 12.1875 36.5625 12.6075 36.5625 13.125V26.25C36.5625 26.7675 36.1425 27.1875 35.625 27.1875H18.75C18.2325 27.1875 17.8125 26.7675 17.8125 26.25Z" fill="#C1262C"/>
<path d="M23.4375 30.9375H30.9375V32.8125H23.4375V30.9375Z" fill="#C1262C"/>
<path d="M23.4375 34.6875H30.9375V36.5625H23.4375V34.6875Z" fill="#C1262C"/>
<path d="M23.4375 38.4375H30.9375V40.3125H23.4375V38.4375Z" fill="#C1262C"/>
<path d="M19.6875 42.1875H30.9375V44.0625H19.6875V42.1875Z" fill="#C1262C"/>
<path d="M19.6875 45.9375H30.9375V47.8125H19.6875V45.9375Z" fill="#C1262C"/>
<path d="M19.6875 49.6875H30.9375V51.5625H19.6875V49.6875Z" fill="#C1262C"/>
<path d="M19.6875 53.4375H30.9375V55.3125H19.6875V53.4375Z" fill="#C1262C"/>
</svg>
