<svg width="40" height="40" viewBox="0 0 40 40" fill="none" xmlns="http://www.w3.org/2000/svg">
<path d="M32.4617 34.8388L30.9682 30.3575C30.4462 28.7929 29.1146 27.6381 27.4914 27.3426L23.1798 26.5581V26.2239C23.9301 25.7884 24.583 25.2059 25.103 24.5162H26.4056C27.4727 24.5162 28.3411 23.6478 28.3411 22.5807V14.8388C28.3411 10.2142 24.5785 6.45166 19.954 6.45166C15.3295 6.45166 11.5669 10.2142 11.5669 14.8388V19.3549C11.5669 20.5988 12.4514 21.6394 13.6243 21.882C13.9862 23.7362 15.1449 25.3052 16.7282 26.2239V26.5581L12.4159 27.3426C10.7933 27.6381 9.46107 28.7929 8.93978 30.3575L8.68171 31.1323L6.48429 28.9349C6.23268 28.6833 6.23268 28.2736 6.48429 28.022L9.03268 25.4742L4.24946 20.691L1.36946 23.571C0.516552 24.4239 0.046875 25.5581 0.046875 26.7646C0.046875 27.971 0.516552 29.1046 1.36946 29.9575L10.0888 38.6768C10.9417 39.5297 12.0759 40 13.2824 40C14.4888 40 15.6224 39.5297 16.4553 38.6962L19.5978 35.8168L18.6178 34.8388H32.4617ZM27.0507 22.5807C27.0507 22.9368 26.7611 23.2259 26.4056 23.2259H25.863C26.0501 22.7994 26.192 22.3497 26.2837 21.882C26.5598 21.8246 26.814 21.7149 27.0507 21.5768V22.5807ZM26.4056 20.4659V18.2439C26.7895 18.4678 27.0507 18.8794 27.0507 19.3549C27.0507 19.8304 26.7895 20.242 26.4056 20.4659ZM13.5024 20.4659C13.1185 20.242 12.8572 19.8304 12.8572 19.3549C12.8572 18.8794 13.1185 18.4678 13.5024 18.2439V20.4659ZM13.5024 16.1291V16.8659C13.2727 16.9259 13.0572 17.0162 12.8572 17.1329V14.8388C12.8572 10.9259 16.0411 7.74198 19.954 7.74198C23.8669 7.74198 27.0507 10.9259 27.0507 14.8388V17.1329C26.8507 17.0162 26.6353 16.9252 26.4056 16.8659V16.1291H25.7604C23.8527 16.1291 22.0591 15.3859 20.7095 14.0368L19.954 13.2813L19.1985 14.0368C17.8488 15.3859 16.0553 16.1291 14.1475 16.1291H13.5024ZM14.7927 20.6452V17.3949C16.7301 17.2491 18.5366 16.4497 19.954 15.102C21.3714 16.4497 23.1778 17.2497 25.1153 17.3949V20.6452C25.1153 21.5859 24.8585 22.4659 24.4172 23.2259H19.954V24.5162H23.3566C22.4469 25.3168 21.2578 25.8065 19.954 25.8065C17.1082 25.8065 14.7927 23.491 14.7927 20.6452ZM21.8895 26.7994V26.8297L19.954 28.7652L18.0185 26.8297V26.7994C18.6301 26.9917 19.2798 27.0968 19.954 27.0968C20.6282 27.0968 21.2778 26.9917 21.8895 26.7994ZM10.163 30.7652C10.5353 29.6478 11.4869 28.8226 12.6462 28.611L17.1559 27.7917L19.954 30.5897L22.7514 27.7923L27.2604 28.6117C28.4198 28.8233 29.3714 29.6478 29.7437 30.7659L30.672 33.5484H17.3275L14.8146 31.0355L12.0224 33.5613C11.7791 33.8059 11.354 33.8059 11.1101 33.5613L9.70107 32.1523L10.163 30.7652ZM4.24881 22.5155L7.20752 25.4742L6.50688 26.1749L3.54817 23.2162L4.24881 22.5155ZM15.5617 37.7659C14.9527 38.3736 14.1424 38.7097 13.2811 38.7097C12.4198 38.7097 11.6095 38.3736 10.9998 37.7646L2.28042 29.0459C1.67139 28.4368 1.33591 27.6265 1.33591 26.7652C1.33591 25.9033 1.67139 25.093 2.28042 24.4839L2.63526 24.1291L5.59397 27.0878L5.57075 27.111C4.81655 27.8659 4.81655 29.0936 5.57075 29.8484L10.1972 34.4749C10.563 34.84 11.0488 35.042 11.5662 35.042C12.0836 35.042 12.5695 34.8407 12.9114 34.4975L12.9598 34.4542L15.932 37.4265L15.5617 37.7659ZM16.8843 36.5529L13.9185 33.5871L14.7707 32.8168L17.7314 35.7775L16.8843 36.5529Z" fill="#CD1E19"/>
<path d="M38.0185 0H28.9863C27.9192 0 27.0508 0.868387 27.0508 1.93548V7.09677C27.0508 8.16387 27.9192 9.03226 28.9863 9.03226H30.7095L30.0424 12.9232L36.2682 9.03226H38.0185C39.0856 9.03226 39.954 8.16387 39.954 7.09677V1.93548C39.954 0.868387 39.0856 0 38.0185 0ZM38.6637 7.09677C38.6637 7.45226 38.374 7.74194 38.0185 7.74194H35.8979L31.8005 10.3026L32.2398 7.74194H28.9863C28.6308 7.74194 28.3411 7.45226 28.3411 7.09677V1.93548C28.3411 1.58 28.6308 1.29032 28.9863 1.29032H38.0185C38.374 1.29032 38.6637 1.58 38.6637 1.93548V7.09677Z" fill="#CD1E19"/>
<path d="M37.3733 2.58057H29.6313V3.87089H37.3733V2.58057Z" fill="#CD1E19"/>
<path d="M34.7926 5.16138H29.6313V6.4517H34.7926V5.16138Z" fill="#CD1E19"/>
<path d="M37.3733 5.16138H36.083V6.4517H37.3733V5.16138Z" fill="#CD1E19"/>
<path d="M19.9536 1.93555C11.524 1.93555 4.26267 7.76651 2.37493 15.9001L1.15235 13.862L0.0458984 14.5259L2.31364 18.3046L6.09235 16.0368L5.42848 14.9304L3.68009 15.9794C5.50848 8.53877 12.1994 3.22587 19.9536 3.22587C21.6485 3.22587 23.3207 3.47748 24.924 3.97426L25.3059 2.742C23.5788 2.20651 21.7782 1.93555 19.9536 1.93555Z" fill="#CD1E19"/>
<path d="M39.6404 14.2851L35.8617 12.0173L33.5946 15.7967L34.701 16.4606L35.83 14.5786C36.4242 16.3173 36.7281 18.136 36.7281 19.9999C36.7281 23.8367 35.3991 27.5877 32.9868 30.5612L33.9888 31.3741C36.5875 28.1715 38.0184 24.1315 38.0184 19.9999C38.0184 18.0264 37.7004 16.0993 37.0804 14.2541L38.9765 15.3915L39.6404 14.2851Z" fill="#CD1E19"/>
</svg>
