<svg width="60" height="60" viewBox="0 0 60 60" fill="none" xmlns="http://www.w3.org/2000/svg">
<path d="M18.75 52.5V54.375H16.875V52.5H18.75ZM13.125 52.5V54.375H15V52.5H13.125ZM1.98949 53.6322C1.91315 53.2596 1.87479 52.8803 1.875 52.5V35.625H3.75V52.5C3.75112 53.4942 4.14656 54.4474 4.84958 55.1504C5.5526 55.8534 6.50578 56.2489 7.5 56.25H21.5625V49.6875H10.3125C10.0639 49.6875 9.8254 49.5887 9.64959 49.4129C9.47377 49.2371 9.375 48.9986 9.375 48.75V37.5H11.25V47.8125H11.5716L16.6499 38.5523L14.4775 36.1631C14.4763 36.1618 14.4754 36.1603 14.4741 36.159L8.03906 29.0807C6.86976 29.1817 5.78075 29.7172 4.98679 30.5815C4.19284 31.4459 3.75157 32.5763 3.75 33.75H1.875C1.87709 32.1726 2.44648 30.6486 3.4792 29.4563C4.51192 28.2639 5.93906 27.4828 7.5 27.2556V10.4931L5.86078 6.39505C5.63231 5.79454 5.57949 5.1414 5.70848 4.51198C5.83747 3.88256 6.14295 3.30286 6.58922 2.84063C6.89476 2.53373 7.25807 2.29038 7.65818 2.12464C8.05828 1.95891 8.48724 1.87406 8.92031 1.87501H24.8297C25.3683 1.87518 25.8987 2.00737 26.3744 2.26C26.8502 2.51262 27.2567 2.87799 27.5585 3.32413C27.8603 3.77027 28.0482 4.28358 28.1057 4.81914C28.1632 5.3547 28.0885 5.89619 27.8883 6.39622L26.6016 9.61419L28.9416 10.0822C29.5458 10.203 30.0836 10.5442 30.4503 11.0394C30.817 11.5346 30.9865 12.1485 30.9258 12.7617C30.865 13.375 30.5784 13.9437 30.1217 14.3574C29.665 14.771 29.0708 15.0001 28.4545 15C28.0519 15 27.6499 14.9907 27.2486 14.9721L28.9955 19.3393C29.0524 19.4816 29.0735 19.6356 29.0571 19.7879C29.0407 19.9403 28.9872 20.0862 28.9013 20.2131C28.8154 20.34 28.6998 20.4439 28.5644 20.5157C28.4291 20.5875 28.2782 20.625 28.125 20.625H25.3125V25.3125C25.313 25.9711 25.1389 26.6181 24.808 27.1875H24.9223C26.3485 27.1874 27.7515 27.5489 29.0002 28.2381C30.2489 28.9273 31.3025 29.9219 32.0625 31.1288L34.6458 35.232L33.0586 36.2309L30.4757 32.1284C30.0532 31.4612 29.5144 30.8753 28.885 30.3984L19.335 47.8125H25.123L24.9155 47.6347C24.5297 47.3047 24.247 46.8706 24.1013 46.3842C23.9556 45.8979 23.9529 45.3799 24.0936 44.8921C24.2343 44.4042 24.5125 43.9672 24.8949 43.6332C25.2773 43.2992 25.7477 43.0824 26.25 43.0085V37.5H28.125V40.0488L32.1599 46.6523L33.8537 48.0074L36.1364 32.4123C36.2434 31.7388 36.5873 31.1257 37.1063 30.6834C37.6254 30.2411 38.2853 29.9988 38.9672 30H41.3327C41.9166 28.907 43.1169 28.125 44.3416 28.125H45.5148L45.5734 27.8945C45.9403 26.4466 47.3842 25.3125 48.8599 25.3125C49.2149 25.2987 49.5684 25.3659 49.8936 25.5089C50.2189 25.6519 50.5073 25.8671 50.737 26.1381C50.9667 26.4091 51.1318 26.7288 51.2197 27.0731C51.3076 27.4173 51.3159 27.777 51.2442 28.125H51.9516C52.3219 28.1167 52.6891 28.1935 53.0251 28.3495C53.361 28.5056 53.6566 28.7367 53.8891 29.025C54.1098 29.311 54.26 29.6451 54.3273 30H55.2656C55.6785 29.999 56.0868 30.0869 56.4627 30.2578C56.8385 30.4287 57.1732 30.6786 57.4438 30.9905C57.7056 31.2924 57.8993 31.6472 58.0117 32.0307C58.1242 32.4142 58.1526 32.8174 58.0952 33.2129L56.9906 40.755C57.4113 41.0395 57.7386 41.442 57.9314 41.9119C58.1243 42.3818 58.174 42.8981 58.0744 43.3962L56.8932 49.3016C56.7644 49.9385 56.4196 50.5114 55.9171 50.9233C55.4145 51.3353 54.7852 51.5611 54.1353 51.5625H51.1113C50.7299 51.5625 50.3532 51.4779 50.0084 51.3147C49.6637 51.1515 49.3594 50.9139 49.1176 50.6189C48.8757 50.3239 48.7024 49.979 48.61 49.6089C48.5176 49.2388 48.5084 48.8529 48.5832 48.4788L49.7643 42.5734C49.8931 41.9365 50.238 41.3637 50.7405 40.9517C51.243 40.5398 51.8724 40.314 52.5221 40.3125H55.1602L56.2397 32.9414C56.2589 32.8123 56.2496 32.6805 56.2125 32.5553C56.1754 32.4301 56.1114 32.3145 56.025 32.2166C55.9304 32.1085 55.8136 32.022 55.6825 31.963C55.5515 31.9041 55.4093 31.8741 55.2656 31.875H54.1078L53.5738 33.9805C53.5225 34.1826 53.4053 34.3619 53.2407 34.49C53.0761 34.618 52.8735 34.6875 52.665 34.6875H41.25C41.1073 34.6875 40.9664 34.6549 40.8381 34.5922C40.7099 34.5295 40.5977 34.4384 40.51 34.3257C40.4224 34.213 40.3616 34.0819 40.3323 33.9421C40.3031 33.8024 40.3061 33.6579 40.3412 33.5195L40.7584 31.875H38.9672C38.7349 31.8716 38.5091 31.9511 38.3302 32.0993C38.1514 32.2476 38.0313 32.4547 37.9916 32.6836L34.6976 55.1836C34.6787 55.3111 34.6874 55.4411 34.7233 55.5649C34.7591 55.6886 34.8212 55.8033 34.9052 55.9009C34.997 56.0082 35.1105 56.0947 35.2382 56.1548C35.3659 56.215 35.505 56.2473 35.6461 56.2497L35.6712 56.2506H51.9703C52.2026 56.254 52.4284 56.1745 52.6073 56.0263C52.7861 55.878 52.9062 55.6709 52.9459 55.442L53.259 53.3027L55.1143 53.5744L54.8011 55.7141C54.6938 56.3873 54.3497 57.0001 53.8308 57.4421C53.3118 57.8841 52.652 58.1263 51.9703 58.125H7.5C6.20509 58.1233 4.95026 57.6757 3.94664 56.8575C2.94303 56.0392 2.25188 54.9002 1.98949 53.6322ZM56.0902 42.4453C56.0247 42.3643 55.942 42.2991 55.8479 42.2545C55.7539 42.2098 55.651 42.187 55.5469 42.1875H52.5221C52.3055 42.188 52.0958 42.2633 51.9283 42.4006C51.7608 42.538 51.6459 42.729 51.6029 42.9413L50.4219 48.8465C50.4015 48.9485 50.404 49.0537 50.4292 49.1546C50.4544 49.2556 50.5016 49.3497 50.5676 49.4301C50.6335 49.5106 50.7165 49.5754 50.8105 49.6199C50.9046 49.6644 51.0073 49.6875 51.1113 49.6875H54.1353C54.352 49.687 54.5618 49.6118 54.7293 49.4745C54.8968 49.3371 55.0117 49.1462 55.0547 48.9339L56.2358 43.0286C56.2568 42.9266 56.2547 42.8213 56.2295 42.7203C56.2042 42.6194 56.1566 42.5254 56.0902 42.4453ZM42.4549 32.8125H51.9354L52.4693 30.707C52.4999 30.6197 52.5103 30.5266 52.4998 30.4348C52.4893 30.3429 52.4582 30.2545 52.4088 30.1764C52.3508 30.1144 52.2795 30.0664 52.2002 30.0359C52.1209 30.0055 52.0358 29.9934 51.9512 30.0006H50.0491C49.9064 30.0006 49.7655 29.968 49.6373 29.9053C49.509 29.8426 49.3968 29.7515 49.3092 29.6388C49.2215 29.5261 49.1607 29.3949 49.1315 29.2552C49.1022 29.1155 49.1053 28.9709 49.1404 28.8326L49.3781 27.8951C49.4086 27.8078 49.419 27.7147 49.4085 27.6228C49.3981 27.5309 49.367 27.4426 49.3177 27.3643C49.2596 27.3024 49.1882 27.2544 49.109 27.224C49.0297 27.1935 48.9445 27.1814 48.8599 27.1886C48.235 27.1886 47.5485 27.7343 47.3906 28.3566L47.1529 29.2941C47.1014 29.496 46.9841 29.675 46.8195 29.8029C46.6549 29.9307 46.4525 30.0001 46.2441 30H44.3416C43.7167 30 43.03 30.5457 42.8722 31.168L42.4549 32.8125ZM25.2197 11.25H18.9545C21.9692 12.4867 25.1961 13.1236 28.4545 13.125C28.6054 13.125 28.7508 13.0689 28.8626 12.9676C28.9744 12.8663 29.0446 12.7271 29.0595 12.577C29.0743 12.4269 29.0329 12.2766 28.9431 12.1553C28.8534 12.0341 28.7217 11.9505 28.5738 11.9209L25.2197 11.25ZM24.6814 9.36563L25.4345 7.48325L25.8028 6.56251H24.8438C24.4848 6.56246 24.1395 6.69965 23.8784 6.94599C23.6174 7.19232 23.4604 7.52915 23.4397 7.88747C23.4189 8.24579 23.536 8.59849 23.7668 8.8733C23.9977 9.14812 24.3249 9.32426 24.6814 9.36563ZM9.07219 9.37501H21.8797C21.7386 9.07857 21.6431 8.7625 21.5965 8.43751H11.25V6.56251H21.8797C22.1462 6.00188 22.566 5.52821 23.0906 5.19637C23.6152 4.86453 24.223 4.6881 24.8438 4.68751H26.1636C26.0644 4.41325 25.8831 4.17617 25.6445 4.00846C25.4058 3.84074 25.1214 3.75051 24.8297 3.75001H8.92031C8.68799 3.74987 8.45918 3.80674 8.25396 3.91562C8.04873 4.02451 7.87336 4.18208 7.74321 4.37453C7.61307 4.56698 7.53214 4.78842 7.50751 5.01944C7.48288 5.25045 7.51531 5.48398 7.60195 5.69954L9.07219 9.37501ZM9.8775 14.7469C10.2891 13.105 11.7574 12.1875 13.3867 12.1875L13.6993 11.25H9.375V19.2991L10.7407 17.9334C10.3387 17.5189 10.0486 17.009 9.89762 16.4516C9.74664 15.8943 9.73971 15.3077 9.8775 14.7469ZM9.375 27.1875H21.5625C22.0596 27.1869 22.5362 26.9892 22.8877 26.6377C23.2392 26.2862 23.4369 25.8096 23.4375 25.3125V23.4375H20.625V21.5625H23.4375V19.6875C23.4375 19.4389 23.5363 19.2004 23.7121 19.0246C23.8879 18.8488 24.1264 18.75 24.375 18.75H26.7403L25.1583 14.7956C24.2183 14.6793 23.2851 14.5136 22.3625 14.2991C22.4948 14.6255 22.5325 14.9825 22.4713 15.3293C22.4101 15.6761 22.2524 15.9986 22.0164 16.26C21.7804 16.5214 21.4755 16.711 21.1367 16.8071C20.798 16.9033 20.439 16.9021 20.1008 16.8036C19.7627 16.7052 19.4591 16.5136 19.2249 16.2507C18.9906 15.9877 18.8351 15.6641 18.7762 15.3169C18.7173 14.9697 18.7574 14.613 18.8919 14.2875C19.0263 13.962 19.2497 13.681 19.5364 13.4766C18.154 12.9912 16.8136 12.3936 15.5286 11.6897L14.9514 13.4217C14.8891 13.6083 14.7698 13.7705 14.6103 13.8855C14.4508 14.0005 14.2591 14.0624 14.0625 14.0625H13.1566C12.821 14.0621 12.4949 14.174 12.2303 14.3805C11.9656 14.587 11.7778 14.8761 11.6966 15.2018C11.6232 15.5338 11.6604 15.8807 11.8025 16.1896C11.9446 16.4985 12.1838 16.7524 12.4836 16.9127L12.6036 16.9722C12.737 17.0382 12.8528 17.1351 12.9413 17.2548C13.0298 17.3744 13.0885 17.5135 13.1127 17.6604C13.1368 17.8072 13.1256 17.9578 13.08 18.0995C13.0344 18.2412 12.9557 18.37 12.8504 18.4752L9.375 21.9509V27.1875ZM21.5625 29.0625H20.3632L19.713 31.0131L19.9628 32.5113L21.8542 29.0625H21.5625ZM14.9518 31.149L13.5608 29.0625H10.5567L14.5645 33.4711L14.9518 31.149ZM17.6033 36.8138L18.5051 35.1694L17.8254 31.0913C17.8003 30.9404 17.8123 30.7858 17.8605 30.6407L18.3867 29.0625H15.8142L16.7175 30.4174C16.8497 30.6156 16.9014 30.8567 16.8622 31.0917L16.1708 35.2379L17.6033 36.8138ZM17.1964 47.8125L27.2442 29.4901C26.5023 29.2087 25.7157 29.0639 24.9223 29.0625H23.994L13.71 47.8125H17.1964ZM31.7344 48.8789L28.125 50.3222V56.25H32.9775C32.8234 55.8219 32.7769 55.3624 32.8423 54.9121L33.5285 50.2253L31.7344 48.8789ZM26.1353 46.2107L28.4329 48.1794L30.1897 47.4763L27.1209 45.0213C27.0505 44.9652 26.971 44.9216 26.8857 44.8924C26.7159 44.8352 26.5313 44.8388 26.3638 44.9026C26.1963 44.9665 26.0562 45.0866 25.9676 45.2424C25.8789 45.3982 25.8472 45.58 25.8779 45.7567C25.9086 45.9333 25.9997 46.0938 26.1357 46.2105L26.1353 46.2107ZM23.4375 56.25H26.25V49.6875H23.4375V56.25Z" fill="#CD1E19"/>
</svg>
