<svg width="60" height="60" viewBox="0 0 60 60" fill="none" xmlns="http://www.w3.org/2000/svg">
<path d="M46.875 43.125C46.3187 43.125 45.775 43.29 45.3125 43.599C44.8499 43.908 44.4895 44.3473 44.2766 44.8612C44.0637 45.3751 44.008 45.9406 44.1165 46.4862C44.2251 47.0318 44.4929 47.5329 44.8863 47.9262C45.2796 48.3196 45.7807 48.5874 46.3263 48.696C46.8719 48.8045 47.4374 48.7488 47.9513 48.5359C48.4652 48.323 48.9045 47.9626 49.2135 47.5C49.5226 47.0375 49.6875 46.4938 49.6875 45.9375C49.6867 45.1918 49.3901 44.477 48.8628 43.9497C48.3356 43.4224 47.6207 43.1258 46.875 43.125ZM46.875 46.875C46.6896 46.875 46.5083 46.82 46.3542 46.717C46.2 46.614 46.0798 46.4676 46.0089 46.2963C45.9379 46.125 45.9193 45.9365 45.9555 45.7546C45.9917 45.5727 46.081 45.4057 46.2121 45.2746C46.3432 45.1435 46.5102 45.0542 46.6921 45.018C46.874 44.9818 47.0625 45.0004 47.2338 45.0714C47.4051 45.1423 47.5515 45.2625 47.6545 45.4167C47.7575 45.5708 47.8125 45.7521 47.8125 45.9375C47.8122 46.1861 47.7134 46.4244 47.5376 46.6001C47.3619 46.7759 47.1236 46.8747 46.875 46.875Z" fill="#CD1E19"/>
<path d="M13.125 48.75C13.6813 48.75 14.225 48.5851 14.6875 48.276C15.1501 47.967 15.5105 47.5277 15.7234 47.0138C15.9363 46.4999 15.992 45.9344 15.8835 45.3888C15.7749 44.8432 15.5071 44.3421 15.1137 43.9488C14.7204 43.5554 14.2193 43.2876 13.6737 43.179C13.1281 43.0705 12.5626 43.1262 12.0487 43.3391C11.5348 43.552 11.0955 43.9124 10.7865 44.375C10.4775 44.8375 10.3125 45.3812 10.3125 45.9375C10.3133 46.6832 10.6099 47.3981 11.1372 47.9253C11.6645 48.4526 12.3793 48.7492 13.125 48.75ZM13.125 45C13.3104 45 13.4917 45.055 13.6458 45.158C13.8 45.261 13.9202 45.4074 13.9911 45.5787C14.0621 45.75 14.0807 45.9385 14.0445 46.1204C14.0083 46.3023 13.919 46.4693 13.7879 46.6004C13.6568 46.7315 13.4898 46.8208 13.3079 46.857C13.126 46.8932 12.9375 46.8746 12.7662 46.8036C12.5949 46.7327 12.4485 46.6125 12.3455 46.4584C12.2425 46.3042 12.1875 46.1229 12.1875 45.9375C12.1878 45.6889 12.2866 45.4507 12.4624 45.2749C12.6381 45.0991 12.8764 45.0003 13.125 45Z" fill="#CD1E19"/>
<path d="M58.002 32.3472L50.502 19.2222C50.4197 19.0788 50.3011 18.9597 50.1581 18.8768C50.0151 18.7938 49.8528 18.7501 49.6875 18.75H39.375V12.1875C39.375 11.9388 39.2762 11.7004 39.1004 11.5246C38.9246 11.3488 38.6861 11.25 38.4375 11.25H29.4094C28.2738 10.0645 26.9101 9.12117 25.4003 8.4767C23.8906 7.83224 22.266 7.5 20.6244 7.5C18.9828 7.5 17.3583 7.83224 15.8485 8.4767C14.3387 9.12117 12.975 10.0645 11.8395 11.25H2.8125C2.56386 11.25 2.3254 11.3488 2.14959 11.5246C1.97377 11.7004 1.875 11.9388 1.875 12.1875V45.9375C1.875 46.1861 1.97377 46.4246 2.14959 46.6004C2.3254 46.7762 2.56386 46.875 2.8125 46.875H7.57969C7.70881 47.6336 7.99203 48.3578 8.41186 49.0028C8.83169 49.6477 9.37924 50.1998 10.0207 50.625H1.875C1.62636 50.625 1.3879 50.7237 1.21209 50.8996C1.03627 51.0754 0.9375 51.3138 0.9375 51.5625C0.9375 51.8111 1.03627 52.0496 1.21209 52.2254C1.3879 52.4012 1.62636 52.5 1.875 52.5H54.2578C54.5065 52.5 54.7449 52.4012 54.9207 52.2254C55.0965 52.0496 55.1953 51.8111 55.1953 51.5625C55.1953 51.3138 55.0965 51.0754 54.9207 50.8996C54.7449 50.7237 54.5065 50.625 54.2578 50.625H49.9793C50.6208 50.1998 51.1683 49.6477 51.5881 49.0028C52.008 48.3578 52.2912 47.6336 52.4203 46.875H57.1875C57.4361 46.875 57.6746 46.7762 57.8504 46.6004C58.0262 46.4246 58.125 46.1861 58.125 45.9375V32.8125C58.1251 32.6493 58.0827 32.489 58.002 32.3472ZM50.7504 23.4375L55.5715 31.875H44.0625V23.4375H50.7504ZM12.7922 12.9867C12.9477 12.8918 13.0722 12.7538 13.1508 12.5894C15.0188 10.625 17.5855 9.47537 20.295 9.3896C23.0044 9.30382 25.6387 10.2888 27.6272 12.1311C29.6158 13.9735 30.7986 16.525 30.9195 19.2332C31.0405 21.9413 30.0898 24.5881 28.2734 26.6004C26.457 28.6127 23.921 29.8285 21.2147 29.9846C18.5083 30.1407 15.8494 29.2244 13.8137 27.4343C11.778 25.6442 10.5294 23.1242 10.3382 20.4201C10.147 17.716 11.0286 15.0455 12.7922 12.9867ZM3.75 13.125H10.3594C9.18084 14.9667 8.51948 17.0916 8.44464 19.2768C8.3698 21.4621 8.88423 23.6272 9.934 25.5453C10.9838 27.4633 12.5302 29.0637 14.4112 30.1785C16.2922 31.2933 18.4385 31.8815 20.625 31.8815C22.8115 31.8815 24.9578 31.2933 26.8388 30.1785C28.7198 29.0637 30.2662 27.4633 31.316 25.5453C32.3658 23.6272 32.8802 21.4621 32.8054 19.2768C32.7305 17.0916 32.0692 14.9667 30.8906 13.125H37.5V37.5H3.75V13.125ZM7.57969 45H3.75V39.375H37.5V45H18.6703C18.449 43.6894 17.7706 42.4995 16.7555 41.6414C15.7404 40.7834 14.4542 40.3126 13.125 40.3126C11.7958 40.3126 10.5096 40.7834 9.49451 41.6414C8.4794 42.4995 7.80102 43.6894 7.57969 45ZM13.125 49.6875C12.3833 49.6875 11.6583 49.4675 11.0416 49.0555C10.4249 48.6434 9.94428 48.0578 9.66045 47.3725C9.37662 46.6873 9.30236 45.9333 9.44705 45.2059C9.59175 44.4785 9.9489 43.8103 10.4733 43.2858C10.9978 42.7614 11.666 42.4042 12.3934 42.2595C13.1208 42.1148 13.8748 42.1891 14.5601 42.4729C15.2453 42.7568 15.831 43.2374 16.243 43.8541C16.6551 44.4708 16.875 45.1958 16.875 45.9375C16.8739 46.9317 16.4784 47.8849 15.7754 48.5879C15.0724 49.2909 14.1192 49.6864 13.125 49.6875ZM16.2293 50.625C16.8708 50.1998 17.4183 49.6477 17.8381 49.0028C18.258 48.3578 18.5412 47.6336 18.6703 46.875H41.3297C41.4588 47.6336 41.742 48.3578 42.1619 49.0028C42.5817 49.6477 43.1292 50.1998 43.7707 50.625H16.2293ZM46.875 49.6875C46.1333 49.6875 45.4083 49.4675 44.7916 49.0555C44.1749 48.6434 43.6943 48.0578 43.4104 47.3725C43.1266 46.6873 43.0524 45.9333 43.1971 45.2059C43.3418 44.4785 43.6989 43.8103 44.2234 43.2858C44.7478 42.7614 45.416 42.4042 46.1434 42.2595C46.8708 42.1148 47.6248 42.1891 48.3101 42.4729C48.9953 42.7568 49.581 43.2374 49.993 43.8541C50.4051 44.4708 50.625 45.1958 50.625 45.9375C50.6239 46.9317 50.2284 47.8849 49.5254 48.5879C48.8224 49.2909 47.8692 49.6864 46.875 49.6875ZM56.25 38.4375H54.375C54.1264 38.4375 53.8879 38.3387 53.7121 38.1629C53.5363 37.9871 53.4375 37.7486 53.4375 37.5C53.4375 37.2513 53.5363 37.0129 53.7121 36.8371C53.8879 36.6612 54.1264 36.5625 54.375 36.5625H56.25V38.4375ZM56.25 34.6875H54.375C53.6291 34.6875 52.9137 34.9838 52.3863 35.5112C51.8588 36.0387 51.5625 36.7541 51.5625 37.5C51.5625 38.2459 51.8588 38.9613 52.3863 39.4887C52.9137 40.0162 53.6291 40.3125 54.375 40.3125H56.25V45H52.4203C52.199 43.6894 51.5206 42.4995 50.5055 41.6414C49.4904 40.7834 48.2042 40.3126 46.875 40.3126C45.5458 40.3126 44.2596 40.7834 43.2445 41.6414C42.2294 42.4995 41.551 43.6894 41.3297 45H39.375V20.625H49.1437L49.6793 21.5625H43.125C42.8764 21.5625 42.6379 21.6613 42.4621 21.8371C42.2863 22.0129 42.1875 22.2513 42.1875 22.5V32.8125C42.1875 33.0611 42.2863 33.2996 42.4621 33.4754C42.6379 33.6512 42.8764 33.75 43.125 33.75H56.25V34.6875Z" fill="#CD1E19"/>
<path d="M58.0078 50.625H57.0703C56.8217 50.625 56.5832 50.7238 56.4074 50.8996C56.2316 51.0754 56.1328 51.3139 56.1328 51.5625C56.1328 51.8111 56.2316 52.0496 56.4074 52.2254C56.5832 52.4012 56.8217 52.5 57.0703 52.5H58.0078C58.2565 52.5 58.4949 52.4012 58.6707 52.2254C58.8465 52.0496 58.9453 51.8111 58.9453 51.5625C58.9453 51.3139 58.8465 51.0754 58.6707 50.8996C58.4949 50.7238 58.2565 50.625 58.0078 50.625Z" fill="#CD1E19"/>
<path d="M14.4375 23.25L18.1875 26.0625C18.3767 26.2044 18.6124 26.2696 18.8476 26.245C19.0827 26.2204 19.2999 26.1078 19.4556 25.9299L26.0181 18.4299C26.1818 18.2427 26.2645 17.9982 26.248 17.7501C26.2314 17.502 26.117 17.2707 25.9299 17.1069C25.7427 16.9432 25.4982 16.8605 25.2501 16.8771C25.002 16.8936 24.7707 17.0081 24.6069 17.1952L18.617 24.0408L15.5625 21.75C15.3636 21.6008 15.1136 21.5368 14.8674 21.572C14.6213 21.6071 14.3992 21.7386 14.25 21.9375C14.1008 22.1364 14.0368 22.3865 14.0719 22.6326C14.1071 22.8788 14.2386 23.1008 14.4375 23.25Z" fill="#CD1E19"/>
</svg>
