<svg width="60" height="60" viewBox="0 0 60 60" fill="none" xmlns="http://www.w3.org/2000/svg">
<path d="M60 49.7102V4.97125H52.5V0H47.4997V4.97125H32.4997V0H27.4995V4.97125H12.4995V0H7.5V4.97125H0V49.7102H27.5002V54.6807H22.5L20.0002 59.652H40.0005L37.5 54.6807H32.4997V49.7102H60ZM5.00025 44.739V9.94175H55.0005V44.739H5.00025Z" fill="#424242"/>
<path d="M22.5 41.0107C23.8806 41.0107 24.9998 39.898 24.9998 38.5255C24.9998 37.1529 23.8806 36.0402 22.5 36.0402C21.1194 36.0402 20.0002 37.1529 20.0002 38.5255C20.0002 39.898 21.1194 41.0107 22.5 41.0107Z" fill="#0C7AEB"/>
<path d="M30 41.0107C31.3806 41.0107 32.4998 39.898 32.4998 38.5255C32.4998 37.1529 31.3806 36.0402 30 36.0402C28.6194 36.0402 27.5002 37.1529 27.5002 38.5255C27.5002 39.898 28.6194 41.0107 30 41.0107Z" fill="#0C7AEB"/>
<path d="M20.0693 18.6412L19.2368 13.6699H9.99976V18.6412H15L17.4998 33.5542H34.9995L39.999 18.6412H20.0693ZM21.735 28.5829L20.9025 23.6117H33.0615L31.3958 28.5829H21.735Z" fill="#0C7AEB"/>
<path d="M50.0002 32.3113H39.9998V39.7678H50.0002V32.3113Z" fill="#0C7AEB"/>
<path d="M50.0002 22.3694H42.5002V27.3407H50.0002V22.3694Z" fill="#0C7AEB"/>
</svg>
