<svg width="60" height="60" viewBox="0 0 60 60" fill="none" xmlns="http://www.w3.org/2000/svg">
<path d="M23.1988 23.3032C22.6934 22.7499 21.9737 22.4259 21.2245 22.4143C19.7176 22.395 18.471 23.5964 18.4454 25.1021C18.4372 25.5875 18.8241 25.9876 19.3093 25.9958C19.3145 25.9959 19.3194 25.9959 19.3246 25.9959C19.8031 25.9959 20.1949 25.6121 20.203 25.1317C20.212 24.594 20.6541 24.1625 21.197 24.1719C21.468 24.1761 21.718 24.2886 21.9009 24.4887C22.2284 24.8472 22.7844 24.8723 23.1426 24.5449C23.501 24.2176 23.5262 23.6615 23.1988 23.3032Z" fill="#CD1E19"/>
<path d="M27.8748 26.1712C27.6054 25.5379 27.081 25.0381 26.4356 24.7998C25.1379 24.3211 23.6912 24.9864 23.2104 26.2826C23.0415 26.7378 23.2737 27.2435 23.7287 27.4124C23.8295 27.4498 23.9327 27.4675 24.0342 27.4675C24.3913 27.4675 24.7269 27.2483 24.8584 26.894C25.0028 26.5047 25.4379 26.3055 25.827 26.449C26.0225 26.5212 26.1753 26.6669 26.257 26.859C26.447 27.3056 26.9633 27.514 27.4098 27.3239C27.8566 27.134 28.0646 26.6179 27.8748 26.1712Z" fill="#CD1E19"/>
<path d="M33.5391 18.3818C33.1955 18.0388 32.639 18.0395 32.2962 18.3831L31.4677 19.2133C31.1248 19.5569 31.1254 20.1134 31.469 20.4562C31.6405 20.6274 31.8651 20.7129 32.0898 20.7129C32.315 20.7129 32.5402 20.6269 32.7119 20.4549L33.5404 19.6247C33.8833 19.2811 33.8827 18.7246 33.5391 18.3818Z" fill="#CD1E19"/>
<path d="M28.0718 29.7305H26.9004C26.4149 29.7305 26.0215 30.124 26.0215 30.6094C26.0215 31.0947 26.4149 31.4883 26.9004 31.4883H28.0718C28.5573 31.4883 28.9507 31.0947 28.9507 30.6094C28.9507 30.124 28.5573 29.7305 28.0718 29.7305Z" fill="#CD1E19"/>
<path d="M37.0534 29.7305H35.8818C35.3963 29.7305 35.0029 30.124 35.0029 30.6094C35.0029 31.0947 35.3964 31.4883 35.8818 31.4883H37.0534C37.5387 31.4883 37.9323 31.0947 37.9323 30.6094C37.9323 30.124 37.5387 29.7305 37.0534 29.7305Z" fill="#CD1E19"/>
<path d="M59.9718 45.5785L59.7429 44.3432C59.597 43.5538 58.9077 42.9809 58.1039 42.9809C58.003 42.9809 57.9013 42.9901 57.8012 43.0085L53.1419 43.8644L55.2519 42.4539C55.8049 42.0843 56.0844 41.4231 55.9638 40.7672C55.9303 40.5875 55.8675 40.4152 55.7766 40.2538L55.138 39.1231C54.9192 38.7346 54.5461 38.446 54.1154 38.3316C53.9045 38.2753 53.684 38.2628 53.4688 38.2908C53.7038 36.994 53.8249 35.6696 53.8249 34.3213C53.8249 33.7231 53.4652 33.2083 52.9513 32.9796C53.6228 31.3826 53.6686 29.5543 53.0049 27.8799C52.9511 27.7437 52.8712 27.6222 52.7677 27.5186C52.665 27.416 52.5449 27.3366 52.4086 27.2819C51.6133 26.9651 50.7774 26.8046 49.9241 26.8046C49.815 26.8046 49.7064 26.8074 49.5981 26.8126C49.4764 24.3595 47.4461 22.4012 44.9676 22.4012C44.6412 22.4012 44.323 22.4359 44.0156 22.5005C44.2291 21.2232 44.1033 19.8869 43.6059 18.6323C43.5524 18.4944 43.4722 18.3706 43.3631 18.2598C43.2581 18.1548 43.1349 18.0738 42.9983 18.0195C42.1415 17.6783 41.241 17.5053 40.3218 17.5053C38.9371 17.5053 37.6126 17.8946 36.4691 18.6184C36.0513 17.4082 35.3624 16.2721 34.3998 15.3073C34.1178 15.0248 33.7428 14.8692 33.3438 14.8692C32.9448 14.8692 32.5698 15.0248 32.2875 15.3075L28.0321 19.5726C27.2446 18.8702 26.2083 18.4503 25.0835 18.4503C24.8283 18.4503 24.5706 18.4727 24.3176 18.5168C23.4008 18.6764 22.5572 19.1251 21.9105 19.7823C21.0811 19.3821 20.1311 19.2456 19.2181 19.4045C19.0172 19.4394 18.8223 19.4886 18.6332 19.5486V16.262C18.6332 13.9986 16.8141 12.154 14.5639 12.1151V10.2511C15.2527 10.1319 15.7786 9.53158 15.7786 8.80924V4.58593C15.7786 3.77828 15.1216 3.12109 14.3138 3.12109H7.16646C6.35869 3.12109 5.70162 3.77828 5.70162 4.58593V8.80924C5.70162 9.53158 6.22755 10.1319 6.91638 10.2511V12.1148C4.66615 12.1536 2.84718 13.9983 2.84718 16.2617V41.9135C1.09242 43.4982 0 45.7094 0 48.1547C0 52.9647 4.22166 56.8781 9.41094 56.8781L44.589 56.8678C45.7897 56.8673 46.9189 56.3396 47.6869 55.4201C48.435 54.5251 48.753 53.3625 48.5698 52.2159L55.596 53.4786C55.6933 53.496 55.7929 53.505 55.8917 53.505C56.242 53.505 56.5778 53.3974 56.8621 53.1942C57.2276 52.9331 57.475 52.5289 57.5409 52.0856L57.7313 50.8086C57.7587 50.6257 57.7556 50.4415 57.7222 50.2609C57.6013 49.6079 57.1041 49.0898 56.4554 48.9412L53.9789 48.3731L58.6337 47.518C59.0727 47.4374 59.4536 47.1909 59.7062 46.824C59.9584 46.458 60.0526 46.0158 59.9718 45.5785ZM49.9241 28.5622C50.4532 28.5622 50.9734 28.646 51.4736 28.8111C51.9205 30.1721 51.7532 31.6401 51.0534 32.8527H48.6857L49.4412 32.0955C49.7841 31.7519 49.7834 31.1954 49.4397 30.8525C49.096 30.5096 48.5395 30.5102 48.1968 30.8539L47.7971 31.2545C47.6097 30.6375 47.2825 30.0851 46.8524 29.632C47.7248 28.9393 48.7956 28.5622 49.9241 28.5622ZM44.9676 24.1587C46.5549 24.1587 47.8462 25.4539 47.8462 27.0459C47.8462 27.0754 47.8448 27.1046 47.844 27.1339C46.9175 27.4352 46.0635 27.9385 45.3352 28.622C45.2193 28.5781 45.1018 28.5373 44.9811 28.5039C44.724 27.115 43.788 26.0017 42.5516 25.4818C43.0647 24.6868 43.9551 24.1587 44.9676 24.1587ZM40.3217 19.2629C40.9187 19.2629 41.5053 19.3595 42.0706 19.5505C42.5249 20.9014 42.4321 22.3525 41.8532 23.6095C41.3773 24.043 40.9912 24.5738 40.7273 25.1705C40.5704 25.1797 40.4135 25.197 40.2584 25.224C39.5697 25.3439 38.9275 25.6427 38.3901 26.076C38.2068 25.7409 37.9824 25.4316 37.7253 25.1532L39.7408 23.1331C40.0837 22.7895 40.083 22.233 39.7393 21.8902C39.3957 21.5473 38.8392 21.5479 38.4963 21.8916L36.2934 24.0996C35.8742 23.9014 35.4212 23.7636 34.9451 23.6991C35.1507 22.6503 35.6597 21.6621 36.4469 20.8729C37.4827 19.8347 38.8589 19.2629 40.3217 19.2629ZM33.587 32.8527H32.8251C32.6968 32.5262 32.3796 32.2948 32.0075 32.2948C31.6355 32.2948 31.3182 32.5264 31.1899 32.8527H30.2937C30.5018 32.5138 30.4597 32.0648 30.1659 31.7716C29.8223 31.4287 29.2658 31.4293 28.9229 31.7729L28.0945 32.603C28.0201 32.6775 27.9629 32.7625 27.9209 32.8527H26.132C25.462 31.8246 25.0532 30.6112 25.0048 29.3057H38.9484C38.9 30.6112 38.4911 31.8246 37.8212 32.8527H35.9597C35.9177 32.7625 35.8603 32.6774 35.786 32.6029L34.9577 31.7727C34.6147 31.4293 34.0584 31.4283 33.7148 31.7713C33.4208 32.0645 33.3787 32.5137 33.587 32.8527ZM31.5429 27.5479C31.8742 26.3201 32.9941 25.4142 34.3214 25.4142C35.6488 25.4142 36.7687 26.3203 37.1 27.5479H31.5429ZM33.3402 16.7408C34.1762 17.6443 34.729 18.717 35 19.8446C34.5513 20.3322 34.1785 20.8711 33.8845 21.4445C33.751 21.3627 33.5946 21.3147 33.4267 21.3147H32.2555C31.7701 21.3147 31.3766 21.7082 31.3766 22.1936C31.3766 22.679 31.7701 23.0725 32.2555 23.0725H33.2829C33.2251 23.3152 33.1802 23.5609 33.1476 23.8084C32.7987 23.9 32.4654 24.0305 32.1534 24.1967C31.5676 23.1857 30.5975 22.4323 29.4482 22.1301C29.4478 22.1277 29.4473 22.1252 29.4469 22.1227C29.378 21.725 29.2577 21.3477 29.0938 20.9969L33.3402 16.7408ZM17.4522 24.6716C17.4006 24.5274 17.3616 24.3795 17.3359 24.2312C17.0839 22.7779 18.0636 21.3895 19.5194 21.136C19.6729 21.1093 19.8289 21.0957 19.9829 21.0957C20.5619 21.0957 21.1152 21.2804 21.5829 21.6297C21.7764 21.7743 22.0211 21.8328 22.2592 21.7916C22.4973 21.7502 22.7079 21.6127 22.8415 21.4113C23.2541 20.7889 23.8854 20.3759 24.619 20.2482C24.7729 20.2214 24.9292 20.2079 25.0835 20.2079C26.3857 20.2079 27.4924 21.1395 27.7149 22.4233C27.7404 22.5704 27.7535 22.7237 27.7538 22.8789C27.7546 23.3339 28.1025 23.7131 28.5558 23.7529C29.5384 23.8393 30.3749 24.4577 30.7627 25.3289C30.2435 25.9519 29.8836 26.7127 29.747 27.5479H24.7347C24.1115 27.5479 23.5767 27.9326 23.3537 28.4771C22.251 27.726 20.9514 27.3214 19.5895 27.3214C18.7362 27.3214 17.9003 27.4821 17.1044 27.7989C16.9694 27.8528 16.8487 27.9324 16.7458 28.0353C16.6415 28.1396 16.5615 28.2618 16.509 28.3959C16.3067 28.906 16.1718 29.4304 16.0989 29.9581C15.7839 29.5995 15.562 29.1536 15.4753 28.6532C15.2685 27.4607 15.8928 26.2734 16.9928 25.7657C17.4063 25.5749 17.6056 25.1001 17.4522 24.6716ZM20.0723 32.6124L20.312 32.8527H18.2011C17.7272 31.7533 17.6553 30.5018 18.04 29.3281C18.5409 29.1627 19.0608 29.0791 19.5895 29.0791C20.9138 29.0791 22.1596 29.5967 23.0972 30.5364C23.2219 30.6615 23.338 30.7925 23.4471 30.9278C23.5961 31.6021 23.8249 32.2463 24.1198 32.8526H22.7952L21.3167 31.3707C20.9737 31.0272 20.4171 31.0263 20.0738 31.3693C19.7301 31.7123 19.7294 32.2688 20.0723 32.6124ZM16.3293 32.8527H13.1961C13.3358 32.0014 13.8479 31.2756 14.5587 30.8477C14.9796 31.4115 15.5288 31.8673 16.1616 32.1761C16.2064 32.4041 16.2613 32.6302 16.3293 32.8527ZM7.45942 4.8789H14.0208V8.51627H7.45942V4.8789ZM12.8061 10.2741V12.1131H8.6743V10.2741H12.8061ZM4.6051 19.8261H10.3125C10.798 19.8261 11.1914 19.4326 11.1914 18.9472C11.1914 18.4618 10.798 18.0683 10.3125 18.0683H4.6051V16.2617C4.6051 14.9434 5.67431 13.8709 6.98857 13.8709H14.4918C15.8062 13.8709 16.8754 14.9434 16.8754 16.2617V18.0683H15.2343C14.7488 18.0683 14.3554 18.4618 14.3554 18.9472C14.3554 19.4326 14.7488 19.8261 15.2343 19.8261H16.8754V20.6062C15.8684 21.5935 15.3454 23.0414 15.6037 24.5307C15.6042 24.5336 15.6047 24.5367 15.6052 24.5397C14.1952 25.5071 13.4439 27.2269 13.7431 28.9535C13.7606 29.0542 13.7825 29.1534 13.8064 29.2515C13.3673 29.4936 12.973 29.8062 12.635 30.1721H4.6051V19.8261ZM4.60498 31.9298H11.6144C11.5211 32.226 11.4553 32.5343 11.4232 32.8527H11.275C10.4661 32.8527 9.80785 33.5114 9.80785 34.3211C9.80785 35.7167 9.93758 37.0867 10.1889 38.4271C9.93641 38.4068 9.67742 38.3959 9.41399 38.3959C8.3511 38.3959 7.33837 38.5645 6.56271 38.8709C5.37619 39.3394 5.04818 40.0047 4.97658 40.465C4.85084 40.5275 4.72733 40.5936 4.60498 40.6613V31.9298ZM15.7344 42.7268C16.0509 42.98 16.2444 43.1953 16.3565 43.3506C16.346 43.3507 16.3349 43.3508 16.3238 43.3508C15.8263 43.3508 14.9326 43.1503 13.9162 42.5877C13.5378 42.378 13.1892 42.1412 12.9079 41.903C12.58 41.6251 12.0992 41.6254 11.7716 41.9031C11.4903 42.1416 11.1418 42.3783 10.7637 42.5875C9.74715 43.1503 8.85336 43.3508 8.35602 43.3508C8.34466 43.3508 8.33376 43.3507 8.32309 43.3506C8.43512 43.1953 8.6286 42.9799 8.94524 42.7266C9.22192 42.5051 9.33852 42.139 9.2409 41.7983C9.14317 41.4575 8.85043 41.2088 8.49829 41.1675C7.64059 41.067 7.09825 40.8486 6.84431 40.6897C7.16247 40.4916 7.96684 40.1537 9.41434 40.1537C10.6132 40.1537 11.4894 40.4058 11.9096 40.6418C12.1769 40.7918 12.5028 40.7918 12.7701 40.6419C13.1906 40.4059 14.0669 40.1538 15.2657 40.1538C16.7133 40.1538 17.5176 40.4918 17.8356 40.6898C17.5818 40.8489 17.0393 41.0671 16.1814 41.1676C15.8293 41.209 15.5364 41.4577 15.4388 41.7986C15.3408 42.1393 15.4574 42.5054 15.7344 42.7268ZM13.9762 53.4243L14.0064 53.5872C14.111 54.1517 14.3314 54.6698 14.6394 55.1203H9.41094C5.19103 55.1203 1.75781 51.9956 1.75781 48.1547C1.75781 45.5298 3.36186 43.2404 5.72388 42.0533C5.99517 42.2558 6.33337 42.4304 6.73462 42.5713C6.57548 42.843 6.46462 43.1353 6.43849 43.4401C6.4038 43.8453 6.52779 44.2302 6.78794 44.5239C7.13165 44.912 7.65923 45.1087 8.35602 45.1087C9.28461 45.1087 10.503 44.7411 11.6151 44.1254C11.8712 43.9837 12.1133 43.8341 12.3399 43.6778C12.5664 43.834 12.8085 43.9836 13.0647 44.1255C14.1768 44.7411 15.3952 45.1086 16.3238 45.1087H16.3239C17.0205 45.1087 17.5481 44.912 17.8916 44.524C18.1519 44.2303 18.276 43.8455 18.2412 43.4401C18.2151 43.1353 18.1042 42.843 17.9451 42.5713C18.3463 42.4303 18.6847 42.2557 18.9559 42.0533C20.8292 42.9948 22.225 44.6297 22.7227 46.5753L16.5065 48.9368C14.6869 49.6282 13.6228 51.5154 13.9762 53.4243ZM46.3379 54.2932C45.9045 54.8121 45.2667 55.1097 44.5881 55.11L43.6656 55.1103L43.0893 51.9984C43.0008 51.5211 42.5425 51.2055 42.065 51.2942C41.5878 51.3826 41.2725 51.8411 41.3608 52.3184L41.8781 55.1109L38.8539 55.1121L38.4643 53.0077C38.3758 52.5304 37.9174 52.2152 37.44 52.3036C36.9628 52.3919 36.6474 52.8505 36.7358 53.3278L37.0663 55.1128L30.0321 55.1155L29.5027 52.2575C29.4141 51.7802 28.9559 51.465 28.4783 51.5534C28.001 51.6418 27.6858 52.1005 27.7741 52.5778L28.2444 55.1162L17.9737 55.1201C17.9734 55.1201 17.9732 55.1201 17.973 55.1201C16.8747 55.1201 15.9335 54.3409 15.7345 53.2667L15.7042 53.1038C15.5056 52.0309 16.1054 50.9695 17.1304 50.58L20.5847 49.2677L20.8421 50.6566C20.9205 51.0798 21.2898 51.3755 21.7051 51.3755C21.7584 51.3755 21.8123 51.3706 21.8664 51.3607C22.3436 51.2722 22.6588 50.8136 22.5703 50.3363L22.2548 48.6333L27.3823 46.6854C27.836 46.513 28.0642 46.0053 27.8918 45.5516C27.7194 45.0977 27.2112 44.8697 26.7581 45.0421L24.3721 45.9485C23.7027 43.5786 21.9831 41.599 19.7028 40.4649C19.6312 40.0045 19.3032 39.3393 18.1168 38.8708C17.3411 38.5644 16.3284 38.3958 15.2655 38.3958C14.534 38.3958 13.8355 38.4765 13.2188 38.6236V38.0928C13.2188 37.6074 12.8254 37.2138 12.3399 37.2138C12.1347 37.2138 11.9465 37.2846 11.7969 37.4025C11.6582 36.4858 11.5807 35.5546 11.5678 34.6103H40.1952C40.6807 34.6103 41.0741 34.2168 41.0741 33.7314C41.0741 33.246 40.6807 32.8525 40.1952 32.8525H39.8355C40.3952 31.6998 40.7114 30.4075 40.7114 29.0417C40.7114 28.2663 40.118 27.6275 39.362 27.5549C39.6911 27.2445 40.102 27.0352 40.56 26.9554C40.6941 26.9321 40.8303 26.9203 40.9648 26.9203C42.0996 26.9203 43.0638 27.732 43.2575 28.8502C43.2799 28.9797 43.2914 29.1133 43.2915 29.2475C43.2921 29.7026 43.6401 30.0821 44.0935 30.1219C45.1438 30.2142 46.0032 31.0041 46.1833 32.0429C46.2311 32.3191 46.2251 32.5916 46.1772 32.8525H45.2342C44.7487 32.8525 44.3553 33.246 44.3553 33.7314C44.3553 34.2168 44.7487 34.6103 45.2342 34.6103H52.0653C52.0435 36.2226 51.8358 37.7974 51.4485 39.3254L46.6853 42.1372C46.394 41.1233 45.7169 40.2633 44.784 39.7411C43.7376 39.1555 42.4941 39.064 41.3727 39.49L31.5628 43.2168C31.1089 43.3891 30.8809 43.8968 31.0533 44.3505C31.2257 44.8044 31.7338 45.0322 32.1869 44.8601L33.4793 44.3692L33.8805 46.5356C33.9589 46.9588 34.3283 47.2547 34.7437 47.2547C34.7968 47.2547 34.8507 47.2497 34.9049 47.2398C35.382 47.1514 35.6974 46.6929 35.609 46.2156L35.1495 43.7347L41.9967 41.1335C42.6311 40.8926 43.334 40.9443 43.9255 41.2753C44.5158 41.6057 44.9248 42.1752 45.0476 42.8375L46.8257 52.4369C46.9483 53.0989 46.7705 53.7754 46.3379 54.2932ZM49.4738 47.4136C49.0638 47.4889 48.7632 47.8419 48.7539 48.2587C48.7448 48.6756 49.0298 49.0414 49.4361 49.1346L55.9798 50.6355L55.8163 51.7323L48.2303 50.369L47.0445 43.9666L53.652 40.0662L54.2024 41.0408L48.6292 44.7663C48.2827 44.998 48.1465 45.4412 48.3033 45.8274C48.46 46.2137 48.8666 46.4368 49.2766 46.3615L58.0311 44.7533L58.2261 45.8056L49.4738 47.4136Z" fill="#CD1E19"/>
</svg>
