<svg width="60" height="60" viewBox="0 0 60 60" fill="none" xmlns="http://www.w3.org/2000/svg">
<g clip-path="url(#clip0)">
<path d="M22.0492 9.09083C24.2048 8.49926 26.4379 8.19937 28.6865 8.19937C33.5956 8.19937 38.3492 9.62181 42.4335 12.313C42.5825 12.4112 42.7503 12.458 42.9163 12.458C43.202 12.458 43.4821 12.3189 43.6511 12.0625C43.9182 11.6572 43.806 11.1121 43.4008 10.845C39.0285 7.96417 33.9403 6.44141 28.6865 6.44141C26.2808 6.44141 23.8911 6.76251 21.584 7.39568C21.1159 7.52412 20.8405 8.00776 20.9691 8.47582C21.0975 8.94387 21.58 9.21939 22.0492 9.09083Z" fill="#CD1E19"/>
<path d="M54.3933 29.9323C53.9099 29.977 53.5542 30.4051 53.599 30.8883C53.6714 31.6729 53.7082 32.4582 53.7082 33.2225C53.7082 35.6529 53.3585 38.0029 52.7092 40.2265H46.6164C46.1309 40.2265 45.7374 40.62 45.7374 41.1054C45.7374 41.5908 46.1309 41.9843 46.6164 41.9843H52.1237C51.4169 43.8686 50.4897 45.6457 49.3727 47.2839H42.0482C41.2087 47.2839 40.5257 46.6008 40.5257 45.7612C40.5257 45.0135 39.9175 44.4052 39.1697 44.4052H38.2113C37.5439 44.4052 37.0008 43.8622 37.0008 43.1948C37.0008 42.5274 37.5439 41.9843 38.2113 41.9843H42.8708C43.3563 41.9843 43.7497 41.5908 43.7497 41.1054C43.7497 40.62 43.3563 40.2265 42.8708 40.2265H38.2113C36.5745 40.2265 35.243 41.5581 35.243 43.1948C35.243 44.8314 36.5745 46.1631 38.2113 46.1631H38.7923C38.991 47.7831 40.3754 49.0417 42.0482 49.0417H48.0579C43.4657 54.6545 36.488 58.2435 28.6873 58.2435C24.448 58.2435 20.4524 57.1824 16.9498 55.3139H20.4424C22.4024 55.3139 24.0208 53.8239 24.2245 51.9171H27.252C28.9062 51.9171 30.2521 50.5711 30.2521 48.9168C30.2521 47.2624 28.9063 45.9165 27.252 45.9165H25.3226C24.837 45.9165 24.4436 46.31 24.4436 46.7954C24.4436 47.2808 24.837 47.6743 25.3226 47.6743H27.252C27.9369 47.6743 28.4943 48.2317 28.4943 48.9168C28.4943 49.6019 27.9369 50.1592 27.252 50.1592H23.8392C23.0943 50.1592 22.4883 50.7652 22.4883 51.5101C22.4883 52.6381 21.5705 53.556 20.4424 53.556H14.1233C11.8636 51.9328 9.88377 49.9434 8.27277 47.6743H9.19235C9.67787 47.6743 10.0713 47.2808 10.0713 46.7954C10.0713 46.31 9.67787 45.9165 9.19235 45.9165H7.13357C4.98173 42.2768 3.72581 38.0484 3.67015 33.5355H4.29946C5.72296 33.5355 7.03349 32.758 7.72209 31.5297H10.4893C12.0669 31.5297 13.3504 30.2463 13.3504 28.6687C13.3504 27.0911 12.0669 25.8076 10.4893 25.8076H4.78263C5.14345 24.6432 5.59053 23.5062 6.12058 22.4038H17.0169C18.7355 22.4038 20.1338 21.0055 20.1338 19.2869C20.1338 17.5682 18.7355 16.1699 17.0169 16.1699H15.5548C15.0693 16.1699 14.6759 16.5634 14.6759 17.0488C14.6759 17.5342 15.0693 17.9278 15.5548 17.9278H17.0169C17.7663 17.9278 18.3759 18.5375 18.3759 19.2869C18.3759 20.0364 17.7663 20.646 17.0169 20.646H7.05329C7.36678 20.1084 7.70112 19.5807 8.05632 19.0642C8.33136 18.6642 8.23011 18.1169 7.83014 17.8419C7.42994 17.5668 6.8829 17.6682 6.60786 18.0682C3.53339 22.5393 1.9082 27.7795 1.9082 33.2223C1.9082 40.3752 4.6938 47.0999 9.75158 52.1578C14.8095 57.2157 21.5342 60.0012 28.6871 60.0012C35.84 60.0012 42.5647 57.2157 47.6226 52.1578C52.6803 47.0999 55.4659 40.3752 55.4659 33.2223C55.4659 32.4043 55.4267 31.5645 55.3492 30.7264C55.3046 30.2433 54.8761 29.8872 54.3933 29.9323ZM10.4894 27.5656C11.0977 27.5656 11.5926 28.0604 11.5926 28.6688C11.5926 29.2771 11.0977 29.772 10.4894 29.772H7.17201C6.82782 29.772 6.51539 29.9727 6.37254 30.2858L6.26941 30.5117C5.91819 31.2808 5.14498 31.7779 4.29946 31.7779H3.7073C3.78851 30.3507 3.99019 28.9426 4.30824 27.5658H10.4894V27.5656Z" fill="#CD1E19"/>
<path d="M56.7973 16.1727C56.5411 15.7603 55.999 15.634 55.5869 15.89C55.1745 16.1462 55.048 16.6881 55.3043 17.1005C55.9781 18.1848 56.3343 19.4357 56.3343 20.7179C56.3343 23.6965 54.4326 26.3192 51.6023 27.2442C51.4385 27.2977 51.2939 27.3983 51.1868 27.5333L49.6731 29.4409C49.6046 29.5271 49.5151 29.54 49.4679 29.54C49.4207 29.54 49.331 29.5271 49.2626 29.4409L47.7488 27.5333C47.6417 27.3983 47.4972 27.2977 47.3334 27.2442C44.446 26.3004 42.5018 23.5178 42.6056 20.4771C42.7264 16.9297 45.5971 14.0227 49.141 13.859C50.4646 13.798 51.7628 14.113 52.8992 14.7702C53.3196 15.0131 53.8571 14.8695 54.1 14.4493C54.3431 14.0292 54.1994 13.4915 53.7793 13.2485C52.3509 12.4226 50.7193 12.0266 49.0599 12.103C44.6074 12.3087 41.0007 15.9607 40.8487 20.4172C40.7217 24.1445 43.0464 27.5636 46.5312 28.8267L47.8856 30.5334C48.2711 31.0192 48.8478 31.2977 49.468 31.2976C50.088 31.2976 50.6647 31.0191 51.0501 30.5333L52.4043 28.8268C55.8178 27.5934 58.0921 24.3683 58.0921 20.7176C58.0921 19.1076 57.6443 17.5358 56.7973 16.1727Z" fill="#CD1E19"/>
<path d="M49.4683 16.2871C47.0255 16.2871 45.0381 18.2744 45.0381 20.7172C45.0381 23.16 47.0255 25.1473 49.4683 25.1473C51.9111 25.1473 53.8984 23.16 53.8984 20.7172C53.8984 18.2744 51.9111 16.2871 49.4683 16.2871ZM49.4683 23.3896C47.9948 23.3896 46.7959 22.1909 46.7959 20.7173C46.7959 19.2438 47.9947 18.0451 49.4683 18.0451C50.9417 18.0451 52.1406 19.2438 52.1406 20.7173C52.1406 22.1909 50.9417 23.3896 49.4683 23.3896Z" fill="#CD1E19"/>
<path d="M18.7865 32.6338C18.1607 32.5082 17.5215 32.4594 16.8868 32.4887C12.8821 32.6738 9.63817 35.9584 9.50153 39.9666C9.38762 43.3097 11.4662 46.3767 14.586 47.5204L15.7714 49.0141C16.1325 49.4691 16.6726 49.7301 17.2534 49.7301C17.8343 49.7301 18.3744 49.4691 18.7355 49.0142L19.9206 47.5206C22.9759 46.4042 25.0098 43.5108 25.0098 40.2369C25.0098 38.0981 24.1124 36.0327 22.5474 34.5702C22.1926 34.2387 21.6365 34.2577 21.3051 34.6122C20.9737 34.9668 20.9924 35.523 21.347 35.8545C22.5753 37.0024 23.2518 38.5589 23.2518 40.2369C23.2518 42.8391 21.5906 45.1304 19.118 45.9386C18.9543 45.9921 18.8097 46.0927 18.7025 46.2277L17.3584 47.9217C17.3048 47.9888 17.2017 47.9892 17.1481 47.9217L15.8039 46.2278C15.6968 46.0928 15.5523 45.9922 15.3884 45.9387C12.866 45.1143 11.1675 42.6832 11.2582 40.0267C11.3637 36.9276 13.8716 34.388 16.9676 34.245C17.4595 34.2223 17.9549 34.2603 18.4403 34.3577C18.9163 34.4527 19.3796 34.1447 19.4749 33.6688C19.5703 33.1929 19.2625 32.7294 18.7865 32.6338Z" fill="#CD1E19"/>
<path d="M13.2207 40.2354C13.2207 42.4588 15.0296 44.2677 17.253 44.2677C19.4763 44.2677 21.2852 42.4587 21.2852 40.2354C21.2852 38.0121 19.4763 36.2031 17.253 36.2031C15.0296 36.2031 13.2207 38.012 13.2207 40.2354ZM19.5275 40.2354C19.5275 41.4896 18.5072 42.5098 17.2531 42.5098C15.9989 42.5098 14.9787 41.4894 14.9787 40.2354C14.9787 38.9813 15.9989 37.961 17.2531 37.961C18.5072 37.961 19.5275 38.9812 19.5275 40.2354Z" fill="#CD1E19"/>
<path d="M8.36664 15.6264L9.61037 17.1938C9.97987 17.6594 10.5327 17.9265 11.1272 17.9265C11.7215 17.9265 12.2743 17.6594 12.6438 17.1938L13.8874 15.6265C17.0668 14.4695 19.1839 11.4614 19.1839 8.05703C19.1839 5.83429 18.2983 3.76473 16.6904 2.22919C15.0835 0.694593 12.9696 -0.0938583 10.7463 0.00891695C6.58653 0.201108 3.21698 3.61297 3.07495 7.77636C2.95647 11.2524 5.12037 14.4414 8.36664 15.6264ZM4.83185 7.83624C4.94271 4.58201 7.57631 1.91524 10.8273 1.765C10.9284 1.76031 11.029 1.75797 11.1294 1.75797C12.759 1.75797 14.293 2.37052 15.4766 3.5007C16.734 4.7013 17.4263 6.31946 17.4263 8.05714C17.4263 10.7895 15.6817 13.1957 13.0853 14.0442C12.9216 14.0978 12.777 14.1983 12.6698 14.3333L11.267 16.1012C11.2227 16.1571 11.1665 16.1687 11.1273 16.1687C11.0879 16.1687 11.0318 16.1569 10.9875 16.1012L9.58459 14.3333C9.47748 14.1983 9.33299 14.0978 9.16915 14.0442C6.52032 13.1786 4.73681 10.6257 4.83185 7.83624Z" fill="#CD1E19"/>
<path d="M11.127 12.2267C13.4264 12.2267 15.2971 10.3561 15.2971 8.05667C15.2971 5.7573 13.4264 3.88672 11.127 3.88672C8.82773 3.88672 6.95703 5.75742 6.95703 8.05667C6.95703 10.3562 8.82773 12.2267 11.127 12.2267ZM11.127 5.64456C12.4571 5.64456 13.5392 6.72669 13.5392 8.05667C13.5392 9.38678 12.4571 10.4689 11.127 10.4689C9.79689 10.4689 8.71488 9.38678 8.71488 8.05667C8.71488 6.72669 9.79689 5.64456 11.127 5.64456Z" fill="#CD1E19"/>
<path d="M29.4412 20.5196H38.7795C39.265 20.5196 39.6584 20.126 39.6584 19.6406C39.6584 19.1552 39.265 18.7617 38.7795 18.7617H29.4412C27.6806 18.7617 26.248 20.1942 26.248 21.955C26.248 23.7158 27.6806 25.1483 29.4412 25.1483H32.9698C33.2257 27.1888 34.9613 28.745 37.0503 28.745H41.7234C42.2089 28.745 42.6023 28.3515 42.6023 27.8661C42.6023 27.3807 42.2089 26.9871 41.7234 26.9871H37.0505C35.7939 26.9871 34.7608 26.004 34.6983 24.7492C34.6606 23.9873 34.0334 23.3905 33.2705 23.3905H29.4412C28.6497 23.3905 28.0059 22.7465 28.0059 21.955C28.0059 21.1635 28.6498 20.5196 29.4412 20.5196Z" fill="#CD1E19"/>
</g>
<defs>
<clipPath id="clip0">
<rect width="60" height="60" fill="white"/>
</clipPath>
</defs>
</svg>
