<svg width="60" height="60" viewBox="0 0 60 60" fill="none" xmlns="http://www.w3.org/2000/svg">
<path d="M52.5 45.9375H39.375C37.1119 45.9375 35.2181 47.5509 34.7822 49.6875H23.4375V44.0625H25.3125V38.4375H23.4375V28.8563L32.8387 26.5059C32.97 27.9356 34.1616 29.0625 35.625 29.0625C36.3478 29.0625 37.0013 28.7803 37.5 28.3312V34.6875H39.375V40.3125H42.1875V44.0625H44.0625V40.3125H46.875V34.6875H54.375V28.3312C54.8737 28.7812 55.5272 29.0625 56.25 29.0625C57.8006 29.0625 59.0625 27.8006 59.0625 26.25C59.0625 24.6994 57.8006 23.4375 56.25 23.4375C55.5272 23.4375 54.8737 23.7197 54.375 24.1688V14.0625H50.625V12.1875H52.5V9.375C52.5 7.82438 51.2381 6.5625 49.6875 6.5625H42.1875C40.6369 6.5625 39.375 7.82438 39.375 9.375V12.1875H41.25V14.0625H37.5V15.3L23.4375 19.3762V15.9375H21.5625V12.1875H23.4375C24.4716 12.1875 25.3125 11.3466 25.3125 10.3125V8.4375C25.3125 7.40344 24.4716 6.5625 23.4375 6.5625H21.5625V3.75C21.5625 2.19937 20.3006 0.9375 18.75 0.9375H16.875C15.3244 0.9375 14.0625 2.19937 14.0625 3.75V6.5625H12.1875C11.1534 6.5625 10.3125 7.40344 10.3125 8.4375V10.3125C10.3125 11.3466 11.1534 12.1875 12.1875 12.1875H14.0625V15.9375H12.1875V38.4375H10.3125V40.3125H6.39C6.10687 39.5184 5.48156 38.8931 4.6875 38.61V34.6875H2.8125V38.61C1.72406 38.9981 0.9375 40.0294 0.9375 41.25C0.9375 42.4706 1.72406 43.5019 2.8125 43.89V47.8125H4.6875V43.89C5.48156 43.6069 6.10687 42.9816 6.39 42.1875H10.3125V44.0625H12.1875V49.6875H8.4375V55.3125H12.3928L13.3303 59.0625H22.2947L23.2322 55.3125H44.2678L45.2053 59.0625H54.1697L55.1072 55.3125H59.0625V49.6875H57.0928C56.6569 47.5509 54.7631 45.9375 52.5 45.9375ZM3.75 42.1875C3.23344 42.1875 2.8125 41.7675 2.8125 41.25C2.8125 40.7325 3.23344 40.3125 3.75 40.3125C4.26656 40.3125 4.6875 40.7325 4.6875 41.25C4.6875 41.7675 4.26656 42.1875 3.75 42.1875ZM39.375 47.8125H52.5C53.7206 47.8125 54.7519 48.5991 55.14 49.6875H36.735C37.1231 48.5991 38.1544 47.8125 39.375 47.8125ZM35.625 27.1875C35.1084 27.1875 34.6875 26.7675 34.6875 26.25C34.6875 25.7325 35.1084 25.3125 35.625 25.3125C36.1416 25.3125 36.5625 25.7325 36.5625 26.25C36.5625 26.7675 36.1416 27.1875 35.625 27.1875ZM45 38.4375H41.25V34.6875H45V38.4375ZM39.375 32.8125V27.1875H41.3447C41.7806 29.3241 43.6734 30.9375 45.9375 30.9375C48.2016 30.9375 50.0944 29.3241 50.5303 27.1875H52.5V32.8125H39.375ZM43.125 26.25C43.125 24.6994 44.3869 23.4375 45.9375 23.4375C47.4881 23.4375 48.75 24.6994 48.75 26.25C48.75 27.8006 47.4881 29.0625 45.9375 29.0625C44.3869 29.0625 43.125 27.8006 43.125 26.25ZM56.25 25.3125C56.7666 25.3125 57.1875 25.7325 57.1875 26.25C57.1875 26.7675 56.7666 27.1875 56.25 27.1875C55.7334 27.1875 55.3125 26.7675 55.3125 26.25C55.3125 25.7325 55.7334 25.3125 56.25 25.3125ZM41.25 9.375C41.25 8.8575 41.6709 8.4375 42.1875 8.4375H49.6875C50.2041 8.4375 50.625 8.8575 50.625 9.375V10.3125H41.25V9.375ZM43.125 12.1875H48.75V14.0625H43.125V12.1875ZM52.5 15.9375V25.3125H50.5303C50.0944 23.1759 48.2016 21.5625 45.9375 21.5625C43.6734 21.5625 41.7806 23.1759 41.3447 25.3125H39.375V15.9375H52.5ZM37.5 17.2537V24.1697C37.0013 23.7197 36.3478 23.4384 35.625 23.4384C34.7841 23.4384 34.0359 23.8172 33.5203 24.405L23.4375 26.925V21.33L37.5 17.2537ZM15.9375 3.75C15.9375 3.2325 16.3584 2.8125 16.875 2.8125H18.75C19.2666 2.8125 19.6875 3.2325 19.6875 3.75V6.5625H15.9375V3.75ZM12.1875 8.4375H23.4375L23.4384 10.3125H12.1875V8.4375ZM15.9375 12.1875H19.6875V15.9375H15.9375V12.1875ZM14.0625 17.8125H21.5625V38.4375H14.0625V17.8125ZM12.1875 40.3125H23.4375V42.1875H12.1875V40.3125ZM14.0625 44.0625H21.5625V49.6875H14.0625V44.0625ZM20.8303 57.1875H14.7947L14.3259 55.3125H21.2991L20.8303 57.1875ZM52.7053 57.1875H46.6697L46.2009 55.3125H53.1741L52.7053 57.1875ZM57.1875 53.4375H10.3125V51.5625H57.1875V53.4375Z" fill="#CD1E19"/>
<path d="M45.9375 27.1875C46.4553 27.1875 46.875 26.7678 46.875 26.25C46.875 25.7322 46.4553 25.3125 45.9375 25.3125C45.4197 25.3125 45 25.7322 45 26.25C45 26.7678 45.4197 27.1875 45.9375 27.1875Z" fill="#CD1E19"/>
<path d="M43.125 17.8125H41.25V19.6875H43.125V17.8125Z" fill="#CD1E19"/>
<path d="M46.875 17.8125H45V19.6875H46.875V17.8125Z" fill="#CD1E19"/>
<path d="M50.625 17.8125H48.75V19.6875H50.625V17.8125Z" fill="#CD1E19"/>
</svg>
