<svg width="60" height="60" viewBox="0 0 60 60" fill="none" xmlns="http://www.w3.org/2000/svg">
<g clip-path="url(#clip0)">
<path d="M59.9937 44.8096C59.9221 42.6617 59.2417 40.6231 58.0262 38.9143C56.7141 37.0701 54.8328 35.7128 52.5856 34.9891L46.5687 33.0514C45.9528 32.8532 45.2924 33.1916 45.094 33.8076C44.8956 34.4237 45.2342 35.0839 45.8502 35.2823L51.8672 37.22C55.9877 38.5469 57.5567 42.0509 57.6512 44.8877C57.7457 47.7245 56.4133 51.3251 52.3902 52.9233L41.3105 57.3248C39.2108 58.1592 37.4574 57.2331 36.5169 56.0881C35.5764 54.9432 35.0084 53.0437 36.2346 51.1457C38.7567 47.2417 38.9805 42.2603 36.8186 38.1457L34.9803 34.6471C36.1142 33.4323 36.8102 31.8038 36.8102 30.0148C36.8102 28.9016 36.5395 27.8513 36.063 26.923L39.2357 25.2559C42.6025 23.4869 46.679 23.6699 49.8737 25.7339C52.3106 27.3081 55.3339 27.1356 57.5757 25.294C59.8175 23.4526 60.5739 20.5204 59.5028 17.8241L55.1013 6.74441C54.2297 4.55032 52.7502 2.76357 50.8227 1.57717C49.0368 0.47796 46.9583 -0.0654351 44.8095 0.00628322C42.6616 0.0778844 40.623 0.758271 38.9142 1.97385C37.07 3.28587 35.7126 5.16719 34.989 7.41436L29.8983 23.2224C28.8333 23.2404 27.8278 23.5045 26.9352 23.9603L25.2558 20.7642C23.4868 17.3972 23.6698 13.3209 25.7338 10.1262C27.3081 7.68929 27.1354 4.6661 25.2939 2.4242C23.4525 0.182063 20.5204 -0.574378 17.8242 0.49671L6.74439 4.89825C4.5503 5.76988 2.76355 7.24937 1.57715 9.17685C0.477942 10.9628 -0.0653361 13.0421 0.00626501 15.1901C0.0778662 17.338 0.758253 19.3766 1.97383 21.0854C3.28586 22.9295 5.16717 24.2869 7.41435 25.0105L15.2204 27.5243C15.3398 27.5628 15.4609 27.581 15.5799 27.581C16.075 27.581 16.5351 27.2646 16.6951 26.768C16.8935 26.152 16.5549 25.4917 15.9389 25.2933L8.13282 22.7797C4.0123 21.4528 2.44328 17.9488 2.34883 15.112C2.25426 12.2753 3.58667 8.67459 7.60981 7.0764L18.6895 2.67486C20.7895 1.84084 22.5427 2.76674 23.4831 3.91153C24.4235 5.05633 24.9915 6.95593 23.7654 8.854C21.2433 12.758 21.0195 17.7393 23.1814 21.854L25.0403 25.392C23.9117 26.6057 23.2194 28.2305 23.2194 30.0147C23.2194 31.1135 23.4832 32.1512 23.9482 33.0707L20.764 34.7437C17.3973 36.5128 13.3208 36.3297 10.126 34.2657C7.68915 32.6914 4.66585 32.8642 2.42406 34.7057C0.18228 36.5472 -0.574161 39.4794 0.496926 42.1757L4.89846 53.2554C5.7701 55.4495 7.24958 57.2362 9.17707 58.4226C10.8588 59.4577 12.8006 59.9997 14.815 59.9997C14.9398 59.9997 15.065 59.9976 15.1904 59.9935C17.3383 59.9219 19.3769 59.2415 21.0857 58.0259C22.9299 56.7139 24.2873 54.8326 25.0109 52.5854L30.0916 36.8082C31.1668 36.7963 32.1824 36.5331 33.0833 36.075L34.7441 39.2357C36.5131 42.6028 36.3301 46.679 34.2661 49.8737C32.6918 52.3106 32.8645 55.3339 34.706 57.5757C35.9922 59.1416 37.8103 59.9827 39.7087 59.9827C40.5282 59.9827 41.3629 59.8259 42.1759 59.503L53.2556 55.1014C55.4497 54.2298 57.2364 52.7503 58.4228 50.8228C59.522 49.037 60.0653 46.9575 59.9937 44.8096ZM22.7799 51.867C21.453 55.9875 17.949 57.5565 15.1122 57.6509C12.2755 57.7447 8.67481 56.4131 7.07661 52.39L2.67508 41.3103C1.84082 39.2103 2.76695 37.4572 3.91175 36.5167C5.05667 35.5764 6.95626 35.0083 8.85422 36.2344C12.7582 38.7564 17.7394 38.9803 21.8542 36.8184L25.3721 34.97C26.0508 35.6063 26.8593 36.1051 27.7538 36.4217L22.7799 51.867ZM30.0149 34.4665C27.5602 34.4665 25.5632 32.4694 25.5632 30.0148C25.5632 27.5602 27.5603 25.5631 30.0149 25.5631C32.4695 25.5631 34.4666 27.5602 34.4666 30.0148C34.4666 32.4694 32.4696 34.4665 30.0149 34.4665ZM34.627 25.03C33.9457 24.3992 33.1354 23.9068 32.2406 23.5955L37.2201 8.1326C38.547 4.01208 42.051 2.44307 44.8878 2.34861C47.7246 2.25334 51.3252 3.58646 52.9234 7.6096L57.3249 18.6893C58.1592 20.7892 57.233 22.5424 56.0882 23.4829C54.9434 24.4233 53.0438 24.9913 51.1458 23.7652C47.2418 21.243 42.2605 21.0193 38.1458 23.1811L34.627 25.03Z" fill="#CD1E19"/>
<path d="M41.2523 31.4762C41.0344 31.2582 40.732 31.1328 40.4238 31.1328C40.1156 31.1328 39.8133 31.2582 39.5953 31.4762C39.3773 31.6941 39.252 31.9965 39.252 32.3047C39.252 32.6129 39.3773 32.9152 39.5953 33.1332C39.8133 33.3512 40.1156 33.4765 40.4238 33.4765C40.732 33.4765 41.0344 33.3512 41.2523 33.1332C41.4703 32.9152 41.5957 32.6129 41.5957 32.3047C41.5957 31.9965 41.4703 31.6941 41.2523 31.4762Z" fill="#CD1E19"/>
<path d="M20.934 27.0387C20.7148 26.8207 20.4137 26.6953 20.1055 26.6953C19.7961 26.6953 19.4949 26.8207 19.277 27.0387C19.0578 27.2566 18.9336 27.559 18.9336 27.8672C18.9336 28.1766 19.0578 28.4789 19.277 28.6969C19.4949 28.9148 19.7961 29.039 20.1055 29.039C20.4137 29.039 20.716 28.9148 20.934 28.6969C21.1519 28.4777 21.2773 28.1766 21.2773 27.8672C21.2773 27.559 21.1519 27.2578 20.934 27.0387Z" fill="#CD1E19"/>
</g>
<defs>
<clipPath id="clip0">
<rect width="60" height="60" fill="white"/>
</clipPath>
</defs>
</svg>
