<svg width="30" height="30" viewBox="0 0 30 30" fill="none" xmlns="http://www.w3.org/2000/svg">
<path fill-rule="evenodd" clip-rule="evenodd" d="M24.846 5.86829C24.8458 5.86188 24.8455 5.85547 24.8451 5.84906C24.8433 5.82366 24.8407 5.79871 24.8357 5.77399C24.8357 5.77399 24.8357 5.77399 24.8357 5.77376C24.8307 5.74904 24.8236 5.72455 24.8156 5.70075C24.8135 5.6948 24.8114 5.68885 24.8092 5.6829C24.8007 5.66024 24.7911 5.63804 24.7801 5.61652C24.7794 5.61538 24.7789 5.61423 24.7783 5.61309C24.7663 5.59066 24.7526 5.56937 24.7377 5.54854C24.7341 5.54328 24.7302 5.53824 24.7263 5.53298C24.7105 5.51238 24.694 5.49247 24.6755 5.47393L19.3732 0.171661C19.3547 0.153122 19.3348 0.136642 19.3142 0.120849C19.3089 0.116958 19.3036 0.112839 19.2984 0.109176C19.2775 0.0942991 19.2565 0.0805662 19.2343 0.0688933C19.2327 0.0679778 19.2311 0.06752 19.2297 0.0666045C19.2087 0.0556182 19.1867 0.046234 19.1645 0.0377654C19.1583 0.0354766 19.1523 0.0334167 19.1459 0.0313567C19.1221 0.0233459 19.0981 0.0162506 19.0732 0.0112152C19.0729 0.0112152 19.0727 0.0112152 19.0727 0.0112152C19.0482 0.00640868 19.0233 0.0036621 18.9981 0.00183105C18.9917 0.00160217 18.9853 0.0011444 18.9789 0.000915526C18.9722 0.000686647 18.9656 0 18.9589 0H5.68359C5.35995 0 5.09766 0.262298 5.09766 0.585936V25.6654C5.09766 25.989 5.35995 26.2513 5.68359 26.2513H14.5051V29.414C14.5051 29.6271 14.621 29.8235 14.8075 29.9267C14.9943 30.0299 15.222 30.0237 15.4026 29.9104L17.6342 28.5104L19.8658 29.9104C19.9608 29.97 20.069 29.9999 20.1773 29.9999C20.2748 29.9999 20.3725 29.9757 20.4609 29.9269C20.6474 29.8237 20.7632 29.6273 20.7632 29.414V26.2513H24.261C24.5846 26.2513 24.8469 25.989 24.8469 25.6654V5.8882C24.8469 5.88157 24.8462 5.87493 24.846 5.86829ZM19.5449 2.00065L22.8465 5.30227H19.5449V2.00065ZM14.2161 18.0979C14.1749 17.986 14.1078 17.8031 14.1062 17.7282C14.152 17.6715 14.3108 17.571 14.4081 17.5097C14.6168 17.3778 14.8535 17.2281 15.0252 16.9942C15.1984 16.7578 15.2689 16.4847 15.3312 16.2439C15.3584 16.1387 15.4024 15.9686 15.4399 15.9043C15.4605 15.8999 15.5037 15.8938 15.585 15.8938C15.6502 15.8938 15.7232 15.8974 15.8006 15.9013C15.8894 15.9057 15.981 15.9102 16.0766 15.9102C16.2877 15.9102 16.458 15.8864 16.6125 15.8349C16.8823 15.7452 17.0981 15.5715 17.2886 15.4181C17.3939 15.3335 17.5701 15.1915 17.6314 15.1828C17.6985 15.1915 17.8745 15.3335 17.9798 15.4181C18.1702 15.5715 18.3863 15.7452 18.6561 15.8349C18.8106 15.8864 18.9807 15.9102 19.1919 15.9102C19.2874 15.9102 19.3792 15.9057 19.4677 15.9013C19.5451 15.8974 19.6181 15.8938 19.6836 15.8938C19.7648 15.8938 19.8079 15.8997 19.8287 15.9043C19.8662 15.9686 19.9102 16.1387 19.9372 16.2439C19.9994 16.4847 20.0702 16.7578 20.2434 16.9942C20.4149 17.2281 20.6515 17.3776 20.8605 17.5097C20.9575 17.5712 21.1164 17.6715 21.1622 17.7282C21.1606 17.8031 21.0935 17.986 21.0525 18.0979C20.9653 18.3352 20.8667 18.6044 20.8667 18.9026C20.8667 19.2009 20.9653 19.47 21.0523 19.7076C21.0935 19.8195 21.1606 20.0024 21.1622 20.0772C21.1164 20.134 20.9575 20.2343 20.8605 20.2958C20.6515 20.4277 20.4149 20.5774 20.2434 20.8113C20.0702 21.0477 19.9994 21.3208 19.9372 21.5615C19.9102 21.6666 19.866 21.8369 19.8287 21.9012C19.8079 21.9056 19.7648 21.9117 19.6836 21.9117C19.6181 21.9117 19.5451 21.9081 19.4677 21.9042C19.3792 21.8998 19.2874 21.8953 19.1919 21.8953C18.9807 21.8953 18.8106 21.9191 18.6561 21.9706C18.3863 22.0603 18.1702 22.2342 17.9798 22.3873C17.8761 22.4711 17.7031 22.61 17.6342 22.6224C17.5653 22.61 17.3925 22.4711 17.2888 22.3873C17.0981 22.2342 16.8823 22.0603 16.6125 21.9706C16.458 21.9191 16.2877 21.8953 16.0766 21.8953C15.9812 21.8953 15.8894 21.8998 15.8006 21.9042C15.7235 21.9081 15.6505 21.9117 15.585 21.9117C15.5037 21.9117 15.4607 21.9056 15.4399 21.9012C15.4024 21.8369 15.3584 21.6668 15.3312 21.5615C15.2691 21.3208 15.1984 21.0477 15.0252 20.8113C14.8537 20.5774 14.6171 20.4277 14.4081 20.2958C14.311 20.2345 14.1522 20.134 14.1064 20.0772C14.108 20.0026 14.1751 19.8195 14.2161 19.7076C14.3033 19.4703 14.4019 19.2011 14.4019 18.9029C14.4019 18.6044 14.303 18.3352 14.2161 18.0979ZM19.5913 28.3547L17.9457 27.3223C17.7553 27.203 17.5131 27.203 17.3227 27.3223L15.677 28.3547V23.0818C15.7393 23.0799 15.8004 23.0777 15.8597 23.0747C15.9373 23.0706 16.0105 23.0669 16.0766 23.0669C16.1806 23.0669 16.225 23.0765 16.2421 23.0822C16.3119 23.1056 16.4461 23.2136 16.5539 23.3004C16.8274 23.5205 17.1677 23.7945 17.6342 23.7945C18.1006 23.7945 18.441 23.5205 18.7145 23.3004C18.8223 23.2136 18.9564 23.1056 19.026 23.0825C19.0434 23.0767 19.0878 23.0671 19.1917 23.0671C19.2579 23.0671 19.3311 23.0708 19.4087 23.0747C19.468 23.0777 19.5291 23.0802 19.5911 23.0818V28.3547H19.5913ZM20.7632 25.0794V22.6096C20.9374 22.3729 21.0102 22.0928 21.0717 21.8547C21.104 21.7298 21.1482 21.5588 21.1885 21.5041C21.2285 21.4492 21.3775 21.3551 21.4863 21.2864C21.7746 21.1042 22.1335 20.8774 22.2761 20.4485C22.4171 20.0253 22.2704 19.6254 22.1525 19.3041C22.099 19.1583 22.0383 18.9928 22.0383 18.9026C22.0383 18.8124 22.099 18.6472 22.1525 18.5014C22.2704 18.18 22.4171 17.78 22.2761 17.3568C22.1335 16.9281 21.7746 16.7012 21.4863 16.5191C21.3775 16.4504 21.2285 16.3561 21.1885 16.3016C21.1482 16.2467 21.104 16.0757 21.0717 15.9507C20.9875 15.6246 20.8827 15.2186 20.5238 14.9553C20.2382 14.7461 19.9074 14.7219 19.6834 14.7219C19.5886 14.7219 19.497 14.7265 19.4087 14.731C19.3311 14.7349 19.2579 14.7386 19.1919 14.7386C19.0878 14.7386 19.0434 14.729 19.0262 14.7233C18.9567 14.7001 18.8225 14.5921 18.7147 14.5051C18.441 14.2852 18.1006 14.0112 17.6342 14.0112C17.1679 14.0112 16.8274 14.2852 16.5539 14.5051C16.4461 14.5919 16.3119 14.7001 16.2423 14.7233C16.2252 14.729 16.1806 14.7386 16.0766 14.7386C16.0107 14.7386 15.9373 14.7349 15.8597 14.7308C15.7713 14.7265 15.68 14.7219 15.585 14.7219C15.3612 14.7219 15.0304 14.7461 14.745 14.9553C14.3859 15.2186 14.2808 15.6246 14.1966 15.9507C14.1643 16.0757 14.1202 16.2467 14.0801 16.3014C14.0398 16.3561 13.8908 16.4504 13.7821 16.5191C13.4937 16.7012 13.1351 16.9281 12.9922 17.3568C12.8512 17.7802 12.998 18.18 13.1158 18.5014C13.1694 18.6472 13.23 18.8124 13.23 18.9026C13.23 18.9928 13.1694 19.1583 13.1158 19.3041C12.998 19.6254 12.8512 20.0253 12.9922 20.4487C13.1351 20.8774 13.4939 21.1042 13.7821 21.2864C13.8911 21.3551 14.0398 21.4494 14.0801 21.5041C14.1202 21.5588 14.1643 21.7298 14.1966 21.8547C14.2582 22.0928 14.3312 22.3732 14.5054 22.6096V25.0794H6.26953V1.17187H18.373V5.8882C18.373 6.21184 18.6353 6.47414 18.9589 6.47414H23.675V25.0794H20.7632Z" fill="#CD1E19"/>
<path fill-rule="evenodd" clip-rule="evenodd" d="M8.54688 6.47415H16.0959C16.4193 6.47415 16.6818 6.21185 16.6818 5.88821C16.6818 5.56458 16.4193 5.30228 16.0959 5.30228H8.54688C8.22324 5.30228 7.96094 5.56458 7.96094 5.88821C7.96094 6.21185 8.22346 6.47415 8.54688 6.47415Z" fill="#CD1E19"/>
<path fill-rule="evenodd" clip-rule="evenodd" d="M21.4636 8.25989H8.54688C8.22324 8.25989 7.96094 8.52219 7.96094 8.84583C7.96094 9.16946 8.22324 9.43176 8.54688 9.43176H21.4636C21.7872 9.43176 22.0495 9.16946 22.0495 8.84583C22.0495 8.52219 21.7872 8.25989 21.4636 8.25989Z" fill="#CD1E19"/>
<path fill-rule="evenodd" clip-rule="evenodd" d="M19.1198 11.2175H8.54688C8.22324 11.2175 7.96094 11.48 7.96094 11.8034C7.96094 12.1271 8.22324 12.3894 8.54688 12.3894H19.1198C19.4435 12.3894 19.7058 12.1271 19.7058 11.8034C19.7058 11.48 19.4435 11.2175 19.1198 11.2175Z" fill="#CD1E19"/>
<path fill-rule="evenodd" clip-rule="evenodd" d="M21.4634 11.2175C21.1407 11.2175 20.8774 11.4807 20.8774 11.8034C20.8774 12.1262 21.1407 12.3894 21.4634 12.3894C21.7863 12.3894 22.0493 12.1262 22.0493 11.8034C22.0493 11.4807 21.7863 11.2175 21.4634 11.2175Z" fill="#CD1E19"/>
</svg>
