<svg width="60" height="60" viewBox="0 0 60 60" fill="none" xmlns="http://www.w3.org/2000/svg">
<path d="M59 58H55.0001V30C54.9983 28.3439 53.6562 27.0018 52.0001 27V21C51.9983 19.3439 50.6562 18.0018 49.0001 18V12C48.9983 10.3439 47.6562 9.00176 46.0001 9V3C45.9983 1.34391 44.6562 0.00175781 43.0001 0H17C15.3439 0.00175781 14.0018 1.34391 14 3V9C12.3439 9.00176 11.0018 10.3439 11 12V18C9.34394 18.0018 8.0018 19.3439 8.00004 21V27C6.34395 27.0018 5.0018 28.3439 5.00004 30V58H0.999961C0.447656 58 0 58.4476 0 58.9999C0 59.5522 0.447656 60 0.999961 60H58.9999C59.5522 60 59.9999 59.5523 59.9999 59C59.9999 58.4477 59.5523 58 59 58ZM16 3C16.0003 2.44793 16.4479 2.00039 16.9999 2.00004H43C43.5522 2.00039 43.9996 2.44793 43.9999 3V9H28.8989C28.4237 6.67207 26.376 5.00004 24 5.00004C21.624 5.00004 19.5763 6.67207 19.1011 9H16.0001V3H16ZM26.8158 9H21.1843C21.6021 7.80234 22.7317 6.99996 24.0001 6.99996C25.2686 6.99996 26.398 7.80234 26.8158 9ZM13 12C13.0003 11.4478 13.4479 11.0004 13.9999 11H46C46.5521 11.0004 46.9996 11.4479 46.9999 12V18H25.8989C25.4237 15.6721 23.376 14 21 14C18.624 14 16.5763 15.6721 16.1011 18H13.0001V12H13ZM23.8158 18H18.1843C18.6021 16.8023 19.7317 16 21.0001 16C22.2686 16 23.398 16.8023 23.8158 18ZM9.99996 21C10.0003 20.4478 10.4479 20.0004 10.9999 20H49C49.552 20.0004 49.9996 20.4479 49.9999 21V27H22.8989C22.4237 24.6721 20.376 23 18 23C15.624 23 13.5763 24.6721 13.1011 27H9.99996V21ZM20.8158 27H15.1843C15.6021 25.8023 16.7317 25 18.0001 25C19.2686 25 20.398 25.8023 20.8158 27ZM53 58H6.99996V30C7.00031 29.4479 7.44785 29.0004 7.99992 29H52C52.5521 29.0004 52.9996 29.4479 52.9999 30V58H53Z" fill="#CD1E19"/>
<path d="M17 45C20.3137 45 23 42.3137 23 39C23 35.6863 20.3137 33 17 33C13.6863 33 11 35.6863 11 39C11.0036 42.3122 13.6877 44.9964 17 45ZM17 35C19.2091 35 21 36.7909 21 39C21 41.2091 19.2091 43 17 43C14.7909 43 13 41.2091 13 39C13.0021 36.7917 14.7917 35.0021 17 35Z" fill="#CD1E19"/>
<path d="M48 33H27C26.4477 33 26 33.4477 26 34C26 34.5523 26.4477 34.9999 27 34.9999H48C48.5523 34.9999 48.9999 34.5523 48.9999 34C48.9999 33.4477 48.5523 33 48 33Z" fill="#CD1E19"/>
<path d="M48 38H27C26.4477 38 26 38.4478 26 39C26 39.5523 26.4477 39.9999 27 39.9999H48C48.5523 39.9999 48.9999 39.5521 48.9999 39C48.9999 38.4477 48.5523 38 48 38Z" fill="#CD1E19"/>
<path d="M48 43H27C26.4477 43 26 43.4477 26 44C26 44.5523 26.4477 45 27 45H48C48.5523 45 48.9999 44.5524 48.9999 44.0001C48.9999 43.4478 48.5523 43 48 43Z" fill="#CD1E19"/>
<path d="M48 48H12C11.4477 48 11 48.4477 11 49C11 49.5523 11.4477 49.9999 12 49.9999H48C48.5523 49.9999 48.9999 49.5523 48.9999 49C48.9999 48.4477 48.5523 48 48 48Z" fill="#CD1E19"/>
<path d="M48 53H12C11.4477 53 11 53.4478 11 54C11 54.5521 11.4477 54.9999 12 54.9999H48C48.5523 54.9999 48.9999 54.5523 48.9999 54C48.9999 53.4477 48.5523 53 48 53Z" fill="#CD1E19"/>
</svg>
