<svg width="28" height="30" viewBox="0 0 28 30" fill="none" xmlns="http://www.w3.org/2000/svg">
<path d="M3.87785 26.3977H1.80738C1.20076 26.3977 0.621035 26.241 0.112793 25.9482V26.1913C0.112793 28.2947 1.81799 29.9999 3.92139 29.9999H4.33266C4.04385 29.494 3.87785 28.9093 3.87785 28.2864V26.3977Z" fill="white"/>
<path d="M13.9688 23.8904C13.9688 22.868 14.1638 21.8762 14.5352 20.957H11.4408V19.1992H15.5305C15.7503 18.9077 15.9914 18.6293 16.2539 18.3667C16.5997 18.0209 16.9727 17.7121 17.3676 17.4411H13.4943V15.6833H17.4174V17.4069C18.6946 16.545 20.1998 16.0816 21.7776 16.0816C22.0735 16.0816 22.3667 16.0985 22.6565 16.1306V0H0.151187L0.15107 22.898C0.144273 23.3814 0.319234 23.829 0.643902 24.1583C0.950171 24.4689 1.36326 24.64 1.80722 24.64H5.6355V28.2865C5.6355 29.2299 6.40367 29.9977 7.34873 30H16.9093C16.6818 29.8181 16.4627 29.623 16.2537 29.4141C14.7803 27.9405 13.9688 25.9788 13.9688 23.8904ZM17.4174 13.9253H8.77238V12.1675H17.4174V13.9253ZM17.4174 10.4285H11.4407V8.67064H17.4174V10.4285ZM5.0532 5.15484H17.4174V6.91266H5.0532V5.15484ZM5.0532 8.67064H9.39166V10.4285H5.0532V8.67064ZM6.84986 12.1675V13.9253H5.09199V12.1675H6.84986ZM9.39166 20.957H5.0532V19.1992H9.39166V20.957ZM11.4082 17.4411H5.09199V15.6833H11.4082V17.4411Z" fill="white"/>
<path d="M26.0997 19.5683C23.7165 17.1851 19.8386 17.1851 17.4554 19.5683C15.0722 21.9516 15.0722 25.8294 17.4554 28.2126C19.8386 30.5959 23.7165 30.5959 26.0997 28.2126C28.483 25.8294 28.483 21.9516 26.0997 19.5683ZM20.7994 26.9041L18.3869 24.4915L19.6298 23.2486L20.7994 24.4182L24.0642 21.1534L25.3071 22.3964L20.7994 26.9041Z" fill="white"/>
</svg>
