<svg width="309" height="347" viewBox="0 0 309 347" fill="none" xmlns="http://www.w3.org/2000/svg">
<path d="M277.404 343.977L316.058 321.66L294.32 258.093L344.059 293.852L390.824 226.555L383.457 213.794L397.111 161.135L370.734 82.3351L320.251 104.318L350.305 62.7874L250.864 10.0522L242.022 32.1717L233.294 37.2109L231.887 3.09853L197.878 0.34559L198.541 92.2L155.887 18.3206L103.571 60.1667L63.3683 153.228L108.029 161.472L101.141 179.777L65.6497 178.776L64.3727 193.841L92.6796 242.87L105.111 290.319L184.509 250.747L161.473 323.15L245.806 342.519L254.534 337.48L272.364 335.246L277.404 343.977Z" fill="#CBACFB"/>
</svg>
