<svg width="138" height="45" viewBox="0 0 138 45" fill="none" xmlns="http://www.w3.org/2000/svg">
<path fill-rule="evenodd" clip-rule="evenodd" d="M123.449 3.73745L3.73734 16.0794L6.29887 40.9253L126.011 28.5834L123.449 3.73745ZM3.56269 14.3853C2.6271 14.4818 1.94685 15.3184 2.0433 16.254L4.60483 41.1C4.70129 42.0355 5.53793 42.7158 6.47352 42.6193L126.186 30.2774C127.121 30.181 127.802 29.3443 127.705 28.4087L125.144 3.5628C125.047 2.62721 124.21 1.94696 123.275 2.04342L3.56269 14.3853Z" fill="#FFA830"/>
<path d="M123.275 2.04333C123.178 1.10774 123.859 0.271097 124.794 0.17464C125.73 0.0781839 126.566 0.758438 126.663 1.69403C126.759 2.62963 126.079 3.46627 125.144 3.56272C124.208 3.65918 123.371 2.97893 123.275 2.04333Z" fill="#FFA830"/>
<path d="M0.174648 14.7346C0.0781912 13.799 0.758446 12.9623 1.69404 12.8659C2.62963 12.7694 3.46627 13.4497 3.56273 14.3853C3.65919 15.3209 2.97893 16.1575 2.04334 16.254C1.10775 16.3504 0.271104 15.6702 0.174648 14.7346Z" fill="#FFA830"/>
<path d="M3.02743 42.4039C2.93098 41.4683 3.61123 40.6317 4.54682 40.5352C5.48242 40.4388 6.31906 41.119 6.41551 42.0546C6.51197 42.9902 5.83172 43.8269 4.89612 43.9233C3.96053 44.0198 3.12389 43.3395 3.02743 42.4039Z" fill="#FFA830"/>
<path d="M126.186 30.2773C126.089 29.3417 126.77 28.5051 127.705 28.4086C128.641 28.3121 129.477 28.9924 129.574 29.928C129.67 30.8636 128.99 31.7002 128.054 31.7967C127.119 31.8931 126.282 31.2129 126.186 30.2773Z" fill="#FFA830"/>
</svg>
