<svg width="230" height="80" viewBox="0 0 230 80" fill="none" xmlns="http://www.w3.org/2000/svg">
<path d="M218.031 5.75322L7.14888 27.4945C6.32482 27.5794 5.72566 28.3163 5.81062 29.1404L10.323 72.9084C10.4079 73.7325 11.1448 74.3316 11.9689 74.2467L222.851 52.5054C223.675 52.4205 224.274 51.6836 224.189 50.8595L219.677 7.09148C219.592 6.26742 218.855 5.66826 218.031 5.75322Z" fill="#228BF7" stroke="#FFA830" stroke-width="3"/>
<path d="M223.846 3.64584C223.676 1.99772 222.202 0.799403 220.554 0.969318C218.906 1.13923 217.708 2.61304 217.878 4.26116C218.048 5.90928 219.521 7.1076 221.17 6.93768C222.818 6.76777 224.016 5.29396 223.846 3.64584Z" fill="#FFA830"/>
<path d="M6.99502 26.0023C6.8251 24.3542 5.3513 23.1559 3.70318 23.3258C2.05506 23.4957 0.856738 24.9695 1.02665 26.6177C1.19657 28.2658 2.67038 29.4641 4.3185 29.2942C5.96661 29.1243 7.16493 27.6505 6.99502 26.0023Z" fill="#FFA830"/>
<path d="M12.0201 74.744C11.8502 73.0959 10.3764 71.8976 8.72826 72.0675C7.08014 72.2374 5.88182 73.7112 6.05174 75.3594C6.22165 77.0075 7.69546 78.2058 9.34358 78.0359C10.9917 77.866 12.19 76.3922 12.0201 74.744Z" fill="#FFA830"/>
<path d="M228.973 53.3823C228.803 51.7342 227.329 50.5359 225.681 50.7058C224.033 50.8757 222.835 52.3495 223.005 53.9976C223.175 55.6457 224.648 56.844 226.297 56.6741C227.945 56.5042 229.143 55.0304 228.973 53.3823Z" fill="#FFA830"/>
</svg>
