<svg width="111" height="76" viewBox="0 0 111 76" fill="none" xmlns="http://www.w3.org/2000/svg">
<path d="M44 1H10C5.02944 1 1 5.02944 1 10V66C1 70.9706 5.02944 75 10 75H44C48.9706 75 53 70.9706 53 66V10C53 5.02944 48.9706 1 44 1Z" fill="#701DF7" stroke="#19C4EF" stroke-width="2"/>
<path d="M44 0H10C4.47715 0 0 4.47715 0 10V66C0 71.5229 4.47715 76 10 76H44C49.5228 76 54 71.5229 54 66V10C54 4.47715 49.5228 0 44 0Z" fill="#701DF7"/>
<path d="M101 0H67C61.4772 0 57 4.47715 57 10V66C57 71.5229 61.4772 76 67 76H101C106.523 76 111 71.5229 111 66V10C111 4.47715 106.523 0 101 0Z" fill="#701DF7"/>
</svg>
