<svg width="60" height="60" viewBox="0 0 60 60" fill="none" xmlns="http://www.w3.org/2000/svg">
<path d="M50.6719 11.25C49.1822 11.25 47.7816 11.8303 46.7278 12.8841L44.0625 15.5494L43.7878 15.2747C43.4709 14.9578 42.975 14.9091 42.6047 15.1575L37.0144 18.885C36.6572 18.6844 36.2034 18.7209 35.8997 19.0247L34.1381 20.7863C33.2831 21.6403 32.8125 22.7775 32.8125 23.9869V24.9244L31.815 25.9219C31.635 25.6678 31.4372 25.4241 31.2122 25.1991L30.2887 24.2756C30.6881 23.7891 30.9375 23.1769 30.9375 22.5C30.9375 21.7772 30.6553 21.1238 30.2063 20.625C30.6563 20.1262 30.9375 19.4728 30.9375 18.75C30.9375 17.9222 30.5709 17.1844 30 16.6688V14.9062C31.1194 14.7056 32.1516 14.1731 32.9738 13.3519L34.1381 12.1875H34.2188C35.5116 12.1875 36.5625 11.1356 36.5625 9.84375C36.5625 8.55188 35.5116 7.5 34.2188 7.5H31.3256L31.0509 7.22531C30.4978 6.67219 30.1603 5.96625 30.0506 5.205C30.5963 4.55437 30.9375 3.72656 30.9375 2.8125V1.875C30.9375 1.3575 30.5184 0.9375 30 0.9375H24.375C23.8566 0.9375 23.4375 1.3575 23.4375 1.875V2.8125C23.4375 3.72656 23.7787 4.55437 24.3244 5.205C24.2147 5.96625 23.8772 6.67125 23.3241 7.22531L23.0494 7.5H20.1562C18.8634 7.5 17.8125 8.55188 17.8125 9.84375C17.8125 11.1356 18.8634 12.1875 20.1562 12.1875H20.2369L21.4012 13.3528C22.2234 14.1741 23.2556 14.7056 24.375 14.9072V16.6697C23.8041 17.1844 23.4375 17.9231 23.4375 18.7509C23.4375 19.4737 23.7197 20.1272 24.1688 20.6259C23.7188 21.1247 23.4375 21.7781 23.4375 22.5009C23.4375 23.1778 23.6869 23.79 24.0863 24.2766L23.1628 25.2C22.9378 25.425 22.74 25.6687 22.56 25.9228L21.5625 24.9244V23.9869C21.5625 22.7775 21.0919 21.6413 20.2369 20.7863L18.4753 19.0247C18.1088 18.6581 17.5162 18.6581 17.1497 19.0247L12.4622 23.7122C12.0956 24.0787 12.0956 24.6713 12.4622 25.0378L14.2238 26.7994C15.0787 27.6544 16.215 28.125 17.4244 28.125H18.3619L22.7747 32.5378L22.7944 32.5181C22.9097 32.6588 23.0325 32.7947 23.1628 32.9259L23.2744 33.0375C22.2694 33.4669 21.5625 34.4644 21.5625 35.625C21.5625 36.4528 21.9291 37.1906 22.5 37.7063V38.5322C22.5 40.035 21.915 41.4469 20.8528 42.51L17.2163 46.1456C15.9375 47.4244 15.1772 49.0819 15.0309 50.8641C11.0972 49.3463 8.4375 45.5569 8.4375 41.25V30.9375C9.98812 30.9375 11.25 29.6756 11.25 28.125C11.25 27.2972 10.8834 26.5594 10.3125 26.0438V20.8312C10.8834 20.3166 11.25 19.5778 11.25 18.75C11.25 17.9137 10.8759 17.1703 10.2956 16.6547L9.37031 7.40625C9.3225 6.92719 8.91937 6.5625 8.4375 6.5625H6.5625C6.08063 6.5625 5.6775 6.92719 5.62969 7.40625L4.70531 16.6547C4.12406 17.1703 3.75 17.9137 3.75 18.75C3.75 19.5778 4.11656 20.3156 4.6875 20.8312V26.0447C4.11656 26.5594 3.75 27.2972 3.75 28.125C3.75 29.6756 5.01187 30.9375 6.5625 30.9375V41.25C6.5625 46.6191 10.0584 51.3075 15.1331 52.8806C15.7866 56.3934 18.8681 59.0625 22.5666 59.0625H31.8075C35.3072 59.0625 38.2519 56.67 39.1125 53.4375H44.0625C50.7825 53.4375 56.25 47.97 56.25 41.25V16.8281C56.25 13.7522 53.7478 11.25 50.6719 11.25ZM5.625 18.75C5.625 18.2334 6.045 17.8125 6.5625 17.8125H8.4375C8.955 17.8125 9.375 18.2334 9.375 18.75C9.375 19.2666 8.955 19.6875 8.4375 19.6875H6.5625C6.045 19.6875 5.625 19.2666 5.625 18.75ZM7.58906 8.4375L8.33906 15.9375H6.66094L7.41094 8.4375H7.58906ZM8.4375 21.5625V22.5H6.5625V21.5625H8.4375ZM6.5625 24.375H8.4375V25.3125H6.5625V24.375ZM5.625 28.125C5.625 27.6084 6.045 27.1875 6.5625 27.1875H8.4375C8.955 27.1875 9.375 27.6084 9.375 28.125C9.375 28.6416 8.955 29.0625 8.4375 29.0625H6.5625C6.045 29.0625 5.625 28.6416 5.625 28.125ZM43.0059 17.1441L43.7934 17.9325L40.7297 22.5291L38.4094 20.2087L43.0059 17.1441ZM34.6875 23.9869C34.6875 23.2791 34.9631 22.6125 35.4637 22.1119L36.5625 21.0131L39.9244 24.375L38.8256 25.4738C38.325 25.9744 37.6594 26.25 36.9506 26.25H36.0131L34.6875 24.9244V23.9869ZM33.75 26.6381L34.2994 27.1875L32.7947 28.6922C32.7731 28.3687 32.7225 28.0519 32.6466 27.7416L33.75 26.6381ZM30 36.5625H24.375C23.8575 36.5625 23.4375 36.1416 23.4375 35.625C23.4375 35.1084 23.8575 34.6875 24.375 34.6875H25.3125H29.0625H30C30.5175 34.6875 30.9375 35.1084 30.9375 35.625C30.9375 36.1416 30.5175 36.5625 30 36.5625ZM25.3125 22.5C25.3125 21.9834 25.7325 21.5625 26.25 21.5625H28.125C28.6425 21.5625 29.0625 21.9834 29.0625 22.5C29.0625 23.0166 28.6425 23.4375 28.125 23.4375H26.25C25.7325 23.4375 25.3125 23.0166 25.3125 22.5ZM25.3125 18.75C25.3125 18.2334 25.7325 17.8125 26.25 17.8125H28.125C28.6425 17.8125 29.0625 18.2334 29.0625 18.75C29.0625 19.2666 28.6425 19.6875 28.125 19.6875H26.25C25.7325 19.6875 25.3125 19.2666 25.3125 18.75ZM29.0625 2.8125C29.0625 3.84656 28.2216 4.6875 27.1875 4.6875C26.1534 4.6875 25.3125 3.84656 25.3125 2.8125H29.0625ZM25.9913 6.34875C26.3691 6.47719 26.7666 6.5625 27.1875 6.5625C27.6084 6.5625 28.0059 6.47719 28.3837 6.34875C28.5122 6.75187 28.6903 7.13625 28.9088 7.5H25.4644C25.6847 7.13625 25.8628 6.75187 25.9913 6.34875ZM19.6875 9.84375C19.6875 9.585 19.8984 9.375 20.1562 9.375H34.2188C34.4766 9.375 34.6875 9.585 34.6875 9.84375C34.6875 10.1025 34.4766 10.3125 34.2188 10.3125H20.1562C19.8984 10.3125 19.6875 10.1025 19.6875 9.84375ZM31.4522 12.1875C30.7687 12.7847 29.9119 13.125 28.9959 13.125H25.38C24.4641 13.125 23.6072 12.7847 22.9237 12.1875H31.4522ZM26.25 15H28.125V15.9375H26.25V15ZM24.4884 26.5247L25.7006 25.3125H26.25H28.125H28.6744L29.8866 26.5247C30.5644 27.2025 30.9375 28.1044 30.9375 29.0625C30.9375 30.0206 30.5644 30.9225 29.8866 31.6003L28.6744 32.8125H25.7006L24.4884 31.6003C23.8106 30.9225 23.4375 30.0206 23.4375 29.0625C23.4375 28.1044 23.8106 27.2025 24.4884 26.5247ZM21.5803 28.6922L20.0756 27.1875L20.625 26.6381L21.7294 27.7425C21.6525 28.0519 21.6019 28.3687 21.5803 28.6922ZM15.5494 25.4738L14.4506 24.375L17.8125 21.0131L18.9113 22.1119C19.4119 22.6125 19.6875 23.2791 19.6875 23.9869V24.9244L18.3619 26.25H17.4244C16.7156 26.25 16.05 25.9744 15.5494 25.4738ZM31.8084 57.1875H22.5675C19.4288 57.1875 16.875 54.6338 16.875 51.4959C16.875 49.9753 17.4675 48.5466 18.5419 47.4713L22.1784 43.8356C23.595 42.4181 24.375 40.5347 24.375 38.5322V38.4375H30V38.5322C30 40.5356 30.78 42.4191 32.1966 43.8356L35.8331 47.4713C36.9075 48.5466 37.5 49.9753 37.5 51.4959C37.5 54.6338 34.9463 57.1875 31.8084 57.1875ZM54.375 41.25C54.375 46.9359 49.7484 51.5625 44.0625 51.5625H39.3713C39.3713 51.54 39.375 51.5184 39.375 51.4959C39.375 49.4747 38.5875 47.5744 37.1588 46.1456L33.5222 42.51C32.46 41.4469 31.875 40.0341 31.875 38.5322V37.7063C32.4459 37.1916 32.8125 36.4528 32.8125 35.625C32.8125 34.4644 32.1056 33.4669 31.1006 33.0375L31.2122 32.9259C31.3425 32.7956 31.4653 32.6597 31.5806 32.5181L31.6003 32.5378L36.0131 28.125H36.9506C38.16 28.125 39.2962 27.6544 40.1512 26.7994L41.9128 25.0378C42.2166 24.7341 42.2531 24.2803 42.0525 23.9231L45.78 18.3328C46.0284 17.9616 45.9788 17.4656 45.6628 17.1497L45.3881 16.875L48.0534 14.2097C48.7528 13.5103 49.6828 13.125 50.6719 13.125C52.7137 13.125 54.375 14.7863 54.375 16.8281V41.25Z" fill="#CD1E19"/>
</svg>
