<svg width="60" height="60" viewBox="0 0 60 60" fill="none" xmlns="http://www.w3.org/2000/svg">
<path d="M52.5 11.1848V43.4963L56.2522 49.7113L60 43.4963V11.1848H52.5Z" fill="#0C7AEB"/>
<path d="M60 0H52.5V7.45654H60V0Z" fill="#424242"/>
<path d="M37.5007 34.7975H30V39.7681H37.5007V34.7975Z" fill="#0C7AEB"/>
<path d="M37.5007 44.7393H30V49.7112H37.5007V44.7393Z" fill="#0C7AEB"/>
<path d="M30 9.93955V0H0V49.7112H17.4998V59.6522H47.4998V9.93955H30ZM5.00025 44.7392V4.97127H25.0005V44.7392H5.00025ZM42.5003 54.6817H23.7503L30 49.7112V29.8261H42.5003V54.6817ZM42.5003 24.8548H30V14.9131H42.5003V24.8548Z" fill="#424242"/>
<path d="M19.9995 24.855H9.99976V29.8262H19.9995V24.855Z" fill="#0C7AEB"/>
<path d="M19.9995 34.7975H9.99976V39.7681H19.9995V34.7975Z" fill="#0C7AEB"/>
<path d="M15 19.8844C17.7616 19.8844 20.0002 17.6587 20.0002 14.9131C20.0002 12.1676 17.7616 9.94189 15 9.94189C12.2384 9.94189 9.99976 12.1676 9.99976 14.9131C9.99976 17.6587 12.2384 19.8844 15 19.8844Z" fill="#0C7AEB"/>
</svg>
