<svg width="40" height="40" viewBox="0 0 40 40" fill="none" xmlns="http://www.w3.org/2000/svg">
<g clip-path="url(#clip0)">
<path d="M35.3332 10.0011V3.33461C35.3332 2.96646 35.0347 2.66797 34.6666 2.66797H32V4.00126H33.9999V10.0011H35.3332Z" fill="#CD1E19"/>
<path d="M4.66797 20.0007V36.6668C4.66797 37.035 4.96646 37.3335 5.33461 37.3335H32.0004C32.3686 37.3335 32.667 37.035 32.667 36.6668V32.0003H31.3338V36.0002H6.00126V20.0007H4.66797Z" fill="#CD1E19"/>
<path d="M26.2766 0.0681944C26.2558 0.0587546 26.2359 0.0535464 26.2145 0.0460598C26.1588 0.0268546 26.1009 0.0154618 26.0419 0.0115556C26.0273 0.00895157 26.0146 0.00146484 26.0006 0.00146484H5.33461C4.96646 0.00146484 4.66797 0.299958 4.66797 0.66811V2.0014H6.00126V1.33475H25.334V6.66791C25.334 7.03607 25.6324 7.33456 26.0006 7.33456H31.3338V10.6678H32.667V6.66791C32.667 6.65392 32.6599 6.64122 32.6589 6.62657C32.6553 6.56766 32.6436 6.50972 32.6244 6.45405C32.6169 6.43257 32.6117 6.41271 32.6023 6.39188C32.57 6.31929 32.5248 6.25321 32.4691 6.19657L26.4693 0.196771C26.413 0.143062 26.3479 0.0994434 26.2766 0.0681944ZM30.3911 6.00127H26.6672V2.27743L30.3911 6.00127Z" fill="#CD1E19"/>
<path d="M15.334 28.0004V33.3335C15.334 33.7017 15.6325 34.0002 16.0006 34.0002H24.667V32.6669H16.6673V28.667H20.0005V27.3337H16.0006C15.6325 27.3337 15.334 27.6322 15.334 28.0004Z" fill="#CD1E19"/>
<path d="M18.0005 30.0002H22.0003V31.3335H18.0005V30.0002Z" fill="#CD1E19"/>
<path d="M35.3334 11.3342C32.7577 11.3375 30.6702 13.425 30.6669 16.0007V16.0675L27.2669 19.6565L25.1384 17.528C24.878 17.2676 24.4562 17.2676 24.1958 17.528L18.196 23.5278C17.9359 23.7882 17.9359 24.2101 18.196 24.4705L27.529 33.8035C27.7894 34.0636 28.2113 34.0636 28.4717 33.8035L30.4716 31.8036L34.0001 28.2764V38.6667H8.00098V40H34.6668C35.0349 40 35.3334 39.7015 35.3334 39.3333V23.3338H34.0001V26.391L31.6763 24.0672L35.2667 20.6673H35.3334C37.9108 20.6673 39.9999 18.5781 39.9999 16.0007C39.9999 13.4234 37.9108 11.3342 35.3334 11.3342ZM28.0003 32.3908L19.61 24.0005L20.6672 22.9432L29.0576 31.3336L28.0003 32.3908ZM33.0574 27.3337L30.0003 30.3909L21.6099 22.0005L24.6671 18.9434L26.3497 20.6259L24.8497 22.2085C24.5991 22.4712 24.6049 22.8859 24.8624 23.1418L28.1956 26.475C28.4508 26.7302 28.8629 26.7357 29.125 26.4877L30.7082 24.9878L33.0574 27.3337ZM35.3334 19.334H35.0001C34.8295 19.334 34.6655 19.3994 34.5415 19.5166L28.6797 25.0672L26.267 22.6545L31.8202 16.7927C31.9367 16.6684 32.0008 16.5043 32.0002 16.3341V16.0007C32.0002 14.16 33.4927 12.6675 35.3334 12.6675C37.1742 12.6675 38.6666 14.16 38.6666 16.0007C38.6666 17.8415 37.1742 19.334 35.3334 19.334Z" fill="#CD1E19"/>
<path d="M12.6675 19.334H19.3339V20.6673H12.6675V19.334Z" fill="#CD1E19"/>
<path d="M8.66748 22.0005H16.6672V23.3338H8.66748V22.0005Z" fill="#CD1E19"/>
<path d="M14.6675 16.6675H22.6672V18.0008H14.6675V16.6675Z" fill="#CD1E19"/>
<path d="M8.66748 24.6672H12.6673V26.0005H8.66748V24.6672Z" fill="#CD1E19"/>
<path d="M8.66748 27.3337H14.0006V28.667H8.66748V27.3337Z" fill="#CD1E19"/>
<path d="M8.66748 30.0002H14.0006V31.3335H8.66748V30.0002Z" fill="#CD1E19"/>
<path d="M8.66748 32.6667H14.0006V34H8.66748V32.6667Z" fill="#CD1E19"/>
<path d="M8.66748 19.334H11.3341V20.6673H8.66748V19.334Z" fill="#CD1E19"/>
<path d="M14.001 24.6672H16.6676V26.0005H14.001V24.6672Z" fill="#CD1E19"/>
<path d="M16.6675 13.3342H23.3339V14.6675H16.6675V13.3342Z" fill="#CD1E19"/>
<path d="M8.00091 18.6674C12.3064 18.6625 15.8359 15.2505 15.9867 10.9476C16.3467 11.249 16.8118 11.3945 17.2793 11.3515C17.6227 11.763 18.1311 12.0009 18.6672 12.0009C19.2033 12.0009 19.7118 11.763 20.0552 11.3515C20.589 11.3994 21.1164 11.208 21.4953 10.8291C21.8742 10.4502 22.0656 9.92288 22.0177 9.38904C22.4295 9.04563 22.6671 8.53718 22.6671 8.00107C22.6671 7.46495 22.4295 6.95651 22.0177 6.61309C22.0656 6.07926 21.8742 5.55193 21.4953 5.17304C21.1164 4.79414 20.589 4.60274 20.0552 4.65059C19.7118 4.23915 19.2033 4.0012 18.6672 4.0012C18.1311 4.0012 17.6227 4.23915 17.2793 4.65059C16.7454 4.60274 16.2181 4.79414 15.8392 5.17304C15.4603 5.55193 15.2689 6.07926 15.3168 6.61309C15.2181 6.69447 15.1286 6.78659 15.0502 6.88782C13.2006 3.43807 9.12685 1.8333 5.42157 3.09465C1.71629 4.35633 -0.532338 8.11337 0.10729 11.9749C0.746917 15.8364 4.08698 18.668 8.00091 18.6674ZM16.3112 7.56098C16.4889 7.49783 16.6315 7.36242 16.7038 7.18827C16.7757 7.01412 16.7708 6.81751 16.6901 6.64727C16.6035 6.46824 16.6396 6.25438 16.7799 6.11376C16.9205 5.97347 17.1344 5.93734 17.3134 6.02392C17.4837 6.10465 17.6803 6.10953 17.8544 6.03759C18.0286 5.96533 18.164 5.82276 18.2271 5.64503C18.2932 5.45851 18.4693 5.33384 18.6672 5.33384C18.8651 5.33384 19.0412 5.45851 19.1073 5.64503C19.1705 5.82276 19.3059 5.96533 19.48 6.03759C19.6542 6.10953 19.8508 6.10465 20.0214 6.02392C20.2001 5.93734 20.4139 5.97347 20.5545 6.11376C20.6948 6.25438 20.731 6.46824 20.6444 6.64727C20.5637 6.81751 20.5588 7.01412 20.6307 7.18827C20.703 7.36242 20.8455 7.49783 21.0233 7.56098C21.2098 7.62706 21.3345 7.80316 21.3345 8.00107C21.3345 8.19898 21.2098 8.37508 21.0233 8.44116C20.8455 8.50431 20.703 8.63972 20.6307 8.81387C20.5588 8.98802 20.5637 9.18462 20.6444 9.35519C20.7365 9.53325 20.6991 9.75101 20.5526 9.88838C20.4146 10.0336 20.1978 10.0707 20.0191 9.9805C19.8488 9.89944 19.6522 9.89456 19.4781 9.96683C19.3039 10.0388 19.1685 10.1813 19.1054 10.3591C19.0393 10.5456 18.8629 10.6703 18.6653 10.6703C18.4674 10.6703 18.2913 10.5456 18.2252 10.3591C18.162 10.181 18.0263 10.0384 17.8518 9.9665C17.7708 9.9333 17.6842 9.91605 17.5966 9.91572C17.4977 9.91605 17.4 9.93883 17.3112 9.98245C17.1325 10.0687 16.9186 10.0326 16.778 9.89228C16.6377 9.75166 16.6015 9.5378 16.6881 9.3591C16.7689 9.18886 16.7737 8.99225 16.7018 8.8181C16.6295 8.64363 16.487 8.50821 16.3092 8.44507C16.1227 8.37931 15.998 8.20289 15.998 8.00498C15.998 7.80739 16.1227 7.63096 16.3092 7.56521L16.3112 7.56098ZM8.00091 4.0012C11.6828 4.0012 14.6674 6.9858 14.6674 10.6676C14.6674 14.3495 11.6828 17.3341 8.00091 17.3341C4.31907 17.3341 1.33446 14.3495 1.33446 10.6676C1.33837 6.98743 4.32069 4.00511 8.00091 4.0012Z" fill="#CD1E19"/>
<path d="M4.86321 14.4722C5.12362 14.7322 5.54548 14.7322 5.80589 14.4722L12.4723 7.80571L11.5297 6.86304L5.33455 13.0581L3.80596 11.5296L2.86328 12.4722L4.86321 14.4722Z" fill="#CD1E19"/>
</g>
<defs>
<clipPath id="clip0">
<rect width="40" height="40" fill="white"/>
</clipPath>
</defs>
</svg>
