<svg width="60" height="60" viewBox="0 0 60 60" fill="none" xmlns="http://www.w3.org/2000/svg">
<path d="M32.8125 20.625C32.5639 20.625 32.3254 20.7238 32.1496 20.8996C31.9738 21.0754 31.875 21.3139 31.875 21.5625V25.3125C31.875 25.5611 31.9738 25.7996 32.1496 25.9754C32.3254 26.1512 32.5639 26.25 32.8125 26.25C33.0611 26.25 33.2996 26.1512 33.4754 25.9754C33.6512 25.7996 33.75 25.5611 33.75 25.3125V21.5625C33.75 21.3139 33.6512 21.0754 33.4754 20.8996C33.2996 20.7238 33.0611 20.625 32.8125 20.625Z" fill="#C1262C"/>
<path d="M30 20.625C29.7514 20.625 29.5129 20.7238 29.3371 20.8996C29.1613 21.0754 29.0625 21.3139 29.0625 21.5625V25.3125C29.0625 25.5611 29.1613 25.7996 29.3371 25.9754C29.5129 26.1512 29.7514 26.25 30 26.25C30.2486 26.25 30.4871 26.1512 30.6629 25.9754C30.8387 25.7996 30.9375 25.5611 30.9375 25.3125V21.5625C30.9375 21.3139 30.8387 21.0754 30.6629 20.8996C30.4871 20.7238 30.2486 20.625 30 20.625Z" fill="#C1262C"/>
<path d="M35.625 20.625C35.3764 20.625 35.1379 20.7238 34.9621 20.8996C34.7863 21.0754 34.6875 21.3139 34.6875 21.5625V25.3125C34.6875 25.5611 34.7863 25.7996 34.9621 25.9754C35.1379 26.1512 35.3764 26.25 35.625 26.25C35.8736 26.25 36.1121 26.1512 36.2879 25.9754C36.4637 25.7996 36.5625 25.5611 36.5625 25.3125V21.5625C36.5625 21.3139 36.4637 21.0754 36.2879 20.8996C36.1121 20.7238 35.8736 20.625 35.625 20.625Z" fill="#C1262C"/>
<path d="M45.9375 20.625C45.6889 20.625 45.4504 20.7238 45.2746 20.8996C45.0988 21.0754 45 21.3139 45 21.5625V25.3125C45 25.5611 45.0988 25.7996 45.2746 25.9754C45.4504 26.1512 45.6889 26.25 45.9375 26.25C46.1861 26.25 46.4246 26.1512 46.6004 25.9754C46.7762 25.7996 46.875 25.5611 46.875 25.3125V21.5625C46.875 21.3139 46.7762 21.0754 46.6004 20.8996C46.4246 20.7238 46.1861 20.625 45.9375 20.625Z" fill="#C1262C"/>
<path d="M43.125 20.625C42.8764 20.625 42.6379 20.7238 42.4621 20.8996C42.2863 21.0754 42.1875 21.3139 42.1875 21.5625V25.3125C42.1875 25.5611 42.2863 25.7996 42.4621 25.9754C42.6379 26.1512 42.8764 26.25 43.125 26.25C43.3736 26.25 43.6121 26.1512 43.7879 25.9754C43.9637 25.7996 44.0625 25.5611 44.0625 25.3125V21.5625C44.0625 21.3139 43.9637 21.0754 43.7879 20.8996C43.6121 20.7238 43.3736 20.625 43.125 20.625Z" fill="#C1262C"/>
<path d="M48.75 26.25C48.9986 26.25 49.2371 26.1512 49.4129 25.9754C49.5887 25.7996 49.6875 25.5611 49.6875 25.3125V21.5625C49.6875 21.3139 49.5887 21.0754 49.4129 20.8996C49.2371 20.7238 48.9986 20.625 48.75 20.625C48.5014 20.625 48.2629 20.7238 48.0871 20.8996C47.9113 21.0754 47.8125 21.3139 47.8125 21.5625V25.3125C47.8125 25.5611 47.9113 25.7996 48.0871 25.9754C48.2629 26.1512 48.5014 26.25 48.75 26.25Z" fill="#C1262C"/>
<path d="M40.3125 16.875C40.5611 16.875 40.7996 16.7762 40.9754 16.6004C41.1512 16.4246 41.25 16.1861 41.25 15.9375V12.1875C41.25 11.9389 41.1512 11.7004 40.9754 11.5246C40.7996 11.3488 40.5611 11.25 40.3125 11.25C40.0639 11.25 39.8254 11.3488 39.6496 11.5246C39.4738 11.7004 39.375 11.9389 39.375 12.1875V15.9375C39.375 16.1861 39.4738 16.4246 39.6496 16.6004C39.8254 16.7762 40.0639 16.875 40.3125 16.875Z" fill="#C1262C"/>
<path d="M37.5 11.25C37.2514 11.25 37.0129 11.3488 36.8371 11.5246C36.6613 11.7004 36.5625 11.9389 36.5625 12.1875V15.9375C36.5625 16.1861 36.6613 16.4246 36.8371 16.6004C37.0129 16.7762 37.2514 16.875 37.5 16.875C37.7486 16.875 37.9871 16.7762 38.1629 16.6004C38.3387 16.4246 38.4375 16.1861 38.4375 15.9375V12.1875C38.4375 11.9389 38.3387 11.7004 38.1629 11.5246C37.9871 11.3488 37.7486 11.25 37.5 11.25Z" fill="#C1262C"/>
<path d="M43.125 16.875C43.3736 16.875 43.6121 16.7762 43.7879 16.6004C43.9637 16.4246 44.0625 16.1861 44.0625 15.9375V12.1875C44.0625 11.9389 43.9637 11.7004 43.7879 11.5246C43.6121 11.3488 43.3736 11.25 43.125 11.25C42.8764 11.25 42.6379 11.3488 42.4621 11.5246C42.2863 11.7004 42.1875 11.9389 42.1875 12.1875V15.9375C42.1875 16.1861 42.2863 16.4246 42.4621 16.6004C42.6379 16.7762 42.8764 16.875 43.125 16.875Z" fill="#C1262C"/>
<path d="M58.125 42.1875H52.1414L58.9641 28.5445C59.0353 28.4015 59.0689 28.2427 59.0616 28.0831C59.0543 27.9234 59.0064 27.7683 58.9223 27.6324C58.8383 27.4965 58.721 27.3843 58.5814 27.3064C58.4419 27.2286 58.2848 27.1876 58.125 27.1875H53.4375V18.75C53.4375 18.5014 53.3387 18.2629 53.1629 18.0871C52.9871 17.9113 52.7486 17.8125 52.5 17.8125H47.8125V9.375C47.8125 9.12636 47.7137 8.8879 47.5379 8.71209C47.3621 8.53627 47.1236 8.4375 46.875 8.4375H33.75C33.5014 8.4375 33.2629 8.53627 33.0871 8.71209C32.9113 8.8879 32.8125 9.12636 32.8125 9.375V17.8125H26.25C26.0014 17.8125 25.7629 17.9113 25.5871 18.0871C25.4113 18.2629 25.3125 18.5014 25.3125 18.75V27.1875H21.5625V18.75C21.5625 18.5014 21.4637 18.2629 21.2879 18.0871C21.1121 17.9113 20.8736 17.8125 20.625 17.8125H16.875V15C16.875 14.7514 16.7762 14.5129 16.6004 14.3371C16.4246 14.1613 16.1861 14.0625 15.9375 14.0625H13.125V9.375C13.125 9.12636 13.0262 8.8879 12.8504 8.71209C12.6746 8.53627 12.4361 8.4375 12.1875 8.4375C11.9389 8.4375 11.7004 8.53627 11.5246 8.71209C11.3488 8.8879 11.25 9.12636 11.25 9.375V10.6711L10.732 10.4109C10.6218 10.3558 10.5019 10.323 10.379 10.3143C10.2561 10.3055 10.1327 10.3211 10.0158 10.36C9.77981 10.4387 9.5847 10.6079 9.47344 10.8305C9.41834 10.9407 9.38549 11.0606 9.37676 11.1835C9.36803 11.3064 9.38358 11.4298 9.42254 11.5467C9.50122 11.7827 9.67043 11.9778 9.89297 12.0891L11.25 12.7664V14.0625H10.3125C10.0639 14.0625 9.8254 14.1613 9.64959 14.3371C9.47377 14.5129 9.375 14.7514 9.375 15V17.8125H7.5C7.25136 17.8125 7.0129 17.9113 6.83709 18.0871C6.66127 18.2629 6.5625 18.5014 6.5625 18.75V27.1875H1.875C1.73255 27.1875 1.59197 27.22 1.46395 27.2825C1.33593 27.345 1.22383 27.4358 1.13617 27.5481C1.0485 27.6604 0.987585 27.7912 0.958034 27.9305C0.928484 28.0699 0.93108 28.2141 0.965625 28.3523L4.42383 42.1875H1.875C1.62636 42.1875 1.3879 42.2863 1.21209 42.4621C1.03627 42.6379 0.9375 42.8764 0.9375 43.125C0.9375 43.3736 1.03627 43.6121 1.21209 43.7879C1.3879 43.9637 1.62636 44.0625 1.875 44.0625H58.125C58.3736 44.0625 58.6121 43.9637 58.7879 43.7879C58.9637 43.6121 59.0625 43.3736 59.0625 43.125C59.0625 42.8764 58.9637 42.6379 58.7879 42.4621C58.6121 42.2863 58.3736 42.1875 58.125 42.1875ZM51.5625 19.6875V27.1875H40.3125V19.6875H51.5625ZM34.6875 10.3125H45.9375V17.8125H34.6875V10.3125ZM27.1875 19.6875H38.4375V27.1875H27.1875V19.6875ZM11.25 15.9375H15V17.8125H11.25V15.9375ZM8.4375 19.6875H19.6875V20.625H13.125C12.8764 20.625 12.6379 20.7238 12.4621 20.8996C12.2863 21.0754 12.1875 21.3139 12.1875 21.5625V25.3125C12.1875 25.5611 12.2863 25.7996 12.4621 25.9754C12.6379 26.1512 12.8764 26.25 13.125 26.25H19.6875V27.1875H8.4375V19.6875ZM19.6875 22.5V24.375H14.0625V22.5H19.6875ZM50.0461 42.1875H6.35742L3.07617 29.0625H56.6086L50.0461 42.1875Z" fill="#C1262C"/>
<path d="M14.0625 30.9375H6.5625C6.31386 30.9375 6.0754 31.0363 5.89959 31.2121C5.72377 31.3879 5.625 31.6264 5.625 31.875C5.625 32.1236 5.72377 32.3621 5.89959 32.5379C6.0754 32.7137 6.31386 32.8125 6.5625 32.8125H14.0625C14.3111 32.8125 14.5496 32.7137 14.7254 32.5379C14.9012 32.3621 15 32.1236 15 31.875C15 31.6264 14.9012 31.3879 14.7254 31.2121C14.5496 31.0363 14.3111 30.9375 14.0625 30.9375Z" fill="#C1262C"/>
<path d="M17.8125 30.9375H16.875C16.6264 30.9375 16.3879 31.0363 16.2121 31.2121C16.0363 31.3879 15.9375 31.6264 15.9375 31.875C15.9375 32.1236 16.0363 32.3621 16.2121 32.5379C16.3879 32.7137 16.6264 32.8125 16.875 32.8125H17.8125C18.0611 32.8125 18.2996 32.7137 18.4754 32.5379C18.6512 32.3621 18.75 32.1236 18.75 31.875C18.75 31.6264 18.6512 31.3879 18.4754 31.2121C18.2996 31.0363 18.0611 30.9375 17.8125 30.9375Z" fill="#C1262C"/>
<path d="M58.125 46.875C56.822 46.875 56.2305 46.5203 55.4818 46.0711C54.6451 45.5689 53.6966 45 51.8743 45C50.0521 45 49.1036 45.5689 48.2667 46.0711C47.518 46.5203 46.9266 46.875 45.6237 46.875C44.3208 46.875 43.7297 46.5203 42.9811 46.0711C42.1444 45.5689 41.196 45 39.3738 45C37.5517 45 36.6034 45.5689 35.7666 46.0711C35.018 46.5203 34.4268 46.875 33.1239 46.875C31.821 46.875 31.23 46.5203 30.4814 46.0712C29.6447 45.5689 28.6963 45 26.8741 45C25.052 45 24.1037 45.5689 23.267 46.0712C22.5184 46.5203 21.9272 46.875 20.625 46.875C19.3228 46.875 18.731 46.5203 17.9824 46.0712C17.1457 45.5689 16.1973 45 14.375 45C12.5528 45 11.6046 45.5689 10.7679 46.0711C10.0188 46.5203 9.42762 46.875 8.12496 46.875C6.8223 46.875 6.23074 46.5203 5.48227 46.0711C4.64555 45.5689 3.69715 45 1.875 45C1.62636 45 1.3879 45.0988 1.21209 45.2746C1.03627 45.4504 0.9375 45.6889 0.9375 45.9375C0.9375 46.1861 1.03627 46.4246 1.21209 46.6004C1.3879 46.7762 1.62636 46.875 1.875 46.875C3.17777 46.875 3.76898 47.2297 4.51758 47.6788C5.3543 48.1811 6.3027 48.75 8.12496 48.75C9.94723 48.75 10.8954 48.1811 11.7321 47.6788C12.4805 47.2297 13.0719 46.875 14.3746 46.875C15.6772 46.875 16.2687 47.2297 17.0173 47.6789C17.854 48.1811 18.8024 48.75 20.6245 48.75C22.4467 48.75 23.3951 48.1811 24.2317 47.6788C24.9803 47.2297 25.5715 46.875 26.8741 46.875C28.1768 46.875 28.7681 47.2297 29.5167 47.6789C30.3536 48.1811 31.3018 48.75 33.1239 48.75C34.9459 48.75 35.8945 48.1811 36.7313 47.6788C37.4798 47.2297 38.0711 46.875 39.3738 46.875C40.6766 46.875 41.2678 47.2297 42.0164 47.6789C42.8532 48.1811 43.8015 48.75 45.6237 48.75C47.4458 48.75 48.3945 48.1811 49.2312 47.6789C49.9799 47.2297 50.5713 46.875 51.8743 46.875C53.1773 46.875 53.7687 47.2297 54.5173 47.6789C55.3541 48.1811 56.3026 48.75 58.125 48.75C58.3736 48.75 58.6121 48.6512 58.7879 48.4754C58.9637 48.2996 59.0625 48.0611 59.0625 47.8125C59.0625 47.5639 58.9637 47.3254 58.7879 47.1496C58.6121 46.9738 58.3736 46.875 58.125 46.875Z" fill="#C1262C"/>
<path d="M58.125 50.625C56.822 50.625 56.2305 50.2703 55.4818 49.8211C54.6451 49.3189 53.6966 48.75 51.8743 48.75C50.0521 48.75 49.1036 49.3189 48.2667 49.8211C47.518 50.2703 46.9266 50.625 45.6237 50.625C44.3208 50.625 43.7297 50.2703 42.9811 49.8211C42.1444 49.3189 41.196 48.75 39.3738 48.75C37.5517 48.75 36.6034 49.3189 35.7666 49.8211C35.018 50.2703 34.4268 50.625 33.1239 50.625C31.821 50.625 31.23 50.2703 30.4814 49.8212C29.6447 49.3189 28.6963 48.75 26.8741 48.75C25.052 48.75 24.1037 49.3189 23.267 49.8212C22.5184 50.2703 21.9272 50.625 20.625 50.625C19.3228 50.625 18.731 50.2703 17.9824 49.8212C17.1457 49.3189 16.1973 48.75 14.375 48.75C12.5528 48.75 11.6046 49.3189 10.7679 49.8211C10.0188 50.2703 9.42762 50.625 8.12496 50.625C6.8223 50.625 6.23074 50.2703 5.48227 49.8211C4.64555 49.3189 3.69715 48.75 1.875 48.75C1.62636 48.75 1.3879 48.8488 1.21209 49.0246C1.03627 49.2004 0.9375 49.4389 0.9375 49.6875C0.9375 49.9361 1.03627 50.1746 1.21209 50.3504C1.3879 50.5262 1.62636 50.625 1.875 50.625C3.17777 50.625 3.76898 50.9797 4.51758 51.4288C5.3543 51.9311 6.3027 52.5 8.12496 52.5C9.94723 52.5 10.8954 51.9311 11.7321 51.4288C12.4805 50.9797 13.0719 50.625 14.3746 50.625C15.6772 50.625 16.2687 50.9797 17.0173 51.4289C17.854 51.9311 18.8024 52.5 20.6245 52.5C22.4467 52.5 23.3951 51.9311 24.2317 51.4288C24.9803 50.9797 25.5715 50.625 26.8741 50.625C28.1768 50.625 28.7681 50.9797 29.5167 51.4289C30.3536 51.9311 31.3018 52.5 33.1239 52.5C34.9459 52.5 35.8945 51.9311 36.7313 51.4288C37.4798 50.9797 38.0711 50.625 39.3738 50.625C40.6766 50.625 41.2678 50.9797 42.0164 51.4289C42.8532 51.9311 43.8015 52.5 45.6237 52.5C47.4458 52.5 48.3945 51.9311 49.2312 51.4289C49.9799 50.9797 50.5713 50.625 51.8743 50.625C53.1773 50.625 53.7687 50.9797 54.5173 51.4289C55.3541 51.9311 56.3026 52.5 58.125 52.5C58.3736 52.5 58.6121 52.4012 58.7879 52.2254C58.9637 52.0496 59.0625 51.8111 59.0625 51.5625C59.0625 51.3139 58.9637 51.0754 58.7879 50.8996C58.6121 50.7238 58.3736 50.625 58.125 50.625Z" fill="#C1262C"/>
</svg>
