<svg width="205" height="510" viewBox="0 0 205 510" fill="none" xmlns="http://www.w3.org/2000/svg">
<path d="M218.562 467.957C174.574 462.778 129.619 433.261 92.485 389.611C55.3521 345.963 26.084 288.227 13.5195 226.754C0.954965 165.281 7.48305 111.759 28.1644 74.9175C48.8464 38.0743 83.6544 17.9477 127.642 23.1265C171.63 28.3053 216.585 57.8226 253.719 101.473C290.852 145.121 320.12 202.857 332.685 264.33C345.249 325.803 338.721 379.324 318.04 416.166C297.358 453.009 262.55 473.136 218.562 467.957Z" stroke="#00AAFF" stroke-width="1.19405"/>
<path d="M340.083 392.685C316.607 500.935 231.272 529.408 149.487 456.3C67.7024 383.193 20.4243 236.176 43.9 127.925C67.3758 19.6745 152.711 -8.79835 234.496 64.3094C316.281 137.417 363.559 284.434 340.083 392.685Z" stroke="#00AAFF" stroke-width="1.19405"/>
</svg>
