<svg width="40" height="40" viewBox="0 0 40 40" fill="none" xmlns="http://www.w3.org/2000/svg">
<path d="M37.3333 8.33325H32V2.99992C32 1.52717 30.8061 0.333252 29.3333 0.333252H5.33333C3.86058 0.333252 2.66667 1.52717 2.66667 2.99992V34.9999H0.666667C0.2985 34.9999 0 35.2984 0 35.6666V36.9999C0 38.4727 1.19392 39.6666 2.66667 39.6666H25.3333C26.8061 39.6666 28 38.4727 28 36.9999V29.6666H33.3333C34.8061 29.6666 36 28.4727 36 26.9999V20.9999H39.3333C39.7015 20.9999 40 20.7014 40 20.3333V10.9999C40 9.52717 38.8061 8.33325 37.3333 8.33325ZM2.66667 38.3333C1.93025 38.3333 1.33333 37.7363 1.33333 36.9999V36.3333H22.6667V36.9999C22.6659 37.4682 22.7895 37.9283 23.0247 38.3333H2.66667ZM26.6667 2.99992V36.9999C26.6667 37.7363 26.0697 38.3333 25.3333 38.3333C24.5969 38.3333 24 37.7363 24 36.9999V35.6666C24 35.2984 23.7015 34.9999 23.3333 34.9999H4V2.99992C4 2.2635 4.59692 1.66659 5.33333 1.66659H27.0373C26.7974 2.07017 26.6694 2.53042 26.6667 2.99992ZM28 28.3333V2.99992C28 2.2635 28.5969 1.66659 29.3333 1.66659C30.0698 1.66659 30.6667 2.2635 30.6667 2.99992V26.9999C30.6694 27.4694 30.7974 27.9297 31.0373 28.3333H28ZM34.6667 10.9999V26.9999C34.6667 27.7363 34.0698 28.3333 33.3333 28.3333C32.5969 28.3333 32 27.7363 32 26.9999V9.66659H35.0373C34.7974 10.0702 34.6694 10.5304 34.6667 10.9999ZM38.6667 19.6666H36V10.9999C36 10.2635 36.5969 9.66659 37.3333 9.66659C38.0698 9.66659 38.6667 10.2635 38.6667 10.9999V19.6666Z" fill="#CD1E19"/>
<path d="M21.9998 18.3333H6.6665V19.6666H21.9998V18.3333Z" fill="#CD1E19"/>
<path d="M24.6665 15.6667H10.6665V17.0001H24.6665V15.6667Z" fill="#CD1E19"/>
<path d="M17.2476 9.19634C17.0939 8.70225 16.7449 8.29242 16.2816 8.06192L14.9822 7.41192C14.7009 7.27142 14.5868 6.9295 14.7273 6.64817C14.8236 6.45534 15.0206 6.33342 15.2362 6.33325H15.4309C15.7451 6.33359 15.9999 6.58834 16.0002 6.90259V6.99992H17.3336V6.90259C17.3305 6.07425 16.791 5.34342 16.0002 5.09659V4.33325H14.6669V5.09659C13.667 5.40759 13.1086 6.47025 13.4196 7.47017C13.5732 7.96425 13.9222 8.37408 14.3856 8.60459L15.6849 9.25459C15.9662 9.39509 16.0803 9.737 15.9398 10.0183C15.8435 10.2112 15.6465 10.3331 15.4309 10.3333H15.2362C14.922 10.3329 14.6672 10.0782 14.6669 9.76392V9.66659H13.3336V9.76392C13.3366 10.5923 13.8761 11.3231 14.6669 11.5699V12.3333H16.0002V11.5699C17.0001 11.2589 17.5586 10.1963 17.2476 9.19634Z" fill="#CD1E19"/>
<path d="M9.33333 15.6667H8V17.0001H9.33333V15.6667Z" fill="#CD1E19"/>
<path d="M21.9998 24.3333H6.6665V25.6666H21.9998V24.3333Z" fill="#CD1E19"/>
<path d="M24.6665 21.6667H10.6665V23.0001H24.6665V21.6667Z" fill="#CD1E19"/>
<path d="M9.33333 21.6667H8V23.0001H9.33333V21.6667Z" fill="#CD1E19"/>
<path d="M21.9998 30.3333H6.6665V31.6666H21.9998V30.3333Z" fill="#CD1E19"/>
<path d="M24.6665 27.6667H10.6665V29.0001H24.6665V27.6667Z" fill="#CD1E19"/>
<path d="M9.33333 27.6667H8V29.0001H9.33333V27.6667Z" fill="#CD1E19"/>
</svg>
