<svg width="34" height="34" viewBox="0 0 34 34" fill="none" xmlns="http://www.w3.org/2000/svg">
<path d="M10.0486 12.7534H4.59082V29.1519H10.0486V12.7534Z" fill="#F1F1F1"/>
<path d="M10.4086 7.68064C10.3731 6.07279 9.22335 4.84814 7.35627 4.84814C5.48919 4.84814 4.26855 6.07279 4.26855 7.68064C4.26855 9.2552 5.45311 10.5151 7.28542 10.5151H7.3203C9.22335 10.5151 10.4086 9.2552 10.4086 7.68064Z" fill="#F1F1F1"/>
<path d="M29.7323 19.7493C29.7323 14.7124 27.0398 12.3682 23.4483 12.3682C20.5505 12.3682 19.2532 13.9598 18.5288 15.0764V12.7537H13.0703C13.1422 14.2924 13.0703 29.1521 13.0703 29.1521H18.5288V19.9939C18.5288 19.5038 18.5642 19.0149 18.7085 18.664C19.103 17.6849 20.0011 16.6712 21.5089 16.6712C23.4847 16.6712 24.2744 18.1749 24.2744 20.3785V29.1517H29.732L29.7323 19.7493Z" fill="#F1F1F1"/>
</svg>
