<svg width="60" height="60" viewBox="0 0 60 60" fill="none" xmlns="http://www.w3.org/2000/svg">
<path d="M30 25V23H23.9C23.4 19.6 20.5 17 17 17H7C3.1 17 0 20.1 0 24V38H2V24C2 21.2 4.2 19 7 19H8V27H7V25H5V59C5 59.6 5.4 60 6 60H12H18C18.6 60 19 59.6 19 59V25H17V27H16V19H17C19.8 19 22 21.2 22 24C22 24.6 22.4 25 23 25H30ZM17 58H13V40H15V38H9V40H11V58H7V29H17V58ZM14 27H10V19H14V27Z" fill="#CD1E19"/>
<path d="M6 11C6 13.8 8.2 16 11 16H13C15.8 16 18 13.8 18 11V9H20V7H18V5C18 2.2 15.8 0 13 0H11C8.2 0 6 2.2 6 5V7H4V9H6V11ZM16 11C16 12.7 14.7 14 13 14H11C9.3 14 8 12.7 8 11V9H16V11ZM8 5C8 3.3 9.3 2 11 2V5H13V2C14.7 2 16 3.3 16 5V7H8V5Z" fill="#CD1E19"/>
<path d="M11 32H9V34H11V32Z" fill="#CD1E19"/>
<path d="M15 32H13V34H15V32Z" fill="#CD1E19"/>
<path d="M59 20H49H43H33C32.4 20 32 20.4 32 21V42H31H25C24.4 42 24 42.4 24 43V59C24 59.6 24.4 60 25 60H41H59C59.6 60 60 59.6 60 59V43V21C60 20.4 59.6 20 59 20ZM48 22V28H44V22H48ZM34 22H42V29C42 29.6 42.4 30 43 30H49C49.6 30 50 29.6 50 29V22H58V42H52H48H41H35H34V22ZM49 44H51V48H49V44ZM33 44H34V48H32V44H33ZM26 44H30V49C30 49.6 30.4 50 31 50H35C35.6 50 36 49.6 36 49V44H40V58H26V44ZM58 58H42V44H47V49C47 49.6 47.4 50 48 50H52C52.6 50 53 49.6 53 49V44H58V58Z" fill="#CD1E19"/>
<path d="M30 28H23V30H30V28Z" fill="#CD1E19"/>
<path d="M30 53H28V55H30V53Z" fill="#CD1E19"/>
<path d="M34 53H32V55H34V53Z" fill="#CD1E19"/>
<path d="M46 53H44V55H46V53Z" fill="#CD1E19"/>
<path d="M50 53H48V55H50V53Z" fill="#CD1E19"/>
<path d="M41 34H37V36H41V34Z" fill="#CD1E19"/>
<path d="M45 38H37V40H45V38Z" fill="#CD1E19"/>
</svg>
