<svg width="36" height="36" viewBox="0 0 36 36" fill="none" xmlns="http://www.w3.org/2000/svg">
<rect x="0.5" y="0.5" width="35" height="35" rx="4.5" stroke="#CD1E19"/>
<path d="M8.86525 17.1353C8.3882 17.1353 8 17.5235 8 18.0006C8 18.4771 8.38789 18.8653 8.86525 18.8653H12.5078V17.1353H8.86525Z" fill="#CD1E19"/>
<path d="M25.1171 10.2544H15.3917C13.8016 10.2544 12.5079 11.5475 12.5079 13.1373V13.2276V17.135H20.3009L18.6342 15.4682C18.2974 15.1308 18.2974 14.582 18.6342 14.2447C18.7976 14.0813 19.0145 13.9913 19.2455 13.9913C19.4773 13.9913 19.6943 14.0814 19.8579 14.2447L23.0014 17.3884C23.0804 17.467 23.1428 17.5602 23.1874 17.6657C23.2336 17.7793 23.255 17.889 23.255 18.0005C23.255 18.1117 23.2339 18.2216 23.1908 18.3267C23.1446 18.4378 23.0821 18.5305 23.0038 18.6103L19.8578 21.7557C19.6935 21.9191 19.4761 22.0087 19.2454 22.0087C19.0147 22.0087 18.7966 21.9191 18.6339 21.7557C18.2971 21.4177 18.2971 20.8689 18.6339 20.5318L20.3008 18.8652H12.5078V19.8113V21.5486V22.8632C12.5078 24.4523 13.8016 25.7455 15.3917 25.7455H25.1171C26.7072 25.7455 28 24.4523 28 22.8632V13.1377C28.0001 11.5475 26.7073 10.2544 25.1171 10.2544Z" fill="#CD1E19"/>
</svg>
