<svg width="20" height="16" viewBox="0 0 20 16" fill="none" xmlns="http://www.w3.org/2000/svg">
<path d="M0.865248 7.13534C0.3882 7.13534 0 7.52354 0 8.00064C0 8.47712 0.387894 8.86532 0.865248 8.86532H4.50776V7.13534H0.865248Z" fill="white"/>
<path d="M17.1171 0.254414H7.3917C5.80156 0.254414 4.50786 1.5475 4.50786 3.13733V3.22756V7.13497H12.3009L10.6342 5.46821C10.2974 5.1308 10.2974 4.58198 10.6342 4.24472C10.7976 4.08134 11.0145 3.99127 11.2455 3.99127C11.4773 3.99127 11.6943 4.08139 11.8579 4.24472L15.0014 7.38842C15.0804 7.46703 15.1428 7.56021 15.1874 7.66572C15.2336 7.77933 15.255 7.88901 15.255 8.00053C15.255 8.11174 15.2339 8.22158 15.1908 8.32673C15.1446 8.43784 15.0821 8.53051 15.0038 8.61034L11.8578 11.7557C11.6935 11.9191 11.4761 12.0087 11.2454 12.0087C11.0147 12.0087 10.7966 11.9191 10.6339 11.7557C10.2971 11.4177 10.2971 10.8689 10.6339 10.5318L12.3008 8.86516H4.50781V9.81131V11.5486V12.8632C4.50781 14.4523 5.80156 15.7455 7.39165 15.7455H17.1171C18.7072 15.7455 20 14.4523 20 12.8632V3.13769C20.0001 1.5475 18.7073 0.254414 17.1171 0.254414Z" fill="white"/>
</svg>
