<svg width="158" height="40" viewBox="0 0 158 40" fill="none" xmlns="http://www.w3.org/2000/svg">
<path d="M29.8704 36.6649C30.3413 36.6649 30.8123 36.6649 31.2707 36.6212C28.2413 38.6391 24.7174 39.7988 21.0765 39.9761C17.4355 40.1534 13.8147 39.3416 10.6018 37.6277C7.38896 35.9138 4.70501 33.3622 2.83746 30.2464C0.969908 27.1306 -0.0108967 23.5678 9.13189e-05 19.9397C0.0110793 16.3116 1.01345 12.7548 2.89984 9.65023C4.78623 6.54567 7.48558 4.0103 10.7088 2.31568C13.932 0.621057 17.5577 -0.168988 21.1974 0.0301557C24.8372 0.2293 28.354 1.41013 31.3712 3.44618C30.8751 3.41493 30.379 3.39619 29.8704 3.39619C20.5453 3.39619 12.7147 8.72744 10.5294 15.9337C9.98281 17.199 9.69671 18.5607 9.68808 19.938C9.67946 21.3153 9.94847 22.6804 10.4792 23.9524C10.9135 25.4319 11.5744 26.8359 12.4384 28.1149L11.1825 33.1587L14.3223 30.4462C18.0021 34.2462 23.5909 36.6649 29.8704 36.6649Z" fill="#E5E5E5"/>
<path d="M29.8704 36.6649C30.3413 36.6649 30.8123 36.6649 31.2707 36.6212C28.2413 38.6391 24.7174 39.7988 21.0765 39.9761C17.4355 40.1534 13.8147 39.3416 10.6018 37.6277C7.38896 35.9138 4.70501 33.3622 2.83746 30.2464C0.969908 27.1306 -0.0108967 23.5678 9.13189e-05 19.9397C0.0110793 16.3116 1.01345 12.7548 2.89984 9.65023C4.78623 6.54567 7.48558 4.0103 10.7088 2.31568C13.932 0.621057 17.5577 -0.168988 21.1974 0.0301557C24.8372 0.2293 28.354 1.41013 31.3712 3.44618C30.8751 3.41493 30.379 3.39619 29.8704 3.39619C20.5453 3.39619 12.7147 8.72744 10.5294 15.9337C9.98281 17.199 9.69671 18.5607 9.68808 19.938C9.67946 21.3153 9.94847 22.6804 10.4792 23.9524C10.9135 25.4319 11.5744 26.8359 12.4384 28.1149L11.1825 33.1587L14.3223 30.4462C18.0021 34.2462 23.5909 36.6649 29.8704 36.6649Z" fill="white"/>
<path d="M20.0363 9.69014C22.6601 9.68684 25.1864 10.6792 27.1007 12.4651H38.6928C37.1959 8.80618 34.6493 5.66719 31.3708 3.44014C30.8747 3.40889 30.3787 3.39014 29.87 3.39014C20.5449 3.39014 12.7144 8.72139 10.5291 15.9276C11.3267 14.0761 12.6526 12.4981 14.3426 11.3894C16.0325 10.2806 18.0122 9.68982 20.0363 9.69014Z" fill="#E5E5E5"/>
<path d="M39.9867 17.3335H17.8452V22.846H29.9394C29.5236 24.2688 28.8046 25.5857 27.8314 26.707C26.8581 27.8283 25.6536 28.7277 24.2997 29.3439C22.9457 29.9602 21.4743 30.2788 19.9855 30.2781C18.4968 30.2773 17.0257 29.9573 15.6724 29.3397L14.3474 30.471C18.0021 34.246 23.5908 36.6647 29.8704 36.6647C30.3413 36.6647 30.8123 36.6647 31.2707 36.621C33.604 35.0611 35.5825 33.0313 37.0784 30.6629C38.5744 28.2944 39.5544 25.64 39.9553 22.871C40.0943 21.9273 40.1636 20.9748 40.1625 20.021C40.1626 19.1223 40.1038 18.2246 39.9867 17.3335Z" fill="#E5E5E5"/>
<path d="M12.4509 28.14L12.6832 27.2338C11.747 26.3005 11.0026 25.1944 10.4917 23.9775C10.926 25.457 11.5868 26.861 12.4509 28.14Z" fill="#E5E5E5"/>
<path d="M46.8237 11.7103L51.9328 7.58691H46.8237V11.7103Z" fill="#E5E5E5"/>
<path d="M51.7949 13.6499H46.9719V29.0516H51.7949V13.6499Z" fill="#E5E5E5"/>
<path d="M65.8082 13.2896C64.6246 13.2009 63.4394 13.4386 62.3815 13.9769C61.3237 14.5152 60.4337 15.3334 59.8087 16.3424V13.6394H55.3143V34.9241H60.1373V26.7833C60.803 27.6589 61.675 28.3562 62.6756 28.813C63.6762 29.2698 64.7742 29.472 65.8718 29.4015C66.8815 29.4399 67.8884 29.2717 68.8307 28.9071C69.7731 28.5426 70.631 27.9894 71.352 27.2815C72.7317 25.6275 73.4874 23.5419 73.4874 21.388C73.4874 19.2341 72.7317 17.1484 71.352 15.4944C70.6308 14.7633 69.7658 14.1898 68.8115 13.8103C67.8572 13.4308 66.8346 13.2535 65.8082 13.2896ZM67.5255 24.5044C66.7876 25.3368 65.7814 25.8844 64.6817 26.0522C63.582 26.2199 62.4583 25.9972 61.5057 25.4227C60.5532 24.8481 59.832 23.958 59.4674 22.9071C59.1028 21.8561 59.1179 20.7106 59.51 19.6696C59.9022 18.6286 60.6465 17.7579 61.6139 17.2086C62.5812 16.6593 63.7104 16.4662 64.8053 16.6629C65.9001 16.8595 66.8916 17.4334 67.6073 18.285C68.323 19.1366 68.7179 20.212 68.7232 21.3244C68.7499 21.908 68.6574 22.4909 68.4515 23.0376C68.2456 23.5843 67.9305 24.0834 67.5255 24.5044Z" fill="#E5E5E5"/>
<path d="M87.0931 13.2894C85.8489 13.1939 84.603 13.4528 83.4999 14.0363C82.3968 14.6197 81.4816 15.5037 80.8603 16.586V13.6392H76.366V29.0515H81.1889V21.8753C81.1329 20.6618 81.5084 19.4676 82.2489 18.5046C82.625 18.081 83.0923 17.7484 83.6156 17.5317C84.1389 17.315 84.7045 17.22 85.2699 17.2538C85.7388 17.2111 86.211 17.2855 86.6439 17.4706C87.0769 17.6556 87.4571 17.9454 87.7503 18.3138C88.3187 19.2726 88.5812 20.3819 88.5029 21.4937V29.0833H93.3152V20.0203C93.4374 18.2249 92.8856 16.4485 91.7677 15.0384C91.1597 14.4284 90.4275 13.9565 89.6209 13.6548C88.8142 13.353 87.9521 13.2283 87.0931 13.2894Z" fill="#E5E5E5"/>
<path d="M105.378 13.2897C102.942 13.1567 100.535 13.868 98.5625 15.3036C97.6969 16.0423 97.0168 16.9738 96.5768 18.0232C96.1368 19.0726 95.9492 20.2105 96.0291 21.3456C95.9457 22.4867 96.1359 23.6312 96.5839 24.6839C97.0319 25.7366 97.7248 26.6672 98.6049 27.3982C100.645 28.8235 103.105 29.5216 105.59 29.3804H114.229V26.052H105.59C102.919 26.052 101.35 24.9567 100.884 22.766H114.229V22.236C114.229 19.1409 113.487 16.8725 112.003 15.4309C110.519 13.9893 108.311 13.2756 105.378 13.2897ZM100.916 19.8404C101.382 17.7205 102.877 16.6605 105.378 16.6605C106.406 16.6086 107.42 16.9117 108.251 17.5191C108.615 17.793 108.916 18.142 109.134 18.5426C109.352 18.9431 109.481 19.3857 109.512 19.8404H100.916Z" fill="#E5E5E5"/>
<path d="M123.991 9.96143L115.437 17.2542H119.168V23.8474C119.168 25.8402 119.645 27.2605 120.599 28.0873C121.913 29.034 123.523 29.4778 125.136 29.3381C126.163 29.3327 127.187 29.244 128.199 29.0731V25.1935C127.527 25.3104 126.846 25.3706 126.164 25.3737C125.858 25.4124 125.548 25.3892 125.251 25.3054C124.954 25.2217 124.677 25.0791 124.436 24.8861C124.084 24.3751 123.926 23.7546 123.991 23.1371V17.2542H128.231V13.6396H123.991V9.96143Z" fill="#E5E5E5"/>
<path d="M130.849 11.7103L135.969 7.58691H130.849V11.7103Z" fill="#E5E5E5"/>
<path d="M135.821 13.6499H130.998V29.0516H135.821V13.6499Z" fill="#E5E5E5"/>
<path d="M150.427 21.0808L156.66 13.6396H151.074L147.639 18.1976L144.29 13.6396H138.46L144.756 21.1974L138.11 29.0519H143.696L147.512 24.1124L151.371 29.0519H157.158L150.427 21.0808Z" fill="#E5E5E5"/>
</svg>
