<svg width="158" height="40" viewBox="0 0 158 40" fill="none" xmlns="http://www.w3.org/2000/svg">
<path d="M29.8704 36.6649C30.3413 36.6649 30.8123 36.6649 31.2707 36.6212C28.2413 38.6391 24.7174 39.7988 21.0765 39.9761C17.4355 40.1534 13.8147 39.3416 10.6018 37.6277C7.38896 35.9138 4.70501 33.3622 2.83746 30.2464C0.969908 27.1306 -0.0108967 23.5678 9.13189e-05 19.9397C0.0110793 16.3116 1.01345 12.7548 2.89984 9.65023C4.78623 6.54567 7.48558 4.0103 10.7088 2.31568C13.932 0.621057 17.5577 -0.168988 21.1974 0.0301557C24.8372 0.2293 28.354 1.41013 31.3712 3.44618C30.8751 3.41493 30.379 3.39619 29.8704 3.39619C20.5453 3.39619 12.7147 8.72744 10.5294 15.9337C9.98281 17.199 9.69671 18.5607 9.68808 19.938C9.67946 21.3153 9.94847 22.6804 10.4792 23.9524C10.9135 25.4319 11.5744 26.8359 12.4384 28.1149L11.1825 33.1587L14.3223 30.4462C18.0021 34.2462 23.5909 36.6649 29.8704 36.6649Z" fill="black"/>
<path d="M29.8704 36.6649C30.3413 36.6649 30.8123 36.6649 31.2707 36.6212C28.2413 38.6391 24.7174 39.7988 21.0765 39.9761C17.4355 40.1534 13.8147 39.3416 10.6018 37.6277C7.38896 35.9138 4.70501 33.3622 2.83746 30.2464C0.969908 27.1306 -0.0108967 23.5678 9.13189e-05 19.9397C0.0110793 16.3116 1.01345 12.7548 2.89984 9.65023C4.78623 6.54567 7.48558 4.0103 10.7088 2.31568C13.932 0.621057 17.5577 -0.168988 21.1974 0.0301557C24.8372 0.2293 28.354 1.41013 31.3712 3.44618C30.8751 3.41493 30.379 3.39619 29.8704 3.39619C20.5453 3.39619 12.7147 8.72744 10.5294 15.9337C9.98281 17.199 9.69671 18.5607 9.68808 19.938C9.67946 21.3153 9.94847 22.6804 10.4792 23.9524C10.9135 25.4319 11.5744 26.8359 12.4384 28.1149L11.1825 33.1587L14.3223 30.4462C18.0021 34.2462 23.5909 36.6649 29.8704 36.6649Z" fill="#323232"/>
<path d="M20.0365 9.69063C22.6603 9.68733 25.1866 10.6797 27.101 12.4656H38.693C37.1962 8.80667 34.6495 5.66768 31.371 3.44063C30.875 3.40938 30.3789 3.39062 29.8702 3.39062C20.5451 3.39062 12.7146 8.72188 10.5293 15.9281C11.3269 14.0766 12.6528 12.4986 14.3428 11.3899C16.0327 10.2811 18.0124 9.69031 20.0365 9.69063V9.69063Z" fill="black"/>
<path d="M39.987 17.334H17.8454V22.8465H29.9397C29.5239 24.2693 28.8049 25.5862 27.8316 26.7075C26.8584 27.8288 25.6538 28.7282 24.2999 29.3444C22.946 29.9607 21.4746 30.2793 19.9858 30.2785C18.4971 30.2778 17.0259 29.9578 15.6726 29.3402L14.3477 30.4715C18.0023 34.2465 23.5911 36.6652 29.8706 36.6652C30.3416 36.6652 30.8126 36.6652 31.271 36.6215C33.6043 35.0616 35.5828 33.0318 37.0787 30.6634C38.5746 28.2949 39.5547 25.6405 39.9556 22.8715C40.0946 21.9278 40.1639 20.9753 40.1628 20.0215C40.1628 19.1228 40.1041 18.2251 39.987 17.334Z" fill="black"/>
<path d="M12.4514 28.14L12.6837 27.2338C11.7475 26.3005 11.0031 25.1944 10.4922 23.9775C10.9265 25.457 11.5873 26.861 12.4514 28.14V28.14Z" fill="black"/>
<path d="M46.8242 11.7103L51.9334 7.58691H46.8242V11.7103Z" fill="black"/>
<path d="M51.7956 13.6504H46.9727V29.0521H51.7956V13.6504Z" fill="black"/>
<path d="M65.8084 13.2896C64.6248 13.2009 63.4395 13.4386 62.3816 13.9769C61.3238 14.5152 60.4339 15.3334 59.8088 16.3424V13.6394H55.3145V34.9241H60.1374V26.7833C60.8032 27.6589 61.6752 28.3562 62.6757 28.813C63.6763 29.2698 64.7743 29.472 65.872 29.4015C66.8816 29.4399 67.8885 29.2717 68.8308 28.9071C69.7732 28.5426 70.6312 27.9894 71.3521 27.2815C72.7318 25.6275 73.4875 23.5419 73.4875 21.388C73.4875 19.2341 72.7318 17.1484 71.3521 15.4944C70.631 14.7633 69.7659 14.1898 68.8116 13.8103C67.8574 13.4308 66.8347 13.2535 65.8084 13.2896V13.2896ZM67.5256 24.5044C66.7877 25.3368 65.7815 25.8844 64.6818 26.0522C63.5821 26.2199 62.4584 25.9972 61.5059 25.4227C60.5533 24.8481 59.8321 23.958 59.4675 22.9071C59.103 21.8561 59.1181 20.7106 59.5102 19.6696C59.9023 18.6286 60.6466 17.7579 61.614 17.2086C62.5813 16.6593 63.7105 16.4662 64.8054 16.6629C65.9003 16.8595 66.8917 17.4334 67.6074 18.285C68.3232 19.1366 68.718 20.212 68.7233 21.3244C68.75 21.908 68.6575 22.4909 68.4516 23.0376C68.2457 23.5843 67.9306 24.0834 67.5256 24.5044Z" fill="black"/>
<path d="M87.0943 13.2889C85.8501 13.1934 84.6042 13.4523 83.5011 14.0358C82.398 14.6192 81.4828 15.5032 80.8615 16.5855V13.6387H76.3672V29.051H81.1901V21.8748C81.1341 20.6613 81.5096 19.4671 82.2501 18.5041C82.6262 18.0805 83.0935 17.7479 83.6168 17.5312C84.1401 17.3146 84.7057 17.2195 85.2711 17.2533C85.74 17.2106 86.2122 17.2851 86.6451 17.4701C87.0781 17.6551 87.4583 17.9449 87.7515 18.3133C88.3199 19.2721 88.5824 20.3814 88.5041 21.4933V29.0828H93.3165V20.0198C93.4386 18.2245 92.8868 16.448 91.7689 15.0379C91.1609 14.4279 90.4287 13.9561 89.6221 13.6543C88.8155 13.3525 87.9534 13.2279 87.0943 13.2889V13.2889Z" fill="black"/>
<path d="M105.378 13.2892C102.942 13.1562 100.535 13.8675 98.5623 15.3032C97.6967 16.0418 97.0166 16.9733 96.5766 18.0227C96.1366 19.0721 95.949 20.21 96.0289 21.3451C95.9455 22.4862 96.1357 23.6307 96.5837 24.6834C97.0317 25.7362 97.7246 26.6667 98.6047 27.3977C100.645 28.823 103.105 29.5211 105.59 29.3799H114.229V26.0515H105.59C102.919 26.0515 101.35 24.9562 100.884 22.7655H114.229V22.2356C114.229 19.1404 113.487 16.872 112.003 15.4304C110.519 13.9888 108.311 13.2751 105.378 13.2892ZM100.915 19.84C101.382 17.72 102.876 16.66 105.378 16.66C106.406 16.6081 107.42 16.9112 108.251 17.5186C108.615 17.7925 108.916 18.1416 109.134 18.5421C109.351 18.9426 109.48 19.3852 109.512 19.84H100.915Z" fill="black"/>
<path d="M123.992 9.96094L115.438 17.2537H119.169V23.8469C119.169 25.8397 119.646 27.2601 120.6 28.0869C121.913 29.0335 123.523 29.4773 125.136 29.3376C126.163 29.3322 127.188 29.2436 128.2 29.0726V25.193C127.528 25.3099 126.847 25.3702 126.165 25.3732C125.859 25.4119 125.548 25.3887 125.251 25.305C124.954 25.2212 124.677 25.0786 124.437 24.8857C124.084 24.3746 123.926 23.7541 123.992 23.1366V17.2537H128.232V13.6391H123.992V9.96094Z" fill="black"/>
<path d="M130.85 11.7103L135.969 7.58691H130.85V11.7103Z" fill="black"/>
<path d="M135.821 13.6504H130.998V29.0521H135.821V13.6504Z" fill="black"/>
<path d="M150.428 21.0808L156.661 13.6396H151.075L147.641 18.1976L144.291 13.6396H138.461L144.757 21.1974L138.111 29.0519H143.697L147.513 24.1124L151.372 29.0519H157.159L150.428 21.0808Z" fill="black"/>
</svg>
