<svg width="27" height="20" viewBox="0 0 27 20" fill="none" xmlns="http://www.w3.org/2000/svg">
<path d="M3.75 11.2499L26.25 2.30737V18.7499C26.25 19.4405 25.6906 19.9999 25 19.9999H3.75V11.2499Z" fill="url(#paint0_linear)"/>
<path d="M0 2.30737V18.7499C0 19.4405 0.559375 19.9999 1.25 19.9999H25C25.3069 19.9999 25.5844 19.8849 25.8019 19.7011L0 2.30737Z" fill="url(#paint1_linear)"/>
<path opacity="0.05" d="M0 1.875H26.25V2.9325L15.425 11.3387C14.0719 12.3894 12.1781 12.3894 10.825 11.3387L0 2.9325V1.875Z" fill="black"/>
<path opacity="0.07" d="M0 1.5625H26.25V2.62L14.9788 10.815C13.8775 11.63 12.3725 11.63 11.2712 10.815L0 2.62V1.5625Z" fill="black"/>
<path d="M1.25 0H25C25.6906 0 26.25 0.559375 26.25 1.25V2.3075L14.5325 10.2913C13.6831 10.87 12.5662 10.87 11.7175 10.2913L0 2.3075V1.25C0 0.559375 0.559375 0 1.25 0Z" fill="#50E6FF"/>
<defs>
<linearGradient id="paint0_linear" x1="11.5725" y1="6.02362" x2="26.62" y2="28.5455" gradientUnits="userSpaceOnUse">
<stop stop-color="#28AFEA"/>
<stop offset="1" stop-color="#0B88DA"/>
</linearGradient>
<linearGradient id="paint1_linear" x1="-0.995" y1="10.2561" x2="20.8319" y2="23.8524" gradientUnits="userSpaceOnUse">
<stop stop-color="#28AFEA"/>
<stop offset="1" stop-color="#0B88DA"/>
</linearGradient>
</defs>
</svg>
