<svg width="55" height="60" viewBox="0 0 55 60" fill="none" xmlns="http://www.w3.org/2000/svg">
<path d="M51.4596 18.4316L54.9957 14.9175L39.9979 -7.79884e-06L36.4618 3.51415L51.4596 18.4316Z" fill="#0C7AEB"/>
<path d="M18.533 3.51368L14.9979 0.00012207L0.000610937 14.9147L3.53566 18.4282L18.533 3.51368Z" fill="#0C7AEB"/>
<path d="M40.4289 7.45752H14.5693L7.49988 14.4866V44.7394H0V52.1957C0 56.3124 3.3592 59.6521 7.49988 59.6521H39.9984C44.1406 59.6521 47.4998 56.3124 47.4998 52.1957V14.4866L40.4289 7.45752ZM7.49988 54.6817C6.1199 54.6817 4.99942 53.567 4.99942 52.1957V49.7105H32.4992V52.1957C32.4992 53.0719 32.6792 53.8995 32.9575 54.6817H7.49988ZM42.4988 52.1957C42.4988 53.567 41.3784 54.6817 39.9999 54.6817C38.6199 54.6817 37.4994 53.567 37.4994 52.1957V44.7394H12.5001V12.4287H42.4996V52.1957H42.4988Z" fill="#424242"/>
<path d="M27.4998 17.3993H17.5002V29.8268H27.4998V17.3993Z" fill="#0C7AEB"/>
<path d="M37.4994 17.3993H32.4991V22.3701H37.4994V17.3993Z" fill="#424242"/>
<path d="M37.4994 27.3414H32.4991V39.769H37.4994V27.3414Z" fill="#0C7AEB"/>
<path d="M27.4998 34.7977H17.5002V39.7683H27.4998V34.7977Z" fill="#424242"/>
</svg>
