<svg width="68" height="60" viewBox="0 0 68 60" fill="none" xmlns="http://www.w3.org/2000/svg">
<path d="M62.9622 50.5283H4.41438C2.9623 50.5283 1.74255 49.3156 1.74255 47.8719V4.38876C1.74255 2.9451 2.9623 1.73242 4.41438 1.73242H62.9622C64.4143 1.73242 65.634 2.9451 65.634 4.38876V47.8719C65.634 49.3156 64.4143 50.5283 62.9622 50.5283Z" fill="#F7F7FB"/>
<path d="M18.0638 57.9198H18.4704C22.5363 57.9198 25.847 54.6282 25.847 50.5859H28.5188H32.2361H39.1481H41.8199C41.8199 54.6282 45.1306 57.9198 49.1964 57.9198H49.603H18.0638Z" fill="#A8B2C6"/>
<path d="M49.6031 59.6521H18.0639C17.0765 59.6521 16.3214 58.9014 16.3214 57.9197C16.3214 56.9381 17.0765 56.1874 18.0639 56.1874H49.6031C50.5905 56.1874 51.3456 56.9381 51.3456 57.9197C51.3456 58.9014 50.5905 59.6521 49.6031 59.6521Z" fill="#464C55"/>
<path d="M62.9622 50.5283H4.41438C2.9623 50.5283 1.74255 49.3156 1.74255 47.8719L1.85872 39.3254H65.634V47.8719C65.634 49.3156 64.4143 50.5283 62.9622 50.5283Z" fill="#0C7AEB"/>
<path d="M62.9623 52.2607H4.41433C1.97483 52.2607 0 50.2973 0 47.8719V4.38874C0 1.96338 1.97483 0 4.41433 0H62.9623C65.4018 0 67.3766 1.96338 67.3766 4.38874V47.8719C67.3766 50.2973 65.4018 52.2607 62.9623 52.2607ZM4.41433 3.4648C3.89158 3.4648 3.485 3.86902 3.485 4.38874V47.8719C3.485 48.3917 3.89158 48.7959 4.41433 48.7959H62.9623C63.485 48.7959 63.8916 48.3917 63.8916 47.8719V4.38874C63.8916 3.86902 63.485 3.4648 62.9623 3.4648H4.41433Z" fill="#464C55"/>
<path d="M33.6883 47.0056C32.5847 47.0056 31.6554 46.0817 31.6554 44.9845C31.6554 43.8873 32.5847 42.9634 33.6883 42.9634C34.7919 42.9634 35.7212 43.8873 35.7212 44.9845C35.7212 46.0817 34.7919 47.0056 33.6883 47.0056Z" fill="white"/>
</svg>
