<svg width="60" height="60" viewBox="0 0 60 60" fill="none" xmlns="http://www.w3.org/2000/svg">
<path d="M56.25 36.5625H42.1875V25.7006L57.4284 10.4597C58.4822 9.40594 59.0625 8.00531 59.0625 6.51562C59.0625 3.43969 56.5603 0.9375 53.4844 0.9375C51.9947 0.9375 50.5941 1.51781 49.5403 2.57063L42.1875 9.92344V7.5C42.1875 4.91531 40.0847 2.8125 37.5 2.8125H30.765C30.3769 1.72406 29.3456 0.9375 28.125 0.9375H15C13.7794 0.9375 12.7481 1.72406 12.36 2.8125H5.625C3.04031 2.8125 0.9375 4.91531 0.9375 7.5V46.875C0.9375 49.4597 3.04031 51.5625 5.625 51.5625H30.9375V56.25C30.9375 57.8006 32.1994 59.0625 33.75 59.0625H56.25C57.8006 59.0625 59.0625 57.8006 59.0625 56.25V39.375C59.0625 37.8244 57.8006 36.5625 56.25 36.5625ZM45.9375 40.3125V42.1875H44.0625V40.3125H42.1875V42.1875H40.3125V38.4375H49.6875V42.1875H47.8125V40.3125H45.9375ZM30.9375 39.375V45.9375H6.5625V8.4375H12.36C12.7481 9.52594 13.7794 10.3125 15 10.3125H28.125C29.3456 10.3125 30.3769 9.52594 30.765 8.4375H36.5625V15.5494L26.3812 25.7306L23.5988 33.15C23.4919 33.4341 23.4375 33.7322 23.4375 34.0378C23.4375 35.43 24.57 36.5625 25.9622 36.5625C26.2669 36.5625 26.5659 36.5081 26.8481 36.4022L34.2684 33.6188L36.5625 31.3256V36.5625H33.75C32.1994 36.5625 30.9375 37.8244 30.9375 39.375ZM33.75 31.4869L31.7944 29.5312L47.3438 13.9819L49.2994 15.9375L33.75 31.4869ZM27.5541 27.9422L32.0578 32.4459L26.1891 34.6472C25.7916 34.7944 25.3125 34.4738 25.3125 34.0378C25.3125 33.9591 25.3266 33.8831 25.3538 33.8109L27.5541 27.9422ZM45.3881 9.375L46.875 7.88812L52.1119 13.125L50.625 14.6119L45.3881 9.375ZM46.0181 12.6562L30.4688 28.2056L28.5131 26.25L44.0625 10.7006L46.0181 12.6562ZM40.3125 36.5625H38.4375V29.4506L40.3125 27.5756V36.5625ZM50.8659 3.89719C51.5653 3.19781 52.4953 2.8125 53.4844 2.8125C55.5262 2.8125 57.1875 4.47375 57.1875 6.51562C57.1875 7.50469 56.8022 8.43469 56.1028 9.13406L53.4375 11.7994L48.2006 6.5625L50.8659 3.89719ZM40.3125 7.5V11.7984L38.4375 13.6734V8.4375C38.4375 7.40344 37.5966 6.5625 36.5625 6.5625H30.9375V4.6875H37.5C39.0506 4.6875 40.3125 5.94938 40.3125 7.5ZM14.0625 3.75C14.0625 3.23344 14.4825 2.8125 15 2.8125H28.125C28.6425 2.8125 29.0625 3.23344 29.0625 3.75V7.5C29.0625 8.01656 28.6425 8.4375 28.125 8.4375H15C14.4825 8.4375 14.0625 8.01656 14.0625 7.5V3.75ZM5.625 49.6875C4.07437 49.6875 2.8125 48.4256 2.8125 46.875V7.5C2.8125 5.94938 4.07437 4.6875 5.625 4.6875H12.1875V6.5625H6.5625C5.52844 6.5625 4.6875 7.40344 4.6875 8.4375V45.9375C4.6875 46.9716 5.52844 47.8125 6.5625 47.8125H30.9375V49.6875H5.625ZM57.1875 56.25C57.1875 56.7675 56.7675 57.1875 56.25 57.1875H33.75C33.2325 57.1875 32.8125 56.7675 32.8125 56.25V39.375C32.8125 38.8575 33.2325 38.4375 33.75 38.4375H38.4375V44.0625H51.5625V38.4375H56.25C56.7675 38.4375 57.1875 38.8575 57.1875 39.375V56.25Z" fill="#CD1E19"/>
<path d="M45.9375 53.4375H47.8125V55.3125H45.9375V53.4375Z" fill="#CD1E19"/>
<path d="M53.4375 53.4375H55.3125V55.3125H53.4375V53.4375Z" fill="#CD1E19"/>
<path d="M49.6875 53.4375H51.5625V55.3125H49.6875V53.4375Z" fill="#CD1E19"/>
<path d="M45.9375 49.6875H55.3125V51.5625H45.9375V49.6875Z" fill="#CD1E19"/>
<path d="M19.0247 10.5859L17.4244 12.1862H8.4375V21.5612H17.8125V14.4494L20.3503 11.9116L19.0247 10.5859ZM15.9375 19.6862H10.3125V14.0612H15.5494L13.125 16.4856L11.9128 15.2734L10.5872 16.5991L13.125 19.1369L15.9375 16.3244V19.6862Z" fill="#CD1E19"/>
<path d="M8.4375 32.8125H17.8125V23.4375H8.4375V32.8125ZM10.3125 25.3125H15.9375V30.9375H10.3125V25.3125Z" fill="#CD1E19"/>
<path d="M8.4375 44.0625H17.8125V34.6875H8.4375V44.0625ZM10.3125 36.5625H15.9375V42.1875H10.3125V36.5625Z" fill="#CD1E19"/>
<path d="M21.5625 12.1875H29.0625V14.0625H21.5625V12.1875Z" fill="#CD1E19"/>
<path d="M21.5625 15.9375H29.0625V17.8125H21.5625V15.9375Z" fill="#CD1E19"/>
<path d="M21.5625 19.6875H29.0625V21.5625H21.5625V19.6875Z" fill="#CD1E19"/>
<path d="M21.5625 38.4375H29.0625V40.3125H21.5625V38.4375Z" fill="#CD1E19"/>
<path d="M21.5625 42.1875H29.0625V44.0625H21.5625V42.1875Z" fill="#CD1E19"/>
</svg>
