<svg width="60" height="60" viewBox="0 0 60 60" fill="none" xmlns="http://www.w3.org/2000/svg">
<path d="M55 0H5C2.23858 0 0 2.23858 0 5V55C0 57.7614 2.23858 60 5 60H55C57.7614 60 60 57.7614 60 55V5C60 2.23858 57.7614 0 55 0Z" fill="#CD1E19"/>
<g clip-path="url(#clip0)">
<path d="M36.9677 32.8671C36.4763 32.3555 35.8837 32.082 35.2556 32.082C34.6326 32.082 34.0348 32.3505 33.5232 32.8621L31.9226 34.4576C31.7909 34.3867 31.6592 34.3209 31.5326 34.255C31.3502 34.1639 31.178 34.0777 31.0311 33.9866C29.5317 33.0343 28.1691 31.7933 26.8623 30.1875C26.2291 29.3872 25.8036 28.7135 25.4946 28.0297C25.91 27.6498 26.295 27.2547 26.6698 26.8748C26.8116 26.733 26.9535 26.5861 27.0953 26.4442C28.159 25.3805 28.159 24.0027 27.0953 22.939L25.7125 21.5562C25.5554 21.3991 25.3933 21.237 25.2414 21.0749C24.9375 20.7609 24.6183 20.4367 24.2891 20.1328C23.7977 19.6465 23.2102 19.3882 22.5922 19.3882C21.9742 19.3882 21.3765 19.6465 20.87 20.1328C20.8649 20.1379 20.8649 20.1379 20.8598 20.1429L19.1376 21.8803C18.4892 22.5287 18.1195 23.3189 18.0384 24.2357C17.9169 25.7148 18.3525 27.0926 18.6868 27.9942C19.5074 30.2078 20.7332 32.2593 22.5618 34.4576C24.7804 37.1068 27.4499 39.1988 30.4992 40.6728C31.6643 41.225 33.2193 41.8784 34.9567 41.9898C35.0631 41.9949 35.1745 42 35.2759 42C36.446 42 37.4286 41.5795 38.1986 40.7438C38.2036 40.7336 38.2138 40.7286 38.2188 40.7184C38.4822 40.3993 38.7862 40.1106 39.1053 39.8016C39.3231 39.5939 39.546 39.3761 39.7638 39.1482C40.2652 38.6264 40.5286 38.0186 40.5286 37.3956C40.5286 36.7674 40.2602 36.1647 39.7486 35.6581L36.9677 32.8671ZM38.7811 38.2009C38.776 38.2009 38.776 38.206 38.7811 38.2009C38.5835 38.4137 38.3809 38.6062 38.1631 38.8189C37.8339 39.133 37.4995 39.4622 37.1855 39.832C36.6739 40.3791 36.0711 40.6374 35.2809 40.6374C35.2049 40.6374 35.1239 40.6374 35.0479 40.6323C33.5435 40.5361 32.1455 39.9485 31.0969 39.447C28.2299 38.0591 25.7125 36.0887 23.6205 33.5915C21.8932 31.5096 20.7383 29.5848 19.9734 27.5181C19.5023 26.2568 19.3301 25.2741 19.4061 24.3472C19.4567 23.7545 19.6847 23.2632 20.1051 22.8428L21.8324 21.1155C22.0806 20.8825 22.344 20.7558 22.6023 20.7558C22.9214 20.7558 23.1798 20.9483 23.3419 21.1104C23.3469 21.1155 23.352 21.1205 23.357 21.1256C23.666 21.4143 23.9598 21.7132 24.2688 22.0323C24.4258 22.1944 24.5879 22.3565 24.75 22.5236L26.1329 23.9065C26.6698 24.4434 26.6698 24.9398 26.1329 25.4767C25.986 25.6236 25.8441 25.7705 25.6972 25.9124C25.2718 26.348 24.8665 26.7532 24.4258 27.1483C24.4157 27.1585 24.4056 27.1635 24.4005 27.1736C23.9649 27.6093 24.0459 28.0348 24.1371 28.3235C24.1422 28.3387 24.1472 28.3539 24.1523 28.3691C24.512 29.2403 25.0185 30.0609 25.7884 31.0385L25.7935 31.0436C27.1915 32.7658 28.6656 34.1081 30.2915 35.1364C30.4992 35.2681 30.712 35.3745 30.9146 35.4758C31.0969 35.567 31.2692 35.6531 31.416 35.7442C31.4363 35.7544 31.4566 35.7696 31.4768 35.7797C31.6491 35.8658 31.8111 35.9063 31.9783 35.9063C32.3987 35.9063 32.6621 35.6429 32.7482 35.5568L34.4806 33.8245C34.6528 33.6522 34.9263 33.4446 35.2455 33.4446C35.5595 33.4446 35.8178 33.6421 35.9749 33.8143C35.9799 33.8194 35.9799 33.8194 35.985 33.8245L38.776 36.6155C39.2978 37.1322 39.2978 37.664 38.7811 38.2009Z" fill="white"/>
<path d="M30.9701 23.7086C32.2972 23.9315 33.5028 24.5596 34.4652 25.522C35.4276 26.4844 36.0507 27.69 36.2786 29.0171C36.3343 29.3514 36.6231 29.5844 36.9523 29.5844C36.9928 29.5844 37.0283 29.5793 37.0688 29.5743C37.4436 29.5135 37.6919 29.1589 37.6311 28.7841C37.3575 27.1784 36.5977 25.7145 35.4378 24.5545C34.2778 23.3945 32.8139 22.6347 31.2082 22.3612C30.8333 22.3004 30.4838 22.5486 30.418 22.9184C30.3521 23.2882 30.5953 23.6478 30.9701 23.7086Z" fill="white"/>
<path d="M41.9723 28.5869C41.5215 25.9428 40.2754 23.5367 38.3607 21.622C36.446 19.7073 34.04 18.4612 31.3958 18.0104C31.0261 17.9446 30.6766 18.1978 30.6107 18.5676C30.5499 18.9425 30.7981 19.292 31.173 19.3578C33.5334 19.758 35.6862 20.8774 37.3983 22.5844C39.1104 24.2965 40.2248 26.4493 40.6249 28.8098C40.6807 29.1441 40.9694 29.3771 41.2986 29.3771C41.3392 29.3771 41.3746 29.372 41.4151 29.367C41.7849 29.3113 42.0382 28.9567 41.9723 28.5869Z" fill="white"/>
</g>
<defs>
<clipPath id="clip0">
<rect width="24" height="24" fill="white" transform="translate(18 18)"/>
</clipPath>
</defs>
</svg>
