<svg width="60" height="60" viewBox="0 0 60 60" fill="none" xmlns="http://www.w3.org/2000/svg">
<g clip-path="url(#clip0)">
<path d="M19.1645 47.1695C18.7985 46.8506 18.2434 46.8887 17.9244 47.2548C17.6695 47.5474 17.3016 47.7152 16.9147 47.7152C16.5279 47.7152 16.1598 47.5474 15.9048 47.2547C15.5857 46.8888 15.0305 46.8507 14.6647 47.1696C14.2989 47.4886 14.2607 48.0437 14.5795 48.4097C15.1685 49.0855 16.0196 49.473 16.9147 49.473C17.8099 49.473 18.6609 49.0854 19.2499 48.4096C19.5687 48.0435 19.5305 47.4884 19.1645 47.1695ZM10.5709 45.8536C10.0854 45.8536 9.69199 46.2471 9.69199 46.7325V47.7855C9.69199 48.2709 10.0854 48.6645 10.5709 48.6645C11.0564 48.6645 11.4498 48.2709 11.4498 47.7855V46.7325C11.4498 46.2471 11.0564 45.8536 10.5709 45.8536ZM27.2468 35.2112H30.1854C30.6709 35.2112 31.0643 34.8177 31.0643 34.3323C31.0643 33.8469 30.6709 33.4534 30.1854 33.4534H27.2468C26.7613 33.4534 26.3679 33.8469 26.3679 34.3323C26.3679 34.8177 26.7613 35.2112 27.2468 35.2112ZM23.2584 45.8536C22.7729 45.8536 22.3795 46.2471 22.3795 46.7325V47.7855C22.3795 48.2709 22.7729 48.6645 23.2584 48.6645C23.7439 48.6645 24.1373 48.2709 24.1373 47.7855V46.7325C24.1373 46.2471 23.7438 45.8536 23.2584 45.8536ZM52.2019 11.477V8.66789H53.0685C54.1489 8.66789 55.0279 7.78898 55.0279 6.70852V4.15348C55.0279 3.1527 54.6669 2.1859 54.0114 1.43098C53.6931 1.06441 53.138 1.02551 52.7714 1.34355C52.405 1.66184 52.3658 2.21695 52.6841 2.58352C53.062 3.01863 53.27 3.57621 53.27 4.15348V6.70852C53.27 6.81973 53.1796 6.91008 53.0685 6.91008H50.8089V4.9357C50.8089 4.45031 50.4155 4.0568 49.93 4.0568C49.4445 4.0568 49.0511 4.45031 49.0511 4.9357V6.91008H43.9643V4.9357C43.9643 4.45031 43.5709 4.0568 43.0854 4.0568C42.5999 4.0568 42.2065 4.45031 42.2065 4.9357V6.91008H37.1197V4.9357C37.1197 4.45031 36.7263 4.0568 36.2408 4.0568C35.7553 4.0568 35.3619 4.45031 35.3619 4.9357V6.91008H33.1023C32.9912 6.91008 32.9007 6.81973 32.9007 6.70852V4.15348C32.9007 2.83242 33.9755 1.75781 35.2963 1.75781H49.5339C50.0194 1.75781 50.4128 1.3643 50.4128 0.878906C50.4128 0.393516 50.0194 0 49.5339 0H35.2962C33.006 0 31.1428 1.86316 31.1428 4.15348V6.70852C31.1428 7.78898 32.0217 8.66789 33.1022 8.66789H33.9688V11.4797C32.3784 11.7312 30.8665 12.3946 29.6073 13.4121C28.2391 14.5178 27.2134 16.001 26.6555 17.6542C26.4496 17.6071 26.2419 17.5649 26.0312 17.5318V14.7226H26.8979C27.9784 14.7226 28.8573 13.8436 28.8573 12.7632V10.2084C28.8573 7.91824 26.9941 6.05496 24.7039 6.05496H9.12563C6.83543 6.05496 4.97227 7.91812 4.97227 10.2084V12.7635C4.97227 13.8439 5.85117 14.7229 6.93164 14.7229H7.79824V17.5321C3.38613 18.2235 0 22.0499 0 26.653V55.002C0 57.4488 1.74867 59.5212 4.15781 59.9296C4.63676 60.011 5.09004 59.6884 5.17113 59.2099C5.25223 58.7313 4.92996 58.2776 4.45137 58.1965C2.89066 57.9319 1.75781 56.5883 1.75781 55.002V54.681H32.0715V55.002C32.0715 56.7887 30.6179 58.2422 28.8313 58.2422H8.47523C7.98973 58.2422 7.59633 58.6357 7.59633 59.1211C7.59633 59.6065 7.98973 60 8.47523 60H28.8312C31.5872 60 33.8292 57.7579 33.8292 55.002V53.945H55.002C57.758 53.945 60 51.7029 60 48.9469V20.598C60 15.9949 56.6139 12.1685 52.2019 11.477ZM35.7266 8.66789H50.4441V11.3648H35.7266V8.66789ZM6.93152 12.965C6.82043 12.965 6.72996 12.8746 6.72996 12.7635V10.2084C6.72996 8.8875 7.80469 7.81277 9.12551 7.81277H24.7037C26.0245 7.81277 27.0993 8.8875 27.0993 10.2084V12.7635C27.0993 12.8747 27.0089 12.965 26.8977 12.965H24.6381V10.9907C24.6381 10.5053 24.2447 10.1118 23.7592 10.1118C23.2737 10.1118 22.8803 10.5053 22.8803 10.9907V12.965H17.7935V10.9907C17.7935 10.5053 17.4001 10.1118 16.9146 10.1118C16.4291 10.1118 16.0357 10.5053 16.0357 10.9907V12.965H10.9491V10.9907C10.9491 10.5053 10.5557 10.1118 10.0702 10.1118C9.58465 10.1118 9.19125 10.5053 9.19125 10.9907V12.965H6.93152ZM24.2734 14.7229V17.4199H9.55594V14.7229H24.2734ZM32.0715 52.923H1.75781V29.4555H8.46879V36.1437C8.46879 40.8008 12.2576 44.5896 16.9147 44.5896C21.5719 44.5896 25.3607 40.8007 25.3607 36.1437V29.4555H32.0715V52.923ZM10.2266 36.1436V29.4554H23.603V36.1436C23.603 39.8314 20.6026 42.8317 16.9148 42.8317C13.2268 42.8318 10.2266 39.8314 10.2266 36.1436ZM32.0715 27.6977H1.75781V26.653C1.75781 22.5312 5.11113 19.1777 9.23309 19.1777H24.5963C28.7182 19.1777 32.0715 22.5312 32.0715 26.653V27.6977ZM58.2422 48.9469C58.2422 50.7336 56.7886 52.1872 55.002 52.1872H33.8293V48.6259H58.2422V48.9469ZM58.2422 46.8681H33.8293V26.653C33.8293 25.5086 33.6185 24.4127 33.2361 23.4005H34.6393V30.0886C34.6393 34.7457 38.4281 38.5345 43.0853 38.5345C47.7424 38.5345 51.5312 34.7456 51.5312 30.0886V23.4005H58.2422V46.8681ZM36.3971 30.0886V23.4005H49.7735V30.0886C49.7735 33.7765 46.7732 36.7767 43.0854 36.7767C39.3974 36.7768 36.3971 33.7765 36.3971 30.0886ZM58.2422 21.6427H32.3455C31.3714 20.1414 29.9743 18.94 28.3232 18.2085C28.7753 16.8728 29.6053 15.6739 30.7123 14.7795C31.926 13.7985 33.3704 13.2379 34.915 13.1399C34.9235 13.1392 34.9322 13.1392 34.9406 13.1382C35.0941 13.129 35.2484 13.1228 35.4038 13.1228H50.7669C54.8889 13.1228 58.2422 16.4762 58.2422 20.5982V21.6427ZM6.58254 33.4534H3.64406C3.15855 33.4534 2.76516 33.8469 2.76516 34.3323C2.76516 34.8177 3.15855 35.2112 3.64406 35.2112H6.58254C7.06805 35.2112 7.46145 34.8177 7.46145 34.3323C7.46145 33.8469 7.06793 33.4534 6.58254 33.4534ZM40.1184 31.3687H39.0109C38.5254 31.3687 38.132 31.7623 38.132 32.2477C38.132 32.733 38.5254 33.1266 39.0109 33.1266H40.1184C41.2841 33.1266 42.2325 32.1782 42.2325 31.0124C42.2325 30.5517 42.0843 30.1248 41.8332 29.7772C42.0844 29.4295 42.2325 29.0027 42.2325 28.542C42.2325 27.3762 41.2841 26.4279 40.1184 26.4279H39.0109C38.5254 26.4279 38.132 26.8214 38.132 27.3068C38.132 27.7922 38.5254 28.1857 39.0109 28.1857H40.1184C40.315 28.1857 40.4747 28.3455 40.4747 28.542C40.4747 28.7385 40.315 28.8983 40.1184 28.8983H39.5725C39.087 28.8983 38.6936 29.2918 38.6936 29.7772C38.6936 30.2626 39.087 30.6561 39.5725 30.6561H40.1184C40.315 30.6561 40.4747 30.816 40.4747 31.0124C40.4747 31.2089 40.315 31.3687 40.1184 31.3687ZM53.4175 29.1562H56.3559C56.8414 29.1562 57.2348 28.7627 57.2348 28.2773C57.2348 27.792 56.8414 27.3984 56.3559 27.3984H53.4175C52.932 27.3984 52.5386 27.792 52.5386 28.2773C52.5386 28.7627 52.932 29.1562 53.4175 29.1562ZM36.7416 39.7985C36.2561 39.7985 35.8627 40.192 35.8627 40.6774V41.7305C35.8627 42.2159 36.2561 42.6094 36.7416 42.6094C37.2271 42.6094 37.6205 42.2159 37.6205 41.7305V40.6774C37.6205 40.192 37.2271 39.7985 36.7416 39.7985ZM45.3353 41.1146C44.9693 40.7955 44.4143 40.8338 44.0952 41.1997C43.8401 41.4923 43.4721 41.6603 43.0853 41.6603C42.6984 41.6603 42.3305 41.4925 42.0755 41.1998C41.7566 40.8339 41.2014 40.7958 40.8355 41.1146C40.4695 41.4335 40.4313 41.9886 40.7503 42.3547C41.3392 43.0305 42.1903 43.4182 43.0854 43.4182C43.9804 43.4182 44.8315 43.0307 45.4205 42.3548C45.7393 41.9888 45.7013 41.4335 45.3353 41.1146ZM44.2826 33.1266H45.1447C46.0516 33.1266 46.8922 32.6752 47.3934 31.9192C48.2558 30.6179 48.2558 28.9364 47.3934 27.6353C46.8925 26.8792 46.0518 26.4278 45.1447 26.4278H44.2826C43.5042 26.4278 42.8708 27.0611 42.8708 27.8395V31.7147C42.8708 32.4933 43.5041 33.1266 44.2826 33.1266ZM44.6286 28.1857H45.1446C45.4605 28.1857 45.7534 28.343 45.928 28.6064C46.3995 29.3176 46.3995 30.2368 45.9279 30.948C45.7534 31.2115 45.4605 31.3687 45.1445 31.3687H44.6285L44.6286 28.1857ZM49.4291 39.7985C48.9436 39.7985 48.5502 40.192 48.5502 40.6774V41.7305C48.5502 42.2159 48.9436 42.6094 49.4291 42.6094C49.9146 42.6094 50.308 42.2159 50.308 41.7305V40.6774C50.308 40.192 49.9146 39.7985 49.4291 39.7985ZM13.9478 37.4237H12.8404C12.3548 37.4237 11.9614 37.8172 11.9614 38.3026C11.9614 38.788 12.3548 39.1815 12.8404 39.1815H13.9478C15.1136 39.1815 16.062 38.2331 16.062 37.0675C16.062 36.6068 15.9137 36.1799 15.6627 35.8323C15.9138 35.4846 16.062 35.0578 16.062 34.597C16.062 33.4312 15.1136 32.483 13.9478 32.483H12.8404C12.3548 32.483 11.9614 32.8765 11.9614 33.3619C11.9614 33.8473 12.3548 34.2408 12.8404 34.2408H13.9478C14.1443 34.2408 14.3041 34.4006 14.3041 34.597C14.3041 34.7936 14.1443 34.9534 13.9478 34.9534H13.4018C12.9164 34.9534 12.5229 35.3469 12.5229 35.8323C12.5229 36.3177 12.9164 36.7112 13.4018 36.7112H13.9478C14.1443 36.7112 14.3041 36.8711 14.3041 37.0675C14.3041 37.2639 14.1442 37.4237 13.9478 37.4237ZM18.1119 39.1815H18.9739C19.881 39.1815 20.7216 38.7301 21.2227 37.9741C22.0849 36.673 22.0848 34.9915 21.2227 33.6903C20.7217 32.9343 19.881 32.4829 18.9739 32.4829H18.1119C17.3334 32.4829 16.7003 33.1161 16.7003 33.8946V37.7699C16.7003 38.5482 17.3334 39.1815 18.1119 39.1815ZM18.4581 34.2407H18.9739C19.2899 34.2407 19.5829 34.3979 19.7575 34.6614C20.2288 35.3726 20.2288 36.2918 19.7575 37.003C19.583 37.2664 19.2901 37.4237 18.9739 37.4237H18.4581V34.2407Z" fill="#CD1E19"/>
</g>
<defs>
<clipPath id="clip0">
<rect width="60" height="60" fill="white"/>
</clipPath>
</defs>
</svg>
