<svg width="60" height="60" viewBox="0 0 60 60" fill="none" xmlns="http://www.w3.org/2000/svg">
<g clip-path="url(#clip0)">
<path d="M59 0.5H3C2.44775 0.5 2 0.94775 2 1.5V11.5H4V2.5H12V7.5C12 8.05225 12.4478 8.5 13 8.5H21C21.5522 8.5 22 8.05225 22 7.5V2.5H30V11.5H32V2.5H40V7.5C40 8.05225 40.4478 8.5 41 8.5H49C49.5522 8.5 50 8.05225 50 7.5V2.5H58V20.5H41C40.4478 20.5 40 20.9478 40 21.5V27.5C40 28.0523 40.4478 28.5 41 28.5H49C49.5522 28.5 50 28.0523 50 27.5V22.5H58V40.5H47V42.5H59C59.5522 42.5 60 42.0523 60 41.5V1.5C60 0.94775 59.5522 0.5 59 0.5ZM20 6.5H14V2.5H20V6.5ZM48 6.5H42V2.5H48V6.5ZM48 26.5H42V22.5H48V26.5Z" fill="#CD1E19"/>
<path d="M54 16.5H56V18.5H54V16.5Z" fill="#CD1E19"/>
<path d="M50 16.5H52V18.5H50V16.5Z" fill="#CD1E19"/>
<path d="M54 36.5H56V38.5H54V36.5Z" fill="#CD1E19"/>
<path d="M50 36.5H52V38.5H50V36.5Z" fill="#CD1E19"/>
<path d="M45 38.5C44.9975 36.2919 43.2081 34.5025 41 34.5H38V14.5C38 13.9478 37.5523 13.5 37 13.5H1C0.44775 13.5 0 13.9478 0 14.5V58.5C0 59.0523 0.44775 59.5 1 59.5H37C37.5523 59.5 38 59.0523 38 58.5V55.9141L41.2929 59.2071L42.7071 57.7929L36.7071 51.7929C34.8916 49.973 34.8916 47.027 36.7071 45.2071C37.0976 44.8166 37.0976 44.1835 36.7071 43.7929L32.2071 39.2929C31.7693 38.855 31.7693 38.145 32.2071 37.7071C32.645 37.2693 33.355 37.2693 33.7929 37.7071L38.2929 42.2071L39.7071 40.7929L38 39.0859V36.5H41C42.104 36.5013 42.9988 37.396 43 38.5V47.5C43 47.7653 43.1054 48.0196 43.2929 48.2071L48.2929 53.2071L49.7071 51.7929L45 47.0859V38.5ZM13 15.5H25V19C25 19.2761 24.7761 19.5 24.5 19.5H13.5C13.2239 19.5 13 19.2761 13 19V15.5ZM35.2071 36.2929C33.9935 35.0686 32.0171 35.06 30.7929 36.2738C29.5686 37.4874 29.56 39.4638 30.7738 40.688C30.7801 40.6944 30.7865 40.7008 30.7929 40.7071L34.6388 44.553C32.6925 47.2043 32.9703 50.8785 35.2929 53.2071L36 53.9141V57.5H2V15.5H11V17.5H5C4.44775 17.5 4 17.9478 4 18.5V54.5C4 55.0523 4.44775 55.5 5 55.5H33V53.5H6V19.5H11.05C11.2891 20.6633 12.3124 21.4986 13.5 21.5H24.5C25.6876 21.4986 26.7109 20.6633 26.95 19.5H32V33.5H34V18.5C34 17.9478 33.5523 17.5 33 17.5H27V15.5H36V37.0859L35.2071 36.2929Z" fill="#CD1E19"/>
<path d="M11.0001 29.086L9.70722 27.793L8.29297 29.2072L10.293 31.2072C10.6835 31.5977 11.3166 31.5977 11.7072 31.2072L15.7072 27.2072L14.293 25.793L11.0001 29.086Z" fill="#CD1E19"/>
<path d="M11.0001 37.086L9.70722 35.793L8.29297 37.2072L10.293 39.2072C10.6835 39.5977 11.3166 39.5977 11.7072 39.2072L15.7072 35.2072L14.293 33.793L11.0001 37.086Z" fill="#CD1E19"/>
<path d="M11.0001 45.086L9.70722 43.793L8.29297 45.2072L10.293 47.2072C10.6835 47.5977 11.3166 47.5977 11.7072 47.2072L15.7072 43.2072L14.293 41.793L11.0001 45.086Z" fill="#CD1E19"/>
<path d="M18 25.5H29V27.5H18V25.5Z" fill="#CD1E19"/>
<path d="M18 29.5H27V31.5H18V29.5Z" fill="#CD1E19"/>
<path d="M18 33.5H29V35.5H18V33.5Z" fill="#CD1E19"/>
<path d="M18 37.5H27V39.5H18V37.5Z" fill="#CD1E19"/>
<path d="M18 41.5H29V43.5H18V41.5Z" fill="#CD1E19"/>
<path d="M18 45.5H27V47.5H18V45.5Z" fill="#CD1E19"/>
</g>
<defs>
<clipPath id="clip0">
<rect width="60" height="60" fill="white"/>
</clipPath>
</defs>
</svg>
