<svg width="60" height="60" viewBox="0 0 60 60" fill="none" xmlns="http://www.w3.org/2000/svg">
<path d="M54.375 0.9375H9.375C6.79031 0.9375 4.6875 3.04031 4.6875 5.625V42.1875H3.75C2.19937 42.1875 0.9375 43.4494 0.9375 45V56.25C0.9375 57.8006 2.19937 59.0625 3.75 59.0625H18.75C20.3006 59.0625 21.5625 57.8006 21.5625 56.25V51.5625H54.375C56.9597 51.5625 59.0625 49.4597 59.0625 46.875V5.625C59.0625 3.04031 56.9597 0.9375 54.375 0.9375ZM44.0625 45.9375V43.89C44.3569 43.995 44.67 44.0625 45 44.0625C46.5506 44.0625 47.8125 42.8006 47.8125 41.25V15C47.8125 13.4494 46.5506 12.1875 45 12.1875C44.67 12.1875 44.3569 12.255 44.0625 12.36V10.3125H57.1875V45.9375H44.0625ZM29.0625 45.9375H25.14C25.245 45.6431 25.3125 45.33 25.3125 45V37.5C25.3125 37.17 25.245 36.8569 25.14 36.5625H28.125C28.455 36.5625 28.7681 36.495 29.0625 36.39V45.9375ZM18.75 42.1875H10.3125V37.5C10.3125 36.9825 10.7334 36.5625 11.25 36.5625H14.0625V40.3125H19.6875V36.5625H22.5C23.0166 36.5625 23.4375 36.9825 23.4375 37.5V45C23.4375 45.5175 23.0166 45.9375 22.5 45.9375H21.5625V45C21.5625 43.4494 20.3006 42.1875 18.75 42.1875ZM10.3125 45.9375V47.8125H8.4375V44.0625H14.0625V47.8125H12.1875V45.9375H10.3125ZM22.5 34.6875H16.875C16.3584 34.6875 15.9375 34.2675 15.9375 33.75V26.25C15.9375 25.7334 16.3584 25.3125 16.875 25.3125H19.6875V29.0625H25.3125V25.3125H28.125C28.6416 25.3125 29.0625 25.7334 29.0625 26.25V33.75C29.0625 34.2675 28.6416 34.6875 28.125 34.6875H22.5ZM15.9375 22.5V15C15.9375 14.4834 16.3584 14.0625 16.875 14.0625H19.6875V17.8125H25.3125V14.0625H28.125C28.6416 14.0625 29.0625 14.4834 29.0625 15V22.5C29.0625 23.0166 28.6416 23.4375 28.125 23.4375H16.875C16.3584 23.4375 15.9375 23.0166 15.9375 22.5ZM21.5625 14.0625H23.4375V15.9375H21.5625V14.0625ZM21.5625 25.3125H23.4375V27.1875H21.5625V25.3125ZM15.9375 36.5625H16.875H17.8125V38.4375H15.9375V36.5625ZM29.0625 12.36C28.7681 12.255 28.455 12.1875 28.125 12.1875H16.875C15.3244 12.1875 14.0625 13.4494 14.0625 15V22.5C14.0625 23.2228 14.3447 23.8762 14.7937 24.375C14.3438 24.8738 14.0625 25.5272 14.0625 26.25V33.75C14.0625 34.08 14.13 34.3931 14.235 34.6875H11.25C10.92 34.6875 10.6069 34.755 10.3125 34.86V10.3125H29.0625V12.36ZM30.9375 33.75V26.25V22.5V15V10.0819L42.1875 6.86719V15V41.25V49.3819L30.9375 46.1681V33.75ZM44.0625 15C44.0625 14.4834 44.4834 14.0625 45 14.0625C45.5166 14.0625 45.9375 14.4834 45.9375 15V41.25C45.9375 41.7675 45.5166 42.1875 45 42.1875C44.4834 42.1875 44.0625 41.7675 44.0625 41.25V15ZM44.0625 8.4375V6.5625H57.1875V8.4375H44.0625ZM9.375 2.8125H54.375C55.5956 2.8125 56.6269 3.59906 57.015 4.6875H6.735C7.12313 3.59906 8.15438 2.8125 9.375 2.8125ZM6.5625 6.5625H36.4313L29.8688 8.4375H8.4375V37.5V42.1875H6.5625V6.5625ZM19.6875 56.25C19.6875 56.7675 19.2666 57.1875 18.75 57.1875H3.75C3.23344 57.1875 2.8125 56.7675 2.8125 56.25V45C2.8125 44.4825 3.23344 44.0625 3.75 44.0625H6.5625V49.6875H15.9375V44.0625H18.75C19.2666 44.0625 19.6875 44.4825 19.6875 45V56.25ZM21.5625 47.8125H22.5H29.8697L36.4313 49.6875H21.5625V47.8125ZM54.375 49.6875H44.0625V47.8125H57.015C56.6269 48.9009 55.5956 49.6875 54.375 49.6875Z" fill="#C1262C"/>
<path d="M52.5 12.1875C50.9494 12.1875 49.6875 13.4494 49.6875 15V41.25C49.6875 42.8006 50.9494 44.0625 52.5 44.0625C54.0506 44.0625 55.3125 42.8006 55.3125 41.25V15C55.3125 13.4494 54.0506 12.1875 52.5 12.1875ZM53.4375 41.25C53.4375 41.7675 53.0166 42.1875 52.5 42.1875C51.9834 42.1875 51.5625 41.7675 51.5625 41.25V15C51.5625 14.4834 51.9834 14.0625 52.5 14.0625C53.0166 14.0625 53.4375 14.4834 53.4375 15V41.25Z" fill="#C1262C"/>
</svg>
