<svg width="60" height="60" viewBox="0 0 60 60" fill="none" xmlns="http://www.w3.org/2000/svg">
<path d="M11.1028 34.7091C10.0696 35.322 9.375 36.4484 9.375 37.7344C9.375 39.6729 10.9521 41.25 12.8906 41.25C14.4183 41.25 15.7209 40.2702 16.2047 38.9062H25.3125C27.251 38.9062 28.8281 40.4834 28.8281 42.4219C28.8281 44.3604 27.251 45.9375 25.3125 45.9375H11.25C8.01914 45.9375 5.39062 48.566 5.39062 51.7969C5.39062 55.0277 8.01914 57.6562 11.25 57.6562H22.9688C23.616 57.6562 24.1406 57.1316 24.1406 56.4844C24.1406 55.8371 23.616 55.3125 22.9688 55.3125H11.25C9.31148 55.3125 7.73438 53.7354 7.73438 51.7969C7.73438 49.8584 9.31148 48.2812 11.25 48.2812H25.3125C28.5434 48.2812 31.1719 45.6527 31.1719 42.4219C31.1719 39.191 28.5434 36.5625 25.3125 36.5625H16.2047C15.9275 35.7811 15.3817 35.1261 14.6784 34.7091L23.629 20.0236C25.037 17.9072 25.7812 15.4411 25.7812 12.8906C25.7812 5.78273 19.9985 0 12.8906 0C5.78273 0 0 5.78273 0 12.8906C0 15.4411 0.744258 17.9072 2.15227 20.0236L11.1028 34.7091ZM12.8906 38.9062C12.2445 38.9062 11.7188 38.3805 11.7188 37.7344C11.7188 37.0882 12.2445 36.5625 12.8906 36.5625C13.5368 36.5625 14.0625 37.0882 14.0625 37.7344C14.0625 38.3805 13.5368 38.9062 12.8906 38.9062ZM12.8906 2.34375C18.7062 2.34375 23.4375 7.07508 23.4375 12.8906C23.4375 14.9845 22.825 17.008 21.6662 18.7424C21.6572 18.7559 21.6484 18.7696 21.64 18.7835L12.8906 33.1389C12.8906 33.1389 4.12406 18.7559 4.11504 18.7424C2.95629 17.008 2.34375 14.9845 2.34375 12.8906C2.34375 7.07508 7.07508 2.34375 12.8906 2.34375Z" fill="#CD1E19"/>
<path d="M12.8906 18.75C16.1215 18.75 18.75 16.1215 18.75 12.8906C18.75 9.65977 16.1215 7.03125 12.8906 7.03125C9.65977 7.03125 7.03125 9.65977 7.03125 12.8906C7.03125 16.1215 9.65977 18.75 12.8906 18.75ZM12.8906 9.375C14.8291 9.375 16.4062 10.9521 16.4062 12.8906C16.4062 14.8291 14.8291 16.4062 12.8906 16.4062C10.9521 16.4062 9.375 14.8291 9.375 12.8906C9.375 10.9521 10.9521 9.375 12.8906 9.375Z" fill="#CD1E19"/>
<path d="M47.1094 19.4531C40.0015 19.4531 34.2188 25.2359 34.2188 32.3438C34.2188 34.8983 34.9654 37.3682 36.3778 39.4868L45.295 53.4743C44.6045 53.8921 44.0691 54.5408 43.7954 55.3125H33.5156C32.8684 55.3125 32.3438 55.8371 32.3438 56.4844C32.3438 57.1316 32.8684 57.6562 33.5156 57.6562H43.7953C44.2791 59.0202 45.5816 60 47.1094 60C49.0479 60 50.625 58.4229 50.625 56.4844C50.625 55.2093 49.9426 54.0907 48.9239 53.4743L57.8411 39.4868C59.2534 37.3682 60 34.8983 60 32.3438C60 25.2359 54.2173 19.4531 47.1094 19.4531ZM47.1094 57.6562C46.4632 57.6562 45.9375 57.1305 45.9375 56.4844C45.9375 55.8382 46.4632 55.3125 47.1094 55.3125C47.7555 55.3125 48.2812 55.8382 48.2812 56.4844C48.2812 57.1305 47.7555 57.6562 47.1094 57.6562ZM55.885 38.1955C55.8804 38.2025 47.1094 51.9606 47.1094 51.9606C47.1094 51.9606 38.3384 38.2024 38.3338 38.1955C37.175 36.4611 36.5625 34.4377 36.5625 32.3438C36.5625 26.5282 41.2938 21.7969 47.1094 21.7969C52.9249 21.7969 57.6562 26.5282 57.6562 32.3438C57.6562 34.4377 57.0437 36.4611 55.885 38.1955Z" fill="#CD1E19"/>
<path d="M47.1094 26.4844C43.8785 26.4844 41.25 29.1129 41.25 32.3438C41.25 35.5746 43.8785 38.2031 47.1094 38.2031C50.3402 38.2031 52.9688 35.5746 52.9688 32.3438C52.9688 29.1129 50.3402 26.4844 47.1094 26.4844ZM47.1094 35.8594C45.1709 35.8594 43.5938 34.2823 43.5938 32.3438C43.5938 30.4052 45.1709 28.8281 47.1094 28.8281C49.0479 28.8281 50.625 30.4052 50.625 32.3438C50.625 34.2823 49.0479 35.8594 47.1094 35.8594Z" fill="#CD1E19"/>
<path d="M28.2422 57.6562C28.8894 57.6562 29.4141 57.1316 29.4141 56.4844C29.4141 55.8372 28.8894 55.3125 28.2422 55.3125C27.595 55.3125 27.0703 55.8372 27.0703 56.4844C27.0703 57.1316 27.595 57.6562 28.2422 57.6562Z" fill="#CD1E19"/>
</svg>
