<svg width="60" height="60" viewBox="0 0 60 60" fill="none" xmlns="http://www.w3.org/2000/svg">
<path d="M24.4468 22.79H9.76794C8.54601 22.79 7.55532 23.7807 7.55532 25.0027V25.7474H1.07933C0.48327 25.7474 0 26.2307 0 26.8267V34.3065C0 34.9026 0.48327 35.3858 1.07933 35.3858H7.55532V36.1522C7.55532 37.3741 8.54601 38.3648 9.76794 38.3648H24.436C25.658 38.3707 26.6535 37.385 26.6595 36.163V25.0027C26.6595 23.7807 25.6689 22.79 24.4468 22.79ZM2.14787 33.2272V27.9061H12.1964V33.2272H2.14787ZM24.4145 36.2061L9.70318 36.1522V35.3858H13.265C13.861 35.3858 14.3443 34.9026 14.3443 34.3065V26.8267C14.3443 26.2307 13.861 25.7474 13.265 25.7474H9.74636V24.9271L24.4684 24.9811L24.4145 36.2061Z" fill="#CD1E19"/>
<path d="M22.3531 25.7461H16.2981C15.702 25.7461 15.2188 26.2294 15.2188 26.8254V34.3052C15.2188 34.9013 15.702 35.3845 16.2981 35.3845H22.3531C22.9492 35.3845 23.4325 34.9013 23.4325 34.3052V26.8254C23.4325 26.2294 22.9492 25.7461 22.3531 25.7461ZM21.2738 33.2259H17.3774V27.9048H21.2738V33.2259Z" fill="#CD1E19"/>
<path d="M58.9198 24.8293H50.3823V21.5913C50.3823 20.399 49.4159 19.4326 48.2236 19.4326H32.0337C30.8414 19.4326 29.875 20.399 29.875 21.5913V39.5298C29.875 40.722 30.8414 41.6884 32.0337 41.6884H48.2236C49.4159 41.6884 50.3823 40.722 50.3823 39.5298V36.2918H58.9198C59.5159 36.2918 59.9991 35.8085 59.9991 35.2124V25.9086C59.9991 25.3125 59.5159 24.8293 58.9198 24.8293ZM48.2236 39.5298H32.0337V21.6345H48.2236V24.8724H45.3418V24.2464C45.3418 23.6504 44.8585 23.1671 44.2625 23.1671C43.6664 23.1671 43.1831 23.6504 43.1831 24.2464V36.9717C43.1831 37.5678 43.6664 38.0511 44.2625 38.0511C44.8585 38.0511 45.3418 37.5678 45.3418 36.9717V36.3457H48.2236V39.5298ZM45.3418 34.1331V26.9879H57.8405L57.8513 34.1331H45.3418Z" fill="#CD1E19"/>
<path d="M40.5729 23.1133H34.0969C33.5008 23.1133 33.0176 23.5966 33.0176 24.1926V36.9719C33.0176 37.5679 33.5008 38.0512 34.0969 38.0512H40.5729C41.1689 38.0512 41.6522 37.5679 41.6522 36.9719V24.1926C41.6522 23.5966 41.1689 23.1133 40.5729 23.1133ZM39.4936 35.8818H35.1762V25.2719H39.4936V35.8818Z" fill="#CD1E19"/>
<path d="M34.0951 48.0348H26.3671L28.2776 45.6495C28.6356 45.1728 28.5394 44.4962 28.0629 44.1383C27.6073 43.796 26.9639 43.8669 26.5938 44.3003L23.2695 48.4125C23.2459 48.4472 23.2241 48.4832 23.2047 48.5205L23.1292 48.6284C23.095 48.7239 23.0661 48.8212 23.0428 48.9198C23.0378 49.0205 23.0378 49.1214 23.0428 49.222C23.0397 49.2687 23.0397 49.3157 23.0428 49.3624C23.0393 49.4127 23.0393 49.4631 23.0428 49.5135C23.0896 49.5794 23.1328 49.648 23.1723 49.7185L26.4967 53.8524C26.8837 54.3057 27.5651 54.3594 28.0184 53.9723C28.4517 53.6022 28.5228 52.959 28.1804 52.5032L26.27 50.1179H34.0951C34.6912 50.1179 35.1745 49.6346 35.1745 49.0386C35.1347 48.4722 34.663 48.0334 34.0951 48.0348Z" fill="#CD1E19"/>
<path d="M33.5671 10.3551L30.2428 6.19969C29.8847 5.72303 29.2081 5.62697 28.7316 5.98504C28.2549 6.3431 28.1589 7.01971 28.5169 7.49623C28.5304 7.51418 28.5445 7.53172 28.559 7.54885L30.4695 9.93417H22.7414C22.1454 9.93417 21.6621 10.4174 21.6621 11.0135C21.6621 11.6096 22.1454 12.0928 22.7414 12.0928H30.4695L28.559 14.4782C28.201 14.9548 28.297 15.6313 28.7737 15.9893C29.2294 16.3316 29.8727 16.2607 30.2428 15.8273L33.5671 11.7151C33.718 11.5208 33.7978 11.2809 33.7938 11.0351C33.7742 10.7935 33.6965 10.5602 33.5671 10.3551Z" fill="#CD1E19"/>
</svg>
