<svg width="60" height="60" viewBox="0 0 60 60" fill="none" xmlns="http://www.w3.org/2000/svg">
<path d="M51.5625 33.75C51.5593 31.0159 50.4717 28.3948 48.5385 26.4615C46.6052 24.5283 43.9841 23.4407 41.25 23.4375H18.75C16.0159 23.4407 13.3948 24.5283 11.4615 26.4615C9.52825 28.3948 8.44073 31.0159 8.4375 33.75V56.25H1.875V58.125H58.125V56.25H51.5625V33.75ZM29.0625 49.6875H25.7006L29.0625 46.3256V49.6875ZM30.9375 45H34.2994L30.9375 48.3619V45ZM27.7369 51.5625L24.375 54.9244V51.5625H27.7369ZM32.2631 49.6875L35.625 46.3256V49.6875H32.2631ZM34.2994 51.5625L30.9375 54.9244V51.5625H34.2994ZM32.2631 43.125L35.625 39.7631V43.125H32.2631ZM30.9375 41.7994V38.4375H34.2994L30.9375 41.7994ZM24.375 48.3619V45H27.7369L24.375 48.3619ZM19.1381 56.25L22.5 52.8881V56.25H19.1381ZM17.8125 54.9244V51.5625H21.1744L17.8125 54.9244ZM25.7006 56.25L29.0625 52.8881V56.25H25.7006ZM32.2631 56.25L35.625 52.8881V56.25H32.2631ZM37.5 51.5625H40.8619L37.5 54.9244V51.5625ZM38.8256 56.25L42.1875 52.8881V56.25H38.8256ZM44.0625 56.25V49.6875H37.5V36.5625H29.0625V43.125H22.5V49.6875H15.9375V56.25H14.0625V34.6875H45.9375V56.25H44.0625ZM47.8125 56.25V32.8125H12.1875V56.25H10.3125V33.75C10.315 31.513 11.2047 29.3683 12.7865 27.7865C14.3683 26.2047 16.513 25.315 18.75 25.3125H41.25C43.487 25.315 45.6317 26.2047 47.2135 27.7865C48.7953 29.3683 49.685 31.513 49.6875 33.75V56.25H47.8125Z" fill="#CD1E19"/>
<path d="M30.9375 28.125H29.0625V30H30.9375V28.125Z" fill="#CD1E19"/>
<path d="M27.1875 28.125H25.3125V30H27.1875V28.125Z" fill="#CD1E19"/>
<path d="M34.6875 28.125H32.8125V30H34.6875V28.125Z" fill="#CD1E19"/>
<path d="M56.3521 2.625L52.6875 1.89375L48.5981 1.875L32.4112 7.27125L15.8437 2.75156L9.97777 5.68219L21.7406 10.8281L12.3862 13.9453L6.76121 9.25781L2.42809 10.7025L5.24059 16.3275L2.01465 17.4019L4.3209 19.7091L16.7896 19.0162C20.0761 18.8338 23.3255 18.2302 26.4581 17.22L31.1765 15.6975L35.8125 18.0159L41.4459 12.3816L50.9943 9.29906L56.79 6.81656C57.223 6.63121 57.5854 6.3121 57.824 5.90594C58.0626 5.49979 58.1649 5.02792 58.1159 4.55942C58.067 4.09091 57.8694 3.65037 57.552 3.30229C57.2346 2.95421 56.8142 2.71687 56.3521 2.625ZM16.0396 4.74656L33.1603 9.41625L27.254 11.1891L14.4037 5.56406L16.0396 4.74656ZM5.07184 11.7975L6.36371 11.3672L10.2946 14.6428L7.03684 15.7284L5.07184 11.7975ZM35.4403 15.735L33.7209 14.8753L37.529 13.6462L35.4403 15.735ZM56.0503 5.09344L50.3372 7.545L25.875 15.435C22.8951 16.3959 19.8042 16.9706 16.6781 17.145L7.12496 17.6747L24.3028 11.9494L27.1265 13.1841L39.9703 9.33187L35.6709 8.15625L48.9018 3.75H52.4062L55.9828 4.46531C56.0519 4.47917 56.1148 4.51473 56.1623 4.56683C56.2098 4.61892 56.2394 4.68482 56.2468 4.75492C56.2542 4.82502 56.2391 4.89567 56.2036 4.95656C56.1681 5.01745 56.114 5.0654 56.0493 5.09344H56.0503Z" fill="#CD1E19"/>
<path d="M23.4375 28.125H21.5625V30H23.4375V28.125Z" fill="#CD1E19"/>
<path d="M38.4375 28.125H36.5625V30H38.4375V28.125Z" fill="#CD1E19"/>
</svg>
