<svg width="60" height="60" viewBox="0 0 60 60" fill="none" xmlns="http://www.w3.org/2000/svg">
<g clip-path="url(#clip0)">
<path d="M56.3614 60.0001H3.86526C3.3466 60.0001 2.92773 59.5807 2.92773 59.0625V34.696C2.92773 34.1777 3.3466 33.7584 3.86526 33.7584H6.67694C7.19514 33.7584 7.61447 34.1777 7.61447 34.696C7.61447 35.2146 7.19514 35.6335 6.67694 35.6335H4.80279V58.125H55.4239V35.6335H53.5497C53.0311 35.6335 52.6122 35.2146 52.6122 34.696C52.6122 34.1777 53.0311 33.7584 53.5497 33.7584H56.3614C56.8796 33.7584 57.2989 34.1777 57.2989 34.696V59.0625C57.2989 59.5807 56.8796 60.0001 56.3614 60.0001Z" fill="#CD1E19"/>
<path d="M30.1133 35.6334C29.5946 35.6334 29.1758 35.2145 29.1758 34.6958C29.1758 32.1103 31.2784 30.0063 33.8634 30.0063C34.3816 30.0063 34.801 30.4266 34.801 30.9439C34.801 31.4625 34.3816 31.8814 33.8634 31.8814C32.3125 31.8814 31.0508 33.1444 31.0508 34.6958C31.0508 35.2145 30.6315 35.6334 30.1133 35.6334Z" fill="#CD1E19"/>
<path d="M53.5501 31.8814H33.8638C33.3451 31.8814 32.9263 31.4626 32.9263 30.9439C32.9263 30.4266 33.3451 30.0063 33.8638 30.0063H53.5501C54.0683 30.0063 54.4876 30.4266 54.4876 30.9439C54.4876 31.4626 54.0683 31.8814 53.5501 31.8814Z" fill="#CD1E19"/>
<path d="M30.1133 60C29.5946 60 29.1758 59.5807 29.1758 59.0625C29.1758 56.4779 31.2784 54.3749 33.8634 54.3749C34.3816 54.3749 34.801 54.7937 34.801 55.3124C34.801 55.8306 34.3816 56.2499 33.8634 56.2499C32.3125 56.2499 31.0508 57.512 31.0508 59.0625C31.0508 59.5807 30.6315 60 30.1133 60Z" fill="#CD1E19"/>
<path d="M53.5501 56.2499H33.8638C33.3451 56.2499 32.9263 55.8306 32.9263 55.3124C32.9263 54.7937 33.3451 54.3749 33.8638 54.3749H53.5501C54.0683 54.3749 54.4876 54.7937 54.4876 55.3124C54.4876 55.8306 54.0683 56.2499 53.5501 56.2499Z" fill="#CD1E19"/>
<path d="M53.5498 56.2499C53.0312 56.2499 52.6123 55.8305 52.6123 55.3123V30.9439C52.6123 30.4266 53.0312 30.0063 53.5498 30.0063C54.068 30.0063 54.4873 30.4266 54.4873 30.9439V55.3123C54.4873 55.8305 54.068 56.2499 53.5498 56.2499Z" fill="#CD1E19"/>
<path d="M30.1134 35.6334C29.5948 35.6334 29.1759 35.2145 29.1759 34.6958C29.1759 33.1444 27.9138 31.8814 26.3633 31.8814C25.8446 31.8814 25.4258 31.4625 25.4258 30.9439C25.4258 30.4266 25.8446 30.0063 26.3633 30.0063C28.9479 30.0063 31.051 32.1103 31.051 34.6958C31.051 35.2145 30.6316 35.6334 30.1134 35.6334Z" fill="#CD1E19"/>
<path d="M26.3636 31.8814H6.67728C6.15861 31.8814 5.73975 31.4626 5.73975 30.9439C5.73975 30.4266 6.15861 30.0063 6.67728 30.0063H26.3636C26.8818 30.0063 27.3011 30.4266 27.3011 30.9439C27.3011 31.4626 26.8818 31.8814 26.3636 31.8814Z" fill="#CD1E19"/>
<path d="M30.1134 60C29.5948 60 29.1759 59.5807 29.1759 59.0625C29.1759 57.512 27.9138 56.2499 26.3633 56.2499C25.8446 56.2499 25.4258 55.8306 25.4258 55.3124C25.4258 54.7937 25.8446 54.3749 26.3633 54.3749C28.9479 54.3749 31.051 56.4779 31.051 59.0625C31.051 59.5807 30.6316 60 30.1134 60Z" fill="#CD1E19"/>
<path d="M26.3636 56.2499H6.67728C6.15861 56.2499 5.73975 55.8306 5.73975 55.3124C5.73975 54.7937 6.15861 54.3749 6.67728 54.3749H26.3636C26.8818 54.3749 27.3011 54.7937 27.3011 55.3124C27.3011 55.8306 26.8818 56.2499 26.3636 56.2499Z" fill="#CD1E19"/>
<path d="M6.67727 56.2499C6.15861 56.2499 5.73975 55.8305 5.73975 55.3123V30.9439C5.73975 30.4266 6.15861 30.0063 6.67727 30.0063C7.19548 30.0063 7.6148 30.4266 7.6148 30.9439V55.3123C7.6148 55.8305 7.19548 56.2499 6.67727 56.2499Z" fill="#CD1E19"/>
<path d="M30.1133 60.0001C29.5946 60.0001 29.1758 59.5807 29.1758 59.0625V34.696C29.1758 34.1777 29.5946 33.7584 30.1133 33.7584C30.6315 33.7584 31.0508 34.1777 31.0508 34.696V59.0625C31.0508 59.5807 30.6315 60.0001 30.1133 60.0001Z" fill="#CD1E19"/>
<path d="M19.8007 36.5692H11.3648C10.8461 36.5692 10.4272 36.1503 10.4272 35.6316C10.4272 35.1134 10.8461 34.6941 11.3648 34.6941H19.8007C20.3189 34.6941 20.7382 35.1134 20.7382 35.6316C20.7382 36.1503 20.3189 36.5692 19.8007 36.5692Z" fill="#CD1E19"/>
<path d="M17.9275 44.0731H11.3648C10.8461 44.0731 10.4272 43.6542 10.4272 43.1355C10.4272 42.6173 10.8461 42.198 11.3648 42.198H17.9275C18.4457 42.198 18.865 42.6173 18.865 43.1355C18.865 43.6542 18.4457 44.0731 17.9275 44.0731Z" fill="#CD1E19"/>
<path d="M25.426 44.0731H21.6778C21.1591 44.0731 20.7402 43.6542 20.7402 43.1355C20.7402 42.6173 21.1591 42.198 21.6778 42.198H25.426C25.9443 42.198 26.3636 42.6173 26.3636 43.1355C26.3636 43.6542 25.9443 44.0731 25.426 44.0731Z" fill="#CD1E19"/>
<path d="M25.4258 40.3211H15.1148C14.5961 40.3211 14.1772 39.9022 14.1772 39.3836C14.1772 38.8654 14.5961 38.446 15.1148 38.446H25.4258C25.944 38.446 26.3633 38.8654 26.3633 39.3836C26.3633 39.9022 25.944 40.3211 25.4258 40.3211Z" fill="#CD1E19"/>
<path d="M12.3023 40.3211H11.3648C10.8461 40.3211 10.4272 39.9022 10.4272 39.3836C10.4272 38.8654 10.8461 38.446 11.3648 38.446H12.3023C12.8205 38.446 13.2398 38.8654 13.2398 39.3836C13.2398 39.9022 12.8205 40.3211 12.3023 40.3211Z" fill="#CD1E19"/>
<path d="M25.4259 36.5692H23.5508C23.0321 36.5692 22.6133 36.1503 22.6133 35.6316C22.6133 35.1134 23.0321 34.6941 23.5508 34.6941H25.4259C25.9441 34.6941 26.3634 35.1134 26.3634 35.6316C26.3634 36.1503 25.9441 36.5692 25.4259 36.5692Z" fill="#CD1E19"/>
<path d="M20.7382 47.8255H11.3648C10.8461 47.8255 10.4272 47.4062 10.4272 46.888C10.4272 46.3693 10.8461 45.9504 11.3648 45.9504H20.7382C21.2564 45.9504 21.6758 46.3693 21.6758 46.888C21.6758 47.4062 21.2564 47.8255 20.7382 47.8255Z" fill="#CD1E19"/>
<path d="M25.4258 47.8255H24.4883C23.9696 47.8255 23.5508 47.4062 23.5508 46.888C23.5508 46.3693 23.9696 45.9504 24.4883 45.9504H25.4258C25.944 45.9504 26.3634 46.3693 26.3634 46.888C26.3634 47.4062 25.944 47.8255 25.4258 47.8255Z" fill="#CD1E19"/>
<path d="M15.1149 51.5775H11.3648C10.8461 51.5775 10.4272 51.1581 10.4272 50.6399C10.4272 50.1213 10.8461 49.7024 11.3648 49.7024H15.1149C15.6331 49.7024 16.0524 50.1213 16.0524 50.6399C16.0524 51.1581 15.6331 51.5775 15.1149 51.5775Z" fill="#CD1E19"/>
<path d="M25.4256 51.5775H18.8648C18.3461 51.5775 17.9272 51.1581 17.9272 50.6399C17.9272 50.1213 18.3461 49.7024 18.8648 49.7024H25.4256C25.9439 49.7024 26.3632 50.1213 26.3632 50.6399C26.3632 51.1581 25.9439 51.5775 25.4256 51.5775Z" fill="#CD1E19"/>
<path d="M48.8783 36.5609H40.4424C39.9237 36.5609 39.5049 36.1415 39.5049 35.6233C39.5049 35.1047 39.9237 34.6858 40.4424 34.6858H48.8783C49.3965 34.6858 49.8159 35.1047 49.8159 35.6233C49.8159 36.1415 49.3956 36.5609 48.8783 36.5609Z" fill="#CD1E19"/>
<path d="M48.8781 44.0647H42.3155C41.7968 44.0647 41.3779 43.6459 41.3779 43.1272C41.3779 42.609 41.7968 42.1897 42.3155 42.1897H48.8781C49.3964 42.1897 49.8157 42.609 49.8157 43.1272C49.8157 43.6459 49.3954 44.0647 48.8781 44.0647Z" fill="#CD1E19"/>
<path d="M38.5657 44.0647H34.8174C34.2987 44.0647 33.8799 43.6459 33.8799 43.1272C33.8799 42.609 34.2987 42.1897 34.8174 42.1897H38.5657C39.0839 42.1897 39.5032 42.609 39.5032 43.1272C39.5032 43.6459 39.083 44.0647 38.5657 44.0647Z" fill="#CD1E19"/>
<path d="M45.1284 40.3128H34.8174C34.2987 40.3128 33.8799 39.8935 33.8799 39.3753C33.8799 38.8566 34.2987 38.4377 34.8174 38.4377H45.1284C45.6466 38.4377 46.0659 38.8566 46.0659 39.3753C46.0659 39.8935 45.6457 40.3128 45.1284 40.3128Z" fill="#CD1E19"/>
<path d="M48.8785 40.3128H47.9409C47.4223 40.3128 47.0034 39.8935 47.0034 39.3753C47.0034 38.8566 47.4223 38.4377 47.9409 38.4377H48.8785C49.3967 38.4377 49.816 38.8566 49.816 39.3753C49.816 39.8935 49.3958 40.3128 48.8785 40.3128Z" fill="#CD1E19"/>
<path d="M36.6925 36.5609H34.8174C34.2987 36.5609 33.8799 36.1415 33.8799 35.6233C33.8799 35.1047 34.2987 34.6858 34.8174 34.6858H36.6925C37.2107 34.6858 37.63 35.1047 37.63 35.6233C37.63 36.1415 37.2098 36.5609 36.6925 36.5609Z" fill="#CD1E19"/>
<path d="M48.8784 47.8167H39.5049C38.9862 47.8167 38.5674 47.3978 38.5674 46.8792C38.5674 46.361 38.9862 45.9417 39.5049 45.9417H48.8784C49.3966 45.9417 49.8159 46.361 49.8159 46.8792C49.8159 47.3978 49.3957 47.8167 48.8784 47.8167Z" fill="#CD1E19"/>
<path d="M35.7549 47.8167H34.8174C34.2988 47.8167 33.8799 47.3978 33.8799 46.8792C33.8799 46.361 34.2988 45.9417 34.8174 45.9417H35.7549C36.2732 45.9417 36.6925 46.361 36.6925 46.8792C36.6925 47.3978 36.2722 47.8167 35.7549 47.8167Z" fill="#CD1E19"/>
<path d="M48.8781 51.5686H45.128C44.6093 51.5686 44.1904 51.1498 44.1904 50.6311C44.1904 50.1129 44.6093 49.6936 45.128 49.6936H48.8781C49.3963 49.6936 49.8156 50.1129 49.8156 50.6311C49.8156 51.1498 49.3954 51.5686 48.8781 51.5686Z" fill="#CD1E19"/>
<path d="M41.3783 51.5686H34.8174C34.2988 51.5686 33.8799 51.1498 33.8799 50.6311C33.8799 50.1129 34.2988 49.6936 34.8174 49.6936H41.3783C41.8965 49.6936 42.3158 50.1129 42.3158 50.6311C42.3158 51.1498 41.8956 51.5686 41.3783 51.5686Z" fill="#CD1E19"/>
<path d="M19.8008 30.0036C19.2821 30.0036 18.8633 29.5839 18.8633 29.0661C18.8633 27.5156 20.1249 26.2535 21.6759 26.2535C22.1941 26.2535 22.6134 26.6738 22.6134 27.1911C22.6134 27.7088 22.1941 28.1286 21.6759 28.1286C21.1581 28.1286 20.7383 28.5497 20.7383 29.0661C20.7383 29.5839 20.319 30.0036 19.8008 30.0036Z" fill="#CD1E19"/>
<path d="M19.8008 31.8815C19.2822 31.8815 18.8633 31.4627 18.8633 30.944V29.0662C18.8633 28.5489 19.2822 28.1287 19.8008 28.1287C20.319 28.1287 20.7383 28.5489 20.7383 29.0662V30.944C20.7383 31.4627 20.319 31.8815 19.8008 31.8815Z" fill="#CD1E19"/>
<path d="M40.4273 30.0036C39.9087 30.0036 39.4898 29.5839 39.4898 29.0661C39.4898 28.5497 39.0696 28.1286 38.5523 28.1286C38.0336 28.1286 37.6147 27.7088 37.6147 27.1911C37.6147 26.6738 38.0336 26.2535 38.5523 26.2535C40.1028 26.2535 41.3649 27.5156 41.3649 29.0661C41.3649 29.5839 40.9456 30.0036 40.4273 30.0036Z" fill="#CD1E19"/>
<path d="M40.4273 31.8815C39.9086 31.8815 39.4897 31.4627 39.4897 30.944V29.0662C39.4897 28.5489 39.9086 28.1287 40.4273 28.1287C40.9455 28.1287 41.3648 28.5489 41.3648 29.0662V30.944C41.3648 31.4627 40.9455 31.8815 40.4273 31.8815Z" fill="#CD1E19"/>
<path d="M38.5523 28.1286H21.6758C21.1571 28.1286 20.7383 27.7088 20.7383 27.1911C20.7383 26.6738 21.1571 26.2535 21.6758 26.2535H38.5523C39.0705 26.2535 39.4898 26.6738 39.4898 27.1911C39.4898 27.7088 39.0705 28.1286 38.5523 28.1286Z" fill="#CD1E19"/>
<path d="M28.708 28.1278C28.1894 28.1278 27.7705 27.708 27.7705 27.1902V6.56277C27.7705 6.04548 28.1894 5.62524 28.708 5.62524C29.2262 5.62524 29.6456 6.04548 29.6456 6.56277V27.1902C29.6456 27.708 29.2262 28.1278 28.708 28.1278Z" fill="#CD1E19"/>
<path d="M31.5201 28.1278C31.0014 28.1278 30.5825 27.708 30.5825 27.1902V6.56277C30.5825 6.04548 31.0014 5.62524 31.5201 5.62524C32.0383 5.62524 32.4576 6.04548 32.4576 6.56277V27.1902C32.4576 27.708 32.0383 28.1278 31.5201 28.1278Z" fill="#CD1E19"/>
<path d="M31.5196 3.28135C31.001 3.28135 30.5821 2.86111 30.5821 2.34382C30.5821 2.08518 30.3711 1.87506 30.1134 1.87506C29.8556 1.87506 29.6446 2.08518 29.6446 2.34382C29.6446 2.86111 29.2253 3.28135 28.7071 3.28135C28.1884 3.28135 27.7695 2.86111 27.7695 2.34382C27.7695 1.05197 28.8206 0 30.1134 0C31.4061 0 32.4572 1.05197 32.4572 2.34382C32.4572 2.86111 32.0379 3.28135 31.5196 3.28135Z" fill="#CD1E19"/>
<path d="M42.7842 7.50027C42.2655 7.50027 41.8467 7.08003 41.8467 6.56274C41.8467 6.04545 42.2655 5.62521 42.7842 5.62521C43.0419 5.62521 43.253 5.41509 43.253 5.15645C43.253 4.8978 43.0419 4.68768 42.7842 4.68768C42.2655 4.68768 41.8467 4.26744 41.8467 3.75015C41.8467 3.23286 42.2655 2.81262 42.7842 2.81262C44.077 2.81262 45.128 3.8646 45.128 5.15645C45.128 6.4483 44.077 7.50027 42.7842 7.50027Z" fill="#CD1E19"/>
<path d="M17.4698 7.50027C16.177 7.50027 15.126 6.4483 15.126 5.15645C15.126 3.8646 16.177 2.81262 17.4698 2.81262C17.9885 2.81262 18.4073 3.23286 18.4073 3.75015C18.4073 4.26744 17.9885 4.68768 17.4698 4.68768C17.2121 4.68768 17.001 4.8978 17.001 5.15645C17.001 5.41509 17.2121 5.62521 17.4698 5.62521C17.9885 5.62521 18.4073 6.04545 18.4073 6.56274C18.4073 7.08003 17.9876 7.50027 17.4698 7.50027Z" fill="#CD1E19"/>
<path d="M42.7842 4.68854H17.5327C17.0141 4.68854 16.5952 4.26876 16.5952 3.75101C16.5952 3.23372 17.0141 2.81348 17.5327 2.81348H42.7842C43.3024 2.81348 43.7218 3.23372 43.7218 3.75101C43.7218 4.26876 43.3015 4.68854 42.7842 4.68854Z" fill="#CD1E19"/>
<path d="M42.7842 7.5003H17.5327C17.0141 7.5003 16.5952 7.08006 16.5952 6.56277C16.5952 6.04548 17.0141 5.62524 17.5327 5.62524H42.7842C43.3024 5.62524 43.7218 6.04548 43.7218 6.56277C43.7218 7.08006 43.3015 7.5003 42.7842 7.5003Z" fill="#CD1E19"/>
<path d="M28.7071 4.68852C28.1884 4.68852 27.7695 4.26874 27.7695 3.75099V2.34378C27.7695 1.82649 28.1884 1.40625 28.7071 1.40625C29.2253 1.40625 29.6446 1.82649 29.6446 2.34378V3.75099C29.6446 4.26874 29.2253 4.68852 28.7071 4.68852Z" fill="#CD1E19"/>
<path d="M31.5201 4.6876C31.0014 4.6876 30.5825 4.26736 30.5825 3.75007V2.34378C30.5825 1.82649 31.0014 1.40625 31.5201 1.40625C32.0383 1.40625 32.4576 1.82649 32.4576 2.34378V3.75007C32.4576 4.26736 32.0383 4.6876 31.5201 4.6876Z" fill="#CD1E19"/>
<path d="M17.9401 21.5651C15.355 21.5651 13.2524 19.4621 13.2524 16.8775C13.2524 16.3602 13.6713 15.9399 14.19 15.9399C14.7082 15.9399 15.1275 16.3602 15.1275 16.8775C15.1275 18.428 16.3891 19.6901 17.9401 19.6901C19.4906 19.6901 20.7527 18.428 20.7527 16.8775C20.7527 16.3602 21.1715 15.9399 21.6902 15.9399C22.2084 15.9399 22.6277 16.3602 22.6277 16.8775C22.6277 19.4621 20.5238 21.5651 17.9401 21.5651Z" fill="#CD1E19"/>
<path d="M21.6902 17.815H14.19C13.6713 17.815 13.2524 17.3952 13.2524 16.8775C13.2524 16.3602 13.6713 15.9399 14.19 15.9399H21.6902C22.2084 15.9399 22.6277 16.3602 22.6277 16.8775C22.6277 17.3952 22.2075 17.815 21.6902 17.815Z" fill="#CD1E19"/>
<path d="M14.1899 17.8149C14.0837 17.8149 13.9752 17.7961 13.869 17.7577C13.3824 17.5805 13.1311 17.0426 13.3082 16.556L17.0593 6.24133C17.2355 5.75471 17.7711 5.50339 18.2605 5.68055C18.7471 5.85771 18.9984 6.3956 18.8213 6.88222L15.0702 17.1969C14.9324 17.5787 14.5722 17.8149 14.1899 17.8149Z" fill="#CD1E19"/>
<path d="M21.6901 17.8148C21.3074 17.8148 20.9476 17.5786 20.8093 17.1968L17.0592 6.8831C16.8821 6.39694 17.1334 5.85859 17.62 5.68143C18.1084 5.50427 18.645 5.75651 18.8212 6.24221L22.5704 16.5569C22.7476 17.0435 22.4963 17.5814 22.0096 17.7585C21.9034 17.797 21.7959 17.8148 21.6901 17.8148Z" fill="#CD1E19"/>
<path d="M42.339 21.5651C39.7539 21.5651 37.6514 19.4621 37.6514 16.8775C37.6514 16.3602 38.0702 15.9399 38.5889 15.9399C39.1071 15.9399 39.5264 16.3602 39.5264 16.8775C39.5264 18.428 40.7881 19.6901 42.339 19.6901C43.8895 19.6901 45.1516 18.428 45.1516 16.8775C45.1516 16.3602 45.5705 15.9399 46.0891 15.9399C46.6073 15.9399 47.0267 16.3602 47.0267 16.8775C47.0267 19.4621 44.9236 21.5651 42.339 21.5651Z" fill="#CD1E19"/>
<path d="M46.0891 17.815H38.5889C38.0702 17.815 37.6514 17.3952 37.6514 16.8775C37.6514 16.3602 38.0702 15.9399 38.5889 15.9399H46.0891C46.6073 15.9399 47.0267 16.3602 47.0267 16.8775C47.0267 17.3952 46.6073 17.815 46.0891 17.815Z" fill="#CD1E19"/>
<path d="M38.5889 17.8149C38.4827 17.8149 38.3742 17.7961 38.268 17.7577C37.7814 17.5805 37.5305 17.0426 37.7077 16.556L41.4587 6.24133C41.635 5.75471 42.172 5.50339 42.6595 5.68055C43.1461 5.85771 43.3974 6.3956 43.2203 6.88222L39.4692 17.1969C39.3314 17.5787 38.9712 17.8149 38.5889 17.8149Z" fill="#CD1E19"/>
<path d="M46.0892 17.8148C45.7065 17.8148 45.3467 17.5786 45.2089 17.1968L41.4597 6.8831C41.2825 6.39694 41.5334 5.85859 42.02 5.68143C42.5093 5.50427 43.0449 5.75651 43.2212 6.24221L46.9704 16.5569C47.1476 17.0435 46.8962 17.5814 46.4096 17.7585C46.3039 17.797 46.1949 17.8148 46.0892 17.8148Z" fill="#CD1E19"/>
</g>
<defs>
<clipPath id="clip0">
<rect width="60" height="60" fill="white"/>
</clipPath>
</defs>
</svg>
