<svg width="61" height="60" viewBox="0 0 61 60" fill="none" xmlns="http://www.w3.org/2000/svg">
<path d="M58.7267 1.42041V38.3479C58.7267 40.9517 56.5838 43.0822 53.9648 43.0822H6.34576C3.72672 43.0822 1.58386 40.9517 1.58386 38.3479V1.42041H58.7267Z" fill="white"/>
<path d="M58.7267 0H1.58384C0.774321 0 0.155273 0.615459 0.155273 1.42029V34.5604C0.155273 35.3652 0.774321 35.9807 1.58384 35.9807C2.39337 35.9807 3.01242 35.3652 3.01242 34.5604V2.84058H57.2981V38.3478C57.2981 40.1942 55.8219 41.6619 53.9648 41.6619H15.8696C15.06 41.6619 14.441 42.2773 14.441 43.0821C14.441 43.887 15.06 44.5024 15.8696 44.5024H53.9648C57.3934 44.5024 60.1553 41.7565 60.1553 38.3478V1.42029C60.1553 0.615459 59.5362 0 58.7267 0Z" fill="#444B54"/>
<path d="M5.39335 45.4492C5.10764 45.4492 4.82192 45.3545 4.58383 45.2125C3.91716 44.7864 3.7743 43.8869 4.20287 43.2241L18.9648 21.9197C19.2029 21.5883 19.5362 21.3989 19.9172 21.3043C20.2981 21.2569 20.6791 21.3516 21.0124 21.541L33.6315 30.6308L46.1553 11.9777C46.5839 11.3149 47.4886 11.1255 48.1553 11.5989C48.822 12.025 49.0125 12.9245 48.5363 13.5873L35.2029 33.4714C34.9648 33.8028 34.6315 33.9922 34.2505 34.0869C33.8696 34.1342 33.4886 34.0869 33.1553 33.8502L20.4886 24.713L6.58383 44.8338C6.29811 45.2125 5.86954 45.4492 5.39335 45.4492Z" fill="#0C7AEB"/>
<path d="M1.58386 44.029C1.58386 41.9459 3.29814 40.2416 5.39337 40.2416C7.4886 40.2416 9.20288 41.9459 9.20288 44.029C9.20288 46.1121 7.4886 47.8165 5.39337 47.8165C3.29814 47.8165 1.58386 46.1121 1.58386 44.029Z" fill="white"/>
<path d="M5.39337 49.2368C2.48861 49.2368 0.155273 46.9169 0.155273 44.029C0.155273 41.1411 2.48861 38.8213 5.39337 38.8213C8.29813 38.8213 10.6315 41.1411 10.6315 44.029C10.6315 46.9169 8.29813 49.2368 5.39337 49.2368ZM5.39337 41.6619C4.06004 41.6619 3.01242 42.7034 3.01242 44.029C3.01242 45.3546 4.06004 46.3962 5.39337 46.3962C6.72671 46.3962 7.77433 45.3546 7.77433 44.029C7.77433 42.7034 6.72671 41.6619 5.39337 41.6619Z" fill="#0C7AEB"/>
<path d="M20.1553 26.5121C22.2592 26.5121 23.9648 24.8164 23.9648 22.7246C23.9648 20.6328 22.2592 18.9371 20.1553 18.9371C18.0513 18.9371 16.3457 20.6328 16.3457 22.7246C16.3457 24.8164 18.0513 26.5121 20.1553 26.5121Z" fill="white"/>
<path d="M20.1553 27.9323C17.2505 27.9323 14.9172 25.6125 14.9172 22.7245C14.9172 19.8366 17.2505 17.5168 20.1553 17.5168C23.06 17.5168 25.3933 19.8366 25.3933 22.7245C25.3933 25.6125 23.06 27.9323 20.1553 27.9323ZM20.1553 20.3574C18.822 20.3574 17.7743 21.399 17.7743 22.7245C17.7743 24.0501 18.822 25.0917 20.1553 25.0917C21.4886 25.0917 22.5362 24.0501 22.5362 22.7245C22.5362 21.399 21.4886 20.3574 20.1553 20.3574Z" fill="#0C7AEB"/>
<path d="M33.9648 36.4541C36.0687 36.4541 37.7743 34.7584 37.7743 32.6666C37.7743 30.5749 36.0687 28.8792 33.9648 28.8792C31.8608 28.8792 30.1553 30.5749 30.1553 32.6666C30.1553 34.7584 31.8608 36.4541 33.9648 36.4541Z" fill="white"/>
<path d="M33.9648 37.8744C31.06 37.8744 28.7267 35.5546 28.7267 32.6667C28.7267 29.7788 31.06 27.459 33.9648 27.459C36.8695 27.459 39.2029 29.7788 39.2029 32.6667C39.2029 35.5546 36.8695 37.8744 33.9648 37.8744ZM33.9648 30.2995C32.6314 30.2995 31.5838 31.3411 31.5838 32.6667C31.5838 33.9923 32.6314 35.0338 33.9648 35.0338C35.2981 35.0338 36.3457 33.9923 36.3457 32.6667C36.3457 31.3411 35.2981 30.2995 33.9648 30.2995Z" fill="#0C7AEB"/>
<path d="M47.2982 16.5699C49.4021 16.5699 51.1077 14.8743 51.1077 12.7825C51.1077 10.6908 49.4021 8.99512 47.2982 8.99512C45.1942 8.99512 43.4886 10.6908 43.4886 12.7825C43.4886 14.8743 45.1942 16.5699 47.2982 16.5699Z" fill="white"/>
<path d="M47.2982 17.9903C44.3934 17.9903 42.0601 15.6705 42.0601 12.7826C42.0601 9.89464 44.3934 7.57483 47.2982 7.57483C50.2029 7.57483 52.5363 9.89464 52.5363 12.7826C52.5363 15.6705 50.2029 17.9903 47.2982 17.9903ZM47.2982 10.4154C45.9648 10.4154 44.9172 11.457 44.9172 12.7826C44.9172 14.1082 45.9648 15.1497 47.2982 15.1497C48.6315 15.1497 49.6791 14.1082 49.6791 12.7826C49.6791 11.457 48.6315 10.4154 47.2982 10.4154Z" fill="#0C7AEB"/>
<path d="M40.6791 57.2377L31.1553 47.7691C30.5838 47.201 29.6791 47.201 29.1553 47.7691L19.6315 57.2377C19.06 57.8058 19.06 58.7053 19.6315 59.2261C19.9172 59.5101 20.2981 59.6522 20.6315 59.6522C20.9648 59.6522 21.3457 59.5101 21.6315 59.2261L28.7267 52.172V58.2319C28.7267 59.0367 29.3457 59.6522 30.1553 59.6522C30.9648 59.6522 31.5838 59.0367 31.5838 58.2319V52.172L38.6791 59.2261C38.9648 59.5101 39.3458 59.6522 39.6791 59.6522C40.0124 59.6522 40.3934 59.5101 40.6791 59.2261C41.2505 58.658 41.2505 57.8058 40.6791 57.2377Z" fill="#444B54"/>
</svg>
