<svg width="61" height="60" viewBox="0 0 61 60" fill="none" xmlns="http://www.w3.org/2000/svg">
<path d="M6.9259 33.661C3.54495 30.2523 1.44971 25.518 1.44971 20.3576C1.44971 9.8948 9.97353 1.42041 20.4973 1.42041C31.0212 1.42041 39.545 9.8948 39.545 20.3576C39.545 30.8204 31.0212 39.2948 20.4973 39.2948H1.44971L6.9259 33.661Z" fill="white"/>
<path d="M14.7831 40.715H1.44974C0.878307 40.715 0.354497 40.3836 0.116402 39.8629C-0.121693 39.3421 0.021164 38.7266 0.402116 38.3005L4.92593 33.6136C1.78307 29.9208 0.021164 25.2812 0.021164 20.3575C0.021164 9.13721 9.21164 0 20.4974 0C29.4974 0 37.3545 5.72851 40.0212 14.2503C40.2593 15.0077 39.8307 15.8126 39.0688 16.0493C38.3069 16.286 37.4973 15.8599 37.2593 15.1024C34.9735 7.76426 28.2593 2.84058 20.4974 2.84058C10.7831 2.84058 2.87831 10.6995 2.87831 20.3575C2.87831 24.9971 4.68783 29.3527 7.92593 32.6667C8.44974 33.2348 8.49735 34.087 7.92593 34.6551L4.83069 37.8744H14.7831C15.5926 37.8744 16.2116 38.4899 16.2116 39.2947C16.2116 40.0996 15.5926 40.715 14.7831 40.715Z" fill="#0C7AEB"/>
<path d="M53.1164 52.598C56.4974 49.1893 58.5926 44.5023 58.5926 39.2946C58.5926 28.8318 50.0688 20.3574 39.545 20.3574C29.0212 20.3574 20.4974 28.8318 20.4974 39.2946C20.4974 49.7574 29.0212 58.2318 39.545 58.2318H58.5926L53.1164 52.598Z" fill="white"/>
<path d="M58.5926 59.6522H39.545C28.2593 59.6522 19.0688 50.515 19.0688 39.2947C19.0688 28.0744 28.2593 18.9371 39.545 18.9371C50.8307 18.9371 60.0212 28.0744 60.0212 39.2947C60.0212 44.2184 58.2593 48.858 55.0688 52.5508L59.5926 57.2377C59.9736 57.6638 60.1164 58.2319 59.8783 58.8C59.6878 59.3208 59.164 59.6522 58.5926 59.6522ZM39.545 21.7777C29.8307 21.7777 21.9259 29.6367 21.9259 39.2947C21.9259 48.9527 29.8307 56.8116 39.545 56.8116H55.2117L52.0688 53.5923C51.545 53.0242 51.545 52.172 52.0688 51.6039C55.3545 48.2899 57.1164 43.9343 57.1164 39.2947C57.164 29.6367 49.2593 21.7777 39.545 21.7777Z" fill="#444B54"/>
<path d="M46.6878 37.401H32.4021C31.5926 37.401 30.9735 36.7855 30.9735 35.9807C30.9735 35.1759 31.5926 34.5604 32.4021 34.5604H46.6878C47.4973 34.5604 48.1164 35.1759 48.1164 35.9807C48.1164 36.7855 47.4973 37.401 46.6878 37.401ZM39.5449 44.5024H32.4021C31.5926 44.5024 30.9735 43.8869 30.9735 43.0821C30.9735 42.2773 31.5926 41.6618 32.4021 41.6618H39.5449C40.3545 41.6618 40.9735 42.2773 40.9735 43.0821C40.9735 43.8869 40.3545 44.5024 39.5449 44.5024ZM46.6878 44.5024C46.3068 44.5024 45.9259 44.3604 45.6878 44.0763C45.4021 43.8396 45.2592 43.4609 45.2592 43.0821C45.2592 42.9874 45.2592 42.8927 45.3068 42.7981C45.3068 42.7034 45.3545 42.6087 45.4021 42.514C45.4497 42.4193 45.4973 42.372 45.5449 42.2773C45.5926 42.1826 45.6402 42.1353 45.7354 42.0406C46.0688 41.7092 46.5449 41.5672 47.0211 41.6618C47.1164 41.6618 47.2116 41.7092 47.3069 41.7565C47.4021 41.8039 47.4973 41.8512 47.5449 41.8986C47.6402 41.9459 47.6878 41.9932 47.7354 42.0879C47.783 42.1353 47.8783 42.23 47.9259 42.3246C47.9735 42.4193 48.0211 42.4667 48.0688 42.5613C48.1164 42.656 48.1164 42.7507 48.164 42.8454C48.164 42.9401 48.2116 43.0348 48.2116 43.1295C48.2116 43.5082 48.0688 43.8869 47.783 44.1237C47.7354 44.171 47.6402 44.2657 47.5926 44.313C47.4973 44.3604 47.4497 44.4077 47.3545 44.4551C47.2592 44.5024 47.164 44.5024 47.0688 44.5497C46.8783 44.5024 46.783 44.5024 46.6878 44.5024Z" fill="#444B54"/>
</svg>
