<svg width="60" height="60" viewBox="0 0 60 60" fill="none" xmlns="http://www.w3.org/2000/svg">
<g clip-path="url(#clip0)">
<path d="M44.0781 38.9013H41.6265C39.5802 38.9013 38.0058 40.5954 36.5108 42.2098C36.1321 42.615 35.7601 43.0137 35.4312 43.3425C35.0891 43.688 34.5343 43.688 34.1887 43.3425L30.7341 39.8877C29.8072 38.9643 28.2959 38.9643 27.3723 39.8877C26.4521 40.8079 26.4521 42.3326 27.3723 43.2528L28.8439 44.7244C29.1861 45.0666 29.1861 45.6247 28.8439 45.9668C28.4985 46.309 27.9437 46.309 27.5982 45.9668L26.13 44.4952C24.5256 42.8941 24.5256 40.2466 26.13 38.6454C27.7378 37.0376 30.3687 37.0376 31.9765 38.6454L34.8001 41.4691C34.9464 41.3162 35.0858 41.1667 35.2253 41.0139C36.9759 39.1271 38.8195 37.144 41.6265 37.144H42.3009C41.5668 36.0777 41.1349 34.7855 41.1349 33.4004V27.2416C41.1349 26.1121 41.5966 25.0891 42.3375 24.3449C43.0816 23.6042 44.1047 23.1423 45.2341 23.1423H50.2934C51.4228 23.1423 52.446 23.6041 53.1901 24.3449C53.9309 25.0891 54.3926 26.1121 54.3926 27.2416V33.4004C54.3926 34.7855 53.9607 36.0777 53.2266 37.144H53.9441C55.6117 37.144 57.1264 37.825 58.2227 38.9213C59.3189 40.0207 59.9999 41.5322 59.9999 43.1998V57.9421C59.9999 58.4272 59.6079 58.8191 59.123 58.8191H40.8326C40.3475 58.8191 39.9523 58.4272 39.9523 57.9421V48.0364L37.7366 50.252C36.936 51.0527 35.873 51.4612 34.8067 51.4612C33.7537 51.4612 32.6973 51.0625 31.8867 50.252L30.4152 48.7805C30.073 48.4383 30.073 47.8836 30.4152 47.5381C30.7573 47.1959 31.3154 47.1959 31.6576 47.5381L33.1293 49.0096C33.5944 49.4747 34.2022 49.7038 34.8068 49.7038C35.4213 49.7038 36.0359 49.468 36.4943 49.0096L40.2115 45.2925C40.5536 44.9504 41.1083 44.9504 41.4539 45.2925C41.6232 45.4653 41.7097 45.6878 41.7097 45.9138V57.0618H52.3963V45.6645C52.3963 45.1796 52.7916 44.7842 53.2766 44.7842C53.7616 44.7842 54.1535 45.1795 54.1535 45.6645V57.0618H58.2428V43.1997C58.2428 42.0204 57.7577 40.9441 56.9805 40.1635C56.1998 39.3862 55.1269 38.9011 53.9443 38.9011L51.4529 38.8979C50.3965 39.6121 49.1276 40.0273 47.7622 40.0273C46.4 40.0274 45.1311 39.6122 44.0781 38.9013ZM16.5529 31.6497L10.6931 29.6632L6.81316 31.5633V33.4004C6.81316 34.739 7.36125 35.9548 8.24484 36.8384C9.12856 37.722 10.3444 38.2701 11.683 38.2701C13.0216 38.2701 14.2409 37.722 15.1212 36.8384C16.0048 35.9548 16.5529 34.739 16.5529 33.4004V31.6497ZM6.81316 29.6134L10.1982 27.9591C10.4075 27.8362 10.6666 27.803 10.9158 27.886L16.553 29.796V27.2414C16.553 26.597 16.2906 26.0124 15.8653 25.5872C15.4434 25.1654 14.8588 24.8996 14.2144 24.8996H9.15176C8.51062 24.8996 7.92598 25.1654 7.50082 25.5905C7.07895 26.0124 6.81316 26.597 6.81316 27.2414V29.6134ZM52.632 31.4337C51.1438 31.6829 48.5061 31.7526 46.3669 29.7895C45.6461 30.2312 44.4069 30.7793 42.8955 30.59V33.4004C42.8955 34.739 43.4436 35.9548 44.3239 36.8384C45.2075 37.722 46.4268 38.2701 47.7621 38.2701C49.1009 38.2701 50.32 37.722 51.2037 36.8384C52.084 35.9548 52.6321 34.739 52.6321 33.4004V31.4337H52.632ZM42.8955 28.8195C43.9685 29.0254 45.0746 28.6833 45.8952 27.9757C46.2606 27.6602 46.8155 27.7 47.1311 28.0655C48.948 30.155 51.4959 29.9024 52.6321 29.6533V27.2416C52.6321 26.5971 52.3697 26.0125 51.9444 25.5873C51.5225 25.1655 50.9378 24.8997 50.2934 24.8997H45.2341C44.5897 24.8997 44.0051 25.1655 43.5832 25.5906C43.158 26.0125 42.8955 26.5971 42.8955 27.2416V28.8195ZM18.3102 33.4004C18.3102 34.7855 17.8816 36.0777 17.1476 37.144H17.3104C18.9779 37.144 20.4928 37.825 21.589 38.9213C22.6853 40.0207 23.3662 41.5322 23.3662 43.1998V57.9421C23.3662 58.4272 22.9743 58.8191 22.4892 58.8191C15.2841 58.8191 8.08219 58.8191 0.88043 58.8191C0.395391 58.8191 0 58.4272 0 57.9421V43.1998C0 41.5322 0.681094 40.0207 1.78055 38.9213C2.87672 37.825 4.39148 37.144 6.05578 37.144H6.22184C5.48766 36.0777 5.05582 34.7855 5.05582 33.4004V27.2416C5.05582 26.1121 5.51754 25.0891 6.25828 24.3449C7.00242 23.6042 8.02547 23.1423 9.15164 23.1423H14.2143C15.3437 23.1423 16.3668 23.6041 17.1075 24.3449C17.8516 25.0891 18.3101 26.1121 18.3101 27.2416V33.4004H18.3102ZM15.3736 38.898C14.3173 39.6122 13.0482 40.0274 11.683 40.0274C10.3211 40.0274 9.05203 39.6122 7.9957 38.898L6.05578 38.9013C4.87652 38.9013 3.80016 39.3863 3.02285 40.1636C2.24227 40.9442 1.75723 42.0205 1.75723 43.1998V57.0619H5.84648V45.6646C5.84648 45.1797 6.23848 44.7843 6.7268 44.7843C7.21184 44.7843 7.60371 45.1796 7.60371 45.6646V57.0619H15.7623V45.6646C15.7623 45.1797 16.1576 44.7843 16.6426 44.7843C17.1277 44.7843 17.5229 45.1796 17.5229 45.6646V57.0619H21.6089V43.1998C21.6089 42.0205 21.1273 40.9442 20.3466 40.1636C19.566 39.3863 18.493 38.9013 17.3104 38.9013L15.3736 38.898ZM34.9662 7.14438C34.4811 7.14438 34.0893 6.7491 34.0893 6.26406C34.0893 5.77902 34.4813 5.38715 34.9662 5.38715H53.622C54.107 5.38715 54.4989 5.77914 54.4989 6.26406C54.4989 6.74898 54.1069 7.14438 53.622 7.14438H34.9662ZM34.9662 14.6452C34.4811 14.6452 34.0893 14.2532 34.0893 13.7682C34.0893 13.2832 34.4813 12.8879 34.9662 12.8879H49.5991C50.0842 12.8879 50.4761 13.2832 50.4761 13.7682C50.4761 14.2532 50.0841 14.6452 49.5991 14.6452H34.9662ZM34.9662 10.8947C34.4811 10.8947 34.0893 10.5027 34.0893 10.0144C34.0893 9.52938 34.4813 9.1375 34.9662 9.1375H53.622C54.107 9.1375 54.4989 9.52949 54.4989 10.0144C54.4989 10.5027 54.1069 10.8947 53.622 10.8947H34.9662ZM9.68332 8.02141C9.68332 8.50633 9.29133 8.90172 8.80629 8.90172C8.32137 8.90172 7.92598 8.50633 7.92598 8.02141C7.92598 6.985 8.34785 6.04492 9.02555 5.36395C9.70664 4.68625 10.6466 4.26438 11.6831 4.26438C12.7228 4.26438 13.6596 4.68625 14.3407 5.36395C15.0217 6.04492 15.4402 6.985 15.4402 8.02141C15.4402 9.06109 15.0217 9.99789 14.3407 10.6789C13.8591 11.1605 13.2477 11.5127 12.5634 11.6754C12.5402 12.1404 12.1548 12.5125 11.6831 12.5125C11.1981 12.5125 10.8062 12.1172 10.8062 11.6322V10.9014C10.8062 10.4164 11.1982 10.0211 11.6831 10.0211C12.2379 10.0211 12.7362 9.79856 13.0983 9.43645C13.4603 9.07434 13.6829 8.57605 13.6829 8.02129C13.6829 7.4698 13.4604 6.96824 13.0983 6.60953C12.7362 6.24742 12.2379 6.0216 11.6831 6.0216C11.1316 6.0216 10.6301 6.24754 10.2714 6.60953C9.90914 6.96836 9.68332 7.46992 9.68332 8.02141ZM10.8061 14.7714C10.8061 14.2864 11.1981 13.8944 11.683 13.8944C12.168 13.8944 12.5633 14.2864 12.5633 14.7714V15.3095C12.5633 15.7946 12.168 16.1864 11.683 16.1864C11.198 16.1864 10.8061 15.7945 10.8061 15.3095V14.7714ZM46.2838 2.93898C45.7989 2.93898 45.4069 2.54699 45.4069 2.06207C45.4069 1.57703 45.7989 1.18176 46.2838 1.18176H57.2859C58.0334 1.18176 58.7111 1.48738 59.2027 1.97898C59.6943 2.47059 59.9999 3.15156 59.9999 3.89898V16.1334C59.9999 16.8808 59.6944 17.5618 59.2027 18.0534C58.7111 18.545 58.0334 18.8506 57.2859 18.8506H42.3973L40.0055 22.0262C39.65 22.5013 38.9358 22.488 38.5937 22.0096L36.2152 18.8505H31.3021C30.5546 18.8505 29.877 18.5448 29.3854 18.0532C28.8937 17.5616 28.5881 16.8807 28.5881 16.1332V3.89887C28.5881 3.15145 28.8937 2.47047 29.3854 1.97887C29.877 1.48727 30.5546 1.18164 31.3021 1.18164H42.3042C42.7893 1.18164 43.1811 1.57703 43.1811 2.06195C43.1811 2.54687 42.7891 2.93887 42.3042 2.93887H31.3021C31.0397 2.93887 30.8005 3.04844 30.6278 3.22117C30.4518 3.39719 30.3455 3.63637 30.3455 3.89887V16.1332C30.3455 16.3957 30.4518 16.6349 30.6278 16.8109C30.8005 16.9837 31.0397 17.0934 31.3021 17.0934H36.647C36.9128 17.0934 37.1786 17.2163 37.3479 17.4454L39.3045 20.0431L41.2145 17.5086C41.3706 17.2594 41.6464 17.0934 41.9619 17.0934H57.2858C57.5482 17.0934 57.7874 16.9837 57.9601 16.8109C58.1361 16.6349 58.2424 16.3957 58.2424 16.1332V3.89887C58.2424 3.63648 58.1361 3.3973 57.9601 3.22117C57.7874 3.04844 57.5482 2.93887 57.2858 2.93887H46.2838V2.93898ZM13.6761 2.93898C13.1878 2.93898 12.7958 2.54699 12.7958 2.06207C12.7958 1.57703 13.1878 1.18176 13.6761 1.18176H18.4464C19.2005 1.18176 19.8847 1.49066 20.383 1.98566C20.878 2.48395 21.1869 3.1682 21.1869 3.9223V16.1102C21.1869 16.8643 20.878 17.5485 20.383 18.0468C19.8847 18.5418 19.2005 18.8507 18.4464 18.8507H14.7757L12.3839 22.0264C12.0285 22.5014 11.3143 22.4881 10.9721 22.0097L8.59371 18.8506H4.92305C4.16566 18.8506 3.48129 18.5417 2.98641 18.0467C2.49141 17.5484 2.1825 16.8641 2.1825 16.11V3.92219C2.1825 3.16809 2.49141 2.48383 2.98641 1.98555C3.48141 1.49055 4.16566 1.18164 4.92305 1.18164H9.69328C10.1783 1.18164 10.5736 1.57703 10.5736 2.06195C10.5736 2.54687 10.1783 2.93887 9.69328 2.93887H4.92305C4.65387 2.93887 4.40812 3.05172 4.22871 3.22785C4.0493 3.40727 3.93973 3.65301 3.93973 3.92207V16.1099C3.93973 16.379 4.04941 16.6248 4.22871 16.8041C4.40812 16.9802 4.65387 17.0931 4.92305 17.0931H9.02555C9.29133 17.0931 9.55711 17.2161 9.72645 17.4452L11.683 20.0429L13.593 17.5083C13.7491 17.2592 14.025 17.0931 14.3405 17.0931H18.4462C18.7153 17.0931 18.9612 16.9802 19.1406 16.8041C19.3166 16.6247 19.4296 16.379 19.4296 16.1099V3.92219C19.4296 3.65313 19.3166 3.40727 19.1406 3.22797C18.9612 3.05195 18.7153 2.93898 18.4462 2.93898H13.6761Z" fill="#CD1E19"/>
</g>
<defs>
<clipPath id="clip0">
<rect width="60" height="60" fill="white"/>
</clipPath>
</defs>
</svg>
