<svg width="160" height="160" viewBox="0 0 160 160" fill="none" xmlns="http://www.w3.org/2000/svg">
<circle cx="80.0003" cy="80" r="70" transform="rotate(-8 80.0003 80)" fill="#00AAFF"/>
<path fill-rule="evenodd" clip-rule="evenodd" d="M80.2919 69.8608L89.2473 55.9793L76.8126 45.1041L74.7881 47.2592L83.9405 55.2637L64.2892 58.0255L64.6889 60.8695L84.3595 58.1049L77.7518 68.3472L80.2919 69.8608Z" fill="white"/>
<path d="M42.752 98.3628L41.3687 88.5195L42.9907 88.2916L43.5636 92.3675L48.4436 91.6817L47.8708 87.6057L49.479 87.3797L50.8623 97.223L49.2541 97.449L48.6618 93.2344L43.7818 93.9202L44.3741 98.1348L42.752 98.3628ZM57.9048 96.2332L57.823 95.6509C57.3703 96.1858 56.7512 96.5084 55.9656 96.6188C54.9674 96.7591 54.0915 96.5288 53.3379 95.9278C52.5842 95.3269 52.1373 94.5273 51.997 93.5291C51.8567 92.5309 52.0659 91.6391 52.6247 90.8537C53.1835 90.0683 53.962 89.6054 54.9602 89.4651C55.7366 89.356 56.4213 89.5001 57.0144 89.8975L56.9306 89.3013L58.4556 89.087L59.4298 96.0189L57.9048 96.2332ZM55.9194 95.1833C56.6957 95.0742 57.2536 94.6848 57.5931 94.015L57.2443 91.5334C56.7413 90.9726 56.0971 90.7474 55.3115 90.8578C54.7107 90.9422 54.2454 91.2197 53.9157 91.6902C53.5847 92.1514 53.4627 92.6916 53.5497 93.3109C53.6367 93.9301 53.9036 94.4204 54.3502 94.7818C54.7955 95.1339 55.3186 95.2677 55.9194 95.1833ZM61.3912 95.8563L60.4014 88.8135L61.9126 88.6012L62.4912 92.7187L66.7631 87.8064L67.7529 94.8491L66.2418 95.0615L65.669 90.9856L61.3912 95.8563ZM64.6505 85.2475L65.7457 85.0936C65.8285 85.8171 65.6853 86.4074 65.316 86.8646C64.9546 87.3112 64.4274 87.5833 63.7342 87.6807C63.041 87.7781 62.4539 87.658 61.9729 87.3203C61.4919 86.9826 61.1967 86.4586 61.0875 85.7482L62.1688 85.5962C62.3028 86.4822 62.781 86.8674 63.6036 86.7518C64.417 86.6375 64.7659 86.1361 64.6505 85.2475ZM71.0055 94.392L70.2222 88.8188L68.1843 89.1052L67.9933 87.7466L73.7191 86.9419L73.91 88.3005L71.7473 88.6045L72.5305 94.1777L71.0055 94.392ZM75.9319 93.8128L74.9421 86.77L76.4532 86.5576L77.0319 90.6751L81.3038 85.7628L82.2936 92.8056L80.7825 93.018L80.2096 88.942L75.9319 93.8128ZM87.5597 92.0655L86.5855 85.1336L89.6771 84.6991C90.4812 84.5861 91.1218 84.6846 91.5989 84.9945C92.084 85.2939 92.3674 85.7348 92.4492 86.317C92.5259 86.8623 92.383 87.3207 92.0204 87.6921C92.7709 87.9354 93.1981 88.4267 93.3021 89.1661C93.3852 89.7576 93.2415 90.2773 92.8709 90.7253C92.5003 91.1732 91.8898 91.4569 91.0395 91.5764L87.5597 92.0655ZM88.5119 87.7752L90.1339 87.5472C90.3742 87.5135 90.5691 87.4248 90.7186 87.2813C90.876 87.1272 90.9353 86.9115 90.8963 86.6343C90.8586 86.3662 90.7429 86.1799 90.5491 86.0751C90.3645 85.9691 90.1521 85.933 89.9118 85.9668L88.2897 86.1947L88.5119 87.7752ZM88.8996 90.5341L90.8544 90.2594C91.1409 90.2191 91.3662 90.112 91.5303 89.9382C91.6943 89.7643 91.7562 89.5341 91.716 89.2476C91.677 88.9703 91.5547 88.7708 91.3491 88.6489C91.1434 88.5269 90.8974 88.4861 90.6108 88.5264L88.6561 88.8011L88.8996 90.5341ZM98.2087 90.682C97.2197 90.821 96.3306 90.5972 95.5413 90.0107C94.7612 89.4228 94.2997 88.6206 94.1569 87.6039C94.014 86.5872 94.2272 85.6902 94.7965 84.9127C95.3751 84.1339 96.1635 83.6744 97.1617 83.5341C98.1876 83.3899 99.0648 83.6295 99.7933 84.2529C100.53 84.8657 100.953 85.7675 101.064 86.9583L95.7267 87.7085C95.8601 88.2552 96.1449 88.6723 96.5811 88.9597C97.0253 89.2366 97.497 89.34 97.9961 89.2698C98.7817 89.1594 99.3521 88.7918 99.7072 88.1669L100.935 88.9557C100.365 89.9312 99.4564 90.5066 98.2087 90.682ZM97.2617 84.849C96.855 84.9062 96.489 85.0848 96.1636 85.385C95.8369 85.676 95.6578 86.0782 95.6263 86.5916L99.314 86.0733C99.1738 85.6123 98.9146 85.2765 98.5362 85.0657C98.1579 84.855 97.733 84.7828 97.2617 84.849ZM113.174 87.0802L113.608 90.1718L112.194 90.3705L111.951 88.6376L102.967 89.9001L101.993 82.9683L103.504 82.7559L104.287 88.3291L106.658 87.9959L105.875 82.4227L107.386 82.2103L108.169 87.7836L110.526 87.4523L109.742 81.8791L111.268 81.6648L112.051 87.238L113.174 87.0802ZM114.761 88.3557L113.771 81.3129L115.283 81.1005L115.861 85.218L120.133 80.3057L121.123 87.3485L119.612 87.5608L119.039 83.4849L114.761 88.3557ZM43.245 113.554L42.2552 106.511L43.7664 106.299L44.3451 110.416L48.617 105.504L49.6068 112.547L48.0956 112.759L47.5228 108.683L43.245 113.554ZM53.679 112.088C52.4498 112.26 51.4593 111.919 50.7075 111.063L51.7233 110.143C52.159 110.694 52.7419 110.919 53.472 110.816C53.9064 110.755 54.213 110.622 54.3916 110.418C54.5795 110.213 54.654 109.971 54.615 109.694C54.576 109.417 54.434 109.211 54.1888 109.075C53.9528 108.939 53.6407 108.898 53.2525 108.952L52.3237 109.083L52.1678 107.974L53.0412 107.851C53.3462 107.808 53.5906 107.703 53.7745 107.536C53.9663 107.358 54.0427 107.131 54.0037 106.853C53.9674 106.595 53.8378 106.41 53.6149 106.3C53.4014 106.189 53.1375 106.155 52.8232 106.199C52.1485 106.294 51.6845 106.614 51.4311 107.158L50.2922 106.499C50.7985 105.607 51.6015 105.085 52.7014 104.93C53.4777 104.821 54.1097 104.925 54.5974 105.243C55.0943 105.56 55.3817 105.995 55.4596 106.55C55.5493 107.188 55.3395 107.707 54.8305 108.109C55.2143 108.224 55.524 108.416 55.7597 108.685C55.9941 108.944 56.1366 109.254 56.1872 109.614C56.2665 110.178 56.095 110.702 55.6729 111.185C55.2494 111.66 54.5848 111.96 53.679 112.088ZM61.3038 110.903L60.3296 103.971L66.4989 103.104L67.4731 110.036L65.9481 110.25L65.1649 104.677L62.0455 105.115L62.8288 110.689L61.3038 110.903ZM68.4393 102.831L69.9643 102.617L70.0462 103.199C70.4988 102.664 71.1179 102.342 71.9035 102.231C72.9017 102.091 73.7776 102.321 74.5313 102.922C75.2849 103.523 75.7319 104.323 75.8722 105.321C76.0124 106.319 75.8032 107.211 75.2444 107.996C74.6856 108.782 73.9071 109.245 72.9089 109.385C72.1325 109.494 71.4478 109.35 70.8548 108.953L71.297 112.1L69.772 112.314L68.4393 102.831ZM72.5715 107.99C73.1723 107.906 73.6336 107.634 73.9554 107.174C74.2851 106.703 74.4064 106.159 74.3194 105.539C74.2324 104.92 73.9662 104.434 73.5209 104.082C73.0835 103.72 72.5644 103.58 71.9636 103.665C71.141 103.781 70.5785 104.171 70.2761 104.835L70.6248 107.317C71.1001 107.881 71.749 108.106 72.5715 107.99ZM81.0518 108.241C80.0259 108.385 79.1183 108.164 78.329 107.577C77.5476 106.98 77.0861 106.178 76.9445 105.17C76.803 104.163 77.0261 103.269 77.6139 102.489C78.2097 101.699 79.0205 101.231 80.0464 101.087C81.0631 100.944 81.9621 101.171 82.7435 101.768C83.5341 102.364 83.9995 103.161 84.1398 104.159C84.2801 105.157 84.0524 106.052 83.4566 106.842C82.8701 107.632 82.0685 108.098 81.0518 108.241ZM80.8511 106.813C81.4519 106.728 81.9132 106.456 82.2349 105.996C82.5567 105.536 82.6741 104.997 82.5871 104.377C82.5001 103.758 82.2385 103.272 81.8024 102.918C81.3663 102.565 80.8479 102.43 80.2471 102.515C79.6371 102.601 79.1712 102.873 78.8494 103.333C78.5276 103.793 78.4102 104.333 78.4973 104.952C78.5843 105.571 78.8459 106.058 79.282 106.411C79.7181 106.765 80.2411 106.898 80.8511 106.813ZM86.1204 107.415L85.1462 100.483L86.6574 100.271L87.4406 105.844L89.8113 105.511L89.0281 99.9377L90.5392 99.7254L91.3225 105.299L93.6793 104.967L92.8961 99.3941L94.4211 99.1798L95.3953 106.112L86.1204 107.415ZM96.2769 105.988L99.0858 98.4111L103.874 104.92L102.155 105.162L99.5186 101.39L97.9406 105.754L96.2769 105.988ZM107.723 104.492C106.697 104.636 105.79 104.415 105 103.829C104.219 103.232 103.758 102.429 103.616 101.422C103.474 100.414 103.698 99.5207 104.285 98.7407C104.881 97.9501 105.692 97.4827 106.718 97.3385C107.735 97.1956 108.634 97.4227 109.415 98.0198C110.206 98.6155 110.671 99.4125 110.811 100.411C110.952 101.409 110.724 102.303 110.128 103.094C109.542 103.883 108.74 104.349 107.723 104.492ZM107.523 103.064C108.123 102.98 108.585 102.708 108.906 102.248C109.228 101.788 109.346 101.248 109.259 100.629C109.172 100.01 108.91 99.5233 108.474 99.1699C108.038 98.8165 107.519 98.682 106.919 98.7665C106.309 98.8522 105.843 99.125 105.521 99.5849C105.199 100.045 105.082 100.584 105.169 101.204C105.256 101.823 105.517 102.309 105.953 102.663C106.39 103.016 106.913 103.15 107.523 103.064ZM112.792 103.667L111.818 96.7349L116.268 96.1094L116.459 97.4681L113.52 97.8811L114.303 103.454L112.792 103.667ZM121.438 102.565C120.412 102.709 119.505 102.488 118.715 101.901C117.934 101.304 117.472 100.502 117.331 99.4944C117.189 98.487 117.412 97.5933 118 96.8132C118.596 96.0226 119.407 95.5552 120.433 95.411C121.449 95.2681 122.348 95.4952 123.13 96.0923C123.92 96.688 124.386 97.485 124.526 98.4832C124.666 99.4814 124.439 100.376 123.843 101.166C123.256 101.956 122.455 102.422 121.438 102.565ZM121.237 101.137C121.838 101.052 122.299 100.78 122.621 100.32C122.943 99.8603 123.06 99.3207 122.973 98.7014C122.886 98.0822 122.625 97.5958 122.189 97.2424C121.753 96.889 121.234 96.7545 120.633 96.839C120.023 96.9247 119.558 97.1975 119.236 97.6574C118.914 98.1174 118.797 98.657 118.884 99.2762C118.971 99.8955 119.232 100.382 119.668 100.735C120.104 101.089 120.627 101.222 121.237 101.137Z" fill="white"/>
</svg>
