<svg width="60" height="60" viewBox="0 0 60 60" fill="none" xmlns="http://www.w3.org/2000/svg">
<path d="M52.9688 30.8789H45.0948L45.0091 31.6622C44.6654 34.8023 43.3649 37.7107 41.2477 40.0731L42.5566 41.2462C44.7434 38.8064 46.1501 35.8437 46.6523 32.6367H51.2109V39.8162C45.1255 40.248 40.248 45.1255 39.8162 51.2109H32.6367V46.6522C35.8439 46.1498 38.8066 44.7431 41.2464 42.5565L40.0731 41.2475C37.7112 43.3645 34.8026 44.6653 31.6623 45.009L30.8789 45.0947V52.9688H41.543V52.0898C41.543 46.2743 46.2743 41.543 52.0898 41.543H52.9688V30.8789Z" fill="#CD1E19"/>
<path d="M52.0898 16.6992H52.9688V7.03125H43.3008V7.91016C43.3008 12.7564 47.2436 16.6992 52.0898 16.6992ZM51.2109 8.78906V14.8868C48.0353 14.4889 45.5111 11.9646 45.1132 8.78906H51.2109Z" fill="#CD1E19"/>
<path d="M30.8789 7.03125V14.9053L31.6622 14.991C38.633 15.7539 44.2463 21.367 45.0091 28.3378L45.0948 29.1211H52.9688V18.457H52.0898C49.5731 18.457 47.1362 17.5557 45.2278 15.9191L44.0834 17.2534C46.0871 18.9718 48.5903 19.9956 51.2108 20.1833V27.3633H46.6515C46.0993 23.8686 44.437 20.5973 41.9197 18.08C39.4027 15.563 36.1312 13.9005 32.6366 13.3484V8.78906H39.8166C40.0044 11.4098 41.0282 13.913 42.7466 15.9165L44.0808 14.7721C42.4443 12.864 41.543 10.4271 41.543 7.91016V7.03125H30.8789Z" fill="#CD1E19"/>
<path d="M58.2422 58.2422H1.75781V8.78906H0V60H60V52.9688H58.2422V58.2422Z" fill="#CD1E19"/>
<path d="M16.6992 7.91016V7.03125H7.03125V16.6992H7.91016C12.7564 16.6992 16.6992 12.7564 16.6992 7.91016ZM8.78906 8.78906H14.8868C14.4888 11.9646 11.9646 14.4889 8.78906 14.8868V8.78906Z" fill="#CD1E19"/>
<path d="M7.03125 29.1211H14.9052L14.9909 28.3378C15.7537 21.367 21.3669 15.7539 28.3379 14.9909L29.1212 14.9051V7.03125H18.457V7.91016C18.457 13.7257 13.7257 18.457 7.91016 18.457H7.03125V29.1211ZM8.78906 20.1838C14.8745 19.752 19.752 14.8745 20.1838 8.78906H27.3634V13.3482C23.8688 13.9005 20.5975 15.5629 18.0802 18.08C15.563 20.5972 13.9005 23.8686 13.3484 27.3633H8.78906V20.1838Z" fill="#CD1E19"/>
<path d="M16.7896 31.8806C17.6149 37.7259 22.2738 42.3847 28.1191 43.2101L29.1209 43.3515V39.0608C29.1209 34.5493 25.4506 30.8789 20.9391 30.8789H16.6484L16.7896 31.8806ZM20.9391 32.6367C24.4814 32.6367 27.3631 35.5186 27.3631 39.0608V41.2823C23.0947 40.2854 19.7144 36.9052 18.7176 32.6368H20.9391V32.6367Z" fill="#CD1E19"/>
<path d="M19.9251 21.2541C18.2332 23.2014 17.1491 25.5753 16.7899 28.1193L16.6484 29.1211H20.9391C25.4506 29.1211 29.1209 25.4507 29.1209 20.9393V16.6484L28.1191 16.7899C25.5754 17.1491 23.2016 18.2332 21.254 19.925L22.4069 21.2519C23.8391 20.0077 25.5362 19.1422 27.3631 18.7171V20.9391C27.3631 24.4814 24.4813 27.3631 20.9391 27.3631H18.7171C19.1422 25.5361 20.0077 23.8389 21.2519 22.4069L19.9251 21.2541Z" fill="#CD1E19"/>
<path d="M7.03125 52.9688H16.6992V52.0898C16.6992 50.1015 16.016 48.1528 14.7755 46.6025L13.403 47.7008C14.2246 48.7274 14.7299 49.9273 14.8879 51.2109H8.78906V45.1121C10.073 45.2701 11.2727 45.7755 12.2991 46.5969L13.3975 45.2245C11.8475 43.984 9.89883 43.3008 7.91016 43.3008H7.03125V52.9688Z" fill="#CD1E19"/>
<path d="M7.03125 41.543H7.91016C13.7257 41.543 18.457 46.2743 18.457 52.0898V52.9688H29.1212V45.0948L28.3379 45.009C21.367 44.2461 15.7537 38.6329 14.9909 31.6622L14.9052 30.8789H7.03125V41.543ZM8.78906 32.6367H13.3484C13.9005 36.1314 15.5629 39.4027 18.0802 41.92C20.5973 44.4372 23.8688 46.0995 27.3634 46.6518V51.2109H20.1838C19.7518 45.1255 14.8744 40.248 8.78906 39.8162V32.6367Z" fill="#CD1E19"/>
<path d="M0 0V7.03125H1.75781V1.75781H58.2422V51.2109H60V0H0Z" fill="#CD1E19"/>
<path d="M30.879 20.9393C30.879 25.4507 34.5495 29.1211 39.0609 29.1211H43.3515L43.2102 28.1193C42.385 22.2741 37.7262 17.6152 31.8807 16.7899L30.8789 16.6484V20.9393H30.879ZM32.6368 18.7177C36.9053 19.7146 40.2857 23.0949 41.2823 27.3632H39.0609C35.5186 27.3632 32.6368 24.4815 32.6368 20.9393V18.7177Z" fill="#CD1E19"/>
<path d="M43.2101 31.8806L43.3514 30.8789H39.0608C34.5493 30.8789 30.8789 34.5493 30.8789 39.0608V43.3515L31.8807 43.2101C37.7261 42.3847 42.3848 37.7259 43.2101 31.8806ZM32.6366 39.0608C32.6366 35.5186 35.5185 32.6367 39.0607 32.6367H41.2821C40.2853 36.905 36.9049 40.2853 32.6366 41.2822V39.0608Z" fill="#CD1E19"/>
<path d="M30.0002 25.2305L29.2647 26.3551C28.5118 27.5062 27.5054 28.5127 26.3541 29.2656L25.2295 30.001L26.3541 30.7366C27.5054 31.4896 28.5118 32.496 29.2647 33.647L30.0002 34.7717L30.7357 33.6471C31.4886 32.496 32.4951 31.4894 33.6461 30.7368L34.7709 30.0013L33.6463 29.2657C32.495 28.5127 31.4886 27.5062 30.7357 26.3552L30.0002 25.2305ZM31.6813 30.001C31.0677 30.5032 30.5024 31.0684 30.0002 31.6821C29.4981 31.0685 28.9329 30.5032 28.3191 30.0012C28.9327 29.499 29.4981 28.9337 30.0002 28.3201C30.5024 28.9337 31.0675 29.4989 31.6813 30.001Z" fill="#CD1E19"/>
<path d="M43.3008 52.0898V52.9688H52.9688V43.3008H52.0898C47.2436 43.3008 43.3008 47.2436 43.3008 52.0898ZM51.2109 51.2109H45.1132C45.5112 48.0354 48.0354 45.5111 51.2109 45.1132V51.2109Z" fill="#CD1E19"/>
<path d="M3.51562 54.7266H5.27344V56.4844H3.51562V54.7266Z" fill="#CD1E19"/>
<path d="M3.51562 45.9375H5.27344V52.9688H3.51562V45.9375Z" fill="#CD1E19"/>
<path d="M54.7266 7.03125H56.4844V14.0625H54.7266V7.03125Z" fill="#CD1E19"/>
<path d="M54.7266 3.51562H56.4844V5.27344H54.7266V3.51562Z" fill="#CD1E19"/>
</svg>
