<svg width="399" height="103" viewBox="0 0 399 103" fill="none" xmlns="http://www.w3.org/2000/svg">
<rect width="399" height="103" fill="#E5E5E5"/>
<path d="M44 1H10C5.02944 1 1 5.02944 1 10V66C1 70.9706 5.02944 75 10 75H44C48.9706 75 53 70.9706 53 66V10C53 5.02944 48.9706 1 44 1Z" fill="#701DF7" stroke="#19C4EF" stroke-width="2"/>
<path d="M44 0H10C4.47715 0 0 4.47715 0 10V66C0 71.5229 4.47715 76 10 76H44C49.5228 76 54 71.5229 54 66V10C54 4.47715 49.5228 0 44 0Z" fill="#701DF7"/>
<path d="M188 0H154C148.477 0 144 4.47715 144 10V66C144 71.5229 148.477 76 154 76H188C193.523 76 198 71.5229 198 66V10C198 4.47715 193.523 0 188 0Z" fill="#701DF7"/>
<path d="M332 0H298C292.477 0 288 4.47715 288 10V66C288 71.5229 292.477 76 298 76H332C337.523 76 342 71.5229 342 66V10C342 4.47715 337.523 0 332 0Z" fill="#701DF7"/>
<path d="M101 0H67C61.4772 0 57 4.47715 57 10V66C57 71.5229 61.4772 76 67 76H101C106.523 76 111 71.5229 111 66V10C111 4.47715 106.523 0 101 0Z" fill="#701DF7"/>
<path d="M245 0H211C205.477 0 201 4.47715 201 10V66C201 71.5229 205.477 76 211 76H245C250.523 76 255 71.5229 255 66V10C255 4.47715 250.523 0 245 0Z" fill="#701DF7"/>
<path d="M389 0H355C349.477 0 345 4.47715 345 10V66C345 71.5229 349.477 76 355 76H389C394.523 76 399 71.5229 399 66V10C399 4.47715 394.523 0 389 0Z" fill="#701DF7"/>
<path d="M132.705 32.696C132.705 34.376 132.164 35.664 131.081 36.56C130.036 37.4187 128.841 37.848 127.497 37.848C126.153 37.848 124.94 37.4187 123.857 36.56C122.812 35.664 122.289 34.376 122.289 32.696C122.289 31.016 122.812 29.7467 123.857 28.888C124.94 27.992 126.153 27.544 127.497 27.544C128.841 27.544 130.036 27.992 131.081 28.888C132.164 29.7467 132.705 31.016 132.705 32.696ZM132.705 52.576C132.705 54.256 132.164 55.544 131.081 56.44C130.036 57.2987 128.841 57.728 127.497 57.728C126.153 57.728 124.94 57.2987 123.857 56.44C122.812 55.544 122.289 54.256 122.289 52.576C122.289 50.896 122.812 49.6267 123.857 48.768C124.94 47.872 126.153 47.424 127.497 47.424C128.841 47.424 130.036 47.872 131.081 48.768C132.164 49.6267 132.705 50.896 132.705 52.576Z" fill="#701DF7"/>
<path d="M275.705 32.696C275.705 34.376 275.164 35.664 274.081 36.56C273.036 37.4187 271.841 37.848 270.497 37.848C269.153 37.848 267.94 37.4187 266.857 36.56C265.812 35.664 265.289 34.376 265.289 32.696C265.289 31.016 265.812 29.7467 266.857 28.888C267.94 27.992 269.153 27.544 270.497 27.544C271.841 27.544 273.036 27.992 274.081 28.888C275.164 29.7467 275.705 31.016 275.705 32.696ZM275.705 52.576C275.705 54.256 275.164 55.544 274.081 56.44C273.036 57.2987 271.841 57.728 270.497 57.728C269.153 57.728 267.94 57.2987 266.857 56.44C265.812 55.544 265.289 54.256 265.289 52.576C265.289 50.896 265.812 49.6267 266.857 48.768C267.94 47.872 269.153 47.424 270.497 47.424C271.841 47.424 273.036 47.872 274.081 48.768C275.164 49.6267 275.705 50.896 275.705 52.576Z" fill="#701DF7"/>
</svg>
