<svg width="60" height="60" viewBox="0 0 60 60" fill="none" xmlns="http://www.w3.org/2000/svg">
<path d="M49.6875 5.625V30H51.5625V5.625C51.5614 4.63078 51.1659 3.6776 50.4629 2.97458C49.7599 2.27156 48.8067 1.87612 47.8125 1.875H15.9375V3.75H47.8125C48.3096 3.75059 48.7862 3.94832 49.1377 4.29983C49.4892 4.65133 49.6869 5.1279 49.6875 5.625Z" fill="#CD1E19"/>
<path d="M10.3125 5.625C10.3131 5.1279 10.5108 4.65133 10.8623 4.29983C11.2138 3.94832 11.6904 3.75059 12.1875 3.75H14.0625V1.875H12.1875C11.1933 1.87612 10.2401 2.27156 9.53708 2.97458C8.83406 3.6776 8.43862 4.63078 8.4375 5.625V38.4375H10.3125V5.625Z" fill="#CD1E19"/>
<path d="M12.1875 5.625H14.0625V7.5H12.1875V5.625Z" fill="#CD1E19"/>
<path d="M15.9375 5.625H17.8125V7.5H15.9375V5.625Z" fill="#CD1E19"/>
<path d="M19.6875 5.625H21.5625V7.5H19.6875V5.625Z" fill="#CD1E19"/>
<path d="M47.8125 9.37498H40.2329C40.0116 8.06433 39.3332 6.87444 38.3181 6.01637C37.3029 5.15829 36.0167 4.6875 34.6875 4.6875C33.3583 4.6875 32.0721 5.15829 31.0569 6.01637C30.0418 6.87444 29.3634 8.06433 29.1421 9.37498H12.1875V11.25H29.1279C29.2774 12.3352 29.6889 13.3676 30.327 14.2581L33.9246 19.2948C34.0113 19.4162 34.1258 19.5152 34.2585 19.5835C34.3912 19.6518 34.5383 19.6874 34.6875 19.6874C34.8367 19.6874 34.9838 19.6518 35.1165 19.5835C35.2492 19.5152 35.3637 19.4162 35.4504 19.2948L39.048 14.2581C39.686 13.3676 40.0976 12.3352 40.2471 11.25H47.8125V9.37498ZM37.5223 13.1682L34.6875 17.137L31.8527 13.1682C31.2558 12.3358 30.9356 11.3368 30.9375 10.3125C30.9375 9.31792 31.3326 8.36409 32.0359 7.66083C32.7391 6.95757 33.6929 6.56248 34.6875 6.56248C35.6821 6.56248 36.6359 6.95757 37.3391 7.66083C38.0424 8.36409 38.4375 9.31792 38.4375 10.3125C38.4394 11.3368 38.1192 12.3358 37.5223 13.1682Z" fill="#CD1E19"/>
<path d="M27.9641 25.3125H32.0367C32.2307 25.8606 32.5898 26.335 33.0646 26.6706C33.5394 27.0062 34.1065 27.1864 34.6879 27.1864C35.2693 27.1864 35.8364 27.0062 36.3112 26.6706C36.786 26.335 37.1451 25.8606 37.3391 25.3125H42.3492C42.5703 25.938 43.0055 26.4652 43.5777 26.8009C44.15 27.1366 44.8225 27.2592 45.4764 27.147C46.1303 27.0348 46.7235 26.6951 47.1511 26.1878C47.5788 25.6806 47.8133 25.0385 47.8133 24.375C47.8133 23.7115 47.5788 23.0694 47.1511 22.5622C46.7235 22.0549 46.1303 21.7152 45.4764 21.603C44.8225 21.4908 44.15 21.6134 43.5777 21.9491C43.0055 22.2848 42.5703 22.812 42.3492 23.4375H37.3391C37.1451 22.8894 36.786 22.415 36.3112 22.0794C35.8364 21.7438 35.2693 21.5636 34.6879 21.5636C34.1065 21.5636 33.5394 21.7438 33.0646 22.0794C32.5898 22.415 32.2307 22.8894 32.0367 23.4375H27.9641C27.7701 22.8894 27.411 22.415 26.9362 22.0794C26.4614 21.7438 25.8943 21.5636 25.3129 21.5636C24.7315 21.5636 24.1644 21.7438 23.6896 22.0794C23.2148 22.415 22.8557 22.8894 22.6617 23.4375H17.6516C17.4305 22.812 16.9953 22.2848 16.4231 21.9491C15.8508 21.6134 15.1783 21.4908 14.5244 21.603C13.8705 21.7152 13.2773 22.0549 12.8497 22.5622C12.422 23.0694 12.1875 23.7115 12.1875 24.375C12.1875 25.0385 12.422 25.6806 12.8497 26.1878C13.2773 26.6951 13.8705 27.0348 14.5244 27.147C15.1783 27.2592 15.8508 27.1366 16.4231 26.8009C16.9953 26.4652 17.4305 25.938 17.6516 25.3125H22.6617C22.8557 25.8606 23.2148 26.335 23.6896 26.6706C24.1644 27.0062 24.7315 27.1864 25.3129 27.1864C25.8943 27.1864 26.4614 27.0062 26.9362 26.6706C27.411 26.335 27.7701 25.8606 27.9641 25.3125ZM45.0004 23.4375C45.1858 23.4375 45.3671 23.4925 45.5212 23.5955C45.6754 23.6985 45.7956 23.8449 45.8665 24.0162C45.9375 24.1875 45.9561 24.376 45.9199 24.5579C45.8837 24.7398 45.7944 24.9068 45.6633 25.0379C45.5322 25.169 45.3652 25.2583 45.1833 25.2945C45.0014 25.3307 44.8129 25.3121 44.6416 25.2411C44.4703 25.1702 44.3239 25.05 44.2209 24.8958C44.1179 24.7417 44.0629 24.5604 44.0629 24.375C44.0632 24.1264 44.162 23.8882 44.3378 23.7124C44.5135 23.5366 44.7518 23.4378 45.0004 23.4375ZM34.6879 23.4375C34.8733 23.4375 35.0546 23.4925 35.2087 23.5955C35.3629 23.6985 35.4831 23.8449 35.554 24.0162C35.625 24.1875 35.6436 24.376 35.6074 24.5579C35.5712 24.7398 35.4819 24.9068 35.3508 25.0379C35.2197 25.169 35.0527 25.2583 34.8708 25.2945C34.6889 25.3307 34.5004 25.3121 34.3291 25.2411C34.1578 25.1702 34.0114 25.05 33.9084 24.8958C33.8054 24.7417 33.7504 24.5604 33.7504 24.375C33.7507 24.1264 33.8495 23.8882 34.0253 23.7124C34.201 23.5366 34.4393 23.4378 34.6879 23.4375ZM15.0004 25.3125C14.815 25.3125 14.6337 25.2575 14.4796 25.1545C14.3254 25.0515 14.2052 24.9051 14.1343 24.7338C14.0633 24.5625 14.0447 24.374 14.0809 24.1921C14.1171 24.0102 14.2064 23.8432 14.3375 23.7121C14.4686 23.581 14.6356 23.4917 14.8175 23.4555C14.9994 23.4193 15.1879 23.4379 15.3592 23.5089C15.5305 23.5798 15.6769 23.7 15.7799 23.8542C15.8829 24.0083 15.9379 24.1896 15.9379 24.375C15.9376 24.6236 15.8388 24.8619 15.663 25.0376C15.4872 25.2134 15.249 25.3122 15.0004 25.3125ZM25.3129 25.3125C25.1275 25.3125 24.9462 25.2575 24.7921 25.1545C24.6379 25.0515 24.5177 24.9051 24.4468 24.7338C24.3758 24.5625 24.3572 24.374 24.3934 24.1921C24.4296 24.0102 24.5189 23.8432 24.65 23.7121C24.7811 23.581 24.9481 23.4917 25.13 23.4555C25.3119 23.4193 25.5004 23.4379 25.6717 23.5089C25.843 23.5798 25.9894 23.7 26.0924 23.8542C26.1954 24.0083 26.2504 24.1896 26.2504 24.375C26.2501 24.6236 26.1513 24.8619 25.9755 25.0376C25.7997 25.2134 25.5615 25.3122 25.3129 25.3125Z" fill="#CD1E19"/>
<path d="M13.125 29.0625H16.875V30.9375H13.125V29.0625Z" fill="#CD1E19"/>
<path d="M23.4375 29.0625H27.1875V30.9375H23.4375V29.0625Z" fill="#CD1E19"/>
<path d="M13.125 33.75H26.25V35.625H13.125V33.75Z" fill="#CD1E19"/>
<path d="M12.1875 13.125H20.625V15H12.1875V13.125Z" fill="#CD1E19"/>
<path d="M12.1875 16.875H18.75V18.75H12.1875V16.875Z" fill="#CD1E19"/>
<path d="M42.1875 13.125H47.8125V15H42.1875V13.125Z" fill="#CD1E19"/>
<path d="M42.1875 16.875H47.8125V18.75H42.1875V16.875Z" fill="#CD1E19"/>
<path d="M34.6875 12.1875C35.723 12.1875 36.5625 11.348 36.5625 10.3125C36.5625 9.27697 35.723 8.4375 34.6875 8.4375C33.652 8.4375 32.8125 9.27697 32.8125 10.3125C32.8125 11.348 33.652 12.1875 34.6875 12.1875Z" fill="#CD1E19"/>
<path d="M57.268 53.1295L50.3774 46.2389C51.2192 45.0101 51.8276 43.6367 52.1719 42.1875H54.375V45C54.3748 45.2638 54.319 45.5245 54.2112 45.7653C54.1035 46.0061 53.9462 46.2214 53.7497 46.3973L55.0003 47.7945C55.3932 47.4425 55.7075 47.0118 55.9228 46.5303C56.1381 46.0489 56.2496 45.5274 56.25 45V14.0625C56.2491 13.2872 56.0084 12.5311 55.5608 11.898C55.1132 11.2649 54.4807 10.7858 53.75 10.5264L53.125 12.294C53.4903 12.4238 53.8066 12.6634 54.0304 12.98C54.2542 13.2967 54.3746 13.6748 54.375 14.0625V40.3125H52.4648C52.4883 40.003 52.5002 39.6905 52.5006 39.375C52.5006 37.0223 51.8197 34.7198 50.5399 32.7456C49.2602 30.7713 47.4363 29.2097 45.2886 28.2492C43.1408 27.2887 40.761 26.9704 38.4363 27.3327C36.1116 27.695 33.9415 28.7224 32.1879 30.291L33.4383 31.6881C35.4032 29.9322 37.9661 28.9958 40.6002 29.0716C43.2343 29.1474 45.7392 30.2296 47.5998 32.0956C49.4605 33.9616 50.5354 36.4696 50.6036 39.1039C50.6718 41.7382 49.7281 44.2985 47.9665 46.2583C46.2049 48.2181 43.7594 49.4284 41.1328 49.6404C38.5062 49.8525 35.8982 49.05 33.8451 47.3981C31.7919 45.7462 30.4498 43.3705 30.0946 40.7593C29.7394 38.1482 30.3982 35.5003 31.9355 33.36L30.4133 32.265C28.92 34.3345 28.1191 36.823 28.125 39.375C28.125 39.6903 28.1369 40.0028 28.1607 40.3125H5.625V14.0625C5.62542 13.6748 5.74579 13.2967 5.96959 12.98C6.19339 12.6634 6.50967 12.4238 6.87504 12.294L6.24996 10.5264C5.51929 10.7858 4.88678 11.2649 4.43919 11.898C3.9916 12.5311 3.75086 13.2872 3.75 14.0625V45C3.75112 45.9942 4.14656 46.9474 4.84958 47.6504C5.5526 48.3534 6.50578 48.7489 7.5 48.75H24.0524L21.8024 56.25H19.6875V58.125H40.3125V56.25H38.1974L37.2728 53.168L35.4769 53.707L36.2399 56.25H23.76L26.01 48.75H32.5337C34.3881 50.2926 36.6593 51.249 39.0586 51.4977C41.4578 51.7464 43.8769 51.2762 46.0083 50.1468L53.1294 57.268C53.6782 57.8168 54.4225 58.1251 55.1987 58.1251C55.9748 58.1251 56.7191 57.8168 57.2679 57.268C57.8167 56.7192 58.125 55.9749 58.125 55.1988C58.125 54.4227 57.8167 53.6783 57.2679 53.1295H57.268ZM5.625 45V42.1875H28.4531C28.859 43.8948 29.6298 45.494 30.7125 46.875H7.5C7.0029 46.8744 6.52633 46.6767 6.17483 46.3252C5.82332 45.9737 5.62559 45.4971 5.625 45ZM49.196 47.7094L50.2366 48.75L48.75 50.2366L47.6291 49.1157C48.1906 48.6926 48.7149 48.2221 49.196 47.7094ZM55.1987 56.25C55.0606 56.2504 54.9238 56.2233 54.7963 56.1705C54.6687 56.1176 54.5529 56.04 54.4555 55.942L50.0757 51.5625L51.5625 50.0757L55.942 54.4555C56.0891 54.6025 56.1892 54.7898 56.2297 54.9937C56.2703 55.1977 56.2495 55.409 56.1699 55.6011C56.0904 55.7932 55.9556 55.9574 55.7827 56.0729C55.6099 56.1884 55.4066 56.25 55.1987 56.25Z" fill="#CD1E19"/>
<path d="M40.3125 47.8125C41.9813 47.8125 43.6126 47.3177 45.0001 46.3905C46.3877 45.4634 47.4691 44.1456 48.1077 42.6039C48.7463 41.0621 48.9134 39.3656 48.5879 37.7289C48.2623 36.0922 47.4587 34.5888 46.2787 33.4088C45.0987 32.2288 43.5953 31.4252 41.9586 31.0996C40.3219 30.7741 38.6254 30.9412 37.0836 31.5798C35.5419 32.2184 34.2241 33.2998 33.297 34.6874C32.3699 36.0749 31.875 37.7062 31.875 39.375C31.8775 41.612 32.7673 43.7566 34.3491 45.3384C35.9309 46.9202 38.0755 47.81 40.3125 47.8125ZM40.3125 32.8125C41.6104 32.8125 42.8792 33.1974 43.9584 33.9185C45.0376 34.6396 45.8788 35.6645 46.3755 36.8636C46.8722 38.0628 47.0021 39.3823 46.7489 40.6553C46.4957 41.9283 45.8707 43.0976 44.9529 44.0154C44.0351 44.9332 42.8658 45.5582 41.5928 45.8114C40.3198 46.0646 39.0003 45.9347 37.8011 45.438C36.602 44.9413 35.5771 44.1001 34.856 43.0209C34.1349 41.9417 33.75 40.6729 33.75 39.375C33.752 37.6351 34.444 35.9671 35.6743 34.7368C36.9046 33.5065 38.5726 32.8145 40.3125 32.8125Z" fill="#CD1E19"/>
<path d="M40.3125 36.5625V34.6875C39.0697 34.6889 37.8783 35.1832 36.9995 36.062C36.1207 36.9408 35.6264 38.1322 35.625 39.375H37.5C37.5009 38.6293 37.7975 37.9145 38.3247 37.3872C38.852 36.86 39.5668 36.5634 40.3125 36.5625Z" fill="#CD1E19"/>
</svg>
