<svg width="60" height="60" viewBox="0 0 60 60" fill="none" xmlns="http://www.w3.org/2000/svg">
<path d="M54.375 51.5625H50.8441C51.0893 51.2895 51.2784 50.9709 51.4008 50.625H53.4375C53.6861 50.625 53.9246 50.5262 54.1004 50.3504C54.2762 50.1746 54.375 49.9361 54.375 49.6875V38.4375C54.375 38.1889 54.2762 37.9504 54.1004 37.7746C53.9246 37.5988 53.6861 37.5 53.4375 37.5H41.25C41.0014 37.5 40.7629 37.5988 40.5871 37.7746C40.4113 37.9504 40.3125 38.1889 40.3125 38.4375V39.375H38.4375V28.125C38.4375 27.9509 38.389 27.7802 38.2976 27.632C38.2061 27.4838 38.0752 27.364 37.9195 27.2859L22.9195 19.7859C22.7892 19.7212 22.6456 19.6875 22.5 19.6875C22.3544 19.6875 22.2108 19.7212 22.0805 19.7859L7.08047 27.2859C6.92481 27.364 6.79392 27.4838 6.70245 27.632C6.61098 27.7802 6.56252 27.9509 6.5625 28.125V51.5625H1.875C1.62636 51.5625 1.3879 51.6613 1.21209 51.8371C1.03627 52.0129 0.9375 52.2514 0.9375 52.5C0.9375 52.7486 1.03627 52.9871 1.21209 53.1629C1.3879 53.3387 1.62636 53.4375 1.875 53.4375H54.375C54.6236 53.4375 54.8621 53.3387 55.0379 53.1629C55.2137 52.9871 55.3125 52.7486 55.3125 52.5C55.3125 52.2514 55.2137 52.0129 55.0379 51.8371C54.8621 51.6613 54.6236 51.5625 54.375 51.5625ZM42.1875 39.375H52.5V44.0625H42.1875V39.375ZM18.75 50.625H15V46.875H15.9375V47.8125C15.9375 48.0611 16.0363 48.2996 16.2121 48.4754C16.3879 48.6512 16.6264 48.75 16.875 48.75C17.1236 48.75 17.3621 48.6512 17.5379 48.4754C17.7137 48.2996 17.8125 48.0611 17.8125 47.8125V46.875H18.75V50.625ZM24.375 50.625H20.625V46.875H21.5625V47.8125C21.5625 48.0611 21.6613 48.2996 21.8371 48.4754C22.0129 48.6512 22.2514 48.75 22.5 48.75C22.7486 48.75 22.9871 48.6512 23.1629 48.4754C23.3387 48.2996 23.4375 48.0611 23.4375 47.8125V46.875H24.375V50.625ZM32.8125 50.625V51.5625H26.25V45.9375C26.25 45.6889 26.1512 45.4504 25.9754 45.2746C25.7996 45.0988 25.5611 45 25.3125 45H14.0625C13.8139 45 13.5754 45.0988 13.3996 45.2746C13.2238 45.4504 13.125 45.6889 13.125 45.9375V51.5625H12.1875V39.375H32.8125V42.3047C32.8126 42.3629 32.8181 42.4209 32.8289 42.4781L32.0625 43.5C31.9407 43.6622 31.8748 43.8596 31.875 44.0625V49.6875C31.875 49.9361 31.9738 50.1746 32.1496 50.3504C32.3254 50.5262 32.5639 50.625 32.8125 50.625ZM12.1875 37.5V36.5625H32.8125V37.5H12.1875ZM11.25 34.6875C11.0014 34.6875 10.7629 34.7863 10.5871 34.9621C10.4113 35.1379 10.3125 35.3764 10.3125 35.625V51.5625H8.4375V28.7039L22.5 21.6727L36.5625 28.7039V39.375H35.625C35.4795 39.3751 35.336 39.409 35.2058 39.4741C35.0756 39.5392 34.9624 39.6336 34.875 39.75L34.6875 39.9996V35.625C34.6875 35.3764 34.5887 35.1379 34.4129 34.9621C34.2371 34.7863 33.9986 34.6875 33.75 34.6875H11.25ZM36.5625 44.0625V45H33.75V44.3754L33.9844 44.0625H36.5625ZM34.6875 51.5625V50.625H34.8492C34.9716 50.9709 35.1607 51.2895 35.4059 51.5625H34.6875ZM37.5 50.625C37.3146 50.625 37.1333 50.57 36.9792 50.467C36.825 50.364 36.7048 50.2176 36.6339 50.0463C36.5629 49.875 36.5443 49.6865 36.5805 49.5046C36.6167 49.3227 36.706 49.1557 36.8371 49.0246C36.9682 48.8935 37.1352 48.8042 37.3171 48.768C37.499 48.7318 37.6875 48.7504 37.8588 48.8214C38.0301 48.8923 38.1765 49.0125 38.2795 49.1667C38.3825 49.3208 38.4375 49.5021 38.4375 49.6875C38.4372 49.936 38.3383 50.1743 38.1625 50.35C37.9868 50.5258 37.7485 50.6247 37.5 50.625ZM37.5 46.875C36.9187 46.8757 36.3518 47.0563 35.8772 47.392C35.4026 47.7277 35.0435 48.2021 34.8492 48.75H33.75V46.875H37.5C37.7486 46.875 37.9871 46.7762 38.1629 46.6004C38.3387 46.4246 38.4375 46.1861 38.4375 45.9375V43.125C38.4375 42.8764 38.3387 42.6379 38.1629 42.4621C37.9871 42.2863 37.7486 42.1875 37.5 42.1875H35.3906L36.0938 41.25H40.3125V48.75H40.1508C39.9565 48.2021 39.5974 47.7277 39.1228 47.392C38.6482 47.0563 38.0813 46.8757 37.5 46.875ZM39.5941 51.5625C39.8393 51.2895 40.0284 50.9709 40.1508 50.625H46.0992C46.2216 50.9709 46.4107 51.2895 46.6559 51.5625H39.5941ZM48.75 50.625C48.5646 50.625 48.3833 50.57 48.2292 50.467C48.075 50.364 47.9548 50.2176 47.8839 50.0463C47.8129 49.875 47.7943 49.6865 47.8305 49.5046C47.8667 49.3227 47.956 49.1557 48.0871 49.0246C48.2182 48.8935 48.3852 48.8042 48.5671 48.768C48.749 48.7318 48.9375 48.7504 49.1088 48.8214C49.2801 48.8923 49.4265 49.0125 49.5295 49.1667C49.6325 49.3208 49.6875 49.5021 49.6875 49.6875C49.6872 49.936 49.5883 50.1743 49.4125 50.35C49.2368 50.5258 48.9985 50.6247 48.75 50.625ZM48.75 46.875C48.1687 46.8757 47.6018 47.0563 47.1272 47.392C46.6526 47.7277 46.2935 48.2021 46.0992 48.75H42.1875V45.9375H52.5V48.75H51.4008C51.2065 48.2021 50.8474 47.7277 50.3728 47.392C49.8982 47.0563 49.3313 46.8757 48.75 46.875Z" fill="#CD1E19"/>
<path d="M58.125 51.5625H57.1875C56.9389 51.5625 56.7004 51.6613 56.5246 51.8371C56.3488 52.0129 56.25 52.2514 56.25 52.5C56.25 52.7486 56.3488 52.9871 56.5246 53.1629C56.7004 53.3387 56.9389 53.4375 57.1875 53.4375H58.125C58.3736 53.4375 58.6121 53.3387 58.7879 53.1629C58.9637 52.9871 59.0625 52.7486 59.0625 52.5C59.0625 52.2514 58.9637 52.0129 58.7879 51.8371C58.6121 51.6613 58.3736 51.5625 58.125 51.5625Z" fill="#CD1E19"/>
<path d="M16.875 32.8125H28.125C28.3736 32.8125 28.6121 32.7137 28.7879 32.5379C28.9637 32.3621 29.0625 32.1236 29.0625 31.875V28.125C29.0625 27.8764 28.9637 27.6379 28.7879 27.4621C28.6121 27.2863 28.3736 27.1875 28.125 27.1875H16.875C16.6264 27.1875 16.3879 27.2863 16.2121 27.4621C16.0363 27.6379 15.9375 27.8764 15.9375 28.125V31.875C15.9375 32.1236 16.0363 32.3621 16.2121 32.5379C16.3879 32.7137 16.6264 32.8125 16.875 32.8125ZM27.1875 30.9375H23.4375V29.0625H27.1875V30.9375ZM17.8125 29.0625H21.5625V30.9375H17.8125V29.0625Z" fill="#CD1E19"/>
<path d="M38.4379 20.625H50.6254C52.1172 20.625 53.548 20.0323 54.6029 18.9775C55.6578 17.9226 56.2504 16.4918 56.2504 15C56.2504 13.5081 55.6578 12.0774 54.6029 11.0225C53.548 9.96761 52.1172 9.37498 50.6254 9.37498C50.4741 9.37498 50.3227 9.38111 50.1712 9.39338C49.4079 8.36915 48.3801 7.57209 47.1982 7.08776C46.0162 6.60342 44.7247 6.45008 43.4621 6.6442C42.1996 6.83832 41.0138 7.37257 40.0319 8.18961C39.05 9.00665 38.3092 10.0756 37.8889 11.2819C36.7008 11.4211 35.611 12.0093 34.8425 12.9259C34.074 13.8426 33.685 15.0183 33.7551 16.2125C33.8253 17.4066 34.3493 18.5287 35.2199 19.349C36.0905 20.1693 37.2417 20.6258 38.4379 20.625ZM35.7142 15.2335C35.8699 14.6297 36.222 14.0948 36.7151 13.713C37.2082 13.3313 37.8143 13.1244 38.4379 13.125C38.478 13.125 38.5189 13.1258 38.5589 13.1276C38.7771 13.1366 38.9915 13.0695 39.1657 12.9379C39.3398 12.8062 39.4627 12.618 39.5133 12.4057C39.7486 11.4127 40.2732 10.5119 41.0207 9.81718C41.7681 9.12249 42.7049 8.66518 43.7124 8.50314C44.72 8.3411 45.7529 8.48161 46.6805 8.90689C47.6081 9.33216 48.3887 10.0231 48.9235 10.8922C49.0237 11.0546 49.1711 11.1825 49.3459 11.259C49.5207 11.3355 49.7147 11.3569 49.902 11.3204C50.4153 11.2195 50.944 11.2271 51.4541 11.3427C51.9643 11.4583 52.4446 11.6794 52.8643 11.9917C53.2839 12.304 53.6336 12.7007 53.8908 13.1562C54.148 13.6117 54.307 14.1159 54.3577 14.6366C54.4084 15.1572 54.3496 15.6827 54.1851 16.1792C54.0206 16.6758 53.754 17.1325 53.4025 17.5199C53.051 17.9073 52.6224 18.2168 52.1441 18.4287C51.6658 18.6405 51.1485 18.75 50.6254 18.75H38.4379C38.0087 18.7496 37.5852 18.6511 37.1999 18.462C36.8146 18.2729 36.4777 17.9981 36.2148 17.6588C35.952 17.3195 35.7703 16.9245 35.6835 16.5042C35.5967 16.0838 35.6072 15.6492 35.7142 15.2335Z" fill="#CD1E19"/>
</svg>
