<svg width="40" height="40" viewBox="0 0 40 40" fill="none" xmlns="http://www.w3.org/2000/svg">
<path d="M38.2766 20.0187L36.1406 19.4844L34.3563 12.3484C34.3225 12.2132 34.2445 12.0932 34.1346 12.0074C34.0248 11.9216 33.8894 11.875 33.75 11.875H26.25V10C26.25 9.83424 26.1842 9.67527 26.0669 9.55806C25.9497 9.44085 25.7908 9.375 25.625 9.375H4.375C4.20924 9.375 4.05027 9.44085 3.93306 9.55806C3.81585 9.67527 3.75 9.83424 3.75 10V13.125H1.875C1.70924 13.125 1.55027 13.1908 1.43306 13.3081C1.31585 13.4253 1.25 13.5842 1.25 13.75C1.25 13.9158 1.31585 14.0747 1.43306 14.1919C1.55027 14.3092 1.70924 14.375 1.875 14.375H3.75V15.625H2.5C2.33424 15.625 2.17527 15.6908 2.05806 15.8081C1.94085 15.9253 1.875 16.0842 1.875 16.25C1.875 16.4158 1.94085 16.5747 2.05806 16.6919C2.17527 16.8092 2.33424 16.875 2.5 16.875H3.75V18.125H3.125C2.95924 18.125 2.80027 18.1908 2.68306 18.3081C2.56585 18.4253 2.5 18.5842 2.5 18.75C2.5 18.9158 2.56585 19.0747 2.68306 19.1919C2.80027 19.3092 2.95924 19.375 3.125 19.375H3.75V28.75C3.75 28.9158 3.81585 29.0747 3.93306 29.1919C4.05027 29.3092 4.20924 29.375 4.375 29.375H6.85852C7.00318 30.1017 7.39533 30.7558 7.96814 31.2258C8.54096 31.6959 9.25902 31.9528 10 31.9528C10.741 31.9528 11.459 31.6959 12.0319 31.2258C12.6047 30.7558 12.9968 30.1017 13.1415 29.375H15.2388L16.316 31.5295C16.3679 31.6333 16.4477 31.7206 16.5464 31.7817C16.6452 31.8427 16.7589 31.875 16.875 31.875H26.875C26.9911 31.875 27.1048 31.8427 27.2036 31.7817C27.3023 31.7206 27.3821 31.6333 27.434 31.5295L28.5112 29.375H29.9835C30.1282 30.1017 30.5203 30.7558 31.0931 31.2258C31.666 31.6959 32.384 31.9528 33.125 31.9528C33.866 31.9528 34.584 31.6959 35.1569 31.2258C35.7297 30.7558 36.1218 30.1017 36.2665 29.375H38.125C38.2908 29.375 38.4497 29.3092 38.5669 29.1919C38.6842 29.0747 38.75 28.9158 38.75 28.75V20.625C38.75 20.4856 38.7034 20.3502 38.6176 20.2404C38.5318 20.1305 38.4118 20.0525 38.2766 20.0187ZM33.887 15.625L34.8245 19.375H28.75V15.625H33.887ZM10 30.7031C9.61371 30.7031 9.23609 30.5886 8.9149 30.374C8.59371 30.1594 8.34338 29.8543 8.19555 29.4974C8.04772 29.1405 8.00904 28.7478 8.0844 28.369C8.15977 27.9901 8.34578 27.6421 8.61893 27.3689C8.89208 27.0958 9.2401 26.9098 9.61896 26.8344C9.99783 26.759 10.3905 26.7977 10.7474 26.9455C11.1043 27.0934 11.4094 27.3437 11.624 27.6649C11.8386 27.9861 11.9531 28.3637 11.9531 28.75C11.9525 29.2678 11.7466 29.7643 11.3804 30.1304C11.0143 30.4966 10.5178 30.7025 10 30.7031ZM13.1415 28.125C12.9968 27.3983 12.6047 26.7442 12.0319 26.2742C11.459 25.8041 10.741 25.5472 10 25.5472C9.25902 25.5472 8.54096 25.8041 7.96814 26.2742C7.39533 26.7442 7.00318 27.3983 6.85852 28.125H5V19.375H8.75C8.91576 19.375 9.07473 19.3092 9.19194 19.1919C9.30915 19.0747 9.375 18.9158 9.375 18.75C9.375 18.5842 9.30915 18.4253 9.19194 18.3081C9.07473 18.1908 8.91576 18.125 8.75 18.125H5V14.375H6.25C6.41576 14.375 6.57473 14.3092 6.69194 14.1919C6.80915 14.0747 6.875 13.9158 6.875 13.75C6.875 13.5842 6.80915 13.4253 6.69194 13.3081C6.57473 13.1908 6.41576 13.125 6.25 13.125H5V10.625H25V28.125H13.1415ZM26.4888 30.625H17.2612L16.6362 29.375H27.1138L26.4888 30.625ZM33.125 30.7031C32.7387 30.7031 32.3611 30.5886 32.0399 30.374C31.7187 30.1594 31.4684 29.8543 31.3205 29.4974C31.1727 29.1405 31.134 28.7478 31.2094 28.369C31.2848 27.9901 31.4708 27.6421 31.7439 27.3689C32.0171 27.0958 32.3651 26.9098 32.744 26.8344C33.1228 26.759 33.5155 26.7977 33.8724 26.9455C34.2293 27.0934 34.5344 27.3437 34.749 27.6649C34.9636 27.9861 35.0781 28.3637 35.0781 28.75C35.0775 29.2678 34.8716 29.7643 34.5054 30.1304C34.1393 30.4966 33.6428 30.7025 33.125 30.7031ZM37.5 28.125H36.2665C36.1218 27.3983 35.7297 26.7442 35.1569 26.2742C34.584 25.8041 33.866 25.5472 33.125 25.5472C32.384 25.5472 31.666 25.8041 31.0931 26.2742C30.5203 26.7442 30.1282 27.3983 29.9835 28.125H26.25V13.125H33.262L33.5745 14.375H28.125C27.9592 14.375 27.8003 14.4408 27.6831 14.5581C27.5658 14.6753 27.5 14.8342 27.5 15V20C27.5 20.1658 27.5658 20.3247 27.6831 20.4419C27.8003 20.5592 27.9592 20.625 28.125 20.625H35.5482L37.5 21.113V28.125Z" fill="#CD1E19"/>
<path d="M33.125 29.6875C33.6428 29.6875 34.0625 29.2678 34.0625 28.75C34.0625 28.2322 33.6428 27.8125 33.125 27.8125C32.6072 27.8125 32.1875 28.2322 32.1875 28.75C32.1875 29.2678 32.6072 29.6875 33.125 29.6875Z" fill="#CD1E19"/>
<path d="M10 29.6875C10.5178 29.6875 10.9375 29.2678 10.9375 28.75C10.9375 28.2322 10.5178 27.8125 10 27.8125C9.48223 27.8125 9.0625 28.2322 9.0625 28.75C9.0625 29.2678 9.48223 29.6875 10 29.6875Z" fill="#CD1E19"/>
<path d="M8.125 15.625H6.25C6.08424 15.625 5.92527 15.6908 5.80806 15.8081C5.69085 15.9253 5.625 16.0842 5.625 16.25C5.625 16.4158 5.69085 16.5747 5.80806 16.6919C5.92527 16.8092 6.08424 16.875 6.25 16.875H8.125C8.29076 16.875 8.44973 16.8092 8.56694 16.6919C8.68415 16.5747 8.75 16.4158 8.75 16.25C8.75 16.0842 8.68415 15.9253 8.56694 15.8081C8.44973 15.6908 8.29076 15.625 8.125 15.625Z" fill="#CD1E19"/>
<path d="M30 21.875H28.125C27.9592 21.875 27.8003 21.9408 27.6831 22.0581C27.5658 22.1753 27.5 22.3342 27.5 22.5C27.5 22.6658 27.5658 22.8247 27.6831 22.9419C27.8003 23.0592 27.9592 23.125 28.125 23.125H30C30.1658 23.125 30.3247 23.0592 30.4419 22.9419C30.5592 22.8247 30.625 22.6658 30.625 22.5C30.625 22.3342 30.5592 22.1753 30.4419 22.0581C30.3247 21.9408 30.1658 21.875 30 21.875Z" fill="#CD1E19"/>
<path d="M20 14.375H12.5C12.3342 14.375 12.1753 14.4408 12.0581 14.5581C11.9408 14.6753 11.875 14.8342 11.875 15V22.5C11.875 22.6658 11.9408 22.8247 12.0581 22.9419C12.1753 23.0592 12.3342 23.125 12.5 23.125H20C20.1658 23.125 20.3247 23.0592 20.4419 22.9419C20.5592 22.8247 20.625 22.6658 20.625 22.5V15C20.625 14.8342 20.5592 14.6753 20.4419 14.5581C20.3247 14.4408 20.1658 14.375 20 14.375ZM15.625 15.625H16.875V16.875H15.625V15.625ZM19.375 21.875H13.125V15.625H14.375V17.5C14.375 17.6658 14.4408 17.8247 14.5581 17.9419C14.6753 18.0592 14.8342 18.125 15 18.125H17.5C17.6658 18.125 17.8247 18.0592 17.9419 17.9419C18.0592 17.8247 18.125 17.6658 18.125 17.5V15.625H19.375V21.875Z" fill="#CD1E19"/>
<path d="M16.875 19.375H15.625C15.4592 19.375 15.3003 19.4408 15.1831 19.5581C15.0658 19.6753 15 19.8342 15 20C15 20.1658 15.0658 20.3247 15.1831 20.4419C15.3003 20.5592 15.4592 20.625 15.625 20.625H16.875C17.0408 20.625 17.1997 20.5592 17.3169 20.4419C17.4342 20.3247 17.5 20.1658 17.5 20C17.5 19.8342 17.4342 19.6753 17.3169 19.5581C17.1997 19.4408 17.0408 19.375 16.875 19.375Z" fill="#CD1E19"/>
</svg>
