<svg width="36" height="36" viewBox="0 0 36 36" fill="none" xmlns="http://www.w3.org/2000/svg">
<rect width="36" height="36" rx="5" fill="#944BA7"/>
<g clip-path="url(#clip0)">
<path d="M17.999 10.4544C18.2058 10.6095 18.3866 10.6263 18.9272 10.6569C20.5111 10.7478 21.5155 11.0862 22.6327 11.9064C24.0003 12.9068 24.8583 14.3024 25.1835 16.0543C25.2672 16.5079 25.3086 16.8928 25.3368 17.4729C25.3538 17.862 25.3673 18.0129 25.4559 18.1833C25.5807 18.4158 25.8225 18.5703 26.1029 18.5964C26.1305 18.5988 26.1581 18.6 26.1854 18.6C26.435 18.6 26.6666 18.4944 26.8145 18.3105C27.011 18.0711 27.0107 17.8479 26.9915 17.3673C26.9351 15.8788 26.6096 14.5414 26.024 13.3924C25.6065 12.575 25.2078 12.0395 24.4998 11.3453C23.7447 10.6113 23.1627 10.2006 22.2742 9.77609C21.3328 9.32677 20.6669 9.18457 19.6916 9.0655C19.4948 9.043 19.1243 9.01361 18.8672 9.00521C18.3773 8.989 18.1859 9.00222 17.9597 9.2032C17.7864 9.35588 17.6919 9.5878 17.6997 9.84007C17.7074 10.0905 17.816 10.3134 17.999 10.4544Z" fill="white"/>
<path d="M22.9366 16.8896C22.9366 17.311 22.9714 17.7067 23.3869 17.9113C23.5009 17.9704 23.6494 18.0001 23.7943 18.0001C23.923 18.0001 24.0484 17.9764 24.1441 17.9285C24.3121 17.842 24.4816 17.6597 24.5479 17.4947C24.6322 17.282 24.5938 16.5194 24.5698 16.3043C24.4573 15.3435 24.1234 14.4363 23.6044 13.6812C22.6643 12.3154 21.2555 11.4895 19.4181 11.2264C18.795 11.1346 18.3321 11.1022 18.0597 11.518C17.8458 11.8339 17.8731 12.2368 18.1257 12.5191C18.327 12.7474 18.6152 12.799 18.8703 12.8194C19.6004 12.877 20.4182 13.116 20.9543 13.4284L20.9552 13.4286C21.5789 13.7898 22.0952 14.3148 22.4488 14.9472C22.7588 15.5003 22.9366 16.2083 22.9366 16.8896Z" fill="white"/>
<path d="M21.3377 14.3131C20.9273 13.9372 20.4464 13.7017 19.8254 13.5721C19.6832 13.5421 19.442 13.516 19.292 13.5076C19.0334 13.4917 18.927 13.4944 18.7431 13.5838C18.5208 13.6954 18.3651 13.9023 18.3153 14.1511C18.2658 14.3982 18.3291 14.647 18.4911 14.836C18.6783 15.0498 18.87 15.1032 19.2566 15.1492C19.9028 15.2266 20.2667 15.444 20.4725 15.8754C20.5766 16.0956 20.6357 16.3368 20.6699 16.6836C20.7053 17.0085 20.7689 17.217 21.0002 17.388C21.1457 17.4978 21.3299 17.5521 21.5123 17.5521C21.7118 17.5521 21.9094 17.487 22.0538 17.3583L22.0555 17.3571C22.3537 17.0874 22.3663 16.7529 22.2856 16.2309C22.1606 15.3948 21.8687 14.8032 21.3377 14.3131Z" fill="white"/>
<path d="M26.9981 23.5128C26.9834 23.1861 26.8712 22.8939 26.6618 22.6416C26.4597 22.4031 25.1682 21.3819 24.5919 20.9874C24.1437 20.6824 23.4355 20.2528 23.1043 20.0851C22.615 19.8418 22.123 19.7992 21.6388 19.9597C21.5329 19.9951 21.4573 20.0266 21.3862 20.0638C21.1411 20.1925 20.9611 20.3952 20.6113 20.8254C20.2367 21.2778 20.1587 21.3657 20.1596 21.3657C20.1242 21.387 20.0678 21.417 19.9994 21.4482C19.7207 21.5752 19.2638 21.4707 18.5207 21.1086C17.8937 20.8054 17.3306 20.416 16.6947 19.8466C16.1529 19.3639 15.6081 18.7378 15.3058 18.2521C14.8858 17.5784 14.6317 16.7987 14.6287 16.4366C14.6287 16.2956 14.6905 16.0931 14.7574 15.9815L14.7868 15.9512C14.8066 15.932 14.8285 15.9113 14.8584 15.8849C14.9629 15.791 15.114 15.6653 15.2715 15.5408C15.9627 14.9963 16.1817 14.7758 16.2987 14.3664C16.4118 13.9878 16.3125 13.5216 15.9861 12.8997C15.4998 11.9718 13.9578 9.99701 13.3144 9.58064C13.2085 9.51433 13.0342 9.42494 12.9109 9.38356C12.6469 9.29026 12.2677 9.25848 12.0319 9.30857C11.7055 9.37547 11.3473 9.58095 10.5569 10.1551C10.1237 10.4722 9.45597 11.0923 9.27475 11.3887C8.84726 12.1066 8.95617 12.7293 9.34376 13.7724C9.71306 14.7678 10.1867 15.7697 10.7498 16.748L10.7792 16.7975C10.8926 16.9934 11.0087 17.1887 11.1305 17.3846L11.162 17.4341C11.2829 17.6264 11.4053 17.8184 11.5334 18.0095L11.7353 18.3031C11.8106 18.4129 11.8856 18.5224 11.9633 18.6313C12.1166 18.845 12.2737 19.0579 12.4367 19.2703C14.1733 21.5316 16.1739 23.3472 18.5525 24.8198L18.65 24.881C18.9953 25.0925 19.3628 25.304 19.742 25.5092L19.8901 25.589C20.2825 25.7978 20.6554 25.985 21.0301 26.1605L21.1468 26.2136C21.5893 26.4185 21.994 26.5945 22.3833 26.7514C22.8546 26.9416 23.0727 26.9998 23.4039 26.9998C23.4627 26.9998 23.5254 26.9981 23.5938 26.9947C23.8074 26.9846 23.9994 26.9527 24.1812 26.8973C24.4365 26.8199 24.692 26.69 24.9845 26.4881C25.0355 26.453 25.0865 26.4173 25.1414 26.3768C25.2062 26.3291 25.2752 26.2706 25.3451 26.2103C25.6784 25.922 26.0609 25.5032 26.369 25.0901C26.5333 24.8696 26.7518 24.5495 26.8606 24.2747C26.9626 24.0177 27.0088 23.7612 26.998 23.5131V23.5128H26.9981Z" fill="white"/>
</g>
<defs>
<clipPath id="clip0">
<rect width="18" height="18" fill="white" transform="translate(9 9)"/>
</clipPath>
</defs>
</svg>
