<svg width="60" height="60" viewBox="0 0 60 60" fill="none" xmlns="http://www.w3.org/2000/svg">
<path d="M59 8.5H1C0.44775 8.5 0 8.94775 0 9.5V38.5C0 39.0522 0.44775 39.5 1 39.5H59C59.5522 39.5 60 39.0522 60 38.5V9.5C60 8.94775 59.5522 8.5 59 8.5ZM58 37.5H2V10.5H58V37.5Z" fill="#CD1E19"/>
<path d="M20 41.5C17.2386 41.5 15 43.7386 15 46.5C15 49.2614 17.2386 51.5 20 51.5C22.7614 51.5 25 49.2614 25 46.5C24.9967 43.74 22.76 41.5033 20 41.5ZM20 49.5C18.3431 49.5 17 48.1569 17 46.5C17 44.8431 18.3431 43.5 20 43.5C21.6569 43.5 23 44.8431 23 46.5C23 48.1569 21.6569 49.5 20 49.5Z" fill="#CD1E19"/>
<path d="M21 45.5H19V47.5H21V45.5Z" fill="#CD1E19"/>
<path d="M10 41.5C7.23863 41.5 5 43.7386 5 46.5C5 49.2614 7.23863 51.5 10 51.5C12.7614 51.5 15 49.2614 15 46.5C14.9967 43.74 12.76 41.5033 10 41.5ZM10 49.5C8.34312 49.5 7 48.1569 7 46.5C7 44.8431 8.34312 43.5 10 43.5C11.6569 43.5 13 44.8431 13 46.5C13 48.1569 11.6569 49.5 10 49.5Z" fill="#CD1E19"/>
<path d="M11 45.5H9V47.5H11V45.5Z" fill="#CD1E19"/>
<path d="M40 41.5C37.2386 41.5 35 43.7386 35 46.5C35 49.2614 37.2386 51.5 40 51.5C42.7614 51.5 45 49.2614 45 46.5C44.9967 43.74 42.76 41.5033 40 41.5ZM40 49.5C38.3431 49.5 37 48.1569 37 46.5C37 44.8431 38.3431 43.5 40 43.5C41.6569 43.5 43 44.8431 43 46.5C43 48.1569 41.6569 49.5 40 49.5Z" fill="#CD1E19"/>
<path d="M41 45.5H39V47.5H41V45.5Z" fill="#CD1E19"/>
<path d="M50 41.5C47.2386 41.5 45 43.7386 45 46.5C45 49.2614 47.2386 51.5 50 51.5C52.7614 51.5 55 49.2614 55 46.5C54.9967 43.74 52.76 41.5033 50 41.5ZM50 49.5C48.3431 49.5 47 48.1569 47 46.5C47 44.8431 48.3431 43.5 50 43.5C51.6569 43.5 53 44.8431 53 46.5C53 48.1569 51.6569 49.5 50 49.5Z" fill="#CD1E19"/>
<path d="M51 45.5H49V47.5H51V45.5Z" fill="#CD1E19"/>
<path d="M31 45.5V42.5H29V45.5H27V47.5H33V45.5H31Z" fill="#CD1E19"/>
<path d="M60 41.5H56V43.5H60V41.5Z" fill="#CD1E19"/>
<path d="M4 41.5H0V43.5H4V41.5Z" fill="#CD1E19"/>
<path d="M7 12.5H5V35.5H7V12.5Z" fill="#CD1E19"/>
<path d="M11 12.5H9V35.5H11V12.5Z" fill="#CD1E19"/>
<path d="M15 12.5H13V35.5H15V12.5Z" fill="#CD1E19"/>
<path d="M19 12.5H17V35.5H19V12.5Z" fill="#CD1E19"/>
<path d="M23 12.5H21V35.5H23V12.5Z" fill="#CD1E19"/>
<path d="M27 12.5H25V35.5H27V12.5Z" fill="#CD1E19"/>
<path d="M31 12.5H29V35.5H31V12.5Z" fill="#CD1E19"/>
<path d="M35 12.5H33V35.5H35V12.5Z" fill="#CD1E19"/>
<path d="M39 12.5H37V35.5H39V12.5Z" fill="#CD1E19"/>
<path d="M43 12.5H41V35.5H43V12.5Z" fill="#CD1E19"/>
<path d="M47 12.5H45V35.5H47V12.5Z" fill="#CD1E19"/>
<path d="M51 12.5H49V35.5H51V12.5Z" fill="#CD1E19"/>
<path d="M55 12.5H53V35.5H55V12.5Z" fill="#CD1E19"/>
</svg>
