<svg width="60" height="60" viewBox="0 0 60 60" fill="none" xmlns="http://www.w3.org/2000/svg">
<path d="M5.80658 55.1611C5.80658 55.6955 5.37327 56.1288 4.83884 56.1288C4.3044 56.1288 3.87109 55.6955 3.87109 55.1611C3.87109 54.6267 4.3044 54.1934 4.83884 54.1934C5.37327 54.1934 5.80658 54.6267 5.80658 55.1611Z" fill="#CD1E19"/>
<path d="M32.9033 55.1611C32.9033 55.6955 32.4699 56.1288 31.9355 56.1288C31.4011 56.1288 30.9678 55.6955 30.9678 55.1611C30.9678 54.6267 31.4011 54.1934 31.9355 54.1934C32.4699 54.1934 32.9033 54.6267 32.9033 55.1611Z" fill="#CD1E19"/>
<path d="M3.87109 48.3865H9.67754V42.5801H3.87109V48.3865ZM5.80658 44.5156H7.74206V46.451H5.80658V44.5156Z" fill="#CD1E19"/>
<path d="M58.0645 0H1.93548C0.868038 0 0 0.868038 0 1.93548V3.87097C0 4.93841 0.868038 5.80645 1.93548 5.80645V23.2258C1.93548 24.2933 2.80352 25.1613 3.87097 25.1613H4.38366L1.25977 39.2233C0.500409 39.7469 0 40.622 0 41.6129V49.3548C0 50.3892 0.547663 51.2932 1.36467 51.8073C0.523564 52.6781 0 53.8576 0 55.1613C0 57.8292 2.1708 60 4.83871 60C7.1749 60 9.12976 58.3343 9.57961 56.129H27.1946C27.6444 58.3343 29.5983 60 31.9355 60C34.2726 60 36.2265 58.3343 36.6764 56.129H56.129C57.7295 56.129 59.0323 54.8263 59.0323 53.2258C59.0323 52.1952 58.4884 51.2932 57.6766 50.7786C57.9166 50.3557 58.0645 49.8746 58.0645 49.3548V37.7419C58.0645 36.9958 57.7734 36.3215 57.3099 35.8064C57.7744 35.2914 58.0645 34.6171 58.0645 33.871V5.80645C59.132 5.80645 60 4.93841 60 3.87097V1.93548C60 0.868038 59.132 0 58.0645 0ZM9.67742 5.80645V11.6129H3.87097V5.80645H9.67742ZM56.129 19.533C55.8252 19.4243 55.502 19.3548 55.1613 19.3548H50.3226V13.5484H56.129V19.533ZM44.5161 36.7742H48.3871V38.7097H44.5161V36.7742ZM48.3871 34.8387H44.5161V32.9032H48.3871V34.8387ZM50.3226 40.6452V36.7742H55.1613C55.6952 36.7742 56.129 37.208 56.129 37.7419V49.3548C56.129 49.8888 55.6952 50.3226 55.1613 50.3226H50.3226V46.4516H42.5806V50.3226H37.7419C37.208 50.3226 36.7742 49.8888 36.7742 49.3548V37.7419C36.7742 37.208 37.208 36.7742 37.7419 36.7742H42.5806V40.6452H50.3226ZM48.3871 50.3226H44.5161V48.3871H48.3871V50.3226ZM8.68463 52.2581H28.0886C27.661 52.8232 27.3406 53.4744 27.1946 54.1935H9.57961C9.43265 53.4744 9.11322 52.8232 8.68463 52.2581ZM2.90323 50.3226C2.36927 50.3226 1.93548 49.8888 1.93548 49.3548V41.6129C1.93548 41.0789 2.36927 40.6452 2.90323 40.6452H10.1013C10.5464 40.6452 10.9315 40.9471 11.0411 41.3776L12.7928 48.3871H30.9677V50.3226H2.90323ZM21.5034 25.1613L26.826 46.4516H26.6573L20.2541 36.4916L22.8204 34.6587L21.6958 33.0842L14.9216 37.9229L16.0462 39.4974L18.6772 37.6181L24.357 46.4516H14.304L12.9176 40.9074C12.5953 39.6146 11.4357 38.7097 10.1013 38.7097H7.44282L10.4533 25.1613H21.5034ZM3.87097 13.5484H9.67742V19.3548H3.87097V13.5484ZM11.6129 13.5484H17.4194V19.3548H11.6129V13.5484ZM19.3548 13.5484H25.1613V19.3548H19.3548V13.5484ZM25.5766 25.1613L30.938 46.4516H28.8191L23.4966 25.1613H25.5766ZM30.9677 17.4194V38.6459L27.5565 25.1003C28.4014 24.8924 29.0323 24.1335 29.0323 23.2258V21.2903C29.0323 20.2229 28.1642 19.3548 27.0968 19.3548V13.5484H32.9032V17.4194H30.9677ZM34.8387 17.4194V13.5484H40.6452V19.3548H37.7419C37.4012 19.3548 37.078 19.4243 36.7742 19.533V17.4194H34.8387ZM44.5161 21.2903H48.3871V23.2258H44.5161V21.2903ZM48.3871 19.3548H42.5806V13.5484H48.3871V19.3548ZM42.5806 11.6129V5.80645H48.3871V11.6129H42.5806ZM40.6452 11.6129H34.8387V5.80645H40.6452V11.6129ZM32.9032 11.6129H27.0968V5.80645H32.9032V11.6129ZM25.1613 11.6129H19.3548V5.80645H25.1613V11.6129ZM17.4194 11.6129H11.6129V5.80645H17.4194V11.6129ZM3.87097 22.2581V21.2903H27.0968V23.2258H3.87097V22.2581ZM8.47058 25.1613L5.46009 38.7097H3.35827L6.36782 25.1613H8.47058ZM4.83871 58.0645C3.23825 58.0645 1.93548 56.7617 1.93548 55.1613C1.93548 53.5608 3.23825 52.2581 4.83871 52.2581C6.43917 52.2581 7.74194 53.5608 7.74194 55.1613C7.74194 56.7617 6.43917 58.0645 4.83871 58.0645ZM31.9355 58.0645C30.335 58.0645 29.0323 56.7617 29.0323 55.1613C29.0323 53.5608 30.335 52.2581 31.9355 52.2581C33.5359 52.2581 34.8387 53.5608 34.8387 55.1613C34.8387 56.7617 33.5359 58.0645 31.9355 58.0645ZM56.129 54.1935H36.6764C36.2903 52.3006 34.7962 50.8064 32.9032 50.4204V19.3548H34.8387V49.3548C34.8387 50.9553 36.1415 52.2581 37.7419 52.2581H56.129C56.663 52.2581 57.0968 52.6918 57.0968 53.2258C57.0968 53.7598 56.663 54.1935 56.129 54.1935ZM56.129 33.871C56.129 34.4049 55.6952 34.8387 55.1613 34.8387H50.3226V30.9677H42.5806V34.8387H37.7419C37.208 34.8387 36.7742 34.4049 36.7742 33.871V22.2581C36.7742 21.725 37.208 21.2903 37.7419 21.2903H42.5806V25.1613H50.3226V21.2903H55.1613C55.6952 21.2903 56.129 21.725 56.129 22.2581V33.871ZM56.129 11.6129H50.3226V5.80645H56.129V11.6129ZM1.93548 3.87097V1.93548H58.0645L58.0655 3.87097H1.93548Z" fill="#CD1E19"/>
</svg>
