<svg width="20" height="20" viewBox="0 0 20 20" fill="none" xmlns="http://www.w3.org/2000/svg">
<path d="M0.49646 19.5034L1.8333 14.623C1.00857 13.1948 0.574864 11.5741 0.57536 9.91426C0.577841 4.72123 4.80372 0.496338 9.99725 0.496338C12.5176 0.49733 14.8826 1.47837 16.6616 3.25835C18.4401 5.03882 19.4196 7.40483 19.4187 9.92171C19.4167 15.1147 15.1898 19.3401 9.99725 19.3401C9.99676 19.3401 9.99725 19.3401 9.99725 19.3401H9.99328C8.41677 19.3396 6.86704 18.9441 5.491 18.1933L0.49646 19.5034Z" fill="white"/>
<path d="M0.496372 19.7513C0.430869 19.7513 0.367352 19.7255 0.32021 19.6779C0.258182 19.6149 0.233867 19.5231 0.257189 19.4382L1.56674 14.6565C0.754907 13.2145 0.326661 11.5769 0.327654 9.91458C0.329639 4.58409 4.66717 0.248047 9.99716 0.248047C12.5825 0.249039 15.0116 1.25589 16.8372 3.083C18.6628 4.91061 19.6677 7.33915 19.6667 9.92153C19.6647 15.2515 15.3267 19.5881 9.99716 19.5881C8.41469 19.5876 6.84909 19.197 5.45965 18.4581L0.559393 19.7429C0.538551 19.7488 0.517709 19.7513 0.496372 19.7513Z" fill="white"/>
<path d="M9.99723 0.496229C12.5176 0.497221 14.8826 1.47827 16.6616 3.25824C18.4401 5.03871 19.4196 7.40472 19.4186 9.9216C19.4166 15.1146 15.1898 19.34 9.99723 19.34H9.99326C8.41674 19.3395 6.86702 18.944 5.49097 18.1932L0.496433 19.5033L1.83327 14.6229C1.00854 13.1947 0.574837 11.574 0.575333 9.91415C0.577814 4.72112 4.8037 0.496229 9.99723 0.496229ZM9.99723 0C4.53077 0 0.0815856 4.4472 0.0791045 9.91415C0.0786082 11.585 0.500403 13.2314 1.30032 14.6889L0.0175722 19.3728C-0.0290733 19.544 0.0185646 19.7266 0.143614 19.8526C0.237898 19.9479 0.365428 20 0.496433 20C0.538612 20 0.580792 19.9945 0.622475 19.9836L5.42944 18.7232C6.83278 19.4517 8.40582 19.8362 9.99326 19.8367C15.4637 19.8367 19.9129 15.389 19.9153 9.92209C19.9163 7.27273 18.8857 4.78166 17.0134 2.9079C15.1401 1.03364 12.6486 0.000992457 9.99723 0Z" fill="#CFD8DC"/>
<path d="M15.5362 4.38271C14.0574 2.90296 12.0919 2.08765 9.99976 2.08716C5.68059 2.08716 2.16779 5.59847 2.1658 9.91467C2.16531 11.3939 2.57916 12.834 3.3632 14.081L3.54978 14.3773L2.7583 17.2658L5.72227 16.4887L6.0086 16.6584C7.21046 17.372 8.58899 17.7491 9.99431 17.7496H9.99728C14.3135 17.7496 17.8263 14.2378 17.8278 9.92112C17.8283 7.82952 17.0149 5.86247 15.5362 4.38271Z" fill="#40C351"/>
<path fill-rule="evenodd" clip-rule="evenodd" d="M7.64209 5.97707C7.46592 5.58505 7.28033 5.57711 7.11211 5.57017C6.97466 5.56421 6.81785 5.56471 6.66104 5.56471C6.50423 5.56471 6.24917 5.62376 6.03331 5.85947C5.81745 6.09518 5.20908 6.66435 5.20908 7.82255C5.20908 8.98075 6.05266 10.1002 6.17027 10.257C6.28788 10.4139 7.79889 12.8667 10.1917 13.8105C12.1801 14.5946 12.585 14.4388 13.0167 14.3996C13.4485 14.3604 14.4097 13.8304 14.6057 13.2806C14.8017 12.7307 14.8017 12.2598 14.7431 12.1616C14.6841 12.0633 14.5273 12.0048 14.292 11.8867C14.0568 11.7686 12.8991 11.1994 12.6833 11.121C12.4674 11.0426 12.3106 11.0034 12.1533 11.2391C11.9965 11.4743 11.5454 12.0048 11.408 12.1616C11.2705 12.3189 11.1331 12.3387 10.8978 12.2206C10.6626 12.1025 9.90439 11.8544 9.00473 11.0525C8.30505 10.4287 7.83264 9.6581 7.69518 9.42239C7.55773 9.18718 7.68029 9.05965 7.7984 8.94204C7.90409 8.83634 8.03361 8.66713 8.15171 8.52967C8.26932 8.39222 8.30852 8.29397 8.38692 8.13716C8.46533 7.97985 8.42613 7.8424 8.36708 7.72479C8.30902 7.60669 7.85149 6.44254 7.64209 5.97707Z" fill="white"/>
</svg>
