<svg width="36" height="36" viewBox="0 0 36 36" fill="none" xmlns="http://www.w3.org/2000/svg">
<rect width="36" height="36" rx="5" fill="#3A9267"/>
<path d="M18.0022 9H17.9978C13.0354 9 9 13.0365 9 18C9 19.9688 9.6345 21.7935 10.7134 23.2751L9.59175 26.6186L13.0511 25.5128C14.4742 26.4555 16.1719 27 18.0022 27C22.9646 27 27 22.9624 27 18C27 13.0376 22.9646 9 18.0022 9ZM23.2391 21.7091C23.022 22.3223 22.1602 22.8307 21.4729 22.9792C21.0026 23.0794 20.3884 23.1593 18.3206 22.302C15.6757 21.2063 13.9725 18.5186 13.8398 18.3442C13.7126 18.1699 12.771 16.9211 12.771 15.6296C12.771 14.3381 13.4269 13.7092 13.6912 13.4392C13.9084 13.2176 14.2673 13.1164 14.6115 13.1164C14.7229 13.1164 14.823 13.122 14.913 13.1265C15.1774 13.1378 15.3101 13.1535 15.4845 13.5709C15.7016 14.094 16.2304 15.3855 16.2934 15.5182C16.3575 15.651 16.4216 15.831 16.3316 16.0054C16.2473 16.1854 16.173 16.2652 16.0402 16.4183C15.9075 16.5712 15.7815 16.6883 15.6487 16.8525C15.5272 16.9954 15.39 17.1484 15.543 17.4128C15.696 17.6715 16.2248 18.5344 17.0033 19.2274C18.0079 20.1217 18.8224 20.4075 19.1137 20.529C19.3309 20.619 19.5896 20.5976 19.7483 20.4289C19.9496 20.2118 20.1982 19.8518 20.4514 19.4974C20.6314 19.2431 20.8586 19.2116 21.0971 19.3016C21.3401 19.386 22.626 20.0216 22.8904 20.1532C23.1547 20.286 23.3291 20.349 23.3932 20.4604C23.4562 20.5718 23.4562 21.0949 23.2391 21.7091Z" fill="white"/>
</svg>
