<svg width="30" height="30" viewBox="0 0 30 30" fill="none" xmlns="http://www.w3.org/2000/svg">
<path d="M28.5606 9.76994C28.5821 9.63938 28.5933 9.50733 28.594 9.37502C28.5931 8.53714 28.343 7.71847 27.8756 7.02308C27.4081 6.32769 26.7445 5.787 25.969 5.46974C23.8455 3.02691 20.9675 1.36247 17.7911 0.740091C14.6147 0.117716 11.3215 0.572996 8.43308 2.03381C7.88471 1.35578 7.13962 0.864443 6.30041 0.627458C5.46121 0.390472 4.56917 0.419497 3.74714 0.710534C2.92512 1.00157 2.21354 1.54031 1.71041 2.25254C1.20728 2.96478 0.937338 3.81549 0.937765 4.68752C0.937765 5.46974 1.37956 6.58713 2.25319 8.0174C1.08169 10.1584 0.468336 12.5601 0.469729 15.0007C0.471122 17.4412 1.08722 19.8422 2.26117 21.9819C3.43511 24.1216 5.12909 25.9311 7.18677 27.2435C9.24446 28.5559 11.5996 29.3289 14.0348 29.4911C16.4699 29.6533 18.9068 29.1996 21.1204 28.1717C23.3339 27.1439 25.253 25.575 26.7004 23.6099C28.1478 21.6449 29.0769 19.3469 29.402 16.9281C29.7271 14.5092 29.4378 12.0475 28.5606 9.76994ZM27.6565 9.37502C27.6548 9.48953 27.6428 9.60366 27.6208 9.71603C27.6196 9.72014 27.619 9.72541 27.6178 9.7301C27.3313 11.2248 25.451 13.8393 24.3753 15.194C23.2087 13.725 21.094 10.7731 21.094 9.37502C21.094 8.50478 21.4397 7.67018 22.0551 7.05482C22.6704 6.43947 23.505 6.09377 24.3753 6.09377C25.2455 6.09377 26.0801 6.43947 26.6955 7.05482C27.3108 7.67018 27.6565 8.50478 27.6565 9.37502ZM1.87526 4.68752C1.87526 3.81728 2.22097 2.98268 2.83632 2.36732C3.45167 1.75197 4.28627 1.40627 5.15652 1.40627C6.02676 1.40627 6.86136 1.75197 7.47671 2.36732C8.09206 2.98268 8.43776 3.81728 8.43777 4.68752C8.43777 6.08557 6.32312 9.03752 5.15652 10.5065C3.98991 9.03752 1.87526 6.08557 1.87526 4.68752ZM3.41862 21.6996C3.35956 21.7593 3.31767 21.8338 3.29733 21.9153C2.14258 19.9603 1.49549 17.7475 1.41505 15.4784C1.33461 13.2093 1.82337 10.9562 2.83679 8.92443C2.85554 8.95256 2.87429 8.9801 2.89362 9.00881C3.83347 10.394 4.75808 11.5037 4.79675 11.5506C4.84074 11.6033 4.89577 11.6456 4.95793 11.6747C5.0201 11.7038 5.08789 11.7189 5.15652 11.7189C5.22514 11.7189 5.29293 11.7038 5.3551 11.6747C5.41726 11.6456 5.47229 11.6033 5.51628 11.5506C5.55495 11.5037 6.47956 10.394 7.41941 9.00881C7.48191 8.91623 7.54304 8.82482 7.6028 8.73459L7.96902 9.10021V10.1186L7.63737 10.4496C7.54957 10.5377 7.50026 10.6569 7.50026 10.7813C7.50026 10.9056 7.54957 11.0249 7.63737 11.1129L9.04362 12.5192C9.09508 12.5707 9.1579 12.6094 9.22702 12.6322L10.4112 13.0266L10.7563 14.0625L10.3473 15.2889L10.0233 15.9375H8.90652C8.83374 15.9376 8.76196 15.9544 8.69675 15.9867L5.88425 17.393C5.8178 17.4262 5.7602 17.4748 5.71619 17.5347C5.67219 17.5946 5.64303 17.664 5.63113 17.7374C5.61923 17.8107 5.62493 17.8859 5.64774 17.9566C5.67056 18.0273 5.70985 18.0916 5.76237 18.1442L7.03152 19.4127V19.9623L6.28503 20.7082L5.62527 21.0387L4.89753 20.6742C4.80942 20.6305 4.70981 20.6154 4.6127 20.6312C4.5156 20.6469 4.42587 20.6927 4.35612 20.7621L3.41862 21.6996ZM15.0003 28.5938C13.8882 28.5941 12.7804 28.4581 11.7014 28.1889L12.7673 27.6563H14.0628C14.1355 27.6562 14.2073 27.6394 14.2725 27.607L15.21 27.1383C15.2549 27.1154 15.296 27.0858 15.3319 27.0504L15.7221 26.6596L16.7487 26.3174L17.4811 27.0504C17.5691 27.1383 17.6884 27.1876 17.8128 27.1875H18.7503C18.8746 27.1876 18.9939 27.1383 19.0819 27.0504L20.1565 25.9752L20.7624 26.5817C20.7981 26.6172 20.8392 26.6469 20.8843 26.6695L21.4702 26.9619C19.4836 28.0376 17.2593 28.5986 15.0003 28.5938ZM24.6126 24.6123C23.9464 25.2788 23.2135 25.8749 22.4253 26.3912L21.3717 25.8645L20.4882 24.9809C20.4001 24.8931 20.2809 24.8438 20.1565 24.8438C20.0322 24.8438 19.9129 24.8931 19.8249 24.9809L18.5563 26.25H18.0067L17.2069 25.4496C17.1453 25.3881 17.0678 25.3449 16.983 25.325C16.8983 25.305 16.8096 25.309 16.727 25.3365L15.3208 25.8053C15.2516 25.8281 15.1888 25.8669 15.1374 25.9184L14.7225 26.3332L13.952 26.7188H12.6565C12.5837 26.7188 12.512 26.7357 12.4467 26.768L10.3983 27.7928C8.18616 26.9965 6.21851 25.6398 4.68777 23.8553V22.9688C4.6877 22.896 4.67086 22.8242 4.63855 22.759L4.32038 22.1238L4.78034 21.6639L5.4155 21.982C5.48069 22.0144 5.55248 22.0313 5.62527 22.0313C5.69805 22.0313 5.76984 22.0144 5.83503 21.982L6.77253 21.5133C6.81744 21.4904 6.85855 21.4608 6.89441 21.4254L7.83191 20.4879C7.91975 20.3999 7.96906 20.2806 7.96902 20.1563V19.2188C7.96906 19.0944 7.91975 18.9751 7.83191 18.8871L6.89441 17.9496L6.88503 17.9408L9.01726 16.875H10.3128C10.3998 16.875 10.4852 16.8508 10.5593 16.805C10.6334 16.7593 10.6933 16.6939 10.7323 16.616L11.201 15.6785C11.2109 15.6586 11.2193 15.6381 11.2262 15.617L11.695 14.2108C11.7272 14.1146 11.7272 14.0105 11.695 13.9143L11.2262 12.508C11.2032 12.439 11.1644 12.3763 11.1129 12.3248C11.0615 12.2734 10.9988 12.2346 10.9298 12.2115L9.62839 11.7779L8.63171 10.7813L8.76941 10.6442C8.85725 10.5561 8.90656 10.4369 8.90652 10.3125V8.90627C8.90656 8.78192 8.85725 8.66264 8.76941 8.57463L8.11726 7.92248C8.95222 6.53791 9.37527 5.45217 9.37527 4.68752C9.37576 4.04256 9.22759 3.40616 8.94226 2.82775C10.6681 1.97026 12.5564 1.48908 14.4822 1.41604C16.408 1.34301 18.3273 1.6798 20.1132 2.40412L17.0956 4.29025C17.0064 4.34593 16.9385 4.43002 16.9029 4.52898C16.8673 4.62794 16.866 4.736 16.8993 4.83576L17.3065 6.05803L16.9245 6.8215C16.8693 6.93286 16.8602 7.06151 16.8993 7.17951L17.368 8.58576C17.375 8.60684 17.3834 8.6274 17.3932 8.64728L17.7577 9.37502L17.4272 10.0348L17.0124 10.4496C16.9245 10.5376 16.8752 10.6569 16.8753 10.7813V11.6426L16.4815 12.8244L15.2335 13.6565L14.3217 14.1117C14.2106 14.1674 14.1261 14.265 14.0868 14.383L13.618 15.7893C13.6022 15.8371 13.5941 15.8871 13.594 15.9375V16.4063C13.5941 16.479 13.6109 16.5508 13.6432 16.616L14.112 17.5535C14.1677 17.6647 14.2653 17.7492 14.3833 17.7885L15.7895 18.2572C15.8643 18.2819 15.9441 18.2876 16.0216 18.2737L20.9364 17.3801L21.6999 18.1442C21.7572 18.2013 21.8284 18.2426 21.9064 18.2642C21.9844 18.2857 22.0666 18.2868 22.1452 18.2672L23.763 17.8629L24.0436 18.1442C24.0795 18.1796 24.1206 18.2092 24.1655 18.232L25.035 18.6668L25.4499 19.0817C25.5196 19.151 25.6093 19.1968 25.7065 19.2126C25.8036 19.2284 25.9032 19.2133 25.9913 19.1695L26.8298 18.75H26.9938L27.2844 19.0406L27.7309 19.7848C27.0486 21.5984 25.9852 23.2446 24.6126 24.6123ZM28.0585 18.5086C28.0386 18.4759 28.015 18.4457 27.9882 18.4184L27.5194 17.9496C27.4314 17.8618 27.3121 17.8125 27.1878 17.8125H26.719C26.6462 17.8126 26.5745 17.8294 26.5093 17.8617L25.8741 18.1799L25.6444 17.9496C25.6085 17.9142 25.5674 17.8846 25.5225 17.8617L24.653 17.427L24.2382 17.0121C24.1808 16.955 24.1097 16.9137 24.0317 16.8921C23.9536 16.8706 23.8714 16.8695 23.7928 16.8891L22.1751 17.2934L21.4257 16.5434C21.372 16.4899 21.3062 16.4502 21.2338 16.4277C21.1615 16.4051 21.0848 16.4004 21.0102 16.4139L15.9717 17.3297L14.8637 16.9606L14.5315 16.2955V16.0137L14.9147 14.8635L15.6788 14.482C15.6958 14.4733 15.7128 14.4633 15.7292 14.4528L17.1354 13.5153C17.2221 13.4574 17.2871 13.3722 17.32 13.2733L17.7887 11.867C17.8046 11.8192 17.8127 11.7691 17.8128 11.7188V10.9752L18.1444 10.6442C18.1798 10.6083 18.2094 10.5672 18.2323 10.5223L18.701 9.58478C18.7334 9.5196 18.7503 9.4478 18.7503 9.37502C18.7503 9.30223 18.7334 9.23044 18.701 9.16525L18.2469 8.25763L17.8503 7.06701L18.2323 6.30353C18.2875 6.19218 18.2966 6.06352 18.2575 5.94553L17.9053 4.88967L21.1368 2.86994C22.3218 3.47001 23.4127 4.24028 24.3747 5.15627C23.2563 5.15768 22.1841 5.60263 21.3933 6.39351C20.6026 7.18439 20.1578 8.25662 20.1565 9.37502C20.1565 10.3295 20.8145 11.7832 22.1124 13.6963C23.0522 15.0815 23.9768 16.1912 24.0155 16.2381C24.0595 16.2908 24.1145 16.3331 24.1767 16.3622C24.2388 16.3913 24.3066 16.4064 24.3753 16.4064C24.4439 16.4064 24.5117 16.3913 24.5738 16.3622C24.636 16.3331 24.691 16.2908 24.735 16.2381C24.7737 16.1912 25.6983 15.0815 26.6382 13.6963C27.2657 12.7711 27.7428 11.9549 28.0696 11.2477C28.7534 13.6491 28.7688 16.1916 28.1141 18.6012L28.0585 18.5086Z" fill="#CD1E19"/>
<path d="M13.125 22.0313H11.9129L11.1127 21.231C11.0692 21.1875 11.0175 21.153 10.9606 21.1294C10.9037 21.1059 10.8428 21.0937 10.7812 21.0938H9.84373C9.75669 21.0938 9.67136 21.118 9.59731 21.1638C9.52327 21.2095 9.46343 21.275 9.4245 21.3529L8.487 23.2279C8.45445 23.2929 8.4375 23.3647 8.4375 23.4375C8.4375 23.5103 8.45445 23.5821 8.487 23.6472L8.95575 24.5847C9.01133 24.6958 9.10881 24.7804 9.22674 24.8197L10.633 25.2885C10.74 25.3242 10.8564 25.32 10.9606 25.2768C11.0648 25.2337 11.15 25.1543 11.2005 25.0534L11.4876 24.4795L12.5081 24.8197C12.5907 24.8473 12.6793 24.8512 12.7641 24.8312C12.8488 24.8112 12.9263 24.768 12.9878 24.7065L13.4566 24.2377C13.5444 24.1498 13.5938 24.0306 13.5937 23.9063V22.5C13.5937 22.3757 13.5443 22.2565 13.4564 22.1685C13.3685 22.0806 13.2493 22.0313 13.125 22.0313ZM12.6562 23.7121L12.5296 23.8387L11.3982 23.4615C11.2912 23.4259 11.1749 23.43 11.0706 23.4732C10.9664 23.5163 10.8812 23.5957 10.8307 23.6966L10.5436 24.2705L9.70733 23.9917L9.4303 23.4375L10.1334 22.0313H10.5871L11.3873 22.8315C11.4308 22.875 11.4825 22.9095 11.5393 22.9331C11.5962 22.9566 11.6572 22.9688 11.7187 22.9688H12.6562V23.7121Z" fill="#CD1E19"/>
<path d="M22.9688 9.375C22.9688 9.65313 23.0512 9.92501 23.2057 10.1563C23.3603 10.3875 23.5799 10.5678 23.8369 10.6742C24.0938 10.7806 24.3766 10.8085 24.6493 10.7542C24.9221 10.7 25.1727 10.566 25.3694 10.3694C25.566 10.1727 25.7 9.92213 25.7542 9.64934C25.8085 9.37656 25.7806 9.09381 25.6742 8.83685C25.5678 8.57989 25.3875 8.36027 25.1563 8.20575C24.925 8.05122 24.6531 7.96875 24.375 7.96875C24.0022 7.96918 23.6447 8.11748 23.3811 8.38111C23.1175 8.64474 22.9692 9.00217 22.9688 9.375ZM24.8438 9.375C24.8438 9.46771 24.8163 9.55834 24.7648 9.63542C24.7132 9.71251 24.64 9.77259 24.5544 9.80807C24.4687 9.84354 24.3745 9.85283 24.2836 9.83474C24.1926 9.81665 24.1091 9.77201 24.0435 9.70645C23.978 9.6409 23.9333 9.55738 23.9153 9.46645C23.8972 9.37552 23.9065 9.28127 23.9419 9.19562C23.9774 9.10996 24.0375 9.03675 24.1146 8.98525C24.1917 8.93374 24.2823 8.90625 24.375 8.90625C24.4993 8.90639 24.6184 8.95582 24.7063 9.0437C24.7942 9.13157 24.8436 9.25072 24.8438 9.375Z" fill="#CD1E19"/>
<path d="M6.5625 4.6875C6.5625 4.40937 6.48002 4.13749 6.3255 3.90623C6.17098 3.67497 5.95135 3.49473 5.6944 3.3883C5.43744 3.28186 5.15469 3.25401 4.8819 3.30827C4.60912 3.36253 4.35855 3.49646 4.16188 3.69313C3.96521 3.8898 3.83128 4.14037 3.77702 4.41315C3.72276 4.68594 3.75061 4.96869 3.85704 5.22565C3.96348 5.48261 4.14372 5.70223 4.37498 5.85675C4.60624 6.01128 4.87812 6.09375 5.15625 6.09375C5.52908 6.09332 5.88651 5.94502 6.15014 5.68139C6.41377 5.41776 6.56206 5.06033 6.5625 4.6875ZM4.6875 4.6875C4.6875 4.59479 4.71499 4.50416 4.7665 4.42708C4.818 4.34999 4.89121 4.28991 4.97687 4.25443C5.06252 4.21895 5.15677 4.20967 5.2477 4.22776C5.33863 4.24584 5.42215 4.29049 5.4877 4.35604C5.55326 4.4216 5.5979 4.50512 5.61599 4.59605C5.63408 4.68698 5.6248 4.78123 5.58932 4.86688C5.55384 4.95254 5.49376 5.02575 5.41667 5.07725C5.33959 5.12876 5.24896 5.15625 5.15625 5.15625C5.03197 5.15611 4.91282 5.10668 4.82495 5.0188C4.73707 4.93093 4.68764 4.81178 4.6875 4.6875Z" fill="#CD1E19"/>
</svg>
